<svg xmlns="http://www.w3.org/2000/svg" width="3058" height="200"><style><![CDATA[.K{stroke:#0a112b}.L{fill:#2453ff}.M{stroke-linejoin:round}.N{fill:#e6edfe}.O{fill:#30ba78}.P{fill-opacity:.06}]]></style><defs><linearGradient id="A" x1="4140.981" y1="-2217.562" x2="1803.618" y2="-2246.188" gradientUnits="userSpaceOnUse"><stop offset="0" stop-color="#1a4096"/><stop offset="1" stop-color="#242a36"/></linearGradient><path id="B" d="M2001.638 86.276v-.063c0-11.175-9.053-20.227-20.227-20.227h-.261c-4.162-11.786-15.4-20.236-28.606-20.236-14.69 0-26.943 10.446-29.739 24.309a20.15 20.15 0 0 0-12.19-4.081c-11.175 0-20.227 9.053-20.227 20.227v.063h111.251z"/><path id="C" d="M2763.67 70.467v-5.692"/><path id="D" d="M2728.915 112.444h34.755v17.133h-34.755z"/></defs><path d="M0 0h3058v200H0z" fill="#242a36"/><path transform="matrix(.79191 0 0 .301564 -341.49261 4.55362)" d="M4294.04-15.1H1768.5v662.17l2525.54 1.04z" fill="url(#A)"/><g class="L"><use href="#B" fill-opacity=".07"/><use href="#B" x="-413.075" y="-8.112" class="P"/><use href="#B" x="-575.539" y="57.871" class="P"/><path d="M1698.527 142.843v-.089c0-15.885 12.671-28.754 28.312-28.754h.365c5.826-16.754 21.555-28.767 40.04-28.767 20.561 0 37.712 14.85 41.626 34.556a27.92 27.92 0 0 1 17.063-5.802c15.641 0 28.312 12.869 28.312 28.754v.089h-155.718z" class="P"/></g><path d="M2113.672 0c-44.58 62.156-82.517 129.146-113.145 199.791l305.797.047C2333.893 126.434 2373.347 58.75 2423.984 0z" fill="#5fa2ff" fill-opacity=".4"/><g class="M"><path d="M2798.428 14.1a182.429 183.307 0 0 0-182.428 183.307 182.429 183.307 0 0 0 .049.688h364.76a182.429 183.307 0 0 0 .049-.687A182.429 183.307 0 0 0 2798.428 14.1z" fill="#5e94e4" stroke="#001d61" stroke-width="2.2"/><path d="M2752.161 59.046h92.609v79.949h-92.609z" class="K N"/></g><g fill="none" stroke-width="1" class="K M"><use href="#C"/><use href="#C" x="11.585"/><use href="#C" x="23.172"/><use href="#C" x="34.757"/><use href="#C" x="46.343"/><use href="#C" x="57.926"/><use href="#C" x="69.512"/></g><g class="M K"><path d="M2740.501 43.916h115.853v17.133h-115.853z" class="N"/><path d="M2740.501 49.614h115.853v5.711h-115.853z" fill="#4768e5"/><path d="M2763.67 38.205h69.513v5.711h-69.513z" class="N"/><use href="#D" class="L"/><g class="O"><use href="#D" x="34.755"/><use href="#D" x="69.512"/></g><use href="#D" x="104.27" fill="#fff"/><use href="#D" y="-17.133" class="O"/><use href="#D" x="34.755" y="-17.133" fill="#fff"/><use href="#D" x="69.512" y="-17.133" class="L"/><use href="#D" x="104.27" y="-17.133" class="O"/><use href="#D" x="34.755" y="-34.266" class="L"/><use href="#D" x="69.512" y="-34.266" class="O"/></g><path d="M2798.43 118.152l-.227.031v79.904l69.738.014 11.584-68.529z" class="K N"/><g fill="#0b41b7" class="K"><path d="M2798.203 118.184l-80.873 11.389 11.586 68.504 69.287.012z"/><ellipse cx="2798.464" cy="135.284" rx="5.793" ry="5.711" class="M"/></g><path d="M2421.531 0c-50.268 58.928-89.728 126.744-116.955 200h2.34c27.356-73.329 67.058-141.134 117.574-200z" fill="#1b3274"/><path d="M2005.88 183.82a1034.479 1069.935 0 0 0-7.659 16.049l306.464.047a637.046 658.594 0 0 0 0 .006l502.21.078H3058v-16.18z" fill="#305dcf"/><path d="M2230.215 172.77c-1.31-.261-2.184 1.529-3.405 2.096-1.485.664-3.076 1.11-4.782 1.197-.263.017-.493.141-.76.143-1.289-.011-2.483-.337-3.664-.686-.377-.106-.797-.089-1.16-.227-1.514-.594-2.9-1.45-4.095-2.518-2.403 2.148-5.565 3.451-9.028 3.451a13.5 13.5 0 0 1-9.028-3.451c-2.404 2.148-5.565 3.451-9.028 3.451a13.5 13.5 0 0 1-9.028-3.451c-2.404 2.148-5.565 3.451-9.028 3.451s-6.625-1.303-9.028-3.451c-2.403 2.148-5.565 3.451-9.028 3.451s-6.625-1.303-9.028-3.451a13.5 13.5 0 0 1-9.028 3.451c-3.463 0-6.624-1.303-9.028-3.451-2.403 2.148-5.565 3.451-9.028 3.451s-6.625-1.303-9.028-3.451c-2.404 2.148-5.565 3.451-9.028 3.451s-6.625-1.303-9.028-3.451c-2.403 2.148-5.565 3.451-9.028 3.451s-6.625-1.303-9.028-3.451a13.5 13.5 0 0 1-9.028 3.451c-3.463 0-6.625-1.303-9.028-3.451-2.403 2.148-5.563 3.451-9.026 3.451s-6.625-1.303-9.028-3.451c-2.403 2.148-5.565 3.451-9.028 3.451s-6.625-1.303-9.028-3.451c-.491.439-1.131.669-1.681 1.033-3.247 6.624-6.427 9.282-9.54 15.975.737.124 1.418.41 2.19.41a13.5 13.5 0 0 0 9.028-3.449 13.5 13.5 0 0 0 18.056 0 13.5 13.5 0 0 0 18.056 0 13.5 13.5 0 0 0 18.056 0 13.5 13.5 0 0 0 18.057 0 13.5 13.5 0 0 0 18.056 0 13.5 13.5 0 0 0 18.056 0 13.5 13.5 0 0 0 18.056 0 13.5 13.5 0 0 0 18.056 0 13.5 13.5 0 0 0 18.056 0 13.5 13.5 0 0 0 18.057 0 13.5 13.5 0 0 0 18.056 0c1.09.974 2.373 1.711 3.732 2.295v.15c.164.069.329.135.498.195.053.016.105.035.157.051.128.048.261.095.398.131a6.09 6.09 0 0 0 .462.137c.144.04.289.081.433.113.02.008.041.012.061.016.184.044.372.081.56.117.181.036.362.065.543.094.049.008.096.012.145.019.169.024.341.044.513.061.016 0 .033.006.053.006.201.02.405.031.609.043h.027c.213.012.43.016.647.016.029 0 .052-.013.08-.014.039 0 .072.019.11.019.234 0 .419-.15.651-.162a13.3 13.3 0 0 0 4.782-1.199c.297-.133.671-.087.956-.24v-.348c.838-.477 1.734-.867 2.449-1.506a13.5 13.5 0 0 0 18.056 0 13.5 13.5 0 0 0 18.057 0 13.5 13.5 0 0 0 18.056 0 13.5 13.5 0 0 0 18.057 0 13.5 13.5 0 0 0 18.056 0 13.5 13.5 0 0 0 18.056 0 13.5 13.5 0 0 0 18.057 0 13.5 13.5 0 0 0 18.056 0 13.5 13.5 0 0 0 18.057 0 13.5 13.5 0 0 0 18.056 0 13.5 13.5 0 0 0 18.057 0 13.5 13.5 0 0 0 18.056 0 13.5 13.5 0 0 0 18.056 0 13.5 13.5 0 0 0 18.056 0 13.5 13.5 0 0 0 18.056 0 13.5 13.5 0 0 0 18.056 0 13.5 13.5 0 0 0 18.056 0 13.5 13.5 0 0 0 18.056 0 13.5 13.5 0 0 0 18.057 0 13.5 13.5 0 0 0 18.056 0 13.5 13.5 0 0 0 18.056 0 13.5 13.5 0 0 0 18.056 0 13.5 13.5 0 0 0 18.056 0 13.5 13.5 0 0 0 18.056 0 13.5 13.5 0 0 0 18.056 0 13.5 13.5 0 0 0 18.057 0 13.5 13.5 0 0 0 18.056 0 13.5 13.5 0 0 0 18.057 0 13.5 13.5 0 0 0 18.056 0 13.5 13.5 0 0 0 18.057 0 13.5 13.5 0 0 0 18.056 0 13.5 13.5 0 0 0 18.056 0 13.5 13.5 0 0 0 18.056 0 13.5 13.5 0 0 0 18.056 0 13.5 13.5 0 0 0 18.057 0 13.5 13.5 0 0 0 18.056 0 13.5 13.5 0 0 0 18.057 0 13.5 13.5 0 0 0 18.056 0 13.5 13.5 0 0 0 18.056 0 13.5 13.5 0 0 0 18.056 0 13.5 13.5 0 0 0 18.056 0 13.5 13.5 0 0 0 18.056 0 13.5 13.5 0 0 0 18.056 0 13.5 13.5 0 0 0 18.056 0 13.5 13.5 0 0 0 18.057 0 13.5 13.5 0 0 0 9.028 3.449c2.246 0 4.35-.584 6.219-1.557v-13.969c-1.869.973-3.973 1.559-6.219 1.559a13.5 13.5 0 0 1-9.028-3.451c-2.404 2.148-5.565 3.451-9.028 3.451s-6.625-1.303-9.028-3.451c-2.403 2.148-5.565 3.451-9.028 3.451s-6.625-1.303-9.028-3.451c-2.403 2.148-5.565 3.451-9.028 3.451s-6.625-1.303-9.028-3.451a13.5 13.5 0 0 1-9.028 3.451c-3.463 0-6.625-1.303-9.028-3.451-2.403 2.148-5.565 3.451-9.028 3.451s-6.625-1.303-9.028-3.451c-2.403 2.148-5.566 3.451-9.028 3.451a13.5 13.5 0 0 1-9.028-3.451c-2.403 2.148-5.566 3.451-9.028 3.451a13.5 13.5 0 0 1-9.028-3.451c-2.404 2.148-5.565 3.451-9.028 3.451s-6.625-1.303-9.028-3.451c-2.403 2.148-5.566 3.451-9.028 3.451s-6.625-1.303-9.028-3.451a13.5 13.5 0 0 1-18.056 0c-2.404 2.148-5.565 3.451-9.028 3.451s-6.625-1.303-9.028-3.451a13.5 13.5 0 0 1-9.028 3.451c-3.463 0-6.625-1.303-9.028-3.451-2.404 2.148-5.565 3.451-9.028 3.451a13.5 13.5 0 0 1-9.028-3.451c-2.403 2.148-5.565 3.451-9.028 3.451s-6.625-1.303-9.028-3.451c-2.404 2.148-5.565 3.451-9.028 3.451a13.5 13.5 0 0 1-9.028-3.451 13.5 13.5 0 0 1-9.028 3.451c-3.463 0-6.625-1.303-9.028-3.451-2.403 2.148-5.565 3.451-9.028 3.451a13.5 13.5 0 0 1-9.028-3.451c-2.403 2.148-5.566 3.451-9.028 3.451a13.5 13.5 0 0 1-9.028-3.451c-2.403 2.148-5.565 3.451-9.028 3.451a13.5 13.5 0 0 1-9.028-3.451c-2.404 2.148-5.565 3.451-9.028 3.451s-6.625-1.303-9.028-3.451a13.5 13.5 0 0 1-9.028 3.451c-3.463 0-6.625-1.303-9.028-3.451-2.403 2.148-5.566 3.451-9.028 3.451a13.5 13.5 0 0 1-9.028-3.451 13.5 13.5 0 0 1-9.028 3.451c-3.463 0-6.625-1.303-9.028-3.451-2.403 2.148-5.565 3.451-9.028 3.451a13.5 13.5 0 0 1-9.028-3.451c-2.404 2.148-5.565 3.451-9.028 3.451a13.5 13.5 0 0 1-9.028-3.451c-2.404 2.148-5.566 3.451-9.028 3.451a13.5 13.5 0 0 1-9.028-3.451c-2.404 2.148-5.565 3.451-9.028 3.451s-6.625-1.303-9.028-3.451a13.5 13.5 0 0 1-9.028 3.451c-3.463 0-6.625-1.303-9.028-3.451a13.5 13.5 0 0 1-9.028 3.451c-3.463 0-6.625-1.303-9.028-3.451-2.403 2.148-5.565 3.451-9.028 3.451s-6.625-1.303-9.028-3.451a13.5 13.5 0 0 1-9.028 3.451c-3.463 0-6.625-1.303-9.028-3.451-2.404 2.148-5.565 3.451-9.028 3.451a13.5 13.5 0 0 1-9.028-3.451c-2.403 2.148-5.566 3.451-9.028 3.451s-6.625-1.303-9.028-3.451c-2.404 2.148-5.566 3.451-9.028 3.451a13.5 13.5 0 0 1-9.028-3.451c-2.403 2.148-5.565 3.451-9.028 3.451s-6.625-1.303-9.028-3.451a13.5 13.5 0 0 1-18.056 0c-2.403 2.148-5.565 3.451-9.028 3.451a13.5 13.5 0 0 1-9.028-3.451 13.5 13.5 0 0 1-18.056 0c-2.404 2.148-5.565 3.451-9.028 3.451s-6.625-1.303-9.028-3.451a13.5 13.5 0 0 1-9.028 3.451c-3.463 0-6.625-1.303-9.028-3.451-2.403 2.148-5.566 3.451-9.028 3.451a13.5 13.5 0 0 1-9.028-3.451c-2.403 2.148-5.565 3.451-9.028 3.451s-6.625-1.303-9.028-3.451a13.5 13.5 0 0 1-18.056 0c-2.404 2.148-5.565 3.451-9.028 3.451s-6.625-1.303-9.028-3.451a13.5 13.5 0 0 1-9.028 3.451c-3.463 0-5.863-2.82-9.028-3.451zm0 0c-1.31-.261-2.184 1.529-3.405 2.096-1.485.664-3.076 1.11-4.782 1.197-.263.017-.493.141-.76.143-1.289-.011-2.483-.337-3.664-.686-.377-.106-.797-.089-1.16-.227-1.514-.594-2.9-1.45-4.095-2.518-2.403 2.148-5.565 3.451-9.028 3.451a13.5 13.5 0 0 1-9.028-3.451c-2.404 2.148-5.565 3.451-9.028 3.451a13.5 13.5 0 0 1-9.028-3.451c-2.404 2.148-5.565 3.451-9.028 3.451s-6.625-1.303-9.028-3.451c-2.403 2.148-5.565 3.451-9.028 3.451s-6.625-1.303-9.028-3.451a13.5 13.5 0 0 1-9.028 3.451c-3.463 0-6.624-1.303-9.028-3.451-2.403 2.148-5.565 3.451-9.028 3.451s-6.625-1.303-9.028-3.451c-2.404 2.148-5.565 3.451-9.028 3.451s-6.625-1.303-9.028-3.451c-2.403 2.148-5.565 3.451-9.028 3.451s-6.625-1.303-9.028-3.451a13.5 13.5 0 0 1-9.028 3.451c-3.463 0-6.625-1.303-9.028-3.451-2.403 2.148-5.563 3.451-9.026 3.451s-6.625-1.303-9.028-3.451c-2.403 2.148-5.565 3.451-9.028 3.451s-6.625-1.303-9.028-3.451c-.491.439-2.247-.14-2.797.225-3.247 6.624-5.311 10.091-8.424 16.783.737.124 1.418.41 2.19.41a13.5 13.5 0 0 0 9.028-3.449 13.5 13.5 0 0 0 18.056 0 13.5 13.5 0 0 0 18.056 0 13.5 13.5 0 0 0 18.056 0 13.5 13.5 0 0 0 18.057 0 13.5 13.5 0 0 0 18.056 0 13.5 13.5 0 0 0 18.056 0 13.5 13.5 0 0 0 18.056 0 13.5 13.5 0 0 0 18.056 0 13.5 13.5 0 0 0 18.056 0 13.5 13.5 0 0 0 18.057 0 13.5 13.5 0 0 0 18.056 0c1.09.974 2.373 1.711 3.732 2.295v.15c.164.069.329.135.498.195.053.016.105.035.157.051.128.048.261.095.398.131a6.09 6.09 0 0 0 .462.137c.144.04.289.081.433.113.02.008.041.012.061.016.184.044.372.081.56.117.181.036.362.065.543.094.049.008.096.012.145.019.169.024.341.044.513.061.016 0 .033.006.053.006.201.02.405.031.609.043h.027c.213.012.43.016.647.016.029 0 .052-.013.08-.014.039 0 .072.019.11.019.234 0 .419-.15.651-.162a13.3 13.3 0 0 0 4.782-1.199c.297-.133.671-.087.956-.24v-.348c.838-.477 1.734-.867 2.449-1.506a13.5 13.5 0 0 0 18.056 0 13.5 13.5 0 0 0 18.057 0 13.5 13.5 0 0 0 18.056 0 13.5 13.5 0 0 0 18.057 0 13.5 13.5 0 0 0 18.056 0 13.5 13.5 0 0 0 18.056 0 13.5 13.5 0 0 0 18.057 0 13.5 13.5 0 0 0 18.056 0 13.5 13.5 0 0 0 18.057 0 13.5 13.5 0 0 0 18.056 0 13.5 13.5 0 0 0 18.057 0 13.5 13.5 0 0 0 18.056 0 13.5 13.5 0 0 0 18.056 0 13.5 13.5 0 0 0 18.056 0 13.5 13.5 0 0 0 18.056 0 13.5 13.5 0 0 0 18.056 0 13.5 13.5 0 0 0 18.056 0 13.5 13.5 0 0 0 18.056 0 13.5 13.5 0 0 0 18.057 0 13.5 13.5 0 0 0 18.056 0 13.5 13.5 0 0 0 18.056 0 13.5 13.5 0 0 0 18.056 0 13.5 13.5 0 0 0 18.056 0 13.5 13.5 0 0 0 18.056 0 13.5 13.5 0 0 0 18.056 0 13.5 13.5 0 0 0 18.057 0 13.5 13.5 0 0 0 18.056 0 13.5 13.5 0 0 0 18.057 0 13.5 13.5 0 0 0 18.056 0 13.5 13.5 0 0 0 18.057 0 13.5 13.5 0 0 0 18.056 0 13.5 13.5 0 0 0 18.056 0 13.5 13.5 0 0 0 18.056 0 13.5 13.5 0 0 0 18.056 0 13.5 13.5 0 0 0 18.057 0 13.5 13.5 0 0 0 18.056 0 13.5 13.5 0 0 0 18.057 0 13.5 13.5 0 0 0 18.056 0 13.5 13.5 0 0 0 18.056 0 13.5 13.5 0 0 0 18.056 0 13.5 13.5 0 0 0 18.056 0 13.5 13.5 0 0 0 18.056 0 13.5 13.5 0 0 0 18.056 0 13.5 13.5 0 0 0 18.056 0 13.5 13.5 0 0 0 18.057 0 13.5 13.5 0 0 0 9.028 3.449c2.246 0 4.35-.584 6.219-1.557v-13.969c-1.869.973-3.973 1.559-6.219 1.559a13.5 13.5 0 0 1-9.028-3.451c-2.404 2.148-5.565 3.451-9.028 3.451s-6.625-1.303-9.028-3.451c-2.403 2.148-5.565 3.451-9.028 3.451s-6.625-1.303-9.028-3.451c-2.403 2.148-5.565 3.451-9.028 3.451s-6.625-1.303-9.028-3.451a13.5 13.5 0 0 1-9.028 3.451c-3.463 0-6.625-1.303-9.028-3.451-2.403 2.148-5.565 3.451-9.028 3.451s-6.625-1.303-9.028-3.451c-2.403 2.148-5.566 3.451-9.028 3.451a13.5 13.5 0 0 1-9.028-3.451c-2.403 2.148-5.566 3.451-9.028 3.451a13.5 13.5 0 0 1-9.028-3.451c-2.404 2.148-5.565 3.451-9.028 3.451s-6.625-1.303-9.028-3.451c-2.403 2.148-5.566 3.451-9.028 3.451s-6.625-1.303-9.028-3.451a13.5 13.5 0 0 1-18.056 0c-2.404 2.148-5.565 3.451-9.028 3.451s-6.625-1.303-9.028-3.451a13.5 13.5 0 0 1-9.028 3.451c-3.463 0-6.625-1.303-9.028-3.451-2.404 2.148-5.565 3.451-9.028 3.451a13.5 13.5 0 0 1-9.028-3.451c-2.403 2.148-5.565 3.451-9.028 3.451s-6.625-1.303-9.028-3.451c-2.404 2.148-5.565 3.451-9.028 3.451a13.5 13.5 0 0 1-9.028-3.451 13.5 13.5 0 0 1-9.028 3.451c-3.463 0-6.625-1.303-9.028-3.451-2.403 2.148-5.565 3.451-9.028 3.451a13.5 13.5 0 0 1-9.028-3.451c-2.403 2.148-5.566 3.451-9.028 3.451a13.5 13.5 0 0 1-9.028-3.451c-2.403 2.148-5.565 3.451-9.028 3.451a13.5 13.5 0 0 1-9.028-3.451c-2.404 2.148-5.565 3.451-9.028 3.451s-6.625-1.303-9.028-3.451a13.5 13.5 0 0 1-9.028 3.451c-3.463 0-6.625-1.303-9.028-3.451-2.403 2.148-5.566 3.451-9.028 3.451a13.5 13.5 0 0 1-9.028-3.451 13.5 13.5 0 0 1-9.028 3.451c-3.463 0-6.625-1.303-9.028-3.451-2.403 2.148-5.565 3.451-9.028 3.451a13.5 13.5 0 0 1-9.028-3.451c-2.404 2.148-5.565 3.451-9.028 3.451a13.5 13.5 0 0 1-9.028-3.451c-2.404 2.148-5.566 3.451-9.028 3.451a13.5 13.5 0 0 1-9.028-3.451c-2.404 2.148-5.565 3.451-9.028 3.451s-6.625-1.303-9.028-3.451a13.5 13.5 0 0 1-9.028 3.451c-3.463 0-6.625-1.303-9.028-3.451a13.5 13.5 0 0 1-9.028 3.451c-3.463 0-6.625-1.303-9.028-3.451-2.403 2.148-5.565 3.451-9.028 3.451s-6.625-1.303-9.028-3.451a13.5 13.5 0 0 1-9.028 3.451c-3.463 0-6.625-1.303-9.028-3.451-2.404 2.148-5.565 3.451-9.028 3.451a13.5 13.5 0 0 1-9.028-3.451c-2.403 2.148-5.566 3.451-9.028 3.451s-6.625-1.303-9.028-3.451c-2.404 2.148-5.566 3.451-9.028 3.451a13.5 13.5 0 0 1-9.028-3.451c-2.403 2.148-5.565 3.451-9.028 3.451s-6.625-1.303-9.028-3.451a13.5 13.5 0 0 1-18.056 0c-2.403 2.148-5.565 3.451-9.028 3.451a13.5 13.5 0 0 1-9.028-3.451 13.5 13.5 0 0 1-18.056 0c-2.404 2.148-5.565 3.451-9.028 3.451s-6.625-1.303-9.028-3.451a13.5 13.5 0 0 1-9.028 3.451c-3.463 0-6.625-1.303-9.028-3.451-2.403 2.148-5.566 3.451-9.028 3.451a13.5 13.5 0 0 1-9.028-3.451c-2.403 2.148-5.565 3.451-9.028 3.451s-6.625-1.303-9.028-3.451a13.5 13.5 0 0 1-18.056 0c-2.404 2.148-5.565 3.451-9.028 3.451s-6.625-1.303-9.028-3.451a13.5 13.5 0 0 1-9.028 3.451c-3.463 0-5.863-2.82-9.028-3.451z" fill="#5284ea"/><path d="M2230.01 186.397c-.933.834-2.076 1.452-3.277 2.01-1.439.644-2.968 1.073-4.602 1.156a.502.5 0 0 0-.01.002c-.4.026-.613.139-.727.141-1.205-.011-2.347-.32-3.52-.666a.502.5 0 0 0-.01-.002c-.482-.136-.885-.126-1.115-.211v-.002c-1.457-.572-2.789-1.394-3.939-2.422a.502.5 0 0 0-.67 0 12.99 12.99 0 0 1-8.692 3.322c-3.336 0-6.377-1.253-8.692-3.322a.502.5 0 0 0-.67 0 12.99 12.99 0 0 1-8.692 3.322c-3.336 0-6.374-1.253-8.69-3.322a.502.5 0 0 0-.67 0c-2.315 2.069-5.357 3.322-8.694 3.322s-6.376-1.253-8.692-3.322a.502.5 0 0 0-.67 0 12.99 12.99 0 0 1-8.692 3.322c-3.336 0-6.376-1.253-8.692-3.322a.502.5 0 0 0-.67 0c-2.315 2.069-5.356 3.322-8.692 3.322a12.99 12.99 0 0 1-8.692-3.322.502.5 0 0 0-.67 0c-2.315 2.069-5.356 3.322-8.692 3.322a12.99 12.99 0 0 1-8.692-3.322.502.5 0 0 0-.67 0 12.99 12.99 0 0 1-17.384 0 .502.5 0 0 0-.67 0c-2.315 2.07-5.354 3.322-8.69 3.322a12.99 12.99 0 0 1-8.692-3.322.502.5 0 0 0-.67 0c-2.315 2.069-5.358 3.322-8.694 3.322a12.99 12.99 0 0 1-8.692-3.322.502.5 0 0 0-.67 0 12.99 12.99 0 0 1-17.384 0 .502.5 0 0 0-.67 0 12.99 12.99 0 0 1-17.384 0 .502.5 0 0 0-.67 0 12.99 12.99 0 0 1-8.692 3.322c-.543 0-1.014-.223-1.54-.287a1035.296 1069.935 0 0 0-.617 1.291c.726.121 1.396.402 2.157.402 3.448 0 6.575-1.301 9.027-3.373 2.452 2.073 5.579 3.373 9.027 3.373s6.575-1.301 9.027-3.373c2.452 2.073 5.579 3.373 9.027 3.373s6.575-1.301 9.027-3.373c2.452 2.073 5.579 3.373 9.027 3.373s6.577-1.3 9.029-3.373c2.452 2.073 5.579 3.373 9.027 3.373s6.573-1.301 9.025-3.373c2.452 2.073 5.579 3.373 9.027 3.373s6.575-1.301 9.027-3.373c2.452 2.073 5.579 3.373 9.027 3.373s6.575-1.301 9.027-3.373c2.452 2.073 5.579 3.373 9.027 3.373s6.575-1.301 9.027-3.373c2.452 2.073 5.579 3.373 9.027 3.373s6.575-1.301 9.027-3.373c2.452 2.073 5.579 3.373 9.027 3.373s6.577-1.3 9.029-3.373c2.452 2.072 5.577 3.373 9.025 3.373s6.575-1.301 9.027-3.373c2.452 2.073 5.579 3.373 9.027 3.373s6.575-1.301 9.027-3.373c1.17.988 2.463 1.835 3.908 2.402a.502.5 0 0 0 .01.002c.495.188.934.166 1.205.242 1.184.349 2.426.694 3.794.705a.502.5 0 0 0 .01 0c.416-.003.653-.132.78-.143l.01-.002c1.774-.092 3.426-.555 4.954-1.238a.502.5 0 0 0 .01-.004c1.122-.521 2.212-1.163 3.195-1.969 2.452 2.072 5.579 3.371 9.027 3.371s6.575-1.301 9.027-3.373c2.452 2.072 5.577 3.373 9.025 3.373s6.577-1.3 9.029-3.373c2.452 2.073 5.579 3.373 9.027 3.373s6.575-1.301 9.027-3.373c2.452 2.073 5.579 3.373 9.027 3.373s6.575-1.301 9.027-3.373c2.452 2.073 5.579 3.373 9.027 3.373s6.575-1.301 9.027-3.373c2.452 2.073 5.579 3.373 9.027 3.373s6.575-1.301 9.027-3.373c2.452 2.073 5.579 3.373 9.027 3.373s6.575-1.301 9.027-3.373c2.452 2.073 5.579 3.373 9.027 3.373s6.575-1.301 9.027-3.373c2.452 2.073 5.579 3.373 9.027 3.373s6.575-1.301 9.027-3.373c2.452 2.073 5.579 3.373 9.027 3.373s6.575-1.301 9.027-3.373c2.452 2.073 5.579 3.373 9.027 3.373s6.575-1.301 9.027-3.373c2.452 2.073 5.579 3.373 9.027 3.373s6.573-1.301 9.025-3.373c2.452 2.073 5.581 3.373 9.029 3.373s6.575-1.301 9.027-3.373c2.452 2.073 5.579 3.373 9.027 3.373s6.575-1.301 9.027-3.373c2.452 2.073 5.579 3.373 9.027 3.373s6.575-1.301 9.027-3.373c2.452 2.073 5.579 3.373 9.027 3.373s6.575-1.301 9.027-3.373c2.452 2.073 5.579 3.373 9.027 3.373s6.575-1.301 9.027-3.373c2.452 2.072 5.577 3.373 9.025 3.373s6.575-1.301 9.027-3.373c2.452 2.073 5.581 3.373 9.029 3.373s6.575-1.301 9.027-3.373c2.452 2.073 5.579 3.373 9.027 3.373s6.575-1.301 9.027-3.373c2.452 2.073 5.579 3.373 9.027 3.373s6.575-1.3 9.027-3.373c2.452 2.073 5.579 3.373 9.027 3.373s6.575-1.301 9.027-3.373c2.452 2.073 5.579 3.373 9.027 3.373s6.573-1.301 9.025-3.373c2.452 2.073 5.581 3.373 9.029 3.373s6.575-1.301 9.027-3.373c2.452 2.073 5.579 3.373 9.027 3.373s6.575-1.301 9.027-3.373c2.452 2.073 5.579 3.373 9.027 3.373s6.575-1.301 9.027-3.373c2.452 2.073 5.579 3.373 9.027 3.373s6.575-1.301 9.027-3.373c2.452 2.073 5.579 3.373 9.027 3.373s6.575-1.301 9.027-3.373c2.452 2.072 5.577 3.373 9.025 3.373s6.577-1.3 9.029-3.373c2.452 2.073 5.579 3.373 9.027 3.373s6.575-1.301 9.027-3.373c2.452 2.073 5.579 3.373 9.027 3.373s6.575-1.301 9.027-3.373c2.452 2.073 5.579 3.373 9.027 3.373s6.575-1.301 9.027-3.373c2.452 2.073 5.579 3.373 9.027 3.373s6.575-1.301 9.027-3.373c2.452 2.073 5.579 3.373 9.027 3.373s6.573-1.301 9.025-3.373c2.452 2.073 5.581 3.373 9.029 3.373s6.575-1.301 9.027-3.373c2.452 2.073 5.579 3.373 9.027 3.373s6.575-1.301 9.027-3.373c2.452 2.073 5.579 3.373 9.027 3.373s6.575-1.301 9.027-3.373c2.452 2.073 5.579 3.373 9.027 3.373s6.575-1.301 9.027-3.373c2.452 2.073 5.579 3.373 9.027 3.373s6.573-1.301 9.025-3.373c2.452 2.073 5.579 3.373 9.027 3.373s6.577-1.3 9.029-3.373c2.452 2.073 5.579 3.373 9.027 3.373s6.575-1.301 9.027-3.373c2.452 2.073 5.579 3.373 9.027 3.373s6.575-1.301 9.027-3.373c2.452 2.073 5.579 3.373 9.027 3.373s6.575-1.301 9.027-3.373c2.452 2.073 5.579 3.373 9.027 3.373s6.575-1.301 9.027-3.373c2.452 2.072 5.577 3.373 9.025 3.373s6.575-1.301 9.027-3.373c2.452 2.073 5.581 3.373 9.029 3.373 2.244 0 4.337-.587 6.214-1.525v-1.414a.502.5 0 0 0-.227.031c-1.806.941-3.827 1.504-5.986 1.504-3.336 0-6.378-1.255-8.694-3.324a.502.5 0 0 0-.67 0 12.99 12.99 0 0 1-8.692 3.324c-3.336 0-6.374-1.255-8.69-3.324a.502.5 0 0 0-.67 0 12.99 12.99 0 0 1-17.383 0 .502.5 0 0 0-.67 0 12.99 12.99 0 0 1-17.383 0 .502.5 0 0 0-.67 0 12.99 12.99 0 0 1-17.383 0 .502.5 0 0 0-.67 0 12.99 12.99 0 0 1-17.383 0 .502.5 0 0 0-.67 0c-2.315 2.069-5.358 3.324-8.694 3.324a12.99 12.99 0 0 1-8.692-3.324.502.5 0 0 0-.67 0c-2.316 2.07-5.354 3.324-8.69 3.324a12.99 12.99 0 0 1-8.692-3.324.502.5 0 0 0-.67 0 12.99 12.99 0 0 1-17.384 0 .502.5 0 0 0-.67 0 12.99 12.99 0 0 1-17.383 0 .502.5 0 0 0-.67 0 12.99 12.99 0 0 1-17.383 0 .502.5 0 0 0-.67 0 12.99 12.99 0 0 1-8.692 3.324c-3.336 0-6.378-1.255-8.694-3.324a.502.5 0 0 0-.67 0c-2.315 2.07-5.354 3.324-8.69 3.324a12.99 12.99 0 0 1-8.692-3.324.502.5 0 0 0-.67 0 12.99 12.99 0 0 1-17.383 0 .502.5 0 0 0-.67 0 12.99 12.99 0 0 1-17.383 0 .502.5 0 0 0-.67 0 12.99 12.99 0 0 1-17.384 0 .502.5 0 0 0-.67 0 12.99 12.99 0 0 1-17.384 0 .502.5 0 0 0-.67 0c-2.315 2.069-5.358 3.324-8.694 3.324s-6.374-1.255-8.69-3.324a.502.5 0 0 0-.67 0 12.99 12.99 0 0 1-17.383 0 .502.5 0 0 0-.67 0 12.99 12.99 0 0 1-17.383 0 .502.5 0 0 0-.67 0 12.99 12.99 0 0 1-17.383 0 .502.5 0 0 0-.67 0 12.99 12.99 0 0 1-17.383 0 .502.5 0 0 0-.67 0 12.99 12.99 0 0 1-8.692 3.324c-3.336 0-6.378-1.255-8.694-3.324a.502.5 0 0 0-.67 0c-2.316 2.07-5.354 3.324-8.69 3.324a12.99 12.99 0 0 1-8.692-3.324.502.5 0 0 0-.67 0 12.99 12.99 0 0 1-17.384 0 .502.5 0 0 0-.67 0 12.99 12.99 0 0 1-17.384 0 .502.5 0 0 0-.67 0 12.99 12.99 0 0 1-17.384 0 .502.5 0 0 0-.67 0 12.99 12.99 0 0 1-8.692 3.324c-3.336 0-6.378-1.255-8.694-3.324a.502.5 0 0 0-.67 0 12.99 12.99 0 0 1-8.692 3.324c-3.336 0-6.374-1.255-8.69-3.324a.502.5 0 0 0-.67 0 12.99 12.99 0 0 1-17.383 0 .502.5 0 0 0-.67 0 12.99 12.99 0 0 1-17.383 0 .502.5 0 0 0-.67 0 12.99 12.99 0 0 1-17.383 0 .502.5 0 0 0-.67 0 12.99 12.99 0 0 1-17.383 0 .502.5 0 0 0-.67 0 12.99 12.99 0 0 1-8.692 3.324c-3.336 0-6.378-1.255-8.694-3.324a.502.5 0 0 0-.67 0c-2.316 2.07-5.354 3.324-8.69 3.324a12.99 12.99 0 0 1-8.692-3.324.502.5 0 0 0-.67 0 12.99 12.99 0 0 1-17.384 0 .502.5 0 0 0-.67 0 12.99 12.99 0 0 1-17.383 0 .502.5 0 0 0-.67 0 12.99 12.99 0 0 1-17.383 0 .502.5 0 0 0-.67 0 12.99 12.99 0 0 1-17.383 0 .502.5 0 0 0-.67 0 12.99 12.99 0 0 1-17.383 0 .502.5 0 0 0-.67 0 12.99 12.99 0 0 1-17.383 0 .502.5 0 0 0-.67 0 12.99 12.99 0 0 1-17.383 0 .502.5 0 0 0-.67 0 12.99 12.99 0 0 1-17.384 0 .502.5 0 0 0-.67 0 12.99 12.99 0 0 1-17.383 0 .502.5 0 0 0-.67 0c-2.315 2.069-5.358 3.324-8.694 3.324s-6.374-1.255-8.69-3.324a.502.5 0 0 0-.67 0 12.99 12.99 0 0 1-17.383 0 .502.5 0 0 0-.67 0z" fill="#1f3a84"/><path d="M2229.27 172.397c-.934.834-2.077 1.452-3.28 2.01-1.441.644-2.97 1.073-4.606 1.156a.502.5 0 0 0-.01.002c-.4.026-.614.139-.727.141-1.206-.011-2.349-.32-3.523-.666a.502.5 0 0 0-.01-.002c-.482-.136-.886-.126-1.116-.211v-.002c-1.458-.572-2.792-1.394-3.943-2.422a.502.5 0 0 0-.671 0c-2.317 2.069-5.36 3.322-8.7 3.322s-6.382-1.253-8.7-3.322a.502.5 0 0 0-.671 0c-2.317 2.069-5.36 3.322-8.7 3.322a13 13 0 0 1-8.698-3.322.502.5 0 0 0-.671 0 13.01 13.01 0 0 1-8.702 3.322c-3.339 0-6.382-1.253-8.7-3.322a.502.5 0 0 0-.671 0c-2.318 2.069-5.36 3.322-8.7 3.322s-6.382-1.253-8.7-3.322a.502.5 0 0 0-.671 0c-2.317 2.069-5.36 3.322-8.7 3.322s-6.382-1.253-8.7-3.322a.502.5 0 0 0-.671 0c-2.317 2.069-5.36 3.322-8.7 3.322s-6.382-1.253-8.7-3.322a.502.5 0 0 0-.671 0c-2.318 2.069-5.36 3.322-8.7 3.322s-6.382-1.253-8.7-3.322a.502.5 0 0 0-.671 0 13 13 0 0 1-8.698 3.322c-3.339 0-6.382-1.253-8.7-3.322a.502.5 0 0 0-.671 0 13.01 13.01 0 0 1-8.702 3.322c-3.339 0-6.382-1.253-8.7-3.322a.502.5 0 0 0-.671 0c-2.317 2.069-5.36 3.322-8.699 3.322s-6.382-1.253-8.699-3.322a.502.5 0 0 0-.671 0c-2.317 2.069-5.36 3.322-8.699 3.322s-6.382-1.253-8.7-3.322a.502.5 0 0 0-.67 0c-.275.245-.647.356-.941.578a1036.221 1069.935 0 0 0-1.023 2.145c.777-.445 1.619-.792 2.3-1.367 2.454 2.073 5.584 3.373 9.035 3.373s6.581-1.301 9.035-3.373c2.454 2.073 5.584 3.373 9.035 3.373s6.581-1.301 9.035-3.373c2.454 2.073 5.584 3.373 9.035 3.373s6.582-1.3 9.037-3.373c2.454 2.073 5.584 3.373 9.035 3.373s6.579-1.301 9.033-3.373c2.454 2.073 5.584 3.373 9.035 3.373s6.581-1.301 9.035-3.373c2.454 2.073 5.584 3.373 9.035 3.373s6.581-1.301 9.035-3.373c2.454 2.073 5.584 3.373 9.035 3.373s6.581-1.301 9.035-3.373c2.454 2.073 5.584 3.373 9.035 3.373s6.581-1.301 9.035-3.373c2.454 2.073 5.584 3.373 9.035 3.373s6.582-1.3 9.037-3.373c2.454 2.072 5.582 3.373 9.033 3.373s6.581-1.301 9.035-3.373c2.454 2.073 5.584 3.373 9.035 3.373s6.581-1.301 9.035-3.373c1.171.988 2.465 1.835 3.912 2.402a.502.5 0 0 0 .01.002c.495.188.935.166 1.206.242 1.185.349 2.428.694 3.798.705a.502.5 0 0 0 .01 0c.416-.003.654-.132.78-.143l.01-.002c1.776-.092 3.429-.555 4.959-1.238a.502.5 0 0 0 .01-.004c1.123-.521 2.214-1.163 3.198-1.969 2.454 2.072 5.584 3.371 9.035 3.371s6.581-1.301 9.035-3.373c2.454 2.072 5.582 3.373 9.033 3.373s6.582-1.3 9.037-3.373c2.454 2.073 5.584 3.373 9.035 3.373s6.581-1.301 9.035-3.373c2.454 2.073 5.584 3.373 9.035 3.373s6.581-1.301 9.035-3.373c2.454 2.073 5.584 3.373 9.035 3.373s6.581-1.301 9.035-3.373c2.454 2.073 5.584 3.373 9.035 3.373s6.58-1.301 9.035-3.373c2.454 2.073 5.584 3.373 9.035 3.373s6.581-1.301 9.035-3.373c2.454 2.073 5.584 3.373 9.035 3.373s6.581-1.301 9.035-3.373c2.454 2.073 5.584 3.373 9.035 3.373s6.581-1.301 9.035-3.373c2.454 2.073 5.584 3.373 9.035 3.373s6.581-1.301 9.035-3.373c2.454 2.073 5.584 3.373 9.035 3.373s6.581-1.301 9.035-3.373c2.454 2.073 5.584 3.373 9.035 3.373s6.579-1.301 9.033-3.373c2.454 2.073 5.586 3.373 9.037 3.373s6.581-1.301 9.035-3.373c2.454 2.073 5.584 3.373 9.035 3.373s6.581-1.301 9.035-3.373c2.454 2.073 5.584 3.373 9.035 3.373s6.581-1.301 9.035-3.373c2.454 2.073 5.584 3.373 9.035 3.373s6.581-1.301 9.035-3.373c2.454 2.073 5.584 3.373 9.035 3.373s6.581-1.301 9.035-3.373c2.454 2.072 5.582 3.373 9.033 3.373s6.581-1.301 9.035-3.373c2.454 2.073 5.586 3.373 9.037 3.373s6.581-1.301 9.035-3.373c2.454 2.073 5.584 3.373 9.035 3.373s6.581-1.301 9.035-3.373c2.454 2.073 5.584 3.373 9.035 3.373s6.581-1.3 9.035-3.373c2.454 2.073 5.584 3.373 9.035 3.373s6.58-1.301 9.035-3.373c2.454 2.073 5.584 3.373 9.035 3.373s6.579-1.301 9.033-3.373c2.454 2.073 5.586 3.373 9.037 3.373s6.581-1.301 9.035-3.373c2.454 2.073 5.584 3.373 9.035 3.373s6.58-1.301 9.035-3.373c2.454 2.073 5.584 3.373 9.035 3.373s6.581-1.301 9.035-3.373c2.454 2.073 5.584 3.373 9.035 3.373s6.581-1.301 9.035-3.373c2.454 2.073 5.584 3.373 9.035 3.373s6.581-1.301 9.035-3.373c2.454 2.072 5.582 3.373 9.033 3.373s6.582-1.3 9.037-3.373c2.454 2.073 5.584 3.373 9.035 3.373s6.581-1.301 9.035-3.373c2.454 2.073 5.584 3.373 9.035 3.373s6.581-1.301 9.035-3.373c2.454 2.073 5.584 3.373 9.035 3.373s6.581-1.301 9.035-3.373c2.454 2.073 5.584 3.373 9.035 3.373s6.581-1.301 9.035-3.373c2.454 2.073 5.584 3.373 9.035 3.373s6.579-1.301 9.033-3.373c2.454 2.073 5.586 3.373 9.037 3.373s6.58-1.301 9.035-3.373c2.454 2.073 5.584 3.373 9.035 3.373s6.581-1.301 9.035-3.373c2.454 2.073 5.584 3.373 9.035 3.373s6.581-1.301 9.035-3.373c2.454 2.073 5.584 3.373 9.035 3.373s6.581-1.301 9.035-3.373c2.454 2.073 5.584 3.373 9.035 3.373s6.579-1.301 9.033-3.373c2.454 2.073 5.584 3.373 9.035 3.373s6.582-1.3 9.037-3.373c2.454 2.073 5.584 3.373 9.035 3.373s6.581-1.301 9.035-3.373c2.454 2.073 5.584 3.373 9.035 3.373s6.581-1.301 9.035-3.373c2.454 2.073 5.584 3.373 9.035 3.373s6.581-1.301 9.035-3.373c2.454 2.073 5.584 3.373 9.035 3.373s6.581-1.301 9.035-3.373c2.454 2.072 5.582 3.373 9.033 3.373s6.581-1.301 9.035-3.373c2.455 2.073 5.586 3.373 9.037 3.373 2.246 0 4.341-.587 6.219-1.525v-1.414a.502.5 0 0 0-.227.031c-1.807.941-3.831 1.504-5.992 1.504-3.339 0-6.384-1.255-8.702-3.324a.502.5 0 0 0-.671 0 13.01 13.01 0 0 1-8.7 3.324c-3.339 0-6.38-1.255-8.698-3.324a.502.5 0 0 0-.671 0c-2.318 2.07-5.36 3.324-8.7 3.324s-6.382-1.255-8.7-3.324a.502.5 0 0 0-.671 0c-2.317 2.07-5.36 3.324-8.7 3.324s-6.382-1.255-8.7-3.324a.502.5 0 0 0-.671 0c-2.317 2.07-5.36 3.324-8.7 3.324a13.01 13.01 0 0 1-8.7-3.324.502.5 0 0 0-.671 0c-2.317 2.07-5.36 3.324-8.7 3.324s-6.382-1.255-8.7-3.324a.502.5 0 0 0-.671 0c-2.317 2.069-5.362 3.324-8.702 3.324a13.01 13.01 0 0 1-8.7-3.324.502.5 0 0 0-.67 0c-2.318 2.07-5.359 3.324-8.698 3.324s-6.382-1.255-8.7-3.324a.502.5 0 0 0-.671 0c-2.317 2.07-5.36 3.324-8.7 3.324s-6.382-1.255-8.7-3.324a.502.5 0 0 0-.671 0c-2.317 2.07-5.36 3.324-8.7 3.324s-6.382-1.255-8.7-3.324a.502.5 0 0 0-.671 0 13.01 13.01 0 0 1-8.7 3.324c-3.339 0-6.382-1.255-8.7-3.324a.502.5 0 0 0-.671 0 13.01 13.01 0 0 1-8.7 3.324c-3.339 0-6.384-1.255-8.702-3.324a.502.5 0 0 0-.671 0c-2.318 2.07-5.358 3.324-8.698 3.324a13.01 13.01 0 0 1-8.7-3.324.502.5 0 0 0-.671 0c-2.317 2.07-5.36 3.324-8.7 3.324a13.01 13.01 0 0 1-8.7-3.324.502.5 0 0 0-.671 0c-2.318 2.07-5.36 3.324-8.7 3.324a13.01 13.01 0 0 1-8.7-3.324.502.5 0 0 0-.671 0c-2.317 2.07-5.36 3.324-8.7 3.324s-6.382-1.255-8.7-3.324a.502.5 0 0 0-.671 0c-2.317 2.07-5.36 3.324-8.7 3.324a13.01 13.01 0 0 1-8.7-3.324.502.5 0 0 0-.671 0c-2.317 2.069-5.363 3.324-8.702 3.324s-6.38-1.255-8.698-3.324a.502.5 0 0 0-.671 0c-2.317 2.07-5.36 3.324-8.7 3.324a13.01 13.01 0 0 1-8.7-3.324.502.5 0 0 0-.67 0 13.01 13.01 0 0 1-17.399 0 .502.5 0 0 0-.671 0c-2.317 2.07-5.36 3.324-8.7 3.324a13.01 13.01 0 0 1-8.7-3.324.502.5 0 0 0-.671 0c-2.317 2.07-5.36 3.324-8.7 3.324s-6.382-1.255-8.7-3.324a.502.5 0 0 0-.671 0c-2.317 2.07-5.36 3.324-8.7 3.324s-6.384-1.255-8.702-3.324a.502.5 0 0 0-.671 0c-2.318 2.07-5.359 3.324-8.698 3.324a13.01 13.01 0 0 1-8.7-3.324.502.5 0 0 0-.671 0 13.01 13.01 0 0 1-8.7 3.324c-3.339 0-6.382-1.255-8.7-3.324a.502.5 0 0 0-.671 0 13.01 13.01 0 0 1-8.7 3.324c-3.339 0-6.382-1.255-8.7-3.324a.502.5 0 0 0-.671 0 13.01 13.01 0 0 1-17.399 0 .502.5 0 0 0-.671 0c-2.317 2.07-5.36 3.324-8.7 3.324s-6.384-1.255-8.702-3.324a.502.5 0 0 0-.671 0c-2.317 2.07-5.36 3.324-8.7 3.324s-6.38-1.255-8.698-3.324a.502.5 0 0 0-.671 0c-2.317 2.07-5.36 3.324-8.7 3.324a13.01 13.01 0 0 1-8.7-3.324.502.5 0 0 0-.671 0c-2.317 2.07-5.36 3.324-8.7 3.324a13.01 13.01 0 0 1-8.7-3.324.502.5 0 0 0-.671 0c-2.318 2.07-5.36 3.324-8.7 3.324s-6.382-1.255-8.7-3.324a.502.5 0 0 0-.671 0c-2.318 2.07-5.36 3.324-8.7 3.324a13.01 13.01 0 0 1-8.7-3.324.502.5 0 0 0-.671 0 13.01 13.01 0 0 1-8.7 3.324c-3.339 0-6.384-1.255-8.702-3.324a.502.5 0 0 0-.671 0c-2.318 2.07-5.358 3.324-8.698 3.324a13.01 13.01 0 0 1-8.7-3.324.502.5 0 0 0-.671 0c-2.317 2.07-5.36 3.324-8.7 3.324a13.01 13.01 0 0 1-8.7-3.324.502.5 0 0 0-.671 0c-2.318 2.07-5.36 3.324-8.7 3.324s-6.382-1.255-8.7-3.324a.502.5 0 0 0-.671 0c-2.317 2.07-5.36 3.324-8.7 3.324s-6.382-1.255-8.7-3.324a.502.5 0 0 0-.671 0 13.01 13.01 0 0 1-8.7 3.324c-3.339 0-6.382-1.255-8.7-3.324a.502.5 0 0 0-.671 0c-2.318 2.07-5.36 3.324-8.7 3.324s-6.382-1.255-8.7-3.324a.502.5 0 0 0-.671 0 13.01 13.01 0 0 1-8.7 3.324c-3.339 0-6.382-1.255-8.7-3.324a.502.5 0 0 0-.671 0 13.01 13.01 0 0 1-17.399 0 .502.5 0 0 0-.671 0c-2.317 2.07-5.36 3.324-8.7 3.324a13.01 13.01 0 0 1-8.7-3.324.502.5 0 0 0-.671 0c-2.317 2.07-5.36 3.324-8.7 3.324a13.01 13.01 0 0 1-8.7-3.324.502.5 0 0 0-.671 0c-2.317 2.069-5.362 3.324-8.702 3.324s-6.38-1.255-8.698-3.324a.502.5 0 0 0-.671 0c-2.318 2.07-5.36 3.324-8.7 3.324a13.01 13.01 0 0 1-8.7-3.324.502.5 0 0 0-.671 0z" fill="#1c469c"/><path d="M2111.899 0c-44.931 62.152-82.953 129.263-113.899 199.947h2.4C2031.427 129.248 2069.523 62.122 2114.572 0z" fill="#172957"/></svg>