<svg xmlns="http://www.w3.org/2000/svg" viewBox="0 0 682.5 768" xmlns:v="https://vecta.io/nano"><defs><linearGradient id="A" x1="411.78" x2="283.123" y1="-81.306" y2="499.495" href="#K"><stop offset="0" stop-color="#1759b5"/><stop offset="1" stop-color="#0d386f"/></linearGradient><linearGradient id="B" x1="547.127" x2="196.129" y1="390.502" y2="707.503" href="#K"><stop offset="0" stop-color="#99c5ff"/><stop offset="1" stop-color="#4589f2" stop-opacity="0"/></linearGradient><linearGradient id="C" x1="27.403" x2="570.363" y1="736.533" y2="489.595" href="#K"><stop offset="0" stop-color="#162b54"/><stop offset="1" stop-color="#0c3783"/></linearGradient><clipPath id="D"><path d="M3233.95 372.95l-256.47 36.64 36.64 219.75 439.66.08 36.63-219.83z"/></clipPath><linearGradient href="#F" id="E" x1="357.124" x2="30.125" y1="-99.504" y2="572.491"/><linearGradient id="F" href="#K"><stop offset="0" stop-color="#1a4096"/><stop offset="1" stop-color="#242a36"/></linearGradient><linearGradient id="G" x1="739.128" x2="80.595" y1="-229.505" y2="618.721" href="#K"><stop offset="0" stop-color="#c3deff"/><stop offset="1" stop-color="#3a8bff"/></linearGradient><linearGradient href="#F" id="H" x1="660.128" x2="80.595" y1="-297.507" y2="618.721"/><path id="I" d="M236.228 374.912h-26.247v12.938h26.247z"/><path id="J" d="M131.237 439.595l-8.747-51.748 61.243-8.625 61.245 8.625-8.75 51.729z"/><linearGradient id="K" gradientUnits="userSpaceOnUse"/></defs><path d="M.5-256.5h768v1024H.5z" fill="url(#H)"/><path d="M185.11 96.79a401.12 401.12 0 0 0-184.6 46.3V767.5h481.45A401.12 401.12 0 0 0 185.11 96.79z" fill="url(#G)"/><path d="M184.63 96.78A401.12 401.12 0 0 0 .5 142.86V767.5h480.99A401.12 401.12 0 0 0 184.63 96.78z" fill="url(#E)"/><g stroke-linejoin="round"><path d="M183.77 271.76a164.94 165.9 0 0 1 164.94 165.9 164.94 165.9 0 0 1-.05.62H18.88a164.94 165.9 0 0 1-.05-.63 164.94 165.9 0 0 1 164.94-165.89z" fill="#5e94e4" stroke="#001d61" stroke-width="2.2"/><g stroke="#0a112b"><path d="M218.706 334.591h-69.935v60.375h69.935z" fill="#e8e8e8" stroke-width="1"/><g stroke-width="1.256"><path d="M209.982 343.215v-4.298m-8.75 4.298v-4.298m-8.75 4.298v-4.298m-8.75 4.298v-4.298m-8.75 4.298v-4.298m-8.747 4.298v-4.298m-8.75 4.298v-4.298" fill="none"/><path d="M227.479 323.164h-87.492v12.938h87.492z" fill="#e6edfe"/><path d="M227.479 327.467h-87.492v4.313h87.492z" fill="#4768e5"/><path d="M209.982 318.852h-52.495v4.313h52.495z" fill="#e8e8e8"/><use href="#I" fill="#2453ff"/><path d="M209.982 374.912h-26.247v12.938h26.247zm-26.249 0h-26.247v12.938h26.247z" fill="#30ba78"/><use href="#I" x="-78.744" fill="#fff"/><use href="#I" y="-12.937" fill="#30ba78"/><use href="#I" x="-26.246" y="-12.937" fill="#fff"/><use href="#I" x="-52.495" y="-12.937" fill="#2453ff"/><use href="#I" x="-78.744" y="-12.937" fill="#30ba78"/><use href="#I" x="-26.246" y="-25.875" fill="#2453ff"/><use href="#I" x="-52.495" y="-25.875" fill="#30ba78"/></g></g></g><use href="#J" fill="#0b41b7"/><use href="#J" fill="none" stroke="#0a112b" stroke-linejoin="round" stroke-width="1.256"/><g clip-path="url(#D)" transform="matrix(-.2388 0 0 .2354 956 291.43)" stroke="#0a112b" stroke-linejoin="round"><path d="M3234.29 372.95h256.13v256.43h-256.13z" fill="#dce7fe" stroke-width="5.719"/><circle cx="3234.06" cy="427.91" r="18.32" fill="#fff" stroke-width="5.297"/></g><path d="M628.23-184.2v-.06a15.27 15.27 0 0 0-15.27-15.27h-.2a22.92 22.92 0 0 0-44.06 3.07 15.27 15.27 0 0 0-24.48 12.2v.05h84.01zm-319.49-6.13v-.05c0-8.44-6.83-15.28-15.27-15.28h-.2a22.92 22.92 0 0 0-44.06 3.08 15.27 15.27 0 0 0-24.48 12.2v.04h84.01zM658.58-48.54v-.04a15.28 15.28 0 0 0-15.28-15.28h-.2a22.92 22.92 0 0 0-44.05 3.08 15.27 15.27 0 0 0-24.48 12.2v.04zM143.3-155.05v-.04a15.28 15.28 0 0 0-15.27-15.28h-.2a22.92 22.92 0 0 0-44.06 3.08 15.27 15.27 0 0 0-24.48 12.2v.04zm236.57 36.3v-.07c0-12 9.57-21.72 21.38-21.72h.28c4.4-12.65 16.28-21.72 30.24-21.72 15.52 0 28.48 11.22 31.43 26.1a21.09 21.09 0 0 1 12.89-4.38c11.8 0 21.38 9.71 21.38 21.7v.08h-117.6zm93.26 447.25v-.04c0-8.44-6.83-15.28-15.27-15.28h-.2a22.92 22.92 0 0 0-44.06 3.08 15.27 15.27 0 0 0-24.48 12.2v.04h84.02zM177.56 192.99v-.05a15.28 15.28 0 0 0-15.28-15.28h-.2a22.92 22.92 0 0 0-44.05 3.08 15.27 15.27 0 0 0-24.48 12.2v.04h84zm-83.04 78.38v-.05a15.28 15.28 0 0 0-15.28-15.28h-.2a22.92 22.92 0 0 0-44.05 3.08 15.27 15.27 0 0 0-24.48 12.2v.04h84zm138.69-26.44v-.08c0-15.42 12.29-27.9 27.46-27.9h.36c5.65-16.25 20.91-27.9 38.84-27.9 19.95 0 36.6 14.4 40.39 33.52a27.09 27.09 0 0 1 16.55-5.63c15.18 0 27.47 12.48 27.47 27.9v.08H233.21z" fill-opacity=".071" fill="#2453ff"/><path d="M.98 437.5v330h480.98a401.12 401.12 0 0 0 104.27-269.6 401.12 401.12 0 0 0-5.04-60.4z" fill="url(#C)"/><path d="M12.43 431.05a10.27 10.27 0 0 1-6.82 2.6c-1.7 0-3.29-.44-4.7-1.17v10.55a10.14 10.14 0 0 0 11.52-1.43 10.2 10.2 0 0 0 13.63 0 10.25 10.25 0 0 0 6.82 2.6c2.62 0 5-.98 6.82-2.6a10.26 10.26 0 0 0 6.82 2.6 10.18 10.18 0 0 0 6.81-2.6 10.2 10.2 0 0 0 13.64 0 10.2 10.2 0 0 0 13.64 0 10.2 10.2 0 0 0 13.63 0 10.2 10.2 0 0 0 13.64 0 10.2 10.2 0 0 0 13.63 0 10.2 10.2 0 0 0 13.64 0 10.25 10.25 0 0 0 13.63 0 10.2 10.2 0 0 0 13.64 0 10.2 10.2 0 0 0 13.63 0 10.26 10.26 0 0 0 6.82 2.6c2.62 0 5-.98 6.82-2.6a10.2 10.2 0 0 0 13.63 0 10.2 10.2 0 0 0 13.64 0 10.2 10.2 0 0 0 13.64 0 10.26 10.26 0 0 0 10.52 1.9c1.15-.44 2.2-1.1 3.11-1.9a10.25 10.25 0 0 0 10.53 1.9c1.15-.44 2.2-1.1 3.1-1.9a10.26 10.26 0 0 0 10.53 1.9c1.15-.44 2.2-1.1 3.11-1.9a10.2 10.2 0 0 0 13.64 0 10.2 10.2 0 0 0 13.63 0 10.26 10.26 0 0 0 10.53 1.9c1.15-.44 2.2-1.1 3.1-1.9a10.25 10.25 0 0 0 13.64 0 10.26 10.26 0 0 0 6.82 2.6c2.62 0 5-.98 6.82-2.6a10.26 10.26 0 0 0 6.82 2.6c2.61 0 5-.98 6.82-2.6a10.2 10.2 0 0 0 13.63 0 10.26 10.26 0 0 0 10.53 1.9c1.15-.44 2.2-1.1 3.1-1.9a10.26 10.26 0 0 0 6.82 2.6c2.62 0 5-.98 6.82-2.6a10.26 10.26 0 0 0 6.82 2.6c2.62 0 5-.98 6.82-2.6a10.2 10.2 0 0 0 13.63 0 10.26 10.26 0 0 0 6.82 2.6c2.62 0 5-.98 6.82-2.6a10.2 10.2 0 0 0 13.63 0 10.26 10.26 0 0 0 10.53 1.9c1.15-.44 2.2-1.1 3.11-1.9a10.25 10.25 0 0 0 13.63 0 10.2 10.2 0 0 0 13.64 0 10.2 10.2 0 0 0 13.64 0 10.2 10.2 0 0 0 13.63 0 10.26 10.26 0 0 0 10.53 1.9c1.15-.44 2.2-1.1 3.1-1.9a10.26 10.26 0 0 0 6.82 2.6c2.62 0 5-.98 6.82-2.6a10.26 10.26 0 0 0 6.82 2.6c2.62 0 5-.98 6.82-2.6a10.26 10.26 0 0 0 6.82 2.6 10.18 10.18 0 0 0 6.81-2.6 10.2 10.2 0 0 0 6.82 2.6c1.12 0 2.17-.26 3.18-.6a401.12 401.12 0 0 0-.91-10.37c-.75.17-1.47.42-2.27.42-2.61 0-5-.98-6.82-2.6a10.2 10.2 0 0 1-13.63 0 10.2 10.2 0 0 1-13.64 0 10.2 10.2 0 0 1-13.63 0 10.2 10.2 0 0 1-13.64 0 10.26 10.26 0 0 1-10.53 1.91 10.18 10.18 0 0 1-3.1-1.91 10.2 10.2 0 0 1-13.64 0 10.2 10.2 0 0 1-13.64 0 10.26 10.26 0 0 1-10.52 1.91 10.35 10.35 0 0 1-3.11-1.91 10.2 10.2 0 0 1-13.64 0 10.2 10.2 0 0 1-13.63 0 10.2 10.2 0 0 1-13.64 0 10.26 10.26 0 0 1-10.52 1.91 10.35 10.35 0 0 1-3.11-1.91 10.2 10.2 0 0 1-13.64 0 10.2 10.2 0 0 1-13.63 0 10.2 10.2 0 0 1-13.64 0 10.2 10.2 0 0 1-13.63 0 10.2 10.2 0 0 1-13.64 0 10.27 10.27 0 0 1-10.53 1.91 10.18 10.18 0 0 1-3.1-1.91 10.2 10.2 0 0 1-13.64 0 10.2 10.2 0 0 1-13.64 0 10.27 10.27 0 0 1-10.52 1.91 10.35 10.35 0 0 1-3.11-1.91 10.27 10.27 0 0 1-10.53 1.91 10.18 10.18 0 0 1-3.1-1.91 10.2 10.2 0 0 1-13.64 0 10.2 10.2 0 0 1-13.64 0 10.2 10.2 0 0 1-13.63 0 10.2 10.2 0 0 1-13.64 0 10.2 10.2 0 0 1-13.64 0 10.2 10.2 0 0 1-13.63 0 10.2 10.2 0 0 1-13.64 0 10.2 10.2 0 0 1-13.63 0 10.2 10.2 0 0 1-13.64 0 10.26 10.26 0 0 1-10.52 1.91 10.35 10.35 0 0 1-3.11-1.91 10.2 10.2 0 0 1-13.64 0 10.2 10.2 0 0 1-13.63 0 10.2 10.2 0 0 1-13.64 0 10.27 10.27 0 0 1-10.53 1.91 10.18 10.18 0 0 1-3.1-1.91 10.2 10.2 0 0 1-13.64 0 10.2 10.2 0 0 1-13.64 0 10.2 10.2 0 0 1-13.63 0 10.2 10.2 0 0 1-13.64 0 10.2 10.2 0 0 1-13.63 0z" fill="#0b57c5"/><path d="M12.43 451.44a10.27 10.27 0 0 1-6.82 2.6c-1.67 0-3.24-.43-4.63-1.15v10.55a10.12 10.12 0 0 0 11.45-1.45 10.2 10.2 0 0 0 13.63 0 10.26 10.26 0 0 0 6.82 2.6c2.62 0 5-.98 6.82-2.6a10.26 10.26 0 0 0 6.82 2.6 10.18 10.18 0 0 0 6.81-2.6 10.2 10.2 0 0 0 13.64 0 10.2 10.2 0 0 0 13.64 0 10.2 10.2 0 0 0 13.63 0 10.2 10.2 0 0 0 13.64 0 10.2 10.2 0 0 0 13.63 0 10.2 10.2 0 0 0 13.64 0 10.26 10.26 0 0 0 6.82 2.6 10.18 10.18 0 0 0 6.81-2.6 10.2 10.2 0 0 0 13.64 0 10.2 10.2 0 0 0 13.63 0 10.26 10.26 0 0 0 6.82 2.6c2.62 0 5-.98 6.82-2.6a10.2 10.2 0 0 0 13.63 0 10.2 10.2 0 0 0 13.64 0 10.2 10.2 0 0 0 13.64 0 10.26 10.26 0 0 0 10.52 1.9c1.15-.44 2.2-1.1 3.11-1.9a10.26 10.26 0 0 0 10.53 1.9c1.15-.44 2.2-1.1 3.1-1.9a10.26 10.26 0 0 0 10.53 1.9c1.15-.44 2.2-1.1 3.11-1.9a10.2 10.2 0 0 0 13.64 0 10.2 10.2 0 0 0 13.63 0 10.25 10.25 0 0 0 13.64 0 10.26 10.26 0 0 0 6.82 2.6c2.61 0 5-.98 6.82-2.6a10.25 10.25 0 0 0 13.63 0 10.26 10.26 0 0 0 6.82 2.6c2.61 0 5-.98 6.82-2.6a10.2 10.2 0 0 0 13.63 0 10.26 10.26 0 0 0 10.53 1.9c1.15-.44 2.2-1.1 3.1-1.9a10.26 10.26 0 0 0 6.82 2.6c2.62 0 5-.98 6.82-2.6a10.26 10.26 0 0 0 6.82 2.6c2.61 0 5-.98 6.82-2.6a10.2 10.2 0 0 0 13.63 0 10.26 10.26 0 0 0 6.82 2.6c2.61 0 5-.98 6.82-2.6a10.2 10.2 0 0 0 13.63 0 10.26 10.26 0 0 0 10.53 1.9c1.15-.44 2.2-1.1 3.11-1.9a10.25 10.25 0 0 0 10.53 1.9c1.15-.44 2.2-1.1 3.1-1.9a10.2 10.2 0 0 0 13.64 0 10.2 10.2 0 0 0 13.64 0 10.2 10.2 0 0 0 13.63 0 10.26 10.26 0 0 0 10.53 1.9c1.15-.44 2.2-1.1 3.1-1.9a10.26 10.26 0 0 0 6.83 2.6 10.18 10.18 0 0 0 6.81-2.6 10.26 10.26 0 0 0 6.82 2.6c2.62 0 5-.98 6.82-2.6a10.26 10.26 0 0 0 6.82 2.6c2.61 0 5-.98 6.82-2.6a10.2 10.2 0 0 0 6.81 2.6c2.24 0 4.25-.83 5.94-2.06a401.12 401.12 0 0 0-1.2-9.82c-1.43.78-3 1.33-4.74 1.33a10.18 10.18 0 0 1-6.81-2.6 10.2 10.2 0 0 1-13.64 0 10.2 10.2 0 0 1-13.64 0 10.2 10.2 0 0 1-13.63 0 10.2 10.2 0 0 1-13.64 0 10.27 10.27 0 0 1-10.53 1.91 10.18 10.18 0 0 1-3.1-1.91 10.2 10.2 0 0 1-13.64 0 10.2 10.2 0 0 1-13.64 0 10.26 10.26 0 0 1-10.52 1.91 10.18 10.18 0 0 1-3.1-1.91 10.2 10.2 0 0 1-13.65 0 10.2 10.2 0 0 1-13.63 0 10.2 10.2 0 0 1-13.64 0 10.27 10.27 0 0 1-10.52 1.91 10.35 10.35 0 0 1-3.11-1.91 10.2 10.2 0 0 1-13.64 0 10.2 10.2 0 0 1-13.63 0 10.2 10.2 0 0 1-13.64 0 10.2 10.2 0 0 1-13.63 0 10.2 10.2 0 0 1-13.64 0 10.27 10.27 0 0 1-10.53 1.91 10.18 10.18 0 0 1-3.1-1.91 10.2 10.2 0 0 1-13.64 0 10.2 10.2 0 0 1-13.64 0 10.27 10.27 0 0 1-10.52 1.91 10.35 10.35 0 0 1-3.11-1.91 10.27 10.27 0 0 1-10.53 1.91 10.18 10.18 0 0 1-3.1-1.91 10.2 10.2 0 0 1-13.64 0 10.2 10.2 0 0 1-13.64 0 10.2 10.2 0 0 1-13.63 0 10.2 10.2 0 0 1-13.64 0 10.2 10.2 0 0 1-13.64 0 10.2 10.2 0 0 1-13.63 0 10.2 10.2 0 0 1-13.64 0 10.2 10.2 0 0 1-13.63 0 10.2 10.2 0 0 1-13.64 0 10.26 10.26 0 0 1-10.52 1.91 10.35 10.35 0 0 1-3.11-1.91 10.2 10.2 0 0 1-13.64 0 10.2 10.2 0 0 1-13.63 0 10.2 10.2 0 0 1-13.64 0 10.27 10.27 0 0 1-10.53 1.91 10.18 10.18 0 0 1-3.1-1.91 10.2 10.2 0 0 1-13.64 0 10.2 10.2 0 0 1-13.64 0 10.2 10.2 0 0 1-13.63 0 10.2 10.2 0 0 1-13.64 0 10.2 10.2 0 0 1-13.63 0zm0 31.71a10.27 10.27 0 0 1-6.82 2.61c-1.67 0-3.24-.43-4.63-1.15v10.55a10.12 10.12 0 0 0 11.45-1.46 10.2 10.2 0 0 0 13.63 0 10.26 10.26 0 0 0 6.82 2.6c2.62 0 5-.97 6.82-2.6a10.26 10.26 0 0 0 6.82 2.6c2.61 0 5-.97 6.81-2.6a10.2 10.2 0 0 0 13.64 0 10.2 10.2 0 0 0 13.64 0 10.2 10.2 0 0 0 13.63 0 10.2 10.2 0 0 0 13.64 0 10.2 10.2 0 0 0 13.63 0 10.2 10.2 0 0 0 13.64 0 10.26 10.26 0 0 0 6.82 2.6c2.61 0 5-.97 6.81-2.6a10.2 10.2 0 0 0 13.64 0 10.2 10.2 0 0 0 13.63 0 10.26 10.26 0 0 0 6.82 2.6c2.62 0 5-.97 6.82-2.6a10.2 10.2 0 0 0 13.63 0 10.2 10.2 0 0 0 13.64 0 10.2 10.2 0 0 0 13.64 0 10.26 10.26 0 0 0 10.52 1.91c1.15-.45 2.2-1.1 3.11-1.9a10.26 10.26 0 0 0 10.53 1.9 10.35 10.35 0 0 0 3.1-1.9 10.26 10.26 0 0 0 10.53 1.9c1.15-.45 2.2-1.1 3.11-1.9a10.2 10.2 0 0 0 13.64 0 10.2 10.2 0 0 0 13.63 0 10.25 10.25 0 0 0 13.64 0 10.26 10.26 0 0 0 13.64 0 10.25 10.25 0 0 0 13.63 0 10.26 10.26 0 0 0 6.82 2.6c2.61 0 5-.98 6.82-2.6a10.2 10.2 0 0 0 13.63 0 10.26 10.26 0 0 0 10.53 1.9 10.35 10.35 0 0 0 3.1-1.9 10.26 10.26 0 0 0 6.82 2.6c2.62 0 5-.98 6.82-2.6a10.26 10.26 0 0 0 6.82 2.6c2.61 0 5-.98 6.82-2.6a10.2 10.2 0 0 0 13.63 0 10.26 10.26 0 0 0 6.82 2.6c2.61 0 5-.98 6.82-2.6a10.2 10.2 0 0 0 13.63 0 10.26 10.26 0 0 0 10.53 1.9c1.15-.45 2.2-1.1 3.11-1.9a10.25 10.25 0 0 0 10.53 1.9 10.35 10.35 0 0 0 3.1-1.9 10.2 10.2 0 0 0 13.64 0 10.2 10.2 0 0 0 13.64 0 10.2 10.2 0 0 0 13.63 0 10.26 10.26 0 0 0 10.53 1.9 10.35 10.35 0 0 0 3.1-1.9 10.26 10.26 0 0 0 6.83 2.6 10.18 10.18 0 0 0 6.81-2.6 10.26 10.26 0 0 0 6.82 2.6c2.62 0 5-.98 6.82-2.6a10.26 10.26 0 0 0 6.82 2.6c2.61 0 5-.98 6.82-2.6a10.2 10.2 0 0 0 13.63 0c.28.24.64.36.94.57a401.12 401.12 0 0 0-.49-10.85c-.14-.1-.32-.16-.45-.28a10.2 10.2 0 0 1-13.63 0 10.2 10.2 0 0 1-13.64 0 10.2 10.2 0 0 1-13.64 0 10.2 10.2 0 0 1-13.63 0 10.2 10.2 0 0 1-13.64 0 10.27 10.27 0 0 1-10.53 1.92c-1.15-.45-2.2-1.1-3.1-1.92a10.2 10.2 0 0 1-13.64 0 10.2 10.2 0 0 1-13.64 0 10.26 10.26 0 0 1-10.52 1.92c-1.15-.45-2.2-1.1-3.1-1.92a10.2 10.2 0 0 1-13.65 0 10.2 10.2 0 0 1-13.63 0 10.2 10.2 0 0 1-13.64 0 10.27 10.27 0 0 1-10.52 1.92 10.18 10.18 0 0 1-3.11-1.92 10.2 10.2 0 0 1-13.64 0 10.2 10.2 0 0 1-13.63 0 10.2 10.2 0 0 1-13.64 0 10.2 10.2 0 0 1-13.63 0 10.2 10.2 0 0 1-13.64 0 10.27 10.27 0 0 1-10.53 1.92c-1.15-.45-2.2-1.1-3.1-1.92a10.2 10.2 0 0 1-13.64 0 10.2 10.2 0 0 1-13.64 0 10.27 10.27 0 0 1-10.52 1.92 10.18 10.18 0 0 1-3.11-1.92 10.27 10.27 0 0 1-10.53 1.92c-1.15-.45-2.2-1.1-3.1-1.92a10.2 10.2 0 0 1-13.64 0 10.2 10.2 0 0 1-13.64 0 10.2 10.2 0 0 1-13.63 0 10.2 10.2 0 0 1-13.64 0 10.2 10.2 0 0 1-13.64 0 10.2 10.2 0 0 1-13.63 0 10.2 10.2 0 0 1-13.64 0 10.2 10.2 0 0 1-13.63 0 10.2 10.2 0 0 1-13.64 0 10.26 10.26 0 0 1-10.52 1.92 10.18 10.18 0 0 1-3.11-1.92 10.2 10.2 0 0 1-13.64 0 10.2 10.2 0 0 1-13.63 0 10.2 10.2 0 0 1-13.64 0 10.27 10.27 0 0 1-10.53 1.92c-1.15-.45-2.2-1.1-3.1-1.92a10.2 10.2 0 0 1-13.64 0 10.2 10.2 0 0 1-13.64 0 10.2 10.2 0 0 1-13.63 0 10.2 10.2 0 0 1-13.64 0 10.2 10.2 0 0 1-13.63 0zm0 28.7a10.26 10.26 0 0 1-6.82 2.6c-1.67 0-3.24-.43-4.63-1.15v10.55a10.12 10.12 0 0 0 11.45-1.45 10.2 10.2 0 0 0 13.63 0 10.26 10.26 0 0 0 6.82 2.6c2.62 0 5-.98 6.82-2.6a10.26 10.26 0 0 0 6.82 2.6 10.18 10.18 0 0 0 6.81-2.6 10.2 10.2 0 0 0 13.64 0 10.2 10.2 0 0 0 13.64 0 10.2 10.2 0 0 0 13.63 0 10.2 10.2 0 0 0 13.64 0 10.2 10.2 0 0 0 13.63 0 10.2 10.2 0 0 0 13.64 0 10.26 10.26 0 0 0 6.82 2.6 10.18 10.18 0 0 0 6.81-2.6 10.2 10.2 0 0 0 13.64 0 10.2 10.2 0 0 0 13.63 0 10.26 10.26 0 0 0 6.82 2.6c2.62 0 5-.98 6.82-2.6a10.2 10.2 0 0 0 13.63 0 10.19 10.19 0 0 0 13.64 0 10.19 10.19 0 0 0 13.64 0 10.26 10.26 0 0 0 10.52 1.91 10.35 10.35 0 0 0 3.11-1.91 10.26 10.26 0 0 0 10.53 1.91 10.18 10.18 0 0 0 3.1-1.91 10.26 10.26 0 0 0 10.53 1.91 10.35 10.35 0 0 0 3.11-1.91 10.2 10.2 0 0 0 13.64 0 10.2 10.2 0 0 0 13.63 0 10.25 10.25 0 0 0 13.64 0 10.26 10.26 0 0 0 13.64 0 10.25 10.25 0 0 0 13.63 0 10.26 10.26 0 0 0 6.82 2.6c2.61 0 5-.98 6.82-2.6a10.2 10.2 0 0 0 13.63 0 10.26 10.26 0 0 0 10.53 1.91 10.18 10.18 0 0 0 3.1-1.91 10.26 10.26 0 0 0 6.82 2.6c2.62 0 5-.98 6.82-2.6a10.26 10.26 0 0 0 6.82 2.6c2.61 0 5-.98 6.82-2.6a10.2 10.2 0 0 0 13.63 0 10.26 10.26 0 0 0 6.82 2.6c2.61 0 5-.98 6.82-2.6a10.2 10.2 0 0 0 13.63 0 10.26 10.26 0 0 0 10.53 1.91 10.35 10.35 0 0 0 3.11-1.91 10.25 10.25 0 0 0 10.53 1.91 10.18 10.18 0 0 0 3.1-1.91 10.2 10.2 0 0 0 13.64 0 10.2 10.2 0 0 0 13.64 0 10.2 10.2 0 0 0 13.63 0 10.26 10.26 0 0 0 10.53 1.91 10.18 10.18 0 0 0 3.1-1.91 10.26 10.26 0 0 0 6.83 2.6 10.18 10.18 0 0 0 6.81-2.6 10.26 10.26 0 0 0 6.82 2.6c2.62 0 5-.98 6.82-2.6a10.26 10.26 0 0 0 6.82 2.6c2.61 0 5-.98 6.82-2.6a10.2 10.2 0 0 0 13.43.12 401.12 401.12 0 0 0 .56-10.45c-.11-.09-.26-.13-.36-.22a10.2 10.2 0 0 1-13.63 0 10.2 10.2 0 0 1-13.64 0 10.2 10.2 0 0 1-13.64 0 10.2 10.2 0 0 1-13.63 0 10.2 10.2 0 0 1-13.64 0 10.26 10.26 0 0 1-10.53 1.91 10.35 10.35 0 0 1-3.1-1.9 10.2 10.2 0 0 1-13.64 0 10.2 10.2 0 0 1-13.64 0 10.25 10.25 0 0 1-10.52 1.9 10.35 10.35 0 0 1-3.1-1.9 10.2 10.2 0 0 1-13.65 0 10.2 10.2 0 0 1-13.63 0 10.2 10.2 0 0 1-13.64 0 10.26 10.26 0 0 1-10.52 1.9c-1.15-.45-2.2-1.1-3.11-1.9a10.2 10.2 0 0 1-13.64 0 10.2 10.2 0 0 1-13.63 0 10.2 10.2 0 0 1-13.64 0 10.2 10.2 0 0 1-13.63 0 10.2 10.2 0 0 1-13.64 0 10.26 10.26 0 0 1-10.53 1.9 10.35 10.35 0 0 1-3.1-1.9 10.2 10.2 0 0 1-13.64 0 10.2 10.2 0 0 1-13.64 0 10.26 10.26 0 0 1-10.52 1.9c-1.15-.45-2.2-1.1-3.11-1.9a10.26 10.26 0 0 1-10.53 1.9 10.35 10.35 0 0 1-3.1-1.9 10.2 10.2 0 0 1-13.64 0 10.2 10.2 0 0 1-13.64 0 10.2 10.2 0 0 1-13.63 0 10.2 10.2 0 0 1-13.64 0 10.2 10.2 0 0 1-13.64 0 10.2 10.2 0 0 1-13.63 0 10.2 10.2 0 0 1-13.64 0 10.2 10.2 0 0 1-13.63 0 10.2 10.2 0 0 1-13.64 0 10.25 10.25 0 0 1-10.52 1.9c-1.15-.45-2.2-1.1-3.11-1.9a10.2 10.2 0 0 1-13.64 0 10.2 10.2 0 0 1-13.63 0 10.2 10.2 0 0 1-13.64 0 10.26 10.26 0 0 1-10.53 1.9 10.35 10.35 0 0 1-3.1-1.9 10.2 10.2 0 0 1-13.64 0 10.2 10.2 0 0 1-13.64 0 10.2 10.2 0 0 1-13.63 0 10.2 10.2 0 0 1-13.64 0 10.2 10.2 0 0 1-13.63 0zm0 31.72a10.26 10.26 0 0 1-6.82 2.6c-1.67 0-3.24-.43-4.63-1.15v10.55a10.12 10.12 0 0 0 11.45-1.45 10.2 10.2 0 0 0 13.63 0 10.26 10.26 0 0 0 6.82 2.6c2.62 0 5-.98 6.82-2.6a10.26 10.26 0 0 0 6.82 2.6 10.18 10.18 0 0 0 6.81-2.6 10.2 10.2 0 0 0 13.64 0 10.2 10.2 0 0 0 13.64 0 10.2 10.2 0 0 0 13.63 0 10.2 10.2 0 0 0 13.64 0 10.2 10.2 0 0 0 13.63 0 10.2 10.2 0 0 0 13.64 0 10.26 10.26 0 0 0 6.82 2.6 10.18 10.18 0 0 0 6.81-2.6 10.2 10.2 0 0 0 13.64 0 10.2 10.2 0 0 0 13.63 0 10.26 10.26 0 0 0 6.82 2.6c2.62 0 5-.98 6.82-2.6a10.2 10.2 0 0 0 13.63 0 10.19 10.19 0 0 0 13.64 0 10.19 10.19 0 0 0 13.64 0 10.26 10.26 0 0 0 10.52 1.9c1.15-.44 2.2-1.1 3.11-1.9a10.26 10.26 0 0 0 10.53 1.9c1.15-.44 2.2-1.1 3.1-1.9a10.26 10.26 0 0 0 10.53 1.9c1.15-.44 2.2-1.1 3.11-1.9a10.2 10.2 0 0 0 13.64 0 10.2 10.2 0 0 0 13.63 0 10.25 10.25 0 0 0 13.64 0 10.25 10.25 0 0 0 13.64 0 10.25 10.25 0 0 0 13.63 0 10.26 10.26 0 0 0 6.82 2.6c2.61 0 5-.98 6.82-2.6a10.2 10.2 0 0 0 13.63 0 10.26 10.26 0 0 0 10.53 1.9c1.15-.44 2.2-1.1 3.1-1.9a10.26 10.26 0 0 0 6.82 2.6c2.62 0 5-.98 6.82-2.6a10.26 10.26 0 0 0 6.82 2.6c2.61 0 5-.98 6.82-2.6a10.2 10.2 0 0 0 13.63 0 10.26 10.26 0 0 0 6.82 2.6c2.61 0 5-.98 6.82-2.6a10.2 10.2 0 0 0 13.63 0 10.26 10.26 0 0 0 10.53 1.9c1.15-.44 2.2-1.1 3.11-1.9a10.25 10.25 0 0 0 13.63 0 10.2 10.2 0 0 0 13.64 0 10.2 10.2 0 0 0 13.64 0 10.2 10.2 0 0 0 13.63 0 10.26 10.26 0 0 0 10.53 1.9c1.15-.44 2.2-1.1 3.1-1.9a10.26 10.26 0 0 0 6.83 2.6 10.18 10.18 0 0 0 6.81-2.6 10.26 10.26 0 0 0 6.82 2.6c2.62 0 5-.98 6.82-2.6a10.26 10.26 0 0 0 6.82 2.6c2.61 0 5-.98 6.82-2.6a10.2 10.2 0 0 0 6.81 2.6c1.1 0 2.13-.26 3.12-.58a401.12 401.12 0 0 0 1.82-11.42 9.96 9.96 0 0 1-4.94 1.45 10.18 10.18 0 0 1-6.81-2.6 10.2 10.2 0 0 1-13.64 0 10.2 10.2 0 0 1-13.64 0 10.2 10.2 0 0 1-13.63 0 10.2 10.2 0 0 1-13.64 0 10.26 10.26 0 0 1-10.53 1.9c-1.15-.44-2.2-1.1-3.1-1.9a10.2 10.2 0 0 1-13.64 0 10.2 10.2 0 0 1-13.64 0 10.25 10.25 0 0 1-10.52 1.9c-1.15-.44-2.2-1.1-3.1-1.9a10.2 10.2 0 0 1-13.65 0 10.2 10.2 0 0 1-13.63 0 10.2 10.2 0 0 1-13.64 0 10.26 10.26 0 0 1-10.52 1.9c-1.15-.44-2.2-1.1-3.11-1.9a10.2 10.2 0 0 1-13.64 0 10.2 10.2 0 0 1-13.63 0 10.2 10.2 0 0 1-13.64 0 10.2 10.2 0 0 1-13.63 0 10.2 10.2 0 0 1-13.64 0 10.26 10.26 0 0 1-10.53 1.9c-1.15-.44-2.2-1.1-3.1-1.9a10.2 10.2 0 0 1-13.64 0 10.2 10.2 0 0 1-13.64 0 10.26 10.26 0 0 1-10.52 1.9c-1.15-.44-2.2-1.1-3.11-1.9a10.26 10.26 0 0 1-10.53 1.9c-1.15-.44-2.2-1.1-3.1-1.9a10.2 10.2 0 0 1-13.64 0 10.2 10.2 0 0 1-13.64 0 10.2 10.2 0 0 1-13.63 0 10.2 10.2 0 0 1-13.64 0 10.2 10.2 0 0 1-13.64 0 10.2 10.2 0 0 1-13.63 0 10.2 10.2 0 0 1-13.64 0 10.2 10.2 0 0 1-13.63 0 10.2 10.2 0 0 1-13.64 0 10.25 10.25 0 0 1-10.52 1.9c-1.15-.44-2.2-1.1-3.11-1.9a10.2 10.2 0 0 1-13.64 0 10.2 10.2 0 0 1-13.63 0 10.2 10.2 0 0 1-13.64 0 10.26 10.26 0 0 1-10.53 1.9c-1.15-.44-2.2-1.1-3.1-1.9a10.2 10.2 0 0 1-13.64 0 10.2 10.2 0 0 1-13.64 0 10.2 10.2 0 0 1-13.63 0 10.2 10.2 0 0 1-13.64 0 10.2 10.2 0 0 1-13.63 0zm0 28.7a10.27 10.27 0 0 1-6.82 2.6c-1.67 0-3.24-.44-4.63-1.15v10.55a10.12 10.12 0 0 0 11.45-1.46 10.2 10.2 0 0 0 13.63 0 10.26 10.26 0 0 0 6.82 2.6c2.62 0 5-.98 6.82-2.6a10.26 10.26 0 0 0 6.82 2.6 10.18 10.18 0 0 0 6.81-2.6 10.2 10.2 0 0 0 13.64 0 10.2 10.2 0 0 0 13.64 0 10.2 10.2 0 0 0 13.63 0 10.2 10.2 0 0 0 13.64 0 10.2 10.2 0 0 0 13.63 0 10.2 10.2 0 0 0 13.64 0 10.26 10.26 0 0 0 6.82 2.6 10.18 10.18 0 0 0 6.81-2.6 10.2 10.2 0 0 0 13.64 0 10.2 10.2 0 0 0 13.63 0 10.26 10.26 0 0 0 6.82 2.6c2.62 0 5-.98 6.82-2.6a10.2 10.2 0 0 0 13.63 0 10.2 10.2 0 0 0 13.64 0 10.2 10.2 0 0 0 13.64 0 10.26 10.26 0 0 0 10.52 1.91c1.15-.45 2.2-1.1 3.11-1.9a10.26 10.26 0 0 0 10.53 1.9 10.35 10.35 0 0 0 3.1-1.9 10.26 10.26 0 0 0 10.53 1.9c1.15-.45 2.2-1.1 3.11-1.9a10.2 10.2 0 0 0 13.64 0 10.2 10.2 0 0 0 13.63 0 10.25 10.25 0 0 0 13.64 0 10.25 10.25 0 0 0 13.64 0 10.25 10.25 0 0 0 13.63 0 10.26 10.26 0 0 0 6.82 2.6c2.61 0 5-.99 6.82-2.6a10.2 10.2 0 0 0 13.63 0 10.26 10.26 0 0 0 10.53 1.9 10.35 10.35 0 0 0 3.1-1.9 10.26 10.26 0 0 0 6.82 2.6c2.62 0 5-.99 6.82-2.6a10.26 10.26 0 0 0 6.82 2.6c2.61 0 5-.99 6.82-2.6a10.2 10.2 0 0 0 13.63 0 10.26 10.26 0 0 0 6.82 2.6c2.61 0 5-.99 6.82-2.6a10.2 10.2 0 0 0 13.63 0 10.26 10.26 0 0 0 10.53 1.9c1.15-.45 2.2-1.1 3.11-1.9a10.25 10.25 0 0 0 13.63 0 10.2 10.2 0 0 0 13.64 0 10.2 10.2 0 0 0 13.64 0 10.2 10.2 0 0 0 13.63 0 10.26 10.26 0 0 0 10.53 1.9 10.35 10.35 0 0 0 3.1-1.9 10.26 10.26 0 0 0 6.83 2.6 10.23 10.23 0 0 0 6.81-2.6 10.26 10.26 0 0 0 6.82 2.6c2.62 0 5-.99 6.82-2.6a10.26 10.26 0 0 0 6.82 2.6c2.61 0 5-.99 6.82-2.6 1.35 1.2 3.1 1.9 4.95 2.25a401.12 401.12 0 0 0 2-10.22l-.14.02a10.18 10.18 0 0 1-6.81-2.6 10.2 10.2 0 0 1-13.64 0 10.2 10.2 0 0 1-13.64 0 10.2 10.2 0 0 1-13.63 0 10.2 10.2 0 0 1-13.64 0 10.27 10.27 0 0 1-10.53 1.9c-1.15-.44-2.2-1.1-3.1-1.9a10.2 10.2 0 0 1-13.64 0 10.2 10.2 0 0 1-13.64 0 10.26 10.26 0 0 1-10.52 1.9c-1.15-.44-2.2-1.1-3.1-1.9a10.2 10.2 0 0 1-13.65 0 10.2 10.2 0 0 1-13.63 0 10.2 10.2 0 0 1-13.64 0 10.27 10.27 0 0 1-10.52 1.9c-1.15-.44-2.2-1.1-3.11-1.9a10.2 10.2 0 0 1-13.64 0 10.2 10.2 0 0 1-13.63 0 10.2 10.2 0 0 1-13.64 0 10.2 10.2 0 0 1-13.63 0 10.2 10.2 0 0 1-13.64 0 10.27 10.27 0 0 1-10.53 1.9c-1.15-.44-2.2-1.1-3.1-1.9a10.2 10.2 0 0 1-13.64 0 10.2 10.2 0 0 1-13.64 0 10.27 10.27 0 0 1-10.52 1.9c-1.15-.44-2.2-1.1-3.11-1.9a10.27 10.27 0 0 1-10.53 1.9c-1.15-.44-2.2-1.1-3.1-1.9a10.2 10.2 0 0 1-13.64 0 10.2 10.2 0 0 1-13.64 0 10.2 10.2 0 0 1-13.63 0 10.2 10.2 0 0 1-13.64 0 10.2 10.2 0 0 1-13.64 0 10.2 10.2 0 0 1-13.63 0 10.2 10.2 0 0 1-13.64 0 10.2 10.2 0 0 1-13.63 0 10.2 10.2 0 0 1-13.64 0 10.26 10.26 0 0 1-10.52 1.9c-1.15-.44-2.2-1.1-3.11-1.9a10.2 10.2 0 0 1-13.64 0 10.2 10.2 0 0 1-13.63 0 10.2 10.2 0 0 1-13.64 0 10.27 10.27 0 0 1-10.53 1.9c-1.15-.44-2.2-1.1-3.1-1.9a10.2 10.2 0 0 1-13.64 0 10.2 10.2 0 0 1-13.64 0 10.2 10.2 0 0 1-13.63 0 10.2 10.2 0 0 1-13.64 0 10.2 10.2 0 0 1-13.63 0zm0 31.71a10.27 10.27 0 0 1-6.82 2.6c-1.67 0-3.24-.43-4.63-1.14v10.54a10.12 10.12 0 0 0 11.45-1.45 10.2 10.2 0 0 0 13.63 0 10.26 10.26 0 0 0 6.82 2.6c2.62 0 5-.98 6.82-2.6a10.26 10.26 0 0 0 6.82 2.6 10.18 10.18 0 0 0 6.81-2.6 10.2 10.2 0 0 0 13.64 0 10.2 10.2 0 0 0 13.64 0 10.2 10.2 0 0 0 13.63 0 10.2 10.2 0 0 0 13.64 0 10.2 10.2 0 0 0 13.63 0 10.2 10.2 0 0 0 13.64 0 10.26 10.26 0 0 0 6.82 2.6 10.18 10.18 0 0 0 6.81-2.6 10.2 10.2 0 0 0 13.64 0 10.2 10.2 0 0 0 13.63 0 10.26 10.26 0 0 0 6.82 2.6c2.62 0 5-.98 6.82-2.6a10.2 10.2 0 0 0 13.63 0 10.2 10.2 0 0 0 13.64 0 10.2 10.2 0 0 0 13.64 0 10.26 10.26 0 0 0 10.52 1.9c1.15-.44 2.2-1.09 3.11-1.9a10.26 10.26 0 0 0 10.53 1.9 9.96 9.96 0 0 0 3.1-1.9 10.26 10.26 0 0 0 10.53 1.9c1.15-.44 2.2-1.09 3.11-1.9a10.2 10.2 0 0 0 13.64 0 10.2 10.2 0 0 0 13.63 0 10.25 10.25 0 0 0 13.64 0 10.26 10.26 0 0 0 6.82 2.6c2.61 0 5-.98 6.82-2.6a10.25 10.25 0 0 0 13.63 0 10.26 10.26 0 0 0 6.82 2.6c2.61 0 5-.98 6.82-2.6a10.2 10.2 0 0 0 13.63 0 10.26 10.26 0 0 0 10.53 1.9 9.96 9.96 0 0 0 3.1-1.9 10.26 10.26 0 0 0 6.82 2.6c2.62 0 5-.98 6.82-2.6a10.26 10.26 0 0 0 6.82 2.6c2.61 0 5-.98 6.82-2.6a10.2 10.2 0 0 0 13.63 0 10.26 10.26 0 0 0 6.82 2.6c2.61 0 5-.98 6.82-2.6a10.2 10.2 0 0 0 13.63 0 10.26 10.26 0 0 0 10.53 1.9c1.15-.44 2.2-1.09 3.11-1.9a10.25 10.25 0 0 0 10.53 1.9 9.96 9.96 0 0 0 3.1-1.9 10.2 10.2 0 0 0 13.64 0 10.2 10.2 0 0 0 13.64 0 10.2 10.2 0 0 0 13.63 0 10.26 10.26 0 0 0 10.53 1.9 9.96 9.96 0 0 0 3.1-1.9 10.26 10.26 0 0 0 6.83 2.6 10.18 10.18 0 0 0 6.81-2.6 10.26 10.26 0 0 0 6.82 2.6c2.62 0 5-.98 6.82-2.6a10.26 10.26 0 0 0 6.82 2.6c1.15 0 2.24-.26 3.27-.6a401.12 401.12 0 0 0 3.36-12.43 10.16 10.16 0 0 1-13.45-.12 10.2 10.2 0 0 1-13.64 0 10.2 10.2 0 0 1-13.63 0 10.2 10.2 0 0 1-13.64 0 10.27 10.27 0 0 1-10.53 1.91 10.18 10.18 0 0 1-3.1-1.91 10.2 10.2 0 0 1-13.64 0 10.2 10.2 0 0 1-13.64 0 10.26 10.26 0 0 1-10.52 1.91 10.18 10.18 0 0 1-3.1-1.91 10.2 10.2 0 0 1-13.65 0 10.2 10.2 0 0 1-13.63 0 10.2 10.2 0 0 1-13.64 0 10.27 10.27 0 0 1-10.52 1.91 10.35 10.35 0 0 1-3.11-1.91 10.2 10.2 0 0 1-13.64 0 10.2 10.2 0 0 1-13.63 0 10.2 10.2 0 0 1-13.64 0 10.2 10.2 0 0 1-13.63 0 10.2 10.2 0 0 1-13.64 0 10.27 10.27 0 0 1-10.53 1.91 10.18 10.18 0 0 1-3.1-1.91 10.2 10.2 0 0 1-13.64 0 10.2 10.2 0 0 1-13.64 0 10.27 10.27 0 0 1-10.52 1.91 10.35 10.35 0 0 1-3.11-1.91 10.27 10.27 0 0 1-10.53 1.91 10.18 10.18 0 0 1-3.1-1.91 10.2 10.2 0 0 1-13.64 0 10.2 10.2 0 0 1-13.64 0 10.2 10.2 0 0 1-13.63 0 10.2 10.2 0 0 1-13.64 0 10.2 10.2 0 0 1-13.64 0 10.2 10.2 0 0 1-13.63 0 10.2 10.2 0 0 1-13.64 0 10.2 10.2 0 0 1-13.63 0 10.2 10.2 0 0 1-13.64 0 10.26 10.26 0 0 1-10.52 1.91 10.35 10.35 0 0 1-3.11-1.91 10.2 10.2 0 0 1-13.64 0 10.2 10.2 0 0 1-13.63 0 10.2 10.2 0 0 1-13.64 0 10.27 10.27 0 0 1-10.53 1.91 10.18 10.18 0 0 1-3.1-1.91 10.2 10.2 0 0 1-13.64 0 10.2 10.2 0 0 1-13.64 0 10.2 10.2 0 0 1-13.63 0 10.2 10.2 0 0 1-13.64 0 10.2 10.2 0 0 1-13.63 0zm0 28.7a10.26 10.26 0 0 1-6.82 2.6c-1.67 0-3.24-.43-4.63-1.15v10.55a10.12 10.12 0 0 0 11.45-1.46 10.2 10.2 0 0 0 13.63 0 10.26 10.26 0 0 0 6.82 2.61c2.62 0 5-.98 6.82-2.6a10.26 10.26 0 0 0 6.82 2.6 10.18 10.18 0 0 0 6.81-2.6 10.2 10.2 0 0 0 13.64 0 10.2 10.2 0 0 0 13.64 0 10.2 10.2 0 0 0 13.63 0 10.2 10.2 0 0 0 13.64 0 10.2 10.2 0 0 0 13.63 0 10.2 10.2 0 0 0 13.64 0 10.26 10.26 0 0 0 6.82 2.6 10.18 10.18 0 0 0 6.81-2.6 10.2 10.2 0 0 0 13.64 0 10.2 10.2 0 0 0 13.63 0 10.26 10.26 0 0 0 6.82 2.6c2.62 0 5-.98 6.82-2.6a10.2 10.2 0 0 0 13.63 0 10.2 10.2 0 0 0 13.64 0 10.2 10.2 0 0 0 13.64 0 10.26 10.26 0 0 0 10.52 1.9c1.15-.44 2.2-1.1 3.11-1.9a10.26 10.26 0 0 0 10.53 1.9c1.15-.44 2.2-1.1 3.1-1.9a10.26 10.26 0 0 0 10.53 1.9c1.15-.44 2.2-1.1 3.11-1.9a10.2 10.2 0 0 0 13.64 0 10.2 10.2 0 0 0 13.63 0 10.25 10.25 0 0 0 13.64 0 10.25 10.25 0 0 0 13.64 0 10.25 10.25 0 0 0 13.63 0 10.26 10.26 0 0 0 6.82 2.6c2.61 0 5-.98 6.82-2.6a10.2 10.2 0 0 0 13.63 0 10.26 10.26 0 0 0 10.53 1.9c1.15-.44 2.2-1.1 3.1-1.9a10.26 10.26 0 0 0 6.82 2.6c2.62 0 5-.98 6.82-2.6a10.26 10.26 0 0 0 6.82 2.6c2.61 0 5-.98 6.82-2.6a10.2 10.2 0 0 0 13.63 0 10.26 10.26 0 0 0 6.82 2.6c2.61 0 5-.98 6.82-2.6a10.2 10.2 0 0 0 13.63 0 10.26 10.26 0 0 0 10.53 1.9c1.15-.44 2.2-1.1 3.11-1.9a10.25 10.25 0 0 0 13.63 0 10.2 10.2 0 0 0 13.64 0 10.2 10.2 0 0 0 13.64 0 10.2 10.2 0 0 0 13.63 0 10.26 10.26 0 0 0 10.53 1.9c1.15-.44 2.2-1.1 3.1-1.9a10.26 10.26 0 0 0 6.83 2.6 10.18 10.18 0 0 0 6.81-2.6 10.26 10.26 0 0 0 6.82 2.6c2.62 0 5-.98 6.82-2.6.1.1.26.13.38.23a401.12 401.12 0 0 0 3.38-8.75 10.2 10.2 0 0 1-3.76-2.03 10.2 10.2 0 0 1-13.64 0 10.2 10.2 0 0 1-13.63 0 10.2 10.2 0 0 1-13.64 0 10.26 10.26 0 0 1-10.53 1.9c-1.15-.44-2.2-1.1-3.1-1.9a10.2 10.2 0 0 1-13.64 0 10.2 10.2 0 0 1-13.64 0 10.25 10.25 0 0 1-10.52 1.9c-1.15-.44-2.2-1.1-3.1-1.9a10.2 10.2 0 0 1-13.65 0 10.2 10.2 0 0 1-13.63 0 10.2 10.2 0 0 1-13.64 0 10.26 10.26 0 0 1-10.52 1.9c-1.15-.44-2.2-1.1-3.11-1.9a10.2 10.2 0 0 1-13.64 0 10.2 10.2 0 0 1-13.63 0 10.2 10.2 0 0 1-13.64 0 10.2 10.2 0 0 1-13.63 0 10.2 10.2 0 0 1-13.64 0 10.26 10.26 0 0 1-10.53 1.9c-1.15-.44-2.2-1.1-3.1-1.9a10.2 10.2 0 0 1-13.64 0 10.2 10.2 0 0 1-13.64 0 10.26 10.26 0 0 1-10.52 1.9c-1.15-.44-2.2-1.1-3.11-1.9a10.26 10.26 0 0 1-10.53 1.9c-1.15-.44-2.2-1.1-3.1-1.9a10.2 10.2 0 0 1-13.64 0 10.2 10.2 0 0 1-13.64 0 10.2 10.2 0 0 1-13.63 0 10.2 10.2 0 0 1-13.64 0 10.2 10.2 0 0 1-13.64 0 10.2 10.2 0 0 1-13.63 0 10.2 10.2 0 0 1-13.64 0 10.2 10.2 0 0 1-13.63 0 10.2 10.2 0 0 1-13.64 0 10.25 10.25 0 0 1-10.52 1.9c-1.15-.44-2.2-1.1-3.11-1.9a10.2 10.2 0 0 1-13.64 0 10.2 10.2 0 0 1-13.63 0 10.2 10.2 0 0 1-13.64 0 10.26 10.26 0 0 1-10.53 1.9c-1.15-.44-2.2-1.1-3.1-1.9a10.2 10.2 0 0 1-13.64 0 10.2 10.2 0 0 1-13.64 0 10.2 10.2 0 0 1-13.63 0 10.2 10.2 0 0 1-13.64 0 10.2 10.2 0 0 1-13.63 0zm0 31.71A10.27 10.27 0 0 1 5.61 667c-1.67 0-3.24-.44-4.63-1.15v10.55a10.12 10.12 0 0 0 11.45-1.46 10.2 10.2 0 0 0 13.63 0 10.25 10.25 0 0 0 13.64 0 10.25 10.25 0 0 0 13.63 0 10.2 10.2 0 0 0 13.64 0 10.2 10.2 0 0 0 13.64 0 10.2 10.2 0 0 0 13.63 0 10.2 10.2 0 0 0 13.64 0 10.2 10.2 0 0 0 13.63 0 10.2 10.2 0 0 0 13.64 0 10.25 10.25 0 0 0 13.63 0 10.2 10.2 0 0 0 13.64 0 10.2 10.2 0 0 0 13.63 0 10.26 10.26 0 0 0 13.64 0 10.2 10.2 0 0 0 13.63 0 10.2 10.2 0 0 0 13.64 0 10.2 10.2 0 0 0 13.64 0 10.25 10.25 0 0 0 13.63 0 10.26 10.26 0 0 0 13.64 0 10.25 10.25 0 0 0 13.63 0 10.2 10.2 0 0 0 13.64 0 10.2 10.2 0 0 0 13.63 0 10.25 10.25 0 0 0 13.64 0 10.25 10.25 0 0 0 13.64 0 10.24 10.24 0 0 0 13.63 0 10.25 10.25 0 0 0 13.64 0 10.2 10.2 0 0 0 13.63 0 10.26 10.26 0 0 0 13.64 0 10.25 10.25 0 0 0 13.63 0 10.25 10.25 0 0 0 13.64 0 10.2 10.2 0 0 0 13.63 0 10.25 10.25 0 0 0 13.64 0 10.2 10.2 0 0 0 13.63 0 10.25 10.25 0 0 0 13.64 0 10.24 10.24 0 0 0 13.63 0 10.2 10.2 0 0 0 13.64 0 10.2 10.2 0 0 0 13.64 0 10.2 10.2 0 0 0 13.63 0 10.25 10.25 0 0 0 13.64 0 10.26 10.26 0 0 0 13.63 0c.04.04.1.05.14.09a401.12 401.12 0 0 0 4.35-8.47c-.45-.1-.95-.09-1.38-.26-1.15-.44-2.2-1.1-3.1-1.9a10.2 10.2 0 0 1-13.64 0 10.2 10.2 0 0 1-13.64 0 10.26 10.26 0 0 1-10.53 1.9c-1.15-.44-2.2-1.1-3.1-1.9a10.2 10.2 0 0 1-13.64 0 10.2 10.2 0 0 1-13.64 0 10.26 10.26 0 0 1-10.52 1.9c-1.15-.44-2.2-1.1-3.1-1.9a10.2 10.2 0 0 1-13.65 0 10.2 10.2 0 0 1-13.63 0 10.2 10.2 0 0 1-13.64 0 10.26 10.26 0 0 1-10.52 1.9c-1.15-.44-2.2-1.1-3.11-1.9a10.2 10.2 0 0 1-13.64 0 10.2 10.2 0 0 1-13.63 0 10.2 10.2 0 0 1-13.64 0 10.2 10.2 0 0 1-13.63 0 10.2 10.2 0 0 1-13.64 0 10.26 10.26 0 0 1-10.53 1.9c-1.15-.44-2.2-1.1-3.1-1.9a10.2 10.2 0 0 1-13.64 0 10.2 10.2 0 0 1-13.64 0 10.27 10.27 0 0 1-10.52 1.9c-1.15-.44-2.2-1.1-3.11-1.9a10.26 10.26 0 0 1-10.53 1.9c-1.15-.44-2.2-1.1-3.1-1.9a10.2 10.2 0 0 1-13.64 0 10.2 10.2 0 0 1-13.64 0 10.2 10.2 0 0 1-13.63 0 10.2 10.2 0 0 1-13.64 0 10.2 10.2 0 0 1-13.64 0 10.2 10.2 0 0 1-13.63 0 10.2 10.2 0 0 1-13.64 0 10.2 10.2 0 0 1-13.63 0 10.2 10.2 0 0 1-13.64 0 10.26 10.26 0 0 1-10.52 1.9c-1.15-.44-2.2-1.1-3.11-1.9a10.2 10.2 0 0 1-13.64 0 10.2 10.2 0 0 1-13.63 0 10.2 10.2 0 0 1-13.64 0 10.27 10.27 0 0 1-10.53 1.9c-1.15-.44-2.2-1.1-3.1-1.9a10.2 10.2 0 0 1-13.64 0 10.2 10.2 0 0 1-13.64 0 10.2 10.2 0 0 1-13.63 0 10.2 10.2 0 0 1-13.64 0 10.2 10.2 0 0 1-13.63 0zm0 28.7a10.27 10.27 0 0 1-6.82 2.6c-1.67 0-3.24-.43-4.63-1.15v10.55a10.12 10.12 0 0 0 11.45-1.45 10.2 10.2 0 0 0 13.63 0 10.26 10.26 0 0 0 6.82 2.6c2.62 0 5-.98 6.82-2.6a10.26 10.26 0 0 0 6.82 2.6 10.18 10.18 0 0 0 6.81-2.6 10.2 10.2 0 0 0 13.64 0 10.2 10.2 0 0 0 13.64 0 10.2 10.2 0 0 0 13.63 0 10.2 10.2 0 0 0 13.64 0 10.2 10.2 0 0 0 13.63 0 10.2 10.2 0 0 0 13.64 0 10.26 10.26 0 0 0 6.82 2.6 10.18 10.18 0 0 0 6.81-2.6 10.2 10.2 0 0 0 13.64 0 10.2 10.2 0 0 0 13.63 0 10.26 10.26 0 0 0 6.82 2.6c2.62 0 5-.98 6.82-2.6a10.2 10.2 0 0 0 13.63 0 10.2 10.2 0 0 0 13.64 0 10.2 10.2 0 0 0 13.64 0 10.26 10.26 0 0 0 10.52 1.9c1.15-.44 2.2-1.09 3.11-1.9a10.26 10.26 0 0 0 10.53 1.9 9.96 9.96 0 0 0 3.1-1.9 10.26 10.26 0 0 0 10.53 1.9c1.15-.44 2.2-1.09 3.11-1.9a10.2 10.2 0 0 0 13.64 0 10.2 10.2 0 0 0 13.63 0 10.25 10.25 0 0 0 13.64 0 10.26 10.26 0 0 0 6.82 2.6c2.61 0 5-.98 6.82-2.6a10.25 10.25 0 0 0 13.63 0 10.26 10.26 0 0 0 6.82 2.6c2.61 0 5-.98 6.82-2.6a10.2 10.2 0 0 0 13.63 0 10.26 10.26 0 0 0 10.53 1.9 9.96 9.96 0 0 0 3.1-1.9 10.26 10.26 0 0 0 6.82 2.6c2.62 0 5-.98 6.82-2.6a10.26 10.26 0 0 0 6.82 2.6c2.61 0 5-.98 6.82-2.6a10.2 10.2 0 0 0 13.63 0 10.26 10.26 0 0 0 6.82 2.6c2.61 0 5-.98 6.82-2.6a10.2 10.2 0 0 0 13.63 0 10.26 10.26 0 0 0 10.53 1.9c1.15-.44 2.2-1.09 3.11-1.9a10.25 10.25 0 0 0 10.53 1.9 9.96 9.96 0 0 0 3.1-1.9 10.2 10.2 0 0 0 13.64 0 10.2 10.2 0 0 0 13.64 0 10.2 10.2 0 0 0 13.63 0 10.26 10.26 0 0 0 10.53 1.9c.22-.08.38-.26.6-.36a401.12 401.12 0 0 0 6-10.1 10.22 10.22 0 0 1-3.5-1.99 10.2 10.2 0 0 1-13.63 0 10.27 10.27 0 0 1-10.53 1.91 10.18 10.18 0 0 1-3.1-1.91 10.2 10.2 0 0 1-13.64 0 10.2 10.2 0 0 1-13.64 0 10.26 10.26 0 0 1-10.52 1.91 10.18 10.18 0 0 1-3.1-1.91 10.2 10.2 0 0 1-13.65 0 10.2 10.2 0 0 1-13.63 0 10.2 10.2 0 0 1-13.64 0 10.27 10.27 0 0 1-10.52 1.91 10.35 10.35 0 0 1-3.11-1.91 10.2 10.2 0 0 1-13.64 0 10.2 10.2 0 0 1-13.63 0 10.2 10.2 0 0 1-13.64 0 10.2 10.2 0 0 1-13.63 0 10.2 10.2 0 0 1-13.64 0 10.27 10.27 0 0 1-10.53 1.91 10.18 10.18 0 0 1-3.1-1.91 10.2 10.2 0 0 1-13.64 0 10.2 10.2 0 0 1-13.64 0 10.27 10.27 0 0 1-10.52 1.91 10.35 10.35 0 0 1-3.11-1.91 10.27 10.27 0 0 1-10.53 1.91 10.18 10.18 0 0 1-3.1-1.91 10.2 10.2 0 0 1-13.64 0 10.2 10.2 0 0 1-13.64 0 10.2 10.2 0 0 1-13.63 0 10.2 10.2 0 0 1-13.64 0 10.2 10.2 0 0 1-13.64 0 10.2 10.2 0 0 1-13.63 0 10.2 10.2 0 0 1-13.64 0 10.2 10.2 0 0 1-13.63 0 10.2 10.2 0 0 1-13.64 0 10.26 10.26 0 0 1-10.52 1.91 10.35 10.35 0 0 1-3.11-1.91 10.2 10.2 0 0 1-13.64 0 10.2 10.2 0 0 1-13.63 0 10.2 10.2 0 0 1-13.64 0A10.27 10.27 0 0 1 83.71 695a10.18 10.18 0 0 1-3.1-1.91 10.2 10.2 0 0 1-13.64 0 10.2 10.2 0 0 1-13.64 0 10.2 10.2 0 0 1-13.63 0 10.2 10.2 0 0 1-13.64 0 10.2 10.2 0 0 1-13.63 0zm0 31.72a10.27 10.27 0 0 1-6.82 2.6c-1.67 0-3.24-.43-4.63-1.15v10.55a10.12 10.12 0 0 0 11.45-1.45 10.2 10.2 0 0 0 13.63 0 10.26 10.26 0 0 0 6.82 2.6c2.62 0 5-.98 6.82-2.6a10.26 10.26 0 0 0 6.82 2.6 10.18 10.18 0 0 0 6.81-2.6 10.2 10.2 0 0 0 13.64 0 10.2 10.2 0 0 0 13.64 0 10.2 10.2 0 0 0 13.63 0 10.2 10.2 0 0 0 13.64 0 10.2 10.2 0 0 0 13.63 0 10.2 10.2 0 0 0 13.64 0 10.26 10.26 0 0 0 6.82 2.6 10.18 10.18 0 0 0 6.81-2.6 10.2 10.2 0 0 0 13.64 0 10.2 10.2 0 0 0 13.63 0 10.26 10.26 0 0 0 6.82 2.6c2.62 0 5-.98 6.82-2.6a10.2 10.2 0 0 0 13.63 0 10.2 10.2 0 0 0 13.64 0 10.2 10.2 0 0 0 13.64 0 10.26 10.26 0 0 0 10.52 1.9c1.15-.44 2.2-1.1 3.11-1.9a10.26 10.26 0 0 0 10.53 1.9c1.15-.44 2.2-1.1 3.1-1.9a10.26 10.26 0 0 0 10.53 1.9c1.15-.44 2.2-1.1 3.11-1.9a10.2 10.2 0 0 0 13.64 0 10.2 10.2 0 0 0 13.63 0 10.25 10.25 0 0 0 10.53 1.9c1.15-.44 2.2-1.1 3.1-1.9a10.26 10.26 0 0 0 6.83 2.6c2.61 0 5-.98 6.82-2.6a10.25 10.25 0 0 0 6.81 2.6c2.62 0 5-.98 6.82-2.6a10.26 10.26 0 0 0 6.82 2.6c2.61 0 5-.98 6.82-2.6a10.2 10.2 0 0 0 13.63 0 10.26 10.26 0 0 0 10.53 1.9c1.15-.44 2.2-1.1 3.1-1.9a10.26 10.26 0 0 0 6.82 2.6c2.62 0 5-.98 6.82-2.6a10.26 10.26 0 0 0 6.82 2.6c2.61 0 5-.98 6.82-2.6a10.2 10.2 0 0 0 13.63 0 10.26 10.26 0 0 0 6.82 2.6c2.61 0 5-.98 6.82-2.6a10.2 10.2 0 0 0 13.63 0 10.26 10.26 0 0 0 10.53 1.9c1.15-.44 2.2-1.1 3.11-1.9a10.25 10.25 0 0 0 10.53 1.9c1.15-.44 2.2-1.1 3.1-1.9a10.2 10.2 0 0 0 13.64 0 10.2 10.2 0 0 0 13.64 0c.96.85 2.09 1.5 3.32 1.94a401.12 401.12 0 0 0 7.43-10.72c-.08.03-.14.1-.23.14a10.18 10.18 0 0 1-10.52-1.91 10.2 10.2 0 0 1-13.64 0 10.2 10.2 0 0 1-13.64 0 10.26 10.26 0 0 1-10.52 1.9c-1.15-.44-2.2-1.1-3.1-1.9a10.2 10.2 0 0 1-13.65 0 10.2 10.2 0 0 1-13.63 0 10.2 10.2 0 0 1-13.64 0 10.27 10.27 0 0 1-10.52 1.9c-1.15-.44-2.2-1.1-3.11-1.9a10.2 10.2 0 0 1-13.64 0 10.2 10.2 0 0 1-13.63 0 10.2 10.2 0 0 1-13.64 0 10.2 10.2 0 0 1-13.63 0 10.2 10.2 0 0 1-13.64 0 10.27 10.27 0 0 1-10.53 1.9c-1.15-.44-2.2-1.1-3.1-1.9a10.2 10.2 0 0 1-13.64 0 10.2 10.2 0 0 1-13.64 0 10.27 10.27 0 0 1-10.52 1.9c-1.15-.44-2.2-1.1-3.11-1.9a10.27 10.27 0 0 1-10.53 1.9c-1.15-.44-2.2-1.1-3.1-1.9a10.2 10.2 0 0 1-13.64 0 10.2 10.2 0 0 1-13.64 0 10.2 10.2 0 0 1-13.63 0 10.2 10.2 0 0 1-13.64 0 10.2 10.2 0 0 1-13.64 0 10.2 10.2 0 0 1-13.63 0 10.2 10.2 0 0 1-13.64 0 10.2 10.2 0 0 1-13.63 0 10.2 10.2 0 0 1-13.64 0 10.27 10.27 0 0 1-10.52 1.9c-1.15-.44-2.2-1.1-3.11-1.9a10.2 10.2 0 0 1-13.64 0 10.2 10.2 0 0 1-13.63 0 10.2 10.2 0 0 1-13.64 0 10.27 10.27 0 0 1-10.53 1.9c-1.15-.44-2.2-1.1-3.1-1.9a10.2 10.2 0 0 1-13.64 0 10.2 10.2 0 0 1-13.64 0 10.2 10.2 0 0 1-13.63 0 10.2 10.2 0 0 1-13.64 0 10.2 10.2 0 0 1-13.63 0zm0 28.7a10.27 10.27 0 0 1-6.82 2.6c-1.67 0-3.24-.44-4.63-1.15v10.54a10.12 10.12 0 0 0 11.45-1.46 10.2 10.2 0 0 0 13.63 0 10.26 10.26 0 0 0 6.82 2.6c2.62 0 5-.98 6.82-2.6a10.26 10.26 0 0 0 6.82 2.6 10.18 10.18 0 0 0 6.81-2.6 10.2 10.2 0 0 0 13.64 0 10.2 10.2 0 0 0 13.64 0 10.2 10.2 0 0 0 13.63 0 10.2 10.2 0 0 0 13.64 0 10.2 10.2 0 0 0 13.63 0 10.2 10.2 0 0 0 13.64 0 10.26 10.26 0 0 0 6.82 2.6 10.18 10.18 0 0 0 6.81-2.6 10.2 10.2 0 0 0 13.64 0 10.2 10.2 0 0 0 13.63 0 10.26 10.26 0 0 0 6.82 2.6c2.62 0 5-.98 6.82-2.6a10.2 10.2 0 0 0 13.63 0 10.2 10.2 0 0 0 13.64 0 10.2 10.2 0 0 0 13.64 0 10.26 10.26 0 0 0 10.52 1.91c1.15-.45 2.2-1.1 3.11-1.9a10.26 10.26 0 0 0 10.53 1.9 10.35 10.35 0 0 0 3.1-1.9 10.26 10.26 0 0 0 10.53 1.9c1.15-.45 2.2-1.1 3.11-1.9a10.2 10.2 0 0 0 13.64 0 10.2 10.2 0 0 0 13.63 0 10.25 10.25 0 0 0 10.53 1.9 10.35 10.35 0 0 0 3.1-1.9 10.26 10.26 0 0 0 6.83 2.6c2.61 0 5-.99 6.82-2.6a10.25 10.25 0 0 0 6.81 2.6c2.62 0 5-.99 6.82-2.6a10.26 10.26 0 0 0 6.82 2.6c2.61 0 5-.99 6.82-2.6a10.2 10.2 0 0 0 13.63 0 10.26 10.26 0 0 0 10.53 1.9 10.35 10.35 0 0 0 3.1-1.9 10.26 10.26 0 0 0 6.82 2.6c2.62 0 5-.99 6.82-2.6a10.26 10.26 0 0 0 6.82 2.6c2.61 0 5-.99 6.82-2.6a10.2 10.2 0 0 0 13.63 0 10.26 10.26 0 0 0 6.82 2.6c2.61 0 5-.99 6.82-2.6a10.2 10.2 0 0 0 13.63 0 10.26 10.26 0 0 0 10.53 1.9c1.15-.45 2.2-1.1 3.11-1.9a10.25 10.25 0 0 0 10.53 1.9 10.35 10.35 0 0 0 3.1-1.9 10.2 10.2 0 0 0 6.65 2.56 401.12 401.12 0 0 0 9.47-11.6 10.3 10.3 0 0 1-2.48-1.52 10.2 10.2 0 0 1-13.64 0 10.26 10.26 0 0 1-10.52 1.91c-1.15-.44-2.2-1.1-3.1-1.9a10.2 10.2 0 0 1-13.65 0 10.2 10.2 0 0 1-13.63 0 10.2 10.2 0 0 1-13.64 0 10.27 10.27 0 0 1-10.52 1.9c-1.15-.44-2.2-1.1-3.11-1.9a10.2 10.2 0 0 1-13.64 0 10.2 10.2 0 0 1-13.63 0 10.2 10.2 0 0 1-13.64 0 10.2 10.2 0 0 1-13.63 0 10.2 10.2 0 0 1-13.64 0 10.27 10.27 0 0 1-10.53 1.9c-1.15-.44-2.2-1.1-3.1-1.9a10.2 10.2 0 0 1-13.64 0 10.2 10.2 0 0 1-13.64 0 10.27 10.27 0 0 1-10.52 1.9c-1.15-.44-2.2-1.1-3.11-1.9a10.27 10.27 0 0 1-10.53 1.9c-1.15-.44-2.2-1.1-3.1-1.9a10.2 10.2 0 0 1-13.64 0 10.2 10.2 0 0 1-13.64 0 10.2 10.2 0 0 1-13.63 0 10.2 10.2 0 0 1-13.64 0 10.2 10.2 0 0 1-13.64 0 10.2 10.2 0 0 1-13.63 0 10.2 10.2 0 0 1-13.64 0 10.2 10.2 0 0 1-13.63 0 10.2 10.2 0 0 1-13.64 0 10.26 10.26 0 0 1-10.52 1.9c-1.15-.44-2.2-1.1-3.11-1.9a10.2 10.2 0 0 1-13.64 0 10.2 10.2 0 0 1-13.63 0 10.2 10.2 0 0 1-13.64 0 10.27 10.27 0 0 1-10.53 1.9c-1.15-.44-2.2-1.1-3.1-1.9a10.2 10.2 0 0 1-13.64 0 10.2 10.2 0 0 1-13.64 0 10.2 10.2 0 0 1-13.63 0 10.2 10.2 0 0 1-13.64 0 10.2 10.2 0 0 1-13.63 0z" opacity=".23" fill="url(#B)"/><path d="M12.43 420.48a10.27 10.27 0 0 1-6.82 2.6c-1.7 0-3.29-.44-4.7-1.17v10.54a10.14 10.14 0 0 0 11.52-1.43 10.2 10.2 0 0 0 13.63 0 10.25 10.25 0 0 0 6.82 2.61c2.62 0 5-.98 6.82-2.6a10.26 10.26 0 0 0 6.82 2.6 10.18 10.18 0 0 0 6.81-2.6 10.2 10.2 0 0 0 13.64 0 10.2 10.2 0 0 0 13.64 0 10.2 10.2 0 0 0 13.63 0 10.2 10.2 0 0 0 13.64 0 10.2 10.2 0 0 0 13.63 0 10.2 10.2 0 0 0 13.64 0 10.25 10.25 0 0 0 13.63 0 10.2 10.2 0 0 0 13.64 0 10.2 10.2 0 0 0 13.63 0 10.26 10.26 0 0 0 6.82 2.6c2.62 0 5-.98 6.82-2.6a10.2 10.2 0 0 0 13.63 0 10.2 10.2 0 0 0 13.64 0 10.2 10.2 0 0 0 13.64 0 10.26 10.26 0 0 0 10.52 1.9c1.15-.44 2.2-1.1 3.11-1.9a10.25 10.25 0 0 0 10.53 1.9c1.15-.44 2.2-1.1 3.1-1.9a10.26 10.26 0 0 0 10.53 1.9c1.15-.44 2.2-1.1 3.11-1.9a10.2 10.2 0 0 0 13.64 0 10.2 10.2 0 0 0 13.63 0 10.26 10.26 0 0 0 10.53 1.9c1.15-.44 2.2-1.1 3.1-1.9a10.25 10.25 0 0 0 13.64 0 10.26 10.26 0 0 0 6.82 2.6c2.62 0 5-.98 6.82-2.6a10.26 10.26 0 0 0 6.82 2.6c2.61 0 5-.98 6.82-2.6a10.2 10.2 0 0 0 13.63 0 10.26 10.26 0 0 0 10.53 1.9c1.15-.44 2.2-1.1 3.1-1.9a10.26 10.26 0 0 0 6.82 2.6c2.62 0 5-.98 6.82-2.6a10.26 10.26 0 0 0 6.82 2.6c2.62 0 5-.98 6.82-2.6a10.2 10.2 0 0 0 13.63 0 10.26 10.26 0 0 0 6.82 2.6c2.62 0 5-.98 6.82-2.6a10.2 10.2 0 0 0 13.63 0 10.26 10.26 0 0 0 10.53 1.9c1.15-.44 2.2-1.1 3.11-1.9a10.25 10.25 0 0 0 13.63 0 10.2 10.2 0 0 0 13.64 0 10.2 10.2 0 0 0 13.64 0 10.2 10.2 0 0 0 13.63 0 10.26 10.26 0 0 0 10.53 1.9c1.15-.44 2.2-1.1 3.1-1.9a10.26 10.26 0 0 0 6.82 2.6c2.62 0 5-.98 6.82-2.6a10.26 10.26 0 0 0 6.82 2.6c2.62 0 5-.98 6.82-2.6a10.26 10.26 0 0 0 6.82 2.6 10.18 10.18 0 0 0 6.81-2.6 10.2 10.2 0 0 0 6.82 2.6c.8 0 1.52-.25 2.27-.43a401.12 401.12 0 0 0-1.84-10.2c-.15.01-.28.08-.43.08-2.61 0-5-.98-6.82-2.6a10.2 10.2 0 0 1-13.63 0 10.2 10.2 0 0 1-13.64 0 10.2 10.2 0 0 1-13.63 0 10.2 10.2 0 0 1-13.64 0 10.26 10.26 0 0 1-10.53 1.9c-1.15-.44-2.2-1.1-3.1-1.9a10.2 10.2 0 0 1-13.64 0 10.2 10.2 0 0 1-13.64 0 10.26 10.26 0 0 1-10.52 1.9c-1.15-.44-2.2-1.1-3.11-1.9a10.2 10.2 0 0 1-13.64 0 10.2 10.2 0 0 1-13.63 0 10.2 10.2 0 0 1-13.64 0 10.26 10.26 0 0 1-10.52 1.9c-1.15-.44-2.2-1.1-3.11-1.9a10.2 10.2 0 0 1-13.64 0 10.2 10.2 0 0 1-13.63 0 10.2 10.2 0 0 1-13.64 0 10.2 10.2 0 0 1-13.63 0 10.2 10.2 0 0 1-13.64 0 10.27 10.27 0 0 1-10.53 1.9c-1.15-.44-2.2-1.1-3.1-1.9a10.2 10.2 0 0 1-13.64 0 10.2 10.2 0 0 1-13.64 0 10.27 10.27 0 0 1-10.52 1.9c-1.15-.44-2.2-1.1-3.11-1.9a10.27 10.27 0 0 1-10.53 1.9c-1.15-.44-2.2-1.1-3.1-1.9a10.2 10.2 0 0 1-13.64 0 10.2 10.2 0 0 1-13.64 0 10.2 10.2 0 0 1-13.63 0 10.2 10.2 0 0 1-13.64 0 10.2 10.2 0 0 1-13.64 0 10.2 10.2 0 0 1-13.63 0 10.2 10.2 0 0 1-13.64 0 10.2 10.2 0 0 1-13.63 0 10.2 10.2 0 0 1-13.64 0 10.26 10.26 0 0 1-10.52 1.9c-1.15-.44-2.2-1.1-3.11-1.9a10.2 10.2 0 0 1-13.64 0 10.2 10.2 0 0 1-13.63 0 10.2 10.2 0 0 1-13.64 0 10.27 10.27 0 0 1-10.53 1.9c-1.15-.44-2.2-1.1-3.1-1.9a10.2 10.2 0 0 1-13.64 0 10.2 10.2 0 0 1-13.64 0 10.2 10.2 0 0 1-13.63 0 10.2 10.2 0 0 1-13.64 0 10.2 10.2 0 0 1-13.63 0z" fill="#5284ea"/><path d="M12.17 430.77a9.81 9.81 0 0 1-11.08 1.37.38.38 0 0 0-.18-.02v1.07c1.42.7 3 1.15 4.7 1.15 2.6 0 4.96-.98 6.81-2.55a10.53 10.53 0 0 0 6.82 2.55c2.6 0 4.96-.98 6.82-2.55a10.53 10.53 0 0 0 6.81 2.55c2.6 0 4.97-.98 6.82-2.55a10.53 10.53 0 0 0 6.82 2.55c2.6 0 4.96-.98 6.81-2.55a10.53 10.53 0 0 0 6.82 2.55c2.6 0 4.96-.98 6.82-2.55a10.53 10.53 0 0 0 6.81 2.55c2.6 0 4.97-.98 6.82-2.55a10.53 10.53 0 0 0 6.82 2.55c2.6 0 4.96-.98 6.81-2.55a10.52 10.52 0 0 0 6.82 2.55c2.6 0 4.96-.98 6.82-2.55a10.53 10.53 0 0 0 6.81 2.55c2.6 0 4.97-.98 6.82-2.55a10.53 10.53 0 0 0 6.82 2.55c2.6 0 4.96-.98 6.81-2.55a10.53 10.53 0 0 0 6.82 2.55c2.6 0 4.96-.98 6.82-2.55a10.53 10.53 0 0 0 6.81 2.55c2.6 0 4.97-.98 6.82-2.55a10.52 10.52 0 0 0 6.82 2.55c2.6 0 4.96-.98 6.81-2.55a10.53 10.53 0 0 0 6.82 2.55c2.6 0 4.96-.98 6.82-2.55a10.53 10.53 0 0 0 6.81 2.55c2.6 0 4.97-.98 6.82-2.55a10.53 10.53 0 0 0 6.82 2.55c2.6 0 4.96-.98 6.81-2.55a10.53 10.53 0 0 0 6.82 2.55c2.6 0 4.96-.98 6.82-2.55a10.53 10.53 0 0 0 6.81 2.55c2.6 0 4.97-.98 6.82-2.55a10.53 10.53 0 0 0 6.82 2.55c2.6 0 4.96-.98 6.81-2.55a10.53 10.53 0 0 0 6.82 2.55c2.6 0 4.96-.98 6.82-2.55a10.53 10.53 0 0 0 6.81 2.55c2.6 0 4.97-.98 6.82-2.55a10.53 10.53 0 0 0 6.82 2.55c2.6 0 4.96-.98 6.81-2.55a10.53 10.53 0 0 0 6.82 2.55c2.6 0 4.97-.98 6.82-2.55a10.53 10.53 0 0 0 6.81 2.55c2.6 0 4.97-.98 6.82-2.55a10.53 10.53 0 0 0 6.82 2.55c2.6 0 4.96-.98 6.81-2.55a10.53 10.53 0 0 0 6.82 2.55c2.6 0 4.96-.98 6.82-2.55a10.53 10.53 0 0 0 6.81 2.55c2.6 0 4.97-.98 6.82-2.55a10.53 10.53 0 0 0 6.82 2.55c2.6 0 4.96-.98 6.81-2.55a10.53 10.53 0 0 0 6.82 2.55c2.6 0 4.96-.98 6.82-2.55a10.53 10.53 0 0 0 6.81 2.55c2.6 0 4.97-.98 6.82-2.55a10.53 10.53 0 0 0 6.82 2.55c2.6 0 4.96-.98 6.81-2.55a10.53 10.53 0 0 0 6.82 2.55c2.6 0 4.96-.98 6.82-2.55a10.53 10.53 0 0 0 6.81 2.55c2.6 0 4.97-.98 6.82-2.55a10.53 10.53 0 0 0 6.82 2.55c2.6 0 4.96-.98 6.81-2.55a10.53 10.53 0 0 0 6.82 2.55c2.6 0 4.96-.98 6.82-2.55a10.53 10.53 0 0 0 6.81 2.55c2.6 0 4.97-.98 6.82-2.55a10.53 10.53 0 0 0 6.82 2.55c2.6 0 4.96-.98 6.81-2.55a10.53 10.53 0 0 0 6.82 2.55c2.6 0 4.96-.98 6.82-2.55a10.53 10.53 0 0 0 6.81 2.55c2.6 0 4.97-.98 6.82-2.55a10.53 10.53 0 0 0 6.82 2.55c2.6 0 4.96-.98 6.81-2.55a10.53 10.53 0 0 0 6.82 2.55c2.6 0 4.96-.98 6.82-2.55a10.53 10.53 0 0 0 6.81 2.55c2.6 0 4.97-.98 6.82-2.55a10.53 10.53 0 0 0 6.82 2.55c.85 0 1.62-.26 2.42-.45a401.12 401.12 0 0 0-.1-1.05c-.76.2-1.5.44-2.33.44a9.81 9.81 0 0 1-6.56-2.51.38.38 0 0 0-.5 0 9.81 9.81 0 0 1-13.13 0 .38.38 0 0 0-.5 0 9.81 9.81 0 0 1-13.14 0 .38.38 0 0 0-.5 0 9.81 9.81 0 0 1-13.13 0 .38.38 0 0 0-.5 0 9.81 9.81 0 0 1-13.13 0 .38.38 0 0 0-.5 0 9.8 9.8 0 0 1-13.14 0 .38.38 0 0 0-.5 0 9.81 9.81 0 0 1-13.13 0 .38.38 0 0 0-.5 0 9.81 9.81 0 0 1-13.13 0 .38.38 0 0 0-.5 0 9.81 9.81 0 0 1-13.13 0 .38.38 0 0 0-.51 0 9.81 9.81 0 0 1-13.13 0 .38.38 0 0 0-.5 0 9.81 9.81 0 0 1-13.13 0 .38.38 0 0 0-.5 0 9.81 9.81 0 0 1-13.13 0 .38.38 0 0 0-.51 0 9.81 9.81 0 0 1-13.13 0 .38.38 0 0 0-.5 0 9.8 9.8 0 0 1-13.13 0 .38.38 0 0 0-.5 0 9.8 9.8 0 0 1-13.13 0 .38.38 0 0 0-.5 0 9.82 9.82 0 0 1-13.14 0 .38.38 0 0 0-.5 0 9.81 9.81 0 0 1-13.13 0 .38.38 0 0 0-.5 0 9.81 9.81 0 0 1-13.14 0 .38.38 0 0 0-.5 0 9.81 9.81 0 0 1-13.13 0 .38.38 0 0 0-.5 0 9.81 9.81 0 0 1-13.13 0 .38.38 0 0 0-.5 0 9.82 9.82 0 0 1-13.14 0 .38.38 0 0 0-.5 0 9.81 9.81 0 0 1-13.13 0 .38.38 0 0 0-.5 0 9.8 9.8 0 0 1-13.13 0 .38.38 0 0 0-.5 0 9.81 9.81 0 0 1-13.14 0 .38.38 0 0 0-.5 0 9.81 9.81 0 0 1-13.13 0 .38.38 0 0 0-.5 0 9.81 9.81 0 0 1-13.13 0 .38.38 0 0 0-.5 0 9.81 9.81 0 0 1-13.13 0 .38.38 0 0 0-.51 0 9.81 9.81 0 0 1-13.13 0 .38.38 0 0 0-.5 0 9.81 9.81 0 0 1-13.13 0 .38.38 0 0 0-.5 0 9.81 9.81 0 0 1-13.13 0 .38.38 0 0 0-.51 0 9.81 9.81 0 0 1-13.13 0 .38.38 0 0 0-.5 0 9.81 9.81 0 0 1-13.13 0 .38.38 0 0 0-.5 0 9.81 9.81 0 0 1-13.14 0 .38.38 0 0 0-.5 0 9.81 9.81 0 0 1-13.13 0 .38.38 0 0 0-.5 0 9.81 9.81 0 0 1-13.13 0 .38.38 0 0 0-.5 0 9.81 9.81 0 0 1-13.13 0 .38.38 0 0 0-.51 0 9.81 9.81 0 0 1-13.13 0 .38.38 0 0 0-.5 0 9.81 9.81 0 0 1-13.13 0 .38.38 0 0 0-.5 0 9.81 9.81 0 0 1-13.14 0 .38.38 0 0 0-.5 0 9.81 9.81 0 0 1-13.13 0 .38.38 0 0 0-.5 0 9.81 9.81 0 0 1-13.13 0 .38.38 0 0 0-.5 0 9.8 9.8 0 0 1-13.13 0 .38.38 0 0 0-.5 0z" fill="#0b41b7"/><path d="M12.18 420.2a9.83 9.83 0 0 1-11.1 1.37.38.38 0 0 0-.17-.02v1.06c1.42.71 3 1.16 4.7 1.16 2.6 0 4.97-.99 6.82-2.55a10.54 10.54 0 0 0 6.83 2.55c2.6 0 4.97-.99 6.82-2.55a10.54 10.54 0 0 0 6.82 2.55c2.6 0 4.97-.99 6.82-2.55a10.55 10.55 0 0 0 6.83 2.55c2.6 0 4.97-.99 6.82-2.55a10.54 10.54 0 0 0 6.82 2.55c2.6 0 4.97-.99 6.83-2.55a10.55 10.55 0 0 0 6.82 2.55c2.6 0 4.97-.99 6.82-2.55a10.55 10.55 0 0 0 6.83 2.55c2.6 0 4.96-.99 6.82-2.55a10.54 10.54 0 0 0 6.82 2.55c2.6 0 4.97-.99 6.82-2.55a10.54 10.54 0 0 0 6.82 2.55c2.61 0 4.97-.99 6.83-2.55a10.55 10.55 0 0 0 6.82 2.55c2.6 0 4.97-.99 6.82-2.55a10.55 10.55 0 0 0 6.83 2.55c2.6 0 4.97-.99 6.82-2.55a10.55 10.55 0 0 0 6.82 2.55c2.6 0 4.97-.99 6.83-2.55a10.54 10.54 0 0 0 6.82 2.55c2.6 0 4.97-.99 6.82-2.55a10.54 10.54 0 0 0 6.82 2.55c2.6 0 4.97-.99 6.83-2.55a10.54 10.54 0 0 0 6.82 2.55c2.6 0 4.97-.99 6.82-2.55a10.54 10.54 0 0 0 6.82 2.55c2.6 0 4.97-.99 6.83-2.55a10.54 10.54 0 0 0 6.82 2.55c2.6 0 4.97-.99 6.82-2.55a10.55 10.55 0 0 0 6.83 2.55c2.6 0 4.96-.99 6.82-2.55a10.54 10.54 0 0 0 6.82 2.55c2.6 0 4.97-.99 6.82-2.55a10.54 10.54 0 0 0 6.83 2.55c2.6 0 4.96-.99 6.82-2.55a10.54 10.54 0 0 0 6.82 2.55c2.6 0 4.97-.99 6.82-2.55a10.54 10.54 0 0 0 6.83 2.55c2.6 0 4.97-.99 6.82-2.55a10.54 10.54 0 0 0 6.82 2.55c2.6 0 4.97-.99 6.83-2.55a10.54 10.54 0 0 0 6.82 2.55c2.6 0 4.97-.99 6.82-2.55a10.54 10.54 0 0 0 6.82 2.55c2.6 0 4.97-.99 6.83-2.55a10.54 10.54 0 0 0 6.82 2.55c2.6 0 4.97-.99 6.82-2.55a10.55 10.55 0 0 0 6.82 2.55c2.61 0 4.97-.99 6.83-2.55a10.55 10.55 0 0 0 6.82 2.55c2.6 0 4.97-.99 6.82-2.55a10.54 10.54 0 0 0 6.83 2.55c2.6 0 4.96-.99 6.82-2.55a10.54 10.54 0 0 0 6.82 2.55c2.6 0 4.97-.99 6.82-2.55a10.55 10.55 0 0 0 6.83 2.55c2.6 0 4.97-.99 6.82-2.55a10.54 10.54 0 0 0 6.82 2.55c2.6 0 4.97-.99 6.82-2.55a10.54 10.54 0 0 0 6.83 2.55c2.6 0 4.97-.99 6.82-2.55a10.55 10.55 0 0 0 6.82 2.55c2.6 0 4.97-.99 6.83-2.55a10.54 10.54 0 0 0 6.82 2.55c2.6 0 4.97-.99 6.82-2.55a10.54 10.54 0 0 0 6.82 2.55c2.61 0 4.97-.99 6.83-2.55a10.55 10.55 0 0 0 6.82 2.55c2.6 0 4.97-.99 6.82-2.55a10.55 10.55 0 0 0 6.82 2.55c2.61 0 4.97-.99 6.83-2.55a10.54 10.54 0 0 0 6.82 2.55c2.6 0 4.97-.99 6.82-2.55a10.54 10.54 0 0 0 6.83 2.55c2.6 0 4.96-.99 6.82-2.55a10.55 10.55 0 0 0 6.82 2.55c2.6 0 4.97-.99 6.82-2.55a10.54 10.54 0 0 0 6.83 2.55c2.6 0 4.97-.99 6.82-2.55a10.54 10.54 0 0 0 6.82 2.55c.07 0 .13-.04.2-.04a401.12 401.12 0 0 0-.28-1.04 9.82 9.82 0 0 1-6.49-2.5.38.38 0 0 0-.5 0 9.83 9.83 0 0 1-13.14 0 .38.38 0 0 0-.5 0 9.82 9.82 0 0 1-13.15 0 .38.38 0 0 0-.5 0 9.82 9.82 0 0 1-13.14 0 .38.38 0 0 0-.51 0 9.83 9.83 0 0 1-13.14 0 .38.38 0 0 0-.5 0 9.82 9.82 0 0 1-13.14 0 .38.38 0 0 0-.51 0 9.82 9.82 0 0 1-13.14 0 .38.38 0 0 0-.5 0 9.82 9.82 0 0 1-13.15 0 .38.38 0 0 0-.5 0 9.82 9.82 0 0 1-13.14 0 .38.38 0 0 0-.5 0 9.83 9.83 0 0 1-13.15 0 .38.38 0 0 0-.5 0 9.82 9.82 0 0 1-13.14 0 .38.38 0 0 0-.5 0 9.82 9.82 0 0 1-13.15 0 .38.38 0 0 0-.5 0 9.82 9.82 0 0 1-13.14 0 .38.38 0 0 0-.51 0 9.82 9.82 0 0 1-13.14 0 .38.38 0 0 0-.5 0 9.82 9.82 0 0 1-13.14 0 .38.38 0 0 0-.51 0 9.83 9.83 0 0 1-13.14 0 .38.38 0 0 0-.5 0 9.82 9.82 0 0 1-13.15 0 .38.38 0 0 0-.5 0 9.82 9.82 0 0 1-13.14 0 .38.38 0 0 0-.5 0 9.82 9.82 0 0 1-13.15 0 .38.38 0 0 0-.5 0 9.82 9.82 0 0 1-13.14 0 .38.38 0 0 0-.5 0 9.83 9.83 0 0 1-13.15 0 .38.38 0 0 0-.5 0 9.82 9.82 0 0 1-13.14 0 .38.38 0 0 0-.51 0 9.82 9.82 0 0 1-13.14 0 .38.38 0 0 0-.5 0 9.82 9.82 0 0 1-13.14 0 .38.38 0 0 0-.51 0 9.83 9.83 0 0 1-13.14 0 .38.38 0 0 0-.5 0 9.82 9.82 0 0 1-13.14 0 .38.38 0 0 0-.51 0 9.82 9.82 0 0 1-13.14 0 .38.38 0 0 0-.5 0 9.83 9.83 0 0 1-13.15 0 .38.38 0 0 0-.5 0 9.82 9.82 0 0 1-13.14 0 .38.38 0 0 0-.5 0 9.82 9.82 0 0 1-13.15 0 .38.38 0 0 0-.5 0 9.83 9.83 0 0 1-13.14 0 .38.38 0 0 0-.5 0 9.83 9.83 0 0 1-13.15 0 .38.38 0 0 0-.5 0 9.82 9.82 0 0 1-13.14 0 .38.38 0 0 0-.51 0 9.82 9.82 0 0 1-13.14 0 .38.38 0 0 0-.5 0 9.82 9.82 0 0 1-13.14 0 .38.38 0 0 0-.51 0 9.82 9.82 0 0 1-13.14 0 .38.38 0 0 0-.5 0 9.82 9.82 0 0 1-13.15 0 .38.38 0 0 0-.5 0 9.82 9.82 0 0 1-13.14 0 .38.38 0 0 0-.5 0 9.82 9.82 0 0 1-13.15 0 .38.38 0 0 0-.5 0 9.82 9.82 0 0 1-13.14 0 .38.38 0 0 0-.5 0 9.82 9.82 0 0 1-13.15 0 .38.38 0 0 0-.5 0 9.82 9.82 0 0 1-13.14 0 .38.38 0 0 0-.5 0z" fill="#1c469c"/><path d="M185.11-115.35A613.26 613.26 0 0 0 .51-86.1v229.18a401.12 401.12 0 0 1 184.6-46.3A401.12 401.12 0 0 1 481.96 767.5H768.5V311.67a613.26 613.26 0 0 0-583.4-427.02z" fill="url(#A)"/><path d="M1.38-86.85l-1 .27a.5.5 0 0 0-.38.48v229.18a.5.5 0 0 0 .74.44c4.93-2.6 9.97-4.95 15-7.34a401.12 401.12 0 0 1 13.34-6.04 400.4 400.4 0 0 1 31.08-11.9 401.12 401.12 0 0 1 13.99-4.4 400.45 400.45 0 0 1 32.23-8.09 401.12 401.12 0 0 1 14.4-2.7 400.45 400.45 0 0 1 33.05-4.2 401.12 401.12 0 0 1 14.58-.96c5.56-.27 11.12-.57 16.7-.6 3.57 0 7.12.17 10.69.26a401.12 401.12 0 0 1 35.97 2.57 398.88 398.88 0 0 1 20.76 3 401.12 401.12 0 0 1 35.66 7.75 397.6 397.6 0 0 1 19.61 5.78 401.12 401.12 0 0 1 34.67 12.93 394.33 394.33 0 0 1 18 8.22 401.12 401.12 0 0 1 33.14 18.1 400.3 400.3 0 0 1 15.67 10.04 401.12 401.12 0 0 1 31.27 23.4 401.7 401.7 0 0 1 13.13 11.32 401.12 401.12 0 0 1 28.67 28.67c3.89 4.3 7.64 8.69 11.32 13.13a401.12 401.12 0 0 1 23.41 31.28c3.47 5.14 6.8 10.36 10.02 15.64a401.12 401.12 0 0 1 18.11 33.17 400.69 400.69 0 0 1 8.23 18 401.12 401.12 0 0 1 12.92 34.65 390.8 390.8 0 0 1 5.78 19.63 401.12 401.12 0 0 1 7.75 35.61 403.48 403.48 0 0 1 3 20.84 401.12 401.12 0 0 1 2.57 35.93l.27 10.7c0 3.3-.15 6.59-.24 9.88a401.12 401.12 0 0 1-2.93 39.43 400.31 400.31 0 0 1-2.8 18.9 401.12 401.12 0 0 1-9.09 40.32 400.49 400.49 0 0 1-4.97 16.2 401.12 401.12 0 0 1-15 38.8c-2.3 5.15-4.7 10.26-7.22 15.32a401.12 401.12 0 0 1-20.4 35.92 400.3 400.3 0 0 1-10.64 15.87 401.12 401.12 0 0 1-24.37 31.14l-6.48 7.47a.5.5 0 0 0 .37.84H768.5a.5.5 0 0 0 .5-.5v-1a.5.5 0 0 0-.5-.5H484.06a401.6 401.6 0 0 0 103.67-269.1A401.62 401.62 0 0 0 186.11 95.29a401.6 401.6 0 0 0-184.1 46V-86.38a.5.5 0 0 0-.63-.48zM196.8 96.55c12.07.32 24.06 1.18 35.97 2.57a401.12 401.12 0 0 0-2.38-.17 401.6 401.6 0 0 0-32.67-2.33 401.12 401.12 0 0 0-.92-.07zm56.73 5.57a400.35 400.35 0 0 1 35.66 7.75 401.12 401.12 0 0 0-4.07-.88 401.56 401.56 0 0 0-27.48-5.98 401.12 401.12 0 0 0-4.11-.9zm55.27 13.53a400.6 400.6 0 0 1 34.67 12.93 401.12 401.12 0 0 0-7.4-2.76 401.64 401.64 0 0 0-20.32-7.58 401.12 401.12 0 0 0-6.95-2.6zm52.67 21.15a400.53 400.53 0 0 1 33.14 18.1 401.12 401.12 0 0 0-11.93-6.52l-12.15-6.63a401.12 401.12 0 0 0-9.06-4.95zm48.8 28.14a400.3 400.3 0 0 1 31.28 23.4 401.12 401.12 0 0 0-12.6-9.43 401.32 401.32 0 0 0-8.08-6.05 401.12 401.12 0 0 0-10.6-7.92zm44.41 34.72a400.81 400.81 0 0 1 28.67 28.67 401.12 401.12 0 0 0-11.25-11.26l-3-3.15c-1.04-1.03-2.12-1.99-3.16-3a401.12 401.12 0 0 0-11.26-11.26zm39.99 41.8a400.39 400.39 0 0 1 23.41 31.28 401.12 401.12 0 0 0-7.93-10.6 401.1 401.1 0 0 0-6.02-8.03 401.12 401.12 0 0 0-9.46-12.65zm33.43 46.92a400.53 400.53 0 0 1 18.11 33.17 401.12 401.12 0 0 0-4.93-9.03 401.78 401.78 0 0 0-6.67-12.23 401.12 401.12 0 0 0-6.5-11.9zm26.34 51.16a400.62 400.62 0 0 1 12.92 34.66 401.12 401.12 0 0 0-2.55-6.84 401.71 401.71 0 0 0-7.68-20.6 401.12 401.12 0 0 0-2.7-7.22zm18.7 54.29c3.12 11.72 5.7 23.6 7.75 35.61a401.12 401.12 0 0 0-.87-4 401.52 401.52 0 0 0-6-27.55 401.12 401.12 0 0 0-.88-4.06zm10.75 56.45a400.43 400.43 0 0 1 2.57 35.93 401.12 401.12 0 0 0-.06-.82c-.34-11-1.1-21.94-2.34-32.8a401.12 401.12 0 0 0-.17-2.31zm-24.87 191.24l-.56 1.44a401.12 401.12 0 0 0 .56-1.44zm-20.87 45.37a400.38 400.38 0 0 1-10.23 18.01 401.12 401.12 0 0 0 10.23-18zm-28.08 44.96a400.37 400.37 0 0 1-19.77 25.27 401.12 401.12 0 0 0 19.77-25.27z" fill="#1b3274"/><path d="M185.1-116.85A613.76 613.76 0 0 0 .35-87.58.5.5 0 0 0 0-87.1v1a.5.5 0 0 0 .66.47c4.97-1.59 10-3.03 15-4.5a613.26 613.26 0 0 1 32.3-8.55 612.65 612.65 0 0 1 28.5-5.9 613.26 613.26 0 0 1 30.72-4.87 612.64 612.64 0 0 1 28.91-3.2 613.26 613.26 0 0 1 33.35-1.84l15.66-.36c5.16 0 10.28.2 15.4.33a613.26 613.26 0 0 1 36.46 1.97 599.65 599.65 0 0 1 24.43 2.6 613.26 613.26 0 0 1 38 6.09 610.78 610.78 0 0 1 26.09 5.56 613.26 613.26 0 0 1 36.58 9.89 610.98 610.98 0 0 1 26.24 8.63 613.26 613.26 0 0 1 35.82 13.86 612.45 612.45 0 0 1 22.01 9.9 613.26 613.26 0 0 1 33.6 17.24 613.83 613.83 0 0 1 23.88 13.82 613.26 613.26 0 0 1 30.22 19.77 614.14 614.14 0 0 1 24.26 17.76 613.26 613.26 0 0 1 27.96 22.8 613.71 613.71 0 0 1 20.4 18.6 613.26 613.26 0 0 1 26.66 26.88 612.37 612.37 0 0 1 16.02 17.92 613.26 613.26 0 0 1 24.05 29.97 610.96 610.96 0 0 1 16.14 22.38 613.26 613.26 0 0 1 20.51 31.92c4.56 7.6 8.93 15.33 13.17 23.17a613.26 613.26 0 0 1 17.28 34.33 612.76 612.76 0 0 1 9.88 22.56 613.26 613.26 0 0 1 12.89 34.12l4.98 14.6a.5.5 0 0 0 .97-.15v-1a.5.5 0 0 0-.02-.15C687.95 56.29 451.94-116.46 185.11-116.85z" fill="#1b3067" fill-opacity=".688"/></svg>