<svg width="194" height="16" viewBox="0 0 194 16" fill="none" xmlns="http://www.w3.org/2000/svg">
<g clip-path="url(#clip0_598_1985)">
<path d="M37.8363 11.3906L39.1482 10.1161C40.1103 11.0507 40.9849 11.4331 41.9907 11.4331C43.39 11.4331 44.1772 10.7533 44.1772 9.73371C44.1772 7.01472 38.0549 8.54415 38.0549 4.42317C38.0549 2.21399 39.7604 0.812012 42.3405 0.812012C43.9148 0.812012 45.2267 1.40679 46.0576 2.29896L44.702 3.61597C44.0023 2.93623 43.3026 2.55387 42.3405 2.55387C41.0286 2.55387 40.1977 3.19113 40.1977 4.21075C40.1977 6.80229 46.3637 5.10292 46.3637 9.39384C46.3637 11.688 44.5708 13.1325 41.9032 13.1325C40.1102 13.2174 38.7546 12.4952 37.8363 11.3906Z" fill="white"/>
<path d="M48.3317 8.84152V1.06689H50.4745V8.67158C50.4745 10.4134 51.524 11.2631 53.0984 11.2631C54.6727 11.2631 55.6785 10.4134 55.6785 8.67158V1.06689H57.8213V8.84152C57.8213 11.7304 55.9408 13.1749 53.0984 13.1749C50.2559 13.1749 48.3754 11.7729 48.3317 8.84152Z" fill="white"/>
<path d="M59.7889 11.3906L61.1008 10.1161C62.0629 11.0507 62.9375 11.4331 63.9433 11.4331C65.3427 11.4331 66.1299 10.7533 66.1299 9.73371C66.1299 7.01472 60.0076 8.54415 60.0076 4.42317C60.0076 2.21399 61.7131 0.812012 64.2932 0.812012C65.8675 0.812012 67.1794 1.40679 68.0103 2.29896L66.6546 3.61597C65.9549 2.93623 65.2552 2.55387 64.2932 2.55387C62.9812 2.55387 62.1504 3.19113 62.1504 4.21075C62.1504 6.80229 68.3164 5.10292 68.3164 9.39384C68.3164 11.688 66.5234 13.1325 63.8559 13.1325C62.0629 13.2174 60.751 12.4952 59.7889 11.3906Z" fill="white"/>
<path d="M70.1968 10.9657V3.06366C70.1968 1.91658 71.0714 1.06689 72.2521 1.06689H78.1995V2.97869H72.9518C72.602 2.97869 72.2959 3.23359 72.2959 3.57347V6.08004H77.8059V7.90686H72.2959V10.4559C72.2959 10.7958 72.5582 11.0507 72.9518 11.0507H78.1995V12.9625H72.2521C71.0714 12.9625 70.1968 12.1128 70.1968 10.9657Z" fill="white"/>
<path d="M31.2766 4.80558C31.5827 6.12259 30.3583 7.35463 29.0026 7.01476C28.3029 6.84482 27.7344 6.33501 27.5595 5.61278C27.2534 4.29576 28.4778 3.06372 29.8335 3.40359C30.5769 3.57353 31.1017 4.12583 31.2766 4.80558ZM22.0057 12.0279C22.1806 12.2403 22.3118 12.4527 22.3556 12.6652C22.3993 12.8351 22.4867 13.005 22.6179 13.09C22.6179 13.09 22.6179 13.09 22.6617 13.09C22.9241 13.175 23.6675 13.175 23.6675 13.175H24.9794C25.1106 13.175 26.0727 13.175 26.0727 13.0475C25.9415 12.5377 25.3292 12.4527 24.8482 12.1554C24.4109 11.9004 24.0173 11.6031 23.7987 11.1357C23.7112 10.8808 23.7549 10.286 23.9299 10.0736C24.061 9.90369 24.236 9.81872 24.4109 9.77624C24.6295 9.73375 24.8482 9.77624 25.0669 9.77624C25.3292 9.81872 25.5916 9.86121 25.854 9.86121C26.3788 9.90369 26.8598 9.94617 27.3846 9.94617C28.2155 9.94617 29.0901 9.77624 29.8772 9.52133C30.4457 9.35139 30.9705 9.09649 31.4515 8.75661C31.9763 8.37426 31.8451 8.41674 31.3203 8.45922C30.6644 8.50171 30.0084 8.54419 29.3525 8.50171C28.7402 8.45922 28.128 8.41674 27.5595 8.11935C27.1222 7.90693 26.7286 7.69451 26.3788 7.35463C26.335 7.31215 26.2913 7.14221 26.3788 7.05724C26.4662 6.97227 26.6849 7.01476 26.7286 7.05724C27.3408 7.56705 28.2592 7.94941 29.1775 7.9919C29.7023 8.03438 30.1833 8.03438 30.6644 7.9919C30.9268 7.9919 31.2766 7.9919 31.539 7.9919C31.6702 7.9919 32.02 8.03438 32.1075 7.90693C32.1512 7.86444 32.1075 7.82196 32.1075 7.77947C32.02 5.8252 31.8888 3.57353 29.746 2.63888C28.1717 1.91664 25.8103 0.854538 24.8045 0.387211C24.5858 0.302242 24.2797 0.472179 24.2797 0.684601C24.2797 1.32186 24.3234 2.299 24.3234 3.14869C23.8424 2.68136 23.0115 2.38397 22.3993 2.08658C21.6996 1.78919 20.9999 1.4918 20.2565 1.27938C18.7696 0.854538 17.2391 0.557148 15.7085 0.429695C13.9593 0.259758 12.21 0.344727 10.4608 0.684601C7.61833 1.2369 4.8633 2.59639 2.7205 4.50819C1.40858 5.69775 0.402772 7.39712 0.359041 9.09649C0.27158 11.5181 0.97127 12.8351 2.23946 14.1521C4.2948 16.2763 8.71159 16.5737 10.5045 14.0671C11.2917 12.9201 11.4666 11.3906 10.8981 10.1161C10.3296 8.84158 8.97398 7.94941 7.5746 7.90693C6.48133 7.86444 5.3006 8.41674 4.8633 9.39388C4.55718 10.1586 4.73211 11.0932 5.3006 11.688C5.51926 11.9004 5.82537 12.1129 6.17522 12.0279C6.39387 11.9854 6.52506 11.858 6.56879 11.6455C6.61252 11.3482 6.35014 11.1782 6.17522 10.9658C5.8691 10.541 5.95656 9.94617 6.30641 9.6063C6.61252 9.30891 7.04983 9.22394 7.48714 9.22394C7.88071 9.22394 8.27429 9.30891 8.62413 9.47885C9.10517 9.73375 9.41128 10.2436 9.54248 10.7959C9.89232 12.4103 8.53667 13.6848 6.74371 13.7698C5.82537 13.8122 4.8633 13.5998 4.16361 13.005C2.50184 11.688 2.02081 8.7991 4.11988 7.22718C6.08776 5.74023 8.62413 6.12259 10.0672 6.8873C11.248 7.52457 12.1226 8.50171 12.7785 9.6063C13.1284 10.1586 13.3908 10.7534 13.6532 11.3482C13.9155 11.9004 14.1342 12.4952 14.659 12.9201C15.0088 13.175 15.4024 13.175 15.8397 13.175H18.4198C18.7696 13.175 18.6822 12.9626 18.5073 12.7926C18.1574 12.4527 17.6764 12.3678 17.2391 12.2828C16.2333 12.0279 16.3207 10.7109 16.6268 10.7109C17.5452 10.7109 17.5452 10.7534 18.3761 10.7109C19.5131 10.7109 19.8629 10.6259 20.7812 10.9658C21.2623 11.1357 21.6996 11.6031 22.0057 12.0279Z" fill="#30BA78"/>
<path d="M29.396 3.87109C28.6089 3.87109 27.9966 4.50836 27.9966 5.23059C27.9966 5.95282 28.6526 6.59009 29.396 6.59009C30.1394 6.59009 30.7954 5.95282 30.7954 5.23059C30.7954 4.50836 30.1832 3.87109 29.396 3.87109ZM30.1832 5.99531C29.8771 5.99531 29.6584 5.78289 29.6584 5.4855C29.6584 5.18811 29.8771 4.97568 30.1832 4.97568C30.4893 4.97568 30.7079 5.18811 30.7079 5.4855C30.6642 5.78289 30.4456 5.99531 30.1832 5.99531Z" fill="#30B878"/>
<path d="M190.774 13.3447C188.307 13.3447 186.611 11.6283 186.611 9.14726V8.97732C186.611 6.61519 188.168 4.88184 190.494 4.88184C192.82 4.88184 194.272 6.70016 193.957 9.40216H187.713C187.835 11.1355 189.025 12.3421 190.826 12.3421C191.718 12.3421 192.471 12.1212 192.978 11.6793L193.608 12.3761C192.995 12.9878 191.946 13.3447 190.774 13.3447ZM187.73 8.5015H192.908C192.943 6.83611 191.928 5.83348 190.494 5.83348C188.937 5.83348 187.905 6.88709 187.73 8.5015Z" fill="white"/>
<path d="M171.867 13.1748V5.05177H172.934V6.46225C173.581 5.27269 174.7 4.88184 175.68 4.88184C176.974 4.88184 177.954 5.44263 178.426 6.63219C179.091 5.30668 180.368 4.88184 181.365 4.88184C183.202 4.88184 184.426 6.00342 184.426 8.38254V13.1748H183.341V8.51849C183.341 6.66618 182.449 5.88447 181.12 5.88447C179.756 5.88447 178.706 6.80212 178.706 8.5015V13.1748H177.604V8.51849C177.604 6.66618 176.729 5.88447 175.4 5.88447C174.018 5.88447 172.969 6.80212 172.969 8.5015V13.1748H171.867Z" fill="white"/>
<path d="M167.846 13.1752V6.00384H166.167V5.05219H168.948V13.1752H167.846ZM167.811 3.18288V1.33057H169.001V3.18288H167.811Z" fill="white"/>
<path d="M161.207 13.1751V5.05215H162.292V6.39465C162.694 5.34104 163.604 5.03516 164.636 5.03516H165.37V6.08877H164.548C163.149 6.08877 162.327 6.76852 162.327 8.24697V13.1751H161.207Z" fill="white"/>
<path d="M151.75 13.1749V1.2793H155.388C157.767 1.2793 159.376 2.57082 159.376 4.78C159.376 6.98918 157.767 8.28071 155.388 8.28071H152.904V13.1749H151.75ZM152.904 7.31206H155.441C157.085 7.31206 158.222 6.34342 158.222 4.78C158.222 3.23357 157.085 2.26493 155.441 2.26493H152.904V7.31206Z" fill="white"/>
<path d="M141.46 13.1751V5.05215H142.545V6.39465C142.947 5.34104 143.857 5.03516 144.889 5.03516H145.623V6.08877H144.801C143.402 6.08877 142.58 6.76852 142.58 8.24697V13.1751H141.46Z" fill="white"/>
<path d="M136.247 13.3447C133.781 13.3447 132.084 11.6283 132.084 9.14726V8.97732C132.084 6.61519 133.641 4.88184 135.967 4.88184C138.294 4.88184 139.746 6.70016 139.431 9.40216H133.186C133.308 11.1355 134.498 12.3421 136.3 12.3421C137.192 12.3421 137.944 12.1212 138.451 11.6793L139.081 12.3761C138.469 12.9878 137.419 13.3447 136.247 13.3447ZM133.204 8.5015H138.381C138.416 6.83611 137.402 5.83348 135.967 5.83348C134.41 5.83348 133.378 6.88709 133.204 8.5015Z" fill="white"/>
<path d="M122.755 13.1749V0.769531H123.822V6.49641C124.487 5.27286 125.764 4.88201 126.708 4.88201C128.58 4.88201 129.909 6.03758 129.909 8.43369V13.1749H128.79V8.56964C128.79 6.66635 127.793 5.88464 126.463 5.88464C125.064 5.88464 123.874 6.8023 123.874 8.58664V13.1749H122.755Z" fill="white"/>
<path d="M117.612 13.3447C115.146 13.3447 113.362 11.6453 113.362 9.21523V9.01131C113.362 6.56421 115.163 4.88184 117.612 4.88184C118.819 4.88184 119.834 5.32367 120.516 6.0714L119.834 6.76814C119.257 6.19035 118.539 5.88446 117.612 5.88446C115.793 5.88446 114.464 7.142 114.464 9.01131V9.21523C114.464 11.0845 115.793 12.3421 117.63 12.3421C118.539 12.3421 119.257 12.0532 119.851 11.4754L120.533 12.1551C119.851 12.9199 118.819 13.3447 117.612 13.3447Z" fill="white"/>
<path d="M104.033 13.1748V5.05177H105.1V6.49624C105.765 5.27269 107.042 4.88184 107.986 4.88184C109.858 4.88184 111.187 6.03741 111.187 8.43352V13.1748H110.068V8.56947C110.068 6.66618 109.071 5.88447 107.741 5.88447C106.342 5.88447 105.152 6.80212 105.152 8.58646V13.1748H104.033Z" fill="white"/>
<path d="M100.209 13.1748V12.2741C99.7539 12.9708 98.8793 13.3447 97.6373 13.3447C95.6607 13.3447 94.4362 12.3931 94.4362 10.9656C94.4362 9.58909 95.6432 8.51849 97.7423 8.51849C98.7568 8.51849 99.5265 8.7564 100.051 9.19824V7.90672C100.051 6.51323 99.3166 5.86747 97.9347 5.86747C97.0251 5.86747 95.9756 6.19035 95.2759 6.88709L94.7336 6.13937C95.4683 5.28968 96.7452 4.88184 97.9697 4.88184C99.8763 4.88184 101.153 5.86747 101.153 7.88972V10.4728C101.153 11.3734 101.171 12.2741 101.206 13.1748H100.209ZM95.5558 10.9486C95.5558 11.8832 96.4304 12.512 97.8297 12.512C99.2291 12.512 100.051 11.8832 100.051 10.9486C100.051 10.0139 99.2466 9.40216 97.8297 9.40216C96.4129 9.40216 95.5558 10.0139 95.5558 10.9486Z" fill="white"/>
<path d="M84.8556 13.1749V1.2793H88.564C90.9954 1.2793 92.5872 2.46886 92.5872 4.74601C92.5872 6.81925 91.4152 7.88985 89.5435 8.14476L92.9545 13.1749H91.5901L88.2666 8.21273H86.0101V13.1749H84.8556ZM86.0101 7.2271H88.529C90.2432 7.2271 91.3977 6.49637 91.3977 4.76301C91.3977 3.13161 90.2432 2.26493 88.529 2.26493H86.0101V7.2271Z" fill="white"/>
</g>
<defs>
<clipPath id="clip0_598_1985">
<rect width="194" height="16" fill="white"/>
</clipPath>
</defs>
</svg>
