<?xml version="1.0" encoding="utf-8"?>
<!-- Generator: Adobe Illustrator 25.2.3, SVG Export Plug-In . SVG Version: 6.00 Build 0)  -->
<svg version="1.1" id="Layer_1" xmlns="http://www.w3.org/2000/svg" xmlns:xlink="http://www.w3.org/1999/xlink" x="0px" y="0px"
	 viewBox="0 0 359.1742859 69.2959976" style="enable-background:new 0 0 359.1742859 69.2959976;" xml:space="preserve">
<style type="text/css">
	.st0{fill:#FFFFFF;}
	.st1{fill:#30BA78;}
</style>
<g id="Layer_1_1_">
	<g>
		<path class="st0" d="M259.2593079,29.9640007h-13.5559998c-3.2839966,0-5.9560242-2.6730003-5.9560242-5.9589996V6.3440018
			c0-3.2860031,2.6720276-5.9590015,5.9560242-5.9590015h13.5559998c1.0639954,0,1.927002,0.8649998,1.927002,1.927
			s-0.8630066,1.9259987-1.927002,1.9259987h-13.5559998c-1.1600037,0-2.105011,0.9440002-2.105011,2.1060028v6.7399979v0.2099991
			h0.2099915h13.0830078c1.0069885,0,1.8250122,0.8199997,1.8250122,1.8270035c0,1.007-0.8180237,1.8259964-1.8250122,1.8259964
			h-13.0830078h-0.2099915v0.2090034v6.848999c0,1.1609993,0.9450073,2.1049995,2.105011,2.1049995h13.5559998
			c1.0639954,0,1.927002,0.8639984,1.927002,1.9280014C261.1863098,29.1010017,260.3233032,29.9640007,259.2593079,29.9640007
			 M184.9223022,30.3530006c-3.9100037,0-6.9199982-0.993-8.9500122-2.9510002
			c-2.0289917-1.9560013-3.0579987-4.8959999-3.0579987-8.7410011V2.2340012C172.9142914,1.0020008,173.9152985,0,175.1463013,0
			c1.2319946,0,2.2350006,1.0020008,2.2350006,2.2340012v15.8390007c0,2.8759995,0.618988,5.0329971,1.8409882,6.4069977
			c1.2280121,1.3829994,3.1460114,2.0839996,5.7000122,2.0839996s4.470993-0.7010002,5.6999969-2.0839996
			c1.220993-1.3759995,1.8410034-3.5319977,1.8410034-6.4069977V2.2340012C192.4633026,1.0020008,193.4653015,0,194.6972961,0
			s2.2330017,1.0020008,2.2330017,2.2340012v16.4269981c0,3.8430023-1.0279999,6.7840004-3.0570068,8.7410011
			C191.8412933,29.3600006,188.8292999,30.3530006,184.9223022,30.3530006 M218.4472961,30.3530006
			c-5.0330048,0-8.8659973-1.4309998-11.3930054-4.2530022c-0.7339935-0.8159981-0.6879883-2.0749969,0.105011-2.8669968
			l0.0139923-0.0160027c0.3970032-0.3950005,0.9329987-0.6170006,1.5019989-0.6170006
			c0.6000061,0,1.1650085,0.2560005,1.5500031,0.7040024c0.7050018,0.8139992,1.5130005,1.4770012,2.397995,1.9669991
			c1.5460052,0.8580017,3.4900055,1.2929993,5.7799988,1.2929993c2.1730042,0,3.9080048-0.3829994,5.154007-1.1399994
			c1.2839966-0.7749977,1.9369965-1.894001,1.9369965-3.3250008c0-1.1579971-0.5910034-2.1009979-1.7559967-2.803997
			c-1.1320038-0.6810036-3.0419922-1.2680016-5.8379974-1.7910004c-2.7169952-0.5060005-4.9089966-1.1410027-6.5130005-1.8850021
			c-1.5870056-0.7339973-2.7519989-1.6529999-3.4649963-2.730999c-0.7140045-1.0719986-1.0750122-2.4029999-1.0750122-3.9570007
			c0-1.6399994,0.4600067-3.1539993,1.3680115-4.4990005c0.9079895-1.3479996,2.2419891-2.4349995,3.9649963-3.2299995
			C213.9062958,0.4040012,215.9552917,0,218.2693024,0c2.6989899,0,5.0329895,0.4950008,6.9389954,1.4710007
			c1.2819977,0.6539993,2.4420013,1.5569992,3.4470062,2.6790009c0.7729797,0.8619995,0.6999817,2.1949997-0.1620178,2.9720001
			c-0.3880005,0.3509979-0.8889771,0.5429993-1.4089966,0.5429993c-0.6600037,0-1.2689819-0.2989998-1.67099-0.8209991
			c-0.5720062-0.743-1.2160034-1.3490028-1.9179993-1.7989998c-1.2940063-0.8340034-3.0370026-1.257-5.1820068-1.257
			c-2.1149902,0-3.7870026,0.4319992-4.9660034,1.2839966c-1.1989899,0.868-1.8069916,1.9980011-1.8069916,3.3620033
			c0,1.2769966,0.5970001,2.3029976,1.7720032,3.0509987c1.144989,0.7270012,3.1230011,1.3349991,6.048996,1.8610001
			c2.6580048,0.4790001,4.7940063,1.0890007,6.3529968,1.8170013c1.5379944,0.7169991,2.6740112,1.6209984,3.375,2.685997
			c0.696991,1.0620003,1.0499878,2.401001,1.0499878,3.9799995c0,1.696003-0.4879761,3.2080002-1.4499817,4.4900017
			c-0.9689941,1.2900009-2.3470154,2.2960014-4.0940094,2.9850006C222.8312988,30,220.7632904,30.3530006,218.4472961,30.3530006
			 M151.6183014,30.3610001c-5.0339966,0-8.8680115-1.4309998-11.3970032-4.2519989
			c-0.7310028-0.8170013-0.6849976-2.0760002,0.1069946-2.8670006l0.0149994-0.0149994
			c0.3960114-0.3959999,0.9309998-0.618,1.5019989-0.618c0.6010132,0,1.1660004,0.2560005,1.5500031,0.7039986
			c0.7030029,0.8120003,1.5090027,1.473999,2.3950043,1.9659996c1.5469971,0.8580017,3.4929962,1.2929993,5.7830048,1.2929993
			c2.1719971,0,3.9059906-0.3829994,5.1539917-1.1389999c1.2839966-0.7749977,1.9329987-1.8939972,1.9329987-3.3249969
			c0-1.1590004-0.5889893-2.1030006-1.7519989-2.8030014c-1.1179962-0.6730003-3.0820007-1.276001-5.8399963-1.7919998
			c-2.7160034-0.5079994-4.9060059-1.1419983-6.5130005-1.8849983c-1.5850067-0.7340012-2.7519989-1.6530037-3.4649963-2.7320023
			c-0.7120056-1.0740013-1.072998-2.4039993-1.072998-3.9570007c0-1.6389999,0.4589996-3.1520004,1.3659973-4.4979973
			c0.9089966-1.3500023,2.2440033-2.4360008,3.9649963-3.2300014c1.727005-0.7980003,3.776001-1.203001,6.0879974-1.203001
			c2.6999969,0,5.0359955,0.4950008,6.9420013,1.4700012c1.2819977,0.6560001,2.4400024,1.5579987,3.4470062,2.6809998
			c0.7719879,0.8610001,0.6989899,2.1949997-0.1620026,2.9720001c-0.3880005,0.3499985-0.8899994,0.5429993-1.4109955,0.5429993
			c-0.6590118,0-1.2690125-0.2999992-1.6710052-0.8219986c-0.5709991-0.7450027-1.2169952-1.3500023-1.9179993-1.7999992
			c-1.2949982-0.8330002-3.0380096-1.2550011-5.1809998-1.2550011c-2.1159973,0-3.7870026,0.4319992-4.9660034,1.2840004
			c-1.1990051,0.8699989-1.8059998,2-1.8059998,3.3610001c0,1.2779999,0.5960083,2.3040009,1.7709961,3.0509987
			c1.1439972,0.7260017,3.1230011,1.3370018,6.0500031,1.862999c2.654007,0.4760017,4.7910004,1.0870018,6.3509979,1.8160019
			c1.5400085,0.7169991,2.6760101,1.6209984,3.3760071,2.6849976c0.696991,1.0610008,1.0509949,2.4000015,1.0509949,3.9790001
			c0,1.6980019-0.4879913,3.2080002-1.451004,4.4910011c-0.9700012,1.2919998-2.3470001,2.295002-4.0950012,2.9850006
			C156.001297,30.0089989,153.9333038,30.3610001,151.6183014,30.3610001 M292.9972839,68.8450012h-0.0449829
			c-1.2139893,0-2.2009888-0.987999-2.2009888-2.2020035V56.0660019v-0.211998h-0.210022h-14.7059937h-0.2099915v0.211998
			v10.5769958c0,1.2140045-0.9869995,2.2020035-2.2000122,2.2020035c-1.2139893,0-2.2009888-0.987999-2.2009888-2.2020035
			V41.6989975c0-1.2139969,0.9869995-2.2019958,2.2009888-2.2019958c1.2130127,0,2.2000122,0.987999,2.2000122,2.2019958v10.2180023
			v0.2099991h0.2099915h14.7059937h0.210022v-0.2099991V41.6989975c0-1.2139969,0.9869995-2.2019958,2.2009888-2.2019958h0.0449829
			c1.2150269,0,2.2030029,0.987999,2.2030029,2.2019958v24.9440002
			C295.2002869,67.8570023,294.2123108,68.8450012,292.9972839,68.8450012 M146.8143005,43.1819992
			c-1.1630096,0-2.1080017,0.9449997-2.1080017,2.1080017v7.8450012v0.2099991h0.2099915h6.9460144
			c1.993988,0,3.5099945-0.4189987,4.5089874-1.2450027c1.0080109-0.8349991,1.5190125-2.125,1.5190125-3.836998
			c0-1.715004-0.5110016-3.0049973-1.5200043-3.836998c-0.9929962-0.826004-2.5110016-1.2440033-4.5079956-1.2440033H146.8143005z
			 M142.5942993,68.8460007h-0.1380005c-1.1640015,0-2.1119995-0.9469986-2.1119995-2.1100006V45.5390015
			c0-3.3320007,2.7109985-6.0419998,6.0429993-6.0419998h5.8820038c3.1519928,0,5.67099,0.7799988,7.4879913,2.3170013
			c1.8050079,1.5279999,2.7220001,3.6809998,2.7220001,6.3999939c0,2.0770035-0.5399933,3.8320007-1.6009979,5.2190018
			c-1.0639954,1.3850021-2.6000061,2.3840027-4.5639954,2.9700012l-0.2689972,0.0800018l0.1529999,0.2360001l5.7480011,8.8639984
			c0.4279938,0.6600037,0.4589996,1.4670029,0.0829926,2.1569977c-0.3739929,0.6910019-1.0690002,1.1050034-1.8549957,1.1050034
			c-0.727005,0-1.3939972-0.3659973-1.7839966-0.9800034l-6.8920135-10.8289948l-0.0629883-0.0970001h-0.1150055h-6.404007
			h-0.2099915v0.2099991v9.586998C144.7062988,67.8990021,143.7583008,68.8460007,142.5942993,68.8460007 M182.3322906,44.1750031
			c-0.2839966,0-0.5279999,0.1729965-0.6199951,0.4430008l-4.3710022,12.6429977l-0.0970001,0.2779999h0.2949982h9.6940002
			h0.2980042l-0.0999908-0.2789993l-4.4810028-12.6460037C182.8582916,44.3470001,182.6143036,44.1750031,182.3322906,44.1750031
			 M193.3652954,68.8460007h-0.3450012c-0.8410034,0-1.5979919-0.5319977-1.8820038-1.3249969l-2.2619934-6.3370056
			l-0.0500031-0.1389999h-0.147995h-12.5390015h-0.1470032l-0.0509949,0.1380005l-2.3139954,6.3479996
			c-0.2860107,0.7870026-1.0420074,1.3150024-1.8800049,1.3150024h-0.2190094c-0.6669922,0-1.2669983-0.314003-1.6469879-0.862999
			c-0.3789978-0.5470047-0.4600067-1.2200012-0.2250061-1.8430023l9.0810089-24.0800018
			c0.5769958-1.5339966,2.0679932-2.5629959,3.7109985-2.5629959c1.6399994,0,3.1299896,1.0289993,3.7079926,2.5629959
			l9.0830078,24.0800018c0.2350006,0.625,0.1519928,1.2959976-0.2260132,1.8430023
			C194.6342926,68.5319977,194.0332947,68.8460007,193.3652954,68.8460007 M224.0032959,68.8460007h-0.0460052
			c-1.1989899,0-2.322998-0.6399994-2.9319916-1.6709976l-12.5400085-21.0740051
			c-0.1209869-0.2029953-0.3299866-0.3219986-0.5599976-0.3219986c-0.1790009,0-0.3529968,0.0719986-0.4749908,0.1969986
			c-0.1210022,0.1220016-0.1880035,0.288002-0.1860046,0.4660034l0.1640015,20.4059982
			c0,1.1009979-0.8959961,1.9980011-1.9990082,1.9980011c-1.1029968,0-2.0009918-0.8970032-2.0009918-1.9990005V42.9100037
			c0-1.8820038,1.5310059-3.413002,3.4149933-3.413002c1.197998,0,2.3220062,0.6399994,2.9320068,1.6709976l12.496994,21.0770035
			c0.1220093,0.2070007,0.3249969,0.322998,0.5590057,0.322998c0.3269958,0,0.6640015-0.2460022,0.6640015-0.6600037
			l-0.1090088-20.3839951c-0.0049896-0.5390015,0.2020111-1.0490036,0.5810089-1.4329987
			c0.3820038-0.3830032,0.8889923-0.5940018,1.4299927-0.5940018c1.1120148,0,2.0160065,0.9029999,2.0160065,2.0139999v23.923996
			C227.4132996,67.3160019,225.8843079,68.8460007,224.0032959,68.8460007 M343.5102844,43.1819992
			c-1.1619873,0-2.1080017,0.9449997-2.1080017,2.1080017v7.8450012v0.2099991h0.2090149h6.946991
			c1.9940186,0,3.5110168-0.4189987,4.5100098-1.2450027c1.0079956-0.8349991,1.5190125-2.125,1.5190125-3.836998
			c0-1.715004-0.5110168-3.0049973-1.5190125-3.836998c-0.9960022-0.826004-2.5130005-1.2440033-4.5100098-1.2440033H343.5102844z
			 M339.2893066,68.8460007h-0.1370239c-1.164978,0-2.1129761-0.9469986-2.1129761-2.1100006V45.5390015
			c0-3.3320007,2.7120056-6.0419998,6.0429993-6.0419998h5.8829956c3.151001,0,5.67099,0.7799988,7.4869995,2.3170013
			c1.8070068,1.5279999,2.7219849,3.6809998,2.7219849,6.3999939c0,2.0750046-0.5390015,3.8310013-1.5999756,5.2190018
			c-1.0630188,1.3840027-2.598999,2.3830032-4.5640259,2.9700012l-0.2679749,0.0800018l0.1529846,0.2360001l5.7460022,8.8639984
			c0.4290161,0.6600037,0.4599915,1.4660034,0.0849915,2.1569977c-0.375,0.6910019-1.0679932,1.1050034-1.8569946,1.1050034
			c-0.7269897,0-1.3939819-0.3659973-1.7829895-0.9800034l-6.8930054-10.8289948l-0.0610046-0.0970001h-0.1170044h-6.4039917
			h-0.2090149v0.2099991v9.586998C341.4022827,67.8990021,340.4542847,68.8460007,339.2893066,68.8460007 M325.9032898,68.965004
			H312.34729c-3.2850037,0-5.9589844-2.6740036-5.9589844-5.9600067v-17.659996
			c0-3.2870026,2.6739807-5.9609985,5.9589844-5.9609985h13.5559998c1.0639954,0,1.928009,0.8639984,1.928009,1.9269943
			c0,1.0600052-0.8640137,1.9240036-1.928009,1.9240036H312.34729c-1.1600037,0-2.1040039,0.9449997-2.1040039,2.1080017v6.737999
			v0.2099991h0.210022h13.0809937c1.0069885,0,1.8249817,0.8209991,1.8249817,1.8290024
			c0,1.0059967-0.8179932,1.8239975-1.8249817,1.8239975h-13.0809937h-0.210022v0.211998v6.8470001
			c0,1.1610031,0.9440002,2.1060028,2.1040039,2.1060028h13.5559998c1.0639954,0,1.928009,0.8659973,1.928009,1.9300003
			C327.8312988,68.1009979,326.9672852,68.965004,325.9032898,68.965004 M250.9122925,69.2959976
			c-2.8070068,0-5.276001-0.6139984-7.3370056-1.8219986c-2.0589905-1.2050018-3.6699829-2.9659958-4.789978-5.2360001
			c-1.1220093-2.276001-1.6920166-4.9909973-1.6920166-8.0709991c0-3.0780029,0.5700073-5.7939987,1.6920166-8.0719986
			c1.117981-2.2649994,2.7289734-4.026001,4.789978-5.2350006c2.0610046-1.2080002,4.5150146-1.8209991,7.2940063-1.8209991
			c2.9230042,0,5.4129944,0.6119995,7.401001,1.8190002c1.2250061,0.7439957,2.2529907,1.7190018,3.0580139,2.9049988
			c0.3589783,0.5279999,0.4639893,1.1849976,0.2890015,1.802002c-0.178009,0.6240005-0.6170044,1.1319962-1.2080078,1.3969955
			l-0.0820007,0.0340042c-0.2950134,0.1309967-0.6040039,0.197998-0.9219971,0.197998
			c-0.7690125,0-1.480011-0.3970032-1.855011-1.0370026c-0.5079956-0.862999-1.1210022-1.5559998-1.8209839-2.0629959
			c-1.1719971-0.8499985-2.7160034-1.2809982-4.5890198-1.2809982c-2.8450012,0-5.1529846,1.0199966-6.8589783,3.0270004
			c-1.6950073,1.9989929-2.553009,4.8009949-2.553009,8.3249969c0,3.5510025,0.8190002,6.3590012,2.4349976,8.3430023
			c1.6289978,1.9949951,3.9159851,3.0079956,6.7940063,3.0079956c1.96698,0,3.6399841-0.5,4.9729919-1.4850006
			c0.8559875-0.6279984,1.5700073-1.4599991,2.1220093-2.4700012c0.3849792-0.7109985,1.118988-1.1520004,1.9169922-1.1520004
			c0.2319946,0,0.4609985,0.0370026,0.6820068,0.1110001c0.6359863,0.2130051,1.1340027,0.6980057,1.3649902,1.3280029
			c0.2229919,0.6080017,0.1629944,1.2700043-0.1659851,1.8120041c-0.855011,1.4160004-1.9880066,2.5970001-3.3619995,3.5079956
			C256.3552856,68.5800018,253.807312,69.2959976,250.9122925,69.2959976"/>
		<path class="st1" d="M118.7422943,27.8510017c1.1890106,0,2.2299957-0.4589996,2.9360046-1.2930031
			c0.7019958-0.829998,0.9790039-1.9269981,0.7819977-3.086998l-1.3450012-8.0110016
			c-0.4589996-2.7479973-1.4909973-4.5019989-1.996994-4.5019989c-0.5169983,0-1.2400055,1.7210007-1.2400055,4.5229988v2.0940018
			c0,2.6800003-2.2639923,4.9430008-4.9429932,4.9430008h-2.0960083h-0.220993v5.3330002h0.220993H118.7422943z
			 M94.6532974,68.2919998H79.0562973c-1.4830017,0-2.689003-1.2109985-2.689003-2.6949997V53.8740005
			c0-1.7170029-1.3969955-3.112999-3.1149979-3.112999h-38.932003c-1.7169991,0-3.1150017,1.3959961-3.1150017,3.112999v11.7229996
			c0,1.512001-1.1849976,2.6949997-2.6939964,2.6949997H12.918294c-1.4840012,0-2.6920013-1.2109985-2.6920013-2.6949997V31.9360008
			v-0.4329987l-0.3379974,0.2669983l-7.0480003,5.5379982c-0.0979996,0.0660019-0.2249985,0.1070023-0.3450012,0.1070023
			c-0.1069984,0-0.2579994-0.0329971-0.3849983-0.1839981l-1.9900016-2.3650055
			C-0.0267059,34.6849976-0.0397064,34.4589996,0.0852936,34.25l10.3180008-15.7490005
			C10.8942957,17.473999,11.8102961,16.875,12.8632936,16.875h54.958004c0.7689972,0,1.4980011,0.3390007,2.0049973,0.9290009
			c0.5270004,0.6100006,0.7570038,1.4179993,0.6360016,2.2200012l-1.1289978,6.7169991
			c-0.1399994,0.9220009,0.1269989,1.8509979,0.7289963,2.5540009c0.5890045,0.6829987,1.4370041,1.0749969,2.3320007,1.0749969
			h11.0210037c1.5009995,0,2.7569962-1.0419998,3.0540009-2.5349998l0.0690002-0.3449974l-0.3359985,0.1029968
			c-0.6800003,0.2110023-1.4170074,0.3150024-2.1950073,0.3150024h-7.8519974c-1.211998,0-2.2719955-0.4630013-2.9809952-1.2999992
			c-0.7080002-0.8360023-0.9910049-1.9510002-0.7920074-3.137001l1.3460007-8.0110016
			c0.4400024-2.6520004,1.4050064-4.5,1.9970016-4.5c0.5179977,0,1.2389984,1.7210007,1.2389984,4.5209999v1.2350006v0.3430023
			l0.3059998-0.1550026c0.0610046-0.0329971,0.2130051-0.0329971,0.3360062-0.0329971h26.1849899
			c2.4940033,0,4.5279999,2.0139999,4.6320038,4.5859985V46.072998c0,2.4530029-2.071991,4.5240021-4.5209961,4.5240021H91.1552963
			c-2.4489975,0-4.5169983-2.0709991-4.5169983-4.5240021v-9.6780014v-0.4229965l-0.3379974,0.2570038
			c-1.2509995,0.9549942-1.9670029,2.3869934-1.9670029,3.9309998v8.121994c0,2.6780014,2.2630005,4.9420013,4.9410019,4.9420013
			h8.0719986v12.3730011C97.3462982,67.0810013,96.138298,68.2919998,94.6532974,68.2919998"/>
	</g>
</g>
</svg>
