<?xml version="1.0" encoding="UTF-8"?>
<svg enable-background="new 0 0 184 64" version="1.1" viewBox="0 0 184 64" xml:space="preserve" xmlns="http://www.w3.org/2000/svg">
<style type="text/css">
	.st0{fill:#FFFFFF;}
</style>
<path class="st0" d="m-0.13116 0.21466v63.711h63.708v-63.711h-63.708zm59.534 11.855-8.2362 10.222c-0.43475 0.53906-1.0895 0.85291-1.7818 0.85291h-3.4852v14.648c0 2.0831-1.7046 3.7877-3.7877 3.7877h-10.216c-2.0834 0-3.7877-1.7046-3.7877-3.7877v-7.7409c-0.92023 0.69104-1.5217 1.7892-1.5217 3.0256v6.4846c0 2.083 1.7047 3.7876 3.7877 3.7876h6.6316v10.085c0 1.2775-1.036 2.3134-2.3123 2.3134h-12.486c-1.2775 0-2.3135-1.036-2.3135-2.3134v-9.3695c0-1.2775-1.0347-2.3134-2.3135-2.3134h-5.9243c-2.9271 0-5.2992-2.372-5.2992-5.2992v-22.144h6.9241c1.4283 0 2.5178 1.285 2.281 2.692l-0.89154 5.3665c-0.23651 1.4119 0.85297 2.6932 2.2813 2.6932h8.8329c1.1316 0 2.0731-0.81311 2.2733-1.8864-0.5365 0.17932-1.1491 0.27893-1.7977 0.27893h-6.2979c-2.083 0-3.5088-1.6834-3.1687-3.7378l1.0669-6.4024c0.34363-2.0544 1.1456-3.7378 1.7793-3.7378 0.63745 0 1.1567 1.7046 1.1567 3.7877v0.97748c0.11829-0.01746 0.24036-0.03119 0.36243-0.03119h10.486c0.08221-0.00372 0.16571-0.01123 0.25055-0.01123h10.216c2.083 0 3.7877 1.7046 3.7877 3.7877v5.0602l6.0263-11.634c0.51793-0.99991 1.5504-1.6274 2.6759-1.6274h3.7552c1.128 0 1.7544 1.3073 1.0458 2.1865z"/>
<path class="st0" d="m173.6 47.153c1.5201 0 3.1737 0.8006 3.1737 3.3606 0 2.9322-2.1866 3.5723-3.7067 3.5723h-3.8674v-6.9329h4.4004zm-6.319 16.453h1.9186v-7.9463h2.3208c1.706 0 2.4531 1.8403 3.439 4.3193 0.72107 1.788 1.4944 3.7067 3.8139 3.7067 0.3736 0 0.6662-0.05231 0.6662-0.05231l0.21417-1.707s-0.26648 0.05353-0.50677 0.05353c-1.4927 0-2.0805-1.8677-2.7741-3.5996-0.45325-1.1206-1.0123-2.4006-2.0256-3.1203 2.266-0.13318 4.4797-1.6809 4.4797-4.8796 0-3.1476-2.1602-4.7738-5.2804-4.7738h-6.2654v17.999zm-12.854 0h10.32v-1.6522h-8.3994v-7.0399h6.9328v-1.6274h-6.9328v-6.0537h8.1329v-1.6262h-10.053v17.999zm-8.8252-6.9066h4.0268v1.6274c-0.08099 2.6932-1.7072 3.9993-4.3468 3.9993-2.9608 0-5.3875-1.6261-5.3875-7.8392 0-6.0264 2.2934-7.7334 5.4398-7.7334 2.8002 0 4.1861 1.3596 3.7328 4.4537l2.0008-0.18677c0.39972-3.3867-1.4666-5.7338-5.7336-5.7338-4.5859 0-7.5194 2.6932-7.5194 9.1467 0 6.639 3.0928 9.4927 7.147 9.4927 2.4789 0 3.972-1.0658 4.7726-2.6135v2.2935h1.6795v-8.4257h-5.8121v1.519zm-17.013-5.4922c0.53424-1.4941 1.0933-3.2535 1.0933-3.2535h0.10678s0.56033 1.7593 1.0933 3.2535l2.0795 5.999h-6.4796l2.1066-5.999zm-6.0798 12.399h1.7604l1.6524-4.7463h7.6261l1.6537 4.7463h2.0805l-6.4534-18.133h-1.8937l-6.426 18.133zm-14.453 0h1.6534v-11.946c0-1.4132-0.15936-2.667-0.15936-2.667h0.10709s0.64005 1.2003 1.3598 2.2935l8.1332 12.319h1.4653v-17.999h-1.6521v12.134c0 1.2526 0.21289 2.5064 0.21289 2.5064h-0.10706s-0.69235-1.2799-1.3324-2.2138l-8.2939-12.426h-1.3869v17.999zm-10.585-12.399c0.53296-1.4941 1.092-3.2535 1.092-3.2535h0.10709s0.56006 1.7593 1.093 3.2535l2.0808 5.999h-6.4799l2.1069-5.999zm-6.0798 12.399h1.7592l1.6537-4.7463h7.6261l1.6537 4.7463h2.0792l-6.4535-18.133h-1.8924l-6.426 18.133zm-18.24 0h1.6534v-11.039c0-1.5464-0.21262-3.3332-0.21262-3.3332h0.10583s0.58618 1.8129 1.1465 3.119l5.0392 11.253h0.61389l4.9865-11.253c0.61264-1.3858 1.0934-3.2796 1.0934-3.2796h0.10706s-0.18677 1.8938-0.18677 3.4938v11.039h1.9198v-17.999h-1.8676l-5.3591 12.426c-0.32004 0.69348-0.82654 1.946-0.82654 1.946h-0.10583s-0.53421-1.2787-0.82809-1.9187l-5.3853-12.454h-1.8937v17.999z"/>

	<path class="st0" d="m77.712 3.7807v4.6741h1.6897c1.3521 0 2.9283-0.42212 2.9283-2.4492 0-1.6622-1.0694-2.225-2.3645-2.225h-2.2535zm-4.7016-3.4067h7.8278c3.7157 0 6.222 1.8017 6.222 5.293 0 2.8439-1.9425 4.5621-3.8289 5.1523 0.56296 0.47937 0.98495 1.1268 1.3225 1.8029 0.78922 1.605 1.3235 3.378 2.9858 3.378 0.42203 0 0.75955-0.14069 0.75955-0.14069l-0.36624 3.3506s-1.0136 0.25403-1.8864 0.25403c-2.2523 0-3.5474-0.87286-4.8708-3.886-0.56421-1.351-1.3508-3.7167-2.3932-3.7167h-1.0707v7.518h-4.7016v-19.005z"/>
	<path class="st0" d="m93.422 12.284h4.0829l-1.2951-3.9968c-0.45074-1.3522-0.64868-3.2672-0.64868-3.2672h-0.11221s-0.28113 1.9423-0.70343 3.2385l-1.3235 4.0254zm0-11.91h4.7576l6.4196 19.005h-4.7573l-1.1829-3.6033h-6.3638l-1.1542 3.6033h-4.1116l6.3926-19.005z"/>
	<path class="st0" d="m104.79 0.37402h5.0401l4.9843 9.433c0.42203 0.81555 0.98492 2.2512 1.4356 3.378h0.11313c-0.05704-1.0696-0.19794-2.5898-0.19794-3.6893v-9.1217h3.8575v19.005h-4.9269l-5.181-9.4044c-0.47812-0.84418-0.98492-2.0831-1.3796-3.0966h-0.11346c0.08606 1.0696 0.22537 2.337 0.22537 3.378v9.1229h-3.8572v-19.005z"/>
	<path class="st0" d="m121.04 9.7498c0-6.8705 3.4065-9.7144 8.6722-9.7144 5.5469 0 7.7721 3.0418 7.153 7.1519l-4.394 0.39471c0.47937-3.0131-0.70349-4.2234-2.8426-4.2234-2.0556 0-3.7179 1.5204-3.7179 6.4199 0 5.1809 1.8029 6.5045 3.8585 6.5045 1.9424 0 3.5186-1.2115 3.1814-3.6893l4.11 0.42334c0.31015 3.8561-2.4764 6.7-7.5451 6.7-5.1526 0-8.4756-3.0406-8.4756-9.9672"/>
	<polygon class="st0" points="138.01 0.37402 142.72 0.37402 142.72 7.5533 148.49 7.5533 148.49 0.37402 153.19 0.37402 153.19 19.379 148.49 19.379 148.49 11.326 142.72 11.326 142.72 19.379 138.01 19.379"/>
	<polygon class="st0" points="155.07 0.37402 167.66 0.37402 167.66 3.8654 159.78 3.8654 159.78 7.9481 166.39 7.9481 166.39 11.439 159.78 11.439 159.78 15.888 167.94 15.888 167.94 19.379 155.07 19.379"/>
	<path class="st0" d="m173.54 3.7807v4.6741h1.6897c1.3509 0 2.9287-0.42212 2.9287-2.4492 0-1.6622-1.071-2.225-2.3658-2.225h-2.2526zm-4.7015-3.4067h7.8269c3.7166 0 6.223 1.8017 6.223 5.293 0 2.8439-1.9434 4.5621-3.8298 5.1523 0.56384 0.47937 0.98621 1.1268 1.3234 1.8029 0.78955 1.605 1.3238 3.378 2.9844 3.378 0.42236 0 0.75964-0.14069 0.75964-0.14069l-0.36469 3.3506s-1.0149 0.25403-1.8876 0.25403c-2.2513 0-3.5474-0.87286-4.8708-3.886-0.56287-1.351-1.3511-3.7167-2.3931-3.7167h-1.0698v7.518h-4.7015v-19.005z"/>


	
		<path class="st0" d="m73.152 23.468h7.4531c3.5029 0 6.0312 1.7646 6.0312 5.3203 0 3.8711-2.4492 6.1104-6.0312 6.1104h-3.0547v6.3467h-4.3984v-17.777zm4.3984 3.187v5.0566h2.0537c1.3701 0 2.6074-0.73779 2.6074-2.6602 0-1.8174-1.2373-2.3965-2.6074-2.3965h-2.0537z"/>
	
	
		<path class="st0" d="m88.641 23.468h7.3213c3.4766 0 5.8203 1.6856 5.8203 4.9512 0 2.6602-1.8164 4.2666-3.581 4.8193 0.52637 0.44824 0.92188 1.0537 1.2373 1.6856 0.7373 1.502 1.2383 3.1611 2.792 3.1611 0.39551 0 0.71094-0.13184 0.71094-0.13184l-0.3418 3.1338s-0.94824 0.2373-1.7646 0.2373c-2.1074 0-3.3184-0.81641-4.5566-3.6348-0.52637-1.2637-1.2637-3.4766-2.2383-3.4766h-1.001v7.0322h-4.3984v-17.777zm4.3984 3.187v4.3716h1.5801c1.2646 0 2.7393-0.39502 2.7393-2.291 0-1.5542-1.001-2.0806-2.2129-2.0806h-2.1064z"/>
	
	
		<path class="st0" d="m104 23.468h9.165v3.1079h-2.3965v11.561h2.3965v3.1084h-9.165v-3.1084h2.3701v-11.561h-2.3701v-3.1079z"/>
	
	
		<path class="st0" d="m115.56 23.468h5.4522l2.8965 7.9272c0.44824 1.2642 0.76367 2.5542 0.76367 2.5542h0.10547s0.31641-1.3428 0.76367-2.5542l2.8184-7.9272h5.1885v17.777h-4.1084v-8.981c0-1.0532 0.28906-3.5288 0.28906-3.5288h-0.10547s-0.52637 2.502-0.86914 3.3975l-3.4228 9.1123h-1.9756l-3.4502-9.1123c-0.36914-0.94824-0.81641-3.2398-0.81641-3.2398h-0.10547s0.18457 2.3179 0.18457 3.3711v8.981h-3.6084v-17.777z"/>
	
	
		<path class="st0" d="m136.76 23.468h11.772v3.2656h-7.374v3.8188h6.1894v3.2661h-6.1894v4.1611h7.6377v3.2656h-12.036v-17.777z"/>
	

</svg>
