<?xml version="1.0" encoding="utf-8"?>
<!-- Generator: Adobe Illustrator 28.0.0, SVG Export Plug-In . SVG Version: 6.00 Build 0)  -->
<svg version="1.1" id="Layer_2_00000129197277348757038330000010842559623398722730_"
	 xmlns="http://www.w3.org/2000/svg" xmlns:xlink="http://www.w3.org/1999/xlink" x="0px" y="0px" viewBox="0 0 439.6 36.2"
	 style="enable-background:new 0 0 439.6 36.2;" xml:space="preserve">
<style type="text/css">
	.st0{fill:#FFFFFF;}
</style>
<g id="Layer_1-2">
	<g id="Layer_1-3">
		<path class="st0" d="M67.1,11.3c-0.4-0.5-1.2-0.5-1.6,0c-0.5,0.5-0.4,1.4,0.2,1.8c0.4,0.2,0.9,0.2,1.3,0
			C67.5,12.7,67.6,11.8,67.1,11.3 M65.6,7.4c-3.1-0.7-5.8,2-5.1,5.1c0.4,1.6,1.6,2.8,3.2,3.2c3.1,0.7,5.9-2.1,5.1-5.1
			C68.4,9,67.2,7.8,65.6,7.4 M45.3,24.7c-2-0.7-2.8-0.6-5.3-0.6c-1.8,0-1.8,0-3.9,0c-0.6,0-0.9,3,1.4,3.6c1,0.3,2.1,0.5,2.8,1.2
			c0.3,0.3,0.5,0.9-0.2,0.9h-5.6c-1,0-1.9,0-2.7-0.6c-1.1-1-1.7-2.3-2.2-3.6c-0.6-1.4-1.2-2.7-2-4c-1.5-2.6-3.5-4.9-6.1-6.3
			c-3.3-1.8-8.9-2.6-13.3,0.8c-4.7,3.6-3.7,10.3,0.4,13.6c1.6,1.3,3.7,1.8,5.8,1.7c4-0.2,7-3.2,6.3-6.9c-0.2-1.2-1-2.4-2-3
			c-0.8-0.5-1.7-0.6-2.6-0.6c-0.9,0-2,0.2-2.6,0.9c-0.8,0.8-0.9,2.2-0.3,3.1c0.4,0.5,0.9,0.9,0.8,1.6c-0.1,0.5-0.4,0.8-0.9,0.9
			c-0.8,0.2-1.4-0.3-2-0.8c-1.3-1.4-1.7-3.5-1-5.2c0.9-2.3,3.6-3.5,6-3.5c3.2,0.1,6.2,2.2,7.5,5.1s0.9,6.5-0.9,9.1
			c-4,5.8-13.8,5.1-18.4,0.2C1.4,29.2-0.2,26.2,0,20.6c0.2-3.9,2.4-7.8,5.3-10.6c4.7-4.4,10.9-7.5,17.3-8.8c3.8-0.8,7.8-1,11.7-0.6
			c3.4,0.3,6.9,1,10.2,2c1.6,0.5,3.2,1.1,4.8,1.8c1.4,0.6,3.2,1.3,4.2,2.4c0-2-0.1-4.2-0.1-5.7c0-0.6,0.6-1,1.1-0.7
			c2.2,1,7.5,3.5,11.1,5.2c4.7,2.2,5.1,7.3,5.2,11.8c0,0.1,0,0.2,0,0.3c-0.2,0.3-0.9,0.2-1.2,0.2c-0.6,0-1.4,0-2,0
			c-1.1,0-2.2,0-3.4,0c-2.1-0.1-4.1-1-5.5-2.2c-0.1-0.1-0.6-0.2-0.8,0s-0.1,0.6,0,0.7c0.8,0.8,1.6,1.3,2.6,1.8
			c1.2,0.6,2.6,0.8,4,0.9c1.5,0.1,2.9,0.1,4.4-0.1c1.2-0.1,1.5-0.2,0.3,0.7c-1.1,0.8-2.3,1.4-3.6,1.8c-1.8,0.6-3.7,0.9-5.6,1
			c-1.2,0-2.3,0-3.4-0.2c-0.6-0.1-1.2-0.2-1.8-0.2c-0.5,0-1-0.1-1.5,0c-0.4,0.1-0.8,0.3-1.1,0.7c-0.4,0.5-0.5,1.8-0.3,2.4
			c0.4,1.1,1.3,1.8,2.3,2.4c1,0.6,2.4,0.8,2.7,2c0.1,0.2-2.2,0.3-2.4,0.2h-3c0,0-1.6,0-2.2-0.2c0,0,0,0-0.1,0
			c-0.3-0.2-0.5-0.6-0.6-1c-0.2-0.5-0.5-1-0.8-1.5C47.3,26.2,46.3,25.1,45.3,24.7 M67.8,11.6c0,1.7-1.4,3.2-3.2,3.2
			s-3.2-1.4-3.2-3.1s1.4-3.1,3.2-3.1C66.4,8.4,67.8,9.8,67.8,11.6"/>
	</g>
	<path class="st0" d="M80.4,25.5l3-3c2.2,2.2,4.2,3.1,6.5,3.1c3.2,0,5-1.6,5-4c0-6.4-14-2.8-14-12.5c0-5.2,3.9-8.5,9.8-8.5
		c3.6,0,6.6,1.4,8.5,3.5l-3.1,3.1c-1.6-1.6-3.2-2.5-5.4-2.5c-3,0-4.9,1.5-4.9,3.9c0,6.1,14.1,2.1,14.1,12.2c0,5.4-4.1,8.8-10.2,8.8
		C85.6,29.8,82.6,28.1,80.4,25.5z"/>
	<path class="st0" d="M104.5,19.5V1.2h4.9v17.9c0,4.1,2.4,6.1,6,6.1s5.9-2,5.9-6.1V1.2h4.9v18.3c0,6.8-4.3,10.2-10.8,10.2
		S104.5,26.4,104.5,19.5z"/>
	<path class="st0" d="M130.7,25.5l3-3c2.2,2.2,4.2,3.1,6.5,3.1c3.2,0,5-1.6,5-4c0-6.4-14-2.8-14-12.5c0-5.2,3.9-8.5,9.8-8.5
		c3.6,0,6.6,1.4,8.5,3.5l-3.1,3.1c-1.6-1.6-3.2-2.5-5.4-2.5c-3,0-4.9,1.5-4.9,3.9c0,6.1,14.1,2.1,14.1,12.2c0,5.4-4.1,8.8-10.2,8.8
		C135.9,29.8,132.8,28.1,130.7,25.5L130.7,25.5z"/>
	<path class="st0" d="M154.4,24.5V5.9c0-2.7,2-4.7,4.7-4.7h13.6v4.5h-12c-0.8,0-1.5,0.6-1.5,1.4V13h12.6v4.3h-12.6v6
		c0,0.8,0.6,1.4,1.5,1.4h12v4.5h-13.6C156.4,29.2,154.4,27.2,154.4,24.5z"/>
	<path class="st0" d="M187.5,1.2h9c5.6,0,9.4,2.9,9.4,8.4c0,4.7-2.5,7.3-6.5,8.1l7.4,11.5h-4l-7-11.2h-4.9v11.2h-3.4L187.5,1.2
		L187.5,1.2z M196.4,15c3.6,0,6.1-1.7,6.1-5.4c0-3.5-2.4-5.5-6.1-5.5h-5.4V15C190.9,15,196.4,15,196.4,15z"/>
	<path class="st0" d="M222.9,27.3c-1.1,1.5-3,2.3-5.7,2.3c-4.6,0-7.4-2.3-7.4-5.7s2.8-6,7.8-6c2.1,0,3.7,0.5,4.9,1.3v-2.5
		c0-2.9-1.5-4.3-4.5-4.3c-2,0-4.4,0.8-6,2.3l-1.5-2.2c1.7-2,4.7-3,7.7-3c4.5,0,7.6,2.4,7.6,7.2v6.2c0,2.1,0,4.2,0.1,6.3h-2.9
		C222.9,29.2,222.9,27.3,222.9,27.3z M217.8,27.2c2.9,0,4.7-1.3,4.7-3.3s-1.8-3.3-4.7-3.3s-4.8,1.3-4.8,3.3S215,27.2,217.8,27.2z"/>
	<path class="st0" d="M232,10h3.1v3c1.6-2.6,4.3-3.4,6.4-3.4c4.3,0,7.3,2.8,7.3,8.3v11.3h-3.2V18.4c0-4.1-2.1-5.8-4.9-5.8
		c-3,0-5.4,2-5.4,5.9v10.8H232L232,10L232,10z"/>
	<path class="st0" d="M253.5,19.8v-0.5c0-5.8,4.2-9.8,9.9-9.8c2.8,0,5.2,1.1,6.8,3l-2,2c-1.2-1.3-2.8-2-4.8-2
		c-3.8,0-6.7,2.7-6.7,6.8v0.5c0,4.1,2.8,6.8,6.7,6.8c1.9,0,3.5-0.6,4.8-1.9l2,2c-1.6,1.9-4.1,3-6.8,3
		C257.7,29.6,253.5,25.6,253.5,19.8L253.5,19.8z"/>
	<path class="st0" d="M274.9,0h3.1v13c1.6-2.6,4.3-3.4,6.4-3.4c4.3,0,7.3,2.8,7.3,8.3v11.3h-3.2V18.4c0-4.1-2.1-5.8-4.9-5.8
		c-3,0-5.4,2-5.4,5.9v10.8h-3.2L274.9,0L274.9,0z"/>
	<path class="st0" d="M296.4,19.7v-0.4c0-5.6,3.6-9.7,9-9.7s8.9,4.4,8.2,11h-13.9c0.4,3.6,2.8,6.1,6.6,6.1c2,0,3.6-0.5,4.7-1.5
		l1.8,2c-1.5,1.6-3.9,2.5-6.7,2.5C300.3,29.6,296.4,25.6,296.4,19.7L296.4,19.7z M310.5,17.9c0-3.5-2.1-5.6-5-5.6
		c-3.2,0-5.3,2.2-5.8,5.6H310.5L310.5,17.9z"/>
	<path class="st0" d="M317.8,10h3.2V13c0.9-2.4,3-3.2,5.3-3.2h1.6v3.2H326c-3.1,0-5,1.5-5,4.7v11.4h-3.2L317.8,10L317.8,10z"/>
	<path class="st0" d="M341.5,1.2h8.7c5.6,0,9.4,3.1,9.4,8.4s-3.8,8.4-9.4,8.4h-5.3v11.2h-3.4V1.2z M350.3,15.2
		c3.5,0,5.8-2.2,5.8-5.5s-2.4-5.5-5.8-5.5h-5.4v11H350.3z"/>
	<path class="st0" d="M363.5,10h3.2V13c0.9-2.4,3-3.2,5.3-3.2h1.6v3.2h-1.9c-3.1,0-5,1.5-5,4.7v11.4h-3.2L363.5,10L363.5,10z"/>
	<path class="st0" d="M379,12.8h-3.7V10h6.9v19.2H379V12.8z M378.9,1.1h3.5v4.6h-3.5V1.1z"/>
	<path class="st0" d="M388.6,10h3.1v3c1.5-2.6,4-3.4,6.1-3.4c2.8,0,5,1.2,6.1,3.8c1.6-2.9,4.5-3.8,6.6-3.8c4.2,0,7.1,2.7,7.1,8.2
		v11.4h-3.2v-11c0-4-1.8-5.6-4.6-5.6s-5,2-5,5.6v11h-3.2v-11c0-4-1.8-5.6-4.6-5.6s-5,2-5,5.6v11h-3.2L388.6,10L388.6,10z"/>
	<path class="st0" d="M422.3,19.7v-0.4c0-5.6,3.6-9.7,9-9.7s8.9,4.4,8.2,11h-13.9c0.4,3.6,2.8,6.1,6.6,6.1c2,0,3.6-0.5,4.7-1.5
		l1.8,2c-1.5,1.6-3.9,2.5-6.7,2.5C426.2,29.6,422.3,25.6,422.3,19.7L422.3,19.7z M436.4,17.9c0-3.5-2.1-5.6-5-5.6
		c-3.2,0-5.3,2.2-5.8,5.6H436.4L436.4,17.9z"/>
</g>
</svg>
