<svg xmlns="http://www.w3.org/2000/svg" width="45.001" height="45" viewBox="0 0 45.001 45">
  <path id="path4486" d="M22.5.667A22.5,22.5,0,1,0,45,23.167,22.5,22.5,0,0,0,22.5.667Zm0,42.111c-3.535,0-6.4-2.362-6.4-5.274H28.9C28.9,40.416,26.036,42.778,22.5,42.778Zm10.574-7.021H11.926V31.922H33.075v3.835ZM33,29.948H11.986c-.07-.081-.141-.16-.209-.242a15.328,15.328,0,0,1-3.17-5.4c-.008-.046,2.625.538,4.492.958,0,0,.961.222,2.366.478a8.78,8.78,0,0,1-2.15-5.646c0-4.51,3.459-8.452,2.211-11.637,1.215.1,2.514,2.563,2.6,6.417,1.291-1.784,1.832-5.043,1.832-7.041,0-2.069,1.363-4.472,2.727-4.554C21.471,5.286,23,7,24.362,11.264c.51,1.6.445,4.293.839,6,.131-3.547.741-8.722,2.991-10.509-.993,2.25.147,5.066.926,6.419a12.164,12.164,0,0,1,2.02,6.968,8.7,8.7,0,0,1-2.081,5.618c1.486-.279,2.512-.53,2.512-.53l4.825-.941A13.681,13.681,0,0,1,33,29.948Z" transform="translate(0 -0.667)" fill="#fff"/>
</svg>
