<svg xmlns="http://www.w3.org/2000/svg" xml:space="preserve" style="enable-background:new 0 0 1106.9 166.1" viewBox="0 0 1106.9 166.1"><switch><g><linearGradient id="a" x1="553.414" x2="553.414" y1="97.502" y2="-20.129" gradientUnits="userSpaceOnUse"><stop offset="0" style="stop-color:#81b2c3"/><stop offset=".244" style="stop-color:#6596a9"/><stop offset=".534" style="stop-color:#4b7c91"/><stop offset=".795" style="stop-color:#3c6d82"/><stop offset="1" style="stop-color:#36677d"/></linearGradient><path d="M0 .1h1106.8v166H0z" style="fill:url(#a)"/><linearGradient id="b" x1="553.437" x2="553.437" y1="7.638" y2="114.717" gradientUnits="userSpaceOnUse"><stop offset=".306" style="stop-color:#81b2c3"/><stop offset=".392" style="stop-color:#6d9eb1"/><stop offset=".525" style="stop-color:#55869a"/><stop offset=".666" style="stop-color:#44758a"/><stop offset=".818" style="stop-color:#396a80"/><stop offset="1" style="stop-color:#36677d"/></linearGradient><path d="M94.4 0c3.9 6.9 4.5 14.5 1 22.8 0 0 .1.8.1.9C137 14.4 221.9 22 226.2 62c18.7-10 63.8-4.4 63.8 13.4 28.3-6.5 75.4 7.2 61 24.3 11.9-7.8 79.2-19.4 93.2 4.6 6.2 10.6 54-15.9 71.7 4 .2.4.6.8 1 1.1-.1-.2-.8-.9-.9-1l-.1-.1c-4.6-7.8 24.5-30.9 78.5-18.2 42.8 10.1 11.5 9.9 39.9-8.7 38.2-24.9 124.9-6.1 115.3 14 9.2-8.7 69-21.4 99.6 6.6.6.8 1.4 1.6 2.4 2.4l-2.4-2.4c-7.8-11.3 32.6-24.9 53.3-12.8-5.1-56 116.4-60.2 149.6-19.2.3.9.8 1.8 1.5 2.5 0-.2.1-.4-.1-.6-.5-.6-.9-1.3-1.4-1.9-3.5-9.2 9.2-24.3 47.2-19.9.4 0 .9-.2 1.2-.3-3.4-2.6-.5-6.7 6.4-8.8v81.7H0V0h94.4z" style="fill-rule:evenodd;clip-rule:evenodd;fill:url(#b)"/><path d="M1029.9 111.4v-10.3h1.1v-.8h-9V95h1.1v-.8h-28.3v.8h1.1v5.3h-9v.8h1.1v10.3H567.3v-9.6h-2.6v-.3h-1.1v.3h-.6v-1h-4.8v-.5h-3.4v.5h-.5v1H553v1.7h-3.1v-.2H548v-.1h-.4v.1h-.3v-.1h-.4v.1h-.3v-.1h-.4v.1h-.3v-.1h-.4v.1h-.5v.2h-.9v1.1h-4v1.5h-7.8v-.4H529v.4h-.9v5.4h-24v-4.6h-2.6V105h-.4v-1H500v-.1h-.4v.1h-.8v1.1h-.7v-.3h-2v.3h-.6v1.8h-.3v-.1h-.6v-3.3h.4v-.2h-1.1v-.4h-.8v.4h-.7v-.2h.1v-.1l-1.6-.5h-1.1l-1.6.5v.1h.1v.2h-1.9v-1.8h-1.7v-1.4h-1.9v-.8h-.9v-.7h-.9v.7h-2.8v-.5h-.7v-.6h-1.1v-.6h-3.6v.6h-.6v.6h-.5v.5h-2.8v.8H467v11.4h-10.2v-8.1h-.1v-.5h-.8v.1H454.6v-.6h-2.4v-.3h-1.3v.3h-.4v.6h-.5v-.2h-.7v-.2h.7v-1h-.7v-.2h.7v-1h-.7v-.2h.7v-1h-.7V99h.7v-1h-.7.7v-1h-.7v-.2h.7v-1h-.7v-.2h.7v-1h-.7v-.2h.7v-.5h.3v-.7h-4l-.3-7.4h-.8l.1-1.4h-.7v-.5h-.8l-.1-.8h-.8l.1-1.1h-.4l.2-8-.5 8h-.4l-.1 1.1h-.8l-.2.8h-.8v.5h-.7l-.1 1.4h-.8l-1 7.4h-.2v.7h.1l-.5 4.1h-1v.7h.2v.5h-.4v.1h-.6v-2.9h-1.9V95h-1l-.1-1h-.3v-.2h-.8l.3-7.5H429l.5-10.6h-1.6l.1-3.3c.1-3.2-4.6-5.8-5.8-5.6l-.3 6.6h-.3v-.2h-.6v.2h-.7l-.1 2.3h-1.4l-.5 10.6h-1.6l-.3 7.7h-1.1l-.2 3.7h-1.3l-.4-.1.8-17.2h-2l.1-3.4h-1.1l.1-1.4h-.5v-.2h-2.4v.2h-1.6l-.1 1.4h-1.1l-.1 3.4h-2l-.6 12.9h-3.6l1-22.4h-3.6v-.5h-.7v-.8h-1.6l.2-5.4h-.3l-.2 5.4h-1.3v.8h-1v-.2H389v.2h-.8v.5h-.4v-.1h-1.2v-.1h-.5v.1h-.4v.1h-1.1l-1.4 31.3h-1.9v-1h-.9l.3-6.8h-5.1l.6-13.3h-1.6v-.8h.5v-1.1h-1v-.5h.6l.1-1.3h-.8c-.1-1.6-1.6-2.8-3.6-3.1l.1-1.9h-.5l.1-3.2h-.3l.1-6.8-.5 6.8h-.3l-.1 3.2h-.5l-.1 1.9c-2 .3-3.6 1.6-3.8 3.1h-.8l-.1 1.3h.6v.5h-1v1.1h.5v.8H362l-.9 22.1-2.1-.6.2-4.8h-.7v-.1h-.2v-.2h-.3v.2h-1v.1h-.3l.1-2.5h-.6V95h-.3l.3-23.9h-2.5v-.5h-5.8v.5h-.3V71h-1.4v.1h-.8l-3.2 30.3h-.2v.4H341.2l-.2.6h.4v.1h-.6v.1h-2.4v-1.1l-1.3-1.1h-.7v-.5h-.8v-.3h-.8v.3h-4.6v.5h-.7l-1.3 1.1v1.1h-.8v-.3h-.7v-4.7h-1.4v-.3H322v.3h-.9v-.1h-.8v.1h-.7v-.7h-2.7v.7h-2.2v-4.1h-.5v-1h-13.6v1h-.5v8.5h-.6v.7h-.5v-4.1h-.5v-1h-6.3v1h-.5v6.3h-.7v-1.1h-.8v-.2h-.4v-.1h-.4v.1h-.2v-.1h-.4v.1h-.2v-.1h-.4v.1h-.2v-.1h-.4v.1H286v.2h-2.7v-1.7h-1v-1h-.4v-.5h-3v.5h-4.2v1h-.5v-.3h-1v.3h-2.3v9.6H135.7v15.5l686.1 2.5h285.1v-18h-77zm-579.8-8.1h-.1v-.3h.2v.3zm.4 0h-.2v-.3h.2v.3zm4.2 0h-.2v-.3h.2v.3zm.4 0h-.1v-.3h.2v.3zm.4 0h-.2v-.3h.2v.3zm.4 0h-.1v-.3h.1v.3z" style="fill-rule:evenodd;clip-rule:evenodd;fill:#6ba1b6"/><path d="M952.1 135.2c-43.2 1.4-86.7-.6-129.9-2.7l-8.4-1.1c-2.7-.1-5.5-.2-8.4-.2-5.6.1-11.1-.2-16.7-.6-29.4-1.1-57.7-2.5-63-2.5-17.1.2-34.2.4-51.4.7-8.5.1-17.1.1-25.5.4-3.8.1-7.7 0-11.5.1-66.3-2.3-159.3-2.9-184.1-2.7v7.2c47 .7 174.7-3.2 195.7-2.8l21.5.3c8.5.1 17.1.1 25.6.1 8.1 0 16.3.5 24.4.9 16.9.8 33.8 1.7 50.6 2.8 33.7 2.1 67.3 4.8 100.6 8-19.8 1.4-39.5.2-59.3-1-22.4-1.4-44.9-2.8-67.3-4.2-10.2-.6-20.3-1.3-30.5-1.4-12.7-.2-25.6.8-38 0-12.8-.8-27.4-.1-40 .9-11.8.9-126.6-.1-183.4-.7v5.6c63.3-.3 182.8-2.4 168.9-.8-3.9.5-7.9.8-11.9 1.1-8 .6-16 1.1-24.1 1.4-16.2.6-32.6.7-48.9.6-10.5 0-73.5-.1-84-.2v4.9c69-1.2 197.9-2.3 248.5.1 2.5.1 14.7 1.6 15.4-.3.5-1.3-9.6-1.1-11.4-1.1-15.2-.2-30.4-.1-45.6-.1-6.7 0-13.8-.1-19.4-1.6 14.5 0 29.1.1 43.5-.8 4.6-.3 9.2-.7 13.8-.8h1.3c5.6-.1 11.2 0 16.8.2 33.8.9 67.6 1.8 101.5 2.7-9.7 1.6-20.3 1.9-30.6 2-5.5.1-21.5-1.5-25.1.9-.6.4-.7.7-.4.9h84.7c32.8-.5 65.7-1.1 98.6-1.5 2.5 0 5.7.2 6.2 1.2l22.8.3h51v-17.5c-11.1-.4-47.4 1.1-72.6 1.3z" style="fill-rule:evenodd;clip-rule:evenodd;fill:#b5d5e0"/><path d="M916.5 69.6c.4 1.7.8 3.3 1.2 5 1.1 4.1 2.2 8.1 3.5 12.1 1.6 5.1 3.5 10.1 5.6 15 2.1 4.8 4.4 9.5 7.4 13.7 2.3 3.3 5.2 6.6 8.9 8.3.4.2.8.3 1.2.4.3.1.9-.7.5-.8-3.8-1.2-6.7-4.3-9.1-7.4-3.1-4.1-5.4-8.7-7.5-13.3-2.2-4.9-4.1-9.9-5.7-14.9-1.4-4.1-2.6-8.3-3.8-12.6-.4-1.3-.7-2.7-1-4.1l-.3-1.2c0-.2-.1-.5-.2-.7V69c-.1-.4-.8.3-.7.6z" style="fill:#6ba1b6"/><path d="M753.1 21.4c1.2 2.2 2.4 4.3 3.7 6.4 3.2 5.5 6.6 11 10 16.4 4.7 7.4 9.5 14.8 14.6 21.9C787 74 792.8 81.8 799 89.3c5.9 7.1 12.2 14 19.1 20.2 5.7 5.1 11.9 9.9 19 12.9 2.9 1.2 5.9 2.1 9 2.4 4.2.4 8.6-.5 12.6-1.7 10.6-3 20-9.2 28.2-16.3 7.6-6.6 14.4-14.2 20.5-22.2 3.6-4.7 6.9-9.5 10-14.5.1-.2.3-.5.4-.7.2-.4.5-1.2-.1-1.4-.6-.2-1.3.7-1.5 1.2-2 3.6-4.1 6.5-6.5 9.9-5.3 7.5-11.2 14.6-17.8 21.1-7.7 7.5-16.4 14.3-26.4 18.5-7.4 3.1-15.7 5.1-23.5 2.6-6.9-2.1-13-6.4-18.5-10.9-6.9-5.7-13.1-12.1-18.9-18.9-6.3-7.3-12.2-14.9-17.8-22.7-5.3-7.3-10.3-14.7-15.1-22.2-3.8-5.8-7.4-11.7-10.9-17.7-1.8-3-3.5-6-5.2-9-.1-.1-.2-.3-.2-.4-.8-1.2-2.8 1-2.3 1.9z" style="fill:#81b2c3"/><path d="M604.7 147.8c4.6-1.3 8.9-3.6 13-6 5.5-3.2 10.8-6.9 15.9-10.6 13.1-9.6 25.4-20.1 37.5-30.9 12.9-11.4 25.5-23.2 37.8-35.2 10.1-9.8 20.1-19.7 30-29.7 4.7-4.7 9.5-9.4 13.9-14.3l.2-.2c1.1-1.2-.7-2.9-1.8-1.8-3.7 3.9-7.5 7.7-11.3 11.6-9.3 9.5-18.8 18.9-28.3 28.2-12.2 11.9-24.6 23.6-37.2 34.9-12.2 11-24.7 21.8-37.8 31.8-5.4 4.1-10.8 8.1-16.5 11.7-4.3 2.7-8.8 5.3-13.4 7.1-.9.3-1.8.7-2.8.9-1.5.6-.8 3 .8 2.5z" style="fill:#558ea4"/><path d="m777.7 60.2-5.2 86.1" style="fill-rule:evenodd;clip-rule:evenodd;fill:none;stroke:#558ea4;stroke-miterlimit:10"/><path d="m805.1 95.7-.5 43.5M816.8 107.8l-.4 29M826.6 116.1l-.1 18.9M837.1 122v11M845.3 124.6v6.8M853.7 124.4v5.6M861.7 121.8v7.2M876.4 114.6l-.2 12.2M884.7 108.4l-.5 17.2M892.1 101.7l-.7 23.2M899.7 93.4l-.4 31.2M908.3 82.7l-1.2 41.7" style="fill-rule:evenodd;clip-rule:evenodd;fill:none;stroke:#81b2c3;stroke-miterlimit:10"/><path d="m695.8 77.2-10.7 76.9M745.6 28.5 734.2 150M720.4 53.3l-11.6 101.6M670.7 100.3l-7.2 52.6" style="fill-rule:evenodd;clip-rule:evenodd;fill:none;stroke:#558ea4;stroke-miterlimit:10"/><path d="m912.5 127.3 3.6-59.6 17-1.3 4.5 62.1-5 .1-1.1-38.6c-.6-12.8-6.9-11.5-6.9-11.5s-6.1-.7-6.5 11.4c-.5 14.1-.5 36.7-.5 36.7s-5.1.8-5.1.7z" style="fill-rule:evenodd;clip-rule:evenodd;fill:#94bfce"/><path d="M962.8 123.8c-48.4-1.9-141.5 19.9-176.9 40.6l-41.2-3.7s130.4-40.5 217.7-37.6l.4.7z" style="fill-rule:evenodd;clip-rule:evenodd;fill:#437c94"/><path d="M961.6 123.2c-48.4-1.9-145.6 15.3-176 34.6l-43.1 3.9-54-2.6s167.3-36.2 254.9-38.1l18.2 2.2z" style="fill-rule:evenodd;clip-rule:evenodd;fill:#b5d5e0"/><path d="m826.5 147.5-3.3 1-.2-7.9 3.5-1.2zM814.1 151.8l-3.4 1.3v-8.2l3.4-1.3zM838.8 143.7l-3.4 1v-8l3.4-1.3zM850.7 140.3l-3.5 1 .1-7.9 3.4-1.3zM861.6 137.5l-3.6.9.1-7.7 3.5-1.2zM872.4 135l-2.7.6v-6.2l2.7-1zM881.8 132.9l-2.7.6v-6.1l2.7-1zM891 131l-2.7.6v-6l2.7-1zM899.4 129.6l-2.7.4v-4.1h2.7zM906.6 128.4l-2.6.4v-4.2h2.7zM921.8 126.2l-2.8.4.1-4 2.8.1zM927.6 125.5l-1.9.3v-3h1.9zM933.3 125.1l-1.9.1v-3h1.9zM941.4 124.4h-1.9v-2.7h1.9zM945.6 124l-1.8.1v-2.6h1.8zM949.6 123.8h-1.4l-.1-1.5h1.4z" style="fill-rule:evenodd;clip-rule:evenodd;fill:#b5d5e0"/><path d="M743.9 148.2 754.2 19l45.5-2.6 3 .9-1.2 139.1-6 3.4-.6-101.7c.5-22.7-17.2-20.7-17.2-20.7s-19.2-1-21.2 20.3c-2.3 24-8.7 90.1-8.7 90.1l-3.9.4z" style="fill-rule:evenodd;clip-rule:evenodd;fill:#3b7087"/><path d="M738.9 148.8 751.8 19l48-2.8-4.3 141.4-7.4-.9 4.2-98.7c.7-22.7-18.2-21.1-18.2-21.1s-18.1-.6-20.2 20.7c-2.4 24-9.6 90.5-9.6 90.5s-5.2.8-5.4.7z" style="fill-rule:evenodd;clip-rule:evenodd;fill:#81b2c3"/><path d="M1053.5 126.7s-4.8-10.4-14.2-11.9c0 0 12.4-2.4 18.9 10.8 0 0-1.1-13.9-15.3-23.4 0 0 14.5.7 22 22.2 0 0-1.1-20.3-11.4-27.1 0 0 14.7 4.9 17.7 26.7 0 0-1.9-10.6 7.9-18.5 0 0-5.2 8.9-2.5 18.1 0 0 1.8-9.2 10.7-14.9 0 0-5.4 4.4-5.3 14.8 0 0 3.1-8 11.4-8 0 0-4-1.4-6.8 9.6 0 0 1.2.9 3.5.4 1.4-.3 1.8.8-.5 1.5l-9.2.6c-5.8-.3-6.6 0-7.5.5l-29.7 2c-.3-.6 1.9-1.6 10.3-3.4z" style="fill-rule:evenodd;clip-rule:evenodd;fill:#94bfce"/><path d="M1054.8 127.1s-4.3-9.3-12.7-10.6c0 0 11.1-2.2 16.8 9.7 0 0-1-12.4-13.7-20.9 0 0 12.9.6 19.6 19.8 0 0-.9-18.1-10.2-24.2 0 0 13.1 4.4 15.8 23.8 0 0-1.7-9.5 7.1-16.5 0 0-4.7 8-2.3 16.2 0 0 1.6-8.2 9.6-13.3 0 0-4.9 3.9-4.8 13.2 0 0 2.7-7.1 10.2-7.1 0 0-3.5-1.2-6 8.5 0 0 1.1.8 3.2.4 1.2-.2 1.6.7-.4 1.3l-8.2.5c-5.2-.3-5.9 0-6.7.4l-26.4 1.7c-.3-.4 1.6-1.3 9.1-2.9z" style="fill-rule:evenodd;clip-rule:evenodd;fill:#558ea4"/><path d="M1106.9 166.1v-42.5c-194.2 0-287.9 52-529.9 30.7v11.8h529.9zM932.6 115.6l-.1 13.1 5-.1-.8-13z" style="fill-rule:evenodd;clip-rule:evenodd;fill:#94bfce"/><path d="m913.6 127.3-2.8.4v-4.2h2.7z" style="fill-rule:evenodd;clip-rule:evenodd;fill:#b5d5e0"/><path d="M931.3 66.3c1.5 6.1 3.4 12.2 5.5 18.1 3.6 10.4 7.7 21.1 14.2 30 2.8 3.9 6.5 7.9 11.2 9.4.4.1 1.3.3 1.3-.3s-1-1.2-1.4-1.3c-1.5-.5-2.8-1.3-4.1-2.4-1.6-1.4-3-3.1-4.3-4.8-3.1-4.2-5.6-9-7.8-13.8-4.2-9.1-7.4-18.6-10.2-28.2-.6-2.1-1.2-4.1-1.7-6.2-.3-.8-3.1-1.8-2.7-.5z" style="fill:#437c94"/><path d="m800.2 18.7 3 6.6c2.7 5.7 5.4 11.3 8.3 16.9 3.9 7.6 8 15.1 12.4 22.5 4.8 8.1 9.8 16 15.4 23.7 5.2 7.1 10.7 14 17 20.1 5.1 4.9 10.9 9.6 17.6 12.2 2.8 1.1 5.8 1.8 8.9 1.8 4.5 0 9.1-1.1 13.3-2.7 8.7-3.3 15.9-9.5 21.5-16.9 4.9-6.5 8.7-13.9 11.5-21.6 1.7-4.4 3.1-9 4-13.6 0-.2.1-.5.1-.7.2-1.3-2.4-.2-2.6.7-.6 3.2-1.5 6.4-2.5 9.5-2.2 7-5.2 13.9-9 20.2-4.5 7.4-10.4 14.1-18.1 18.4-6.6 3.7-14.9 5.9-22.3 3.8-6.5-1.8-12.3-5.9-17.2-10.3-6.4-5.6-11.9-12.2-17-18.9-5.6-7.4-10.7-15.1-15.5-23-4.5-7.4-8.7-14.9-12.8-22.6-3.1-6-6.2-12-9.1-18.1-1.5-3.1-2.8-6.2-4.3-9.3-.1-.1-.1-.3-.2-.4-.2-.7-2.8.7-2.4 1.7z" style="fill:#437c94"/><path d="M654.1 154c4.6-1.3 9-3.7 13-6.2 5.6-3.4 10.8-7.3 16-11.3 13.1-10.1 25.3-21.3 37.3-32.6 12.9-12.2 25.4-24.7 37.8-37.5 10.1-10.4 20-20.9 29.8-31.5 4.7-5 9.4-10 13.9-15.2l.2-.2c1.3-1.4-.8-3.6-2.1-2.2-3.7 4.1-7.5 8.2-11.2 12.3-9.3 10.1-18.7 20.1-28.2 30-12.1 12.6-24.4 25-37 37.1-12.2 11.7-24.6 23.1-37.7 33.8-5.3 4.3-10.7 8.4-16.4 12.2-2.4 1.6-4.8 3.1-7.3 4.5-1.1.6-2.2 1.2-3.3 1.7-.5.2-1 .5-1.5.7-.5.2-1 .4-1.2.5-.9.4-1.8.7-2.8.9-1.9.6-1.2 3.5.7 3z" style="fill:#437c94"/><path d="m823 61.6-.1 86.9M811.6 41l-1 111.9M834.5 79.9l.6 64.8M846.9 96.6l-.1 44.7" style="fill-rule:evenodd;clip-rule:evenodd;fill:none;stroke:#3b7087;stroke-miterlimit:10"/><path d="m868.4 119-.2 8.8" style="fill-rule:evenodd;clip-rule:evenodd;fill:none;stroke:#81b2c3;stroke-miterlimit:10"/><path d="m857.5 108.4.2 30M869.5 117.9l-.1 17.7M879.1 121.2l-.2 12.3M887.8 121.4l.1 10.2M896.3 118.7l-.1 11.4M903.3 115.2l.1 13.5M911 109.9l-.6 17.8M918.2 100.9l.4 25.7M924.2 90.8l1.2 34.9M929 77.6l2 47.6M939.3 86.8l.1 37.6M944.2 99.8l-.1 24.4M947.4 107.2l.3 16.8M951.7 114.2l.1 9.2M955.4 118.7v4.7M786.4 36.4l-5.6 118.9M771.8 52.1l-7.1 104.3M758.3 65.9l-8.5 91.7M724.6 100l-7 58M697.9 124.3l-4.2 32.1" style="fill-rule:evenodd;clip-rule:evenodd;fill:none;stroke:#3b7087;stroke-miterlimit:10"/><path d="M813.7 166.1c-265.6-18.5-461.5-69.3-765-63.8l.5 63.8h764.5z" style="fill-rule:evenodd;clip-rule:evenodd;fill:#81b2c3"/><path d="M426.7 166.1C326.4 136.2 199 85.2 0 88.1v78h426.7z" style="fill-rule:evenodd;clip-rule:evenodd;fill:#437c94"/><path d="M69.1 89.8C34.4 101.1 14 124.2 0 155.3v10.9h44.3c16.4-46.9 43.4-71.3 84.5-72.7l-59.7-3.7zM171.2 99.4c-38.6 12.3-59.6 35.8-71.1 66.8h43.7c16-40.2 44.1-49.5 87.9-55.7l-60.5-11.1zM271.6 119.7c-41.1 9.8-60.9 24.4-71.8 46.4h27.8c10.1-31.8 32.1-22.4 81.8-36.2l-37.8-10.2zM335.2 137.8c-27.5 3.3-45.5 3.8-57.1 28.4h20.6c10.6-28.8 30.2-26.8 58-22.1l-21.5-6.3zM368.7 147.8c-13.1 2.1-23 3.6-29.8 18.3h12.9c3.4-18.8 7.4-1.9 27.4-15l-10.5-3.3z" style="fill:#6ba1b6"/><path d="m750.4 17 1.6-1.7.4 2.4 1.5 1.7v.1l-2.2.5-1.6 1.7-.4-2.4-1.5-1.7v-.1l2.2-.5z" style="fill-rule:evenodd;clip-rule:evenodd;fill:#ffcd05"/><ellipse cx="751.3" cy="18.5" rx="1.6" ry="1.2" style="fill-rule:evenodd;clip-rule:evenodd;fill:#fcf9ce" transform="rotate(-74.365 751.324 18.483)"/><path d="m799.7 14.8 1.6-1.7.4 2.4 1.5 1.7v.1l-2.2.5-1.6 1.7-.4-2.4-1.5-1.7v-.1l2.2-.5z" style="fill-rule:evenodd;clip-rule:evenodd;fill:#ffcd05"/><ellipse cx="800.7" cy="16.3" rx="1.6" ry="1.2" style="fill-rule:evenodd;clip-rule:evenodd;fill:#fcf9ce" transform="rotate(-74.365 800.635 16.295)"/><path d="m915.9 66.3 1.6-1.7.5 2.4 1.5 1.7v.1l-2.2.5-1.6 1.7-.4-2.4-1.5-1.7v-.1l2.1-.5z" style="fill-rule:evenodd;clip-rule:evenodd;fill:#ffcd05"/><ellipse cx="916.8" cy="67.8" rx="1.6" ry="1.2" style="fill-rule:evenodd;clip-rule:evenodd;fill:#fcf9ce" transform="rotate(-74.365 916.808 67.835)"/><path d="m932.2 65.7 1.6-1.7.4 2.4 1.5 1.7v.1l-2.2.5-1.6 1.7-.4-2.4-1.5-1.7v-.1l2.2-.5z" style="fill-rule:evenodd;clip-rule:evenodd;fill:#ffcd05"/><ellipse cx="933.2" cy="67.2" rx="1.6" ry="1.2" style="fill-rule:evenodd;clip-rule:evenodd;fill:#fcf9ce" transform="rotate(-74.365 933.144 67.247)"/><ellipse cx="363.7" cy="84.1" rx=".9" ry="1.1" style="fill-rule:evenodd;clip-rule:evenodd;fill:#fcf9ce"/><ellipse cx="366.4" cy="84.1" rx=".9" ry="1.1" style="fill-rule:evenodd;clip-rule:evenodd;fill:#fcf9ce"/><ellipse cx="370.6" cy="83.9" rx=".9" ry="1.1" style="fill-rule:evenodd;clip-rule:evenodd;fill:#fcf9ce"/><ellipse cx="372" cy="88.1" rx=".9" ry="1.1" style="fill-rule:evenodd;clip-rule:evenodd;fill:#fcf9ce"/><ellipse cx="372" cy="90.8" rx=".9" ry="1.1" style="fill-rule:evenodd;clip-rule:evenodd;fill:#fcf9ce"/><ellipse cx="363.8" cy="98" rx=".9" ry="1.1" style="fill-rule:evenodd;clip-rule:evenodd;fill:#fcf9ce"/><ellipse cx="366.2" cy="98" rx=".9" ry="1.1" style="fill-rule:evenodd;clip-rule:evenodd;fill:#fcf9ce"/><ellipse cx="370.5" cy="97.9" rx=".9" ry="1.1" style="fill-rule:evenodd;clip-rule:evenodd;fill:#fcf9ce"/><ellipse cx="372.8" cy="97.8" rx=".9" ry="1.1" style="fill-rule:evenodd;clip-rule:evenodd;fill:#fcf9ce"/><ellipse cx="379.3" cy="97.5" rx=".9" ry="1.1" style="fill-rule:evenodd;clip-rule:evenodd;fill:#fcf9ce"/><ellipse cx="379" cy="103.5" rx=".9" ry="1.1" style="fill-rule:evenodd;clip-rule:evenodd;fill:#fcf9ce"/><ellipse cx="379.2" cy="100.5" rx=".9" ry="1.1" style="fill-rule:evenodd;clip-rule:evenodd;fill:#fcf9ce"/><ellipse cx="390.1" cy="75.7" rx=".9" ry="1.1" style="fill-rule:evenodd;clip-rule:evenodd;fill:#fcf9ce"/><ellipse cx="392.2" cy="75.7" rx=".9" ry="1.1" style="fill-rule:evenodd;clip-rule:evenodd;fill:#fcf9ce"/><ellipse cx="392.1" cy="78.5" rx=".9" ry="1.1" style="fill-rule:evenodd;clip-rule:evenodd;fill:#fcf9ce"/><ellipse cx="394.3" cy="78.5" rx=".9" ry="1.1" style="fill-rule:evenodd;clip-rule:evenodd;fill:#fcf9ce"/><ellipse cx="397.9" cy="78.4" rx=".9" ry="1.1" style="fill-rule:evenodd;clip-rule:evenodd;fill:#fcf9ce"/><ellipse cx="386.3" cy="83.7" rx=".9" ry="1.1" style="fill-rule:evenodd;clip-rule:evenodd;fill:#fcf9ce"/><ellipse cx="388.8" cy="83.6" rx=".9" ry="1.1" style="fill-rule:evenodd;clip-rule:evenodd;fill:#fcf9ce"/><ellipse cx="388.8" cy="86.3" rx=".9" ry="1.1" style="fill-rule:evenodd;clip-rule:evenodd;fill:#fcf9ce"/><ellipse cx="404.6" cy="96.6" rx=".9" ry="1.1" style="fill-rule:evenodd;clip-rule:evenodd;fill:#fcf9ce"/><ellipse cx="405.7" cy="85.4" rx=".9" ry="1.1" style="fill-rule:evenodd;clip-rule:evenodd;fill:#fcf9ce"/><ellipse cx="408.3" cy="85.5" rx=".9" ry="1.1" style="fill-rule:evenodd;clip-rule:evenodd;fill:#fcf9ce"/><ellipse cx="411" cy="85.7" rx=".9" ry="1.1" style="fill-rule:evenodd;clip-rule:evenodd;fill:#fcf9ce"/><ellipse cx="410.2" cy="79.7" rx=".9" ry="1.1" style="fill-rule:evenodd;clip-rule:evenodd;fill:#fcf9ce"/><ellipse cx="407.7" cy="79.7" rx=".9" ry="1.1" style="fill-rule:evenodd;clip-rule:evenodd;fill:#fcf9ce"/><ellipse cx="420.7" cy="78.6" rx=".9" ry="1.1" style="fill-rule:evenodd;clip-rule:evenodd;fill:#fcf9ce"/><ellipse cx="424.5" cy="71.4" rx=".9" ry="1.1" style="fill-rule:evenodd;clip-rule:evenodd;fill:#fcf9ce"/><ellipse cx="427" cy="82.1" rx=".9" ry="1.1" style="fill-rule:evenodd;clip-rule:evenodd;fill:#fcf9ce"/><ellipse cx="425.1" cy="83.7" rx=".9" ry="1.1" style="fill-rule:evenodd;clip-rule:evenodd;fill:#fcf9ce"/><ellipse cx="427.8" cy="88.6" rx=".9" ry="1.1" style="fill-rule:evenodd;clip-rule:evenodd;fill:#fcf9ce"/><ellipse cx="419.2" cy="89" rx=".9" ry="1.1" style="fill-rule:evenodd;clip-rule:evenodd;fill:#fcf9ce"/><ellipse cx="419.2" cy="91.8" rx=".9" ry="1.1" style="fill-rule:evenodd;clip-rule:evenodd;fill:#fcf9ce"/><ellipse cx="422.9" cy="94.9" rx=".9" ry="1.1" style="fill-rule:evenodd;clip-rule:evenodd;fill:#fcf9ce"/><ellipse cx="425.2" cy="95" rx=".9" ry="1.1" style="fill-rule:evenodd;clip-rule:evenodd;fill:#fcf9ce"/><ellipse cx="423.8" cy="102.7" rx=".9" ry="1.1" style="fill-rule:evenodd;clip-rule:evenodd;fill:#fcf9ce"/><ellipse cx="426.1" cy="102.7" rx=".9" ry="1.1" style="fill-rule:evenodd;clip-rule:evenodd;fill:#fcf9ce"/><ellipse cx="417.9" cy="104.1" rx=".9" ry="1.1" style="fill-rule:evenodd;clip-rule:evenodd;fill:#fcf9ce"/><ellipse cx="417.7" cy="106.7" rx=".9" ry="1.1" style="fill-rule:evenodd;clip-rule:evenodd;fill:#fcf9ce"/><ellipse cx="427.1" cy="117.3" rx=".9" ry="1.1" style="fill-rule:evenodd;clip-rule:evenodd;fill:#fcf9ce"/><ellipse cx="429.8" cy="117.5" rx=".9" ry="1.1" style="fill-rule:evenodd;clip-rule:evenodd;fill:#fcf9ce"/><ellipse cx="431" cy="120.3" rx=".9" ry="1.1" style="fill-rule:evenodd;clip-rule:evenodd;fill:#fcf9ce"/><ellipse cx="429.3" cy="122.2" rx=".9" ry="1.1" style="fill-rule:evenodd;clip-rule:evenodd;fill:#fcf9ce"/><ellipse cx="422.7" cy="117.8" rx=".9" ry="1.1" style="fill-rule:evenodd;clip-rule:evenodd;fill:#fcf9ce"/><ellipse cx="420.4" cy="117.6" rx=".9" ry="1.1" style="fill-rule:evenodd;clip-rule:evenodd;fill:#fcf9ce"/><ellipse cx="530.4" cy="109" rx=".9" ry="1.1" style="fill-rule:evenodd;clip-rule:evenodd;fill:#fcf9ce"/><ellipse cx="533" cy="109.2" rx=".9" ry="1.1" style="fill-rule:evenodd;clip-rule:evenodd;fill:#fcf9ce"/><ellipse cx="534.2" cy="112" rx=".9" ry="1.1" style="fill-rule:evenodd;clip-rule:evenodd;fill:#fcf9ce"/><ellipse cx="532.6" cy="114" rx=".9" ry="1.1" style="fill-rule:evenodd;clip-rule:evenodd;fill:#fcf9ce"/><ellipse cx="559.2" cy="107.4" rx=".9" ry="1.1" style="fill-rule:evenodd;clip-rule:evenodd;fill:#fcf9ce"/><ellipse cx="558.8" cy="112.1" rx=".9" ry="1.1" style="fill-rule:evenodd;clip-rule:evenodd;fill:#fcf9ce"/><ellipse cx="553.6" cy="111.5" rx=".9" ry="1.1" style="fill-rule:evenodd;clip-rule:evenodd;fill:#fcf9ce"/><ellipse cx="553.2" cy="116.2" rx=".9" ry="1.1" style="fill-rule:evenodd;clip-rule:evenodd;fill:#fcf9ce"/><ellipse cx="526" cy="114.5" rx=".9" ry="1.1" style="fill-rule:evenodd;clip-rule:evenodd;fill:#fcf9ce"/><ellipse cx="523.6" cy="114.4" rx=".9" ry="1.1" style="fill-rule:evenodd;clip-rule:evenodd;fill:#fcf9ce"/><ellipse cx="441.4" cy="98.5" rx=".9" ry="1.1" style="fill-rule:evenodd;clip-rule:evenodd;fill:#fcf9ce"/><ellipse cx="445.1" cy="98.6" rx=".9" ry="1.1" style="fill-rule:evenodd;clip-rule:evenodd;fill:#fcf9ce"/><ellipse cx="446.2" cy="105.4" rx=".9" ry="1.1" style="fill-rule:evenodd;clip-rule:evenodd;fill:#fcf9ce"/><ellipse cx="441.2" cy="110.4" rx=".9" ry="1.1" style="fill-rule:evenodd;clip-rule:evenodd;fill:#fcf9ce"/><ellipse cx="471.8" cy="102.6" rx=".9" ry="1.1" style="fill-rule:evenodd;clip-rule:evenodd;fill:#fcf9ce"/><ellipse cx="471.8" cy="105.4" rx=".9" ry="1.1" style="fill-rule:evenodd;clip-rule:evenodd;fill:#fcf9ce"/><ellipse cx="475.5" cy="108.6" rx=".9" ry="1.1" style="fill-rule:evenodd;clip-rule:evenodd;fill:#fcf9ce"/><ellipse cx="477.9" cy="108.6" rx=".9" ry="1.1" style="fill-rule:evenodd;clip-rule:evenodd;fill:#fcf9ce"/><ellipse cx="476.5" cy="116.4" rx=".9" ry="1.1" style="fill-rule:evenodd;clip-rule:evenodd;fill:#fcf9ce"/><ellipse cx="478.8" cy="116.4" rx=".9" ry="1.1" style="fill-rule:evenodd;clip-rule:evenodd;fill:#fcf9ce"/><ellipse cx="494.1" cy="112.1" rx=".9" ry="1.1" style="fill-rule:evenodd;clip-rule:evenodd;fill:#fcf9ce"/><ellipse cx="497.8" cy="112.2" rx=".9" ry="1.1" style="fill-rule:evenodd;clip-rule:evenodd;fill:#fcf9ce"/><ellipse cx="493.9" cy="124" rx=".9" ry="1.1" style="fill-rule:evenodd;clip-rule:evenodd;fill:#fcf9ce"/><ellipse cx="451.7" cy="124.1" rx=".9" ry="1.1" style="fill-rule:evenodd;clip-rule:evenodd;fill:#fcf9ce"/><ellipse cx="453.7" cy="122.3" rx=".9" ry="1.1" style="fill-rule:evenodd;clip-rule:evenodd;fill:#fcf9ce"/><ellipse cx="460.5" cy="116.6" rx=".9" ry="1.1" style="fill-rule:evenodd;clip-rule:evenodd;fill:#fcf9ce"/><ellipse cx="460.2" cy="119.7" rx=".9" ry="1.1" style="fill-rule:evenodd;clip-rule:evenodd;fill:#fcf9ce"/><ellipse cx="409" cy="96.5" rx=".9" ry="1.1" style="fill-rule:evenodd;clip-rule:evenodd;fill:#fcf9ce"/><ellipse cx="411.6" cy="96.6" rx=".9" ry="1.1" style="fill-rule:evenodd;clip-rule:evenodd;fill:#fcf9ce"/><ellipse cx="403.3" cy="103.6" rx=".9" ry="1.1" style="fill-rule:evenodd;clip-rule:evenodd;fill:#fcf9ce"/><ellipse cx="405.8" cy="105.4" rx=".9" ry="1.1" style="fill-rule:evenodd;clip-rule:evenodd;fill:#fcf9ce"/><ellipse cx="399.5" cy="109.9" rx=".9" ry="1.1" style="fill-rule:evenodd;clip-rule:evenodd;fill:#fcf9ce"/><ellipse cx="401" cy="113.8" rx=".9" ry="1.1" style="fill-rule:evenodd;clip-rule:evenodd;fill:#fcf9ce"/><ellipse cx="399.2" cy="115.7" rx=".9" ry="1.1" style="fill-rule:evenodd;clip-rule:evenodd;fill:#fcf9ce"/><ellipse cx="393.2" cy="117.5" rx=".9" ry="1.1" style="fill-rule:evenodd;clip-rule:evenodd;fill:#fcf9ce"/><ellipse cx="390.8" cy="117.5" rx=".9" ry="1.1" style="fill-rule:evenodd;clip-rule:evenodd;fill:#fcf9ce"/><ellipse cx="387.3" cy="117.5" rx=".9" ry="1.1" style="fill-rule:evenodd;clip-rule:evenodd;fill:#fcf9ce"/><ellipse cx="308.7" cy="96.2" rx=".9" ry="1.1" style="fill-rule:evenodd;clip-rule:evenodd;fill:#fcf9ce"/><ellipse cx="306.4" cy="96.1" rx=".9" ry="1.1" style="fill-rule:evenodd;clip-rule:evenodd;fill:#fcf9ce"/><ellipse cx="302.8" cy="96.1" rx=".9" ry="1.1" style="fill-rule:evenodd;clip-rule:evenodd;fill:#fcf9ce"/><ellipse cx="308.7" cy="98.8" rx=".9" ry="1.1" style="fill-rule:evenodd;clip-rule:evenodd;fill:#fcf9ce"/><ellipse cx="306.4" cy="98.7" rx=".9" ry="1.1" style="fill-rule:evenodd;clip-rule:evenodd;fill:#fcf9ce"/><ellipse cx="302.8" cy="98.7" rx=".9" ry="1.1" style="fill-rule:evenodd;clip-rule:evenodd;fill:#fcf9ce"/><ellipse cx="308.6" cy="102.2" rx=".9" ry="1.1" style="fill-rule:evenodd;clip-rule:evenodd;fill:#fcf9ce"/><ellipse cx="302.7" cy="102.1" rx=".9" ry="1.1" style="fill-rule:evenodd;clip-rule:evenodd;fill:#fcf9ce"/><ellipse cx="1006.9" cy="98.6" rx=".9" ry="1.1" style="fill-rule:evenodd;clip-rule:evenodd;fill:#fcf9ce"/><ellipse cx="1004.5" cy="98.6" rx=".9" ry="1.1" style="fill-rule:evenodd;clip-rule:evenodd;fill:#fcf9ce"/><ellipse cx="1001" cy="98.6" rx=".9" ry="1.1" style="fill-rule:evenodd;clip-rule:evenodd;fill:#fcf9ce"/><ellipse cx="1006.9" cy="101.2" rx=".9" ry="1.1" style="fill-rule:evenodd;clip-rule:evenodd;fill:#fcf9ce"/><ellipse cx="1004.5" cy="101.1" rx=".9" ry="1.1" style="fill-rule:evenodd;clip-rule:evenodd;fill:#fcf9ce"/><ellipse cx="1001" cy="101.1" rx=".9" ry="1.1" style="fill-rule:evenodd;clip-rule:evenodd;fill:#fcf9ce"/><ellipse cx="1006.8" cy="104.6" rx=".9" ry="1.1" style="fill-rule:evenodd;clip-rule:evenodd;fill:#fcf9ce"/><ellipse cx="1000.9" cy="104.6" rx=".9" ry="1.1" style="fill-rule:evenodd;clip-rule:evenodd;fill:#fcf9ce"/><ellipse cx="370.8" cy="108.1" rx=".9" ry="1.1" style="fill-rule:evenodd;clip-rule:evenodd;fill:#fcf9ce"/><ellipse cx="373.1" cy="110.3" rx=".9" ry="1.1" style="fill-rule:evenodd;clip-rule:evenodd;fill:#fcf9ce"/><ellipse cx="370.7" cy="112.2" rx=".9" ry="1.1" style="fill-rule:evenodd;clip-rule:evenodd;fill:#fcf9ce"/><ellipse cx="359.1" cy="109" rx=".9" ry="1.1" style="fill-rule:evenodd;clip-rule:evenodd;fill:#fcf9ce"/><ellipse cx="361.4" cy="110.6" rx=".9" ry="1.1" style="fill-rule:evenodd;clip-rule:evenodd;fill:#fcf9ce"/><ellipse cx="362.1" cy="113.4" rx=".9" ry="1.1" style="fill-rule:evenodd;clip-rule:evenodd;fill:#fcf9ce"/><ellipse cx="272.7" cy="105.1" rx=".9" ry="1.1" style="fill-rule:evenodd;clip-rule:evenodd;fill:#fcf9ce"/><ellipse cx="276.5" cy="103.9" rx=".9" ry="1.1" style="fill-rule:evenodd;clip-rule:evenodd;fill:#fcf9ce"/><ellipse cx="277.2" cy="106.8" rx=".9" ry="1.1" style="fill-rule:evenodd;clip-rule:evenodd;fill:#fcf9ce"/><ellipse cx="356.3" cy="101.2" rx=".9" ry="1.1" style="fill-rule:evenodd;clip-rule:evenodd;fill:#fcf9ce"/><ellipse cx="353.7" cy="101.2" rx=".9" ry="1.1" style="fill-rule:evenodd;clip-rule:evenodd;fill:#fcf9ce"/><ellipse cx="348.5" cy="101.1" rx=".9" ry="1.1" style="fill-rule:evenodd;clip-rule:evenodd;fill:#fcf9ce"/><ellipse cx="347.7" cy="87.4" rx=".9" ry="1.1" style="fill-rule:evenodd;clip-rule:evenodd;fill:#fcf9ce"/><ellipse cx="350.5" cy="87.4" rx=".9" ry="1.1" style="fill-rule:evenodd;clip-rule:evenodd;fill:#fcf9ce"/><ellipse cx="349.1" cy="84.6" rx=".9" ry="1.1" style="fill-rule:evenodd;clip-rule:evenodd;fill:#fcf9ce"/><ellipse cx="329.5" cy="106.4" rx=".9" ry="1.1" style="fill-rule:evenodd;clip-rule:evenodd;fill:#fcf9ce"/><ellipse cx="332.3" cy="106.5" rx=".9" ry="1.1" style="fill-rule:evenodd;clip-rule:evenodd;fill:#fcf9ce"/><ellipse cx="330.8" cy="103.6" rx=".9" ry="1.1" style="fill-rule:evenodd;clip-rule:evenodd;fill:#fcf9ce"/><ellipse cx="348" cy="73.7" rx=".9" ry="1.1" style="fill-rule:evenodd;clip-rule:evenodd;fill:#fcf9ce"/><ellipse cx="351.7" cy="73.6" rx=".9" ry="1.1" style="fill-rule:evenodd;clip-rule:evenodd;fill:#fcf9ce"/><ellipse cx="354" cy="73.7" rx=".9" ry="1.1" style="fill-rule:evenodd;clip-rule:evenodd;fill:#fcf9ce"/><ellipse cx="343.5" cy="103.6" rx=".9" ry="1.1" style="fill-rule:evenodd;clip-rule:evenodd;fill:#fcf9ce"/><ellipse cx="326.8" cy="105.4" rx=".9" ry="1.1" style="fill-rule:evenodd;clip-rule:evenodd;fill:#fcf9ce"/><ellipse cx="324.3" cy="105.5" rx=".9" ry="1.1" style="fill-rule:evenodd;clip-rule:evenodd;fill:#fcf9ce"/><ellipse cx="319" cy="105.4" rx=".9" ry="1.1" style="fill-rule:evenodd;clip-rule:evenodd;fill:#fcf9ce"/><ellipse cx="314" cy="107.8" rx=".9" ry="1.1" style="fill-rule:evenodd;clip-rule:evenodd;fill:#fcf9ce"/><ellipse cx="293.4" cy="104" rx=".9" ry="1.1" style="fill-rule:evenodd;clip-rule:evenodd;fill:#fcf9ce"/><ellipse cx="293.4" cy="101.1" rx=".9" ry="1.1" style="fill-rule:evenodd;clip-rule:evenodd;fill:#fcf9ce"/><ellipse cx="285.6" cy="105.2" rx=".9" ry="1.1" style="fill-rule:evenodd;clip-rule:evenodd;fill:#fcf9ce"/><ellipse cx="280.6" cy="106.4" rx=".9" ry="1.1" style="fill-rule:evenodd;clip-rule:evenodd;fill:#fcf9ce"/></g></switch></svg>