<svg xmlns="http://www.w3.org/2000/svg" xml:space="preserve" style="enable-background:new 0 0 133 150" viewBox="0 0 133 150"><switch><g><linearGradient id="a" x1="66.494" x2="66.494" y1="87.986" y2="-18.318" gradientUnits="userSpaceOnUse"><stop offset="0" style="stop-color:#81b2c3"/><stop offset=".244" style="stop-color:#6596a9"/><stop offset=".534" style="stop-color:#4b7c91"/><stop offset=".795" style="stop-color:#3c6d82"/><stop offset="1" style="stop-color:#36677d"/></linearGradient><path d="M0 0h133v150H0z" style="fill:url(#a)"/><linearGradient id="b" x1="65.903" x2="66.902" y1="56.843" y2="109.21" gradientUnits="userSpaceOnUse"><stop offset=".306" style="stop-color:#81b2c3"/><stop offset=".34" style="stop-color:#7aacbe"/><stop offset=".485" style="stop-color:#6297ab"/><stop offset=".638" style="stop-color:#51889e"/><stop offset=".803" style="stop-color:#467f97"/><stop offset="1" style="stop-color:#437c94"/></linearGradient><path d="M133 61.4c-24.8 2.5-46.6 8.8-48.6 20.2C69.3 76.5 33 79.3 33 88.5c-9.9-1.5-22.7-1-33 .8v23.6h133V61.4z" style="fill-rule:evenodd;clip-rule:evenodd;fill:url(#b)"/><linearGradient id="c" x1="66.433" x2="66.433" y1="50.592" y2="4.421" gradientUnits="userSpaceOnUse"><stop offset="0" style="stop-color:#81b2c3"/><stop offset=".558" style="stop-color:#55869a"/><stop offset="1" style="stop-color:#36677d"/></linearGradient><path d="M0 43c24.8-2.5 55.2-9.7 57.1-21.1C72.2 27 100 33.6 100 24.4c9.9 1.5 22.7 1 33-.8V0H0v43z" style="fill-rule:evenodd;clip-rule:evenodd;fill:url(#c)"/><path d="M67.2 108V105.1H66.3v-.1h-.8v-.1h-.4v.1H65v.2h-.1.1-.1v-.1h-.2v-.1h.2v-.3h-.2v-.1h.2v-.3h-.2v-.1h.2v-.2h-.2v-.1h.2v-.3h-.2v-.1h.2v-.3h-.2v-.1h.2v-.3h-.2v-.1h.2v-.3h-.2v-.1h.2v-.2h.1v-.1h-1.4l-.1-2.5h-.3V99H63v-.2h-.3v-.3h-.3v-.4h-.1l.1-2.7-.2 2.7h-.1v.4h-.3l-.1.3h-.3v.2h-.2v.5H61l-.3 2.5h-.1v.2l-.2 1.4H60.1v.2h.1v.2H59.9v-1h-.7v-.5h-.3v-.4h-.1v-.1h-.3l.1-2.5h-.7L58 96h-.6l.1-1.1c0-1.1-1.5-2-2-1.9l-.1 2.2h-.1v-.1h-.2v.1h-.2v.8h-.5l-.2 3.6h-.5l-.1 2.6h-.4l-.1 1.2h-.5l.3-5.8h-.7l.1-1.1h-.4V96h-.2v-.1h-.8v.1h-.6v.5h-.4l-.1 1.1h-.7l-.2 4.4h-1.2l.3-7.6h-1.2v-.2h-.2v-.3h-.5l.1-1.8h-.1l-.1 1.8h-.4v.3h-.3v-.1h-.9v.1h-.3v.2h-1.2l-.5 10.6h-.6v-.3h-.3l.1-2.3h-1.7l.2-4.5h-.6v-.3h.2v-.4h-.4V97h.2v-.4h-.3c0-.5-.5-1-1.2-1.1v-.6h-.2v-1.1h-.1v-2.3l-.2 2.3h-.1v1.1h-.2v.6c-.7.1-1.2.5-1.3 1.1h-.3v.4h.4v.2h-.4v.4h.2v.3h-.6l-.3 7.5-.7-.2.1-1.6h-.4v-.1h-.1v.1h-.4v-.8h-.2v-.1h-.1l.1-8.1h-.8v-.2h-1.9v.2h-.8l-1.1 10.2h-.1v.1h-.2l-.1.2h.1-1v-.4l-.5-.4h-.2v-.2h-.3v-.1H26v.1h-1.5v.2h-.2l-.5.4v.4h-.3v-.1h-.2v-1.6h-.5v-.1h-1.1v.1h-.8v-.2H20v.2h-.7V102h-.2v-.4h-4.6v.4h-.2v2.9h-.2v.2H14v-1.4h-.2v-.4h-2.1v.4h-.2v2.1h-.2v-.4H11v-.1H9.6v.1h-.9v-.6h-.4v-.3h-.1v-.2h-1v.2H5.8v.3h-.2v-.1h-.4v.1h-.7v3.2H.1v5.2l132.9.8v-6H67.2zm-2.2-2.7zm.1 0zm1.4 0zm.2 0zm.1 0zm.1 0z" style="fill-rule:evenodd;clip-rule:evenodd;fill:#6ba1b6"/><circle cx="36.2" cy="99" r=".3" style="fill-rule:evenodd;clip-rule:evenodd;fill:#fcf9ce"/><circle cx="37" cy="99" r=".3" style="fill-rule:evenodd;clip-rule:evenodd;fill:#fcf9ce"/><circle cx="38.4" cy="98.9" r=".3" style="fill-rule:evenodd;clip-rule:evenodd;fill:#fcf9ce"/><circle cx="38.8" cy="100.2" r=".3" style="fill-rule:evenodd;clip-rule:evenodd;fill:#fcf9ce"/><circle cx="38.8" cy="101.1" r=".3" style="fill-rule:evenodd;clip-rule:evenodd;fill:#fcf9ce"/><circle cx="36.2" cy="103.3" r=".3" style="fill-rule:evenodd;clip-rule:evenodd;fill:#fcf9ce"/><circle cx="37" cy="103.3" r=".3" style="fill-rule:evenodd;clip-rule:evenodd;fill:#fcf9ce"/><circle cx="38.3" cy="103.3" r=".3" style="fill-rule:evenodd;clip-rule:evenodd;fill:#fcf9ce"/><circle cx="39.4" cy="107.6" r=".3" style="fill-rule:evenodd;clip-rule:evenodd;fill:#fcf9ce"/><circle cx="41.4" cy="107.5" r=".3" style="fill-rule:evenodd;clip-rule:evenodd;fill:#fcf9ce"/><circle cx="41.3" cy="109.4" r=".3" style="fill-rule:evenodd;clip-rule:evenodd;fill:#fcf9ce"/><circle cx="41.4" cy="108.4" r=".3" style="fill-rule:evenodd;clip-rule:evenodd;fill:#fcf9ce"/><circle cx="44.4" cy="95.6" r=".3" style="fill-rule:evenodd;clip-rule:evenodd;fill:#fcf9ce"/><circle cx="45.1" cy="95.6" r=".3" style="fill-rule:evenodd;clip-rule:evenodd;fill:#fcf9ce"/><circle cx="45.1" cy="96.5" r=".3" style="fill-rule:evenodd;clip-rule:evenodd;fill:#fcf9ce"/><circle cx="45.8" cy="96.5" r=".3" style="fill-rule:evenodd;clip-rule:evenodd;fill:#fcf9ce"/><circle cx="46.9" cy="96.4" r=".3" style="fill-rule:evenodd;clip-rule:evenodd;fill:#fcf9ce"/><circle cx="43.3" cy="98.1" r=".3" style="fill-rule:evenodd;clip-rule:evenodd;fill:#fcf9ce"/><circle cx="44.1" cy="98.1" r=".3" style="fill-rule:evenodd;clip-rule:evenodd;fill:#fcf9ce"/><circle cx="44.1" cy="98.9" r=".3" style="fill-rule:evenodd;clip-rule:evenodd;fill:#fcf9ce"/><circle cx="49.7" cy="103.5" r=".3" style="fill-rule:evenodd;clip-rule:evenodd;fill:#fcf9ce"/><circle cx="50.1" cy="100" r=".3" style="fill-rule:evenodd;clip-rule:evenodd;fill:#fcf9ce"/><circle cx="50.9" cy="100.1" r=".3" style="fill-rule:evenodd;clip-rule:evenodd;fill:#fcf9ce"/><circle cx="51.7" cy="100.1" r=".3" style="fill-rule:evenodd;clip-rule:evenodd;fill:#fcf9ce"/><circle cx="51.5" cy="98.2" r=".3" style="fill-rule:evenodd;clip-rule:evenodd;fill:#fcf9ce"/><circle cx="50.7" cy="98.2" r=".3" style="fill-rule:evenodd;clip-rule:evenodd;fill:#fcf9ce"/><circle cx="55.8" cy="99.9" r=".3" style="fill-rule:evenodd;clip-rule:evenodd;fill:#fcf9ce"/><circle cx="57" cy="97.7" r=".3" style="fill-rule:evenodd;clip-rule:evenodd;fill:#fcf9ce"/><circle cx="57.8" cy="101" r=".3" style="fill-rule:evenodd;clip-rule:evenodd;fill:#fcf9ce"/><circle cx="57.2" cy="101.5" r=".3" style="fill-rule:evenodd;clip-rule:evenodd;fill:#fcf9ce"/><circle cx="58" cy="103" r=".3" style="fill-rule:evenodd;clip-rule:evenodd;fill:#fcf9ce"/><circle cx="55.3" cy="103.2" r=".3" style="fill-rule:evenodd;clip-rule:evenodd;fill:#fcf9ce"/><circle cx="55.3" cy="104" r=".3" style="fill-rule:evenodd;clip-rule:evenodd;fill:#fcf9ce"/><circle cx="56.5" cy="105" r=".3" style="fill-rule:evenodd;clip-rule:evenodd;fill:#fcf9ce"/><circle cx="57.2" cy="105" r=".3" style="fill-rule:evenodd;clip-rule:evenodd;fill:#fcf9ce"/><circle cx="56.7" cy="107.5" r=".3" style="fill-rule:evenodd;clip-rule:evenodd;fill:#fcf9ce"/><circle cx="57.5" cy="107.5" r=".3" style="fill-rule:evenodd;clip-rule:evenodd;fill:#fcf9ce"/><circle cx="54.9" cy="107.9" r=".3" style="fill-rule:evenodd;clip-rule:evenodd;fill:#fcf9ce"/><circle cx="54.8" cy="108.7" r=".3" style="fill-rule:evenodd;clip-rule:evenodd;fill:#fcf9ce"/><circle cx="36.9" cy="110.1" r=".3" style="fill-rule:evenodd;clip-rule:evenodd;fill:#fcf9ce"/><circle cx="58.5" cy="109.1" r=".3" style="fill-rule:evenodd;clip-rule:evenodd;fill:#fcf9ce"/><circle cx="58.9" cy="109.9" r=".3" style="fill-rule:evenodd;clip-rule:evenodd;fill:#fcf9ce"/><circle cx="58.4" cy="110.5" r=".3" style="fill-rule:evenodd;clip-rule:evenodd;fill:#fcf9ce"/><circle cx="35.5" cy="110.2" r=".3" style="fill-rule:evenodd;clip-rule:evenodd;fill:#fcf9ce"/><circle cx="34.8" cy="110.2" r=".3" style="fill-rule:evenodd;clip-rule:evenodd;fill:#fcf9ce"/><circle cx="62.2" cy="103.1" r=".3" style="fill-rule:evenodd;clip-rule:evenodd;fill:#fcf9ce"/><circle cx="63.3" cy="103.1" r=".3" style="fill-rule:evenodd;clip-rule:evenodd;fill:#fcf9ce"/><circle cx="63.7" cy="105.3" r=".3" style="fill-rule:evenodd;clip-rule:evenodd;fill:#fcf9ce"/><circle cx="62.1" cy="106.8" r=".3" style="fill-rule:evenodd;clip-rule:evenodd;fill:#fcf9ce"/><circle cx="58" cy="104.4" r=".3" style="fill-rule:evenodd;clip-rule:evenodd;fill:#fcf9ce"/><circle cx="58" cy="105.3" r=".3" style="fill-rule:evenodd;clip-rule:evenodd;fill:#fcf9ce"/><circle cx="59.2" cy="106.3" r=".3" style="fill-rule:evenodd;clip-rule:evenodd;fill:#fcf9ce"/><circle cx="59.9" cy="106.3" r=".3" style="fill-rule:evenodd;clip-rule:evenodd;fill:#fcf9ce"/><circle cx="59.5" cy="108.7" r=".3" style="fill-rule:evenodd;clip-rule:evenodd;fill:#fcf9ce"/><circle cx="60.2" cy="108.7" r=".3" style="fill-rule:evenodd;clip-rule:evenodd;fill:#fcf9ce"/><circle cx="65" cy="107.4" r=".3" style="fill-rule:evenodd;clip-rule:evenodd;fill:#fcf9ce"/><circle cx="66.1" cy="107.4" r=".3" style="fill-rule:evenodd;clip-rule:evenodd;fill:#fcf9ce"/><circle cx="64.9" cy="111.1" r=".3" style="fill-rule:evenodd;clip-rule:evenodd;fill:#fcf9ce"/><circle cx="51.7" cy="111.1" r=".3" style="fill-rule:evenodd;clip-rule:evenodd;fill:#fcf9ce"/><circle cx="52.3" cy="110.6" r=".3" style="fill-rule:evenodd;clip-rule:evenodd;fill:#fcf9ce"/><ellipse cx="58.5" cy="39.8" rx=".7" ry=".5" style="fill-rule:evenodd;clip-rule:evenodd;fill:#fcf9ce" transform="rotate(-72.86 58.456 39.828)"/><ellipse cx="65.5" cy="52.6" rx=".7" ry=".5" style="fill-rule:evenodd;clip-rule:evenodd;fill:#fcf9ce" transform="rotate(-72.86 65.469 52.623)"/><ellipse cx="86.7" cy="39.4" rx=".7" ry=".5" style="fill-rule:evenodd;clip-rule:evenodd;fill:#fcf9ce" transform="rotate(-72.86 86.72 39.404)"/><ellipse cx="44.6" cy="49" rx=".7" ry=".5" style="fill-rule:evenodd;clip-rule:evenodd;fill:#fcf9ce" transform="rotate(-72.86 44.558 49.011)"/><ellipse cx="112.4" cy="51.2" rx=".7" ry=".5" style="fill-rule:evenodd;clip-rule:evenodd;fill:#fcf9ce" transform="rotate(-72.86 112.406 51.191)"/><ellipse cx="123.4" cy="53.4" rx=".7" ry=".5" style="fill-rule:evenodd;clip-rule:evenodd;fill:#fcf9ce" transform="rotate(-72.86 123.355 53.385)"/><ellipse cx="38.4" cy="50.7" rx=".7" ry=".5" style="fill-rule:evenodd;clip-rule:evenodd;fill:#fcf9ce" transform="rotate(-72.86 38.353 50.748)"/><ellipse cx="32.8" cy="74.9" rx=".7" ry=".5" style="fill-rule:evenodd;clip-rule:evenodd;fill:#fcf9ce" transform="rotate(-72.86 32.843 74.872)"/><circle cx="54.5" cy="108.8" r=".3" style="fill-rule:evenodd;clip-rule:evenodd;fill:#fcf9ce"/><circle cx="54.3" cy="109.7" r=".3" style="fill-rule:evenodd;clip-rule:evenodd;fill:#fcf9ce"/><circle cx="51.1" cy="103.5" r=".3" style="fill-rule:evenodd;clip-rule:evenodd;fill:#fcf9ce"/><circle cx="51.9" cy="103.5" r=".3" style="fill-rule:evenodd;clip-rule:evenodd;fill:#fcf9ce"/><circle cx="48.5" cy="107.5" r=".3" style="fill-rule:evenodd;clip-rule:evenodd;fill:#fcf9ce"/><circle cx="49.3" cy="108.1" r=".3" style="fill-rule:evenodd;clip-rule:evenodd;fill:#fcf9ce"/><circle cx="47.3" cy="109.5" r=".3" style="fill-rule:evenodd;clip-rule:evenodd;fill:#fcf9ce"/><circle cx="47.8" cy="110.7" r=".3" style="fill-rule:evenodd;clip-rule:evenodd;fill:#fcf9ce"/><circle cx="47.2" cy="111.3" r=".3" style="fill-rule:evenodd;clip-rule:evenodd;fill:#fcf9ce"/><circle cx="45.3" cy="111.9" r=".3" style="fill-rule:evenodd;clip-rule:evenodd;fill:#fcf9ce"/><circle cx="44.6" cy="111.8" r=".3" style="fill-rule:evenodd;clip-rule:evenodd;fill:#fcf9ce"/><circle cx="43.5" cy="111.8" r=".3" style="fill-rule:evenodd;clip-rule:evenodd;fill:#fcf9ce"/><circle cx="17.5" cy="102.8" r=".3" style="fill-rule:evenodd;clip-rule:evenodd;fill:#fcf9ce"/><circle cx="16.8" cy="102.8" r=".3" style="fill-rule:evenodd;clip-rule:evenodd;fill:#fcf9ce"/><circle cx="15.7" cy="102.8" r=".3" style="fill-rule:evenodd;clip-rule:evenodd;fill:#fcf9ce"/><circle cx="17.5" cy="103.6" r=".3" style="fill-rule:evenodd;clip-rule:evenodd;fill:#fcf9ce"/><circle cx="16.8" cy="103.6" r=".3" style="fill-rule:evenodd;clip-rule:evenodd;fill:#fcf9ce"/><circle cx="15.7" cy="103.6" r=".3" style="fill-rule:evenodd;clip-rule:evenodd;fill:#fcf9ce"/><circle cx="17.5" cy="104.7" r=".3" style="fill-rule:evenodd;clip-rule:evenodd;fill:#fcf9ce"/><circle cx="15.6" cy="104.7" r=".3" style="fill-rule:evenodd;clip-rule:evenodd;fill:#fcf9ce"/><circle cx="33" cy="108" r=".3" style="fill-rule:evenodd;clip-rule:evenodd;fill:#fcf9ce"/><circle cx="33.7" cy="108.7" r=".3" style="fill-rule:evenodd;clip-rule:evenodd;fill:#fcf9ce"/><circle cx="33" cy="109.3" r=".3" style="fill-rule:evenodd;clip-rule:evenodd;fill:#fcf9ce"/><circle cx="29.4" cy="108.3" r=".3" style="fill-rule:evenodd;clip-rule:evenodd;fill:#fcf9ce"/><circle cx="30.1" cy="108.8" r=".3" style="fill-rule:evenodd;clip-rule:evenodd;fill:#fcf9ce"/><circle cx="30.3" cy="109.7" r=".3" style="fill-rule:evenodd;clip-rule:evenodd;fill:#fcf9ce"/><circle cx="5.9" cy="106.7" r=".3" style="fill-rule:evenodd;clip-rule:evenodd;fill:#fcf9ce"/><circle cx="7.1" cy="106.3" r=".3" style="fill-rule:evenodd;clip-rule:evenodd;fill:#fcf9ce"/><circle cx="7.3" cy="107.2" r=".3" style="fill-rule:evenodd;clip-rule:evenodd;fill:#fcf9ce"/><circle cx="33.1" cy="104.1" r=".3" style="fill-rule:evenodd;clip-rule:evenodd;fill:#fcf9ce"/><circle cx="32.3" cy="104.1" r=".3" style="fill-rule:evenodd;clip-rule:evenodd;fill:#fcf9ce"/><circle cx="30.6" cy="104.1" r=".3" style="fill-rule:evenodd;clip-rule:evenodd;fill:#fcf9ce"/><circle cx="30.4" cy="99.8" r=".3" style="fill-rule:evenodd;clip-rule:evenodd;fill:#fcf9ce"/><circle cx="31.3" cy="99.8" r=".3" style="fill-rule:evenodd;clip-rule:evenodd;fill:#fcf9ce"/><circle cx="30.8" cy="98.9" r=".3" style="fill-rule:evenodd;clip-rule:evenodd;fill:#fcf9ce"/><circle cx="23.7" cy="107.1" r=".3" style="fill-rule:evenodd;clip-rule:evenodd;fill:#fcf9ce"/><circle cx="24.6" cy="107.1" r=".3" style="fill-rule:evenodd;clip-rule:evenodd;fill:#fcf9ce"/><circle cx="24.1" cy="106.2" r=".3" style="fill-rule:evenodd;clip-rule:evenodd;fill:#fcf9ce"/><circle cx="30.5" cy="95.5" r=".3" style="fill-rule:evenodd;clip-rule:evenodd;fill:#fcf9ce"/><circle cx="31.7" cy="95.5" r=".3" style="fill-rule:evenodd;clip-rule:evenodd;fill:#fcf9ce"/><circle cx="32.4" cy="95.5" r=".3" style="fill-rule:evenodd;clip-rule:evenodd;fill:#fcf9ce"/><circle cx="29.1" cy="104.9" r=".3" style="fill-rule:evenodd;clip-rule:evenodd;fill:#fcf9ce"/><circle cx="22.8" cy="106.8" r=".3" style="fill-rule:evenodd;clip-rule:evenodd;fill:#fcf9ce"/><circle cx="22" cy="106.8" r=".3" style="fill-rule:evenodd;clip-rule:evenodd;fill:#fcf9ce"/><circle cx="20.4" cy="106.8" r=".3" style="fill-rule:evenodd;clip-rule:evenodd;fill:#fcf9ce"/><circle cx="18.8" cy="107.6" r=".3" style="fill-rule:evenodd;clip-rule:evenodd;fill:#fcf9ce"/><circle cx="12.4" cy="106.4" r=".3" style="fill-rule:evenodd;clip-rule:evenodd;fill:#fcf9ce"/><circle cx="12.4" cy="105.5" r=".3" style="fill-rule:evenodd;clip-rule:evenodd;fill:#fcf9ce"/><circle cx="9.9" cy="106.7" r=".3" style="fill-rule:evenodd;clip-rule:evenodd;fill:#fcf9ce"/><circle cx="8.4" cy="107.1" r=".3" style="fill-rule:evenodd;clip-rule:evenodd;fill:#fcf9ce"/><path d="M120.9 117.4c-7.1.5-14.2-.2-21.2-.9l-1.4-.4c-.4 0-.9-.1-1.4-.1-.9 0-1.8-.1-2.7-.2-4.8-.4-9.4-.9-10.3-.8-2.8.1-5.6.1-8.4.2-1.4 0-2.8 0-4.2.1h-1.9c-10.8-.8-26-1-30.1-.9v2.4c7.7.3 28.5-1.1 32-1 1.2 0 2.3.1 3.5.1H79c1.3 0 2.7.2 4 .3 2.8.3 5.5.6 8.3.9 5.5.7 11 1.6 16.4 2.7-3.2.5-6.4.1-9.7-.3-3.7-.5-7.3-.9-11-1.4-1.7-.2-3.3-.4-5-.5-2.1-.1-4.2.3-6.2 0-2.1-.3-4.5 0-6.5.3-1.9.3-20.7 0-29.9-.2v1.9c10.3-.1 29.8-.8 27.6-.3-.6.2-1.3.3-1.9.4-1.3.2-2.6.4-3.9.5-2.7.2-5.3.2-8 .2-1.7 0-12 0-13.7-.1v1.7c11.3-.4 32.3-.8 40.6 0 .4 0 2.4.6 2.5-.1.1-.4-1.6-.4-1.9-.4-2.5-.1-5 0-7.5-.1-1.1 0-2.3 0-3.2-.6 2.4 0 4.8 0 7.1-.3.8-.1 1.5-.2 2.3-.3h.2c.9 0 1.8 0 2.7.1 5.5.3 11 .6 16.6.9-1.6.5-3.3.6-5 .7-.9 0-3.5-.5-4.1.3-.1.1-.1.2-.1.3h13.8c5.4-.2 10.7-.4 16.1-.5.4 0 .9.1 1 .4l3.7.1h8.3v-5.9c-1.7.2-7.6.7-11.7.8z" style="fill-rule:evenodd;clip-rule:evenodd;fill:#b5d5e0"/><path d="m99.1 105-.5 7.9M103 99.6l-.9 12.8M107.4 92.1l-1 19.7M74.3 96.5l-.8 21.8" style="fill-rule:evenodd;clip-rule:evenodd;fill:none;stroke:#81b2c3;stroke-width:.4;stroke-linecap:round;stroke-linejoin:round;stroke-miterlimit:10"/><path d="M110.7 83.4c.4 3 .9 5.9 1.5 8.8 1 4.9 2 10 4.1 14.6.7 1.6 1.7 3.5 3.3 4.4.3.1.4-.1.1-.2-1.4-.8-2.3-2.6-2.9-4-1-2.2-1.7-4.4-2.3-6.7-1.2-4.5-2.1-9.1-2.9-13.8-.2-1-.3-2-.4-3 0-.1-.5-.3-.5-.1z" style="fill:#81b2c3"/><path d="M58.1 57.4c.4 1.1.7 2.2 1.1 3.3 1 2.8 2 5.6 3 8.3 1.4 3.8 2.9 7.6 4.5 11.3 1.7 4.1 3.5 8.1 5.4 12.1 1.8 3.7 3.7 7.3 6 10.7 1.7 2.6 3.5 5.2 6 7.1.9.7 1.8 1.3 2.9 1.6 1.2.3 2.5.1 3.7-.3 4.1-1.3 7.3-4.7 9.8-7.9 2.9-3.6 5.2-7.6 7.3-11.7 1.3-2.6 2.5-5.2 3.6-7.9.1-.1.1-.3.2-.4.2-.6-.5-.2-.7.1-.7 1.9-1.5 3.7-2.4 5.5-1.8 3.9-3.9 7.8-6.4 11.3-2.4 3.6-5.4 7.3-9.2 9.4-1.3.7-3 1.4-4.5 1.3-1-.1-1.9-.5-2.8-1-2.4-1.5-4.3-3.9-5.9-6.2-2.2-3.2-4.1-6.6-5.9-10-2-3.8-3.8-7.8-5.5-11.8-1.6-3.8-3.2-7.6-4.6-11.5l-3.3-9c-.5-1.5-1-3.1-1.6-4.6 0-.1 0-.1-.1-.2 0-.5-.7.2-.6.5z" style="fill:#81b2c3"/><path d="M8.5 122.6c1.6-.7 3-1.8 4.2-3 1.9-1.7 3.7-3.6 5.4-5.5 4.5-5.1 8.6-10.4 12.6-15.9 8.1-10.9 15.6-22.2 23-33.6l4.8-7.5c.2-.3-.8-.5-1-.2-4.3 6.9-8.8 13.8-13.4 20.5-8 11.8-16.1 23.7-25.4 34.6-1.9 2.3-3.9 4.5-6.1 6.5-1.5 1.4-3 2.8-4.9 3.6-.4.3.5.7.8.5z" style="fill:#3b7087"/><path d="m109.1 114.5 1.7-31.8 5.6-.6.8 33-1.6-.3.1-23.1c-.1-3.4-2.2-3.3-2.2-3.3s-2.1-.4-2.2 3.1c-.3 7.4-.5 22.6-.5 22.6l-1.7.4z" style="fill-rule:evenodd;clip-rule:evenodd;fill:#81b2c3"/><path d="M125.6 112.2c-15.8-1.3-46.4 9.5-58.1 20.1L54 130.1s42.9-20.4 71.4-18.3l.2.4z" style="fill-rule:evenodd;clip-rule:evenodd;fill:#3b7087"/><path d="M125.2 111.8c-15.8-1.3-47.7 7.1-57.8 17l-14.1 1.8-17.6-1.7s55-17.9 83.6-18.4l5.9 1.3z" style="fill-rule:evenodd;clip-rule:evenodd;fill:#b5d5e0"/><path d="m53.9 123.6 4.7-66.9 14.7-1.5 1 .5-1.7 72.5-2 1.7.8-53C71.7 65 65.9 66 65.9 66s-6.2-.6-7.1 10.4c-1 12.5-3.7 46.9-3.7 46.9l-1.2.3z" style="fill-rule:evenodd;clip-rule:evenodd;fill:#3b7087"/><path d="M52.5 124.1 58 56.5 73.4 55l-2.7 73.7-2.2-.3L70.8 77c.5-11.8-5.7-11-5.7-11s-5.9-.4-6.8 10.6c-1 12.5-4 47.1-4 47.1s-1.7.4-1.8.4z" style="fill-rule:evenodd;clip-rule:evenodd;fill:#81b2c3"/><path d="M116.7 82.8c.4 3.1.9 6.2 1.4 9.2.9 5.2 2 10.5 4 15.4.7 1.7 1.6 3.7 3.3 4.6.3.1.4-.1.1-.2-1.4-.8-2.3-2.7-2.9-4.1-1-2.3-1.7-4.7-2.3-7.2-1.2-4.7-2.1-9.5-2.8-14.4-.2-1.1-.3-2.1-.4-3.2 0-.1-.4-.2-.4-.1z" style="fill:#3b7087"/><path d="m50.9 68.6-5.6 46.6" style="fill-rule:evenodd;clip-rule:evenodd;fill:none;stroke:#3b7087;stroke-width:.4;stroke-linecap:round;stroke-linejoin:round;stroke-miterlimit:10"/><path d="m62.9 70.9-2.5 47.6" style="fill-rule:evenodd;clip-rule:evenodd;fill:none;stroke:#81b2c3;stroke-width:.4;stroke-linecap:round;stroke-linejoin:round;stroke-miterlimit:10"/><path d="m41.7 82.1-4.3 31.4M28.5 100.4 27 112.2" style="fill-rule:evenodd;clip-rule:evenodd;fill:none;stroke:#3b7087;stroke-width:.4;stroke-linecap:round;stroke-linejoin:round;stroke-miterlimit:10"/><path d="m73.5 55.6.9 3.3c.8 2.8 1.6 5.7 2.4 8.5 1.1 3.8 2.4 7.6 3.7 11.4 1.4 4.1 2.9 8.2 4.6 12.2 1.5 3.7 3.2 7.3 5.2 10.7 1.5 2.6 3.2 5.3 5.5 7.2.9.7 1.8 1.4 2.9 1.7 1.2.4 2.4.2 3.6-.2 3.7-1.2 6.3-4.5 8.2-7.8 2.1-3.6 3.5-7.6 4.7-11.6.7-2.6 1.3-5.2 1.8-7.8 0-.1 0-.3.1-.4 0-.3-.8-.9-.8-.5-.3 1.8-.7 3.6-1.1 5.4-.9 3.8-2.1 7.6-3.8 11.2-1.6 3.6-3.8 7.3-7.1 9.5-2.1 1.4-4.8 2.3-7.1.9s-3.9-3.8-5.3-6c-2-3.2-3.7-6.6-5.2-10.1-1.7-3.9-3.2-7.9-4.6-11.8-1.4-3.8-2.6-7.7-3.8-11.5-.9-3-1.8-6.1-2.7-9.1-.4-1.5-.8-3.1-1.2-4.6 0-.1 0-.1-.1-.2-.1-.2-.2-.4-.5-.5 0-.1-.3-.2-.3.1z" style="fill:#3b7087"/><path d="M30.3 128.4c1.6-.7 2.9-2 4.1-3.2 1.8-1.8 3.4-3.9 4.9-5.9 4.1-5.5 7.6-11.4 11-17.4 3.8-6.6 7.4-13.2 10.9-19.9 2.9-5.6 5.8-11.2 8.5-16.9 1.3-2.7 2.7-5.4 3.9-8.1 0 0 0-.1.1-.1.3-.6-.6-1.1-.9-.5-1 2.2-2.1 4.4-3.2 6.6-2.6 5.4-5.3 10.7-8 16-3.4 6.7-7 13.3-10.7 19.8-3.5 6.1-7.1 12.2-11.1 18-1.6 2.2-3.2 4.4-5 6.5-1.2 1.4-2.6 2.9-4.2 3.9-.3.2-.6.3-.9.5-.5.1 0 1 .6.7z" style="fill:#3b7087"/><path d="m105.5 108.6-.2 5.8M100.5 110.8l-.3 5.1M89.6 100.2l-.3 19.5M66.2 70.5l-2.1 49.3M109.7 103.3l-.4 10.2" style="fill-rule:evenodd;clip-rule:evenodd;fill:none;stroke:#3b7087;stroke-width:.5;stroke-linecap:round;stroke-linejoin:round;stroke-miterlimit:10"/><path d="m120.8 103.3.1 8.7" style="fill-rule:evenodd;clip-rule:evenodd;fill:none;stroke:#3b7087;stroke-width:.3;stroke-linecap:round;stroke-linejoin:round;stroke-miterlimit:10"/><path d="m85.5 121.5-1.7.8.1-2.8 1.6-.6zM80 124.1l-2.3 1.2.1-3.3 2.2-.9zM91.3 119.2l-1.7.6v-2.3l1.7-.7zM96.8 117.2l-1.6.5.1-1.9 1.6-.6zM102.1 115.6l-1.7.4.1-1.6 1.7-.7zM106.9 114.3l-1.4.3.1-1.5 1.3-.5zM110.8 113.4l-1.3.3.1-1 1.2-.1zM114.5 112.8l-1 .1v-.8h.9zM119.7 112.2l-.8.1v-.6l.8-.1zM117.2 112.4l-.8.1v-.6h.8zM121.7 112.1h-.6v-1l.7.1z" style="fill-rule:evenodd;clip-rule:evenodd;fill:#b5d5e0"/><path d="M123 108.9v3M115.8 88.3l.4 24.1" style="fill-rule:evenodd;clip-rule:evenodd;fill:none;stroke:#3b7087;stroke-width:.3;stroke-linecap:round;stroke-linejoin:round;stroke-miterlimit:10"/><path d="m110.7 82.3.5-.5.1.7.5.5-.7.2-.5.5-.1-.7-.5-.5.7-.2z" style="fill-rule:evenodd;clip-rule:evenodd;fill:#ffcd05"/><ellipse cx="111" cy="82.7" rx=".5" ry=".4" style="fill-rule:evenodd;clip-rule:evenodd;fill:#fcf9ce" transform="rotate(-74.365 110.993 82.742)"/><path d="m116.3 81.8.5-.5.1.7.5.5-.7.2-.5.5-.1-.7-.5-.5.7-.2z" style="fill-rule:evenodd;clip-rule:evenodd;fill:#ffcd05"/><ellipse cx="116.6" cy="82.2" rx=".5" ry=".4" style="fill-rule:evenodd;clip-rule:evenodd;fill:#fcf9ce" transform="rotate(-74.365 116.575 82.226)"/><path d="m57.7 55.4.9-.9.2 1.3.8.9-1.1.3-.9.9-.2-1.3-.8-.9 1.1-.3z" style="fill-rule:evenodd;clip-rule:evenodd;fill:#ffcd05"/><ellipse cx="58.2" cy="56.2" rx=".9" ry=".6" style="fill-rule:evenodd;clip-rule:evenodd;fill:#fcf9ce" transform="rotate(-74.365 58.184 56.184)"/><path d="m17.6 49.4.8-.8.2 1.2.8.9-1.1.2-.8.8-.2-1.2-.8-.9 1.1-.2z" style="fill-rule:evenodd;clip-rule:evenodd;fill:#ffcd05"/><ellipse cx="18.1" cy="50.1" rx=".8" ry=".6" style="fill-rule:evenodd;clip-rule:evenodd;fill:#fcf9ce" transform="rotate(-74.365 18.064 50.117)"/><path d="m24.3 60.3.8-.8.2 1.2.8.9-1.1.2-.8.8-.2-1.2-.8-.9 1.1-.2z" style="fill-rule:evenodd;clip-rule:evenodd;fill:#ffcd05"/><ellipse cx="24.8" cy="61" rx=".8" ry=".6" style="fill-rule:evenodd;clip-rule:evenodd;fill:#fcf9ce" transform="rotate(-74.365 24.763 61.028)"/><path d="m61 35.2.8-.8.2 1.2.8.9-1.1.2-.8.8-.2-1.2-.8-.9 1.1-.2z" style="fill-rule:evenodd;clip-rule:evenodd;fill:#ffcd05"/><ellipse cx="61.5" cy="35.9" rx=".8" ry=".6" style="fill-rule:evenodd;clip-rule:evenodd;fill:#fcf9ce" transform="rotate(-74.365 61.469 35.91)"/><path d="m103.8 40.9.8-.8.2 1.2.8.9-1.1.2-.8.8-.2-1.2-.8-.9 1.1-.2z" style="fill-rule:evenodd;clip-rule:evenodd;fill:#ffcd05"/><ellipse cx="104.3" cy="41.6" rx=".8" ry=".6" style="fill-rule:evenodd;clip-rule:evenodd;fill:#fcf9ce" transform="rotate(-74.365 104.264 41.641)"/><path d="m109.8 36.8.8-.8.2 1.2.8.9-1.1.2-.8.8-.2-1.2-.8-.9 1.1-.2z" style="fill-rule:evenodd;clip-rule:evenodd;fill:#ffcd05"/><ellipse cx="110.2" cy="37.6" rx=".8" ry=".6" style="fill-rule:evenodd;clip-rule:evenodd;fill:#fcf9ce" transform="rotate(-74.365 110.23 37.56)"/><path d="m72.9 54.8.9-.9.2 1.3.8.9-1.2.3-.9.9-.2-1.3-.8-.9 1.2-.3z" style="fill-rule:evenodd;clip-rule:evenodd;fill:#ffcd05"/><ellipse cx="73.4" cy="55.6" rx=".9" ry=".6" style="fill-rule:evenodd;clip-rule:evenodd;fill:#fcf9ce" transform="rotate(-74.365 73.357 55.576)"/><path d="m113.3 94.8.1 18M118.4 92.3l.3 19.9" style="fill-rule:evenodd;clip-rule:evenodd;fill:none;stroke:#3b7087;stroke-width:.3;stroke-linecap:round;stroke-linejoin:round;stroke-miterlimit:10"/><path d="m95.3 108.5-.3 9M84.8 89.8l-1.3 32.3M79.4 75l-1.9 49.3" style="fill-rule:evenodd;clip-rule:evenodd;fill:none;stroke:#3b7087;stroke-width:.5;stroke-linecap:round;stroke-linejoin:round;stroke-miterlimit:10"/><path d="M133 150.1v-31.9c-49 0-70.2 33.7-131.2 29.7v2.2H133z" style="fill-rule:evenodd;clip-rule:evenodd;fill:#78b0c1"/><path d="M132.9 149.9c-31.2-15-70.9-40.5-132.9-39V150h132.9z" style="fill-rule:evenodd;clip-rule:evenodd;fill:#437c94"/><path d="M22.1 111.5c-11.9 3.1-17.8 17.7-22.1 33v5.4h13.8c5.1-23.2 13.2-32.7 26.8-36 0 0-13.8-2.5-18.5-2.4zM53.4 116.6c-13 4.8-18.7 18.1-22.3 33.3h13.6c5-19.8 13.7-26.2 23.5-29.1 0 0-7.4-2.6-14.8-4.2zM82.6 126.1c-10.7 2.8-17.1 13-20.5 23.9h13.2c3.7-10.3 7.5-16.3 19.8-18.6 0-.1-5.8-2.7-12.5-5.3zM103.9 135.5c-6.2 1.3-14.9 4-17.4 14.4h10.4c1.5-5.4 4.7-9.5 14.1-10.9l-7.1-3.5zM114.7 140.9c-4.1 1-7.2 1.8-9.3 9h9.4c1.4-4.3 2.1-4.9 5.7-6.1l-5.8-2.9z" style="fill:#6ba1b6"/></g></switch></svg>