<?xml version="1.0" encoding="utf-8"?>
<!-- Generator: Adobe Illustrator 25.2.3, SVG Export Plug-In . SVG Version: 6.00 Build 0)  -->
<svg version="1.1" id="Layer_1" xmlns="http://www.w3.org/2000/svg" xmlns:xlink="http://www.w3.org/1999/xlink" x="0px" y="0px"
	 viewBox="0 0 4197.2836914 633.0073853" style="enable-background:new 0 0 4197.2836914 633.0073853;" xml:space="preserve">
<style type="text/css">
	.st0{fill:#2C3E50;}
	.st1{fill:#8DC63F;}
	.st2{fill:#6BA939;}
	.st3{fill:#5C9531;}
	.st4{fill:#594A41;}
	.st5{fill:#DBE13A;}
	.st6{fill:#BBD644;}
	.st7{fill:#ABC53E;}
	.st8{fill:#34495E;}
	.st9{opacity:0.5;fill:#2C3E50;}
</style>
<rect class="st0" width="4197.2836914" height="633.0073853"/>
<g>
	<path id="path598" class="st1" d="M3443.8837891,580.0073853
		c-175.1999512-106.2000122-400.3000488-170.1000061-645.8999023-170.1000061c-284.1999512,0-541,85.5-724.6000977,223.1000061
		h1370.5V580.0073853z"/>
	<g>
		<path id="path600" class="st2" d="M2780.0837402,473.9074097c0,22.9000244-18.5998535,41.5-41.5,41.5
			c-22.8999023,0-41.5-18.5999756-41.5-41.5c0-22.8999939,18.6000977-41.5,41.5-41.5
			C2761.5837402,432.4074097,2780.0837402,451.0074158,2780.0837402,473.9074097z"/>
		<path id="path602" class="st3" d="M2780.0837402,473.9074097c0-22.8999939-18.5998535-41.5-41.5-41.5v82.9000244
			C2761.5837402,515.3074341,2780.0837402,496.8074341,2780.0837402,473.9074097z"/>
		<path id="path604" class="st4" d="M2738.6838379,540.0073853c-1.0998535,0-2.0998535-0.9000244-2.0998535-2.0999756v-58
			c0-1.0999756,0.8999023-2.0999756,2.0998535-2.0999756c1.1000977,0,2.1000977,0.9000244,2.1000977,2.0999756v58
			C2740.7839355,539.1074219,2739.7839355,540.0073853,2738.6838379,540.0073853z"/>
		<path id="path606" class="st4" d="M2738.6838379,503.1074219c-0.5,0-1.0998535-0.2000122-1.5-0.5999756
			c-0.8000488-0.7999878-0.8000488-2.0999756,0-2.9000244l8.6000977-8.5999756c0.8000488-0.7999878,2.0998535-0.7999878,2.8999023,0
			s0.8000488,2.0999756,0,2.9000244l-8.5998535,8.5999756
			C2739.6838379,502.9074707,2739.1838379,503.1074219,2738.6838379,503.1074219z"/>
		<path id="path608" class="st4" d="M2738.6838379,495.6074219c-0.5,0-1.0998535-0.2000122-1.5-0.5999756l-11.5-11.5
			c-0.8000488-0.7999878-0.8000488-2.0999756,0-2.9000244c0.8000488-0.7999878,2.1000977-0.7999878,2.9001465,0l11.5,11.5
			c0.8000488,0.7999878,0.8000488,2.0999756,0,2.9000244
			C2739.6838379,495.4074707,2739.1838379,495.6074219,2738.6838379,495.6074219z"/>
	</g>
	<path id="path610" class="st5" d="M2386.8837891,506.1073914c0-26-7.3999023-56.1000061-22.3999023-56.1000061
		s-22.4001465,30.1000061-22.4001465,56.1000061c0,9.4999695,7.4001465,17.1999817,22.4001465,17.1999817
		C2379.4838867,523.4074097,2386.8837891,515.7073975,2386.8837891,506.1073914z"/>
	<path id="path612" class="st6" d="M2386.8837891,506.1073914c0-26-7.3999023-56.1000061-22.3999023-56.1000061v73.2999878
		c15,0.0999756,22.3999023-7.6000366,22.3999023-17.2000122V506.1073914z"/>
	<path id="path614" class="st4" d="M2364.4838867,550.4074097c-1.1000977,0-2.1000977-0.9000244-2.1000977-2.1000366v-64.1999512
		c0-1.1000061,0.9001465-2.1000061,2.1000977-2.1000061c1.0998535,0,2.0998535,0.8999939,2.0998535,2.1000061v64.2000122
		C2366.5837402,549.5074463,2365.6838379,550.4074097,2364.4838867,550.4074097L2364.4838867,550.4074097z"/>
	<path id="path616" class="st4" d="M2364.4838867,509.7073975c-0.5,0-1.1000977-0.2000122-1.5-0.6000061l-9.5-9.5
		c-0.8000488-0.7999878-0.8000488-2.1000061,0-2.8999939s2.0998535-0.7999878,2.8999023,0l9.5,9.5
		c0.8000488,0.7999878,0.8000488,2.1000061,0,2.8999939
		C2365.5837402,509.5073853,2365.0837402,509.7073975,2364.4838867,509.7073975z"/>
	<path id="path618" class="st4" d="M2364.4838867,501.3074036c-0.5,0-1.1000977-0.2000122-1.5-0.6000061
		c-0.8000488-0.7999878-0.8000488-2.1000061,0-2.8999939l12.6999512-12.7000122
		c0.8000488-0.7999878,2.0998535-0.7999878,2.8999023,0s0.8000488,2.1000061,0,2.8999939l-12.6999512,12.7000122
		C2365.5837402,501.1073914,2365.0837402,501.3074036,2364.4838867,501.3074036z"/>
	<path id="path620" class="st6" d="M3489.7836914,322.4074402c-301.3999023,0-562.1999512,126.5-688,310.6000061h653.3000488
		h88.8999023h653.3000488c-125.8999023-184.1000366-386.6999512-310.6000366-688.3000488-310.6000366
		c-3.1999512,0-6.3999023,0.1000061-9.5998535,0.1000061c-3.1999512-0.1000061-6.3999023-0.1000061-9.6000977-0.1000061V322.4074402
		z"/>
	<g id="g642" transform="translate(0,150.9074)">
		<path id="path622" class="st7" d="M3340.7836914,335.4000244c0-9-7.2998047-16.2999878-16.2998047-16.2999878
			s-16.3000488,7.2999878-16.3000488,16.2999878s7.3000488,16.2999878,16.3000488,16.2999878
			S3340.7836914,344.4000244,3340.7836914,335.4000244z"/>
		<path id="path624" class="st7" d="M3475.1838379,270.2000122c0-9-7.3000488-16.3000031-16.3000488-16.3000031
			s-16.3000488,7.3000031-16.3000488,16.3000031S3449.8837891,286.5,3458.8837891,286.5
			S3475.1838379,279.2000122,3475.1838379,270.2000122z"/>
		<path id="path626" class="st7" d="M3298.7839355,384.2999878c-9,0-16.3000488,7.2999878-16.3000488,16.2999878
			s7.2998047,16.2999878,16.3000488,16.2999878h97.0998535c9,0,16.3000488,7.2999878,16.3000488,16.2999878
			s-7.3000488,16.2999878-16.3000488,16.2999878h-21.3999023c-9,0-16.3000488,7.2999878-16.3000488,16.2999878
			s7.3000488,16.2999878,16.3000488,16.2999878h289.5h52c9,0,16.2998047-7.2999878,16.2998047-16.2999878
			s-7.2998047-16.2999878-16.2998047-16.2999878h-56.7001953c-9,0-16.2998047-7.2999878-16.2998047-16.2999878
			s7.2998047-16.2999878,16.2998047-16.2999878h110c9,0,16.3000488-7.2999878,16.3000488-16.2999878
			s-7.3000488-16.2999878-16.3000488-16.2999878h-68.5998535c-9,0-16.3000488-7.2999878-16.3000488-16.2999878
			s7.3000488-16.2999878,16.3000488-16.2999878h104.2998047c9,0,16.3000488-7.2999878,16.3000488-16.2999878
			s-7.3000488-16.2999878-16.3000488-16.2999878h-57.0998535c-9,0-16.3000488-7.2999878-16.3000488-16.2999878
			s7.3000488-16.2999878,16.3000488-16.2999878h21.3999023c9,0,16.3000488-7.2999878,16.3000488-16.2999878
			s-7.3000488-16.3000031-16.3000488-16.3000031h-119.5h-142c-9,0-16.2998047,7.3000031-16.2998047,16.3000031
			s7.2998047,16.2999878,16.2998047,16.2999878h56.7001953c9,0,16.2998047,7.2999878,16.2998047,16.2999878
			s-7.2998047,16.2999878-16.2998047,16.2999878h-190c-9,0-16.3000488,7.2999878-16.3000488,16.2999878
			s7.3000488,16.2999878,16.3000488,16.2999878h68.5998535c9,0,16.3000488,7.2999878,16.3000488,16.2999878
			s-7.3000488,16.2999878-16.3000488,16.2999878h-144.3000488H3298.7839355z"/>
		<path id="path628" class="st7" d="M3802.9838867,400.5999756c0,9,7.2998047,16.2999878,16.2998047,16.2999878
			s16.3000488-7.2999878,16.3000488-16.2999878s-7.3000488-16.2999878-16.3000488-16.2999878
			S3802.9838867,391.5999756,3802.9838867,400.5999756z"/>
		<path id="path630" class="st7" d="M3748.5837402,465.7999878c0,9,7.3000488,16.2999878,16.3000488,16.2999878
			s16.3000488-7.2999878,16.3000488-16.2999878S3773.8837891,449.5,3764.8837891,449.5
			S3748.5837402,456.7999878,3748.5837402,465.7999878z"/>
	</g>
	<g>
		<path id="path654" class="st1" d="M3159.2836914,303.9074097c25.6000977,0,46.4001465,20.6999817,46.4001465,46.3999939
			c0,25.6000061-20.6999512,46.3999939-46.4001465,46.3999939c-25.5998535,0-46.3999023-20.6999817-46.3999023-46.3999939
			C3112.8837891,324.6074219,3133.6838379,303.8074036,3159.2836914,303.9074097z"/>
		<path id="path656" class="st2" d="M3159.2836914,396.8074036v-92.8999939
			c-25.5998535,0-46.3999023,20.6999817-46.3999023,46.3999939
			C3112.8837891,375.9074097,3133.6838379,396.7073975,3159.2836914,396.8074036z"/>
		<path id="path658" class="st4" d="M3157.2836914,422.0073853v-65.1000061c0-1.2000122,1-2.1000061,2.1000977-2.1000061
			c1.1999512,0,2.0998535,1,2.0998535,2.1000061v65.1000061c0,1.2000122-1,2.1000061-2.0998535,2.1000061
			C3158.1838379,424.1073914,3157.2836914,423.2073975,3157.2836914,422.0073853z"/>
		<path id="path660" class="st4" d="M3157.9836426,382.2073975l-9.6999512-9.7000122
			c-0.8000488-0.7999878-0.8000488-2.1000061,0-2.8999939s2.1000977-0.7999878,2.9001465,0l9.6999512,9.7000122
			c0.8000488,0.7999878,0.8000488,2.1000061,0,2.8999939c-0.4001465,0.3999939-1,0.6000061-1.5,0.6000061
			S3158.2836914,382.6073914,3157.9836426,382.2073975z"/>
		<path id="path662" class="st4" d="M3157.9836426,373.7073975c-0.7998047-0.7999878-0.7998047-2.1000061,0-2.8999939
			l12.8000488-12.7999878c0.8000488-0.7999878,2.1000977-0.7999878,2.9001465,0
			c0.7998047,0.7999878,0.7998047,2.1000061,0,2.8999939l-12.8000488,12.7999878c-0.4001465,0.3999939-1,0.6000061-1.5,0.6000061
			S3158.2836914,374.1073914,3157.9836426,373.7073975z"/>
	</g>
	<g>
		<path id="path694" class="st5" d="M3559.3447266,517.8883667c-17.3000488,0-31.3000488-14-31.3000488-31.2999878
			c0-47.2000122,14-125.6000061,31.3000488-125.6000061c17.2998047,0,31.2998047,78.4000244,31.2998047,125.6000061
			C3590.6445312,503.8883667,3576.6445312,517.8883667,3559.3447266,517.8883667z"/>
		<path id="path696" class="st6" d="M3559.3447266,517.8883667V360.9883728
			c17.2998047,0,31.2998047,78.4000244,31.2998047,125.6000061
			C3590.6445312,503.8883667,3576.6445312,517.8883667,3559.3447266,517.8883667z"/>
		<path id="path698" class="st4" d="M3557.2446289,550.9884033v-85.1000366c0-1.2000122,1-2.1000061,2.1000977-2.1000061
			c1.1999512,0,2.0998535,1,2.0998535,2.1000061v85.1000366c0,1.2000122-1,2.0999756-2.0998535,2.0999756
			C3558.1447754,553.0883789,3557.2446289,552.0883789,3557.2446289,550.9884033z"/>
		<path id="path700" class="st4" d="M3557.9445801,498.2883911l-12.5998535-12.6000061
			c-0.8000488-0.7999878-0.8000488-2.1000061,0-2.8999939s2.0998535-0.7999878,2.8999023,0l12.6000977,12.7000122
			c0.7998047,0.7999878,0.7998047,2.1000061,0,2.8999939c-0.4001465,0.3999939-1,0.6000061-1.5,0.6000061
			S3558.2446289,498.7883911,3557.9445801,498.2883911z"/>
		<path id="path702" class="st4" d="M3557.8447266,487.3883972c-0.8000488-0.7999878-0.8000488-2.1000061,0-2.8999939
			l16.7998047-16.7999878c0.8000488-0.7999878,2.1000977-0.7999878,2.9001465,0s0.8000488,2.1000061,0,2.8999939
			l-16.6999512,16.7999878c-0.4001465,0.3999939-1,0.6000061-1.5,0.6000061S3558.2446289,487.7883911,3557.8447266,487.3883972z"/>
	</g>
	<g>
		<path id="path714" class="st1" d="M3404.1896973,333.3871155c-19.8999023,0-29.6999512-10.3000488-29.6999512-22.9000244
			c0-34.5,9.7998047-74.4000092,29.6999512-74.4000092c19.8999023,0,29.6999512,39.9000092,29.6999512,74.4000092
			C3433.8896484,323.1871033,3424.0895996,333.3871155,3404.1896973,333.3871155z"/>
		<path id="path716" class="st2" d="M3404.1896973,333.2870789v-97.1999969
			c19.8999023,0,29.6999512,39.9000092,29.6999512,74.4000092
			C3433.8896484,323.1871033,3424.0895996,333.3870544,3404.1896973,333.2870789z"/>
		<path id="path718" class="st4" d="M3402.0895996,366.4870911v-85.0999756c0-1.1999512,1-2.0999756,2.1000977-2.0999756
			c1.1999512,0,2.0998535,1,2.0998535,2.0999756v85.0999756c0,1.1999512-1,2.0999756-2.0998535,2.0999756
			C3403.0895996,368.5870667,3402.1896973,367.6871033,3402.0895996,366.4870911z"/>
		<path id="path720" class="st4" d="M3402.7895508,313.7870789l-12.5998535-12.5999756
			c-0.8000488-0.8000488-0.8000488-2.1000366,0-2.9000244s2.0998535-0.7999878,2.8999023,0l12.6000977,12.7000122
			c0.8000488,0.8000488,0.8000488,2.1000366,0,2.9000244c-0.4001465,0.3999634-1,0.5999756-1.5,0.5999756
			S3403.1896973,314.2870789,3402.7895508,313.7870789z"/>
		<path id="path722" class="st4" d="M3402.7895508,302.8871155c-0.8000488-0.8000488-0.8000488-2.1000366,0-2.9000244
			l16.8000488-16.7999878c0.8000488-0.7999878,2.1000977-0.7999878,2.9001465,0
			c0.8000488,0.8000488,0.8000488,2.1000366,0,2.9000244l-16.8000488,16.7999878c-0.4001465,0.3999634-1,0.5999756-1.5,0.5999756
			S3403.1896973,303.2871399,3402.7895508,302.8871155z"/>
	</g>
</g>
<g>
	<path class="st8" d="M2760.2143555,182.9998169h30.456543c7.9172363,0,14.3356934-6.4185791,14.3356934-14.3361053
		c0-7.9173431-6.418457-14.3357544-14.3356934-14.3357544h-5.9523926c-7.9174805,0-14.3359375-6.4184113-14.3359375-14.3359375
		v-0.0001831c0-7.9173431,6.418457-14.3357544,14.3359375-14.3357544h133.5310059
		c7.9174805,0,14.3359375,6.4184113,14.3359375,14.3357544v0.0001831c0,7.9175262-6.418457,14.3359375-14.3359375,14.3359375
		h-7.0739746h-61.7858887c-7.9174805,0-14.3359375,6.4184113-14.3359375,14.3357544v0.0001678
		c0,7.9175262,6.418457,14.3359375,14.3359375,14.3359375h61.7858887h64.6325684h7.1123047h24.9370117
		c7.9174805,0,14.3359375,6.4184113,14.3359375,14.3357697c0,7.917511-6.418457,14.3359222-14.3359375,14.3359222h-20.9790039
		c-0.0693359,0.0010529-0.1362305,0.0104523-0.2055664,0.0104523h-7.0739746h-61.7858887
		c-7.9177246,0-14.3359375,6.4184113-14.3359375,14.3359375c0,7.917511,6.4182129,14.3359222,14.3359375,14.3359222h61.7858887
		h64.6323242h7.1125488h42.3581543c7.9174805,0,14.3359375,6.4184113,14.3359375,14.3359375
		c0,7.9173584-6.418457,14.3359375-14.3359375,14.3359375h-131.5332031h-41.6860352h-91.8449707
		c-7.9174805,0-14.3356934-6.4185791-14.3356934-14.3359375c0-7.9175262,6.4182129-14.3359375,14.3356934-14.3359375h30.456543
		c7.9172363,0,14.3359375-6.4184113,14.3359375-14.3359222c0-7.9175262-6.4187012-14.3359375-14.3359375-14.3359375h-5.9523926
		c-0.0693359,0-0.1364746-0.0093994-0.2055664-0.0104523h-0.8769531h-91.8449707
		c-7.9174805,0-14.3356934-6.4184113-14.3356934-14.3359222
		C2745.8786621,189.4182281,2752.296875,182.9998169,2760.2143555,182.9998169z"/>
	
		<ellipse transform="matrix(0.7071068 -0.7071068 0.7071068 0.7071068 656.4876099 1979.5828857)" class="st8" cx="2717.8117676" cy="197.3408508" rx="14.3364344" ry="14.3363905"/>
	
		<ellipse transform="matrix(0.2305667 -0.9730566 0.9730566 0.2305667 2145.1455078 2992.8227539)" class="st8" cx="2964.9951172" cy="139.9924927" rx="14.3363209" ry="14.3364172"/>
	
		<ellipse transform="matrix(0.1605944 -0.9870205 0.9870205 0.1605944 2301.5793457 2846.4716797)" class="st8" cx="2824.310791" cy="70.0723495" rx="14.3363218" ry="14.3364592"/>
	
		<ellipse transform="matrix(0.8951613 -0.4457424 0.4457424 0.8951613 216.8301849 1430.5336914)" class="st8" cx="3149.512207" cy="254.3188477" rx="14.3364563" ry="14.3364019"/>
	<circle class="st8" cx="2905.8103027" cy="319.886261" r="14.3364344"/>
</g>
<g>
	<path class="st8" d="M4197.2836914,119.5879898h-124.1401367h-36.2236328h-3.1196289h-86.6828613h-16.2521973
		c-6.9624023-0.5554581-12.442627-6.3699799-12.442627-13.4754791c0-7.4723663,6.0576172-13.5300293,13.5300293-13.5300293
		h5.6179199c7.4726562,0,13.5300293-6.0576706,13.5300293-13.5301895l0,0c0-7.4725266-6.057373-13.5301971-13.5300293-13.5301971
		h-126.0258789c-7.4726562,0-13.5302734,6.0576706-13.5302734,13.5301971l0,0
		c0,7.4725189,6.0576172,13.5301895,13.5302734,13.5301895h6.6762695h58.3132324
		c7.4726562,0,13.5302734,6.057663,13.5302734,13.5300293v0.0001602c0,7.4725266-6.0576172,13.5301895-13.5302734,13.5301895
		h-58.3132324h-61h-6.7126465h-39.9772949c-7.4726562,0-13.5302734,6.0576706-13.5302734,13.5300369
		c0,7.4726868,6.0576172,13.5301819,13.5302734,13.5301819h124.1403809h39.3432617h86.6828613
		c0.3662109,0,0.7263184-0.026123,1.0852051-0.0547028h14.0793457c7.4724121,0,13.5300293,6.057663,13.5300293,13.5301819
		c0,7.4725342-6.0576172,13.5301971-13.5300293,13.5301971h-5.6179199h-52.6738281h-61h-6.7126465h-39.9772949
		c-7.4724121,0-13.5302734,6.057663-13.5302734,13.5300293c0,7.4725189,6.0578613,13.5303497,13.5302734,13.5303497h38.7426758
		c0.4528809,0.0458374,0.9123535,0.0695038,1.3774414,0.0695038h6.6760254h58.3137207
		c7.4724121,0,13.5302734,6.057663,13.5302734,13.530014v0.0001678c0,7.4725342-6.0578613,13.5301971-13.5302734,13.5301971
		h-58.3137207h-60.9995117h-6.7128906h-39.9770508c-7.4726562,0-13.5302734,6.057663-13.5302734,13.5300293
		c0,7.4725189,6.0576172,13.5303497,13.5302734,13.5303497h124.1401367h39.3432617h86.6828613
		c7.4724121,0,13.5300293-6.0578308,13.5300293-13.5303497c0-7.4723663-6.0576172-13.5300293-13.5300293-13.5300293h-28.7446289
		c-7.4724121,0-13.5302734-6.0578308-13.5302734-13.530365c0-7.4723511,6.0578613-13.530014,13.5302734-13.530014h5.6176758
		c0.4650879,0,0.9245605-0.0236664,1.3774414-0.0695038h82.6430664h36.2231445
		c7.4726562,0,13.5302734-6.057663,13.5302734-13.5301819l0,0c0-7.4725342-6.0576172-13.5301971-13.5302734-13.5301971h-6.6762695
		h-29.546875h-28.744873c-7.4724121,0-13.5300293-6.0578308-13.5300293-13.5301971
		c0-7.4725189,6.0576172-13.5301819,13.5300293-13.5301819h5.6179199h52.6738281h61h6.7128906h39.9770508"/>
	
		<ellipse transform="matrix(0.2400311 -0.9707652 0.9707652 0.2400311 2857.5102539 4130.8178711)" class="st8" cx="4067.0566406" cy="240.352829" rx="13.5306482" ry="13.5305595"/>
	
		<ellipse transform="matrix(0.6751397 -0.7376899 0.7376899 0.6751397 1235.9562988 2964.7043457)" class="st8" cx="3984.0908203" cy="79.052742" rx="13.5305424" ry="13.5305834"/>
	
		<ellipse transform="matrix(0.2305667 -0.9730565 0.9730565 0.2305667 2966.0673828 3778.0703125)" class="st8" cx="3871.9841309" cy="13.5306435" rx="13.5305557" ry="13.5306473"/>
	
		<ellipse transform="matrix(0.153126 -0.9882067 0.9882067 0.153126 2996.0073242 4081.1125488)" class="st8" cx="3879.1032715" cy="292.5545959" rx="13.5305576" ry="13.5306931"/>
	
		<ellipse transform="matrix(0.1547078 -0.9879603 0.9879603 0.1547078 3000.173584 3878.3676758)" class="st8" cx="3766.5651855" cy="185.9130859" rx="13.5305576" ry="13.5306921"/>
	
		<ellipse transform="matrix(0.7071068 -0.7071068 0.7071068 0.7071068 964.4237671 2595.8608398)" class="st8" cx="3615.6931152" cy="133.7679901" rx="13.5306635" ry="13.5306225"/>
</g>
<g>
	<path class="st8" d="M0,103.1459427h99.549469h36.2236176h3.1195221h168.8931274h16.2521057
		c6.9625854-0.5554657,12.4425964-6.3699799,12.4425964-13.4754868c0-7.4723587-6.0574951-13.5300293-13.5299988-13.5300293
		h-5.6177368c-7.4726562,0-13.5301819-6.057663-13.5301819-13.5301895l0,0c0-7.4725227,6.0575256-13.5301895,13.5301819-13.5301895
		h158.9099426c7.4725342,0,13.5301819,6.0576668,13.5301819,13.5301895l0,0c0,7.4725266-6.0576477,13.5301895-13.5301819,13.5301895
		h-6.6762085h-58.3134155c-7.4725342,0-13.5302124,6.0576706-13.5302124,13.5300293v0.0001678
		c0,7.4725189,6.0576782,13.5301895,13.5302124,13.5301895h58.3134155h60.9998474h6.7127075h39.9772949
		c7.4725342,0,13.5301514,6.057663,13.5301514,13.5300293c0,7.4726868-6.0576172,13.5301895-13.5301514,13.5301895H453.1159973
		h-39.3432922H294.2057495c-0.3663635,0-0.7263184-0.026123-1.0852966-0.0547028h-14.0792542
		c-7.4725037,0-13.5301819,6.057663-13.5301819,13.5301819s6.0576782,13.5301971,13.5301819,13.5301971h5.6177063h52.6740417
		h93.8839722h6.7127075h39.9772644c7.4725342,0,13.5301819,6.057663,13.5301819,13.5300293
		c0,7.4725189-6.0576477,13.5303497-13.5301819,13.5303497h-38.7426453
		c-0.4529419,0.0458374-0.9124756,0.0694885-1.3774109,0.0694885h-6.6762085h-91.1976929
		c-7.4725037,0-13.5301819,6.0576782-13.5301819,13.5300293v0.0001678c0,7.4725189,6.0576782,13.5301971,13.5301819,13.5301971
		h58.3135986h60.9995422h6.7128601h39.9772644c7.4725342,0,13.5302124,6.057663,13.5302124,13.530014
		c0,7.4725342-6.0576782,13.530365-13.5302124,13.530365H381.7759399h-39.3432922h-70.2406311
		c-7.4725342,0-13.5302124-6.0578308-13.5302124-13.530365c0-7.4723511,6.0576782-13.530014,13.5302124-13.530014h12.3024292
		c7.4725342,0,13.5302124-6.0578308,13.5302124-13.530365c0-7.4723511-6.0576782-13.5300293-13.5302124-13.5300293H278.87677
		c-0.4649353,0-0.924469-0.0236511-1.3774109-0.0694885h-164.853241H76.4226761
		c-7.4725266,0-13.5301895-6.057663-13.5301895-13.5301971l0,0c0-7.4725189,6.057663-13.5301819,13.5301895-13.5301819h6.6763763
		h29.5470657h28.7446747c7.4725189,0,13.5300293-6.0578308,13.5300293-13.5301971
		c0-7.4725189-6.0575104-13.5301819-13.5300293-13.5301819h-5.6177063H83.0990524H22.0991802h-6.7126875H0"/>
	
		<ellipse transform="matrix(0.7376898 -0.6751398 0.6751398 0.7376898 28.7658882 199.2596588)" class="st8" cx="270.8124084" cy="62.6106911" rx="13.5305834" ry="13.5305424"/>
	
		<ellipse transform="matrix(0.9730566 -0.2305667 0.2305667 0.9730566 8.0834675 96.2349319)" class="st8" cx="415.8031921" cy="13.5306435" rx="13.5306473" ry="13.5305557"/>
	
		<ellipse transform="matrix(0.9882067 -0.153126 0.153126 0.9882067 -37.8480759 60.8010101)" class="st8" cx="375.7999268" cy="276.1125488" rx="13.5306931" ry="13.5305576"/>
	
		<ellipse transform="matrix(0.9879603 -0.1547078 0.1547078 0.9879603 -19.9431171 82.6774826)" class="st8" cx="521.2220459" cy="169.4710388" rx="13.5306921" ry="13.5305576"/>
	
		<ellipse transform="matrix(0.7071068 -0.7071068 0.7071068 0.7071068 113.8898544 509.6062927)" class="st8" cx="672.0941772" cy="117.3259354" rx="13.5306225" ry="13.5306635"/>
</g>
<rect class="st9" width="4197.2836914" height="633.0073853"/>
</svg>
