<?xml version="1.0" encoding="utf-8"?>
<!-- Generator: Adobe Illustrator 24.1.1, SVG Export Plug-In . SVG Version: 6.00 Build 0)  -->
<svg version="1.1" id="svg" xmlns="http://www.w3.org/2000/svg" xmlns:xlink="http://www.w3.org/1999/xlink" x="0px" y="0px"
	 viewBox="0 0 256 32.76" style="enable-background:new 0 0 256 32.76;" xml:space="preserve">
<style type="text/css">
	.st0{fill:#808080;}
	.st1{fill:#0076CE;}
</style>
<g>
	<path class="st0" d="M99.63,2.99V1.97l-0.34-0.34H81.49l-0.34,0.34v1.03l0.34,0.34h7.53l0.34,0.34v21.56l0.34,0.34h1.37l0.34-0.34
		V3.68l0.34-0.34h7.53L99.63,2.99z M109.21,16H98.94l-0.34-0.34c0-2.4,1.37-5.82,5.47-5.82c4.11,0,5.48,3.42,5.48,5.82L109.21,16z
		 M111.26,17.71l0.34-0.34v-1.03c0-4.79-2.74-8.21-7.53-8.21c-4.79,0-7.53,3.42-7.53,8.21v0.68c0,4.79,2.4,8.9,7.87,8.9
		c4.79,0,6.5-3.08,6.84-5.13l-0.34-0.34h-1.37l-0.34,0.34c-0.68,2.05-2.05,3.42-4.79,3.42c-4.45,0-5.82-4.11-5.82-6.16l0.34-0.34
		H111.26z M115.03,17.02c0-4.79,2.39-7.19,5.82-7.19c3.42,0,4.79,2.05,5.13,4.1l0.34,0.34h1.37l0.34-0.34
		c-0.34-3.42-3.08-5.82-7.19-5.82c-4.45,0-7.87,2.74-7.87,8.9c0,6.16,3.42,8.9,7.87,8.9c4.1,0,6.84-2.4,7.19-5.82l-0.34-0.34h-1.37
		l-0.34,0.34c-0.34,2.05-1.71,4.11-5.13,4.11C117.42,24.21,115.03,21.81,115.03,17.02 M144.45,25.24V14.97
		c0-4.45-2.4-6.84-6.16-6.84c-2.4,0-4.45,1.03-5.48,2.74h-0.34v-8.9l-0.34-0.34h-1.37l-0.34,0.34v23.27l0.34,0.34h1.37l0.34-0.34V16
		c0-3.76,1.71-6.16,5.48-6.16c2.74,0,4.45,1.71,4.45,5.13v10.27l0.34,0.34h1.37L144.45,25.24z M161.9,25.24V14.97
		c0-4.45-2.39-6.84-6.16-6.84c-2.4,0-4.45,1.03-5.47,2.74h-0.34l-0.34-2.05l-0.34-0.34h-1.03l-0.34,0.34v16.43l0.34,0.34h1.37
		l0.34-0.34V16c0-3.76,1.71-6.16,5.48-6.16c2.74,0,4.45,1.71,4.45,5.13v10.27l0.34,0.34h1.37L161.9,25.24z M171.83,25.92
		c4.45,0,7.87-3.08,7.87-8.9s-3.42-8.9-7.87-8.9c-4.45,0-7.87,3.08-7.87,8.9S167.38,25.92,171.83,25.92 M171.83,9.84
		c3.42,0,5.82,2.74,5.82,7.19c0,4.45-2.4,7.19-5.82,7.19c-3.42,0-5.82-2.74-5.82-7.19C166.01,12.57,168.4,9.84,171.83,9.84
		 M184.14,25.24V1.97l-0.34-0.34h-1.37l-0.34,0.34v23.27l0.34,0.34h1.37L184.14,25.24z M194.41,25.92c4.45,0,7.87-3.08,7.87-8.9
		s-3.42-8.9-7.87-8.9c-4.45,0-7.87,3.08-7.87,8.9S189.96,25.92,194.41,25.92 M194.41,9.84c3.42,0,5.82,2.74,5.82,7.19
		c0,4.45-2.39,7.19-5.82,7.19c-3.42,0-5.82-2.74-5.82-7.19C188.59,12.57,190.99,9.84,194.41,9.84 M216.65,23.18
		c0,4.45-1.03,7.87-5.13,7.87c-3.08,0-4.11-1.37-4.45-3.08l-0.34-0.34h-1.37l-0.34,0.34c0.34,2.74,2.39,4.79,6.5,4.79
		c4.45,0,7.19-2.74,7.19-9.58V8.81l-0.34-0.34h-1.03l-0.34,0.34l-0.34,2.05h-0.34c-0.68-1.37-2.39-2.74-5.48-2.74
		c-4.79,0-7.19,3.76-7.19,8.9c0,5.13,2.4,8.9,7.19,8.9c3.08,0,4.79-1.37,5.48-2.74H216.65z M211.18,24.21
		c-3.42,0-5.48-2.4-5.48-7.19c0-4.79,2.05-7.19,5.48-7.19c3.42,0,5.47,2.39,5.47,7.19C216.65,21.81,214.6,24.21,211.18,24.21
		 M224.18,5.39V3.34l-0.34-0.34h-1.37l-0.34,0.34v2.05l0.34,0.34h1.37L224.18,5.39z M224.18,25.24V8.81l-0.34-0.34h-1.37l-0.34,0.34
		v16.43l0.34,0.34h1.37L224.18,25.24z M239.23,16h-10.26l-0.34-0.34c0-2.4,1.37-5.82,5.48-5.82c4.11,0,5.48,3.42,5.48,5.82
		L239.23,16z M241.29,17.71l0.34-0.34v-1.03c0-4.79-2.74-8.21-7.53-8.21c-4.79,0-7.53,3.42-7.53,8.21v0.68c0,4.79,2.4,8.9,7.87,8.9
		c4.79,0,6.5-3.08,6.84-5.13l-0.34-0.34h-1.37l-0.34,0.34c-0.69,2.05-2.05,3.42-4.79,3.42c-4.45,0-5.82-4.11-5.82-6.16l0.34-0.34
		H241.29z M256,21.13c0-3.08-1.71-4.45-5.13-5.13c-3.42-0.68-5.47-1.03-5.47-3.42c0-1.71,1.37-2.74,3.76-2.74
		c3.08,0,4.11,1.37,4.11,3.08l0.34,0.34h1.37l0.34-0.34c0-3.42-2.74-4.79-6.16-4.79c-3.76,0-5.82,2.05-5.82,4.45
		c0,2.74,2.05,4.11,5.47,4.79c3.42,0.69,5.13,1.03,5.13,3.76c0,1.71-1.03,3.08-4.45,3.08c-3.08,0-4.45-1.71-4.45-3.76l-0.34-0.34
		h-1.37L243,20.44c0,3.08,2.39,5.48,6.5,5.48C253.95,25.92,256,23.87,256,21.13"/>
	<path class="st1" d="M9.71,20.82L9.71,20.82H5.44V6.38h4.27c3.61,0,6.54,3.23,6.54,7.22C16.24,17.59,13.32,20.82,9.71,20.82
		 M53.84,1.62H48.4v8.96L35.41,20.73l-2.91-2.27l6.22-4.86l6.77-5.29l-3.87-3.02L28.63,15.44l-2.91-2.27L38.72,3.02L34.85,0
		L21.3,10.59c-1.34-5.16-6.02-8.96-11.59-8.96H0v23.95h0.12h9.59c5.57,0,10.26-3.81,11.59-8.96L34.85,27.2L48.4,16.62v8.96h15.45
		v-4.76H53.84V1.62z M81.15,20.82v4.76H65.7V1.62h5.44v19.19H81.15z"/>
</g>
</svg>
