<?xml version="1.0" encoding="UTF-8" standalone="no"?>
<!-- Generator: Adobe Illustrator 26.3.1, SVG Export Plug-In . SVG Version: 6.00 Build 0)  -->

<svg
   version="1.1"
   x="0px"
   y="0px"
   viewBox="0 0 209.24076 44.900003"
   xml:space="preserve"
   id="svg15"
   sodipodi:docname="rancher-logo.svg"
   width="209.24075"
   height="44.900002"
   inkscape:version="1.4.2 (ebf0e94, 2025-05-08)"
   xmlns:inkscape="http://www.inkscape.org/namespaces/inkscape"
   xmlns:sodipodi="http://sodipodi.sourceforge.net/DTD/sodipodi-0.dtd"
   xmlns="http://www.w3.org/2000/svg"
   xmlns:svg="http://www.w3.org/2000/svg"><defs
   id="defs15" /><sodipodi:namedview
   id="namedview15"
   pagecolor="#ffffff"
   bordercolor="#000000"
   borderopacity="0.25"
   inkscape:showpageshadow="2"
   inkscape:pageopacity="0.0"
   inkscape:pagecheckerboard="0"
   inkscape:deskcolor="#d1d1d1"
   inkscape:zoom="9.2858265"
   inkscape:cx="104.67566"
   inkscape:cy="22.561266"
   inkscape:window-width="2516"
   inkscape:window-height="1412"
   inkscape:window-x="0"
   inkscape:window-y="0"
   inkscape:window-maximized="1"
   inkscape:current-layer="svg15" />
<style
   type="text/css"
   id="style1">
	.st0{display:none;}
	.st1{display:inline;}
	.st2{fill:#2453FF;}
</style>
<g
   id="padding"
   class="st0"
   transform="translate(-22.93925,-22.8)">
	<path
   class="st1"
   d="m 118.37,-0.13 h 9.41 c 4.47,0 7.48,2.17 7.48,6.36 0,3.42 -2.33,5.48 -4.6,6.19 0.68,0.58 1.18,1.35 1.59,2.17 0.95,1.93 1.59,4.06 3.59,4.06 0.51,0 0.91,-0.17 0.91,-0.17 l -0.44,4.03 c 0,0 -1.22,0.3 -2.27,0.3 -2.71,0 -4.26,-1.05 -5.85,-4.67 -0.68,-1.62 -1.62,-4.47 -2.88,-4.47 h -1.29 v 9.03 h -5.65 V -0.13 m 5.65,4.09 v 5.62 h 2.03 c 1.62,0 3.52,-0.51 3.52,-2.94 0,-2 -1.29,-2.67 -2.84,-2.67 h -2.71 z"
   id="path1" />
	<g
   class="st1"
   id="g3">
		<path
   d="m 0,54.39 v -9.41 c 0,-4.47 2.17,-7.48 6.36,-7.48 3.42,0 5.48,2.33 6.19,4.6 0.58,-0.68 1.35,-1.18 2.17,-1.59 1.93,-0.95 4.06,-1.59 4.06,-3.59 0,-0.51 -0.17,-0.91 -0.17,-0.91 l 4.03,0.44 c 0,0 0.3,1.22 0.3,2.27 0,2.71 -1.05,4.26 -4.67,5.85 -1.62,0.68 -4.47,1.62 -4.47,2.88 v 1.29 h 9.03 v 5.65 H 0 m 4.09,-5.65 h 5.62 v -2.03 c 0,-1.62 -0.51,-3.52 -2.94,-3.52 -2,0 -2.67,1.29 -2.67,2.84 v 2.71 z"
   id="path2" />
		<path
   d="m 232.18,54.39 v -9.41 c 0,-4.47 2.17,-7.48 6.36,-7.48 3.42,0 5.48,2.33 6.19,4.6 0.58,-0.68 1.35,-1.18 2.17,-1.59 1.93,-0.95 4.06,-1.59 4.06,-3.59 0,-0.51 -0.17,-0.91 -0.17,-0.91 l 4.03,0.44 c 0,0 0.3,1.22 0.3,2.27 0,2.71 -1.05,4.26 -4.67,5.85 -1.62,0.68 -4.47,1.62 -4.47,2.88 v 1.29 h 9.03 v 5.65 h -22.83 m 4.09,-5.65 h 5.62 v -2.03 c 0,-1.62 -0.51,-3.52 -2.94,-3.52 -2,0 -2.67,1.29 -2.67,2.84 v 2.71 z"
   id="path3" />
	</g>
	<path
   class="st1"
   d="m 118.37,67.7 h 9.41 c 4.47,0 7.48,2.17 7.48,6.36 0,3.42 -2.33,5.48 -4.6,6.19 0.68,0.58 1.18,1.35 1.59,2.17 0.95,1.93 1.59,4.06 3.59,4.06 0.51,0 0.91,-0.17 0.91,-0.17 l -0.44,4.03 c 0,0 -1.22,0.3 -2.27,0.3 -2.71,0 -4.26,-1.05 -5.85,-4.67 -0.68,-1.62 -1.62,-4.47 -2.88,-4.47 h -1.29 v 9.03 h -5.65 V 67.7 m 5.65,4.09 v 5.62 h 2.03 c 1.62,0 3.52,-0.51 3.52,-2.94 0,-2 -1.29,-2.67 -2.84,-2.67 h -2.71 z"
   id="path4" />
</g>
<g
   id="logo"
   transform="translate(-22.93925,-22.8)">
	<g
   id="g6">
		<path
   class="st2"
   d="M 88.78,29.59 88.07,25.3 c -0.23,-1.38 -0.77,-2.5 -1.19,-2.5 -0.43,0 -0.77,1.14 -0.77,2.54 v 1.12 c 0,1.39 -1.14,2.54 -2.54,2.54 h -1.12 c -0.08,0 -0.16,0 -0.24,0.01 v 3.08 c 0.08,0 0.16,0.01 0.24,0.01 h 4.22 c 1.39,-0.01 2.34,-1.13 2.11,-2.51"
   id="path5" />
		<path
   class="st2"
   d="m 78.67,25.96 h -6.84 c -0.06,0 -0.11,0 -0.17,0.01 h -7.02 c -0.08,0 -0.16,0.01 -0.24,0.02 v -0.65 c 0,-1.39 -0.35,-2.54 -0.77,-2.54 -0.43,0 -0.96,1.13 -1.19,2.5 l -0.71,4.29 c -0.23,1.38 0.72,2.5 2.12,2.5 h 4.22 c 0.43,0 0.84,-0.07 1.2,-0.19 -0.13,0.72 -0.76,1.26 -1.52,1.26 h -5.91 c -0.96,0 -1.68,-0.86 -1.53,-1.8 l 0.6,-3.59 c 0.16,-0.94 -0.57,-1.8 -1.53,-1.8 H 29.95 c -0.63,0 -1.17,0.37 -1.41,0.91 L 23,35.31 c -0.09,0.14 -0.08,0.33 0.03,0.46 l 1.08,1.27 c 0.13,0.16 0.37,0.18 0.53,0.05 l 3.77,-2.97 v 18.04 c 0,0.86 0.69,1.55 1.55,1.55 h 8.35 c 0.86,0 1.55,-0.69 1.55,-1.55 v -6.27 c 0,-0.85 0.69,-1.55 1.55,-1.55 h 20.85 c 0.86,0 1.55,0.69 1.55,1.55 v 6.27 c 0,0.86 0.69,1.55 1.55,1.55 h 8.35 c 0.85,0 1.55,-0.69 1.55,-1.55 v -6.75 h -4.44 c -1.39,0 -2.54,-1.14 -2.54,-2.54 v -4.34 c 0,-0.83 0.4,-1.56 1.02,-2.02 v 5.18 c 0,1.39 1.14,2.54 2.54,2.54 h 6.84 c 1.39,0 2.54,-1.14 2.54,-2.54 V 28.5 c -0.01,-1.39 -1.15,-2.54 -2.55,-2.54"
   id="path6" />
	</g>
	<g
   id="g10">
		<g
   id="Layer_1_00000116952799159011174390000017168342625225811855_">
			<g
   id="g7">
				<path
   d="m 223.38,67.58 c -0.96,0 -1.74,-0.78 -1.74,-1.74 v -5.17 c 0,-0.96 0.78,-1.74 1.74,-1.74 h 3.97 c 0.31,0 0.56,0.25 0.56,0.56 0,0.31 -0.25,0.56 -0.56,0.56 h -3.97 c -0.34,0 -0.62,0.28 -0.62,0.62 v 2.03 h 3.89 c 0.29,0 0.53,0.24 0.53,0.53 0,0.29 -0.24,0.53 -0.53,0.53 h -3.89 v 2.07 c 0,0.34 0.28,0.62 0.62,0.62 h 3.97 c 0.31,0 0.56,0.25 0.56,0.56 0,0.31 -0.25,0.56 -0.56,0.56 h -3.97 z m -17.78,0.11 c -1.14,0 -2.02,-0.29 -2.62,-0.86 -0.59,-0.57 -0.89,-1.43 -0.89,-2.56 v -4.81 c 0,-0.36 0.29,-0.65 0.65,-0.65 0.36,0 0.65,0.29 0.65,0.65 v 4.63 c 0,0.84 0.18,1.47 0.54,1.87 0.36,0.4 0.92,0.61 1.67,0.61 0.75,0 1.31,-0.21 1.67,-0.61 0.36,-0.4 0.54,-1.03 0.54,-1.87 v -4.63 c 0,-0.36 0.29,-0.65 0.65,-0.65 0.36,0 0.65,0.29 0.65,0.65 v 4.81 c 0,1.12 -0.3,1.98 -0.89,2.56 -0.6,0.57 -1.48,0.86 -2.62,0.86 m 9.81,0 c -1.47,0 -2.59,-0.42 -3.33,-1.24 -0.21,-0.24 -0.2,-0.61 0.03,-0.84 v 0 0 c 0.12,-0.12 0.27,-0.18 0.44,-0.18 0.18,0 0.34,0.07 0.45,0.21 0.21,0.24 0.44,0.43 0.7,0.58 0.45,0.25 1.02,0.38 1.69,0.38 0.64,0 1.14,-0.11 1.51,-0.33 0.38,-0.23 0.57,-0.55 0.57,-0.97 0,-0.34 -0.17,-0.62 -0.51,-0.82 -0.33,-0.2 -0.89,-0.37 -1.71,-0.52 -0.8,-0.15 -1.44,-0.33 -1.91,-0.55 -0.46,-0.21 -0.8,-0.48 -1.01,-0.8 -0.21,-0.31 -0.31,-0.7 -0.31,-1.16 0,-0.48 0.13,-0.92 0.4,-1.32 0.27,-0.39 0.66,-0.71 1.16,-0.94 0.51,-0.23 1.11,-0.35 1.78,-0.35 0.79,0 1.47,0.14 2.03,0.43 0.37,0.19 0.71,0.46 1.01,0.78 0.23,0.25 0.2,0.64 -0.05,0.87 -0.11,0.1 -0.26,0.16 -0.41,0.16 -0.19,0 -0.37,-0.09 -0.49,-0.24 -0.17,-0.22 -0.36,-0.39 -0.56,-0.53 -0.38,-0.24 -0.89,-0.37 -1.52,-0.37 -0.62,0 -1.11,0.13 -1.45,0.38 -0.35,0.25 -0.53,0.58 -0.53,0.98 0,0.37 0.17,0.67 0.52,0.89 0.33,0.21 0.91,0.39 1.77,0.55 0.78,0.14 1.4,0.32 1.86,0.53 0.45,0.21 0.78,0.47 0.99,0.79 0.2,0.31 0.31,0.7 0.31,1.16 0,0.5 -0.14,0.94 -0.42,1.31 -0.28,0.38 -0.69,0.67 -1.2,0.87 -0.53,0.19 -1.13,0.29 -1.81,0.29 m -19.55,0.01 c -1.47,0 -2.59,-0.42 -3.33,-1.24 -0.21,-0.24 -0.2,-0.61 0.03,-0.84 v 0 c 0.12,-0.12 0.27,-0.18 0.44,-0.18 0.18,0 0.34,0.07 0.45,0.21 0.21,0.24 0.44,0.43 0.7,0.58 0.45,0.25 1.02,0.38 1.69,0.38 0.64,0 1.14,-0.11 1.51,-0.33 0.38,-0.23 0.57,-0.55 0.57,-0.97 0,-0.34 -0.17,-0.62 -0.51,-0.82 -0.33,-0.2 -0.89,-0.37 -1.71,-0.52 -0.79,-0.15 -1.44,-0.33 -1.91,-0.55 -0.46,-0.22 -0.81,-0.48 -1.01,-0.8 -0.21,-0.31 -0.31,-0.7 -0.31,-1.16 0,-0.48 0.13,-0.92 0.4,-1.32 0.27,-0.39 0.66,-0.71 1.16,-0.94 0.51,-0.23 1.1,-0.35 1.78,-0.35 0.79,0 1.47,0.14 2.03,0.43 0.38,0.19 0.71,0.46 1.01,0.78 0.23,0.25 0.2,0.64 -0.05,0.87 -0.11,0.1 -0.26,0.16 -0.41,0.16 -0.19,0 -0.37,-0.09 -0.49,-0.24 -0.17,-0.22 -0.36,-0.39 -0.56,-0.53 -0.38,-0.24 -0.89,-0.37 -1.52,-0.37 -0.62,0 -1.11,0.13 -1.45,0.38 -0.35,0.25 -0.53,0.59 -0.53,0.98 0,0.37 0.17,0.67 0.52,0.89 0.33,0.21 0.91,0.39 1.77,0.55 0.78,0.14 1.4,0.32 1.86,0.53 0.45,0.21 0.78,0.48 0.99,0.79 0.2,0.31 0.31,0.7 0.31,1.16 0,0.5 -0.14,0.94 -0.42,1.31 -0.28,0.38 -0.69,0.67 -1.2,0.87 -0.53,0.18 -1.13,0.29 -1.81,0.29"
   id="path7" />
			</g>
		</g>
		<g
   id="g9">
			<path
   d="m 175.81,67.69 h -3.31 v -8.88 h 3.18 c 1.87,0 2.81,1.02 2.81,2.25 0,1.12 -0.7,1.77 -1.55,2.05 0.97,0.17 1.76,1.1 1.76,2.19 0,1.35 -1.05,2.39 -2.89,2.39 z m -0.23,-7.92 h -1.92 v 2.88 h 1.95 c 1.08,0 1.71,-0.53 1.71,-1.44 0,-0.88 -0.6,-1.44 -1.74,-1.44 z m 0.09,3.83 h -2.01 v 3.13 h 2.05 c 1.15,0 1.83,-0.57 1.83,-1.54 0,-0.97 -0.73,-1.59 -1.87,-1.59 z"
   id="path8" />
			<path
   d="m 180.21,58.81 h 1.29 l 2.19,4.5 2.19,-4.5 h 1.29 l -2.89,5.53 v 3.35 h -1.16 v -3.35 z"
   id="path9" />
		</g>
	</g>
	<path
   d="m 94.4,26.84 h 9.41 c 4.47,0 7.48,2.17 7.48,6.36 0,3.42 -2.33,5.48 -4.6,6.19 0.68,0.58 1.18,1.35 1.59,2.17 0.95,1.93 1.59,4.06 3.59,4.06 0.51,0 0.91,-0.17 0.91,-0.17 l -0.44,4.03 c 0,0 -1.22,0.3 -2.27,0.3 -2.71,0 -4.26,-1.05 -5.85,-4.67 -0.68,-1.62 -1.62,-4.47 -2.88,-4.47 h -1.29 v 9.03 H 94.4 V 26.84 m 5.65,4.09 v 5.62 h 2.03 c 1.62,0 3.52,-0.51 3.52,-2.94 0,-2 -1.29,-2.67 -2.84,-2.67 h -2.71 z"
   id="path10" />
	<path
   d="m 118.92,26.84 h 5.72 l 7.71,22.84 h -5.72 l -1.42,-4.33 h -7.65 l -1.39,4.33 h -4.94 l 7.69,-22.84 m 0,14.31 h 4.91 l -1.56,-4.8 c -0.54,-1.62 -0.78,-3.92 -0.78,-3.92 h -0.14 c 0,0 -0.34,2.33 -0.85,3.89 z"
   id="path11" />
	<path
   d="m 132.59,26.84 h 6.06 l 5.99,11.33 c 0.51,0.98 1.18,2.71 1.73,4.06 h 0.14 c -0.07,-1.29 -0.24,-3.11 -0.24,-4.43 V 26.84 h 4.63 v 22.84 h -5.92 l -6.22,-11.3 c -0.58,-1.02 -1.18,-2.5 -1.66,-3.72 h -0.14 c 0.1,1.29 0.27,2.81 0.27,4.06 v 10.96 h -4.64 V 26.84"
   id="path12" />
	<path
   d="m 152.1,38.1 c 0,-8.25 4.09,-11.67 10.42,-11.67 6.66,0 9.34,3.65 8.59,8.59 l -5.28,0.47 c 0.58,-3.62 -0.85,-5.07 -3.42,-5.07 -2.47,0 -4.47,1.83 -4.47,7.71 0,6.23 2.17,7.82 4.63,7.82 2.33,0 4.23,-1.46 3.82,-4.43 l 4.94,0.51 c 0.37,4.63 -2.98,8.05 -9.07,8.05 -6.16,0 -10.16,-3.65 -10.16,-11.98"
   id="path13" />
	<polyline
   points="172.5,26.84 178.15,26.84 178.15,35.47 185.09,35.47 185.09,26.84 190.74,26.84 190.74,49.68 185.09,49.68    185.09,40 178.15,40 178.15,49.68 172.5,49.68 172.5,26.84  "
   id="polyline13" />
	<polyline
   points="193,26.84 208.12,26.84 208.12,31.03 198.65,31.03 198.65,35.94 206.6,35.94 206.6,40.13 198.65,40.13    198.65,45.48 208.46,45.48 208.46,49.68 193,49.68 193,26.84  "
   id="polyline14" />
	<path
   d="m 209.54,26.84 h 9.41 c 4.47,0 7.48,2.17 7.48,6.36 0,3.42 -2.33,5.48 -4.6,6.19 0.68,0.58 1.18,1.35 1.59,2.17 0.95,1.93 1.59,4.06 3.59,4.06 0.51,0 0.91,-0.17 0.91,-0.17 l -0.44,4.03 c 0,0 -1.22,0.3 -2.27,0.3 -2.71,0 -4.26,-1.05 -5.85,-4.67 -0.68,-1.62 -1.62,-4.47 -2.88,-4.47 h -1.29 v 9.03 h -5.65 V 26.84 m 5.65,4.09 v 5.62 h 2.03 c 1.62,0 3.52,-0.51 3.52,-2.94 0,-2 -1.29,-2.67 -2.84,-2.67 h -2.71 z"
   id="path14" />
	<path
   d="m 228.5,28.28 c 0,-1.29 0.96,-1.85 1.84,-1.85 0.89,0 1.84,0.55 1.84,1.85 0,1.26 -0.96,1.82 -1.84,1.82 -0.89,0 -1.84,-0.55 -1.84,-1.82 m 3.24,-0.01 c 0,-1.01 -0.66,-1.45 -1.4,-1.45 -0.74,0 -1.42,0.44 -1.42,1.45 0,1 0.68,1.44 1.42,1.44 0.74,0 1.4,-0.43 1.4,-1.44 z m -2.01,-0.91 h 0.65 c 0.33,0 0.66,0.09 0.66,0.56 0,0.28 -0.18,0.43 -0.43,0.48 l 0.43,0.74 h -0.4 l -0.4,-0.72 h -0.16 v 0.72 h -0.36 v -1.78 z m 0.68,0.81 c 0.15,0 0.28,-0.09 0.28,-0.26 0,-0.19 -0.15,-0.24 -0.28,-0.24 h -0.32 v 0.5 z"
   id="path15" />
</g>
</svg>
