<?xml version="1.0" encoding="utf-8"?>
<!-- Generator: Adobe Illustrator 26.5.0, SVG Export Plug-In . SVG Version: 6.00 Build 0)  -->
<svg version="1.1" id="Layer_1" xmlns="http://www.w3.org/2000/svg" xmlns:xlink="http://www.w3.org/1999/xlink" x="0px" y="0px"
	 viewBox="0 0 24 24" style="enable-background:new 0 0 24 24;" xml:space="preserve">
<path d="M3.3,16.3h17.4v2.1H3.3V16.3z M18.1,8.2c0-1.4-1.1-2.5-2.5-2.5h-7C7.2,5.7,6,6.8,6,8.2l0,0v6.7h12V8.2z M15.8,12.8H8.2V8.2
	c0-0.2,0.2-0.3,0.4-0.3h7c0.2,0,0.3,0.1,0.3,0.3l0,0V12.8z M4.6,10.8V8.7H3.3L3.1,8.5V5.7H1v2.8c0,1.3,1,2.3,2.3,2.3l0,0H4.6z
	 M20.9,5.7v2.8l-0.2,0.2h-1.2v2.1h1.2c1.3,0,2.3-1,2.3-2.3V5.7H20.9z"/>
</svg>
