<svg id="Layer_1" data-name="Layer 1" xmlns="http://www.w3.org/2000/svg" viewBox="0 0 698.95427 127.43307"><defs><style>.cls-1{fill:#5a5a5c;}.cls-2{fill:#f15354;}.cls-3{fill:#0976a8;}</style></defs><title>rancher-federal-final-logos</title><path class="cls-1" d="M293.64426,1.23h28.56c13.56,0,22.7,6.57,22.7,19.31,0,10.37-7.09,16.64-14,18.8a20.57,20.57,0,0,1,4.83,6.57c2.88,5.85,4.83,12.32,10.89,12.32a8.00011,8.00011,0,0,0,2.77-.51l-1.34,12.22a33.59976,33.59976,0,0,1-6.88.92c-8.19.01-12.88-3.16-17.74-14.16-2.05-4.93-4.93-13.56-8.73-13.56h-3.9V70.56h-17.16Zm17.16,12.47v17h6.16c4.93,0,10.68-1.54,10.68-8.93,0-6.06-3.9-8.12-8.63-8.12h-8.21Z"/><path class="cls-1" d="M368.10426,1.23h17.36l23.42,69.33h-17.36l-4.31-13.15h-23.22l-4.21,13.15h-15Zm0,43.45h14.89l-4.7-14.58a67.81029,67.81029,0,0,1-2.36-11.91h-.44a87.92062,87.92062,0,0,1-2.57,11.81Z"/><path class="cls-1" d="M409.58426,1.23h18.39l18.18,34.41c1.54,3,3.59,8.22,5.24,12.32h.41c-.2-3.9-.72-9.45-.72-13.45V1.23h14.07V70.56h-18l-18.86-34.3a95.99919,95.99919,0,0,1-5-11.3h-.41c.31,3.9.82,8.53.82,12.32V70.56h-14.12Z"/><path class="cls-1" d="M468.84427,35.44c0-25.06,12.43-35.44,31.63-35.44,20.23,0,28.35,11.09,26.09,26.09l-16,1.44c1.75-11-2.57-15.41-10.37-15.41-7.5,0-13.56,5.55-13.56,23.42,0,18.9,6.57,23.73,14.07,23.73,7.09,0,12.84-4.42,11.61-13.46l15,1.54c1.13,14.07-9,24.44-27.53,24.44-18.8,0-30.92-11.09-30.92-36.36"/><polygon class="cls-1" points="532.764 1.23 549.924 1.23 549.924 27.43 570.974 27.43 570.974 1.23 588.124 1.23 588.124 70.56 570.974 70.56 570.974 41.19 549.924 41.19 549.924 70.56 532.764 70.56 532.764 1.23"/><polygon class="cls-1" points="592.994 1.23 638.914 1.23 638.914 13.97 610.154 13.97 610.154 28.86 634.284 28.86 634.284 41.6 610.154 41.6 610.154 57.83 639.934 57.83 639.934 70.56 592.994 70.56 592.994 1.23"/><path class="cls-1" d="M643.21428,1.23h28.55c13.56,0,22.7,6.57,22.7,19.31,0,10.37-7.09,16.64-14,18.8a20.56,20.56,0,0,1,4.83,6.57c2.88,5.85,4.83,12.32,10.89,12.32a8.0001,8.0001,0,0,0,2.77-.51l-1.33,12.22a33.61969,33.61969,0,0,1-6.88.92c-8.22,0-12.94-3.18-17.77-14.17-2.05-4.93-4.93-13.56-8.73-13.56h-3.9V70.55h-17.13Zm17.15,12.47v17h6.16c4.93,0,10.68-1.54,10.68-8.93,0-6.06-3.9-8.12-8.63-8.12h-8.22Z"/><path class="cls-1" d="M293.64426,92.03267h21.19922v3H296.94407v12.60059h16.64941v3H296.94407v16.79981h-3.29981Z"/><path class="cls-1" d="M326.44407,92.03267h21.64941v3H329.74387v12.60059h17.2002v3h-17.2002v13.79981h19.14942v3H326.44407Z"/><path class="cls-1" d="M360.64329,92.03267h10.95019a23.66934,23.66934,0,0,1,7.79981,1.125,17.38322,17.38322,0,0,1,5.32519,2.875,14.3204,14.3204,0,0,1,3.34961,3.875,18.95191,18.95191,0,0,1,2.52539,7.60059q.14941,1.57471.14942,2.22461,0,.65038-.14942,2.22559a18.95453,18.95453,0,0,1-2.52539,7.59961,14.27692,14.27692,0,0,1-3.34961,3.875,17.36243,17.36243,0,0,1-5.32519,2.875,23.66934,23.66934,0,0,1-7.79981,1.125H360.64329Zm3.2998,32.4004h6.79981a23.63312,23.63312,0,0,0,6.5498-.875,14.991,14.991,0,0,0,5.30078-2.67481,12.61183,12.61183,0,0,0,3.54981-4.57519,17.28063,17.28063,0,0,0,0-13.1504,12.60008,12.60008,0,0,0-3.54981-4.57421,15.00886,15.00886,0,0,0-5.30078-2.67579,23.70644,23.70644,0,0,0-6.5498-.875h-6.79981Z"/><path class="cls-1" d="M403.14329,92.03267h21.65039v3H406.44309v12.60059h17.2002v3h-17.2002v13.79981H425.5925v3H403.14329Z"/><path class="cls-1" d="M437.79172,92.03267h9.30078q.69873,0,1.89942.05079a19.41344,19.41344,0,0,1,2.60058.2998,16.01914,16.01914,0,0,1,2.84961.79981,8.0829,8.0829,0,0,1,2.59961,1.5996,8.316,8.316,0,0,1,1.90039,2.6504,9.14946,9.14946,0,0,1,.75,3.90039,8.92148,8.92148,0,0,1-.875,4.19921,8.157,8.157,0,0,1-2.20019,2.67579,9.24735,9.24735,0,0,1-2.92481,1.52441,18.84007,18.84007,0,0,1-3.0498.7002l10.2998,17h-3.75l-9.95019-16.79981H441.0925v16.79981h-3.30078Zm3.30078,15.60059h7a11.53491,11.53491,0,0,0,4.22461-.65039,7,7,0,0,0,2.52539-1.59961,5.06375,5.06375,0,0,0,1.22461-2.0498,6.31266,6.31266,0,0,0,0-4,5.07338,5.07338,0,0,0-1.22461-2.05079,7.02615,7.02615,0,0,0-2.52539-1.5996,11.55548,11.55548,0,0,0-4.22461-.6504h-7Z"/><path class="cls-1" d="M483.29172,92.03267h3.39942l14.90039,35.4004h-3.7002l-3.84961-9.4004h-18.75l-4,9.4004h-3.45019Zm1.54981,3.60059-8.25,19.39941h16.25Z"/><path class="cls-1" d="M511.69114,92.03267h3.30078v32.4004h16.5v3H511.69114Z"/><rect class="cls-2" x="123.32253" y="1.25541" width="139.45627" height="17.92091"/><rect class="cls-2" x="123.32253" y="37.09723" width="139.45627" height="17.92091"/><rect class="cls-2" y="72.93905" width="262.7788" height="17.92091"/><rect class="cls-2" y="108.78087" width="262.7788" height="17.92091"/><path class="cls-3" d="M114.42817,13.05l-1.2403-7.43038c-.40009-2.412-1.33175-4.36678-2.06907-4.36678s-1.34319,1.98334-1.34319,4.40679v1.949a4.41821,4.41821,0,0,1-4.40679,4.40679h-2.36628v5.35559h7.74474a3.618,3.618,0,0,0,3.68089-4.34963"/><path class="cls-3" d="M96.8639,6.74563H72.49225a2.69113,2.69113,0,0,0-.41725.03429V5.63678c0-2.42344-.60586-4.40678-1.34318-4.40678s-1.669,1.95476-2.06908,4.34963L67.42244,13.01a3.618,3.618,0,0,0,3.6809,4.34963h7.3275a6.68185,6.68185,0,0,0,2.08621-.32579,2.69209,2.69209,0,0,1-2.64064,2.19482H67.58819a2.69213,2.69213,0,0,1-2.63493-3.115L65.99352,9.8721a2.69211,2.69211,0,0,0-2.65208-3.13219H12.18612A2.68638,2.68638,0,0,0,9.73981,8.3403L.1089,22.97244a.6687.6687,0,0,0,.05144.80019L2.02365,25.996a.66873.66873,0,0,0,.92594.09145L9.494,20.94337V52.271a2.69209,2.69209,0,0,0,2.67488,2.70918l.0172.00005H26.704A2.69208,2.69208,0,0,0,29.396,52.28815V41.37121a2.69209,2.69209,0,0,1,2.69208-2.69209H68.33123a2.69209,2.69209,0,0,1,2.69209,2.69209V52.271a2.69209,2.69209,0,0,0,2.67487,2.70919l.0115,0H88.22751a2.69209,2.69209,0,0,0,2.69209-2.69208h0V40.54243H83.20914a4.41823,4.41823,0,0,1-4.40679-4.42393V28.591a4.4011,4.4011,0,0,1,1.77186-3.52086v9.00219a4.41823,4.41823,0,0,0,4.38393,4.40679H96.841a4.41822,4.41822,0,0,0,4.40679-4.40679V11.15241A4.41822,4.41822,0,0,0,96.841,6.74563"/></svg>