<?xml version="1.0" encoding="UTF-8" standalone="no"?>
<svg
   height="24px"
   viewBox="0 -960 960 960"
   width="24px"
   fill="#1f1f1f"
   version="1.1"
   id="svg134"
   xmlns="http://www.w3.org/2000/svg"
   xmlns:svg="http://www.w3.org/2000/svg">
  <defs
     id="defs138" />
  <path
     d="m 589.40143,-675.50277 q 18.093,-18.093 43.05067,-18.093 24.95767,0 43.05067,18.093 18.093,18.093 18.093,43.05067 0,24.95767 -18.093,43.05067 -18.093,18.093 -43.05067,18.093 -24.95767,0 -43.05067,-18.093 -18.093,-18.093 -18.093,-43.05067 0,-24.95767 18.093,-43.05067 z m -509.218622,595.319962 1.346707,-221.978082 104.937635,-14.8137 16.81626,-109.63359 103.93198,-20.52405 94.91609,-94.9161 q -25.97207,-65.7784 -12.2165,-138.59637 13.75558,-72.81799 67.64106,-126.70347 72.65183,-72.65182 174.89606,-72.65182 102.24424,0 174.89607,72.65182 72.65182,72.65183 72.65182,174.89607 0,102.24423 -72.65182,174.89606 -53.88548,53.88548 -126.36241,67.9821 -72.48567,14.08788 -138.93743,-12.55754 L 220.09966,-80.182808 Z M 492.53526,-772.36896 q -51.6643,51.6643 -57.07733,119.23539 -5.41304,67.57111 27.14386,120.57336 l -131.51309,131.51309 -83.88015,16.21287 -18.35534,111.59242 -99.42841,13.99169 v 129.82534 h 69.95842 l 333.17699,-333.17699 q 53.00225,32.5569 120.57336,27.14386 67.57109,-5.41303 119.23539,-57.07733 57.71569,-57.71569 57.71569,-139.91684 0,-82.20115 -57.71569,-139.91686 -57.71571,-57.71569 -139.91686,-57.71569 -82.20115,0 -139.91684,57.71569 z"
     id="path132"
     style="stroke-width:1" />
</svg>
