<?xml version="1.0" encoding="utf-8"?>
<!-- Generator: Adobe Illustrator 25.2.1, SVG Export Plug-In . SVG Version: 6.00 Build 0)  -->
<svg version="1.1" id="Layer_1" xmlns="http://www.w3.org/2000/svg" xmlns:xlink="http://www.w3.org/1999/xlink" x="0px" y="0px"
	 viewBox="0 0 4060 635" style="enable-background:new 0 0 4060 635;" xml:space="preserve">
<style type="text/css">
	.st0{fill:#93DD8F;}
	.st1{fill:#67BA7D;}
	.st2{fill:#0D8E84;}
	.st3{fill:#FFFFFF;}
	.st4{fill:#54BFEE;}
	.st5{fill:#2C3E50;}
	.st6{fill:#2E729D;}
	.st7{fill:#065667;}
</style>
<g>
	<rect id="Rectangle_2183" y="241" class="st0" width="4060" height="343.3"/>
	<polygon class="st1" points="1467.9,241 1432.4,241 1088.8,584.2 1124.6,584.2 	"/>
	<polygon class="st1" points="1396.5,241 1360.7,241 1017.4,584.2 1053.3,584.2 	"/>
	<polygon class="st1" points="1611.3,241 1575.4,241 1232.2,584.2 1268,584.2 	"/>
	<polygon class="st1" points="1539.6,241 1503.7,241 1160.5,584.2 1196.3,584.2 	"/>
	<polygon class="st1" points="1181.8,241 1145.9,241 802.7,584.2 838.5,584.2 	"/>
	<polygon class="st1" points="2183.5,241 2148,241 1804.4,584.2 1840.3,584.2 	"/>
	<polygon class="st1" points="1253.5,241 1217.6,241 874.4,584.2 910.2,584.2 	"/>
	<polygon class="st1" points="1682.6,241 1646.8,241 1303.5,584.2 1339.4,584.2 	"/>
	<polygon class="st1" points="2040.5,241 2004.6,241 1661.4,584.2 1697.2,584.2 	"/>
	<polygon class="st1" points="2112.2,241 2076.3,241 1733.1,584.2 1768.9,584.2 	"/>
	<polygon class="st1" points="1968.7,241 1932.9,241 1589.6,584.2 1625.5,584.2 	"/>
	<polygon class="st1" points="1897.4,241 1861.5,241 1518.3,584.2 1554.2,584.2 	"/>
	<polygon class="st1" points="1754.4,241 1718.5,241 1375.2,584.2 1411.1,584.2 	"/>
	<polygon class="st1" points="1825.7,241 1790.2,241 1446.6,584.2 1482.4,584.2 	"/>
	<polygon class="st1" points="1110.1,241 1074.6,241 730.9,584.2 766.8,584.2 	"/>
	<polygon class="st1" points="1325.2,241 1289.3,241 946.1,584.2 981.6,584.2 	"/>
	<polygon class="st1" points="322.7,241 286.9,241 0,527.8 0,563.7 	"/>
	<polygon class="st1" points="251,241 215.1,241 0,456.5 0,491.9 	"/>
	<polygon class="st1" points="394,241 358.2,241 14.9,584.2 50.8,584.2 	"/>
	<polygon class="st1" points="465.8,241 429.9,241 86.7,584.2 122.5,584.2 	"/>
	<polygon class="st1" points="36.2,241 0.4,241 0,241.7 0,277.6 	"/>
	<polygon class="st1" points="179.7,241 143.8,241 0,384.8 0,420.6 	"/>
	<polygon class="st1" points="107.9,241 72.1,241 0,313.4 0,349.3 	"/>
	<polygon class="st1" points="537.1,241 501.2,241 158,584.2 193.8,584.2 	"/>
	<polygon class="st1" points="1038.3,241 1002.5,241 659.2,584.2 694.7,584.2 	"/>
	<polygon class="st1" points="894.9,241 859.1,241 515.8,584.2 551.7,584.2 	"/>
	<polygon class="st1" points="966.6,241 930.8,241 587.5,584.2 623.4,584.2 	"/>
	<polygon class="st1" points="751.9,241 716,241 372.8,584.2 408.6,584.2 	"/>
	<polygon class="st1" points="608.8,241 573,241 229.7,584.2 265.6,584.2 	"/>
	<polygon class="st1" points="680.5,241 644.7,241 301.4,584.2 336.9,584.2 	"/>
	<polygon class="st1" points="823.2,241 787.7,241 444.1,584.2 480,584.2 	"/>
	<polygon class="st1" points="3686.9,241 3651,241 3307.8,584.2 3343.6,584.2 	"/>
	<polygon class="st1" points="3901.6,241 3865.8,241 3522.5,584.2 3558.4,584.2 	"/>
	<polygon class="st1" points="3829.9,241 3794.4,241 3450.8,584.2 3486.7,584.2 	"/>
	<polygon class="st1" points="3758.6,241 3722.7,241 3379.5,584.2 3415.3,584.2 	"/>
	<polygon class="st1" points="3615.5,241 3579.7,241 3236.4,584.2 3272.3,584.2 	"/>
	<polygon class="st1" points="3472.1,241 3436.6,241 3093,584.2 3128.9,584.2 	"/>
	<polygon class="st1" points="3543.8,241 3508,241 3164.7,584.2 3200.6,584.2 	"/>
	<polygon class="st1" points="4044.7,241 4008.8,241 3665.6,584.2 3701.4,584.2 	"/>
	<polygon class="st1" points="4060,512.1 4060,476.3 3951.7,584.2 3987.5,584.2 	"/>
	<polygon class="st1" points="4060,440.4 4060,404.5 3880.3,584.2 3915.8,584.2 	"/>
	<polygon class="st1" points="4060,583.8 4060,548 4023.4,584.2 4059.3,584.2 	"/>
	<polygon class="st1" points="4060,297.4 4060,261.9 3737.3,584.2 3773.1,584.2 	"/>
	<polygon class="st1" points="4060,369.1 4060,333.2 3809,584.2 3844.5,584.2 	"/>
	<polygon class="st1" points="2255.2,241 2219.4,241 1876.1,584.2 1912,584.2 	"/>
	<polygon class="st1" points="3973,241 3937.1,241 3593.9,584.2 3629.7,584.2 	"/>
	<polygon class="st1" points="3400.8,241 3364.9,241 3021.7,584.2 3057.5,584.2 	"/>
	<polygon class="st1" points="2613,241 2577.2,241 2233.9,584.2 2269.8,584.2 	"/>
	<polygon class="st1" points="2756.1,241 2720.2,241 2377,584.2 2412.8,584.2 	"/>
	<polygon class="st1" points="3328.7,241 3292.8,241 2949.6,584.2 2985.4,584.2 	"/>
	<polygon class="st1" points="2684.8,241 2648.9,241 2305.6,584.2 2341.1,584.2 	"/>
	<polygon class="st1" points="2326.9,241 2291.1,241 1947.8,584.2 1983.3,584.2 	"/>
	<polygon class="st1" points="2470,241 2434.1,241 2090.9,584.2 2126.7,584.2 	"/>
	<polygon class="st1" points="2398.3,241 2362.4,241 2019.2,584.2 2055,584.2 	"/>
	<polygon class="st1" points="2541.3,241 2505.5,241 2162.2,584.2 2198.1,584.2 	"/>
	<polygon class="st1" points="3185.3,241 3149.8,241 2806.1,584.2 2842,584.2 	"/>
	<polygon class="st1" points="3257,241 3221.1,241 2877.9,584.2 2913.7,584.2 	"/>
	<polygon class="st1" points="2827.4,241 2792,241 2448.3,584.2 2484.2,584.2 	"/>
	<polygon class="st1" points="3113.9,241 3078.1,241 2734.8,584.2 2770.7,584.2 	"/>
	<polygon class="st1" points="2899.1,241 2863.3,241 2520,584.2 2555.9,584.2 	"/>
	<polygon class="st1" points="3042.6,241 3006.7,241 2663.5,584.2 2698.9,584.2 	"/>
	<polygon class="st1" points="2970.9,241 2935,241 2591.8,584.2 2627.6,584.2 	"/>
	<rect id="Rectangle_2185" y="381.8" class="st1" width="4060" height="202.4"/>
	<rect id="Rectangle_2186" y="407.2" class="st2" width="4060" height="25.4"/>
	<rect id="Rectangle_2187" y="458" class="st2" width="4060" height="25.4"/>
	<rect id="Rectangle_2188" y="508.4" class="st2" width="4060" height="25.4"/>
	<rect id="Rectangle_2189" y="559.2" class="st2" width="4060" height="25.4"/>
	<path id="Path_2050" class="st3" d="M406.7,381.8H225.6V241l30.3-40.3l60.9-30.3l59.8,30.3l30.3,40.3L406.7,381.8z"/>
	<path id="Path_2051" class="st4" d="M497.1,381.8H315.6V241l30.3-40.3l60.9-30.3l59.8,30.3l30.3,40.3L497.1,381.8z"/>
	<rect id="Rectangle_2190" x="225.6" y="241" class="st3" width="90" height="140.8"/>
	<path id="Path_2052" class="st5" d="M255.9,200.6h90l60.9-30.3h-91.1L255.9,200.6z"/>
	<path id="Path_2053" class="st6" d="M315.6,241l30.3-40.3h-90L225.6,241H315.6z"/>
	<rect id="Rectangle_2191" x="367.5" y="296.6" class="st3" width="77.7" height="85.2"/>
	<rect id="Rectangle_2192" x="377.6" y="307.1" class="st5" width="57.5" height="65"/>
	
		<rect id="Rectangle_2193" x="388.4" y="304.1" transform="matrix(0.9231 -0.3846 0.3846 0.9231 -100.3674 176.4762)" class="st3" width="5.2" height="70.2"/>
	
		<rect id="Rectangle_2194" x="356.2" y="336.8" transform="matrix(0.3844 -0.9232 0.9232 0.3844 -72.3986 570.162)" class="st3" width="70.2" height="5.2"/>
	
		<rect id="Rectangle_2195" x="419.1" y="304.1" transform="matrix(0.9231 -0.3846 0.3846 0.9231 -98.0249 188.261)" class="st3" width="5.2" height="70.2"/>
	
		<rect id="Rectangle_2196" x="386.9" y="336.8" transform="matrix(0.3844 -0.9232 0.9232 0.3844 -53.5894 598.5452)" class="st3" width="70.2" height="5.2"/>
	<rect id="Rectangle_2197" x="403.8" y="307.1" class="st3" width="5.2" height="65"/>
	<circle id="Ellipse_584" class="st5" cx="406" cy="251" r="22.4"/>
	<path id="Path_2054" class="st6" d="M3840.8,469.9l-0.4,0.4v-27.6l-80.3-63.1l-80.3,63.1v27.6l-0.4-0.4l-69.8,52.3V582h301v-59.8
		L3840.8,469.9z"/>
	<path id="Path_2055" class="st3" d="M3583,582.3h-160.6V442.6l80.3-63.1l80.3,63.1V582.3z"/>
	<path id="Path_2056" class="st3" d="M3502.4,582.3h-150.1v-59.8l69.8-52.3l80.3,63.1V582.3z"/>
	<path id="Path_2057" class="st3" d="M3653.6,582.3h-150.1V533l80.3-63.1l69.8,52.3V582.3z"/>
	<rect id="Rectangle_2198" x="3473.2" y="515.1" class="st6" width="59.4" height="67.2"/>
	<rect id="Rectangle_2199" x="3473.2" y="430.3" class="st6" width="59.4" height="58.6"/>
	<path id="Path_2058" class="st5" d="M3503.5,379.5h257l79.9,63.1h-257L3503.5,379.5z"/>
	<path id="Path_2059" class="st5" d="M3583,469.9h257l69.1,52.3h-257L3583,469.9z"/>
	<rect id="Rectangle_2200" x="3583" y="442.6" class="st6" width="257" height="27.3"/>
	<path id="Path_2060" class="st3" d="M3840.8,87.1c0-22.4-18.3-40.3-40.3-40.3c-22.4,0-40.3,18.3-40.3,40.3V241h81.1V87.1H3840.8z"
		/>
	<path id="Path_2061" class="st6" d="M3759.7,87.1h40.3V46.7C3778,46.7,3759.7,64.7,3759.7,87.1z"/>
	<rect id="Rectangle_2201" x="3800.4" y="87.1" class="st6" width="40.3" height="153.9"/>
	<path id="Path_2062" class="st5" d="M3800.4,46.7v40.3h40.3C3840.8,64.7,3822.5,46.7,3800.4,46.7L3800.4,46.7z"/>
	<path id="Path_2063" class="st5" d="M3714.5,98.3l-0.4,0.4v-0.4h-128.5v0.4c-6,3.7-63.9,40.3-63.9,74V241h257.3v-68.4
		C3779.1,137.1,3714.5,98.3,3714.5,98.3z"/>
	<path id="Path_2064" class="st3" d="M3650.3,172.6c0-35.5-64.2-74.3-64.2-74.3s-64.2,38.8-64.2,74.3V241h128.5V172.6z"/>
	<path id="Path_2065" class="st6" d="M3562.1,241v-46.7c1.1-3,6.7-11.6,21.7-24.3c0.7-0.4,1.5-1.1,1.9-1.5c0.7,0.7,1.9,1.5,2.6,2.2
		c14.6,12.3,19.8,20.9,20.9,23.5V241H3562.1z"/>
	<rect id="Rectangle_2202" x="3650.3" y="173.3" class="st6" width="128.5" height="68"/>
	<path id="Path_2066" class="st5" d="M3692.8,207.7c0-6.3-11.6-13.4-11.6-13.4s-11.6,7.1-11.6,13.4v12.7h23.5L3692.8,207.7z"/>
	<path id="Path_2067" class="st5" d="M3726.5,207.7c0-6.3-11.6-13.4-11.6-13.4s-11.6,7.1-11.6,13.4v12.7h23.5v-12.7H3726.5z"/>
	<path id="Path_2068" class="st5" d="M3759.7,207.7c0-6.3-11.6-13.4-11.6-13.4s-11.6,7.1-11.6,13.4v12.7h23.5L3759.7,207.7z"/>
	<path id="Path_2069" class="st7" d="M135.6,508.4c0,16.8-13.4,30.3-30.3,30.3l0,0c-16.8,0-30.3-13.4-30.3-30.3v-30.3
		c0-16.8,13.4-30.3,30.3-30.3l0,0c16.8,0,30.3,13.4,30.3,30.3l0,0V508.4z"/>
	<rect id="Rectangle_2203" x="97.1" y="528.2" class="st7" width="15.3" height="64.2"/>
	<circle id="Ellipse_585" class="st7" cx="155.4" cy="548.3" r="25.8"/>
	<rect id="Rectangle_2204" x="148.3" y="564.8" class="st7" width="13.1" height="54.5"/>
	<path id="Path_2070_2_" class="st7" d="M0,635h4060v-52.7H0V635z"/>
</g>
</svg>
