<?xml version="1.0" encoding="UTF-8" standalone="no"?>
<svg
   xmlns="http://www.w3.org/2000/svg"
   height="640"
   width="4201.7998"
   id="svg724"
   version="1.1"
   viewBox="0 0 4201.8 639.99999"
   style="background-color: #f2f5f5"
   enable-background="new 0 0 4201.8 482.1">
  <path
     id="path584"
     fill="#6ba939"
     d="M 1311.3,636.1 H 3035.1 C 2897,480.4 2432.2,430.7 2183.2,430.7 c -249,0 -673.6,52.8 -871.9,205.4 z" />
  <path
     id="path586"
     fill="#abc53e"
     d="m 2571.1,533.2 c 0,-26 -7.4,-56.1 -22.4,-56.1 -15,0 -22.4,30.1 -22.4,56.1 0,9.5 7.4,17.2 22.4,17.2 15,0 22.4,-7.7 22.4,-17.2 z" />
  <path
     id="path588"
     fill="#a2ba3b"
     d="m 2571.1,533.2 c 0,-26 -7.4,-56.1 -22.4,-56.1 v 73.3 c 15,0 22.4,-7.7 22.4,-17.2 z" />
  <path
     id="path590"
     fill="#594a41"
     d="m 2548.7,577.4 c -1.1,0 -2.1,-0.9 -2.1,-2.1 v -64.2 c 0,-1.1 0.9,-2.1 2.1,-2.1 1.2,0 2.1,0.9 2.1,2.1 v 64.2 c 0,1.2 -0.9,2.1 -2.1,2.1 z" />
  <path
     id="path592"
     fill="#594a41"
     d="m 2548.7,536.7 c -0.5,0 -1.1,-0.2 -1.5,-0.6 l -9.5,-9.5 c -0.8,-0.8 -0.8,-2.1 0,-2.9 0.8,-0.8 2.1,-0.8 2.9,0 l 9.5,9.5 c 0.8,0.8 0.8,2.1 0,2.9 -0.3,0.4 -0.9,0.6 -1.4,0.6 z" />
  <path
     id="path594"
     fill="#594a41"
     d="m 2548.7,528.4 c -0.5,0 -1.1,-0.2 -1.5,-0.6 -0.8,-0.8 -0.8,-2.1 0,-2.9 l 12.7,-12.7 c 0.8,-0.8 2.1,-0.8 2.9,0 0.8,0.8 0.8,2.1 0,2.9 l -12.7,12.7 c -0.3,0.4 -0.9,0.6 -1.4,0.6 z" />
  <path
     id="path596"
     fill="#bbd644"
     d="m 3553.7,636.1 v -0.3 h 643.5 C 4071.3,451.7 3810.4,325.1 3509,325.1 c -31.5,0 -62.6,1.4 -93.1,4.1 -282.1,10.9 -523.8,132.8 -644.6,306.9 z" />
  <path
     id="path598"
     fill="#8dc63f"
     d="M 753.4,636.1 H 2123.9 C 1940.3,498.5 1683.5,413 1399.3,413 1153.7,413 928.6,476.9 753.4,583.1 Z" />
  <path
     id="path600"
     fill="#6ba939"
     d="m 1665.2,517 c 0,22.9 -18.6,41.5 -41.5,41.5 -22.9,0 -41.5,-18.6 -41.5,-41.5 0,-22.9 18.6,-41.5 41.5,-41.5 23,0 41.5,18.6 41.5,41.5 z" />
  <path
     id="path602"
     fill="#5c9531"
     d="m 1665.2,517 c 0,-22.9 -18.6,-41.5 -41.5,-41.5 v 82.9 c 23,0 41.5,-18.5 41.5,-41.4 z" />
  <path
     id="path604"
     fill="#594a41"
     d="m 1623.8,583.1 c -1.1,0 -2.1,-0.9 -2.1,-2.1 v -58 c 0,-1.1 0.9,-2.1 2.1,-2.1 1.1,0 2.1,0.9 2.1,2.1 v 58 c 0,1.2 -1,2.1 -2.1,2.1 z" />
  <path
     id="path606"
     fill="#594a41"
     d="m 1623.8,546.2 c -0.5,0 -1.1,-0.2 -1.5,-0.6 -0.8,-0.8 -0.8,-2.1 0,-2.9 l 8.6,-8.6 c 0.8,-0.8 2.1,-0.8 2.9,0 0.8,0.8 0.8,2.1 0,2.9 l -8.6,8.6 c -0.4,0.4 -0.9,0.6 -1.4,0.6 z" />
  <path
     id="path608"
     fill="#594a41"
     d="m 1623.8,538.7 c -0.5,0 -1.1,-0.2 -1.5,-0.6 l -11.5,-11.5 c -0.8,-0.8 -0.8,-2.1 0,-2.9 0.8,-0.8 2.1,-0.8 2.9,0 l 11.5,11.5 c 0.8,0.8 0.8,2.1 0,2.9 -0.4,0.4 -0.9,0.6 -1.4,0.6 z" />
  <path
     id="path610"
     fill="#dbe13a"
     d="m 1532,439.2 c 0,-26 -7.4,-56.1 -22.4,-56.1 -15,0 -22.4,30.1 -22.4,56.1 0,9.5 7.4,17.2 22.4,17.2 15,0.1 22.4,-7.6 22.4,-17.2 z" />
  <path
     id="path612"
     fill="#bbd644"
     d="m 1532,439.2 c 0,-26 -7.4,-56.1 -22.4,-56.1 v 73.3 c 15,0.1 22.4,-7.6 22.4,-17.2 z" />
  <path
     id="path614"
     fill="#594a41"
     d="m 1509.6,483.5 c -1.1,0 -2.1,-0.9 -2.1,-2.1 v -64.2 c 0,-1.1 0.9,-2.1 2.1,-2.1 1.1,0 2.1,0.9 2.1,2.1 v 64.2 c 0,1.2 -0.9,2.1 -2.1,2.1 z" />
  <path
     id="path616"
     fill="#594a41"
     d="m 1509.6,442.8 c -0.5,0 -1.1,-0.2 -1.5,-0.6 l -9.5,-9.5 c -0.8,-0.8 -0.8,-2.1 0,-2.9 0.8,-0.8 2.1,-0.8 2.9,0 l 9.5,9.5 c 0.8,0.8 0.8,2.1 0,2.9 -0.3,0.4 -0.8,0.6 -1.4,0.6 z" />
  <path
     id="path618"
     fill="#594a41"
     d="m 1509.6,434.4 c -0.5,0 -1.1,-0.2 -1.5,-0.6 -0.8,-0.8 -0.8,-2.1 0,-2.9 l 12.7,-12.7 c 0.8,-0.8 2.1,-0.8 2.9,0 0.8,0.8 0.8,2.1 0,2.9 l -12.7,12.7 c -0.3,0.4 -0.8,0.6 -1.4,0.6 z" />
  <path
     id="path620"
     fill="#bbd644"
     d="m 707.5,325.5 c -3.2,0 -6.4,0 -9.6,0.1 -3.2,0 -6.4,-0.1 -9.6,-0.1 C 386.7,325.5 125.9,452 0,636.1 h 653.3 88.9 653.3 C 1269.7,452 1008.9,325.5 707.5,325.5 Z" />
  <g
     transform="translate(0,154)"
     id="g642"
     fill="#abc53e">
    <path
       id="path622"
       d="m 992.8,351.7 c 9,0 16.3,-7.3 16.3,-16.3 0,-9 -7.3,-16.3 -16.3,-16.3 -9,0 -16.3,7.3 -16.3,16.3 0,9 7.3,16.3 16.3,16.3 z" />
    <path
       id="path624"
       d="m 858.4,286.5 c 9,0 16.3,-7.3 16.3,-16.3 0,-9 -7.3,-16.3 -16.3,-16.3 -9,0 -16.3,7.3 -16.3,16.3 0,9 7.3,16.3 16.3,16.3 z" />
    <path
       id="path626"
       d="M 1018.5,384.3 H 874.2 c -9,0 -16.3,-7.3 -16.3,-16.3 0,-9 7.3,-16.3 16.3,-16.3 h 68.6 c 9,0 16.3,-7.3 16.3,-16.3 0,-9 -7.3,-16.3 -16.3,-16.3 h -190 c -9,0 -16.3,-7.3 -16.3,-16.3 0,-9 7.3,-16.3 16.3,-16.3 h 56.7 c 9,0 16.3,-7.3 16.3,-16.3 0,-9 -7.3,-16.3 -16.3,-16.3 H 667.5 548 c -9,0 -16.3,7.3 -16.3,16.3 0,9 7.3,16.3 16.3,16.3 h 21.4 c 9,0 16.3,7.3 16.3,16.3 0,9 -7.3,16.3 -16.3,16.3 h -57.1 c -9,0 -16.3,7.3 -16.3,16.3 0,9 7.3,16.3 16.3,16.3 h 104.3 c 9,0 16.3,7.3 16.3,16.3 0,9 -7.3,16.3 -16.3,16.3 H 548 c -9,0 -16.3,7.3 -16.3,16.3 0,9 7.3,16.3 16.3,16.3 h 110 c 9,0 16.3,7.3 16.3,16.3 0,9 -7.3,16.3 -16.3,16.3 h -56.7 c -9,0 -16.3,7.3 -16.3,16.3 0,9 7.3,16.3 16.3,16.3 h 52 289.5 c 9,0 16.3,-7.3 16.3,-16.3 0,-9 -7.3,-16.3 -16.3,-16.3 h -21.4 c -9,0 -16.3,-7.3 -16.3,-16.3 0,-9 7.3,-16.3 16.3,-16.3 h 97.1 c 9,0 16.3,-7.3 16.3,-16.3 0,-9 -7.3,-16.3 -16.3,-16.3 z" />
    <path
       id="path628"
       d="m 498,384.3 c -9,0 -16.3,7.3 -16.3,16.3 0,9 7.3,16.3 16.3,16.3 9,0 16.3,-7.3 16.3,-16.3 0,-9 -7.3,-16.3 -16.3,-16.3 z" />
    <path
       id="path630"
       d="m 552.4,449.5 c -9,0 -16.3,7.3 -16.3,16.3 0,9 7.3,16.3 16.3,16.3 9,0 16.3,-7.3 16.3,-16.3 0,-9 -7.3,-16.3 -16.3,-16.3 z" />
    <path
       id="path632"
       d="m 3343.7,286.5 c 9,0 16.3,-7.3 16.3,-16.3 0,-9 -7.3,-16.3 -16.3,-16.3 -9,0 -16.3,7.3 -16.3,16.3 0,9.1 7.2,16.3 16.3,16.3 z" />
    <path
       id="path634"
       d="m 3176.2,384.3 c -9,0 -16.3,7.3 -16.3,16.3 0,9 7.3,16.3 16.3,16.3 9,0 16.3,-7.3 16.3,-16.3 0,-9 -7.3,-16.3 -16.3,-16.3 z" />
    <path
       id="path636"
       d="m 3795.3,319.1 c -9,0 -16.3,7.3 -16.3,16.3 0,9 7.3,16.3 16.3,16.3 9,0 16.3,-7.3 16.3,-16.3 0,-9 -7.3,-16.3 -16.3,-16.3 z" />
    <path
       id="path638"
       d="m 3667.8,449.5 c -9,0 -16.3,7.3 -16.3,16.3 0,9 7.3,16.3 16.3,16.3 9,0 16.3,-7.3 16.3,-16.3 0,-9 -7.3,-16.3 -16.3,-16.3 z" />
    <path
       id="path640"
       d="m 3748.6,319.1 h -136.4 c -9,0 -16.3,-7.3 -16.3,-16.3 0,-9 7.3,-16.3 16.3,-16.3 h 112.6 c 9,0 16.3,-7.3 16.3,-16.3 0,-9 -7.3,-16.3 -16.3,-16.3 h -171.1 -45.9 -115 c -9,0 -16.3,7.3 -16.3,16.3 0,9 7.3,16.3 16.3,16.3 h 53.9 c 9,0 16.3,7.3 16.3,16.3 0,9 -7.3,16.3 -16.3,16.3 h -199.9 c -9,0 -16.3,7.3 -16.3,16.3 0,9 7.3,16.3 16.3,16.3 h 64.5 c 9,0 16.3,7.3 16.3,16.3 0,9 -7.3,16.3 -16.3,16.3 h -88.4 c -9,0 -16.3,7.3 -16.3,16.3 0,9 7.3,16.3 16.3,16.3 h 136.4 c 9,0 16.3,7.3 16.3,16.3 0,9 -7.3,16.3 -16.3,16.3 h -112.6 c -9,0 -16.3,7.3 -16.3,16.3 0,9 7.3,16.3 16.3,16.3 h 261.1 45.9 65 c 9,0 16.3,-7.3 16.3,-16.3 0,-9 -7.3,-16.3 -16.3,-16.3 h -53.9 c -9,0 -16.3,-7.3 -16.3,-16.3 0,-9 7.3,-16.3 16.3,-16.3 h 159.9 c 9,0 16.3,-7.3 16.3,-16.3 0,-9 -7.3,-16.3 -16.3,-16.3 h -64.5 c -9,0 -16.3,-7.3 -16.3,-16.3 0,-9 7.3,-16.3 16.3,-16.3 h 88.4 c 9,0 16.3,-7.3 16.3,-16.3 0,-9 -7.3,-16.3 -16.3,-16.3 z" />
  </g>
  <circle
     style="stroke-width:0.999977"
     r="60.698624"
     id="ellipse644"
     transform="rotate(-23.216647)"
     fill="#8dc63f"
     cy="1585.6974"
     cx="2649.2627" />
  <path
     id="path646"
     fill="#6ba939"
     d="m 3120.7,413 c 0,-33.5 -27.2,-60.7 -60.7,-60.7 v 121.4 c 33.5,0 60.7,-27.2 60.7,-60.7 z" />
  <path
     id="path648"
     fill="#594a41"
     d="m 3060,508.9 c -1.1,0 -2.1,-0.9 -2.1,-2.1 v -85.1 c 0,-1.1 0.9,-2.1 2.1,-2.1 1.1,0 2.1,0.9 2.1,2.1 v 85.1 c -0.1,1.2 -1,2.1 -2.1,2.1 z" />
  <path
     id="path650"
     fill="#594a41"
     d="m 3060,454.9 c -0.5,0 -1.1,-0.2 -1.5,-0.6 -0.8,-0.8 -0.8,-2.1 0,-2.9 l 12.6,-12.6 c 0.8,-0.8 2.1,-0.8 2.9,0 0.8,0.8 0.8,2.1 0,2.9 l -12.7,12.7 c -0.3,0.3 -0.8,0.5 -1.3,0.5 z" />
  <path
     id="path652"
     fill="#594a41"
     d="m 3060,443.8 c -0.5,0 -1.1,-0.2 -1.5,-0.6 l -16.8,-16.8 c -0.8,-0.8 -0.8,-2.1 0,-2.9 0.8,-0.8 2.1,-0.8 2.9,0 l 16.8,16.8 c 0.8,0.8 0.8,2.1 0,2.9 -0.4,0.4 -0.9,0.6 -1.4,0.6 z" />
  <path
     id="path654"
     fill="#8dc63f"
     d="m 1004.4,373.4 c 0,25.7 -20.8,46.4 -46.4,46.4 -25.7,0 -46.4,-20.8 -46.4,-46.4 0,-25.7 20.8,-46.4 46.4,-46.4 25.6,-0.1 46.4,20.7 46.4,46.4 z" />
  <path
     id="path656"
     fill="#6ba939"
     d="M 1004.4,373.4 C 1004.4,347.7 983.6,327 958,327 v 92.9 c 25.6,-0.1 46.4,-20.9 46.4,-46.5 z" />
  <path
     id="path658"
     fill="#594a41"
     d="m 957.9,447.2 c -1.1,0 -2.1,-0.9 -2.1,-2.1 V 380 c 0,-1.1 0.9,-2.1 2.1,-2.1 1.1,0 2.1,0.9 2.1,2.1 v 65.1 c 0,1.2 -0.9,2.1 -2.1,2.1 z" />
  <path
     id="path660"
     fill="#594a41"
     d="m 957.9,405.9 c -0.5,0 -1.1,-0.2 -1.5,-0.6 -0.8,-0.8 -0.8,-2.1 0,-2.9 l 9.7,-9.7 c 0.8,-0.8 2.1,-0.8 2.9,0 0.8,0.8 0.8,2.1 0,2.9 l -9.7,9.7 c -0.3,0.4 -0.9,0.6 -1.4,0.6 z" />
  <path
     id="path662"
     fill="#594a41"
     d="m 957.9,397.4 c -0.5,0 -1.1,-0.2 -1.5,-0.6 L 943.6,384 c -0.8,-0.8 -0.8,-2.1 0,-2.9 0.8,-0.8 2.1,-0.8 2.9,0 l 12.8,12.8 c 0.8,0.8 0.8,2.1 0,2.9 -0.3,0.4 -0.9,0.6 -1.4,0.6 z" />
  <path
     id="path664"
     fill="#dbe13a"
     d="m 712.8,538.2 c 0,25.7 20.8,46.4 46.4,46.4 25.7,0 46.4,-20.8 46.4,-46.4 0,-25.6 -20.8,-46.4 -46.4,-46.4 -25.6,-0.1 -46.4,20.7 -46.4,46.4 z" />
  <path
     id="path666"
     fill="#bbd644"
     d="m 712.8,538.2 c 0,-25.7 20.8,-46.4 46.4,-46.4 v 92.9 c -25.6,-0.1 -46.4,-20.9 -46.4,-46.5 z" />
  <path
     id="path668"
     fill="#594a41"
     d="m 759.2,612 c -1.1,0 -2.1,-0.9 -2.1,-2.1 v -65.1 c 0,-1.1 0.9,-2.1 2.1,-2.1 1.1,0 2.1,0.9 2.1,2.1 V 610 c 0,1.1 -0.9,2 -2.1,2 z" />
  <path
     id="path670"
     fill="#594a41"
     d="m 759.2,570.7 c -0.5,0 -1.1,-0.2 -1.5,-0.6 l -9.7,-9.7 c -0.8,-0.8 -0.8,-2.1 0,-2.9 0.8,-0.8 2.1,-0.8 2.9,0 l 9.7,9.7 c 0.8,0.8 0.8,2.1 0,2.9 -0.3,0.4 -0.8,0.6 -1.4,0.6 z" />
  <path
     id="path672"
     fill="#594a41"
     d="m 759.2,562.2 c -0.5,0 -1.1,-0.2 -1.5,-0.6 -0.8,-0.8 -0.8,-2.1 0,-2.9 l 12.8,-12.8 c 0.8,-0.8 2.1,-0.8 2.9,0 0.8,0.8 0.8,2.1 0,2.9 l -12.8,12.8 c -0.3,0.4 -0.8,0.6 -1.4,0.6 z" />
  <path
     id="path674"
     fill="#8dc63f"
     d="m 2712.1,454.8 c 0,17.4 -14.1,31.5 -31.5,31.5 -17.4,0 -31.5,-14.1 -31.5,-31.5 0,-17.4 14.1,-31.5 31.5,-31.5 17.4,0 31.5,14.1 31.5,31.5 z" />
  <path
     id="path676"
     fill="#6ba939"
     d="m 2712.1,454.8 c 0,-17.4 -14.1,-31.5 -31.5,-31.5 v 63 c 17.4,0 31.5,-14.1 31.5,-31.5 z" />
  <path
     id="path678"
     fill="#594a41"
     d="m 2680.6,505.5 c -1.1,0 -2.1,-0.9 -2.1,-2.1 v -44.1 c 0,-1.1 0.9,-2.1 2.1,-2.1 1.1,0 2.1,0.9 2.1,2.1 v 44.1 c 0,1.2 -0.9,2.1 -2.1,2.1 z" />
  <path
     id="path680"
     fill="#594a41"
     d="m 2680.6,477.5 c -0.5,0 -1.1,-0.2 -1.5,-0.6 -0.8,-0.8 -0.8,-2.1 0,-2.9 l 6.6,-6.6 c 0.8,-0.8 2.1,-0.8 2.9,0 0.8,0.8 0.8,2.1 0,2.9 l -6.6,6.6 c -0.3,0.4 -0.8,0.6 -1.4,0.6 z" />
  <path
     id="path682"
     fill="#594a41"
     d="m 2680.6,471.8 c -0.5,0 -1.1,-0.2 -1.5,-0.6 l -8.7,-8.7 c -0.8,-0.8 -0.8,-2.1 0,-2.9 0.8,-0.8 2.1,-0.8 2.9,0 l 8.7,8.7 c 0.8,0.8 0.8,2.1 0,2.9 -0.3,0.4 -0.8,0.6 -1.4,0.6 z" />
  <path
     id="path684"
     fill="#dbe13a"
     d="m 3530.7,555.1 c 0,-47.2 -14,-125.6 -31.3,-125.6 -17.3,0 -31.3,78.4 -31.3,125.6 0,17.3 14,31.3 31.3,31.3 17.3,0 31.3,-14 31.3,-31.3 z" />
  <path
     id="path686"
     fill="#bbd644"
     d="m 3530.7,555.1 c 0,-47.2 -14,-125.6 -31.3,-125.6 v 156.9 c 17.2,0 31.3,-14 31.3,-31.3 z" />
  <path
     id="path688"
     fill="#594a41"
     d="m 3499.4,621.6 c -1.1,0 -2.1,-0.9 -2.1,-2.1 v -85.1 c 0,-1.1 0.9,-2.1 2.1,-2.1 1.2,0 2.1,0.9 2.1,2.1 v 85.1 c -0.1,1.2 -1,2.1 -2.1,2.1 z" />
  <path
     id="path690"
     fill="#594a41"
     d="m 3499.4,567.6 c -0.5,0 -1.1,-0.2 -1.5,-0.6 l -12.7,-12.7 c -0.8,-0.8 -0.8,-2.1 0,-2.9 0.8,-0.8 2.1,-0.8 2.9,0 l 12.6,12.7 c 0.8,0.8 0.8,2.1 0,2.9 -0.3,0.4 -0.8,0.6 -1.3,0.6 z" />
  <path
     id="path692"
     fill="#594a41"
     d="m 3499.4,556.5 c -0.5,0 -1.1,-0.2 -1.5,-0.6 -0.8,-0.8 -0.8,-2.1 0,-2.9 l 16.8,-16.8 c 0.8,-0.8 2.1,-0.8 2.9,0 0.8,0.8 0.8,2.1 0,2.9 l -16.8,16.8 c -0.4,0.4 -0.9,0.6 -1.4,0.6 z" />
  <path
     id="path694"
     fill="#dbe13a"
     d="m 687.9,279.6 c 0,-47.2 14,-125.6 31.3,-125.6 17.3,0 31.3,78.4 31.3,125.6 0,17.3 -14,31.3 -31.3,31.3 -17.3,0 -31.3,-14 -31.3,-31.3 z" />
  <path
     id="path696"
     fill="#bbd644"
     d="m 687.9,279.6 c 0,-47.2 14,-125.6 31.3,-125.6 v 156.9 c -17.3,0 -31.3,-14 -31.3,-31.3 z" />
  <path
     id="path698"
     fill="#594a41"
     d="m 719.2,346.1 c -1.1,0 -2.1,-0.9 -2.1,-2.1 v -85.1 c 0,-1.1 0.9,-2.1 2.1,-2.1 1.1,0 2.1,0.9 2.1,2.1 V 344 c 0,1.1 -0.9,2.1 -2.1,2.1 z" />
  <path
     id="path700"
     fill="#594a41"
     d="m 719.2,292 c -0.5,0 -1.1,-0.2 -1.5,-0.6 -0.8,-0.8 -0.8,-2.1 0,-2.9 l 12.6,-12.7 c 0.8,-0.8 2.1,-0.8 2.9,0 0.8,0.8 0.8,2.1 0,2.9 l -12.6,12.6 c -0.3,0.5 -0.9,0.7 -1.4,0.7 z" />
  <path
     id="path702"
     fill="#594a41"
     d="m 719.2,281 c -0.5,0 -1.1,-0.2 -1.5,-0.6 L 701,263.6 c -0.8,-0.8 -0.8,-2.1 0,-2.9 0.8,-0.8 2.1,-0.8 2.9,0 l 16.8,16.8 c 0.8,0.8 0.8,2.1 0,2.9 -0.4,0.4 -1,0.6 -1.5,0.6 z" />
  <path
     id="path704"
     fill="#bbd644"
     d="m 3393.3,288.3 c 0,-34.5 -9.8,-74.4 -29.7,-74.4 -19.9,0 -29.7,39.9 -29.7,74.4 0,12.6 9.8,22.9 29.7,22.9 19.9,-0.1 29.7,-10.3 29.7,-22.9 z" />
  <path
     id="path706"
     fill="#abc53e"
     d="m 3393.3,288.3 c 0,-34.5 -9.8,-74.4 -29.7,-74.4 v 97.2 c 19.9,0 29.7,-10.2 29.7,-22.8 z" />
  <path
     id="path708"
     fill="#594a41"
     d="m 3363.6,346.3 c -1.1,0 -2.1,-0.9 -2.1,-2.1 v -85.1 c 0,-1.1 0.9,-2.1 2.1,-2.1 1.1,0 2.1,0.9 2.1,2.1 v 85.1 c 0,1.2 -1,2.1 -2.1,2.1 z" />
  <path
     id="path710"
     fill="#594a41"
     d="m 3363.6,292.3 c -0.5,0 -1.1,-0.2 -1.5,-0.6 L 3349.4,279 c -0.8,-0.8 -0.8,-2.1 0,-2.9 0.8,-0.8 2.1,-0.8 2.9,0 l 12.7,12.7 c 0.8,0.8 0.8,2.1 0,2.9 -0.4,0.4 -0.9,0.6 -1.4,0.6 z" />
  <path
     id="path712"
     fill="#594a41"
     d="m 3363.6,281.2 c -0.5,0 -1.1,-0.2 -1.5,-0.6 -0.8,-0.8 -0.8,-2.1 0,-2.9 l 16.8,-16.8 c 0.8,-0.8 2.1,-0.8 2.9,0 0.8,0.8 0.8,2.1 0,2.9 l -16.8,16.8 c -0.4,0.4 -0.9,0.6 -1.4,0.6 z" />
  <path
     id="path714"
     fill="#8dc63f"
     d="m 1130.5,555.2 c 0,-34.5 9.8,-74.4 29.7,-74.4 19.9,0 29.7,39.9 29.7,74.4 0,12.6 -9.8,22.9 -29.7,22.9 -19.9,0 -29.7,-10.2 -29.7,-22.9 z" />
  <path
     id="path716"
     fill="#6ba939"
     d="m 1130.5,555.2 c 0,-34.5 9.8,-74.4 29.7,-74.4 V 578 c -19.9,0.1 -29.7,-10.1 -29.7,-22.8 z" />
  <path
     id="path718"
     fill="#594a41"
     d="m 1160.2,613.3 c -1.1,0 -2.1,-0.9 -2.1,-2.1 v -85.1 c 0,-1.1 0.9,-2.1 2.1,-2.1 1.1,0 2.1,0.9 2.1,2.1 v 85.1 c -0.1,1.2 -1,2.1 -2.1,2.1 z" />
  <path
     id="path720"
     fill="#594a41"
     d="m 1160.2,559.2 c -0.5,0 -1.1,-0.2 -1.5,-0.6 -0.8,-0.8 -0.8,-2.1 0,-2.9 l 12.6,-12.7 c 0.8,-0.8 2.1,-0.8 2.9,0 0.8,0.8 0.8,2.1 0,2.9 l -12.6,12.6 c -0.4,0.5 -0.9,0.7 -1.4,0.7 z" />
  <path
     id="path722"
     fill="#594a41"
     d="m 1160.2,548.2 c -0.5,0 -1.1,-0.2 -1.5,-0.6 l -16.8,-16.8 c -0.8,-0.8 -0.8,-2.1 0,-2.9 0.8,-0.8 2.1,-0.8 2.9,0 l 16.8,16.8 c 0.8,0.8 0.8,2.1 0,2.9 -0.4,0.4 -0.9,0.6 -1.4,0.6 z" />
  <g
     transform="matrix(3.666221,0,0,1.8436103,1.6603889,3.092596)"
     fill="#ffffff"
     id="g793">
    <circle
       cx="445.20001"
       cy="53.900002"
       r="7.8000002"
       id="circle773" />
    <circle
       r="7.8000002"
       cx="156.10001"
       cy="53.900002"
       id="ellipse775" />
    <path
       d="m 993.6,46.1 c -4.3,0 -7.8,3.5 -7.8,7.8 0,4.3 3.5,7.8 7.8,7.8 4.3,0 7.8,-3.5 7.8,-7.8 0,-4.3 -3.5,-7.8 -7.8,-7.8 z"
       id="path777" />
    <path
       d="m 467.8,46.1 c -4.3,0 -7.8,3.5 -7.8,7.8 0,4.3 3.5,7.8 7.8,7.8 4.3,0 7.8,-3.5 7.8,-7.8 0,-4.3 -3.5,-7.8 -7.8,-7.8 z"
       id="path779" />
    <path
       d="m 1012.4,102.9 c 0,-4.2 3.4,-7.7 7.7,-7.7 h 43.8 c 4.2,0 7.7,3.4 7.7,7.7 0,4.2 -3.4,7.7 -7.7,7.7 H 1020 c -4.2,0 -7.6,-3.5 -7.6,-7.7 z"
       id="path781" />
    <path
       d="m 0.1,53.9 c 0,-4.2 3.4,-7.7 7.7,-7.7 h 43.8 c 4.2,0 7.7,3.4 7.7,7.7 0,4.2 -3.4,7.7 -7.7,7.7 H 7.8 C 3.6,61.5 0.1,58.1 0.1,53.9 Z"
       id="path783" />
    <path
       d="m 66.8,86.4 c 0,-3.8 3.1,-6.8 6.8,-6.8 h 39.6 c 3.8,0 6.8,3.1 6.8,6.8 0,3.8 -3.1,6.8 -6.8,6.8 H 73.6 c -3.8,0.1 -6.8,-3 -6.8,-6.8 z m -13,6.9 c 3.8,0 6.8,-3.1 6.8,-6.8 0,-3.8 -3.1,-6.8 -6.8,-6.8 -3.8,0 -6.8,3.1 -6.8,6.8 0,3.7 3.1,6.8 6.8,6.8 z"
       id="path785" />
    <path
       d="m 1091.2,63.9 c 0,-3.8 3.1,-6.8 6.8,-6.8 h 39.6 c 3.8,0 6.8,3.1 6.8,6.8 0,3.8 -3.1,6.8 -6.8,6.8 H 1098 c -3.7,0 -6.8,-3 -6.8,-6.8 z m -12.9,6.8 c 3.8,0 6.8,-3.1 6.8,-6.8 0,-3.8 -3.1,-6.8 -6.8,-6.8 -3.7,0 -6.8,3.1 -6.8,6.8 0,3.8 3,6.8 6.8,6.8 z"
       id="path787" />
    <path
       d="m 555.5,53.4 c 0,3.8 -3.1,6.8 -6.8,6.8 H 509 c -3.8,0 -6.8,-3.1 -6.8,-6.8 0,-3.8 3.1,-6.8 6.8,-6.8 h 39.6 c 3.8,0 6.9,3.1 6.9,6.8 z m 12.9,-6.8 c -3.8,0 -6.8,3.1 -6.8,6.8 0,3.7 3.1,6.8 6.8,6.8 3.8,0 6.8,-3.1 6.8,-6.8 0,-3.7 -3,-6.8 -6.8,-6.8 z m 19.8,0 c -3.8,0 -6.8,3.1 -6.8,6.8 0,3.7 3.1,6.8 6.8,6.8 3.7,0 6.8,-3.1 6.8,-6.8 0,-3.7 -3,-6.8 -6.8,-6.8 z"
       id="path789" />
    <path
       d="m 311.9,0.1 c 4.2,0.2 7.5,3.6 7.5,7.8 0,4 -3,7.2 -6.8,7.7 H 54.5 c -5,0 -9.1,3.5 -9.1,7.9 0,4.3 4.1,7.9 9.1,7.9 H 208 c 4.3,0 7.8,3.3 7.8,7.4 0,4.1 -3.5,7.4 -7.8,7.4 h -26.5 c -4.3,0 -7.8,3.5 -7.8,7.8 0,4.3 3.5,7.8 7.8,7.8 h 86.7 c 2,1.5 3.2,3.8 3.2,6.5 0,4.5 -3.7,8.2 -8.2,8.2 h -23.4 c -4.5,0 -8.2,3.7 -8.2,8.2 0,4.5 3.7,8.2 8.2,8.2 h 96.7 c 4.5,0 8.2,-3.7 8.2,-8.2 -0.1,-4.5 -3.8,-8.2 -8.3,-8.2 h -4.1 -35.5 c -4.5,0 -8.2,-3.7 -8.2,-8.2 0,-2.7 1.3,-5 3.2,-6.5 h 125.6 c 4.3,0 7.8,-3.5 7.8,-7.8 0,-4.3 -3.5,-7.8 -7.8,-7.8 h -11.2 c -4.3,0 -7.8,-3.3 -7.8,-7.4 0,-4.1 3.5,-7.4 7.8,-7.4 h 299.1 c 4.3,0 7.8,3.3 7.8,7.4 0,4.1 -3.5,7.4 -7.8,7.4 h -65.4 c -4.3,0 -7.8,3.5 -7.8,7.8 0,4.3 3.5,7.8 7.8,7.8 h 248.8 c 2,1.5 3.2,3.8 3.2,6.5 0,4.5 -3.7,8.2 -8.2,8.2 h -23.4 c -4.5,0 -8.2,3.7 -8.2,8.2 0,4.5 3.7,8.2 8.2,8.2 H 957 c 4.5,0 8.2,-3.7 8.2,-8.2 -0.1,-4.5 -3.7,-8.2 -8.3,-8.2 h -4.1 -35.5 c -4.5,0 -8.2,-3.7 -8.2,-8.2 0,-2.7 1.3,-5 3.2,-6.5 h 56.8 c 4.3,0 7.8,-3.5 7.8,-7.8 0,-4.3 -3.5,-7.8 -7.8,-7.8 h -25.4 c -4.3,0 -7.8,-3.3 -7.8,-7.4 0,-4.1 3.5,-7.4 7.8,-7.4 h 133.5 c 5,0 9.1,-3.5 9.1,-7.9 0,-4.4 -4.1,-7.9 -9.1,-7.9 h -43.4 c -3.8,-0.5 -6.8,-3.8 -6.8,-7.7 0,-4.2 3.3,-7.6 7.5,-7.8 z m 173.3,15.3 c -4.3,0 -7.7,-3.5 -7.7,-7.7 0,-4.2 3.5,-7.7 7.7,-7.7 4.3,0 7.7,3.5 7.7,7.7 0,4.3 -3.5,7.7 -7.7,7.7 z m 22.3,0.1 c -4.3,0 -7.7,-3.5 -7.7,-7.7 0,-4.2 3.5,-7.7 7.7,-7.7 4.3,0 7.7,3.5 7.7,7.7 0,4.2 -3.4,7.7 -7.7,7.7 z M 818.2,15.4 H 589.9 c -4.3,0 -7.7,-3.5 -7.7,-7.7 0,-4.2 3.5,-7.7 7.7,-7.7 h 228.3 c 4.2,0 7.7,3.5 7.7,7.7 0,4.3 -3.5,7.7 -7.7,7.7 z"
       id="path791" />
  </g>
</svg>
