<?xml version="1.0" encoding="UTF-8" standalone="no"?>
<svg
   xmlns="http://www.w3.org/2000/svg"
   viewBox="0 0 4197.2839 633.00738"
   style="background: #f2f2f2"
   version="1.1">
  <path
     d="m 1311.3,633.0074 h 1723.8 c -138.1,-155.7 -602.9,-205.4 -851.9,-205.4 -249,0 -673.6,52.8 -871.9,205.4 z"
     fill="#6ba939"
     id="path584" />
  <path
     d="m 2571.1,530.1074 c 0,-26 -7.4,-56.1 -22.4,-56.1 -15,0 -22.4,30.1 -22.4,56.1 0,9.5 7.4,17.2 22.4,17.2 15,0 22.4,-7.7 22.4,-17.2 z"
     fill="#abc53e"
     id="path586" />
  <path
     d="m 2571.1,530.1074 c 0,-26 -7.4,-56.1 -22.4,-56.1 v 73.3 c 15,0 22.4,-7.7 22.4,-17.2 z"
     fill="#a2ba3b"
     id="path588" />
  <path
     d="m 2548.7,574.3074 c -1.1,0 -2.1,-0.9 -2.1,-2.1 v -64.2 c 0,-1.1 0.9,-2.1 2.1,-2.1 1.2,0 2.1,0.9 2.1,2.1 v 64.2 c 0,1.2 -0.9,2.1 -2.1,2.1 z"
     fill="#594a41"
     id="path590" />
  <path
     d="m 2548.7,533.6074 c -0.5,0 -1.1,-0.2 -1.5,-0.6 l -9.5,-9.5 c -0.8,-0.8 -0.8,-2.1 0,-2.9 0.8,-0.8 2.1,-0.8 2.9,0 l 9.5,9.5 c 0.8,0.8 0.8,2.1 0,2.9 -0.3,0.4 -0.9,0.6 -1.4,0.6 z"
     fill="#594a41"
     id="path592" />
  <path
     d="m 2548.7,525.3074 c -0.5,0 -1.1,-0.2 -1.5,-0.6 -0.8,-0.8 -0.8,-2.1 0,-2.9 l 12.7,-12.7 c 0.8,-0.8 2.1,-0.8 2.9,0 0.8,0.8 0.8,2.1 0,2.9 l -12.7,12.7 c -0.3,0.4 -0.9,0.6 -1.4,0.6 z"
     fill="#594a41"
     id="path594" />
  <path
     d="m 3553.7,633.0074 v -0.3 h 643.5 c -125.9,-184.1 -386.8,-310.7 -688.2,-310.7 -31.5,0 -62.6,1.4 -93.1,4.1 -282.1,10.9 -523.8,132.8 -644.6,306.9 z"
     fill="#bbd644"
     id="path596" />
  <path
     d="m 753.4,633.0074 h 1370.5 c -183.6,-137.6 -440.4,-223.1 -724.6,-223.1 -245.6,0 -470.7,63.9 -645.9,170.1 z"
     fill="#8dc63f"
     id="path598" />
  <path
     d="m 1665.2,513.9074 c 0,22.9 -18.6,41.5 -41.5,41.5 -22.9,0 -41.5,-18.6 -41.5,-41.5 0,-22.9 18.6,-41.5 41.5,-41.5 23,0 41.5,18.6 41.5,41.5 z"
     fill="#6ba939"
     id="path600" />
  <path
     d="m 1665.2,513.9074 c 0,-22.9 -18.6,-41.5 -41.5,-41.5 v 82.9 c 23,0 41.5,-18.5 41.5,-41.4 z"
     fill="#5c9531"
     id="path602" />
  <path
     d="m 1623.8,580.0074 c -1.1,0 -2.1,-0.9 -2.1,-2.1 v -58 c 0,-1.1 0.9,-2.1 2.1,-2.1 1.1,0 2.1,0.9 2.1,2.1 v 58 c 0,1.2 -1,2.1 -2.1,2.1 z"
     fill="#594a41"
     id="path604" />
  <path
     d="m 1623.8,543.1074 c -0.5,0 -1.1,-0.2 -1.5,-0.6 -0.8,-0.8 -0.8,-2.1 0,-2.9 l 8.6,-8.6 c 0.8,-0.8 2.1,-0.8 2.9,0 0.8,0.8 0.8,2.1 0,2.9 l -8.6,8.6 c -0.4,0.4 -0.9,0.6 -1.4,0.6 z"
     fill="#594a41"
     id="path606" />
  <path
     d="m 1623.8,535.6074 c -0.5,0 -1.1,-0.2 -1.5,-0.6 l -11.5,-11.5 c -0.8,-0.8 -0.8,-2.1 0,-2.9 0.8,-0.8 2.1,-0.8 2.9,0 l 11.5,11.5 c 0.8,0.8 0.8,2.1 0,2.9 -0.4,0.4 -0.9,0.6 -1.4,0.6 z"
     fill="#594a41"
     id="path608" />
  <path
     d="m 1532,436.1074 c 0,-26 -7.4,-56.1 -22.4,-56.1 -15,0 -22.4,30.1 -22.4,56.1 0,9.5 7.4,17.2 22.4,17.2 15,0.1 22.4,-7.6 22.4,-17.2 z"
     fill="#dbe13a"
     id="path610" />
  <path
     d="m 1532,436.1074 c 0,-26 -7.4,-56.1 -22.4,-56.1 v 73.3 c 15,0.1 22.4,-7.6 22.4,-17.2 z"
     fill="#bbd644"
     id="path612" />
  <path
     d="m 1509.6,480.4074 c -1.1,0 -2.1,-0.9 -2.1,-2.1 v -64.2 c 0,-1.1 0.9,-2.1 2.1,-2.1 1.1,0 2.1,0.9 2.1,2.1 v 64.2 c 0,1.2 -0.9,2.1 -2.1,2.1 z"
     fill="#594a41"
     id="path614" />
  <path
     d="m 1509.6,439.7074 c -0.5,0 -1.1,-0.2 -1.5,-0.6 l -9.5,-9.5 c -0.8,-0.8 -0.8,-2.1 0,-2.9 0.8,-0.8 2.1,-0.8 2.9,0 l 9.5,9.5 c 0.8,0.8 0.8,2.1 0,2.9 -0.3,0.4 -0.8,0.6 -1.4,0.6 z"
     fill="#594a41"
     id="path616" />
  <path
     d="m 1509.6,431.3074 c -0.5,0 -1.1,-0.2 -1.5,-0.6 -0.8,-0.8 -0.8,-2.1 0,-2.9 l 12.7,-12.7 c 0.8,-0.8 2.1,-0.8 2.9,0 0.8,0.8 0.8,2.1 0,2.9 l -12.7,12.7 c -0.3,0.4 -0.8,0.6 -1.4,0.6 z"
     fill="#594a41"
     id="path618" />
  <path
     d="m 707.5,322.4074 c -3.2,0 -6.4,0 -9.6,0.1 -3.2,0 -6.4,-0.1 -9.6,-0.1 -301.6,0 -562.4,126.5 -688.3,310.6 h 653.3 88.9 653.3 c -125.8,-184.1 -386.6,-310.6 -688,-310.6 z"
     fill="#bbd644"
     id="path620" />
  <g
     fill="#abc53e"
     id="g642"
     transform="translate(0,150.9074)">
    <path
       d="m 992.8,351.7 c 9,0 16.3,-7.3 16.3,-16.3 0,-9 -7.3,-16.3 -16.3,-16.3 -9,0 -16.3,7.3 -16.3,16.3 0,9 7.3,16.3 16.3,16.3 z"
       id="path622" />
    <path
       d="m 858.4,286.5 c 9,0 16.3,-7.3 16.3,-16.3 0,-9 -7.3,-16.3 -16.3,-16.3 -9,0 -16.3,7.3 -16.3,16.3 0,9 7.3,16.3 16.3,16.3 z"
       id="path624" />
    <path
       d="M 1018.5,384.3 H 874.2 c -9,0 -16.3,-7.3 -16.3,-16.3 0,-9 7.3,-16.3 16.3,-16.3 h 68.6 c 9,0 16.3,-7.3 16.3,-16.3 0,-9 -7.3,-16.3 -16.3,-16.3 h -190 c -9,0 -16.3,-7.3 -16.3,-16.3 0,-9 7.3,-16.3 16.3,-16.3 h 56.7 c 9,0 16.3,-7.3 16.3,-16.3 0,-9 -7.3,-16.3 -16.3,-16.3 H 667.5 548 c -9,0 -16.3,7.3 -16.3,16.3 0,9 7.3,16.3 16.3,16.3 h 21.4 c 9,0 16.3,7.3 16.3,16.3 0,9 -7.3,16.3 -16.3,16.3 h -57.1 c -9,0 -16.3,7.3 -16.3,16.3 0,9 7.3,16.3 16.3,16.3 h 104.3 c 9,0 16.3,7.3 16.3,16.3 0,9 -7.3,16.3 -16.3,16.3 H 548 c -9,0 -16.3,7.3 -16.3,16.3 0,9 7.3,16.3 16.3,16.3 h 110 c 9,0 16.3,7.3 16.3,16.3 0,9 -7.3,16.3 -16.3,16.3 h -56.7 c -9,0 -16.3,7.3 -16.3,16.3 0,9 7.3,16.3 16.3,16.3 h 52 289.5 c 9,0 16.3,-7.3 16.3,-16.3 0,-9 -7.3,-16.3 -16.3,-16.3 h -21.4 c -9,0 -16.3,-7.3 -16.3,-16.3 0,-9 7.3,-16.3 16.3,-16.3 h 97.1 c 9,0 16.3,-7.3 16.3,-16.3 0,-9 -7.3,-16.3 -16.3,-16.3 z"
       id="path626" />
    <path
       d="m 498,384.3 c -9,0 -16.3,7.3 -16.3,16.3 0,9 7.3,16.3 16.3,16.3 9,0 16.3,-7.3 16.3,-16.3 0,-9 -7.3,-16.3 -16.3,-16.3 z"
       id="path628" />
    <path
       d="m 552.4,449.5 c -9,0 -16.3,7.3 -16.3,16.3 0,9 7.3,16.3 16.3,16.3 9,0 16.3,-7.3 16.3,-16.3 0,-9 -7.3,-16.3 -16.3,-16.3 z"
       id="path630" />
    <path
       d="m 3343.7,286.5 c 9,0 16.3,-7.3 16.3,-16.3 0,-9 -7.3,-16.3 -16.3,-16.3 -9,0 -16.3,7.3 -16.3,16.3 0,9.1 7.2,16.3 16.3,16.3 z"
       id="path632" />
    <path
       d="m 3176.2,384.3 c -9,0 -16.3,7.3 -16.3,16.3 0,9 7.3,16.3 16.3,16.3 9,0 16.3,-7.3 16.3,-16.3 0,-9 -7.3,-16.3 -16.3,-16.3 z"
       id="path634" />
    <path
       d="m 3795.3,319.1 c -9,0 -16.3,7.3 -16.3,16.3 0,9 7.3,16.3 16.3,16.3 9,0 16.3,-7.3 16.3,-16.3 0,-9 -7.3,-16.3 -16.3,-16.3 z"
       id="path636" />
    <path
       d="m 3667.8,449.5 c -9,0 -16.3,7.3 -16.3,16.3 0,9 7.3,16.3 16.3,16.3 9,0 16.3,-7.3 16.3,-16.3 0,-9 -7.3,-16.3 -16.3,-16.3 z"
       id="path638" />
    <path
       d="m 3748.6,319.1 h -136.4 c -9,0 -16.3,-7.3 -16.3,-16.3 0,-9 7.3,-16.3 16.3,-16.3 h 112.6 c 9,0 16.3,-7.3 16.3,-16.3 0,-9 -7.3,-16.3 -16.3,-16.3 h -171.1 -45.9 -115 c -9,0 -16.3,7.3 -16.3,16.3 0,9 7.3,16.3 16.3,16.3 h 53.9 c 9,0 16.3,7.3 16.3,16.3 0,9 -7.3,16.3 -16.3,16.3 h -199.9 c -9,0 -16.3,7.3 -16.3,16.3 0,9 7.3,16.3 16.3,16.3 h 64.5 c 9,0 16.3,7.3 16.3,16.3 0,9 -7.3,16.3 -16.3,16.3 h -88.4 c -9,0 -16.3,7.3 -16.3,16.3 0,9 7.3,16.3 16.3,16.3 h 136.4 c 9,0 16.3,7.3 16.3,16.3 0,9 -7.3,16.3 -16.3,16.3 h -112.6 c -9,0 -16.3,7.3 -16.3,16.3 0,9 7.3,16.3 16.3,16.3 h 261.1 45.9 65 c 9,0 16.3,-7.3 16.3,-16.3 0,-9 -7.3,-16.3 -16.3,-16.3 h -53.9 c -9,0 -16.3,-7.3 -16.3,-16.3 0,-9 7.3,-16.3 16.3,-16.3 h 159.9 c 9,0 16.3,-7.3 16.3,-16.3 0,-9 -7.3,-16.3 -16.3,-16.3 h -64.5 c -9,0 -16.3,-7.3 -16.3,-16.3 0,-9 7.3,-16.3 16.3,-16.3 h 88.4 c 9,0 16.3,-7.3 16.3,-16.3 0,-9 -7.3,-16.3 -16.3,-16.3 z"
       id="path640" />
  </g>
  <circle
     cx="2650.4819"
     cy="1582.8552"
     fill="#8dc63f"
     transform="rotate(-23.216647)"
     id="ellipse644"
     r="60.698624"
     style="stroke-width:0.999977" />
  <path
     d="m 3120.7,409.9074 c 0,-33.5 -27.2,-60.7 -60.7,-60.7 v 121.4 c 33.5,0 60.7,-27.2 60.7,-60.7 z"
     fill="#6ba939"
     id="path646" />
  <path
     d="m 3060,505.8074 c -1.1,0 -2.1,-0.9 -2.1,-2.1 v -85.1 c 0,-1.1 0.9,-2.1 2.1,-2.1 1.1,0 2.1,0.9 2.1,2.1 v 85.1 c -0.1,1.2 -1,2.1 -2.1,2.1 z"
     fill="#594a41"
     id="path648" />
  <path
     d="m 3060,451.8074 c -0.5,0 -1.1,-0.2 -1.5,-0.6 -0.8,-0.8 -0.8,-2.1 0,-2.9 l 12.6,-12.6 c 0.8,-0.8 2.1,-0.8 2.9,0 0.8,0.8 0.8,2.1 0,2.9 l -12.7,12.7 c -0.3,0.3 -0.8,0.5 -1.3,0.5 z"
     fill="#594a41"
     id="path650" />
  <path
     d="m 3060,440.7074 c -0.5,0 -1.1,-0.2 -1.5,-0.6 l -16.8,-16.8 c -0.8,-0.8 -0.8,-2.1 0,-2.9 0.8,-0.8 2.1,-0.8 2.9,0 l 16.8,16.8 c 0.8,0.8 0.8,2.1 0,2.9 -0.4,0.4 -0.9,0.6 -1.4,0.6 z"
     fill="#594a41"
     id="path652" />
  <path
     d="m 1004.4,370.3074 c 0,25.7 -20.8,46.4 -46.4,46.4 -25.7,0 -46.4,-20.8 -46.4,-46.4 0,-25.7 20.8,-46.4 46.4,-46.4 25.6,-0.1 46.4,20.7 46.4,46.4 z"
     fill="#8dc63f"
     id="path654" />
  <path
     d="m 1004.4,370.3074 c 0,-25.7 -20.8,-46.4 -46.4,-46.4 v 92.9 c 25.6,-0.1 46.4,-20.9 46.4,-46.5 z"
     fill="#6ba939"
     id="path656" />
  <path
     d="m 957.9,444.1074 c -1.1,0 -2.1,-0.9 -2.1,-2.1 v -65.1 c 0,-1.1 0.9,-2.1 2.1,-2.1 1.1,0 2.1,0.9 2.1,2.1 v 65.1 c 0,1.2 -0.9,2.1 -2.1,2.1 z"
     fill="#594a41"
     id="path658" />
  <path
     d="m 957.9,402.8074 c -0.5,0 -1.1,-0.2 -1.5,-0.6 -0.8,-0.8 -0.8,-2.1 0,-2.9 l 9.7,-9.7 c 0.8,-0.8 2.1,-0.8 2.9,0 0.8,0.8 0.8,2.1 0,2.9 l -9.7,9.7 c -0.3,0.4 -0.9,0.6 -1.4,0.6 z"
     fill="#594a41"
     id="path660" />
  <path
     d="m 957.9,394.3074 c -0.5,0 -1.1,-0.2 -1.5,-0.6 l -12.8,-12.8 c -0.8,-0.8 -0.8,-2.1 0,-2.9 0.8,-0.8 2.1,-0.8 2.9,0 l 12.8,12.8 c 0.8,0.8 0.8,2.1 0,2.9 -0.3,0.4 -0.9,0.6 -1.4,0.6 z"
     fill="#594a41"
     id="path662" />
  <path
     d="m 712.8,535.1074 c 0,25.7 20.8,46.4 46.4,46.4 25.7,0 46.4,-20.8 46.4,-46.4 0,-25.6 -20.8,-46.4 -46.4,-46.4 -25.6,-0.1 -46.4,20.7 -46.4,46.4 z"
     fill="#dbe13a"
     id="path664" />
  <path
     d="m 712.8,535.1074 c 0,-25.7 20.8,-46.4 46.4,-46.4 v 92.9 c -25.6,-0.1 -46.4,-20.9 -46.4,-46.5 z"
     fill="#bbd644"
     id="path666" />
  <path
     d="m 759.2,608.9074 c -1.1,0 -2.1,-0.9 -2.1,-2.1 v -65.1 c 0,-1.1 0.9,-2.1 2.1,-2.1 1.1,0 2.1,0.9 2.1,2.1 v 65.2 c 0,1.1 -0.9,2 -2.1,2 z"
     fill="#594a41"
     id="path668" />
  <path
     d="m 759.2,567.6074 c -0.5,0 -1.1,-0.2 -1.5,-0.6 l -9.7,-9.7 c -0.8,-0.8 -0.8,-2.1 0,-2.9 0.8,-0.8 2.1,-0.8 2.9,0 l 9.7,9.7 c 0.8,0.8 0.8,2.1 0,2.9 -0.3,0.4 -0.8,0.6 -1.4,0.6 z"
     fill="#594a41"
     id="path670" />
  <path
     d="m 759.2,559.1074 c -0.5,0 -1.1,-0.2 -1.5,-0.6 -0.8,-0.8 -0.8,-2.1 0,-2.9 l 12.8,-12.8 c 0.8,-0.8 2.1,-0.8 2.9,0 0.8,0.8 0.8,2.1 0,2.9 l -12.8,12.8 c -0.3,0.4 -0.8,0.6 -1.4,0.6 z"
     fill="#594a41"
     id="path672" />
  <path
     d="m 2712.1,451.7074 c 0,17.4 -14.1,31.5 -31.5,31.5 -17.4,0 -31.5,-14.1 -31.5,-31.5 0,-17.4 14.1,-31.5 31.5,-31.5 17.4,0 31.5,14.1 31.5,31.5 z"
     fill="#8dc63f"
     id="path674" />
  <path
     d="m 2712.1,451.7074 c 0,-17.4 -14.1,-31.5 -31.5,-31.5 v 63 c 17.4,0 31.5,-14.1 31.5,-31.5 z"
     fill="#6ba939"
     id="path676" />
  <path
     d="m 2680.6,502.4074 c -1.1,0 -2.1,-0.9 -2.1,-2.1 v -44.1 c 0,-1.1 0.9,-2.1 2.1,-2.1 1.1,0 2.1,0.9 2.1,2.1 v 44.1 c 0,1.2 -0.9,2.1 -2.1,2.1 z"
     fill="#594a41"
     id="path678" />
  <path
     d="m 2680.6,474.4074 c -0.5,0 -1.1,-0.2 -1.5,-0.6 -0.8,-0.8 -0.8,-2.1 0,-2.9 l 6.6,-6.6 c 0.8,-0.8 2.1,-0.8 2.9,0 0.8,0.8 0.8,2.1 0,2.9 l -6.6,6.6 c -0.3,0.4 -0.8,0.6 -1.4,0.6 z"
     fill="#594a41"
     id="path680" />
  <path
     d="m 2680.6,468.7074 c -0.5,0 -1.1,-0.2 -1.5,-0.6 l -8.7,-8.7 c -0.8,-0.8 -0.8,-2.1 0,-2.9 0.8,-0.8 2.1,-0.8 2.9,0 l 8.7,8.7 c 0.8,0.8 0.8,2.1 0,2.9 -0.3,0.4 -0.8,0.6 -1.4,0.6 z"
     fill="#594a41"
     id="path682" />
  <path
     d="m 3530.7,552.0074 c 0,-47.2 -14,-125.6 -31.3,-125.6 -17.3,0 -31.3,78.4 -31.3,125.6 0,17.3 14,31.3 31.3,31.3 17.3,0 31.3,-14 31.3,-31.3 z"
     fill="#dbe13a"
     id="path684" />
  <path
     d="m 3530.7,552.0074 c 0,-47.2 -14,-125.6 -31.3,-125.6 v 156.9 c 17.2,0 31.3,-14 31.3,-31.3 z"
     fill="#bbd644"
     id="path686" />
  <path
     d="m 3499.4,618.5074 c -1.1,0 -2.1,-0.9 -2.1,-2.1 v -85.1 c 0,-1.1 0.9,-2.1 2.1,-2.1 1.2,0 2.1,0.9 2.1,2.1 v 85.1 c -0.1,1.2 -1,2.1 -2.1,2.1 z"
     fill="#594a41"
     id="path688" />
  <path
     d="m 3499.4,564.5074 c -0.5,0 -1.1,-0.2 -1.5,-0.6 l -12.7,-12.7 c -0.8,-0.8 -0.8,-2.1 0,-2.9 0.8,-0.8 2.1,-0.8 2.9,0 l 12.6,12.7 c 0.8,0.8 0.8,2.1 0,2.9 -0.3,0.4 -0.8,0.6 -1.3,0.6 z"
     fill="#594a41"
     id="path690" />
  <path
     d="m 3499.4,553.4074 c -0.5,0 -1.1,-0.2 -1.5,-0.6 -0.8,-0.8 -0.8,-2.1 0,-2.9 l 16.8,-16.8 c 0.8,-0.8 2.1,-0.8 2.9,0 0.8,0.8 0.8,2.1 0,2.9 l -16.8,16.8 c -0.4,0.4 -0.9,0.6 -1.4,0.6 z"
     fill="#594a41"
     id="path692" />
  <path
     d="m 687.9,276.5074 c 0,-47.2 14,-125.6 31.3,-125.6 17.3,0 31.3,78.4 31.3,125.6 0,17.3 -14,31.3 -31.3,31.3 -17.3,0 -31.3,-14 -31.3,-31.3 z"
     fill="#dbe13a"
     id="path694" />
  <path
     d="m 687.9,276.5074 c 0,-47.2 14,-125.6 31.3,-125.6 v 156.9 c -17.3,0 -31.3,-14 -31.3,-31.3 z"
     fill="#bbd644"
     id="path696" />
  <path
     d="m 719.2,343.0074 c -1.1,0 -2.1,-0.9 -2.1,-2.1 v -85.1 c 0,-1.1 0.9,-2.1 2.1,-2.1 1.1,0 2.1,0.9 2.1,2.1 v 85.1 c 0,1.1 -0.9,2.1 -2.1,2.1 z"
     fill="#594a41"
     id="path698" />
  <path
     d="m 719.2,288.9074 c -0.5,0 -1.1,-0.2 -1.5,-0.6 -0.8,-0.8 -0.8,-2.1 0,-2.9 l 12.6,-12.7 c 0.8,-0.8 2.1,-0.8 2.9,0 0.8,0.8 0.8,2.1 0,2.9 l -12.6,12.6 c -0.3,0.5 -0.9,0.7 -1.4,0.7 z"
     fill="#594a41"
     id="path700" />
  <path
     d="m 719.2,277.9074 c -0.5,0 -1.1,-0.2 -1.5,-0.6 l -16.7,-16.8 c -0.8,-0.8 -0.8,-2.1 0,-2.9 0.8,-0.8 2.1,-0.8 2.9,0 l 16.8,16.8 c 0.8,0.8 0.8,2.1 0,2.9 -0.4,0.4 -1,0.6 -1.5,0.6 z"
     fill="#594a41"
     id="path702" />
  <path
     d="m 3393.3,285.2074 c 0,-34.5 -9.8,-74.4 -29.7,-74.4 -19.9,0 -29.7,39.9 -29.7,74.4 0,12.6 9.8,22.9 29.7,22.9 19.9,-0.1 29.7,-10.3 29.7,-22.9 z"
     fill="#bbd644"
     id="path704" />
  <path
     d="m 3393.3,285.2074 c 0,-34.5 -9.8,-74.4 -29.7,-74.4 v 97.2 c 19.9,0 29.7,-10.2 29.7,-22.8 z"
     fill="#abc53e"
     id="path706" />
  <path
     d="m 3363.6,343.2074 c -1.1,0 -2.1,-0.9 -2.1,-2.1 v -85.1 c 0,-1.1 0.9,-2.1 2.1,-2.1 1.1,0 2.1,0.9 2.1,2.1 v 85.1 c 0,1.2 -1,2.1 -2.1,2.1 z"
     fill="#594a41"
     id="path708" />
  <path
     d="m 3363.6,289.2074 c -0.5,0 -1.1,-0.2 -1.5,-0.6 l -12.7,-12.7 c -0.8,-0.8 -0.8,-2.1 0,-2.9 0.8,-0.8 2.1,-0.8 2.9,0 l 12.7,12.7 c 0.8,0.8 0.8,2.1 0,2.9 -0.4,0.4 -0.9,0.6 -1.4,0.6 z"
     fill="#594a41"
     id="path710" />
  <path
     d="m 3363.6,278.1074 c -0.5,0 -1.1,-0.2 -1.5,-0.6 -0.8,-0.8 -0.8,-2.1 0,-2.9 l 16.8,-16.8 c 0.8,-0.8 2.1,-0.8 2.9,0 0.8,0.8 0.8,2.1 0,2.9 l -16.8,16.8 c -0.4,0.4 -0.9,0.6 -1.4,0.6 z"
     fill="#594a41"
     id="path712" />
  <path
     d="m 1130.5,552.1074 c 0,-34.5 9.8,-74.4 29.7,-74.4 19.9,0 29.7,39.9 29.7,74.4 0,12.6 -9.8,22.9 -29.7,22.9 -19.9,0 -29.7,-10.2 -29.7,-22.9 z"
     fill="#8dc63f"
     id="path714" />
  <path
     d="m 1130.5,552.1074 c 0,-34.5 9.8,-74.4 29.7,-74.4 v 97.2 c -19.9,0.1 -29.7,-10.1 -29.7,-22.8 z"
     fill="#6ba939"
     id="path716" />
  <path
     d="m 1160.2,610.2074 c -1.1,0 -2.1,-0.9 -2.1,-2.1 v -85.1 c 0,-1.1 0.9,-2.1 2.1,-2.1 1.1,0 2.1,0.9 2.1,2.1 v 85.1 c -0.1,1.2 -1,2.1 -2.1,2.1 z"
     fill="#594a41"
     id="path718" />
  <path
     d="m 1160.2,556.1074 c -0.5,0 -1.1,-0.2 -1.5,-0.6 -0.8,-0.8 -0.8,-2.1 0,-2.9 l 12.6,-12.7 c 0.8,-0.8 2.1,-0.8 2.9,0 0.8,0.8 0.8,2.1 0,2.9 l -12.6,12.6 c -0.4,0.5 -0.9,0.7 -1.4,0.7 z"
     fill="#594a41"
     id="path720" />
  <path
     d="m 1160.2,545.1074 c -0.5,0 -1.1,-0.2 -1.5,-0.6 l -16.8,-16.8 c -0.8,-0.8 -0.8,-2.1 0,-2.9 0.8,-0.8 2.1,-0.8 2.9,0 l 16.8,16.8 c 0.8,0.8 0.8,2.1 0,2.9 -0.4,0.4 -0.9,0.6 -1.4,0.6 z"
     fill="#594a41"
     id="path722" />
  <g
     id="g793"
     fill="#ffffff"
     transform="matrix(3.666221,0,0,1.8436103,1.6603889,0)">
    <circle
       id="circle773"
       r="7.8000002"
       cy="53.900002"
       cx="445.20001" />
    <circle
       id="ellipse775"
       cy="53.900002"
       cx="156.10001"
       r="7.8000002" />
    <path
       id="path777"
       d="m 993.6,46.1 c -4.3,0 -7.8,3.5 -7.8,7.8 0,4.3 3.5,7.8 7.8,7.8 4.3,0 7.8,-3.5 7.8,-7.8 0,-4.3 -3.5,-7.8 -7.8,-7.8 z" />
    <path
       id="path779"
       d="m 467.8,46.1 c -4.3,0 -7.8,3.5 -7.8,7.8 0,4.3 3.5,7.8 7.8,7.8 4.3,0 7.8,-3.5 7.8,-7.8 0,-4.3 -3.5,-7.8 -7.8,-7.8 z" />
    <path
       id="path781"
       d="m 1012.4,102.9 c 0,-4.2 3.4,-7.7 7.7,-7.7 h 43.8 c 4.2,0 7.7,3.4 7.7,7.7 0,4.2 -3.4,7.7 -7.7,7.7 H 1020 c -4.2,0 -7.6,-3.5 -7.6,-7.7 z" />
    <path
       id="path783"
       d="m 0.1,53.9 c 0,-4.2 3.4,-7.7 7.7,-7.7 h 43.8 c 4.2,0 7.7,3.4 7.7,7.7 0,4.2 -3.4,7.7 -7.7,7.7 H 7.8 C 3.6,61.5 0.1,58.1 0.1,53.9 Z" />
    <path
       id="path785"
       d="m 66.8,86.4 c 0,-3.8 3.1,-6.8 6.8,-6.8 h 39.6 c 3.8,0 6.8,3.1 6.8,6.8 0,3.8 -3.1,6.8 -6.8,6.8 H 73.6 c -3.8,0.1 -6.8,-3 -6.8,-6.8 z m -13,6.9 c 3.8,0 6.8,-3.1 6.8,-6.8 0,-3.8 -3.1,-6.8 -6.8,-6.8 -3.8,0 -6.8,3.1 -6.8,6.8 0,3.7 3.1,6.8 6.8,6.8 z" />
    <path
       id="path787"
       d="m 1091.2,63.9 c 0,-3.8 3.1,-6.8 6.8,-6.8 h 39.6 c 3.8,0 6.8,3.1 6.8,6.8 0,3.8 -3.1,6.8 -6.8,6.8 H 1098 c -3.7,0 -6.8,-3 -6.8,-6.8 z m -12.9,6.8 c 3.8,0 6.8,-3.1 6.8,-6.8 0,-3.8 -3.1,-6.8 -6.8,-6.8 -3.7,0 -6.8,3.1 -6.8,6.8 0,3.8 3,6.8 6.8,6.8 z" />
    <path
       id="path789"
       d="m 555.5,53.4 c 0,3.8 -3.1,6.8 -6.8,6.8 H 509 c -3.8,0 -6.8,-3.1 -6.8,-6.8 0,-3.8 3.1,-6.8 6.8,-6.8 h 39.6 c 3.8,0 6.9,3.1 6.9,6.8 z m 12.9,-6.8 c -3.8,0 -6.8,3.1 -6.8,6.8 0,3.7 3.1,6.8 6.8,6.8 3.8,0 6.8,-3.1 6.8,-6.8 0,-3.7 -3,-6.8 -6.8,-6.8 z m 19.8,0 c -3.8,0 -6.8,3.1 -6.8,6.8 0,3.7 3.1,6.8 6.8,6.8 3.7,0 6.8,-3.1 6.8,-6.8 0,-3.7 -3,-6.8 -6.8,-6.8 z" />
    <path
       id="path791"
       d="m 311.9,0.1 c 4.2,0.2 7.5,3.6 7.5,7.8 0,4 -3,7.2 -6.8,7.7 H 54.5 c -5,0 -9.1,3.5 -9.1,7.9 0,4.3 4.1,7.9 9.1,7.9 H 208 c 4.3,0 7.8,3.3 7.8,7.4 0,4.1 -3.5,7.4 -7.8,7.4 h -26.5 c -4.3,0 -7.8,3.5 -7.8,7.8 0,4.3 3.5,7.8 7.8,7.8 h 86.7 c 2,1.5 3.2,3.8 3.2,6.5 0,4.5 -3.7,8.2 -8.2,8.2 h -23.4 c -4.5,0 -8.2,3.7 -8.2,8.2 0,4.5 3.7,8.2 8.2,8.2 h 96.7 c 4.5,0 8.2,-3.7 8.2,-8.2 -0.1,-4.5 -3.8,-8.2 -8.3,-8.2 h -4.1 -35.5 c -4.5,0 -8.2,-3.7 -8.2,-8.2 0,-2.7 1.3,-5 3.2,-6.5 h 125.6 c 4.3,0 7.8,-3.5 7.8,-7.8 0,-4.3 -3.5,-7.8 -7.8,-7.8 h -11.2 c -4.3,0 -7.8,-3.3 -7.8,-7.4 0,-4.1 3.5,-7.4 7.8,-7.4 h 299.1 c 4.3,0 7.8,3.3 7.8,7.4 0,4.1 -3.5,7.4 -7.8,7.4 h -65.4 c -4.3,0 -7.8,3.5 -7.8,7.8 0,4.3 3.5,7.8 7.8,7.8 h 248.8 c 2,1.5 3.2,3.8 3.2,6.5 0,4.5 -3.7,8.2 -8.2,8.2 h -23.4 c -4.5,0 -8.2,3.7 -8.2,8.2 0,4.5 3.7,8.2 8.2,8.2 H 957 c 4.5,0 8.2,-3.7 8.2,-8.2 -0.1,-4.5 -3.7,-8.2 -8.3,-8.2 h -4.1 -35.5 c -4.5,0 -8.2,-3.7 -8.2,-8.2 0,-2.7 1.3,-5 3.2,-6.5 h 56.8 c 4.3,0 7.8,-3.5 7.8,-7.8 0,-4.3 -3.5,-7.8 -7.8,-7.8 h -25.4 c -4.3,0 -7.8,-3.3 -7.8,-7.4 0,-4.1 3.5,-7.4 7.8,-7.4 h 133.5 c 5,0 9.1,-3.5 9.1,-7.9 0,-4.4 -4.1,-7.9 -9.1,-7.9 h -43.4 c -3.8,-0.5 -6.8,-3.8 -6.8,-7.7 0,-4.2 3.3,-7.6 7.5,-7.8 z m 173.3,15.3 c -4.3,0 -7.7,-3.5 -7.7,-7.7 0,-4.2 3.5,-7.7 7.7,-7.7 4.3,0 7.7,3.5 7.7,7.7 0,4.3 -3.5,7.7 -7.7,7.7 z m 22.3,0.1 c -4.3,0 -7.7,-3.5 -7.7,-7.7 0,-4.2 3.5,-7.7 7.7,-7.7 4.3,0 7.7,3.5 7.7,7.7 0,4.2 -3.4,7.7 -7.7,7.7 z M 818.2,15.4 H 589.9 c -4.3,0 -7.7,-3.5 -7.7,-7.7 0,-4.2 3.5,-7.7 7.7,-7.7 h 228.3 c 4.2,0 7.7,3.5 7.7,7.7 0,4.3 -3.5,7.7 -7.7,7.7 z" />
  </g>
</svg>
