<svg enable-background="new 0 0 1145 110.6" viewBox="0 0 1145 110.6" xmlns="http://www.w3.org/2000/svg"><g fill="#fff"><circle cx="445.2" cy="53.9" r="7.8"/><ellipse cx="156.1" cy="53.9" rx="7.8" ry="7.8"/><path d="m993.6 46.1c-4.3 0-7.8 3.5-7.8 7.8s3.5 7.8 7.8 7.8 7.8-3.5 7.8-7.8-3.5-7.8-7.8-7.8z"/><path d="m467.8 46.1c-4.3 0-7.8 3.5-7.8 7.8s3.5 7.8 7.8 7.8 7.8-3.5 7.8-7.8-3.5-7.8-7.8-7.8z"/><path d="m1012.4 102.9c0-4.2 3.4-7.7 7.7-7.7h43.8c4.2 0 7.7 3.4 7.7 7.7 0 4.2-3.4 7.7-7.7 7.7h-43.9c-4.2 0-7.6-3.5-7.6-7.7z"/><path d="m.1 53.9c0-4.2 3.4-7.7 7.7-7.7h43.8c4.2 0 7.7 3.4 7.7 7.7 0 4.2-3.4 7.7-7.7 7.7h-43.8c-4.2-.1-7.7-3.5-7.7-7.7z"/><path d="m66.8 86.4c0-3.8 3.1-6.8 6.8-6.8h39.6c3.8 0 6.8 3.1 6.8 6.8 0 3.8-3.1 6.8-6.8 6.8h-39.6c-3.8.1-6.8-3-6.8-6.8zm-13 6.9c3.8 0 6.8-3.1 6.8-6.8 0-3.8-3.1-6.8-6.8-6.8-3.8 0-6.8 3.1-6.8 6.8s3.1 6.8 6.8 6.8z"/><path d="m1091.2 63.9c0-3.8 3.1-6.8 6.8-6.8h39.6c3.8 0 6.8 3.1 6.8 6.8 0 3.8-3.1 6.8-6.8 6.8h-39.6c-3.7 0-6.8-3-6.8-6.8zm-12.9 6.8c3.8 0 6.8-3.1 6.8-6.8 0-3.8-3.1-6.8-6.8-6.8s-6.8 3.1-6.8 6.8c0 3.8 3 6.8 6.8 6.8z"/><path d="m555.5 53.4c0 3.8-3.1 6.8-6.8 6.8h-39.7c-3.8 0-6.8-3.1-6.8-6.8 0-3.8 3.1-6.8 6.8-6.8h39.6c3.8 0 6.9 3.1 6.9 6.8zm12.9-6.8c-3.8 0-6.8 3.1-6.8 6.8s3.1 6.8 6.8 6.8c3.8 0 6.8-3.1 6.8-6.8s-3-6.8-6.8-6.8zm19.8 0c-3.8 0-6.8 3.1-6.8 6.8s3.1 6.8 6.8 6.8 6.8-3.1 6.8-6.8-3-6.8-6.8-6.8z"/><path d="m311.9.1c4.2.2 7.5 3.6 7.5 7.8 0 4-3 7.2-6.8 7.7h-258.1c-5 0-9.1 3.5-9.1 7.9 0 4.3 4.1 7.9 9.1 7.9h153.5c4.3 0 7.8 3.3 7.8 7.4s-3.5 7.4-7.8 7.4h-26.5c-4.3 0-7.8 3.5-7.8 7.8s3.5 7.8 7.8 7.8h86.7c2 1.5 3.2 3.8 3.2 6.5 0 4.5-3.7 8.2-8.2 8.2h-23.4c-4.5 0-8.2 3.7-8.2 8.2s3.7 8.2 8.2 8.2h96.7c4.5 0 8.2-3.7 8.2-8.2-.1-4.5-3.8-8.2-8.3-8.2h-4.1-35.5c-4.5 0-8.2-3.7-8.2-8.2 0-2.7 1.3-5 3.2-6.5h125.6c4.3 0 7.8-3.5 7.8-7.8s-3.5-7.8-7.8-7.8h-11.2c-4.3 0-7.8-3.3-7.8-7.4s3.5-7.4 7.8-7.4h299.1c4.3 0 7.8 3.3 7.8 7.4s-3.5 7.4-7.8 7.4h-65.4c-4.3 0-7.8 3.5-7.8 7.8s3.5 7.8 7.8 7.8h248.8c2 1.5 3.2 3.8 3.2 6.5 0 4.5-3.7 8.2-8.2 8.2h-23.4c-4.5 0-8.2 3.7-8.2 8.2s3.7 8.2 8.2 8.2h96.7c4.5 0 8.2-3.7 8.2-8.2-.1-4.5-3.7-8.2-8.3-8.2h-4.1-35.5c-4.5 0-8.2-3.7-8.2-8.2 0-2.7 1.3-5 3.2-6.5h56.8c4.3 0 7.8-3.5 7.8-7.8s-3.5-7.8-7.8-7.8h-25.4c-4.3 0-7.8-3.3-7.8-7.4s3.5-7.4 7.8-7.4h133.5c5 0 9.1-3.5 9.1-7.9s-4.1-7.9-9.1-7.9h-43.4c-3.8-.5-6.8-3.8-6.8-7.7 0-4.2 3.3-7.6 7.5-7.8zm173.3 15.3c-4.3 0-7.7-3.5-7.7-7.7s3.5-7.7 7.7-7.7c4.3 0 7.7 3.5 7.7 7.7 0 4.3-3.5 7.7-7.7 7.7zm22.3.1c-4.3 0-7.7-3.5-7.7-7.7s3.5-7.7 7.7-7.7c4.3 0 7.7 3.5 7.7 7.7s-3.4 7.7-7.7 7.7zm310.7-.1h-228.3c-4.3 0-7.7-3.5-7.7-7.7s3.5-7.7 7.7-7.7h228.3c4.2 0 7.7 3.5 7.7 7.7 0 4.3-3.5 7.7-7.7 7.7z"/></g></svg>