<svg enable-background="new 0 0 4201.8 482.1" viewBox="0 0 4201.8 482.1" xmlns="http://www.w3.org/2000/svg"><path d="m1311.3 482.1h1723.8c-138.1-155.7-602.9-205.4-851.9-205.4s-673.6 52.8-871.9 205.4z" fill="#6ba939"/><path d="m2571.1 379.2c0-26-7.4-56.1-22.4-56.1s-22.4 30.1-22.4 56.1c0 9.5 7.4 17.2 22.4 17.2s22.4-7.7 22.4-17.2z" fill="#abc53e"/><path d="m2571.1 379.2c0-26-7.4-56.1-22.4-56.1v73.3c15 0 22.4-7.7 22.4-17.2z" fill="#a2ba3b"/><path d="m2548.7 423.4c-1.1 0-2.1-.9-2.1-2.1v-64.2c0-1.1.9-2.1 2.1-2.1s2.1.9 2.1 2.1v64.2c0 1.2-.9 2.1-2.1 2.1z" fill="#594a41"/><path d="m2548.7 382.7c-.5 0-1.1-.2-1.5-.6l-9.5-9.5c-.8-.8-.8-2.1 0-2.9s2.1-.8 2.9 0l9.5 9.5c.8.8.8 2.1 0 2.9-.3.4-.9.6-1.4.6z" fill="#594a41"/><path d="m2548.7 374.4c-.5 0-1.1-.2-1.5-.6-.8-.8-.8-2.1 0-2.9l12.7-12.7c.8-.8 2.1-.8 2.9 0s.8 2.1 0 2.9l-12.7 12.7c-.3.4-.9.6-1.4.6z" fill="#594a41"/><path d="m3553.7 482.1v-.3h643.5c-125.9-184.1-386.8-310.7-688.2-310.7-31.5 0-62.6 1.4-93.1 4.1-282.1 10.9-523.8 132.8-644.6 306.9z" fill="#bbd644"/><path d="m753.4 482.1h1370.5c-183.6-137.6-440.4-223.1-724.6-223.1-245.6 0-470.7 63.9-645.9 170.1z" fill="#8dc63f"/><path d="m1665.2 363c0 22.9-18.6 41.5-41.5 41.5s-41.5-18.6-41.5-41.5 18.6-41.5 41.5-41.5c23 0 41.5 18.6 41.5 41.5z" fill="#6ba939"/><path d="m1665.2 363c0-22.9-18.6-41.5-41.5-41.5v82.9c23 0 41.5-18.5 41.5-41.4z" fill="#5c9531"/><path d="m1623.8 429.1c-1.1 0-2.1-.9-2.1-2.1v-58c0-1.1.9-2.1 2.1-2.1 1.1 0 2.1.9 2.1 2.1v58c0 1.2-1 2.1-2.1 2.1z" fill="#594a41"/><path d="m1623.8 392.2c-.5 0-1.1-.2-1.5-.6-.8-.8-.8-2.1 0-2.9l8.6-8.6c.8-.8 2.1-.8 2.9 0s.8 2.1 0 2.9l-8.6 8.6c-.4.4-.9.6-1.4.6z" fill="#594a41"/><path d="m1623.8 384.7c-.5 0-1.1-.2-1.5-.6l-11.5-11.5c-.8-.8-.8-2.1 0-2.9s2.1-.8 2.9 0l11.5 11.5c.8.8.8 2.1 0 2.9-.4.4-.9.6-1.4.6z" fill="#594a41"/><path d="m1532 285.2c0-26-7.4-56.1-22.4-56.1s-22.4 30.1-22.4 56.1c0 9.5 7.4 17.2 22.4 17.2 15 .1 22.4-7.6 22.4-17.2z" fill="#dbe13a"/><path d="m1532 285.2c0-26-7.4-56.1-22.4-56.1v73.3c15 .1 22.4-7.6 22.4-17.2z" fill="#bbd644"/><path d="m1509.6 329.5c-1.1 0-2.1-.9-2.1-2.1v-64.2c0-1.1.9-2.1 2.1-2.1 1.1 0 2.1.9 2.1 2.1v64.2c0 1.2-.9 2.1-2.1 2.1z" fill="#594a41"/><path d="m1509.6 288.8c-.5 0-1.1-.2-1.5-.6l-9.5-9.5c-.8-.8-.8-2.1 0-2.9s2.1-.8 2.9 0l9.5 9.5c.8.8.8 2.1 0 2.9-.3.4-.8.6-1.4.6z" fill="#594a41"/><path d="m1509.6 280.4c-.5 0-1.1-.2-1.5-.6-.8-.8-.8-2.1 0-2.9l12.7-12.7c.8-.8 2.1-.8 2.9 0s.8 2.1 0 2.9l-12.7 12.7c-.3.4-.8.6-1.4.6z" fill="#594a41"/><path d="m707.5 171.5c-3.2 0-6.4 0-9.6.1-3.2 0-6.4-.1-9.6-.1-301.6 0-562.4 126.5-688.3 310.6h653.3 88.9 653.3c-125.8-184.1-386.6-310.6-688-310.6z" fill="#bbd644"/><g fill="#abc53e"><path d="m992.8 351.7c9 0 16.3-7.3 16.3-16.3s-7.3-16.3-16.3-16.3-16.3 7.3-16.3 16.3 7.3 16.3 16.3 16.3z"/><path d="m858.4 286.5c9 0 16.3-7.3 16.3-16.3s-7.3-16.3-16.3-16.3-16.3 7.3-16.3 16.3 7.3 16.3 16.3 16.3z"/><path d="m1018.5 384.3h-144.3c-9 0-16.3-7.3-16.3-16.3s7.3-16.3 16.3-16.3h68.6c9 0 16.3-7.3 16.3-16.3s-7.3-16.3-16.3-16.3h-190c-9 0-16.3-7.3-16.3-16.3s7.3-16.3 16.3-16.3h56.7c9 0 16.3-7.3 16.3-16.3s-7.3-16.3-16.3-16.3h-142-119.5c-9 0-16.3 7.3-16.3 16.3s7.3 16.3 16.3 16.3h21.4c9 0 16.3 7.3 16.3 16.3s-7.3 16.3-16.3 16.3h-57.1c-9 0-16.3 7.3-16.3 16.3s7.3 16.3 16.3 16.3h104.3c9 0 16.3 7.3 16.3 16.3s-7.3 16.3-16.3 16.3h-68.6c-9 0-16.3 7.3-16.3 16.3s7.3 16.3 16.3 16.3h110c9 0 16.3 7.3 16.3 16.3s-7.3 16.3-16.3 16.3h-56.7c-9 0-16.3 7.3-16.3 16.3s7.3 16.3 16.3 16.3h52 289.5c9 0 16.3-7.3 16.3-16.3s-7.3-16.3-16.3-16.3h-21.4c-9 0-16.3-7.3-16.3-16.3s7.3-16.3 16.3-16.3h97.1c9 0 16.3-7.3 16.3-16.3s-7.3-16.3-16.3-16.3z"/><path d="m498 384.3c-9 0-16.3 7.3-16.3 16.3s7.3 16.3 16.3 16.3 16.3-7.3 16.3-16.3-7.3-16.3-16.3-16.3z"/><path d="m552.4 449.5c-9 0-16.3 7.3-16.3 16.3s7.3 16.3 16.3 16.3 16.3-7.3 16.3-16.3-7.3-16.3-16.3-16.3z"/><path d="m3343.7 286.5c9 0 16.3-7.3 16.3-16.3s-7.3-16.3-16.3-16.3-16.3 7.3-16.3 16.3c0 9.1 7.2 16.3 16.3 16.3z"/><path d="m3176.2 384.3c-9 0-16.3 7.3-16.3 16.3s7.3 16.3 16.3 16.3 16.3-7.3 16.3-16.3-7.3-16.3-16.3-16.3z"/><path d="m3795.3 319.1c-9 0-16.3 7.3-16.3 16.3s7.3 16.3 16.3 16.3 16.3-7.3 16.3-16.3-7.3-16.3-16.3-16.3z"/><path d="m3667.8 449.5c-9 0-16.3 7.3-16.3 16.3s7.3 16.3 16.3 16.3 16.3-7.3 16.3-16.3-7.3-16.3-16.3-16.3z"/><path d="m3748.6 319.1h-136.4c-9 0-16.3-7.3-16.3-16.3s7.3-16.3 16.3-16.3h112.6c9 0 16.3-7.3 16.3-16.3s-7.3-16.3-16.3-16.3h-171.1-45.9-115c-9 0-16.3 7.3-16.3 16.3s7.3 16.3 16.3 16.3h53.9c9 0 16.3 7.3 16.3 16.3s-7.3 16.3-16.3 16.3h-199.9c-9 0-16.3 7.3-16.3 16.3s7.3 16.3 16.3 16.3h64.5c9 0 16.3 7.3 16.3 16.3s-7.3 16.3-16.3 16.3h-88.4c-9 0-16.3 7.3-16.3 16.3s7.3 16.3 16.3 16.3h136.4c9 0 16.3 7.3 16.3 16.3s-7.3 16.3-16.3 16.3h-112.6c-9 0-16.3 7.3-16.3 16.3s7.3 16.3 16.3 16.3h261.1 45.9 65c9 0 16.3-7.3 16.3-16.3s-7.3-16.3-16.3-16.3h-53.9c-9 0-16.3-7.3-16.3-16.3s7.3-16.3 16.3-16.3h159.9c9 0 16.3-7.3 16.3-16.3s-7.3-16.3-16.3-16.3h-64.5c-9 0-16.3-7.3-16.3-16.3s7.3-16.3 16.3-16.3h88.4c9 0 16.3-7.3 16.3-16.3s-7.3-16.3-16.3-16.3z"/></g><ellipse cx="3059.9" cy="258.9" fill="#8dc63f" rx="60.7" ry="60.7" transform="matrix(.919 -.3942 .3942 .919 145.7122 1227.214)"/><path d="m3120.7 259c0-33.5-27.2-60.7-60.7-60.7v121.4c33.5 0 60.7-27.2 60.7-60.7z" fill="#6ba939"/><path d="m3060 354.9c-1.1 0-2.1-.9-2.1-2.1v-85.1c0-1.1.9-2.1 2.1-2.1 1.1 0 2.1.9 2.1 2.1v85.1c-.1 1.2-1 2.1-2.1 2.1z" fill="#594a41"/><path d="m3060 300.9c-.5 0-1.1-.2-1.5-.6-.8-.8-.8-2.1 0-2.9l12.6-12.6c.8-.8 2.1-.8 2.9 0s.8 2.1 0 2.9l-12.7 12.7c-.3.3-.8.5-1.3.5z" fill="#594a41"/><path d="m3060 289.8c-.5 0-1.1-.2-1.5-.6l-16.8-16.8c-.8-.8-.8-2.1 0-2.9s2.1-.8 2.9 0l16.8 16.8c.8.8.8 2.1 0 2.9-.4.4-.9.6-1.4.6z" fill="#594a41"/><path d="m1004.4 219.4c0 25.7-20.8 46.4-46.4 46.4-25.7 0-46.4-20.8-46.4-46.4 0-25.7 20.8-46.4 46.4-46.4 25.6-.1 46.4 20.7 46.4 46.4z" fill="#8dc63f"/><path d="m1004.4 219.4c0-25.7-20.8-46.4-46.4-46.4v92.9c25.6-.1 46.4-20.9 46.4-46.5z" fill="#6ba939"/><path d="m957.9 293.2c-1.1 0-2.1-.9-2.1-2.1v-65.1c0-1.1.9-2.1 2.1-2.1 1.1 0 2.1.9 2.1 2.1v65.1c0 1.2-.9 2.1-2.1 2.1z" fill="#594a41"/><path d="m957.9 251.9c-.5 0-1.1-.2-1.5-.6-.8-.8-.8-2.1 0-2.9l9.7-9.7c.8-.8 2.1-.8 2.9 0s.8 2.1 0 2.9l-9.7 9.7c-.3.4-.9.6-1.4.6z" fill="#594a41"/><path d="m957.9 243.4c-.5 0-1.1-.2-1.5-.6l-12.8-12.8c-.8-.8-.8-2.1 0-2.9s2.1-.8 2.9 0l12.8 12.8c.8.8.8 2.1 0 2.9-.3.4-.9.6-1.4.6z" fill="#594a41"/><path d="m712.8 384.2c0 25.7 20.8 46.4 46.4 46.4 25.7 0 46.4-20.8 46.4-46.4s-20.8-46.4-46.4-46.4c-25.6-.1-46.4 20.7-46.4 46.4z" fill="#dbe13a"/><path d="m712.8 384.2c0-25.7 20.8-46.4 46.4-46.4v92.9c-25.6-.1-46.4-20.9-46.4-46.5z" fill="#bbd644"/><path d="m759.2 458c-1.1 0-2.1-.9-2.1-2.1v-65.1c0-1.1.9-2.1 2.1-2.1 1.1 0 2.1.9 2.1 2.1v65.2c0 1.1-.9 2-2.1 2z" fill="#594a41"/><path d="m759.2 416.7c-.5 0-1.1-.2-1.5-.6l-9.7-9.7c-.8-.8-.8-2.1 0-2.9s2.1-.8 2.9 0l9.7 9.7c.8.8.8 2.1 0 2.9-.3.4-.8.6-1.4.6z" fill="#594a41"/><path d="m759.2 408.2c-.5 0-1.1-.2-1.5-.6-.8-.8-.8-2.1 0-2.9l12.8-12.8c.8-.8 2.1-.8 2.9 0s.8 2.1 0 2.9l-12.8 12.8c-.3.4-.8.6-1.4.6z" fill="#594a41"/><path d="m2712.1 300.8c0 17.4-14.1 31.5-31.5 31.5s-31.5-14.1-31.5-31.5 14.1-31.5 31.5-31.5 31.5 14.1 31.5 31.5z" fill="#8dc63f"/><path d="m2712.1 300.8c0-17.4-14.1-31.5-31.5-31.5v63c17.4 0 31.5-14.1 31.5-31.5z" fill="#6ba939"/><path d="m2680.6 351.5c-1.1 0-2.1-.9-2.1-2.1v-44.1c0-1.1.9-2.1 2.1-2.1 1.1 0 2.1.9 2.1 2.1v44.1c0 1.2-.9 2.1-2.1 2.1z" fill="#594a41"/><path d="m2680.6 323.5c-.5 0-1.1-.2-1.5-.6-.8-.8-.8-2.1 0-2.9l6.6-6.6c.8-.8 2.1-.8 2.9 0s.8 2.1 0 2.9l-6.6 6.6c-.3.4-.8.6-1.4.6z" fill="#594a41"/><path d="m2680.6 317.8c-.5 0-1.1-.2-1.5-.6l-8.7-8.7c-.8-.8-.8-2.1 0-2.9s2.1-.8 2.9 0l8.7 8.7c.8.8.8 2.1 0 2.9-.3.4-.8.6-1.4.6z" fill="#594a41"/><path d="m3530.7 401.1c0-47.2-14-125.6-31.3-125.6s-31.3 78.4-31.3 125.6c0 17.3 14 31.3 31.3 31.3s31.3-14 31.3-31.3z" fill="#dbe13a"/><path d="m3530.7 401.1c0-47.2-14-125.6-31.3-125.6v156.9c17.2 0 31.3-14 31.3-31.3z" fill="#bbd644"/><path d="m3499.4 467.6c-1.1 0-2.1-.9-2.1-2.1v-85.1c0-1.1.9-2.1 2.1-2.1s2.1.9 2.1 2.1v85.1c-.1 1.2-1 2.1-2.1 2.1z" fill="#594a41"/><path d="m3499.4 413.6c-.5 0-1.1-.2-1.5-.6l-12.7-12.7c-.8-.8-.8-2.1 0-2.9s2.1-.8 2.9 0l12.6 12.7c.8.8.8 2.1 0 2.9-.3.4-.8.6-1.3.6z" fill="#594a41"/><path d="m3499.4 402.5c-.5 0-1.1-.2-1.5-.6-.8-.8-.8-2.1 0-2.9l16.8-16.8c.8-.8 2.1-.8 2.9 0s.8 2.1 0 2.9l-16.8 16.8c-.4.4-.9.6-1.4.6z" fill="#594a41"/><path d="m687.9 125.6c0-47.2 14-125.6 31.3-125.6s31.3 78.4 31.3 125.6c0 17.3-14 31.3-31.3 31.3s-31.3-14-31.3-31.3z" fill="#dbe13a"/><path d="m687.9 125.6c0-47.2 14-125.6 31.3-125.6v156.9c-17.3 0-31.3-14-31.3-31.3z" fill="#bbd644"/><path d="m719.2 192.1c-1.1 0-2.1-.9-2.1-2.1v-85.1c0-1.1.9-2.1 2.1-2.1 1.1 0 2.1.9 2.1 2.1v85.1c0 1.1-.9 2.1-2.1 2.1z" fill="#594a41"/><path d="m719.2 138c-.5 0-1.1-.2-1.5-.6-.8-.8-.8-2.1 0-2.9l12.6-12.7c.8-.8 2.1-.8 2.9 0s.8 2.1 0 2.9l-12.6 12.6c-.3.5-.9.7-1.4.7z" fill="#594a41"/><path d="m719.2 127c-.5 0-1.1-.2-1.5-.6l-16.7-16.8c-.8-.8-.8-2.1 0-2.9s2.1-.8 2.9 0l16.8 16.8c.8.8.8 2.1 0 2.9-.4.4-1 .6-1.5.6z" fill="#594a41"/><path d="m3393.3 134.3c0-34.5-9.8-74.4-29.7-74.4s-29.7 39.9-29.7 74.4c0 12.6 9.8 22.9 29.7 22.9 19.9-.1 29.7-10.3 29.7-22.9z" fill="#bbd644"/><path d="m3393.3 134.3c0-34.5-9.8-74.4-29.7-74.4v97.2c19.9 0 29.7-10.2 29.7-22.8z" fill="#abc53e"/><path d="m3363.6 192.3c-1.1 0-2.1-.9-2.1-2.1v-85.1c0-1.1.9-2.1 2.1-2.1 1.1 0 2.1.9 2.1 2.1v85.1c0 1.2-1 2.1-2.1 2.1z" fill="#594a41"/><path d="m3363.6 138.3c-.5 0-1.1-.2-1.5-.6l-12.7-12.7c-.8-.8-.8-2.1 0-2.9s2.1-.8 2.9 0l12.7 12.7c.8.8.8 2.1 0 2.9-.4.4-.9.6-1.4.6z" fill="#594a41"/><path d="m3363.6 127.2c-.5 0-1.1-.2-1.5-.6-.8-.8-.8-2.1 0-2.9l16.8-16.8c.8-.8 2.1-.8 2.9 0s.8 2.1 0 2.9l-16.8 16.8c-.4.4-.9.6-1.4.6z" fill="#594a41"/><path d="m1130.5 401.2c0-34.5 9.8-74.4 29.7-74.4s29.7 39.9 29.7 74.4c0 12.6-9.8 22.9-29.7 22.9s-29.7-10.2-29.7-22.9z" fill="#8dc63f"/><path d="m1130.5 401.2c0-34.5 9.8-74.4 29.7-74.4v97.2c-19.9.1-29.7-10.1-29.7-22.8z" fill="#6ba939"/><path d="m1160.2 459.3c-1.1 0-2.1-.9-2.1-2.1v-85.1c0-1.1.9-2.1 2.1-2.1 1.1 0 2.1.9 2.1 2.1v85.1c-.1 1.2-1 2.1-2.1 2.1z" fill="#594a41"/><path d="m1160.2 405.2c-.5 0-1.1-.2-1.5-.6-.8-.8-.8-2.1 0-2.9l12.6-12.7c.8-.8 2.1-.8 2.9 0s.8 2.1 0 2.9l-12.6 12.6c-.4.5-.9.7-1.4.7z" fill="#594a41"/><path d="m1160.2 394.2c-.5 0-1.1-.2-1.5-.6l-16.8-16.8c-.8-.8-.8-2.1 0-2.9s2.1-.8 2.9 0l16.8 16.8c.8.8.8 2.1 0 2.9-.4.4-.9.6-1.4.6z" fill="#594a41"/></svg>