<?xml version="1.0" encoding="utf-8"?>
<!-- Generator: Adobe Illustrator 25.1.0, SVG Export Plug-In . SVG Version: 6.00 Build 0)  -->
<svg version="1.1" id="Layer_1" xmlns="http://www.w3.org/2000/svg" xmlns:xlink="http://www.w3.org/1999/xlink" x="0px" y="0px"
	 viewBox="0 0 682.5 768" style="enable-background:new 0 0 682.5 768;" xml:space="preserve">
<style type="text/css">
	.st0{fill:none;}
	.st1{fill:#67BA7D;}
	.st2{fill:#3D98D3;}
	.st3{fill:#FFFFFF;}
	.st4{fill:#93DD8F;}
	.st5{fill:url(#SVGID_1_);}
	.st6{fill:#0D8E84;}
	.st7{fill:#54BFEE;}
	.st8{fill:#2C3E50;}
	.st9{fill:#2E729D;}
	.st10{fill:#065667;}
	.st11{fill:#DE8B59;}
	.st12{fill:#BA3700;}
	.st13{fill:#D86111;}
	.st14{fill:#D7C0AD;}
	.st15{fill:#FF6778;}
	.st16{fill:#A43E86;}
	.st17{fill:#771774;}
	.st18{fill:#FFA694;}
</style>
<pattern  y="768" width="146" height="146" patternUnits="userSpaceOnUse" id="New_Pattern_Swatch_2" viewBox="0 -146 146 146" style="overflow:visible;">
	<g>
		<rect y="-146" class="st0" width="146" height="146"/>
		<g>
			<rect y="-146" class="st0" width="146" height="146"/>
			<g>
				<polygon class="st1" points="0,-59.8 0,-74.1 74.1,0 59.8,0 54.2,-5.6 54.2,-5.6 5.6,-54.2 				"/>
				<polygon class="st1" points="84.1,0 78.6,-5.6 78.6,-5.6 5.6,-78.6 0,-84.1 0,-98.5 98.5,0 				"/>
				<polygon class="st1" points="146,-132.8 132.8,-146 146,-146 				"/>
				<polygon class="st1" points="108.5,0 102.9,-5.6 102.9,-5.6 5.6,-102.9 0,-108.5 0,-122.8 122.8,0 				"/>
				<polygon class="st1" points="0,-35.5 0,-49.8 49.8,0 35.5,0 29.9,-5.6 29.9,-5.6 5.6,-29.9 				"/>
				<polygon class="st1" points="0,-11.1 0,-25.5 25.5,0 11.1,0 5.6,-5.6 5.6,-5.6 5.6,-5.6 				"/>
				<polygon class="st1" points="12.7,-134.4 144.5,-2.6 146,-1.1 146,0 132.8,0 127.2,-5.6 127.2,-5.6 127.2,-5.6 127.2,-5.6 
					0,-132.8 0,-146 1.1,-146 12.7,-134.4 				"/>
				<polygon class="st1" points="146,-122.8 146,-108.5 108.5,-146 122.8,-146 134.4,-134.4 				"/>
				<polygon class="st1" points="11.1,-146 25.5,-146 37.1,-134.4 37.1,-134.4 134.4,-37.1 134.4,-37.1 146,-25.5 146,-11.1 				"/>
				<polygon class="st1" points="134.4,-110.1 146,-98.5 146,-84.1 84.1,-146 98.5,-146 110.1,-134.4 110.1,-134.4 134.4,-110.1 
									"/>
				<polygon class="st1" points="59.8,-146 74.1,-146 85.7,-134.4 85.7,-134.4 134.4,-85.7 134.4,-85.7 146,-74.1 146,-59.8 				"/>
				<polygon class="st1" points="35.5,-146 49.8,-146 61.4,-134.4 61.4,-134.4 134.4,-61.4 134.4,-61.4 146,-49.8 146,-35.5 				"/>
			</g>
		</g>
	</g>
</pattern>
<g>
	<rect x="-800" y="1" class="st2" width="685" height="768"/>
	<path class="st3" d="M-115,180c-10.3-8-23.1-12.7-37.1-12.7c-7.3,0-14.4,1.3-20.9,3.7c-9.7-42.9-48.1-75-93.9-75
		c-45.6,0-83.7,31.6-93.8,74.1c-5.8-1.9-12-2.9-18.4-2.9c-25.2,0-46.7,15.3-56,37.1c-5.7-2.6-12-4.1-18.6-4.1
		c-18.6,0-34.5,11.5-41,27.7H-115V180z"/>
	<rect x="-532" y="401" class="st4" width="413.5" height="318"/>
	<pattern  id="SVGID_1_" xlink:href="#New_Pattern_Swatch_2" patternTransform="matrix(1 0 0 -1 -742 -17842)">
	</pattern>
	<rect x="-800" y="401" class="st5" width="681.5" height="308"/>
	<g>
		<rect x="-800" y="539.2" class="st6" width="546.3" height="179.8"/>
		<rect x="-800" y="561.7" class="st1" width="546.3" height="22.5"/>
		<rect x="-800" y="606.6" class="st1" width="546.3" height="22.5"/>
		<rect x="-800" y="651.6" class="st1" width="546.3" height="22.5"/>
		<rect x="-800" y="696.5" class="st1" width="546.3" height="22.5"/>
	</g>
	<g>
		<g>
			<polygon class="st3" points="-621,540 -800,540 -800,401 -770,361 -710,331 -651,361 -621,401 			"/>
			<polygon class="st7" points="-532,540 -711,540 -711,401 -681,361 -621,331 -562,361 -532,401 			"/>
			<rect x="-800" y="401" class="st3" width="89" height="139"/>
			<polygon class="st8" points="-770,361 -681,361 -621,331 -711,331 			"/>
			<polygon class="st9" points="-711,401 -681,361 -770,361 -800,401 			"/>
			<rect x="-659.8" y="456" class="st3" width="76.7" height="84"/>
			<rect x="-649.8" y="466" class="st8" width="56.7" height="64"/>
			
				<rect x="-639.2" y="463.3" transform="matrix(0.9231 -0.3845 0.3845 0.9231 -240.46 -206.5362)" class="st3" width="5" height="69.3"/>
			
				<rect x="-671.3" y="495.5" transform="matrix(0.3844 -0.9232 0.9232 0.3844 -851.6501 -281.1899)" class="st3" width="69.3" height="5"/>
			
				<rect x="-608.8" y="463.3" transform="matrix(0.9231 -0.3845 0.3845 0.9231 -238.1271 -194.8695)" class="st3" width="5" height="69.3"/>
			
				<rect x="-641" y="495.5" transform="matrix(0.3844 -0.9232 0.9232 0.3844 -832.9741 -253.1823)" class="st3" width="69.3" height="5"/>
			<rect x="-624" y="466" class="st3" width="5" height="64"/>
		</g>
		<circle class="st8" cx="-622" cy="411" r="22"/>
	</g>
	<g>
		<polygon class="st9" points="-179.4,619.2 -179.9,619.6 -179.9,595 -251.1,539.2 -292.3,595 -292.3,619.6 -292.7,619.2 
			-354.6,665.7 -354.6,718.8 -292.3,718.8 -251.5,718.8 -250.6,718.8 -179.9,718.8 -117.6,718.8 -117.6,665.7 		"/>
		<polygon class="st3" points="-377.9,718.8 -520.2,718.8 -520.2,595 -449,539.2 -377.9,595 		"/>
		<polygon class="st3" points="-449.5,718.8 -582.6,718.8 -582.6,665.7 -520.7,619.2 -449.5,675.1 		"/>
		<polygon class="st3" points="-315.5,718.8 -448.6,718.8 -448.6,675.1 -377.4,619.2 -315.5,665.7 		"/>
		<rect x="-475.4" y="659.2" class="st9" width="52.8" height="59.5"/>
		<rect x="-475.4" y="584.1" class="st9" width="52.8" height="52.1"/>
		<polygon class="st8" points="-448.6,539.2 -250.6,539.2 -179.9,595 -377.9,595 		"/>
		<polygon class="st8" points="-377.9,619.2 -179.9,619.2 -118.5,665.7 -316.4,665.7 		"/>
		<rect x="-377.9" y="595" class="st9" width="198" height="24.2"/>
	</g>
	<g>
		<path class="st3" d="M-184,250c0-22.1-17.9-40-40-40s-40,17.9-40,40v152h80V250z"/>
		<g>
			<path class="st9" d="M-264,250h40v-40C-246.1,210-264,227.9-264,250z"/>
			<rect x="-224" y="250" class="st9" width="40" height="152"/>
			<path class="st8" d="M-224,210v40h40C-184,227.9-201.9,210-224,210z"/>
		</g>
	</g>
	<g>
		<path class="st8" d="M-308.5,261c0,0-0.2,0.1-0.5,0.3V261h-127v0.3c-5.9,3.7-63,39.9-63,73.2V402h63h64h63h64v-67.5
			C-245,299.4-308.5,261-308.5,261z"/>
		<path class="st3" d="M-372,334.5c0-35.1-63.5-73.5-63.5-73.5s-63.5,38.4-63.5,73.5V402h127V334.5z"/>
		<path class="st9" d="M-459,402v-46.2c1.2-2.9,6.7-11.6,21.5-24c0.7-0.6,1.3-1.1,2-1.6c0.9,0.7,1.8,1.5,2.7,2.2
			c14.3,12.1,19.6,20.5,20.8,23.4V402H-459z"/>
		<rect x="-372" y="335" class="st9" width="127" height="67"/>
		<g>
			<path class="st8" d="M-330,369.2c0-6.4-11.5-13.3-11.5-13.3s-11.5,7-11.5,13.3v12.3h23.1V369.2z"/>
			<path class="st8" d="M-297,369.2c0-6.4-11.5-13.3-11.5-13.3s-11.5,7-11.5,13.3v12.3h23.1V369.2z"/>
			<path class="st8" d="M-264,369.2c0-6.4-11.5-13.3-11.5-13.3s-11.5,7-11.5,13.3v12.3h23.1V369.2z"/>
		</g>
	</g>
	<rect x="-800" y="719" class="st10" width="681.5" height="50"/>
	<path class="st10" d="M-711,644c0,16.6-13.4,30-30,30s-30-13.4-30-30v-30c0-16.6,13.4-30,30-30s30,13.4,30,30V644z"/>
	<rect x="-749" y="663.3" class="st10" width="15" height="63.3"/>
	<circle class="st10" cx="-691.5" cy="683.4" r="25.5"/>
	<rect x="-698.3" y="699.8" class="st10" width="12.8" height="53.8"/>
	<path class="st3" d="M-800,132.7h184.1c-5.3-13.1-18.1-22.4-33.2-22.4c-5.4,0-10.5,1.2-15,3.3c-7.4-17.6-24.9-30-45.2-30
		c-5.2,0-10.2,0.8-14.9,2.3C-732.3,51.6-763.2,26-800,26"/>
</g>
<g>
	<g>
		<path class="st11" d="M616.4,354.7l-219.7,35.5c-1-5.8-2.9-11.4-5.5-16.4L589.3,272c-14-27.3-29.6-48.6-51.4-70.2l-157,158
			c-4.1-4-8.8-7.5-14-10.1l100.5-198.9c-27.4-13.9-52.5-21.9-82.8-26.6l-34.1,220.2c-2.8-0.4-5.6-0.7-8.6-0.7c-3,0-5.9,0.2-8.7,0.7
			l-35.6-219.9c-30.3,4.9-55.3,13.1-82.6,27.2l101.8,198.1c-5.2,2.6-9.9,6.1-14,10.2L144.7,203.1c-21.6,21.8-37,43.1-50.9,70.5
			L292.4,374c-2.6,5.1-4.5,10.7-5.4,16.5L67.2,356.5c-2.3,15-3.5,29-3.5,43h222.5h53.2h1.7h0.4h0.2h0.1h0.1h0.1h0.2h0.4h1.8h53
			h222.7C620.2,384.9,619,370.3,616.4,354.7z"/>
		<g>
			<path class="st12" d="M446.6,399.5c25.8-8.6,42.2-16.4,59.5-53.4h62c0,0,18.1,43.1,51.7,53.4"/>
			<path class="st13" d="M437.7,399.5c25.8-8.6,42.2-16.4,59.5-53.4h62c0,0,18.1,43.1,51.7,53.4"/>
		</g>
		<g>
			<polygon class="st12" points="110.1,399.5 181.4,328.2 252.7,399.5 			"/>
			<polygon class="st14" points="181.4,328.2 181.4,399.5 252.7,399.5 			"/>
		</g>
		<g>
			<polygon class="st13" points="217,399.5 252.5,364 287.9,399.5 			"/>
			<polygon class="st14" points="252.5,364 252.5,399.5 287.9,399.5 			"/>
		</g>
		<g>
			<polygon class="st13" points="63.3,399.5 110.2,352.6 157.1,399.5 			"/>
			<polygon class="st14" points="110.2,352.6 110.2,399.5 157.1,399.5 			"/>
		</g>
		<g>
			<polygon class="st15" points="348,516.9 326.5,516.9 326.5,511.8 348,511.8 344.8,514.3 			"/>
			<g>
				<path class="st16" d="M281.8,577.4V515c0-6.1,5-11.1,11.1-11.1h0c6.1,0,11.1,5,11.1,11.1v62.4c0,6.1-5,11.1-11.1,11.1h0
					C286.8,588.4,281.8,583.5,281.8,577.4z"/>
				<g>
					<path class="st17" d="M296.1,585.3l1.9,1.9c3.5-1.8,6-5.5,6-9.8v0v0v-15.7v0v-15.7v0v-15.7v0V515c0-0.2,0-0.4,0-0.6l-7.9,7.9
						l7.9,7.9l-7.9,7.9l7.9,7.9l-7.9,7.9l7.9,7.9l-7.9,7.9l7.9,7.9L296.1,585.3z"/>
					<path class="st11" d="M296.1,506.5l7.9,7.9c-0.3-4.1-2.8-7.7-6.4-9.3L296.1,506.5z"/>
				</g>
			</g>
			<path class="st16" d="M352.7,619.6h-94c-6.1,0-11.1-5-11.1-11.1l0,0c0-6.1,5-11.1,11.1-11.1h94c6.1,0,11.1,5,11.1,11.1l0,0
				C363.8,614.7,358.8,619.6,352.7,619.6z"/>
			<path class="st16" d="M336.9,575.4h-62.4c-6.1,0-11.1-5-11.1-11.1v0c0-6.1,5-11.1,11.1-11.1h62.4c6.1,0,11.1,5,11.1,11.1v0
				C348,570.4,343,575.4,336.9,575.4z"/>
			<path class="st16" d="M344.8,597.5h-78.2c-6.1,0-11.1-5-11.1-11.1l0,0c0-6.1,5-11.1,11.1-11.1h78.2c6.1,0,11.1,5,11.1,11.1l0,0
				C355.9,592.6,350.9,597.5,344.8,597.5z"/>
			<g>
				<path class="st17" d="M266,605.4l7.9-7.9l7.9,7.9l7.9-7.9l7.9,7.9l7.9-7.9l7.9,7.9l7.9-7.9l7.9,7.9l7.9-7.9l7.9,7.9l7.9-7.9H337
					h0h-15.7h0h-15.7h0h-15.7h0h-15.7h0h-15.1c-0.2,0-0.4,0-0.6,0L266,605.4z"/>
				<path class="st17" d="M362.5,603.5c-1.8-3.5-5.6-6-9.8-6l7.9,7.9L362.5,603.5z"/>
				<path class="st17" d="M248.8,603.9l1.5,1.5l7.9-7.9C254,597.8,250.4,600.4,248.8,603.9z"/>
			</g>
			<path class="st17" d="M266,583.3l7.9-7.9l7.9,7.9l7.9-7.9l7.9,7.9l7.9-7.9l7.9,7.9l7.9-7.9l7.9,7.9l7.9-7.9l7.9,7.9l6.1-6.1
				c-1.7-1.2-3.8-1.8-6.1-1.8H337h0h-15.7h0h-15.7h0h-15.7h0h-15.7h0h-7.2c-2.4,0-4.6,0.8-6.4,2.1L266,583.3z"/>
			<g>
				<path class="st17" d="M344.8,561.2l1.9-1.9c-1.8-3.5-5.5-6-9.8-6h0h0h-15.7h0h-15.7h0h-15.7h0h-15.1c-0.2,0-0.4,0-0.6,0l7.9,7.9
					l7.9-7.9l7.9,7.9l7.9-7.9l7.9,7.9l7.9-7.9l7.9,7.9l7.9-7.9L344.8,561.2z"/>
				<path class="st17" d="M266,561.2l7.9-7.9c-4.1,0.3-7.7,2.8-9.3,6.4L266,561.2z"/>
			</g>
			<path class="st16" d="M329.7,514.3c0,9.4-21.4,17.1-30.8,17.1c-9.4,0-17.1-7.7-17.1-17.1c0-9.4,7.7-17.1,17.1-17.1
				C308.3,497.2,329.7,504.9,329.7,514.3z"/>
			<circle class="st17" cx="304" cy="514.3" r="3.9"/>
			<path class="st17" d="M332.4,553.3c0-4.1,2.3-7.7,5.6-9.7c-1.6-0.9-3.5-1.5-5.5-1.5c-6.1,0-11.1,5-11.1,11.1"/>
			<g>
				<path class="st16" d="M322.4,548.8c-0.1,0.2-0.2,0.5-0.3,0.7l7.9,3.8h1.8L322.4,548.8z"/>
				<path class="st16" d="M323.7,546.6c-0.2,0.2-0.3,0.4-0.5,0.7l9.3,4.5c0-0.3,0.1-0.5,0.1-0.8L323.7,546.6z"/>
				<path class="st16" d="M324.3,553.3h1.8l-4.5-2.2c-0.1,0.3-0.1,0.5-0.1,0.8L324.3,553.3z"/>
				<path class="st16" d="M325.6,544.7c-0.2,0.2-0.4,0.4-0.6,0.6l8.3,4c0.1-0.2,0.2-0.5,0.3-0.7L325.6,544.7z"/>
				<path class="st16" d="M332.1,542.3c-0.5,0-1,0.1-1.5,0.2l5.5,2.7c0.2-0.2,0.4-0.4,0.7-0.6L332.1,542.3z"/>
				<path class="st16" d="M328.1,543.1c-0.3,0.1-0.6,0.3-0.9,0.4l7.2,3.5c0.2-0.2,0.3-0.4,0.5-0.6L328.1,543.1z"/>
			</g>
		</g>
		<polygon class="st18" points="111.8,510.3 125,501.5 121.9,485.9 137.5,489 146.3,475.8 155.1,489 170.7,485.9 167.6,501.5 
			180.8,510.3 		"/>
		<polygon class="st18" points="431.1,581.4 444.3,572.6 441.2,557 456.8,560.1 465.6,546.9 474.4,560.1 490,557 486.9,572.6 
			500.2,581.4 		"/>
		<polygon class="st18" points="559.6,522 568.1,516.4 566,506.4 576,508.4 581.7,499.9 587.3,508.4 597.3,506.4 595.3,516.4 
			603.8,522 		"/>
		<g>
			<path class="st17" d="M472,521.3V378.8c0-4.7,3.8-8.6,8.6-8.6c4.7,0,8.6,3.8,8.6,8.6v142.6H472z"/>
			<path class="st17" d="M486.1,475.9c-3.5,0-6.8-2.2-8.1-5.7c-1.6-4.5,0.7-9.4,5.2-11c6.5-2.4,13.5-6.5,14.9-8.8V417
				c0-4.7,3.8-8.6,8.6-8.6c4.7,0,8.6,3.8,8.6,8.6v33.9c0,7-4.9,13.4-14.6,19c-5.7,3.3-11.4,5.4-11.7,5.5
				C488,475.7,487.1,475.9,486.1,475.9z"/>
			<path class="st17" d="M472.8,452c-1,0-1.9-0.2-2.9-0.5c-6.5-2.3-21.6-9-21.6-20.7v-26.2c0-4.7,3.8-8.6,8.6-8.6s8.6,3.8,8.6,8.6
				v25.1c1.5,1.6,6.2,4.2,10.2,5.7c4.4,1.6,6.8,6.5,5.1,11C479.6,449.8,476.3,452,472.8,452z"/>
			<path class="st17" d="M251,475.9v-59.3c0-2-1.6-3.6-3.6-3.6s-3.6,1.6-3.6,3.6v59.3H251z"/>
			<path class="st17" d="M245.2,457c1.5,0,2.8-0.9,3.4-2.4c0.7-1.9-0.3-3.9-2.1-4.6c-2.7-1-5.6-2.7-6.2-3.7v-13.9
				c0-2-1.6-3.6-3.6-3.6s-3.6,1.6-3.6,3.6v14.1c0,2.9,2,5.6,6.1,7.9c2.4,1.4,4.8,2.2,4.9,2.3C244.4,456.9,244.8,457,245.2,457z"/>
			<path class="st17" d="M250.7,447c0.4,0,0.8-0.1,1.2-0.2c2.7-1,9-3.8,9-8.6v-10.9c0-2-1.6-3.6-3.6-3.6c-2,0-3.6,1.6-3.6,3.6v10.4
				c-0.6,0.7-2.6,1.7-4.3,2.4c-1.8,0.7-2.8,2.7-2.1,4.6C247.9,446.1,249.2,447,250.7,447z"/>
		</g>
		<g>
			<g>
				<circle class="st17" cx="70.9" cy="448.8" r="8.6"/>
				<path class="st17" d="M97.4,457.4c-4.7,0-8.6-3.8-8.6-8.6s3.8-8.6,8.6-8.6c4.7,0,8.6,3.8,8.6,8.6S102.2,457.4,97.4,457.4z"/>
				<path class="st18" d="M116.8,437.4l1.8-11.4c0-6.3-5.1-11.4-11.4-11.4H73.8c-6.3,0-11.4,5.1-11.4,11.4l1.8,11.4"/>
				<path class="st16" d="M85.2,426c0-6.3-5.1-11.4-11.4-11.4c-6.3,0-11.4,5.1-11.4,11.4l1.8,11.4h19.3L85.2,426z"/>
				<path class="st17" d="M69.9,437.4h7.8l1.5-11.8c-0.2-2.8-2.6-5-5.4-5c-2.9,0-5.2,2.2-5.4,5L69.9,437.4z"/>
				<rect x="64.1" y="437.4" class="st17" width="52.7" height="11.4"/>
				<rect x="83.4" y="437.4" class="st15" width="33.4" height="11.4"/>
				<circle class="st16" cx="83.4" cy="448.8" r="8.6"/>
				<circle class="st17" cx="83.4" cy="448.8" r="5.6"/>
				<path class="st16" d="M111.2,457.4c-4.7,0-8.6-3.8-8.6-8.6s3.8-8.6,8.6-8.6c4.7,0,8.6,3.8,8.6,8.6S115.9,457.4,111.2,457.4z"/>
				<circle class="st17" cx="111.2" cy="448.8" r="5.6"/>
				<g>
					<path class="st16" d="M106.1,438.3C106.1,438.3,106.1,438.3,106.1,438.3c-0.4-0.1-0.6-0.4-0.6-0.7l1.9-11.8
						c0-6.2-5.1-11.2-11.2-11.2c-0.3,0-0.6-0.3-0.6-0.6c0-0.3,0.3-0.6,0.6-0.6c6.9,0,12.4,5.6,12.4,12.4l0,0.1l-1.9,11.8
						C106.7,438.1,106.4,438.3,106.1,438.3z"/>
					<path class="st16" d="M94.6,438.3C94.6,438.3,94.5,438.3,94.6,438.3c-0.4-0.1-0.6-0.4-0.6-0.7l1.9-11.8
						c0-6.2-5.1-11.2-11.2-11.2c-0.3,0-0.6-0.3-0.6-0.6c0-0.3,0.3-0.6,0.6-0.6c6.9,0,12.4,5.6,12.4,12.4l0,0.1l-1.9,11.8
						C95.1,438.1,94.9,438.3,94.6,438.3z"/>
				</g>
			</g>
		</g>
		<g>
			<path class="st13" d="M481.3,496.8h-40.4c-5.5,0-10-4.5-10-10v-5.4c0-1.2,0.9-2.1,2.1-2.1c1.2,0,2.1,0.9,2.1,2.1v5.4
				c0,3.2,2.6,5.8,5.8,5.8h40.4c3.2,0,5.8-2.6,5.8-5.8v-5.4c0-1.2,0.9-2.1,2.1-2.1c1.2,0,2.1,0.9,2.1,2.1v5.4
				C491.4,492.3,486.9,496.8,481.3,496.8z"/>
			<path class="st14" d="M461.1,488.2c-4.5,0-8.5,2.3-10.9,5.7l0,0l-8.9,11.4h-11.6c-3,0-5.4,2.4-5.4,5.4v3.6c0,3,2.4,5.4,5.4,5.4
				h1.9v0.7c0,0.5,0.4,0.9,0.9,0.9h1.4c0.5,0,0.9-0.4,0.9-0.9v-0.7h0.3v0.7c0,0.5,0.4,0.9,0.9,0.9h1.4c0.5,0,0.9-0.4,0.9-0.9v-0.7
				h0.3v0.7c0,0.5,0.4,0.9,0.9,0.9h1.4c0.5,0,0.9-0.4,0.9-0.9v-0.7h0.3v0.7c0,0.5,0.4,0.9,0.9,0.9h1.4c0.5,0,0.9-0.4,0.9-0.9v-0.7
				h0.3v0.7c0,0.5,0.4,0.9,0.9,0.9h1.4c0.5,0,0.9-0.4,0.9-0.9v-0.7h8.8c2,0,3.7-1.1,4.7-2.7l0,0l1.9-2.6c6-1.2,10.6-6.6,10.6-13
				C474.4,494.2,468.4,488.2,461.1,488.2z M427.2,514.5h-1.9c0,0,0-3.7,0-3.7c0-2.5,2-4.5,4.5-4.5h1.9c0,0,0,3.7,0,3.7
				C431.7,512.5,429.7,514.5,427.2,514.5z M458.7,505.7c-2.4,0-4.3-1.9-4.3-4.3c0-2.4,1.9-4.3,4.3-4.3c2.4,0,4.3,1.9,4.3,4.3
				C463,503.8,461.1,505.7,458.7,505.7z"/>
		</g>
		<g>
			<path class="st14" d="M384.4,554.6c5.6,0,8.4-1.5,11.1-3c2.6-1.4,5.1-2.7,10.3-2.7c5.1,0,7.6,1.3,10.3,2.7
				c2.6,1.4,5.2,2.8,10.1,3l-0.4-1.9c-4.2-0.2-6.4-1.4-8.8-2.7c-2.7-1.5-5.6-3-11.2-3c-5.6,0-8.4,1.5-11.2,3
				c-2.6,1.4-5.1,2.7-10.3,2.7c-5.1,0-7.6-1.3-10.3-2.7c-2.7-1.5-5.6-3-11.2-3c-0.7,0-1.3,0-1.9,0.1l-3.8,2.1
				c0.1,0.1,0.2,0.2,0.3,0.4c1.5-0.4,3.2-0.7,5.4-0.7c5.1,0,7.6,1.3,10.3,2.7C375.9,553.1,378.8,554.6,384.4,554.6z M63.3,473.2
				c5.1,0,7.6,1.3,10.3,2.7c2.7,1.5,5.6,3,11.2,3c5.6,0,8.4-1.5,11.2-3c2.4-1.3,4.7-2.5,8.9-2.7l-0.4-1.9c-4.5,0.3-7,1.6-9.4,2.9
				c-2.6,1.4-5.1,2.7-10.3,2.7c-5.1,0-7.6-1.3-10.3-2.7c-2.7-1.5-5.6-3-11.2-3V473.2z M619.8,452.4c-5.6,0-8.4,1.5-11.2,3
				c-2.6,1.4-5.1,2.7-10.3,2.7c-5.1,0-7.6-1.3-10.3-2.7c-2.7-1.5-5.6-3-11.2-3c-5.6,0-8.4,1.5-11.2,3c-2.6,1.4-5.1,2.7-10.3,2.7
				c-5.1,0-7.6-1.3-10.3-2.7c-2.7-1.5-5.6-3-11.2-3c-1.8,0-3.4,0.2-4.7,0.4c0,0.6-0.1,1.3-0.2,2c1.3-0.3,2.9-0.5,4.9-0.5
				c5.1,0,7.6,1.3,10.3,2.7c2.7,1.5,5.6,3,11.2,3c5.6,0,8.4-1.5,11.2-3c2.6-1.4,5.1-2.7,10.3-2.7c5.1,0,7.6,1.3,10.3,2.7
				c2.7,1.5,5.6,3,11.2,3c5.6,0,8.4-1.5,11.2-3c2.6-1.4,5.1-2.7,10.3-2.7V452.4z M234.5,492.1c5.1,0,7.6,1.3,10.3,2.7
				c2.7,1.5,5.6,3,11.2,3c5.6,0,8.4-1.5,11.2-3c2.5-1.3,4.9-2.6,9.6-2.7c0.7-0.7,1.3-1.3,2.1-1.9c-0.4,0-0.9,0-1.4,0
				c-5.6,0-8.4,1.5-11.2,3c-2.6,1.4-5.1,2.7-10.3,2.7c-5.1,0-7.6-1.3-10.3-2.7c-2.7-1.5-5.6-3-11.2-3s-8.4,1.5-11.2,3
				c-2.6,1.4-5.1,2.7-10.3,2.7c-5.1,0-7.6-1.3-10.3-2.7c-2.7-1.5-5.6-3-11.2-3c-3.3,0-5.6,0.5-7.5,1.3l-0.5,2.3c2-0.9,4.3-1.6,8-1.6
				c5.1,0,7.6,1.3,10.3,2.7c2.7,1.5,5.6,3,11.2,3c5.6,0,8.4-1.5,11.2-3C226.9,493.5,229.4,492.1,234.5,492.1z M523.9,494.9
				c2.6-1.4,5.1-2.7,10.3-2.7c5.1,0,7.6,1.3,10.3,2.7c1.5,0.8,3.1,1.7,5.1,2.2l-0.4-2.1c-1.4-0.5-2.6-1.1-3.8-1.8
				c-2.7-1.5-5.6-3-11.2-3s-8.4,1.5-11.2,3c-2.6,1.4-5.1,2.7-10.3,2.7c-3.9,0-6.2-0.8-8.3-1.7c-0.2,0.6-0.4,1.2-0.7,1.8
				c2.2,1,4.8,1.9,9,1.9C518.4,497.9,521.2,496.4,523.9,494.9z M331.3,436.5c-2.7-1.5-5.6-3-11.2-3c-5.6,0-8.4,1.5-11.2,3
				c-2.6,1.4-5.1,2.7-10.3,2.7c-5.1,0-7.6-1.3-10.3-2.7c-2.7-1.5-5.6-3-11.2-3c-0.8,0-1.5,0-2.2,0.1v1.9c0.7-0.1,1.4-0.1,2.2-0.1
				c5.1,0,7.6,1.3,10.3,2.7c2.7,1.5,5.6,3,11.2,3c5.6,0,8.4-1.5,11.2-3c2.6-1.4,5.1-2.7,10.3-2.7c5.1,0,7.6,1.3,10.3,2.7
				 M362.9,435.4c5.1,0,7.6,1.3,10.3,2.7c2.7,1.5,5.6,3,11.2,3c5.6,0,8.4-1.5,11.1-3c2.6-1.4,5.1-2.7,10.3-2.7
				c5.1,0,7.6,1.3,10.3,2.7c2.7,1.5,5.6,3,11.2,3c3.8,0,6.3-0.7,8.3-1.6c-0.2-0.6-0.4-1.2-0.6-1.8c-1.9,0.9-4.2,1.5-7.8,1.5
				c-5.1,0-7.6-1.3-10.3-2.7c-2.7-1.5-5.6-3-11.2-3c-5.6,0-8.4,1.5-11.2,3c-2.6,1.4-5.1,2.7-10.3,2.7c-5.1,0-7.6-1.3-10.3-2.7
				c-2.7-1.5-5.6-3-11.2-3 M202.9,455.4c-2.7-1.5-5.6-3-11.2-3c-5.6,0-8.4,1.5-11.2,3c-2.6,1.4-5.1,2.7-10.3,2.7
				c-5.1,0-7.6-1.3-10.3-2.7c-2.7-1.5-5.6-3-11.2-3c-0.3,0-0.6,0-1,0l1.3,1.9c4.9,0.1,7.4,1.4,10,2.7c2.7,1.5,5.6,3,11.2,3
				c5.6,0,8.4-1.5,11.2-3c2.6-1.4,5.1-2.7,10.3-2.7c5.1,0,7.6,1.3,10.3,2.7c2.7,1.5,5.6,3,11.2,3c4.3,0,6.9-0.9,9.2-2
				c-0.4-0.5-0.7-1.1-1-1.6c-2,1-4.4,1.7-8.2,1.7C208,458.1,205.5,456.8,202.9,455.4z M405.8,471.3c-5.6,0-8.4,1.5-11.2,3
				c-2.6,1.4-5.1,2.7-10.3,2.7c-5.1,0-7.6-1.3-10.3-2.7c-2.7-1.5-5.6-3-11.2-3c-5.6,0-8.4,1.5-11.2,3c-2.6,1.4-5.1,2.7-10.3,2.7
				c-5.1,0-7.6-1.3-10.3-2.7c-2.7-1.5-5.6-3-11.2-3c-5.6,0-8.4,1.5-11.2,3c-2.6,1.4-5.1,2.7-10.3,2.7c-5.1,0-7.6-1.3-10.3-2.7
				c-2.7-1.5-5.6-3-11.2-3c-5.6,0-8.4,1.5-11.2,3c-0.3,0.1-0.6,0.3-0.8,0.4v2.1c0.6-0.3,1.2-0.6,1.7-0.9c2.6-1.4,5.1-2.7,10.3-2.7
				c5.1,0,7.6,1.3,10.3,2.7c2.7,1.5,5.6,3,11.2,3c5.6,0,8.4-1.5,11.2-3c2.6-1.4,5.1-2.7,10.3-2.7c5.1,0,7.6,1.3,10.3,2.7
				c2.7,1.5,5.6,3,11.2,3c5.6,0,8.4-1.5,11.2-3c2.6-1.4,5.1-2.7,10.3-2.7c5.1,0,7.6,1.3,10.3,2.7c2.7,1.5,5.6,3,11.2,3
				c5.6,0,8.4-1.5,11.1-3c2.6-1.4,5.1-2.7,10.3-2.7c5.1,0,7.6,1.3,10.3,2.7c0.4,0.2,0.9,0.5,1.3,0.7c0.2-0.6,0.4-1.2,0.7-1.8
				c-0.4-0.2-0.7-0.4-1.1-0.6C414.2,472.8,411.3,471.3,405.8,471.3z M405.8,511.1c1.7,0,3.1,0.2,4.4,0.4v-0.7c0-0.4,0-0.8,0-1.2
				c-1.3-0.2-2.7-0.4-4.4-0.4c-5.6,0-8.4,1.5-11.2,3c-2.6,1.4-5.1,2.7-10.3,2.7c-5.1,0-7.6-1.3-10.3-2.7c-0.8-0.4-1.6-0.8-2.4-1.2
				l-1.7,1.4c1.1,0.5,2.2,1,3.2,1.5c2.7,1.5,5.6,3,11.2,3c5.6,0,8.4-1.5,11.1-3C398.1,512.4,400.6,511.1,405.8,511.1z M63.3,605.6
				c5.1,0,7.6,1.3,10.3,2.7c2.7,1.5,5.6,3,11.2,3c5.6,0,8.4-1.5,11.2-3c2.6-1.4,5.1-2.7,10.3-2.7s7.6,1.3,10.3,2.7
				c2.7,1.5,5.6,3,11.1,3s8.4-1.5,11.1-3c2.6-1.4,5.1-2.7,10.3-2.7c5.1,0,7.6,1.3,10.3,2.7c2.7,1.5,5.6,3,11.2,3
				c5.6,0,8.4-1.5,11.2-3c2.6-1.4,5.1-2.7,10.3-2.7c5.1,0,7.6,1.3,10.3,2.7c2.7,1.5,5.6,3,11.2,3c5.6,0,8.4-1.5,11.2-3
				c2.2-1.2,4.3-2.3,7.9-2.6l0.9-2c-4.6,0.2-7.2,1.6-9.7,2.9c-2.6,1.4-5.1,2.7-10.3,2.7c-5.1,0-7.6-1.3-10.3-2.7
				c-2.7-1.5-5.6-3-11.2-3c-5.6,0-8.4,1.5-11.2,3c-2.6,1.4-5.1,2.7-10.3,2.7c-5.1,0-7.6-1.3-10.3-2.7c-2.7-1.5-5.6-3-11.2-3
				c-5.6,0-8.4,1.5-11.2,3c-2.6,1.4-5.1,2.7-10.3,2.7c-5.1,0-7.6-1.3-10.3-2.7c-2.7-1.5-5.6-3-11.1-3c-5.6,0-8.4,1.5-11.1,3
				c-2.6,1.4-5.1,2.7-10.3,2.7c-5.1,0-7.6-1.3-10.3-2.7c-2.7-1.5-5.6-3-11.2-3V605.6z M470,668.1c5.6,0,8.4-1.5,11.2-3
				c2.6-1.4,5.1-2.7,10.3-2.7c5.1,0,7.6,1.3,10.3,2.7c2.7,1.5,5.6,3,11.2,3s8.4-1.5,11.2-3c2.6-1.4,5.1-2.7,10.3-2.7
				c5.1,0,7.6,1.3,10.3,2.7c2.7,1.5,5.6,3,11.2,3c5.6,0,8.4-1.5,11.2-3c2.6-1.4,5.1-2.7,10.3-2.7c5.1,0,7.6,1.3,10.3,2.7
				c2.7,1.5,5.6,3,11.2,3c5.6,0,8.4-1.5,11.2-3c2.6-1.4,5.1-2.7,10.3-2.7v-1.9c-5.6,0-8.4,1.5-11.2,3c-2.6,1.4-5.1,2.7-10.3,2.7
				c-5.1,0-7.6-1.3-10.3-2.7c-2.7-1.5-5.6-3-11.2-3c-5.6,0-8.4,1.5-11.2,3c-2.6,1.4-5.1,2.7-10.3,2.7c-5.1,0-7.6-1.3-10.3-2.7
				c-2.7-1.5-5.6-3-11.2-3s-8.4,1.5-11.2,3c-2.6,1.4-5.1,2.7-10.3,2.7c-5.1,0-7.6-1.3-10.3-2.7c-2.7-1.5-5.6-3-11.2-3
				c-5.6,0-8.4,1.5-11.2,3c-2.6,1.4-5.1,2.7-10.3,2.7 M267.1,665.1c2.6-1.4,5.1-2.7,10.3-2.7c5.1,0,7.6,1.3,10.3,2.7
				c2.7,1.5,5.6,3,11.2,3c5.6,0,8.4-1.5,11.2-3c2.6-1.4,5.1-2.7,10.3-2.7c5.1,0,7.6,1.3,10.3,2.7c2.7,1.5,5.6,3,11.2,3
				c5.6,0,8.4-1.5,11.2-3c2.6-1.4,5.1-2.7,10.3-2.7c5.1,0,7.6,1.3,10.3,2.7l0.9-1.7c-2.7-1.5-5.6-3-11.2-3c-5.6,0-8.4,1.5-11.2,3
				c-2.6,1.4-5.1,2.7-10.3,2.7c-5.1,0-7.6-1.3-10.3-2.7c-2.7-1.5-5.6-3-11.2-3c-5.6,0-8.4,1.5-11.2,3c-2.6,1.4-5.1,2.7-10.3,2.7
				c-5.1,0-7.6-1.3-10.3-2.7c-2.7-1.5-5.6-3-11.2-3c-5.6,0-8.4,1.5-11.2,3 M181.5,665.1c2.6-1.4,5.1-2.7,10.3-2.7
				c5.1,0,7.6,1.3,10.3,2.7c2.7,1.5,5.6,3,11.2,3c5.6,0,8.4-1.5,11.2-3c2.6-1.4,5.1-2.7,10.3-2.7c5.1,0,7.6,1.3,10.3,2.7l0.9-1.7
				c-2.7-1.5-5.6-3-11.2-3s-8.4,1.5-11.2,3c-2.6,1.4-5.1,2.7-10.3,2.7c-5.1,0-7.6-1.3-10.3-2.7c-2.7-1.5-5.6-3-11.2-3
				c-5.6,0-8.4,1.5-11.2,3L181.5,665.1z M160.1,663.4c-2.7-1.5-5.6-3-11.2-3c-5.6,0-8.4,1.5-11.2,3c-2.6,1.4-5.1,2.7-10.3,2.7
				c-5.1,0-7.6-1.3-10.3-2.7c-2.7-1.5-5.6-3-11.1-3c-5.6,0-8.4,1.5-11.1,3c-2.6,1.4-5.1,2.7-10.3,2.7c-5.1,0-7.6-1.3-10.3-2.7
				c-2.7-1.5-5.6-3-11.2-3v1.9c5.1,0,7.6,1.3,10.3,2.7c2.7,1.5,5.6,3,11.2,3c5.6,0,8.4-1.5,11.2-3c2.6-1.4,5.1-2.7,10.3-2.7
				s7.6,1.3,10.3,2.7c2.7,1.5,5.6,3,11.1,3s8.4-1.5,11.1-3c2.6-1.4,5.1-2.7,10.3-2.7c5.1,0,7.6,1.3,10.3,2.7 M598.4,590.5
				c-5.1,0-7.6-1.3-10.3-2.7c-2.7-1.5-5.6-3-11.2-3c-5.6,0-8.4,1.5-11.2,3c-2.6,1.4-5.1,2.7-10.3,2.7c-5.1,0-7.6-1.3-10.3-2.7
				c-2.7-1.5-5.6-3-11.2-3c-1,0-2,0.1-2.8,0.1l2.7,1.8c0.1,0,0.1,0,0.2,0c5.1,0,7.6,1.3,10.3,2.7c2.7,1.5,5.6,3,11.2,3
				c5.6,0,8.4-1.5,11.2-3c2.6-1.4,5.1-2.7,10.3-2.7c5.1,0,7.6,1.3,10.3,2.7c2.7,1.5,5.6,3,11.2,3c5.6,0,8.4-1.5,11.2-3
				c2.6-1.4,5.1-2.7,10.3-2.7v-1.9c-5.6,0-8.4,1.5-11.2,3C606,589.2,603.5,590.5,598.4,590.5z M587.3,627.3c2.7,1.5,5.6,3,11.2,3
				c5.6,0,8.4-1.5,11.2-3c2.6-1.4,5.1-2.7,10.3-2.7v-1.9c-5.6,0-8.4,1.5-11.2,3c-2.6,1.4-5.1,2.7-10.3,2.7c-5.1,0-7.6-1.3-10.3-2.7
				 M555.6,628.4c-5.1,0-7.6-1.3-10.3-2.7c-2.7-1.5-5.6-3-11.2-3s-8.4,1.5-11.2,3c-2.6,1.4-5.1,2.7-10.3,2.7
				c-5.1,0-7.6-1.3-10.3-2.7c-2.7-1.5-5.6-3-11.2-3c-5.6,0-8.4,1.5-11.2,3c-2.6,1.4-5.1,2.7-10.3,2.7c-5.1,0-7.6-1.3-10.3-2.7
				c-2.7-1.5-5.6-3-11.2-3c-5.6,0-8.4,1.5-11.1,3c-2.6,1.4-5.1,2.7-10.3,2.7c-5.1,0-7.6-1.3-10.3-2.7c-2.7-1.5-5.6-3-11.2-3
				c-5.6,0-8.4,1.5-11.2,3c-2.6,1.4-5.1,2.7-10.3,2.7c-5.1,0-7.6-1.3-10.3-2.7c-0.6-0.3-1.2-0.6-1.8-0.9c-0.4,0.5-0.9,1-1.3,1.5
				c0.8,0.4,1.5,0.7,2.2,1.1c2.7,1.5,5.6,3,11.2,3c5.6,0,8.4-1.5,11.1-3c2.6-1.4,5.1-2.7,10.3-2.7c5.1,0,7.6,1.3,10.3,2.7
				c2.7,1.5,5.6,3,11.2,3c5.6,0,8.4-1.5,11.2-3c2.6-1.4,5.1-2.7,10.3-2.7c5.1,0,7.6,1.3,10.3,2.7c2.7,1.5,5.6,3,11.2,3
				c5.6,0,8.4-1.5,11.2-3c2.6-1.4,5.1-2.7,10.3-2.7c5.1,0,7.6,1.3,10.3,2.7c2.7,1.5,5.6,3,11.2,3s8.4-1.5,11.2-3
				c2.6-1.4,5.1-2.7,10.3-2.7c5.1,0,7.6,1.3,10.3,2.7c2.7,1.5,5.6,3,11.2,3 M117.3,568.9c-2.7-1.5-5.6-3-11.1-3
				c-5.6,0-8.4,1.5-11.1,3c-2.6,1.4-5.1,2.7-10.3,2.7c-5.1,0-7.6-1.3-10.3-2.7c-2.7-1.5-5.6-3-11.2-3v1.9c5.1,0,7.6,1.3,10.3,2.7
				c2.7,1.5,5.6,3,11.2,3c5.6,0,8.4-1.5,11.2-3c2.6-1.4,5.1-2.7,10.3-2.7s7.6,1.3,10.3,2.7 M138.7,570.5c2.6-1.4,5.1-2.7,10.3-2.7
				c5.1,0,7.6,1.3,10.3,2.7c2.7,1.5,5.6,3,11.2,3c5.6,0,8.4-1.5,11.2-3c2.6-1.4,5.1-2.7,10.3-2.7c5.1,0,7.6,1.3,10.3,2.7
				c2.7,1.5,5.6,3,11.2,3c5.6,0,8.4-1.5,11.2-3c2.6-1.4,5.1-2.7,10.3-2.7c5.1,0,7.6,1.3,10.3,2.7c0.1,0.1,0.3,0.1,0.4,0.2l1.7-1.2
				c-0.4-0.2-0.8-0.4-1.2-0.6c-2.7-1.5-5.6-3-11.2-3s-8.4,1.5-11.2,3c-2.6,1.4-5.1,2.7-10.3,2.7c-5.1,0-7.6-1.3-10.3-2.7
				c-2.7-1.5-5.6-3-11.2-3c-5.6,0-8.4,1.5-11.2,3c-2.6,1.4-5.1,2.7-10.3,2.7c-5.1,0-7.6-1.3-10.3-2.7c-2.7-1.5-5.6-3-11.2-3
				c-5.6,0-8.4,1.5-11.2,3 M202.9,531c-2.7-1.5-5.6-3-11.2-3c-5.6,0-8.4,1.5-11.2,3c-2.6,1.4-5.1,2.7-10.3,2.7
				c-5.1,0-7.6-1.3-10.3-2.7c-2.7-1.5-5.6-3-11.2-3c-5.6,0-8.4,1.5-11.2,3c-2.6,1.4-5.1,2.7-10.3,2.7c-5.1,0-7.6-1.3-10.3-2.7
				c-2.7-1.5-5.6-3-11.1-3c-5.6,0-8.4,1.5-11.1,3c-2.6,1.4-5.1,2.7-10.3,2.7c-5.1,0-7.6-1.3-10.3-2.7c-2.7-1.5-5.6-3-11.2-3v1.9
				c5.1,0,7.6,1.3,10.3,2.7c2.7,1.5,5.6,3,11.2,3c5.6,0,8.4-1.5,11.2-3c2.6-1.4,5.1-2.7,10.3-2.7s7.6,1.3,10.3,2.7
				c2.7,1.5,5.6,3,11.1,3s8.4-1.5,11.1-3c2.6-1.4,5.1-2.7,10.3-2.7c5.1,0,7.6,1.3,10.3,2.7c2.7,1.5,5.6,3,11.2,3
				c5.6,0,8.4-1.5,11.2-3c2.6-1.4,5.1-2.7,10.3-2.7c5.1,0,7.6,1.3,10.3,2.7 M213.1,420.3c-5.1,0-7.6-1.3-10.3-2.7
				c-2.7-1.5-5.6-3-11.2-3c-5.6,0-8.4,1.5-11.2,3c-2.6,1.4-5.1,2.7-10.3,2.7c-5.1,0-7.6-1.3-10.3-2.7c-2.7-1.5-5.6-3-11.2-3
				c-5.6,0-8.4,1.5-11.2,3c-1.7,0.9-3.3,1.8-5.7,2.3c0.2,0.6,0.3,1.2,0.4,1.9c2.6-0.6,4.4-1.5,6.2-2.5c2.6-1.4,5.1-2.7,10.3-2.7
				c5.1,0,7.6,1.3,10.3,2.7c2.7,1.5,5.6,3,11.2,3c5.6,0,8.4-1.5,11.2-3c2.6-1.4,5.1-2.7,10.3-2.7c5.1,0,7.6,1.3,10.3,2.7
				c2.7,1.5,5.6,3,11.2,3c5.6,0,8.4-1.5,11.2-3c0.3-0.2,0.7-0.4,1-0.5c1.3-1.1,2.8-2,4.4-2.7c0-0.3,0.1-0.7,0.1-1
				c-2.7,0.6-4.5,1.5-6.3,2.5C220.7,419,218.2,420.3,213.1,420.3z M598.4,420.3c-5.1,0-7.6-1.3-10.3-2.7c-2.7-1.5-5.6-3-11.2-3
				c-5.6,0-8.4,1.5-11.2,3c-2.6,1.4-5.1,2.7-10.3,2.7c-5.1,0-7.6-1.3-10.3-2.7c-2.7-1.5-5.6-3-11.2-3c-1.8,0-3.4,0.2-4.7,0.4
				c0.1,0.6,0.1,1.3,0.1,1.9c1.3-0.3,2.8-0.5,4.6-0.5c5.1,0,7.6,1.3,10.3,2.7c2.7,1.5,5.6,3,11.2,3c5.6,0,8.4-1.5,11.2-3
				c2.6-1.4,5.1-2.7,10.3-2.7c5.1,0,7.6,1.3,10.3,2.7c2.7,1.5,5.6,3,11.2,3c5.6,0,8.4-1.5,11.2-3c2.6-1.4,5.1-2.7,10.3-2.7v-1.9
				c-5.6,0-8.4,1.5-11.2,3C606,419,603.5,420.3,598.4,420.3z M598.4,552.7c-5.1,0-7.6-1.3-10.3-2.7c-2.7-1.5-5.6-3-11.2-3
				c-5.6,0-8.4,1.5-11.2,3c-2.6,1.4-5.1,2.7-10.3,2.7c-5.1,0-7.6-1.3-10.3-2.7c-2.7-1.5-5.6-3-11.2-3s-8.4,1.5-11.2,3
				c-2.6,1.4-5.1,2.7-10.3,2.7c-3.1,0-5.2-0.5-7-1.2l-0.4,1.9c1.9,0.7,4.2,1.2,7.4,1.2c5.6,0,8.4-1.5,11.2-3
				c2.6-1.4,5.1-2.7,10.3-2.7c5.1,0,7.6,1.3,10.3,2.7c2.7,1.5,5.6,3,11.2,3c5.6,0,8.4-1.5,11.2-3c2.6-1.4,5.1-2.7,10.3-2.7
				c5.1,0,7.6,1.3,10.3,2.7c2.7,1.5,5.6,3,11.2,3c5.6,0,8.4-1.5,11.2-3c2.6-1.4,5.1-2.7,10.3-2.7V547c-5.6,0-8.4,1.5-11.2,3
				C606,551.4,603.5,552.7,598.4,552.7z"/>
		</g>
	</g>
	<g>
		<path class="st14" d="M403.3,255.8c2.9,0,5.7,0.6,8.2,1.8c4-9.6,13.5-16.3,24.6-16.3c2.8,0,5.5,0.4,8.1,1.3
			c4.4-18.6,21.1-32.5,41.1-32.5c20.1,0,37,14.1,41.2,32.9c2.9-1,5.9-1.6,9.2-1.6c14.7,0,26.6,11.9,26.6,26.6h-177
			C388.2,260.9,395.2,255.8,403.3,255.8z"/>
		<path class="st14" d="M279.5,292.5c-3.4,0-6.7,0.8-9.6,2.1c-4.7-11.2-15.9-19.1-28.8-19.1c-3.3,0-6.5,0.5-9.5,1.5
			c-5.2-21.9-24.8-38.2-48.3-38.2c-23.6,0-43.4,16.5-48.4,38.6c-3.4-1.2-7-1.9-10.8-1.9c-17.3,0-31.3,14-31.3,31.3h207.7
			C297.3,298.4,289.1,292.5,279.5,292.5z"/>
	</g>
</g>
</svg>
