<?xml version="1.0" encoding="utf-8"?>
<!-- Generator: Adobe Illustrator 25.2.0, SVG Export Plug-In . SVG Version: 6.00 Build 0)  -->
<svg version="1.1" id="Layer_1" xmlns="http://www.w3.org/2000/svg" xmlns:xlink="http://www.w3.org/1999/xlink" x="0px" y="0px"
	 viewBox="0 0 1088 170" style="enable-background:new 0 0 1088 170;" xml:space="preserve">
<style type="text/css">
	.st0{fill:#BBE5F8;}
	.st1{fill:#93DD8F;}
	.st2{fill:#67BA7D;}
	.st3{fill:#0D8E84;}
	.st4{fill:#FFFFFF;}
	.st5{fill:#54BFEE;}
	.st6{fill:#2C3E50;}
	.st7{fill:#2E729D;}
	.st8{fill:#065667;}
</style>
<path id="Rectangle_2182" class="st0" d="M10.7,0h1066.9c5.5,0,10,4.5,10,10v150c0,5.5-4.5,10-10,10H10.7c-5.5,0-10-4.5-10-10V10
	C0.7,4.5,5.2,0,10.7,0z"/>
<rect id="Rectangle_2183" x="0.6" y="64.5" class="st1" width="1087" height="91.9"/>
<polygon class="st2" points="393.6,64.5 384.1,64.5 292.1,156.4 301.7,156.4 "/>
<polygon class="st2" points="374.5,64.5 364.9,64.5 273,156.4 282.6,156.4 "/>
<polygon class="st2" points="432,64.5 422.4,64.5 330.5,156.4 340.1,156.4 "/>
<polygon class="st2" points="412.8,64.5 403.2,64.5 311.3,156.4 320.9,156.4 "/>
<polygon class="st2" points="317,64.5 307.4,64.5 215.5,156.4 225.1,156.4 "/>
<polygon class="st2" points="585.2,64.5 575.7,64.5 483.7,156.4 493.3,156.4 "/>
<polygon class="st2" points="336.2,64.5 326.6,64.5 234.7,156.4 244.3,156.4 "/>
<polygon class="st2" points="451.1,64.5 441.5,64.5 349.6,156.4 359.2,156.4 "/>
<polygon class="st2" points="546.9,64.5 537.3,64.5 445.4,156.4 455,156.4 "/>
<polygon class="st2" points="566.1,64.5 556.5,64.5 464.6,156.4 474.2,156.4 "/>
<polygon class="st2" points="527.7,64.5 518.1,64.5 426.2,156.4 435.8,156.4 "/>
<polygon class="st2" points="508.6,64.5 499,64.5 407.1,156.4 416.7,156.4 "/>
<polygon class="st2" points="470.3,64.5 460.7,64.5 368.8,156.4 378.4,156.4 "/>
<polygon class="st2" points="489.4,64.5 479.9,64.5 387.9,156.4 397.5,156.4 "/>
<polygon class="st2" points="297.8,64.5 288.3,64.5 196.3,156.4 205.9,156.4 "/>
<polygon class="st2" points="355.4,64.5 345.8,64.5 253.9,156.4 263.4,156.4 "/>
<polygon class="st2" points="87,64.5 77.4,64.5 0.6,141.3 0.6,150.9 "/>
<polygon class="st2" points="67.8,64.5 58.2,64.5 0.6,122.2 0.6,131.7 "/>
<polygon class="st2" points="106.1,64.5 96.5,64.5 4.6,156.4 14.2,156.4 "/>
<polygon class="st2" points="125.3,64.5 115.7,64.5 23.8,156.4 33.4,156.4 "/>
<polygon class="st2" points="10.3,64.5 0.7,64.5 0.6,64.7 0.6,74.3 "/>
<polygon class="st2" points="48.7,64.5 39.1,64.5 0.6,103 0.6,112.6 "/>
<polygon class="st2" points="29.5,64.5 19.9,64.5 0.6,83.9 0.6,93.5 "/>
<polygon class="st2" points="144.4,64.5 134.8,64.5 42.9,156.4 52.5,156.4 "/>
<polygon class="st2" points="278.6,64.5 269,64.5 177.1,156.4 186.6,156.4 "/>
<polygon class="st2" points="240.2,64.5 230.6,64.5 138.7,156.4 148.3,156.4 "/>
<polygon class="st2" points="259.4,64.5 249.8,64.5 157.9,156.4 167.5,156.4 "/>
<polygon class="st2" points="201.9,64.5 192.3,64.5 100.4,156.4 110,156.4 "/>
<polygon class="st2" points="163.6,64.5 154,64.5 62.1,156.4 71.7,156.4 "/>
<polygon class="st2" points="182.8,64.5 173.2,64.5 81.3,156.4 90.8,156.4 "/>
<polygon class="st2" points="221,64.5 211.5,64.5 119.5,156.4 129.1,156.4 "/>
<polygon class="st2" points="987.7,64.5 978.1,64.5 886.2,156.4 895.8,156.4 "/>
<polygon class="st2" points="1045.2,64.5 1035.6,64.5 943.7,156.4 953.3,156.4 "/>
<polygon class="st2" points="1026,64.5 1016.5,64.5 924.5,156.4 934.1,156.4 "/>
<polygon class="st2" points="1006.9,64.5 997.3,64.5 905.4,156.4 915,156.4 "/>
<polygon class="st2" points="968.6,64.5 959,64.5 867.1,156.4 876.7,156.4 "/>
<polygon class="st2" points="930.2,64.5 920.7,64.5 828.7,156.4 838.3,156.4 "/>
<polygon class="st2" points="949.4,64.5 939.8,64.5 847.9,156.4 857.5,156.4 "/>
<polygon class="st2" points="1083.5,64.5 1073.9,64.5 982,156.4 991.6,156.4 "/>
<polygon class="st2" points="1087.6,137.1 1087.6,127.5 1058.6,156.4 1068.2,156.4 "/>
<polygon class="st2" points="1087.6,117.9 1087.6,108.3 1039.5,156.4 1049,156.4 "/>
<polygon class="st2" points="1087.6,156.3 1087.6,146.7 1077.8,156.4 1087.4,156.4 "/>
<polygon class="st2" points="1087.6,79.6 1087.6,70.1 1001.2,156.4 1010.8,156.4 "/>
<polygon class="st2" points="1087.6,98.8 1087.6,89.2 1020.4,156.4 1029.9,156.4 "/>
<polygon class="st2" points="604.4,64.5 594.8,64.5 502.9,156.4 512.5,156.4 "/>
<polygon class="st2" points="1064.3,64.5 1054.7,64.5 962.8,156.4 972.4,156.4 "/>
<polygon class="st2" points="911.1,64.5 901.5,64.5 809.6,156.4 819.2,156.4 "/>
<polygon class="st2" points="700.2,64.5 690.6,64.5 598.7,156.4 608.3,156.4 "/>
<polygon class="st2" points="738.5,64.5 728.9,64.5 637,156.4 646.6,156.4 "/>
<polygon class="st2" points="891.8,64.5 882.2,64.5 790.3,156.4 799.9,156.4 "/>
<polygon class="st2" points="719.4,64.5 709.8,64.5 617.9,156.4 627.4,156.4 "/>
<polygon class="st2" points="623.6,64.5 614,64.5 522.1,156.4 531.6,156.4 "/>
<polygon class="st2" points="661.9,64.5 652.3,64.5 560.4,156.4 570,156.4 "/>
<polygon class="st2" points="642.7,64.5 633.1,64.5 541.2,156.4 550.8,156.4 "/>
<polygon class="st2" points="681,64.5 671.4,64.5 579.5,156.4 589.1,156.4 "/>
<polygon class="st2" points="853.4,64.5 843.9,64.5 751.9,156.4 761.5,156.4 "/>
<polygon class="st2" points="872.6,64.5 863,64.5 771.1,156.4 780.7,156.4 "/>
<polygon class="st2" points="757.6,64.5 748.1,64.5 656.1,156.4 665.7,156.4 "/>
<polygon class="st2" points="834.3,64.5 824.7,64.5 732.8,156.4 742.4,156.4 "/>
<polygon class="st2" points="776.8,64.5 767.2,64.5 675.3,156.4 684.9,156.4 "/>
<polygon class="st2" points="815.2,64.5 805.6,64.5 713.7,156.4 723.2,156.4 "/>
<polygon class="st2" points="796,64.5 786.4,64.5 694.5,156.4 704.1,156.4 "/>
<rect id="Rectangle_2185" x="0.6" y="102.2" class="st2" width="1087" height="54.2"/>
<rect id="Rectangle_2186" x="0.6" y="109" class="st3" width="1087" height="6.8"/>
<rect id="Rectangle_2187" x="0.6" y="122.6" class="st3" width="1087" height="6.8"/>
<rect id="Rectangle_2188" x="0.6" y="136.1" class="st3" width="1087" height="6.8"/>
<rect id="Rectangle_2189" x="0.6" y="149.7" class="st3" width="1087" height="6.8"/>
<path id="Path_2050" class="st4" d="M109.5,102.2H61V64.5l8.1-10.8l16.3-8.1l16,8.1l8.1,10.8L109.5,102.2z"/>
<path id="Path_2051" class="st5" d="M133.7,102.2H85.1V64.5l8.1-10.8l16.3-8.1l16,8.1l8.1,10.8L133.7,102.2z"/>
<rect id="Rectangle_2190" x="61" y="64.5" class="st4" width="24.1" height="37.7"/>
<path id="Path_2052" class="st6" d="M69.1,53.7h24.1l16.3-8.1H85.1L69.1,53.7z"/>
<path id="Path_2053" class="st7" d="M85.1,64.5l8.1-10.8H69.1L61,64.5H85.1z"/>
<rect id="Rectangle_2191" x="99" y="79.4" class="st4" width="20.8" height="22.8"/>
<rect id="Rectangle_2192" x="101.7" y="82.2" class="st6" width="15.4" height="17.4"/>
<rect id="Rectangle_2193" x="104.6" y="81.4" transform="matrix(0.9231 -0.3846 0.3846 0.9231 -26.8312 47.4776)" class="st4" width="1.4" height="18.8"/>
<rect id="Rectangle_2194" x="95.9" y="90.2" transform="matrix(0.3844 -0.9232 0.9232 0.3844 -19.0297 153.1196)" class="st4" width="18.8" height="1.4"/>
<rect id="Rectangle_2195" x="112.8" y="81.4" transform="matrix(0.9231 -0.3846 0.3846 0.9231 -26.1986 50.6409)" class="st4" width="1.4" height="18.8"/>
<rect id="Rectangle_2196" x="104.1" y="90.2" transform="matrix(0.3844 -0.9232 0.9232 0.3844 -13.966 160.7135)" class="st4" width="18.8" height="1.4"/>
<rect id="Rectangle_2197" x="108.7" y="82.2" class="st4" width="1.4" height="17.4"/>
<circle id="Ellipse_584" class="st6" cx="109.3" cy="67.2" r="6"/>
<path id="Path_2054" class="st7" d="M1028.9,125.8l-0.1,0.1v-7.4l-21.5-16.9l-21.5,16.9v7.4l-0.1-0.1l-18.7,14v16h80.6v-16
	L1028.9,125.8z"/>
<path id="Path_2055" class="st4" d="M959.9,155.9h-43v-37.4l21.5-16.9l21.5,16.9L959.9,155.9z"/>
<path id="Path_2056" class="st4" d="M938.3,155.9h-40.2v-16l18.7-14l21.5,16.9L938.3,155.9z"/>
<path id="Path_2057" class="st4" d="M978.8,155.9h-40.2v-13.2l21.5-16.9l18.7,14V155.9z"/>
<rect id="Rectangle_2198" x="930.5" y="137.9" class="st7" width="15.9" height="18"/>
<rect id="Rectangle_2199" x="930.5" y="115.2" class="st7" width="15.9" height="15.7"/>
<path id="Path_2058" class="st6" d="M938.6,101.6h68.8l21.4,16.9h-68.8L938.6,101.6z"/>
<path id="Path_2059" class="st6" d="M959.9,125.8h68.8l18.5,14h-68.8L959.9,125.8z"/>
<rect id="Rectangle_2200" x="959.9" y="118.5" class="st7" width="68.8" height="7.3"/>
<path id="Path_2060" class="st4" d="M1028.9,23.3c0-6-4.9-10.8-10.8-10.8c-6,0-10.8,4.9-10.8,10.8v41.2h21.7V23.3z"/>
<path id="Path_2061" class="st7" d="M1007.2,23.3h10.8V12.5C1012.1,12.5,1007.2,17.3,1007.2,23.3z"/>
<rect id="Rectangle_2201" x="1018.1" y="23.3" class="st7" width="10.8" height="41.2"/>
<path id="Path_2062" class="st6" d="M1018.1,12.5v10.8h10.8C1028.9,17.3,1024,12.5,1018.1,12.5C1018.1,12.5,1018.1,12.5,1018.1,12.5
	z"/>
<path id="Path_2063" class="st6" d="M995.1,26.3l-0.1,0.1v-0.1h-34.4v0.1c-1.6,1-17.1,10.8-17.1,19.8v18.3h68.9V46.2
	C1012.4,36.7,995.1,26.3,995.1,26.3z"/>
<path id="Path_2064" class="st4" d="M977.9,46.2c0-9.5-17.2-19.9-17.2-19.9s-17.2,10.4-17.2,19.9v18.3h34.4L977.9,46.2z"/>
<path id="Path_2065" class="st7" d="M954.3,64.5V52c0.3-0.8,1.8-3.1,5.8-6.5c0.2-0.1,0.4-0.3,0.5-0.4c0.2,0.2,0.5,0.4,0.7,0.6
	c3.9,3.3,5.3,5.6,5.6,6.3v12.5L954.3,64.5z"/>
<rect id="Rectangle_2202" x="977.9" y="46.4" class="st7" width="34.4" height="18.2"/>
<path id="Path_2066" class="st6" d="M989.3,55.6c0-1.7-3.1-3.6-3.1-3.6s-3.1,1.9-3.1,3.6V59h6.3L989.3,55.6z"/>
<path id="Path_2067" class="st6" d="M998.3,55.6c0-1.7-3.1-3.6-3.1-3.6s-3.1,1.9-3.1,3.6V59h6.3V55.6z"/>
<path id="Path_2068" class="st6" d="M1007.2,55.6c0-1.7-3.1-3.6-3.1-3.6s-3.1,1.9-3.1,3.6V59h6.3L1007.2,55.6z"/>
<path id="Path_2069" class="st8" d="M36.9,136.1c0,4.5-3.6,8.1-8.1,8.1c0,0,0,0,0,0c-4.5,0-8.1-3.6-8.1-8.1V128
	c0-4.5,3.6-8.1,8.1-8.1h0c4.5,0,8.1,3.6,8.1,8.1l0,0L36.9,136.1z"/>
<rect id="Rectangle_2203" x="26.6" y="141.4" class="st8" width="4.1" height="17.2"/>
<circle id="Ellipse_585" class="st8" cx="42.2" cy="146.8" r="6.9"/>
<rect id="Rectangle_2204" x="40.3" y="151.2" class="st8" width="3.5" height="14.6"/>
<path id="Path_2070" class="st8" d="M0.6,155.9l0.1,4.1c0,5.5,4.5,10,10,10h1066.9c5.5,0,10-4.5,10-10v-4.1H0.6z"/>
</svg>
