<?xml version="1.0" encoding="utf-8"?>
<!-- Generator: Adobe Illustrator 24.1.3, SVG Export Plug-In . SVG Version: 6.00 Build 0)  -->
<svg version="1.1" id="Layer_1" xmlns="http://www.w3.org/2000/svg" xmlns:xlink="http://www.w3.org/1999/xlink" x="0px" y="0px"
	 viewBox="0 0 682.5 768" style="enable-background:new 0 0 682.5 768;" xml:space="preserve">
<style type="text/css">
	.st0{fill:none;}
	.st1{fill:#67BA7D;}
	.st2{fill:#3D98D3;}
	.st3{fill:#FFFFFF;}
	.st4{fill:#93DD8F;}
	.st5{fill:url(#New_Pattern_Swatch_2);}
	.st6{fill:#0D8E84;}
	.st7{fill:#54BFEE;}
	.st8{fill:#2C3E50;}
	.st9{fill:#2E729D;}
	.st10{fill:#065667;}
</style>
<pattern  y="768" width="146" height="146" patternUnits="userSpaceOnUse" id="New_Pattern_Swatch_2" viewBox="0 -146 146 146" style="overflow:visible;">
	<g>
		<rect y="-146" class="st0" width="146" height="146"/>
		<g>
			<polygon class="st1" points="0,-86.1885986 0,-71.8514557 74.1485443,-146 59.8096657,-146 54.2390938,-140.4295502 
				54.2400856,-140.4285583 5.5724282,-91.7609024 			"/>
			<polygon class="st1" points="84.1429977,-146 78.5724258,-140.4295502 78.5734177,-140.4285583 5.5724282,-67.4275742 
				0,-61.8552666 0,-47.5181198 98.4818802,-146 			"/>
			<polygon class="st1" points="146,-13.1902094 132.8096619,0 146,0 			"/>
			<polygon class="st1" points="108.4764557,-146 102.9057617,-140.4295502 102.9067535,-140.4285583 5.5724282,-43.0942383 
				0,-37.5220566 0,-23.1847878 122.8152161,-146 			"/>
			<polygon class="st1" points="0,-110.5219345 0,-96.1847839 49.8152122,-146 35.4763336,-146 29.9057617,-140.4295502 
				29.9067516,-140.4285583 5.5724282,-116.0942383 			"/>
			<polygon class="st1" points="0,-134.8552704 0,-120.5181198 25.4818802,-146 11.1430006,-146 5.5724282,-140.4295502 
				5.5734186,-140.4285583 5.5724282,-140.4275665 			"/>
			<polygon class="st1" points="12.7400732,-11.5932598 144.5464935,-143.3980713 146,-144.8514557 146,-146 132.8090515,-146 
				127.2390976,-140.430542 127.2395935,-140.4300537 127.2390976,-140.4295502 127.2399597,-140.4286804 0,-13.1902094 0,0 
				1.1484222,0 12.7409401,-11.5923939 			"/>
			<polygon class="st1" points="146,-23.1847878 146,-37.5220566 108.4764557,0 122.8152161,0 134.407608,-11.5923939 			"/>
			<polygon class="st1" points="11.1430006,0 25.4818802,0 37.0742722,-11.5923939 37.0734062,-11.5932598 134.407486,-108.9258499 
				134.407608,-108.9257278 146,-120.5181198 146,-134.8552704 			"/>
			<polygon class="st1" points="134.407608,-35.9257278 146,-47.5181198 146,-61.8552666 84.1429977,0 98.4818802,0 
				110.0742722,-11.5923939 110.0736542,-11.5930128 134.4072418,-35.9260979 			"/>
			<polygon class="st1" points="59.8096657,0 74.1485443,0 85.7409363,-11.5923939 85.7401962,-11.5931358 134.4073639,-60.2593079 
				134.407608,-60.2590599 146,-71.8514557 146,-86.1885986 			"/>
			<polygon class="st1" points="35.4763336,0 49.8152122,0 61.407608,-11.5923939 61.4068642,-11.5931358 134.4073639,-84.5926437 
				134.407608,-84.592392 146,-96.1847839 146,-110.5219345 			"/>
		</g>
	</g>
</pattern>
<g>
	<rect y="0.9970656" class="st2" width="685" height="768"/>
	<path class="st3" d="M685,179.9765625c-10.2684326-7.9534912-23.1462402-12.6995239-37.1398926-12.6995239
		c-7.3413086,0-14.3781738,1.3031616-20.892334,3.6902466c-9.7324219-42.9186401-48.0844727-74.9703445-93.9477539-74.9703445
		c-45.5672607,0-83.7202148,31.6395264-93.7562256,74.1409988c-5.8175049-1.8529663-12.012085-2.8609009-18.4437256-2.8609009
		c-25.1612549,0-46.7474365,15.3044434-55.9589844,37.1118774c-5.6607666-2.6327515-11.9667969-4.1118774-18.6210938-4.1118774
		c-18.5873413,0-34.4851685,11.4734497-41.0258789,27.7200317H685V179.9765625z"/>
	<rect x="268" y="400.9970703" class="st4" width="413.512146" height="318"/>
	<rect y="400.9970703" class="st5" width="681.512146" height="308"/>
	<g>
		<rect y="539.2085571" class="st6" width="546.2907715" height="179.7885284"/>
		<rect y="561.6821289" class="st1" width="546.2907715" height="22.4735661"/>
		<rect y="606.6292114" class="st1" width="546.2907715" height="22.4735661"/>
		<rect y="651.576355" class="st1" width="546.2907715" height="22.4735661"/>
		<rect y="696.5234985" class="st1" width="546.2907715" height="22.4735661"/>
	</g>
	<g>
		<g>
			<polygon class="st3" points="179,539.9970703 0,539.9970703 0,400.9970703 30,360.9970703 90,330.9970703 149,360.9970703 
				179,400.9970703 			"/>
			<polygon class="st7" points="268,539.9970703 89,539.9970703 89,400.9970703 119,360.9970703 179,330.9970703 238,360.9970703 
				268,400.9970703 			"/>
			<rect y="400.9970703" class="st3" width="89" height="139"/>
			<polygon class="st8" points="30,360.9970703 119,360.9970703 179,330.9970703 89,330.9970703 			"/>
			<polygon class="st9" points="89,400.9970703 119,360.9970703 30,360.9970703 0,400.9970703 			"/>
			
				<rect x="136.5" y="459.6474609" transform="matrix(-1.836970e-16 1 -1 -1.836970e-16 676.4970703 319.4970703)" class="st3" width="84" height="76.6992188"/>
			<rect x="150.1505127" y="465.9970703" class="st8" width="56.6989899" height="64"/>
			
				<rect x="160.8308716" y="463.3314514" transform="matrix(0.9231052 -0.3845474 0.3845474 0.9231052 -178.9441986 101.1016998)" class="st3" width="4.9993992" height="69.3312073"/>
			
				<rect x="128.6649628" y="495.4973755" transform="matrix(0.3844212 -0.9231578 0.9231578 0.3844212 -359.1870422 457.3363342)" class="st3" width="69.3312073" height="4.9993992"/>
			
				<rect x="191.1697388" y="463.3314514" transform="matrix(0.9231052 -0.3845474 0.3845474 0.9231052 -176.6112976 112.768425)" class="st3" width="4.9993992" height="69.3312073"/>
			
				<rect x="159.00383" y="495.4973755" transform="matrix(0.3844212 -0.9231578 0.9231578 0.3844212 -340.5110779 485.3439026)" class="st3" width="69.3312073" height="4.9993992"/>
			<rect x="176" y="465.9970703" class="st3" width="5" height="64"/>
		</g>
		<circle class="st8" cx="178" cy="410.9970703" r="22"/>
	</g>
	<g>
		<polygon class="st9" points="620.567627,619.227356 620.102356,619.5922241 620.102356,595.0355835 548.9228516,539.2085571 
			507.7433472,595.0355835 507.7433472,619.5922241 507.2781372,619.227356 445.4031372,665.7498779 445.4031372,718.7855835 
			507.7433472,718.7855835 548.4576416,718.7855835 549.3880615,718.7855835 620.102356,718.7855835 682.442627,718.7855835 
			682.442627,665.7498779 		"/>
		<polygon class="st3" points="422.1418457,718.7855835 279.7828369,718.7855835 279.7828369,595.0355835 350.9623413,539.2085571 
			422.1418457,595.0355835 		"/>
		<polygon class="st3" points="350.4971008,718.7855835 217.4425964,718.7855835 217.4425964,665.7498779 279.3175964,619.227356 
			350.4971008,675.0543823 		"/>
		<polygon class="st3" points="484.4820862,718.7855835 351.4275513,718.7855835 351.4275513,675.0543823 422.6070862,619.227356 
			484.4820862,665.7498779 		"/>
		<rect x="324.5845337" y="659.2367554" class="st9" width="52.7556381" height="59.5488739"/>
		<rect x="324.5845337" y="584.1027832" class="st9" width="52.7556381" height="52.0773506"/>
		<polygon class="st8" points="351.4275513,539.2085571 549.3880615,539.2085571 620.102356,595.0355835 422.1418457,595.0355835 		
			"/>
		<polygon class="st8" points="422.1418457,619.227356 620.102356,619.227356 681.512146,665.7498779 483.5516357,665.7498779 		"/>
		<rect x="422.1418457" y="595.0355835" class="st9" width="197.9605255" height="24.1917286"/>
	</g>
	<g>
		<path class="st3" d="M616,249.9970703c0-22.0914001-17.9086304-40-40-40s-40,17.9085999-40,40v152h80V249.9970703z"/>
		<g>
			<path class="st9" d="M536,249.9970703h40v-40C553.9086914,209.9970703,536,227.9056396,536,249.9970703z"/>
			<rect x="576" y="249.9970703" class="st9" width="40" height="152"/>
			<path class="st8" d="M576,209.9970703v40h40C616,227.9056396,598.0913086,209.9970703,576,209.9970703z"/>
		</g>
	</g>
	<g>
		<path class="st8" d="M491.5,260.9970703c0,0-0.1784668,0.1082764-0.5,0.3077393v-0.3077393H364v0.3077393
			c-5.9019165,3.6606445-63,39.9343872-63,73.1922607v67.5h63h64h63h64v-67.5C555,299.427002,491.5,260.9970703,491.5,260.9970703z"
			/>
		<path class="st3" d="M428,334.4970703c0-35.0700989-63.5-73.5-63.5-73.5s-63.5,38.4299011-63.5,73.5v67.5h127V334.4970703z"/>
		<path class="st9" d="M341,401.9970703V355.762207c1.1699219-2.9399414,6.65625-11.5639648,21.5361328-24.0244141
			c0.6582031-0.5512695,1.3125-1.0917969,1.9638672-1.6225586c0.8955078,0.7299805,1.7988281,1.4794922,2.7050781,2.246582
			c14.3378906,12.137207,19.6494141,20.527832,20.7949219,23.4013672v46.2338867H341z"/>
		<rect x="428" y="334.9970703" class="st9" width="127" height="67"/>
		<g>
			<path class="st8" d="M470,369.1862488c0-6.3671265-11.5286865-13.3442383-11.5286865-13.3442383
				s-11.528717,6.9771118-11.528717,13.3442383v12.2549133H470V369.1862488z"/>
			<path class="st8" d="M503,369.1862488c0-6.3671265-11.5286865-13.3442383-11.5286865-13.3442383
				s-11.528717,6.9771118-11.528717,13.3442383v12.2549133H503V369.1862488z"/>
			<path class="st8" d="M536,369.1862488c0-6.3671265-11.5286865-13.3442383-11.5286865-13.3442383
				s-11.5286865,6.9771118-11.5286865,13.3442383v12.2549133H536V369.1862488z"/>
		</g>
	</g>
	<rect y="718.9970703" class="st10" width="681.512146" height="50"/>
	<path class="st10" d="M89,643.9970703c0,16.5685425-13.4314575,30-30,30s-30-13.4314575-30-30v-30
		c0-16.5685425,13.4314575-30,30-30s30,13.4314575,30,30V643.9970703z"/>
	<rect x="51" y="663.3303833" class="st10" width="15" height="63.3333321"/>
	<circle class="st10" cx="108.5" cy="683.3970947" r="25.5"/>
	<rect x="101.6999969" y="699.8303833" class="st10" width="12.75" height="53.8333321"/>
	<path class="st3" d="M0,132.6793671h184.1125336c-5.2861938-13.1304398-18.1348114-22.4032822-33.157074-22.4032822
		c-5.378067,0-10.4745178,1.1954269-15.0496063,3.3232117c-7.4447021-17.6247177-24.890625-29.9937897-45.2258911-29.9937897
		c-5.1980972,0-10.2044907,0.8146439-14.9062271,2.3121948C67.66259,51.5680656,36.8274689,25.9970665,0,25.9970665"/>
</g>
</svg>
