<?xml version="1.0" encoding="utf-8"?>
<svg style="width: 50%" xmlns="http://www.w3.org/2000/svg" viewBox="0 0 242.2 107.4">
  <path fill="#0075a8" d="M229,23.6L226.5,8.7c-0.8-4.8-2.7-8.7-4.1-8.7s-2.7,4-2.7,8.8v3.9a8.88,8.88,0,0,1-8.8,8.8h-4.7V32.2h15.5a7.17,7.17,0,0,0,7.3-8.6" alt=""></path>
  <path fill="#0075a8" d="M193.9,11a8.9,8.9,0,0,1,9,8.9V65.7a8.88,8.88,0,0,1-8.8,8.8H170.4a8.88,8.88,0,0,1-8.8-8.8v-18a8.76,8.76,0,0,0-3.5,7V69.8a8.88,8.88,0,0,0,8.8,8.8h15.4V102a5.38,5.38,0,0,1-5.4,5.4h-29a5.38,5.38,0,0,1-5.4-5.4V80.2a5.38,5.38,0,0,0-5.4-5.4H64.7a5.38,5.38,0,0,0-5.4,5.4V102a5.38,5.38,0,0,1-5.4,5.4h-29a5.38,5.38,0,0,1-5.4-5.4V39.4L6.4,49.7a1.4,1.4,0,0,1-1.9-.2L0.8,45.1a1.36,1.36,0,0,1-.1-1.6L19.9,14.2A5.39,5.39,0,0,1,24.8,11H127a5.43,5.43,0,0,1,5.3,6.3l-2.1,12.5a5.43,5.43,0,0,0,5.3,6.3H156a5.38,5.38,0,0,0,5.3-4.4,14.21,14.21,0,0,1-4.2.6H142.5a7.23,7.23,0,0,1-7.4-8.7l2.5-14.9c0.8-4.8,2.6-8.7,4.1-8.7s2.7,4,2.7,8.8v2.3Z" alt=""></path>
  <g class="glasses">
    <path fill="#333333" d="M212.27,35.53a0.12,0.12,0,0,0-.15.15v2.06a0.12,0.12,0,0,1-.15.15h-2.06c-0.11,0-.14,0-0.14.15V40.1c0,0.11,0,.14-0.15.14H193.51a0.12,0.12,0,0,1-.15-0.15V38a0.12,0.12,0,0,0-.15-0.15h-2.06a0.12,0.12,0,0,1-.15-0.15c0-.69,0-1.37,0-2.06,0-.11,0-0.14-0.15-0.14h-2.06c-0.11,0-.14,0-0.14-0.15V33.33c0-.11,0-0.14-0.15-0.14q-1,0-2.06,0c-0.13,0-.14,0-0.14.15v4.39c0,0.14,0,.16-0.16.16h-2c-0.11,0-.14,0-0.14.15v2.06c0,0.11,0,.14-0.15.14h-2.06c-0.13,0-.14,0-0.14.15v2.06c0,0.13,0,.14-0.15.14H165.37c-0.11,0-.14,0-0.14-0.15V40.35c0-.11,0-0.14-0.15-0.14H163c-0.11,0-.14,0-0.14-0.15V38c0-.13,0-0.14-0.15-0.14h-2.06c-0.13,0-.14,0-0.14-0.15V35.67c0-.13,0-0.14-0.15-0.14h-2c-0.14,0-.16,0-0.16-0.16,0-.67,0-1.35,0-2,0-.14,0-0.16-0.16-0.16H144.19V30.85h70.19c0.1,0,.13,0,0.13.13v4.56h-2.23Zm-44.66,4.54a0.12,0.12,0,0,0,.15.15q1,0,2.06,0a0.12,0.12,0,0,0,.15-0.15v-2.2h2.34v2.2a0.12,0.12,0,0,0,.15.15h2.06a0.07,0.07,0,0,0,.07,0,0.11,0.11,0,0,0,.08-0.14V38a0.12,0.12,0,0,0-.15-0.15h-2.2v-2.2a0.12,0.12,0,0,0-.15-0.15H170v-2.2a0.12,0.12,0,0,0-.15-0.15q-1,0-2.06,0a0.12,0.12,0,0,0-.15.15v2.2h-2.34v-2.2a0.12,0.12,0,0,0-.15-0.15H163a0.11,0.11,0,0,0-.08.14v2.06a0.12,0.12,0,0,0,.15.15h2.2v2.2a0.12,0.12,0,0,0,.15.15h2.2C167.63,38.61,167.63,39.34,167.61,40.07Zm28.13-2.34a0.12,0.12,0,0,0,.15.15q1,0,2.06,0c0.13,0,.15,0,0.15-0.15v-2.2h2.34v2.21a0.12,0.12,0,0,0,.15.15h2.12a0.11,0.11,0,0,0,.08-0.14V35.69a0.12,0.12,0,0,0-.15-0.15h-2.2v-2.2a0.12,0.12,0,0,0-.15-0.15q-1,0-2.06,0a0.12,0.12,0,0,0-.15.15v2.2h-2.33c0-.73,0-1.46,0-2.2a0.12,0.12,0,0,0-.15-0.15h-2.12a0.11,0.11,0,0,0-.08.14V35.4a0.12,0.12,0,0,0,.15.15h2.2C195.75,36.27,195.75,37,195.74,37.73Z" alt=""></path>
    <path fill="#ff0000" d="M198.09,35.53h0v-2.2a0.12,0.12,0,0,1,.15-0.15q1,0,2.06,0c0.13,0,.15,0,0.15.15v2.2h-2.36Z" alt=""></path>
    <path fill="#ff0000" d="M195.75,35.53h-2.2a0.12,0.12,0,0,1-.15-0.15V33.27a0.11,0.11,0,0,1,.14-0.08h2.06a0.12,0.12,0,0,1,.15.15v2.2h0Z" alt=""></path>
    <path fill="#ff0000" d="M170,35.53h-2.36v-2.2a0.12,0.12,0,0,1,.15-0.15q1,0,2.06,0a0.12,0.12,0,0,1,.15.15v2.2h0Z" alt=""></path>
    <path fill="#ff0000" d="M165.28,35.53h-2.2a0.12,0.12,0,0,1-.15-0.15V33.27a0.12,0.12,0,0,1,.14-0.09h2.06a0.12,0.12,0,0,1,.15.15v2.21h0Z" alt=""></path>
    <path fill="#ff0000" d="M200.44,35.53h2.2a0.12,0.12,0,0,1,.15.15V37.8a0.11,0.11,0,0,1-.14.08h-2.06a0.12,0.12,0,0,1-.15-0.15v-2.2h0Z" alt=""></path>
    <path fill="#ff0000" d="M198.09,35.53h0v2.2a0.12,0.12,0,0,1-.15.15q-1,0-2.06,0a0.12,0.12,0,0,1-.15-0.15v-2.2h2.36Z" alt=""></path>
    <path fill="#ff0000" d="M170,37.88h0V35.53h2.2a0.12,0.12,0,0,1,.15.15v2.2H170Z" alt=""></path>
    <path fill="#ff0000" d="M165.28,35.53h2.34v2.34h-2.2a0.12,0.12,0,0,1-.15-0.15v-2.2h0Z" alt=""></path>
    <path fill="#ff0000" d="M172.31,37.88h2.2a0.12,0.12,0,0,1,.15.15v2.12a0.11,0.11,0,0,1-.14.08h-2.06a0.12,0.12,0,0,1-.15-0.15v-2.2h0Z" alt=""></path>
    <path fill="#ff0000" d="M170,37.88h0v2.2a0.12,0.12,0,0,1-.15.15q-1,0-2.06,0a0.12,0.12,0,0,1-.15-0.15v-2.2H170Z" alt=""></path>
    <path d="M144.19,33.19v2.23c0,0.1,0,.11-0.13.11h-4.45c-0.09,0-.11,0-0.11-0.11v-2.1c0-.09,0-0.13.11-0.13h4.57Z" alt=""></path>
    <path fill="#333333" d="M167.63,35.53H170v2.34h-2.34V35.53Z" alt=""></path>
  </g>
</svg>
