<?xml version="1.0" encoding="utf-8"?>
<!-- Generator: Adobe Illustrator 25.2.0, SVG Export Plug-In . SVG Version: 6.00 Build 0)  -->
<svg version="1.1" id="Layer_1" xmlns="http://www.w3.org/2000/svg" xmlns:xlink="http://www.w3.org/1999/xlink" x="0px" y="0px"
	 viewBox="0 0 199.412384 165" style="enable-background:new 0 0 199.412384 165;" xml:space="preserve">
<style type="text/css">
	.st1{fill:#FFFFFF;}
	.st4{fill:#004D93;}
</style>
<path class="st4" d="M180,165H20c-11,0-20-9-20-20V20C0,9,9,0,20,0h160c11,0,20,9,20,20v125C200,156,191,165,180,165z"/>
<g>
	<path class="st1" d="M47.4770508,106.6396484V79.3925781H138.4375c-2.987793,5.4580078-4.6884766,11.7177734-4.6884766,18.3662109
		v13.2089844c3.2719727-0.9838867,6.123291-2.234375,8.0161133-3.1591797l6.5839844-3.2177734l5.3999023,2.637207v-9.4692383
		c0-10.1269531,8.2392578-18.3662109,18.3662109-18.3662109v-20h-70.4760742V47.4648438h10v-20h-10H37.6933594H27.4770508v20
		h10.2163086v11.9277344H27.4770508v53.1425781c6.8833008,0,13.9960938-2.9619141,17.6079102-4.7265625L47.4770508,106.6396484z
		 M57.6933594,47.4648438h23.9458008v11.9277344H57.6933594V47.4648438z"/>
	<path class="st1" d="M152.7397461,112.2998047l-4.3901367-2.1445312l-4.3891602,2.1455078
		c-4.0004883,1.9550781-11.8891602,5.234375-19.7788086,5.234375c-7.8886719,0-15.7788086-3.2792969-19.7797852-5.234375
		l-4.390625-2.1455078l-4.3901367,2.1455078c-4.0004883,1.9550781-11.8886719,5.234375-19.7773438,5.234375
		c-7.8862305,0-15.7802734-3.2802734-19.7836914-5.2353516l-4.3901367-2.1445312l-4.3891602,2.1455078
		c-4.0004883,1.9550781-11.9145508,5.234375-19.8037109,5.234375v20c9.0991211,0,17.6704102-2.5546875,24.1953125-5.2783203
		c6.527832,2.7236328,15.074707,5.2783203,24.1713867,5.2783203c9.0986328,0,17.6435547-2.5537109,24.168457-5.2773438
		c6.5253906,2.7236328,15.0712891,5.2773438,24.1694336,5.2773438c9.0996094,0,17.6455078-2.5546875,24.1704102-5.2783203
		c6.527832,2.7236328,15.074707,5.2783203,24.1708984,5.2783203v-20
		C164.637207,117.5351562,156.7431641,114.2548828,152.7397461,112.2998047z"/>
</g>
</svg>
