<svg width="13" height="16" viewBox="0 0 13 16" fill="none" xmlns="http://www.w3.org/2000/svg">
<path d="M4.30594 4.11111H8.9726M4.30594 7.22222H8.9726M4.30594 10.3333H7.41705M1.19482 2.55556C1.19482 2.143 1.35871 1.74733 1.65044 1.45561C1.94216 1.16389 2.33782 1 2.75038 1H10.5282C10.9407 1 11.3364 1.16389 11.6281 1.45561C11.9198 1.74733 12.0837 2.143 12.0837 2.55556V13.4444C12.0837 13.857 11.9198 14.2527 11.6281 14.5444C11.3364 14.8361 10.9407 15 10.5282 15H2.75038C2.33782 15 1.94216 14.8361 1.65044 14.5444C1.35871 14.2527 1.19482 13.857 1.19482 13.4444V2.55556Z" stroke="white" stroke-width="1.4" stroke-linecap="round" stroke-linejoin="round"/>
</svg>
