<svg id="Layer_1" data-name="Layer 1" xmlns="http://www.w3.org/2000/svg" viewBox="0 0 28.8 24.94"><defs><style>.cls-1{fill:#488eaf;}.cls-2{fill:#83b7d0;}.cls-3{fill:#fff;}.cls-4{fill:#004f78;}</style></defs><path class="cls-1" d="M9.61,8.5v8.14l.94,1.69.24.22v-12A12.84,12.84,0,0,1,9.61,8.5Z"/><path class="cls-1" d="M6.57,11.38l1.14,2V10.58A8.07,8.07,0,0,1,6.57,11.38Z"/><path class="cls-1" d="M8.18,10.16v4l1,1.65V9.13A9.35,9.35,0,0,1,8.18,10.16Z"/><path class="cls-1" d="M10.76,0H0L5.78,10C9.78,7.6,10.62,2.18,10.76,0Z"/><path class="cls-1" d="M23,10.05,28.8,0H18V.44C18.09,2.88,18.83,8,23,10.05Z"/><path class="cls-1" d="M16.52,4V.59c0-.21,0-.41,0-.59H12.29V4Z"/><polygon class="cls-1" points="16.48 11.06 12.29 11.06 12.29 19.43 11.22 19.43 14.4 24.94 17.58 19.43 16.48 19.43 16.48 11.06"/><path class="cls-1" d="M19.56,9.4V16l1-1.64V10.31A9.06,9.06,0,0,1,19.56,9.4Z"/><rect class="cls-1" x="12.29" y="5.53" width="4.19" height="3.95"/><path class="cls-1" d="M21,13.54l1.22-2.12A8.44,8.44,0,0,1,21,10.68Z"/><path class="cls-1" d="M18.06,7.08V18.66l1-1.83v-8A10.29,10.29,0,0,1,18.06,7.08Z"/><path class="cls-2" d="M24.06,3H20.43a1,1,0,0,0,0-2h-4.9a1,1,0,1,0,0,2.05H5.58a1,1,0,0,0,0,2.06H8A1,1,0,1,0,8,7.11h4.74a1,1,0,0,0,0-2.05H24.06a1,1,0,1,0,0-2.06Z"/><path class="cls-3" d="M18,.44V0H16.46c0,.18,0,.38,0,.59V4H12.29V0H10.72c-.14,2.18-.94,7.6-4.94,10l.79,1.37a8.07,8.07,0,0,0,1.14-.8v2.77l.47.82v-4a9.35,9.35,0,0,0,1-1v6.69l.48.82V8.5a12.68,12.68,0,0,0,1.14-1.94v12l.47.88h1.07V11.06h4.19v8.37h1.1l.48-.77V7.08a10.29,10.29,0,0,0,1,1.75v8l.48-.82V9.4a9.06,9.06,0,0,0,1,.91v4.06l.47-.83V10.68a8.44,8.44,0,0,0,1.22.74l.8-1.37C18.83,8,18.09,2.88,18,.44Zm-1.5,9H12.29V5.53h4.19Z"/><polygon class="cls-4" points="10.55 18.33 18.25 18.33 14.4 24.94 10.55 18.33"/></svg>