<?xml version="1.0" encoding="utf-8"?>
<!-- Generator: Adobe Illustrator 25.2.0, SVG Export Plug-In . SVG Version: 6.00 Build 0)  -->
<svg version="1.1" id="Layer_1" xmlns="http://www.w3.org/2000/svg" xmlns:xlink="http://www.w3.org/1999/xlink" x="0px" y="0px"
	 viewBox="0 0 100 100" style="enable-background:new 0 0 100 100;" xml:space="preserve">
<g>
	<polygon points="49.9,37.8 49.9,62.2 64.6,56.3 64.6,43.2 	"/>
	<path d="M35.4,41.3V58l11.5,4.1V37.8L35.4,41.3z M38.1,57.2l-1.8-0.7V43.2l1.8-0.5V57.2z M41.4,58.4l-2.5-0.9V42.4l2.5-0.8V58.4z
		 M45.5,59.7l-3.3-1V41.3l3.3-1V59.7z"/>
	<polygon points="14.5,37.8 14.5,62.2 29.2,56.3 29.2,43.2 	"/>
	<path d="M0,41.3V58l11.5,4.1V37.8L0,41.3z M2.8,57.2L1,56.5V43.2l1.8-0.5V57.2z M6,58.4l-2.5-0.9V42.4L6,41.6V58.4z M10.1,59.7
		l-3.3-1V41.3l3.3-1V59.7z"/>
	<polygon points="85.3,37.8 85.3,62.2 100,56.3 100,43.2 	"/>
	<path d="M70.8,41.3V58l11.5,4.1V37.8L70.8,41.3z M73.4,57.2l-1.8-0.7V43.2l1.8-0.5V57.2z M76.8,58.4l-2.5-0.9V42.4l2.5-0.8V58.4z
		 M80.9,59.7l-3.3-1V41.3l3.3-1V59.7z"/>
	<polygon points="31.1,62.6 31.1,87 45.7,81.1 45.7,68 	"/>
	<path d="M16.5,66.3v16.6L28,87V62.6L16.5,66.3z M19.1,82l-1.8-0.7V68.1l1.8-0.5V82z M22.5,83.2L20,82.3V67.2l2.5-0.8V83.2z
		 M26.6,84.6l-3.3-1V66.1l3.3-1V84.6z"/>
	<polygon points="67.1,62.6 67.1,87 81.8,81.1 81.8,68 	"/>
	<path d="M52.4,66.3v16.6L64,87V62.6L52.4,66.3z M55.2,82l-1.8-0.7V68.1l1.8-0.5V82z M58.5,83.2l-2.5-1v-15l2.5-0.8V83.2z
		 M62.6,84.6l-3.3-1V66.1l3.3-1V84.6z"/>
	<polygon points="31.1,13 31.1,37.3 45.7,31.5 45.7,18.4 	"/>
	<path d="M16.5,16.6v16.6L28,37.3V13L16.5,16.6z M19.1,32.3l-1.8-0.7V18.4l1.8-0.5V32.3z M22.5,33.5L20,32.7V17.6l2.5-0.8V33.5z
		 M26.6,34.9l-3.3-1V16.6l3.3-1V34.9z"/>
	<polygon points="67.1,13 67.1,37.3 81.8,31.5 81.8,18.4 	"/>
	<path d="M52.4,16.6v16.6L64,37.3V13L52.4,16.6z M55.2,32.3l-1.8-0.7V18.4l1.8-0.5V32.3z M58.5,33.5L56,32.7V17.6l2.5-0.8
		C58.5,16.8,58.5,33.5,58.5,33.5z M62.6,34.9l-3.3-1V16.6l3.3-1V34.9z"/>
</g>
</svg>
