<?xml version="1.0" encoding="utf-8"?>
<!-- Generator: Adobe Illustrator 25.2.0, SVG Export Plug-In . SVG Version: 6.00 Build 0)  -->
<svg version="1.1" id="Layer_1" xmlns="http://www.w3.org/2000/svg" xmlns:xlink="http://www.w3.org/1999/xlink" x="0px" y="0px"
	 viewBox="0 0 100 100" style="enable-background:new 0 0 100 100;" xml:space="preserve">
<path d="M94.9,15.4C93.3,10.8,89.5,6.8,84.5,5c-22.4-6.6-46.4-6.6-69,0c-4.8,1.8-8.6,5.6-10.4,10.6C-1.7,38-1.7,62,5.1,84.4
	c1.8,4.8,5.6,8.6,10.4,10.4c22.4,6.8,46.4,6.8,69,0c4.8-1.8,8.6-5.6,10.4-10.4C101.7,62,101.7,38,94.9,15.4z M25.1,18.4
	c2.4-4.8,8.4-6.8,13.2-4.4c4.8,2,9.2,6.4,12.4,6.4S56.9,16,61.3,14c1.2-0.6,2.4-1,3.8-1h0.6c5.4,0,9.8,4.4,9.8,9.8
	c0,5.4-4.4,9.8-9.8,9.8h-0.6c-8-0.2-7.4-7-14.6-7s-8.2,6.6-15.8,7h-0.6c-1.6,0-3-0.2-4.6-1C24.7,29.2,22.7,23.2,25.1,18.4z
	 M71.5,85.8c-4.6,2.4-10.6,0.6-13-4.2c-1-2-1.8-4.4-2-6.8c-3.8-3.6-21.4,19.6-30.8,6.6c-9.4-13,20.6-20,17.6-27.4
	c-2-4.4-9.4-3.2-15.8,1.4c-0.4,0.6-0.8,1-1.4,1.6c-3.8,3.8-10,3.8-13.8,0s-3.8-10,0-13.8s10-3.8,13.8,0C40.9,54,46.7,34,55.9,45
	c8.8,10.6-14.2,17.6-14.2,24.8c0,5.6,13.2,1.4,14.6,1c0.2-4.8,1.4-8.8,2.4-9.2c1.8-1,13.2,4,17,11.2C78.1,77.4,76.3,83.4,71.5,85.8z
	 M81.7,59.4c-8.2,0-16.8-9.2-16.8-9.2S74.1,41,81.7,41c5,0,9.2,4.2,9.2,9.2S86.7,59.4,81.7,59.4z"/>
</svg>
