<?xml version="1.0" encoding="utf-8"?>
<!-- Generator: Adobe Illustrator 25.2.3, SVG Export Plug-In . SVG Version: 6.00 Build 0)  -->
<svg version="1.1" id="Layer_1" xmlns="http://www.w3.org/2000/svg" xmlns:xlink="http://www.w3.org/1999/xlink" x="0px" y="0px"
	 viewBox="0 0 100 100" style="enable-background:new 0 0 100 100;" xml:space="preserve">
<style type="text/css">
	.st0{fill:#00AAF2;}
</style>
<g>
	<path class="st0" d="M99.7962494,76.143692c0,6.9666519,0,13.9333115,0,20.899971
		c0,2.3885574-0.7961884,2.9857101-2.9857101,2.5876236c-15.7247467-2.3885651-31.2504425-4.5781021-46.9751778-6.568573
		c-2.7866669-0.3980865-3.7819023-1.3933258-3.7819023-4.3790359c0.1990433-11.1466522,0.1990433-22.2933121,0-33.4399605
		c0-2.3885689,0.7961922-3.1847534,3.1847534-3.1847534c15.7247467,0,31.6485367,0,47.3732681,0
		c2.5876236,0,3.1847534,0.9952354,3.1847534,3.1847534C99.7962494,62.0113258,99.7962494,68.9779816,99.7962494,76.143692z"/>
	<path class="st0" d="M73.1239014,47.6799202c-7.9618988,0-15.9237938,0-23.6866455,0
		c-2.3885689,0-3.3838043-0.5971413-3.3838043-3.3838081c0.1990433-11.3457031,0.1990433-22.4923515,0-33.8380547
		c-0.398098-1.3933334,0.5971413-2.9857106,1.9904709-3.1847591c0.1990471,0,0.5971413,0,0.796196,0
		c16.1228409-2.1895218,32.4447174-4.5780878,48.5675583-6.9666581c2.7866592-0.3980963,2.3885574,1.5923775,2.3885574,2.9857106
		c0,10.1514168,0,20.3028297,0,30.2551994c0,3.7819061,0,7.3647575,0,11.1466522
		c0,2.189518-0.7961884,2.9857101-2.9857101,2.9857101C88.8486481,47.6799202,81.0857925,47.6799202,73.1239014,47.6799202z"/>
	<path class="st0" d="M20.7744389,51.8599129c5.9714222,0,11.9428425,0,17.7152119,0
		c1.1942825-0.398098,2.3885689,0.3980942,2.7866669,1.5923767c0,0.398098,0.1990433,0.7961922,0,0.9952354
		c0,11.5447464,0,23.2885437,0,34.8332977c0,1.9904785-0.9952354,2.1895218-2.587616,1.9904785
		c-11.7437973-1.7914276-23.487587-3.3838043-35.2313843-4.9761887c-1.5923777,0.1990433-2.9857109-1.1942825-3.1847589-2.7866669
		c0-0.1990433,0-0.5971451,0-0.7961884c0.1990481-9.3552322,0.1990481-18.5114059,0-27.8666344
		c0-2.189518,0.5971407-2.9857101,2.9857106-2.9857101C9.0306444,52.0589561,15.0020695,51.8599129,20.7744389,51.8599129z"/>
	<path class="st0" d="M20.7744389,47.6799202c-5.772377,0-11.5447464,0-17.5161686,0
		c-2.1895218,0-2.9857106-0.7961922-2.9857106-2.9857101c0-9.1561775,0-18.3123608,0-27.4685383
		c-0.3980963-1.3933325,0.5971406-2.9857101,1.9904737-3.1847544c0.199048,0,0.5971406,0,0.7961888,0
		c11.7437944-1.5923777,23.4875927-3.1847591,35.032341-5.1752329c2.7866631-0.3980961,2.9857101,0.5971403,2.9857101,2.5876141
		c0,11.1466541,0,22.2933064,0,33.4399567c0,2.3885689-0.9952393,2.7866669-3.1847572,2.7866669H20.7744389z"/>
</g>
</svg>
