<?xml version="1.0" encoding="utf-8"?>
<!-- Generator: Adobe Illustrator 25.2.3, SVG Export Plug-In . SVG Version: 6.00 Build 0)  -->
<svg version="1.1" id="Layer_1" xmlns="http://www.w3.org/2000/svg" xmlns:xlink="http://www.w3.org/1999/xlink" x="0px" y="0px"
	 viewBox="0 0 100 100" style="enable-background:new 0 0 100 100;" xml:space="preserve">
<style type="text/css">
	.st0{fill:#00AAF2;}
</style>
<g>
	<path class="st0" d="M54.5,37.8000031C53.9000015,38,53.5,38.2000046,52.9000015,38.2000046v30.5999985
		c0.4000015,0,0.8000031,0.1999969,1.1999969,0.4000015l15.5999985-10
		c-0.4000015-0.8000031-0.4000015-1.8000031-0.4000015-2.8000031c0-1.4000015,0.4000015-3,1.1999969-4.1999969L54.5,37.8000031z"/>
	<path class="st0" d="M50.0999947,0L0.2999973,58.8000031L50.0999947,100l49.6000099-41.1999969L50.0999947,0z
		 M76.9000015,64.5999985c-1.8000031,0-3.5999985-0.5999985-5-1.8000031L57.2999954,72c1,1.4000015,1.4000015,3,1.5999985,4.5999985
		C59.4999924,81,56.6999969,85,52.2999954,85.8000031c-4.4000015,0.6000061-8.4000015-2.1999969-9.1999969-6.6000061
		c-0.1999969-0.8000031-0.1999969-1.5999985,0-2.5999985C43.0999985,75,43.5,73.4000015,44.5,72.1999969l-15.4000034-10
		c-3,3-8,3-11,0c-1.4000015-1.4000015-2.4000015-3.5999985-2.4000015-5.5999985c0-4.4000015,3.5999985-8,8-8
		C25.2999935,48.5999985,26.899992,49,28.0999966,50l16.0000019-14.8000031c-1.1999969-1.5999985-2-3.5999985-2-5.5999985
		c0-5,4-8.8000031,9-8.8000031s8.8000031,4,8.8000031,8.8000031c0,2-0.8000031,4-2,5.5999985l15.4000015,14.4000015
		c4-2,8.7999954-0.5999985,10.7999954,3.4000015s0.6000061,8.8000031-3.3999939,10.8000031
		C79.2999954,64.1999969,78.0999985,64.5999985,76.9000015,64.5999985z"/>
	<path class="st0" d="M30.4999981,53.1999969C31.3000011,55,31.4999981,57,30.8999996,58.7999954l16.4000034,10.5999985
		c0.4000015-0.1999969,0.8000031-0.4000015,1.4000015-0.4000015V38.4000015c-0.5999985,0-1.1999969-0.1999969-1.5999985-0.5999985
		L30.4999981,53.1999969z"/>
</g>
</svg>
