<?xml version="1.0" encoding="utf-8"?>
<!-- Generator: Adobe Illustrator 25.2.3, SVG Export Plug-In . SVG Version: 6.00 Build 0)  -->
<svg version="1.1" id="Layer_1" xmlns="http://www.w3.org/2000/svg" xmlns:xlink="http://www.w3.org/1999/xlink" x="0px" y="0px"
	 viewBox="0 0 100 100" style="enable-background:new 0 0 100 100;" xml:space="preserve">
<style type="text/css">
	.st0{fill:#21CF68;}
	.st1{fill:#FB5138;}
	.st2{fill:#1267FA;}
</style>
<g>
	<path class="st0" d="M71.3166656,31.7333336c1.1500015,0.6666641,2.5833359,0.6666641,3.7333374,0l15.3000031-8.7000008
		l-8.25-4.6999989c0,0,0,0,0.0166626-0.0166664L50.1166649,0l-5.3999977,3.0666668
		C44.4333344,3.2,44.1666679,3.3333335,43.8833313,3.5L9.5499992,23.083334l15.2666664,8.7166672
		c1.166666,0.666666,2.5833321,0.666666,3.75,0l7.6666679-4.3666649l10-5.7000008
		c2.3333321-1.333334,5.2166634-1.333334,7.5666656,0l7.8666687,4.4833336L71.3166656,31.7333336z"/>
	<path class="st1" d="M77.8499985,42.6500015v20.0500031c0,2.6666641-1.4499969,5.1333389-3.7833328,6.4833298
		L56.1666679,79.3833313C55,80.0500031,54.2833366,81.2666702,54.2833366,82.5999985V100l34.6000023-19.7166672
		c0.0499954-0.0333405,0.0999985-0.0500031,0.1333313-0.0833359L95,76.8000031v-4.6999969v-2.2666702V30.7333355
		l-15.2666626,8.6999989C78.5666656,40.1000023,77.8499985,41.3166656,77.8499985,42.6500015z"/>
	<path class="st2" d="M43.2999992,79.1166687l-17.3666668-9.9000015c-2.3500004-1.3333282-3.7833347-3.7999954-3.7833347-6.4833298
		V42.6833344c0-1.3333321-0.7166672-2.5499992-1.8833332-3.2166672L4.9999986,30.7666664v-0.0333347V30.75v39.1166611l0,0v2.2166748
		v4.6999969l5.3499999,3.0666656c0.250001,0.1666641,0.5,0.3166656,0.750001,0.4666672l34.0666695,19.4166641V82.3333359
		C45.1833344,81,44.4666672,79.7833405,43.2999992,79.1166687z"/>
</g>
</svg>
