<?xml version="1.0" encoding="utf-8"?>
<svg version="1.1" xmlns="http://www.w3.org/2000/svg" xmlns:xlink="http://www.w3.org/1999/xlink" x="0px" y="0px" width="26px" height="26px" viewBox="0 0 60 60" xml:space="preserve"><g><path fill="#21CF68" d="M39.79,19.46c0.69,0.4,1.55,0.4,2.24,0l9.18-5.22l-4.95-2.82c0,0,0,0,0.01-0.01L27.07,0.42l-3.24,1.84c-0.17,0.08-0.33,0.16-0.5,0.26L2.73,14.27l9.16,5.23c0.7,0.4,1.55,0.4,2.25,0l4.6-2.62l6-3.42c1.4-0.8,3.13-0.8,4.54,0l4.72,2.69L39.79,19.46z"></path><path fill="#FB5138" d="M43.71,26.01v12.03c0,1.6-0.87,3.08-2.27,3.89L30.7,48.05c-0.7,0.4-1.13,1.13-1.13,1.93v10.44l20.76-11.83c0.03-0.02,0.06-0.03,0.08-0.05L54,46.5v-2.82v-1.36V18.86l-9.16,5.22C44.14,24.48,43.71,25.21,43.71,26.01z"></path><path fill="#1267FA" d="M22.98,47.89l-10.42-5.94c-1.41-0.8-2.27-2.28-2.27-3.89V26.03c0-0.8-0.43-1.53-1.13-1.93L0,18.88l0-0.02v0.01v23.47c0,0,0,0,0,0v1.33v2.82l3.21,1.84c0.15,0.1,0.3,0.19,0.45,0.28l20.44,11.65V49.82C24.11,49.02,23.68,48.29,22.98,47.89z"></path></g></svg>