<?xml version="1.0" encoding="utf-8"?>
<!-- Generator: Adobe Illustrator 25.2.3, SVG Export Plug-In . SVG Version: 6.00 Build 0)  -->
<svg version="1.1" id="Layer_1" xmlns="http://www.w3.org/2000/svg" xmlns:xlink="http://www.w3.org/1999/xlink" x="0px" y="0px"
	 viewBox="0 0 101 101" style="enable-background:new 0 0 101 101;" xml:space="preserve">
<g>
	<path d="M39.3705597,1.7854722c1.1344261-0.6899865,2.3842545-1.3406845,3.7519493-1.2817521
		c1.7875786,0.1694257,3.6316338,1.1982654,4.2528648,2.9661982c1.0754852,2.2025509,0.0122719,5.0803537-2.1362572,6.1902246
		c-8.6309509,4.9551239-17.2619019,9.907793-25.9075947,14.8383636c0.0024586,0.1080418,0.0073662,0.3265762,0.0098248,0.4346142
		c5.804718,3.3909969,11.5431347,6.8973999,17.3306541,10.3203163c0.9502716,0.5622978,1.9962959,1.0926781,2.6126175,2.0527649
		c0.6777115,1.0165634,1.1491547,2.3130455,0.7882004,3.5334129c-0.3707695,1.6721649-1.6721687,3.1675415-3.366436,3.5604172
		c-1.06567,0.1276894-2.2393799,0.2087173-3.2068329-0.348671c-6.3547421-3.7200279-12.6284466-7.5775642-18.9930115-11.2853088
		c-0.0270071,9.649971-0.0073662,19.2999382-0.0098238,28.949913c0.0270138,1.2645607-0.6777029,2.3989868-1.5002851,3.3025894
		c-1.269474,1.2793045-3.2657661,1.6230698-4.9551268,1.0951462c-1.5051961-0.5107422-2.6297984-1.8342361-3.115983-3.3197937
		c-0.3192072-0.9920082-0.0564747-2.0355797-0.1006713-3.0496788c-0.1227727-4.0048599-0.0024576-8.0097275-0.0245557-12.0121307
		c0.0785766-2.3768845-0.1178613-4.7537727,0.01719-7.1306648c-0.1424174-4.0883484,0.0908508-8.1816025-0.0515666-12.2724056
		c-0.0073662-2.0576763,0.0049119-4.1178093,0.01719-6.1754894c-0.0221019-0.3413086,0.1497836-0.6605186,0.4739027-0.790659
		C16.605957,14.8018808,28.0140438,8.3366461,39.3705597,1.7854722z"/>
	<path d="M53.9584694,4.4692917c0.4198837-2.2492034,2.5782356-3.9729376,4.8519897-3.9680276
		c1.7016411,0.0662967,3.1233482,1.1000483,4.5401573,1.9250822c10.9562759,6.4112144,21.9101028,12.8297977,32.8639145,19.2532864
		c0.004921,12.9378376-0.0098114,25.87813,0.0073624,38.8159637c0.213623,2.5684128-1.944725,5.0631638-4.5131454,5.2399597
		c-2.6469803,0.2479935-5.2718735-2.0724144-5.2006683-4.7660561c0.0024567-7.1945038,0-14.3890152,0.0024567-21.5835228
		c-0.0220871-2.1362534,0.0613861-4.2774162-0.0982056-6.4087563c-2.958847,1.6009598-5.7580643,3.4990349-8.6530685,5.2178574
		c-3.1012421,1.8686066-6.1656647,3.7986031-9.2595367,5.6794891c-1.4929276,0.8152122-3.4327469,0.7415466-4.817627-0.2676468
		c-1.3824196-0.8987007-2.1239738-2.6150703-1.9692802-4.2381325c0.1301384-1.3701477,0.933075-2.6077003,2.0650444-3.373806
		c4.4075623-2.7280197,8.8323059-5.4363956,13.2496796-8.1545925c1.6697083-1.07304,3.4302902-2.0134773,5.0386124-3.1822815
		c-8.520462-4.9502144-17.0139008-9.9519911-25.5171738-14.9316702C54.7122917,8.7442541,53.4796524,6.5515251,53.9584694,4.4692917
		z"/>
	<path d="M48.8830223,41.5418777c2.2295647-0.5868607,4.7022133-0.1866188,6.5904617,1.1540642
		c3.2240257,2.0969658,4.3191605,6.7132339,2.536499,10.0870438c-1.1123238,2.1215172-3.1896515,3.7519493-5.5616302,4.1791992
		c-1.7040825,0.1767921-3.5211334,0.1620598-5.0557976-0.7022591c-2.8999023-1.3382339-4.6457329-4.6432838-4.2749634-7.7936478
		C43.2673798,45.225071,45.7891388,42.3595428,48.8830223,41.5418777z"/>
	<path d="M47.5988121,64.029007c1.1663475-1.357872,3.1798286-1.8170433,4.8544579-1.242466
		c1.7703857,0.6433296,3.1012497,2.4259987,3.0914268,4.3289833c0.0147324,6.4505005-0.017189,12.9010086,0.0147324,19.3515015
		c8.7218056-5.2546844,17.3871346-10.600235,26.0991096-15.8696594c0.810318-0.4812622,1.76548-0.6285934,2.6961136-0.5917664
		c2.0944977,0.004921,3.9680176,1.6623535,4.4713898,3.6512756c0.3437653,1.5395813-0.0073624,3.2805023-1.151619,4.4100189
		c-0.8274841,0.9330673-1.9717255,1.4659119-3.0177536,2.1018753C73.9754028,86.6978455,63.2720375,93.1900864,52.585865,99.7142563
		c-0.520565,0.2921982-1.0067406,0.7022552-1.615696,0.7857437c-0.7317314-0.1080399-1.3087616-0.6212311-1.9373589-0.967453
		c-10.7451096-6.4701385-21.5172253-12.8887253-32.2574234-19.3637772c-0.9576292-0.567215-1.9717369-1.0804062-2.7574806-1.8808899
		c-0.9379883-1.0951309-1.500288-2.5782318-1.2473755-4.0269547c0.2480001-1.2252808,0.8594122-2.4358215,1.9054375-3.1651001
		c1.2989426-1.0042801,3.1208916-1.2129974,4.6432819-0.6384201c0.8004837,0.3216705,1.5346642,0.7857513,2.2565708,1.2547455
		c6.7181435,3.9876709,13.3994656,8.0367355,20.1053333,12.0489578c1.5616722,0.8962479,3.0595055,1.917717,4.6751976,2.7181931
		c0.0098228-6.4505005,0.0049171-12.90345,0.0024567-19.3539505C46.319519,65.9737396,46.8891869,64.8982391,47.5988121,64.029007z"
		/>
</g>
</svg>
