<?xml version="1.0" encoding="UTF-8" ?>
<!DOCTYPE svg PUBLIC "-//W3C//DTD SVG 1.1//EN" "http://www.w3.org/Graphics/SVG/1.1/DTD/svg11.dtd">
<svg width="100" height="100" viewBox="0 0 833 833" version="1.1" xmlns="http://www.w3.org/2000/svg">
<path fill="none" d=" M 0.00 0.00 L 833.00 0.00 L 833.00 833.00 L 0.00 833.00 L 0.00 0.00 Z" />
<path fill="#515254" d=" M 360.82 95.91 C 365.44 93.10 370.53 90.45 376.10 90.69 C 383.38 91.38 390.89 95.57 393.42 102.77 C 397.80 111.74 393.47 123.46 384.72 127.98 C 349.57 148.16 314.42 168.33 279.21 188.41 C 279.22 188.85 279.24 189.74 279.25 190.18 C 302.89 203.99 326.26 218.27 349.83 232.21 C 353.70 234.50 357.96 236.66 360.47 240.57 C 363.23 244.71 365.15 249.99 363.68 254.96 C 362.17 261.77 356.87 267.86 349.97 269.46 C 345.63 269.98 340.85 270.31 336.91 268.04 C 311.03 252.89 285.48 237.18 259.56 222.08 C 259.45 261.38 259.53 300.68 259.52 339.98 C 259.63 345.13 256.76 349.75 253.41 353.43 C 248.24 358.64 240.11 360.04 233.23 357.89 C 227.10 355.81 222.52 350.42 220.54 344.37 C 219.24 340.33 220.31 336.08 220.13 331.95 C 219.63 315.64 220.12 299.33 220.03 283.03 C 220.35 273.35 219.55 263.67 220.10 253.99 C 219.52 237.34 220.47 220.67 219.89 204.01 C 219.86 195.63 219.91 187.24 219.96 178.86 C 219.87 177.47 220.57 176.17 221.89 175.64 C 268.11 148.92 314.57 122.59 360.82 95.91 Z" />
<path fill="#515254" d=" M 420.23 106.84 C 421.94 97.68 430.73 90.66 439.99 90.68 C 446.92 90.95 452.71 95.16 458.48 98.52 C 503.10 124.63 547.71 150.77 592.32 176.93 C 592.34 229.62 592.28 282.32 592.35 335.01 C 593.22 345.47 584.43 355.63 573.97 356.35 C 563.19 357.36 552.50 347.91 552.79 336.94 C 552.80 307.64 552.79 278.34 552.80 249.04 C 552.71 240.34 553.05 231.62 552.40 222.94 C 540.35 229.46 528.95 237.19 517.16 244.19 C 504.53 251.80 492.05 259.66 479.45 267.32 C 473.37 270.64 465.47 270.34 459.83 266.23 C 454.20 262.57 451.18 255.58 451.81 248.97 C 452.34 243.39 455.61 238.35 460.22 235.23 C 478.17 224.12 496.19 213.09 514.18 202.02 C 520.98 197.65 528.15 193.82 534.70 189.06 C 500.00 168.90 465.41 148.53 430.78 128.25 C 423.30 124.25 418.28 115.32 420.23 106.84 Z" />
<path fill="#df2d25" d=" M 399.56 257.82 C 408.64 255.43 418.71 257.06 426.40 262.52 C 439.53 271.06 443.99 289.86 436.73 303.60 C 432.20 312.24 423.74 318.88 414.08 320.62 C 407.14 321.34 399.74 321.28 393.49 317.76 C 381.68 312.31 374.57 298.85 376.08 286.02 C 376.69 272.82 386.96 261.15 399.56 257.82 Z" />
<path fill="#515254" d=" M 394.33 349.40 C 399.08 343.87 407.28 342.00 414.10 344.34 C 421.31 346.96 426.73 354.22 426.69 361.97 C 426.75 388.24 426.62 414.51 426.75 440.78 C 462.27 419.38 497.56 397.61 533.04 376.15 C 536.34 374.19 540.23 373.59 544.02 373.74 C 552.55 373.76 560.18 380.51 562.23 388.61 C 563.63 394.88 562.20 401.97 557.54 406.57 C 554.17 410.37 549.51 412.54 545.25 415.13 C 501.75 441.72 458.16 468.16 414.64 494.73 C 412.52 495.92 410.54 497.59 408.06 497.93 C 405.08 497.49 402.73 495.40 400.17 493.99 C 356.41 467.64 312.54 441.50 268.80 415.13 C 264.90 412.82 260.77 410.73 257.57 407.47 C 253.75 403.01 251.46 396.97 252.49 391.07 C 253.50 386.08 255.99 381.15 260.25 378.18 C 265.54 374.09 272.96 373.24 279.16 375.58 C 282.42 376.89 285.41 378.78 288.35 380.69 C 315.71 396.93 342.92 413.42 370.23 429.76 C 376.59 433.41 382.69 437.57 389.27 440.83 C 389.31 414.56 389.29 388.28 389.28 362.01 C 389.12 357.32 391.44 352.94 394.33 349.40 Z" />
<path fill="#515254" d=" M 130.47 584.24 C 134.00 578.32 137.58 572.43 141.10 566.50 C 150.57 566.48 160.03 566.49 169.50 566.50 C 169.53 593.69 169.48 620.88 169.52 648.06 C 169.60 660.22 179.91 671.32 192.05 672.17 C 197.44 672.36 202.84 672.17 208.24 672.24 C 208.27 680.49 208.25 688.74 208.25 697.00 C 198.85 696.65 189.20 698.26 180.09 695.23 C 163.60 690.52 150.18 676.63 146.11 659.97 C 144.27 653.47 144.81 646.69 144.75 640.03 C 144.75 621.44 144.75 602.85 144.75 584.25 C 139.99 584.24 135.23 584.25 130.47 584.24 Z" />
<path fill="#515254" d=" M 500.00 573.75 C 508.25 573.75 516.51 573.74 524.76 573.76 C 524.76 597.53 524.76 621.30 524.77 645.06 C 524.65 662.66 514.81 679.78 499.77 688.88 C 489.78 695.11 477.67 697.78 465.98 696.44 C 448.72 694.65 432.74 683.59 425.00 668.05 C 419.79 658.30 418.18 646.86 419.77 635.97 C 422.12 620.19 431.99 605.67 446.00 597.95 C 462.42 588.39 483.97 589.03 500.00 599.16 C 500.00 590.69 500.00 582.22 500.00 573.75 Z" />
<path fill="#515254" d=" M 59.36 597.33 C 73.83 589.23 92.20 588.71 107.18 595.79 C 122.29 602.70 133.81 617.11 136.83 633.50 C 128.19 633.51 119.55 633.51 110.91 633.50 C 108.36 627.70 104.08 622.64 98.53 619.51 C 90.53 614.90 80.17 614.72 71.99 618.99 C 65.28 622.39 60.07 628.61 57.85 635.80 C 54.87 645.55 57.65 656.82 65.03 663.92 C 72.86 671.79 85.51 674.27 95.70 669.82 C 102.62 666.92 108.03 661.10 110.93 654.24 C 119.57 654.24 128.22 654.23 136.86 654.25 C 134.02 668.95 124.70 682.27 111.71 689.77 C 97.09 698.49 78.16 699.49 62.74 692.27 C 52.46 687.60 43.69 679.62 38.34 669.64 C 30.17 655.12 29.54 636.68 36.62 621.61 C 41.34 611.36 49.39 602.66 59.36 597.33 Z" />
<path fill="#515254" d=" M 243.44 591.67 C 254.47 589.62 266.23 590.72 276.33 595.78 C 291.83 603.07 303.57 617.97 306.69 634.85 C 308.76 645.90 306.90 657.60 301.57 667.50 C 293.86 682.38 279.07 693.47 262.50 696.26 C 250.67 698.03 238.15 696.18 227.71 690.19 C 213.97 682.67 204.37 668.45 202.01 653.02 C 199.66 638.91 202.87 623.87 211.17 612.17 C 218.72 601.51 230.61 594.05 243.44 591.67 Z" />
<path fill="#515254" d=" M 314.76 590.75 C 322.98 590.73 331.21 590.78 339.44 590.72 C 339.59 610.48 339.47 630.24 339.50 650.00 C 339.54 661.18 349.70 671.54 360.92 671.53 C 371.80 670.83 381.44 660.91 381.48 649.94 C 381.57 630.20 381.36 610.45 381.58 590.70 C 389.80 590.81 398.02 590.72 406.25 590.76 C 406.25 626.00 406.25 661.25 406.25 696.50 C 397.99 696.51 389.74 696.51 381.49 696.50 C 381.50 695.66 381.52 693.97 381.54 693.12 C 374.24 696.56 365.98 696.52 358.08 696.41 C 334.25 695.34 313.28 673.01 314.74 648.99 C 314.77 629.58 314.73 610.17 314.76 590.75 Z" />
<path fill="#df2d25" d=" M 604.07 596.17 C 618.96 588.78 637.45 589.08 652.08 597.01 C 666.08 604.21 676.34 618.05 679.33 633.50 C 670.67 633.50 662.01 633.56 653.36 633.47 C 649.82 625.19 642.38 618.59 633.55 616.59 C 626.78 615.18 619.45 616.01 613.44 619.56 C 603.76 624.82 597.82 636.17 599.31 647.14 C 600.57 660.08 611.92 671.06 624.89 671.92 C 636.99 673.18 648.93 665.45 653.37 654.25 C 662.03 654.21 670.68 654.24 679.34 654.23 C 676.52 668.53 667.74 681.62 655.19 689.14 C 641.01 698.07 622.49 699.58 607.05 693.10 C 595.86 688.55 586.33 680.04 580.63 669.38 C 572.05 653.90 572.05 634.05 580.60 618.56 C 585.82 608.88 594.14 600.91 604.07 596.17 Z" />
<path fill="#df2d25" d=" M 715.08 597.18 C 729.64 589.18 748.09 588.70 763.02 595.98 C 780.96 604.21 793.10 623.36 793.13 643.06 C 793.38 660.97 793.26 678.89 793.19 696.81 C 784.87 696.72 776.55 696.80 768.24 696.76 C 768.22 694.11 768.22 691.46 768.23 688.82 C 758.65 694.73 747.21 697.58 735.99 696.61 C 718.54 695.31 701.99 684.78 693.69 669.33 C 687.11 657.45 685.47 643.00 689.06 629.92 C 692.78 616.06 702.39 603.91 715.08 597.18 Z" />
<path fill="#fefefe" d=" M 246.49 616.59 C 262.70 611.62 280.14 624.98 282.40 641.10 C 283.90 654.55 273.48 667.00 261.11 671.01 C 247.61 675.13 232.01 666.73 227.83 653.30 C 222.24 638.70 231.23 620.48 246.49 616.59 Z" />
<path fill="#fefefe" d=" M 466.42 616.61 C 481.20 613.15 497.11 624.20 499.44 639.10 C 502.07 652.13 493.81 666.05 481.26 670.25 C 472.32 673.46 461.79 671.72 454.45 665.66 C 446.90 659.62 442.83 649.44 444.39 639.87 C 446.01 628.58 455.15 618.71 466.42 616.61 Z" />
<path fill="#fefefe" d=" M 732.51 616.82 C 746.22 612.52 762.04 620.82 766.58 634.36 C 771.15 646.22 766.15 660.67 755.37 667.33 C 745.99 673.64 732.65 673.30 723.71 666.34 C 713.80 659.28 709.57 645.35 714.07 634.02 C 717.10 625.83 724.17 619.31 732.51 616.82 Z" />
<path fill="#df2d25" d=" M 544.31 661.24 C 552.42 658.91 561.66 662.86 565.49 670.40 C 569.22 677.36 567.74 686.59 562.02 692.05 C 555.93 698.21 545.39 698.92 538.46 693.76 C 531.27 688.81 528.81 678.37 532.86 670.68 C 535.07 666.06 539.38 662.57 544.31 661.24 Z" />
</svg>
