<?xml version="1.0" encoding="utf-8"?>
<!-- Generator: Adobe Illustrator 25.2.0, SVG Export Plug-In . SVG Version: 6.00 Build 0)  -->
<svg version="1.1" id="Layer_1" xmlns="http://www.w3.org/2000/svg" xmlns:xlink="http://www.w3.org/1999/xlink" x="0px" y="0px"
	 viewBox="0 0 100 100" style="enable-background:new 0 0 100 100;" xml:space="preserve">
<style type="text/css">
	.st0{opacity:7.000000e-02;enable-background:new    ;}
	.st1{fill:#4285F4;}
	.st2{fill:#FFFFFF;}
</style>
<g>
	<path d="M96.7,44.2L76.8,9.7c-1.5-2.7-4.4-4.4-7.5-4.4H29.6c-3.1,0.1-5.9,1.7-7.5,4.4L2.2,44.2c-1.5,2.7-1.5,6,0,8.7l19.9,34.8
		c1.5,2.7,4.3,4.5,7.5,4.6h39.8c3.1-0.1,6-1.8,7.5-4.6l19.9-34.6C98.2,50.3,98.2,47,96.7,44.2z"/>
	<path class="st0" d="M61.7,30.5l-0.4,1.7l-3.1-3.1l-18.9,2.8L26.8,47.2l4.5,4.6l-4-1.1l9.8,17.6l25.9,23.8h6.3
		c3.1-0.1,6-1.8,7.5-4.6L92.1,61L61.7,30.5z"/>
	<polygon points="72.1,48.7 61.7,30.5 51.2,48.7 61.7,67 	"/>
	<polygon points="26.8,50.2 37.2,68.4 58.1,68.4 47.7,50.2 	"/>
	<polygon points="47.6,47.2 58.2,29.1 37.2,29.1 26.8,47.2 	"/>
	<path class="st1" d="M98.8,45.4L78.3,9.7c-1.6-2.8-4.5-4.5-7.7-4.6H29.4c-3.2,0-6.1,1.8-7.7,4.6L1.2,45.3c-1.6,2.8-1.6,6.2,0,8.9
		l20.5,35.9c1.6,2.8,4.5,4.6,7.7,4.8h41.1c3.2-0.1,6.2-1.9,7.7-4.8l20.6-35.7C100.4,51.6,100.4,48.2,98.8,45.4z"/>
	<path class="st0" d="M70,37.8l-20-8.9L30.8,39.3L30,62.2l32.7,32.7h7.8c3.2-0.1,6.2-1.9,7.7-4.8l16.1-28L70,37.8z"/>
	<g id="art">
		<path class="st2" d="M69.5,37.5L51,26.8c-0.7-0.4-1.5-0.4-2.1,0L30.4,37.5c-0.7,0.4-1.1,1.1-1.1,1.9v21.4c0,0.7,0.4,1.4,1.1,1.8
			l18.5,10.7c0.7,0.4,1.5,0.4,2.1,0l18.5-10.7c0.7-0.4,1.1-1.1,1.1-1.9V39.3C70.6,38.6,70.1,37.8,69.5,37.5z M67,58.6l-6.4-3.7v-9.8
			L51,50.5v11l8.5-4.9l6.4,3.7l-16,9.3l-16-9.3l6.4-3.7l8.5,4.9v-11l-9.5-5.4v9.8l-6.4,3.7V40.2l16-9.3v7.5l-8.5,4.9l9.5,5.4
			l9.5-5.4L51,38.4v-7.5l16,9.3L67,58.6z"/>
	</g>
</g>
</svg>
