<?xml version="1.0" encoding="utf-8"?>
<!-- Generator: Adobe Illustrator 25.2.0, SVG Export Plug-In . SVG Version: 6.00 Build 0)  -->
<svg version="1.1" id="Layer_1" xmlns="http://www.w3.org/2000/svg" xmlns:xlink="http://www.w3.org/1999/xlink" x="0px" y="0px"
	 viewBox="0 0 100 100" style="enable-background:new 0 0 100 100;" xml:space="preserve">
<path d="M98.8,45.4L78.3,9.7c-1.6-2.8-4.5-4.5-7.7-4.6H29.4c-3.2,0-6.1,1.8-7.7,4.6L1.2,45.3c-1.6,2.8-1.6,6.2,0,8.9l20.5,35.9
	c1.6,2.8,4.5,4.6,7.7,4.8h41.1c3.2-0.1,6.2-1.9,7.7-4.8l20.6-35.7C100.4,51.6,100.4,48.2,98.8,45.4z M70.6,60.7
	c0,0.8-0.4,1.5-1.1,1.9L51,73.3c-0.6,0.4-1.4,0.4-2.1,0L30.4,62.6c-0.7-0.4-1.1-1.1-1.1-1.8V39.4c0-0.8,0.4-1.5,1.1-1.9l18.5-10.7
	c0.6-0.4,1.4-0.4,2.1,0l18.5,10.7c0.6,0.3,1.1,1.1,1.1,1.8V60.7z M51,30.9l16,9.3v18.4l-6.4-3.7v-9.8L51,50.5v11l8.5-4.9l6.4,3.7
	l-16,9.3l-16-9.3l6.4-3.7l8.5,4.9v-11l-9.5-5.4v9.8l-6.4,3.7V40.2l16-9.3v7.5l-8.5,4.9l9.5,5.4l9.5-5.4L51,38.4V30.9z"/>
</svg>
