<?xml version="1.0" encoding="utf-8"?>
<!-- Generator: Adobe Illustrator 25.2.0, SVG Export Plug-In . SVG Version: 6.00 Build 0)  -->
<svg version="1.1" id="Layer_1" xmlns="http://www.w3.org/2000/svg" xmlns:xlink="http://www.w3.org/1999/xlink" x="0px" y="0px"
	 viewBox="0 0 100 100" style="enable-background:new 0 0 100 100;" xml:space="preserve">
<path d="M89.4,9.1H10.6C4.7,9.1,0,13.8,0,19.6v60.7c0,5.8,4.7,10.6,10.6,10.6h78.8c5.8,0,10.6-4.7,10.6-10.6V19.6
	C100,13.8,95.3,9.1,89.4,9.1z M42.3,68.6L23,79.8c-3.4,2-7.7-0.5-7.7-4.4c0-1.8,1-3.5,2.6-4.5l19.2-11.2c3.4-2,7.7,0.5,7.7,4.4
	C44.8,66,43.8,67.7,42.3,68.6z M49.8,51.6L49.8,51.6c-2.9,0-5.2-2.3-5.1-5.2l0.1-22.2c0-2.8,2.3-5.1,5.1-5.1l0,0
	c2.8,0,5.1,2.3,5.1,5.2l0,22.1C55,49.3,52.7,51.6,49.8,51.6z M83.9,77.9c-1.4,2.5-4.6,3.3-7,1.9L57.6,68.7c-3.4-2-3.4-6.9,0-8.9
	c1.6-0.9,3.6-0.9,5.2,0L82,70.9C84.4,72.3,85.3,75.4,83.9,77.9z"/>
</svg>
