<?xml version="1.0" encoding="utf-8"?>
<svg viewBox="0 20 100 80" width="100" height="100" xmlns="http://www.w3.org/2000/svg">
  <defs>
    <style>.cls-1{fill:#384745;}.cls-2{fill:#ffc61c;}</style>
  </defs>
  <path class="cls-2" d="M 82.227 25.849 L 16.651 25.849 C 11.794 25.863 7.86 29.797 7.846 34.653 L 7.846 85.17 C 7.86 90.027 11.794 93.961 16.651 93.975 L 82.227 93.975 C 87.084 93.961 91.017 90.027 91.031 85.17 L 91.031 34.653 C 91.017 29.797 87.084 25.863 82.227 25.849 Z M 42.996 75.389 L 26.993 84.689 C 24.142 86.346 20.568 84.295 20.559 80.999 C 20.554 79.469 21.366 78.053 22.689 77.284 L 38.693 67.984 C 41.542 66.325 45.117 68.372 45.13 71.669 C 45.135 73.202 44.322 74.62 42.996 75.389 Z M 49.292 61.219 L 49.273 61.219 C 46.907 61.209 44.999 59.284 45.009 56.919 L 45.089 38.482 C 45.1 36.125 47.014 34.218 49.371 34.218 L 49.391 34.218 C 51.756 34.229 53.664 36.154 53.654 38.519 L 53.574 56.955 C 53.563 59.313 51.649 61.219 49.292 61.219 Z M 77.608 83.126 C 76.426 85.175 73.807 85.877 71.759 84.693 L 55.731 75.44 C 52.875 73.794 52.871 69.674 55.725 68.023 C 57.052 67.255 58.687 67.255 60.014 68.023 L 76.041 77.276 C 78.089 78.459 78.791 81.078 77.608 83.126 Z" style=""/>
</svg>