<?xml version="1.0" encoding="utf-8"?>
<!-- Generator: Adobe Illustrator 25.2.0, SVG Export Plug-In . SVG Version: 6.00 Build 0)  -->
<svg version="1.1" id="Layer_1" xmlns="http://www.w3.org/2000/svg" xmlns:xlink="http://www.w3.org/1999/xlink" x="0px" y="0px"
	 viewBox="0 0 100 100" style="enable-background:new 0 0 100 100;" xml:space="preserve">
<style type="text/css">
	.st0{fill-rule:evenodd;clip-rule:evenodd;fill:#326DE6;}
	.st1{fill-rule:evenodd;clip-rule:evenodd;fill:#1FBFCF;}
	.st2{fill-rule:evenodd;clip-rule:evenodd;fill:#C9E9EC;}
</style>
<g>
	<path id="Fill-1" class="st0" d="M50.1,1.3L50.1,1.3c-1.4,0-2.7,0.3-4,0.9L13.4,17.9c-2.6,1.2-4.4,3.5-5,6.3l-8.2,35
		c-0.6,2.8,0,5.6,1.8,7.9l22.6,28.1c1.7,2.2,4.4,3.4,7.2,3.4h36.3c2.8,0,5.4-1.2,7.2-3.4l22.6-28.1c1.8-2.2,2.5-5.1,1.8-7.9
		l-8.1-35.1c-0.6-2.8-2.5-5-5-6.3L54,2.2C52.8,1.6,51.5,1.3,50.1,1.3 M50.1,4.4c0.9,0,1.8,0.2,2.7,0.6l32.7,15.6
		c1.7,0.8,3,2.4,3.4,4.2L97,60c0.5,1.9,0,3.8-1.2,5.3L73.1,93.4c-1.2,1.5-3,2.3-4.8,2.3H31.9c-1.9,0-3.7-0.8-4.8-2.3L4.4,65.2
		c-1.2-1.5-1.6-3.4-1.2-5.3l8.1-35.1c0.5-1.9,1.7-3.4,3.4-4.2L47.4,4.9C48.2,4.5,49.2,4.4,50.1,4.4"/>
	<path id="kube-bottom" class="st1" d="M31.2,87.5c1.2,1.5,2.9,2.3,4.7,2.3l28.5-0.1c1.8,0,3.5-0.9,4.7-2.3l17.4-21.8
		c0.5-0.7,0.4-2,0.4-3.1V31.8L49.6,53.4l0,0L12.3,31.8v30.5c0,1.1,0.4,2.3,1.1,3.2L31.2,87.5z"/>
	<polygon id="kube-top" class="st2" points="49.6,53.4 86.8,31.8 49.5,10.4 12.3,31.8 	"/>
	<path id="wheel" class="st0" d="M58.5,70c-1.1,0.7-2.5,0.5-3.4-0.6c-0.3-0.3-0.4-0.7-0.5-1.1l-0.9-15.8c6.7,0.8,12.8,3.8,17.5,8.5
		L58.5,70z M45.2,67.9c-0.1,1.4-1.2,2.5-2.6,2.5c-0.4,0-0.9-0.1-1.2-0.3l-12.9-9.2c4-4,8.9-6.7,14.5-8c1.1-0.2,2-0.4,3.1-0.6
		L45.2,67.9z M81.6,61.4l1-0.9v-0.2c0-0.5,0.1-1,0.5-1.5c1.2-1.1,2.6-1.9,4.4-3c0.3-0.2,0.6-0.3,0.9-0.5c0.6-0.3,1.1-0.6,1.7-1
		c0.1-0.1,0.3-0.2,0.5-0.4c0.1-0.1,0.2-0.1,0.2-0.2c1.4-1.2,1.7-3.1,0.7-4.4c-0.5-0.7-1.4-1.1-2.2-1.1c-0.8,0-1.5,0.3-2.1,0.8
		L87,49.1c-0.2,0.1-0.3,0.3-0.5,0.4C86,50,85.6,50.5,85.2,51c-0.2,0.2-0.4,0.5-0.7,0.7c-1.4,1.5-2.6,2.6-3.9,3.5
		c-0.3,0.2-0.6,0.3-0.9,0.3c-0.2,0-0.4,0-0.6-0.1h-0.2l-1.2,0.8c-1.3-1.4-2.6-2.5-4-3.7c-5.8-4.6-12.9-7.4-20.3-8.1L53.3,43L53,42.9
		c-0.3-0.3-0.7-0.6-0.8-1.3c-0.1-1.6,0.1-3.3,0.3-5.2v-0.1c0-0.3,0.1-0.7,0.2-1c0.1-0.6,0.2-1.2,0.3-1.8v-0.6v-0.3
		c0-1.7-1.4-3.2-3-3.2c-0.8,0-1.6,0.4-2.1,1C47.3,31,47,31.8,47,32.6v0.2v0.6c0,0.7,0.1,1.3,0.3,1.8c0.1,0.3,0.1,0.6,0.2,1v0.1
		c0.2,1.9,0.5,3.7,0.3,5.2c-0.1,0.7-0.5,1-0.8,1.3c-0.1,0.1-0.1,0.1-0.2,0.2l-0.1,1.3c-1.7,0.2-3.5,0.4-5.2,0.8
		c-7.5,1.6-14.1,5.4-19.3,10.9l-1-0.7H21c-0.2,0-0.4,0.1-0.6,0.1c-0.3,0-0.6-0.1-0.9-0.3c-1.3-0.9-2.5-2.1-3.9-3.6
		c-0.2-0.2-0.4-0.5-0.7-0.7c-0.4-0.5-0.8-0.9-1.3-1.4c-0.1-0.1-0.3-0.2-0.5-0.4c-0.1-0.1-0.2-0.1-0.2-0.2c-0.6-0.5-1.4-0.8-2.1-0.8
		c-0.9,0-1.7,0.4-2.2,1.1c-1,1.3-0.7,3.2,0.7,4.4c0.1,0,0.1,0.1,0.2,0.1c0.2,0.1,0.3,0.3,0.5,0.4c0.6,0.4,1.1,0.7,1.7,1
		c0.3,0.1,0.6,0.3,0.9,0.5c1.7,1.1,3.2,1.9,4.4,3c0.5,0.5,0.5,1,0.5,1.5v0.2l1,0.9c-0.2,0.3-0.4,0.5-0.5,0.8
		c-1.1,1.8-2.1,3.7-2.9,5.6l5.5,6.8c0.7-2.6,1.8-5.2,3.3-7.6l11.5,10.3c1.1,0.9,1.2,2.5,0.3,3.6c-0.3,0.4-0.7,0.7-1.2,0.8l-6.7,1.9
		l3.3,4.1c1.2,1.5,2.9,2.3,4.7,2.3l28.5-0.1c1.8,0,3.5-0.9,4.7-2.3l3.1-3.9l-6.8-2c-1.4-0.4-2.1-1.7-1.8-3.1
		c0.1-0.4,0.3-0.8,0.6-1.1l11.8-10.6c1.4,2.4,2.6,5,3.4,7.9l5.7-7.1C83.9,65.4,82.9,63.4,81.6,61.4L81.6,61.4z"/>
</g>
</svg>
