<?xml version="1.0" encoding="utf-8"?>
<!-- Generator: Adobe Illustrator 25.2.0, SVG Export Plug-In . SVG Version: 6.00 Build 0)  -->
<svg version="1.1" id="Layer_1" xmlns="http://www.w3.org/2000/svg" xmlns:xlink="http://www.w3.org/1999/xlink" x="0px" y="0px"
	 viewBox="0 0 100 100" style="enable-background:new 0 0 100 100;" xml:space="preserve">
<path d="M53.5,38.8v13.6h-2.6V38.8h-8.1l9.6-9.6l9.6,9.6H53.5z M86.5,32.4C83,19.3,70.9,9.8,57.1,9.8c-8.8,0-17,3.7-22.6,10
	c-1.3-0.3-2.6-0.4-4-0.4c-8.5,0-15.8,5.6-18.2,13.6C4.9,36.2,0,43.6,0,52c0,5.6,2.2,10.9,6.2,14.9c0.4,0.4,0.7,0.7,1.1,1v-2.1
	c0-1.7,0.4-3.3,1.2-4.8c-1.8-2.5-2.9-5.6-2.9-9c0-7.2,4.8-13.2,11.5-14.8c0.7-6.9,6.5-12.2,13.4-12.2c2.2,0,4.3,0.5,6,1.4
	c4.3-6.7,12-11,20.6-11c12.5,0,23,9.3,24.7,21.5c7.2,1.2,12.7,7.4,12.7,15.1c0,3.3-1,6.3-2.8,8.8c0.8,1.5,1.2,3.2,1.2,5v2
	c4.4-3.9,7.1-9.5,7.1-15.8C100,43.1,94.5,35.4,86.5,32.4z M82.1,63.3h-64c-1.2,0-2.4,1.2-2.4,2.4v16.5c0,1.4,1.2,2.4,2.4,2.4h64
	c1.4,0,2.4-1,2.4-2.4V65.7C84.5,64.5,83.5,63.3,82.1,63.3 M82.1,57.8c4.4,0,8,3.6,8,8v16.5c0,4.5-3.4,8-8,8h-64c-4.4,0-8-3.6-8-8
	V65.7c0-4.3,3.7-8,8-8H82.1L82.1,57.8z M24.9,78.5h2.9v-2.9h-2.9V78.5z M32.1,78.5H35v-2.9h-2.9V78.5z M39.5,78.5h2.9v-2.9h-2.9
	V78.5z M46.7,78.5h2.9v-2.9h-2.9V78.5z M24.9,72.3h2.9v-2.9h-2.9V72.3z M32.1,72.3H35v-2.9h-2.9V72.3z M39.5,72.3h2.9v-2.9h-2.9
	V72.3z M46.7,72.3h2.9v-2.9h-2.9V72.3z M69.3,73.8c0,2.2,1.8,4.1,4.1,4.1c2.2,0,4.1-1.8,4.1-4.1c0-2.2-1.8-4.1-4.1-4.1
	C71.1,69.7,69.3,71.5,69.3,73.8z"/>
</svg>
