<?xml version="1.0" encoding="utf-8"?>
<!-- Generator: Adobe Illustrator 25.2.0, SVG Export Plug-In . SVG Version: 6.00 Build 0)  -->
<svg version="1.1" id="Layer_1" xmlns="http://www.w3.org/2000/svg" xmlns:xlink="http://www.w3.org/1999/xlink" x="0px" y="0px"
	 viewBox="0 0 100 100" style="enable-background:new 0 0 100 100;" xml:space="preserve">
<style type="text/css">
	.st0{fill:#E34D59;}
	.st1{fill:#FFFFFF;}
</style>
<g>
	<circle class="st0" cx="50" cy="50" r="50"/>
	<path class="st1" d="M56.2,18.4c-3.4,0-6.6,1-9.2,2.8c-1.8,1.4-3.2,3.2-4.4,5.2c-0.8-3.2-1.8-7.6-1.8-7.6H30c-0.6,0-1,0.4-1,1l0,0
		v3.8l0,0c0,0.6,0.4,1,1,1h6.4c0.6,1.8,1.4,5,2.2,8.4c-1.2,2.2-2.4,4-3.4,5.8C29.6,49.6,27,57,27,65.2c0,9.8,4.2,16,10.6,16
		c7.4,0,11.8-6.6,11.8-18c0-0.4,0-1,0-1.4c2,1,4.2,1.6,6.4,1.6c7.8,0.2,14.6-5.2,16.2-12.8c0.6-3.2,0.8-6.4,0.8-9.6
		c0-3.6-0.4-7-1.2-10.4C69.4,23,63.8,18.4,56.2,18.4z M37.6,75.8c-3.2,0-4.8-5.2-4.8-10.4c0-6.6,2-13.8,7.6-24.8
		c1.8,7.4,2.8,15.2,3,22.8C43.6,67.2,43,75.8,37.6,75.8z M66.4,49.6c-1.2,5-5.6,8.4-10.8,8.2c-2.2-0.2-4.4-0.6-6.6-1.4
		c-1-7.8-2.6-15.4-4.4-22.8c1-2,2.2-3.8,3.6-5.6c1.8-2.6,4.8-4,7.8-4c6.2,0,8.8,4.6,9.8,8.2c0.8,2.8,1.2,5.8,1,8.8
		C67.2,44,66.8,46.8,66.4,49.6z"/>
</g>
</svg>
