<?xml version="1.0" encoding="utf-8"?>
<!-- Generator: Adobe Illustrator 25.2.0, SVG Export Plug-In . SVG Version: 6.00 Build 0)  -->
<svg version="1.1" id="Layer_1" xmlns="http://www.w3.org/2000/svg" xmlns:xlink="http://www.w3.org/1999/xlink" x="0px" y="0px"
	 viewBox="0 0 100 100" style="enable-background:new 0 0 100 100;" xml:space="preserve">
<g>
	<path d="M40.4,40.6c-5.6,11-7.6,18.2-7.6,24.8c0,5.2,1.6,10.4,4.8,10.4c5.4,0,6-8.6,5.8-12.4C43.2,55.8,42.2,48,40.4,40.6z"/>
	<path d="M65.8,32.2c-1-3.6-3.6-8.2-9.8-8.2c-3,0-6,1.4-7.8,4c-1.4,1.8-2.6,3.6-3.6,5.6c1.8,7.4,3.4,15,4.4,22.8
		c2.2,0.8,4.4,1.2,6.6,1.4c5.2,0.2,9.6-3.2,10.8-8.2c0.4-2.8,0.8-5.6,0.4-8.6C67,38,66.6,35,65.8,32.2z"/>
	<path d="M50,0C22.4,0,0,22.4,0,50s22.4,50,50,50s50-22.4,50-50S77.6,0,50,0z M72,50.6c-1.6,7.6-8.4,13-16.2,12.8
		c-2.2,0-4.4-0.6-6.4-1.6c0,0.4,0,1,0,1.4c0,11.4-4.4,18-11.8,18c-6.4,0-10.6-6.2-10.6-16c0-8.2,2.6-15.6,8.2-26.4
		c1-1.8,2.2-3.6,3.4-5.8c-0.8-3.4-1.6-6.6-2.2-8.4H30c-0.6,0-1-0.4-1-1v-3.8c0-0.6,0.4-1,1-1h10.8c0,0,1,4.4,1.8,7.6
		c1.2-2,2.6-3.8,4.4-5.2c2.6-1.8,5.8-2.8,9.2-2.8c7.6,0,13.2,4.6,15.4,12.2c0.8,3.4,1.2,6.8,1.2,10.4C72.8,44.2,72.6,47.4,72,50.6z"
		/>
</g>
</svg>
