<svg xmlns="http://www.w3.org/2000/svg" width="100" height="100" viewBox="0 0 100 100">
  <path fill="#343131" fill-rule="evenodd" d="M26.5146009,6 L36.4677246,6 L23.816739,53.2165199 L13.8627402,53.2165199 L26.5146009,6 Z M79.8868486,22.2752912 C76.4390459,22.2752912 73.6335496,19.4697949 73.6335496,16.0219923 C73.6335496,12.5741896 76.4390459,9.76869333 79.8868486,9.76869333 C83.3346513,9.76869333 86.1401475,12.5741896 86.1401475,16.0219923 C86.1401475,19.4697949 83.3346513,22.2752912 79.8868486,22.2752912 Z M79.8868486,29.3669137 C83.3346513,29.3669137 86.1401475,32.17241 86.1401475,35.6202127 C86.1401475,39.0680153 83.3346513,41.8735116 79.8868486,41.8735116 C76.4390459,41.8735116 73.6335496,39.0680153 73.6335496,35.6202127 C73.6335496,32.17241 76.4390459,29.3669137 79.8868486,29.3669137 Z M40.7826409,6.11542263 L70.3917401,23.2100483 C72.4017915,24.3704001 72.4017915,27.2712798 70.3917401,28.4316316 L40.7826409,45.5262573 L38.2300418,36.2005636 L56.208495,25.8212775 L38.2300418,15.4411163 L40.7826409,6.11542263 Z M69.2610533,68.6758019 L69.2610533,65.5080239 L91.6367675,65.5080239 L91.6367675,68.6758019 L69.2610533,68.6758019 Z M21.20796,68.676152 L21.20796,81.1442465 L33.1020041,81.1442465 L33.1020041,84.3128996 L21.20796,84.3128996 L21.20796,94.9302067 L17.8940441,94.9302067 L17.8940441,84.3128996 L6,84.3128996 L6,81.1442465 L17.8940441,81.1442465 L17.8940441,68.676152 L8.09580898,68.676152 L8.09580898,65.5083739 L31.0061951,65.5083739 L31.0061951,68.676152 L21.20796,68.676152 Z M28.0572738,78.889086 L24.8081136,78.889086 L27.3615877,71.1149036 L30.6107479,71.1149036 L28.0572738,78.889086 Z M11.7401539,71.1150786 L14.293628,78.889261 L11.0444678,78.889261 L8.49099367,71.1150786 L11.7401539,71.1150786 Z M51.5168582,63.8371522 L51.5168582,66.6067703 L63.4109023,66.6067703 L63.4109023,66.6233968 L63.4109023,69.7745484 L63.4109023,72.7384336 L60.0978614,72.7384336 L60.0978614,69.7745484 L39.621939,69.7745484 L39.621939,72.7384336 L36.3088981,72.7384336 L36.3088981,69.7745484 L36.3088981,66.6233968 L36.3088981,66.6067703 L48.2029422,66.6067703 L48.2029422,63.8371522 L51.5168582,63.8371522 Z M56.4272642,84.6330902 L56.4272642,78.1837741 L43.2923612,78.1837741 L43.2923612,84.6330902 L49.8598127,86.9301669 L56.4272642,84.6330902 Z M59.5705401,73.2859691 L59.5705401,75.015996 L63.4103772,75.015996 L63.4103772,78.1837741 L59.5705401,78.1837741 L59.5705401,86.862786 L54.6193555,88.5954381 L62.6044315,91.3886833 L61.5657153,94.3560688 L49.8598127,90.2607092 L38.1539101,94.3560688 L37.116069,91.3886833 L45.101145,88.5954381 L40.1490852,86.862786 L40.1490852,78.1837741 L36.3092482,78.1837741 L36.3092482,75.015996 L40.1490852,75.015996 L40.1490852,73.2859691 L43.2923612,73.2859691 L43.2923612,75.015996 L56.4272642,75.015996 L56.4272642,73.2859691 L59.5705401,73.2859691 Z M77.0436365,78.1835991 L71.5000249,91.0962326 L89.397971,91.0962326 L85.4610004,81.9254275 L89.0199378,81.9254275 L92.9551583,91.0962326 L92.9560334,91.0962326 L92.9560334,94.2631356 L67.9428376,94.2631356 L67.9428376,91.0962326 L73.4855742,78.1835991 L66.8979959,78.1835991 L66.8979959,75.015821 L94,75.015821 L94,78.1835991 L77.0436365,78.1835991 Z"/>
</svg>