<?xml version="1.0" encoding="utf-8"?>
<!-- Generator: Adobe Illustrator 25.2.0, SVG Export Plug-In . SVG Version: 6.00 Build 0)  -->
<svg version="1.1" id="Layer_1" xmlns="http://www.w3.org/2000/svg" xmlns:xlink="http://www.w3.org/1999/xlink" x="0px" y="0px"
	 viewBox="0 0 100 100" style="enable-background:new 0 0 100 100;" xml:space="preserve">
<g>
	<g transform="translate(7 10)">
		<path d="M79.3,63.4c-1.8,1.8-5,3.7-10.3,4c-2.4,0-5.3,0-6.6,0H34l20.3-19.8c1.6-1.6,3.2-3.2,4.7-4.5c4-3.7,7.6-4.2,10-4.2
			c4,0,7.6,1.6,10.3,4.2C85.2,48.9,85.2,57.8,79.3,63.4 M86.2,36.8c-4.5-4.5-10.6-7.1-16.6-7.1c-5.8,0-10.6,1.8-14.8,5.5
			c-2.1,1.6-4,3.4-6.6,5.8L11.8,76.3c1.8,0.3,4.5,0.3,6.6,0.3s42.7,0,44.6,0c3.4,0,5.5,0,8.2-0.3c5.5-0.5,10.6-2.4,14.8-6.6
			C95.2,61,95.4,46.2,86.2,36.8L86.2,36.8"/>
	</g>
	<g transform="translate(0 10)">
		<path d="M37.3,34.7c-4.2-3.2-8.7-4.7-14-4.7c-6.3,0-12.4,2.6-16.6,7.1c-9,9.2-9,24,0.3,33.2l0,0c3.7,3.7,8.2,5.5,13.2,6.3l9-8.7
			c-1.8,0-3.7,0-5.5,0c-5.3-0.3-8.4-2.1-10.3-4C7.7,57.9,7.5,49,13,43.4c2.6-2.6,6.3-4.2,10.3-4.2c2.4,0,5.8,0.8,9.8,4
			c1.8,1.6,5.8,5,7.6,6.6H41l6.3-6.3v-0.3l0,0C44.1,40.4,39.9,36.6,37.3,34.7"/>
	</g>
	<g transform="translate(7)">
		<path d="M71.7,33.4c-4.2-11.6-15.8-20-29.3-20c-15.6,0-28.5,11.1-30.9,25.3c1.3-0.3,2.6-0.3,4-0.3c1.8,0,3.7,0.3,5.3,0.5l0,0
			C22.9,29.2,31.9,22,42.4,22c8.7,0,16.6,5,20,12.4c0,0,0.3,0.3,0.3,0c2.6-0.8,5.8-1.1,8.7-0.8C71.7,33.6,71.7,33.6,71.7,33.4"/>
	</g>
</g>
</svg>
