<?xml version="1.0" encoding="utf-8"?>
<!-- Generator: Adobe Illustrator 25.2.0, SVG Export Plug-In . SVG Version: 6.00 Build 0)  -->
<svg version="1.1" id="Layer_1" xmlns="http://www.w3.org/2000/svg" xmlns:xlink="http://www.w3.org/1999/xlink" x="0px" y="0px"
	 viewBox="0 0 101 101" style="enable-background:new 0 0 101 101;" xml:space="preserve">
<g>
	<polygon points="93.8290787,32.9545593 93.8290787,62.1403198 87.1643906,64.4724274 87.1643906,30.6325607 67.1645889,23.6511593 
		67.1645889,71.4538269 60.4970169,73.7763138 60.4970169,21.3180885 50.5,17.8293133 40.5000992,21.3180885 40.5000992,73.7763138 
		33.8359032,71.4538269 33.8359032,23.6511593 13.8356133,30.6325607 13.8356133,64.4724274 7.1714168,62.1403198 
		7.1714168,32.9545593 0.5,35.287632 0.5,66.8786621 20.5036583,73.8600616 20.5036583,35.3641624 27.1712265,33.0383148 
		27.1712265,76.1859131 47.1676674,83.1706848 47.1676674,26.0569115 50.5,24.8906174 53.8323479,26.0569115 53.8323479,83.1706848 
		73.8359985,76.1859131 73.8359985,33.0383148 80.5001984,35.3641624 80.5001984,73.8600616 100.5,66.8786621 100.5,35.287632 	"/>
</g>
</svg>
