<?xml version="1.0" encoding="utf-8"?>
<!-- Generator: Adobe Illustrator 25.2.0, SVG Export Plug-In . SVG Version: 6.00 Build 0)  -->
<svg version="1.1" id="Layer_1" xmlns="http://www.w3.org/2000/svg" xmlns:xlink="http://www.w3.org/1999/xlink" x="0px" y="0px"
	 viewBox="0 0 100 100" style="enable-background:new 0 0 100 100;" xml:space="preserve">
<path d="M50,0l-8.2,4.2v6.2l-7.2-2.6L28.2,11v4.4l-5.8-1.6l-5,2.6v3.3l-4.6-1.1l-4.2,2.2v58.4l4.2,2.2v-0.2l4.6-1v3.4l5,2.6l5.8-1.6
	V89l6.4,3.2l7.2-2.6v6.2L50,100l41.4-20.8V20.8L50,0z M14.8,78.7V21.1l2.6,0.6v56.5L14.8,78.7z M24.4,83.6V16.4l3.8,1.1v65
	L24.4,83.6z M36.6,89.3V10.7l5.2,1.9v74.9L36.6,89.3z M89.4,78L52,96.8V3.2L89.4,22V78z"/>
</svg>
