<?xml version="1.0" encoding="utf-8"?>
<!-- Generator: Adobe Illustrator 25.2.0, SVG Export Plug-In . SVG Version: 6.00 Build 0)  -->
<svg version="1.1" id="Layer_1" xmlns="http://www.w3.org/2000/svg" xmlns:xlink="http://www.w3.org/1999/xlink" x="0px" y="0px"
	 viewBox="0 0 100 100" style="enable-background:new 0 0 100 100;" xml:space="preserve">
<style type="text/css">
	.st0{fill:#5B9500;}
	.st1{fill:#12935D;}
	.st2{fill:#6BBD8B;}
	.st3{fill:#049FA4;}
	.st4{fill:#3BB5F0;}
	.st5{fill:#78C8FF;}
	.st6{fill:#3EB8FF;}
	.st7{fill:#184223;}
	.st8{fill:#022906;}
	.st9{fill:#076E5E;}
	.st10{fill:#0A413C;}
	.st11{fill:#C2D400;}
	.st12{fill:#8B9504;}
	.st13{fill:#0096E5;}
	.st14{fill:#008EDA;}
	.st15{fill:#136050;}
	.st16{fill:#7BBC00;}
	.st17{fill:#95BB00;}
	.st18{fill:#3A9B92;}
	.st19{fill:#00867E;}
</style>
<g>
	<polygon class="st0" points="75,75 100,100 100,75 	"/>
	<rect x="75" y="0.2" class="st1" width="25" height="25"/>
	<polygon class="st2" points="75,0.2 100,0.2 100,25 	"/>
	<rect x="50" y="0" class="st3" width="25" height="25"/>
	<polygon class="st4" points="50,25 50,0.2 75,0.2 	"/>
	<rect x="25" y="0" class="st5" width="25" height="25"/>
	<polygon class="st6" points="50,25 25,25 25,0.2 	"/>
	<rect x="74.8" y="25" class="st7" width="25" height="25"/>
	<polygon class="st8" points="100,25 100,50 75,50 	"/>
	<rect x="49.8" y="25" class="st9" width="25" height="25"/>
	<polygon class="st10" points="75,50 50,50 50,25 	"/>
	<rect x="75" y="50" class="st11" width="25" height="25"/>
	<polygon class="st12" points="75,50 100,50 100,75 	"/>
	<g>
		<polygon class="st13" points="25,25 25,25 25,0.2 12.6,12.6 		"/>
		<polygon class="st14" points="25,0.2 0,0.2 12.6,12.6 		"/>
		<polygon class="st15" points="75,50 50,50 62.4,62.4 		"/>
		<polygon class="st16" points="75,75 75,50 62.4,62.4 		"/>
		<polygon class="st17" points="100,75 75,75 87.4,87.4 		"/>
		<polygon class="st18" points="37.4,37.4 50,25 25,25 25,25 		"/>
		<polygon class="st19" points="50,49.8 50,25 37.4,37.4 		"/>
	</g>
</g>
</svg>
