<?xml version="1.0" encoding="utf-8"?>
<!-- Generator: Adobe Illustrator 25.2.0, SVG Export Plug-In . SVG Version: 6.00 Build 0)  -->
<svg version="1.1" id="Layer_1" xmlns="http://www.w3.org/2000/svg" xmlns:xlink="http://www.w3.org/1999/xlink" x="0px" y="0px"
	 viewBox="0 0 100 100" style="enable-background:new 0 0 100 100;" xml:space="preserve">
<style type="text/css">
	.st0{fill:#123D10;}
	.st1{fill:#33B652;}
	.st2{fill:#231F20;}
</style>
<desc>The Linode Logo consists of the 5 shaded green cubes arranged in the shape of the letter &quot;L&quot;.</desc>
<g id="g12" transform="matrix(0.08, 0, 0, 0.08, 46.629513, 27.603458)">
	<path id="path34" class="st0" d="M-218.8,216.9L-218.8,216.9l-47.4-323.7l-194.6-121l63.3,305.3L-218.8,216.9z M-297.2,561.8
		l33.8,163.3l141,149.5L-146.6,710L-297.2,561.8z M87.1,436.1l0.6,12.8c0.1,2.6-1.1,5.1-3.3,6.5l-54.3,36.7l59.1,48.2l0.1,0.1
		c0.1,0.1,0.3,0.3,0.4,0.4c0.3,0.3,0.6,0.6,0.8,1c0.1,0.1,0.3,0.4,0.4,0.6c0.1,0.3,0.4,0.7,0.6,1.1c0.1,0.3,0.1,0.4,0.3,0.7
		c0.1,0.4,0.1,0.8,0.3,1.2c0,0.1,0.1,0.3,0.1,0.4l2.5,56.4L161,658l-1.4-166.9L87.1,436.1z M248.1,216l-1.5,72.8l100.3,66.3
		c0.3,0.1,0.6,0.4,0.8,0.7c0.1,0.1,0.3,0.3,0.4,0.4c1,1,1.5,2.1,1.9,3.4c0,0.1,0,0.4,0.1,0.6c0,0.3,0.1,0.7,0.1,1c0,0.1,0,0.3,0,0.3
		c0,0.1,0,0.1,0,0.3l-5,83.1l46.7,32.5l14.1-162.8L248.1,216z M-164.7,586.9L-323,437.8l-45.8-221.3L-198,358.7L-164.7,586.9"/>
	<path id="path36" class="st1" d="M57.4,87.3L44.3-220l0,0l-295.2,113.4l0,0l0,0l48.2,329.2L57.4,87.3z M72.7,445.4L63,218.8l0,0
		l-245.9,139.9l34.5,235.5L72.7,445.4z M77.6,560.3l-209.1,149.5l0,0l0,0l25.4,173.4l0,0L84.9,731L77.6,560.3z M174.2,491.1
		l1.4,167.6l149-118.8l9.9-163.4L174.2,491.1z M545.8,225.3l-20.9,155L407.3,474L421,314.6L545.8,225.3"/>
	<path id="path38" class="st2" d="M524.8,380.3L407.3,474L421,314.6l124.7-89.2L524.8,380.3z M392,477.2l-46.6-32.4l5.1-83
		c0-0.1,0-0.1,0-0.3c0-0.1,0-0.3,0-0.3c0-0.4-0.1-0.7-0.1-1c0-0.1,0-0.4-0.1-0.6c-0.3-1.2-1-2.5-1.9-3.4c-0.1-0.1-0.3-0.3-0.4-0.4
		c-0.3-0.3-0.6-0.6-0.8-0.7l-100.3-66.3l1.5-72.8l157.9,98.4L392,477.2z M324.6,539.9l-149,118.8l-1.4-167.6l160.3-114.7
		L324.6,539.9z M94.3,602.2l-2.5-56.4c0-0.1,0-0.3-0.1-0.4c0-0.4-0.1-0.8-0.3-1.2c0-0.3-0.1-0.4-0.3-0.7c-0.1-0.4-0.3-0.7-0.6-1.1
		c-0.1-0.1-0.3-0.4-0.4-0.6c-0.3-0.3-0.6-0.7-0.8-1c-0.1-0.1-0.3-0.3-0.4-0.4l-0.1-0.1l-59.1-48.2L84,455.4c2.2-1.5,3.4-4,3.3-6.5
		l-0.6-12.8l72.1,55l1.4,166.9L94.3,602.2z M-106.1,883.2L-106.1,883.2l-25.4-173.4l0,0l0,0L77.6,560.3L84.9,731L-106.1,883.2z
		 M-263.5,725.1l-33.8-163.3L-146.6,710l24.1,164.7L-263.5,725.1z M-322.9,437.8l-45.8-221.3l170.7,142.2l33.4,228.2L-322.9,437.8z
		 M-397.6,77.4l-63.3-305.3l194.6,121l47.4,323.7l0,0L-397.6,77.4z M-250.9-106.6L44.3-220l0,0L57.4,87.3l-260,135.3L-250.9-106.6
		L-250.9-106.6z M62.9,218.8L62.9,218.8l9.6,226.6l-221,148.8L-183,358.7L62.9,218.8z M563,208.7c0-0.1,0-0.3-0.1-0.4
		c0-0.3-0.1-0.6-0.1-0.8c-0.1-0.4-0.3-0.8-0.4-1.1s-0.3-0.6-0.3-0.7c-0.1-0.4-0.4-0.7-0.7-1.1c-0.1-0.1-0.3-0.4-0.6-0.6
		c-0.3-0.3-0.7-0.6-1.1-0.8c-0.1-0.1-0.3-0.3-0.4-0.3h-0.1c0,0-0.1,0-0.1-0.1l-170.5-94.7c-2.3-1.2-5.2-1.2-7.6,0.1l-143.9,88.1
		c-0.3,0.1-0.4,0.4-0.7,0.6c-0.3,0.1-0.6,0.4-0.7,0.6c-0.3,0.3-0.4,0.6-0.7,0.8c-0.1,0.3-0.4,0.4-0.6,0.7c-0.1,0.3-0.3,0.7-0.4,1
		s-0.3,0.6-0.3,0.8c-0.1,0.4-0.1,0.7-0.1,1.1c0,0.3-0.1,0.6-0.1,0.7L232,279l-58.6-38.7c-2.5-1.7-5.5-1.7-8-0.1l-84.3,51.5L77.3,206
		c0-0.3-0.1-0.4-0.1-0.7c0-0.3-0.1-0.7-0.1-1c-0.1-0.3-0.1-0.6-0.3-0.8c-0.1-0.3-0.3-0.6-0.4-0.8c-0.1-0.3-0.3-0.6-0.6-0.8
		c-0.1-0.3-0.4-0.6-0.6-0.7c-0.3-0.3-0.4-0.4-0.7-0.7c-0.1-0.1-0.3-0.3-0.6-0.4l-87.6-58.8l82.1-42.7c2.6-1.4,4.1-4,4-7L58.7-231
		c0-0.4-0.1-0.8-0.1-1.1c0-0.1,0-0.3-0.1-0.6c-0.1-0.7-0.4-1.2-0.8-1.8c-0.1-0.1-0.1-0.3-0.3-0.4c-0.3-0.4-0.6-0.8-1-1.2
		c-0.1-0.1-0.4-0.3-0.6-0.4c-0.1-0.1-0.4-0.4-0.6-0.6c-0.1-0.1-0.4-0.1-0.6-0.3c-0.1,0-0.1-0.1-0.3-0.3l-221.2-106.7
		c-1.7-0.8-3.7-1-5.5-0.4l-301.7,94l0,0c-0.3,0.1-0.4,0.3-0.7,0.3c-0.4,0.1-0.8,0.4-1.2,0.6l0,0c-0.1,0.1-0.3,0.3-0.6,0.6
		c-0.4,0.3-0.7,0.6-1,1c-0.1,0.3-0.3,0.6-0.6,0.8c-0.1,0.3-0.4,0.7-0.6,1c-0.1,0.3-0.1,0.7-0.3,1c-0.1,0.3-0.3,0.6-0.3,1v0.1
		c0,0.3,0,0.7,0,1c0,0.4,0,0.8,0,1.2v0.1l67.3,325.4c0.4,1.8,1.4,3.3,2.8,4.4l91.4,71.2l-66,31.4c-0.1,0-0.3,0.1-0.4,0.3
		c-0.1,0-0.1,0-0.3,0.1c-0.1,0.1-0.3,0.1-0.4,0.3c-0.4,0.3-0.8,0.6-1.1,1c-0.1,0.1-0.4,0.3-0.6,0.6c-0.3,0.4-0.6,0.8-0.8,1.2
		c-0.1,0.1-0.1,0.3-0.3,0.6c-0.3,0.6-0.4,1.2-0.6,1.9c0,0,0,0,0,0.1c0,0.1,0,0.3,0,0.4c0,0.6,0,1.2,0.1,1.8c0,0.1,0,0.1,0,0.3
		l50.7,244.8c0.3,1.5,1.1,2.9,2.2,4l63.5,59.9l-42.2,25.8c-0.6,0.3-1.1,0.7-1.5,1.2c-0.1,0.1-0.1,0.3-0.3,0.4c-0.4,0.4-0.7,1-1,1.4
		c-0.1,0.1-0.1,0.3-0.3,0.6c-0.3,0.6-0.4,1.2-0.6,1.9c0,0,0,0,0,0.1l0,0c-0.1,0.7,0,1.4,0.1,2.1c0,0.1,0,0.1,0,0.3l39.3,189.5
		c0.3,1.4,1,2.6,1.9,3.6l158.8,168.4c0.3,0.3,0.4,0.4,0.7,0.6c0.1,0.1,0.3,0.3,0.4,0.3c0.4,0.4,1,0.7,1.5,0.8c0,0,0,0,0.1,0h0.1
		c0.8,0.3,1.7,0.6,2.6,0.6l0,0l0,0l0,0c0.7,0,1.5-0.1,2.2-0.4c0.1,0,0.4-0.1,0.6-0.1c0.1,0,0.4-0.1,0.6-0.1c0.3-0.1,0.6-0.4,0.8-0.6
		c0.1-0.1,0.4-0.1,0.7-0.4L97.3,740.7c1.9-1.5,2.9-3.7,2.8-6.2l-4.8-111.6l68.2,57.5c0.1,0.1,0.3,0.1,0.3,0.1
		c0.4,0.3,0.8,0.7,1.2,0.8c0.1,0,0.3,0.1,0.4,0.1c0.1,0,0.3,0.1,0.6,0.1c0.7,0.3,1.5,0.4,2.2,0.4s1.5-0.1,2.2-0.4
		c0.1,0,0.3-0.1,0.6-0.1c0.1,0,0.3-0.1,0.6-0.1c0.4-0.1,0.7-0.4,1-0.7c0.1-0.1,0.4-0.1,0.6-0.3l163.6-130.8c1.7-1.4,2.6-3.3,2.8-5.4
		l5-81.9l49.7,34.6c0.1,0.1,0.3,0.1,0.4,0.1c0.1,0.1,0.3,0.1,0.4,0.3c0.3,0.1,0.6,0.3,1,0.4c0.1,0.1,0.4,0.1,0.6,0.3
		c0.7,0.1,1.4,0.3,2.1,0.3s1.5-0.1,2.2-0.4c0.1,0,0.3-0.1,0.6-0.1c0.1,0,0.3-0.1,0.6-0.1c0.4-0.1,0.8-0.6,1.2-0.7
		c0.1-0.1,0.3-0.1,0.3-0.1l133.5-106.4c1.5-1.2,2.5-2.9,2.8-4.8l23.7-175.2c0-0.1,0-0.4,0-0.6C563,209.3,563,209,563,208.7"/>
</g>
</svg>
