<?xml version="1.0" encoding="utf-8"?>
<!-- Generator: Adobe Illustrator 25.2.0, SVG Export Plug-In . SVG Version: 6.00 Build 0)  -->
<svg version="1.1" id="Layer_1" xmlns="http://www.w3.org/2000/svg" xmlns:xlink="http://www.w3.org/1999/xlink" x="0px" y="0px"
	 viewBox="0 0 100 100" style="enable-background:new 0 0 100 100;" xml:space="preserve">
<g>
	<path d="M51.9,26.8c-2,4.1-1.2,7.2,1.8,7.4c2.9,0.2,6.8-3.1,8.6-7.2s1.2-7.2-1.8-7.4C57.6,19.4,53.7,22.9,51.9,26.8z M75,12.4
		L75,12.4c-1.8,5.1-4.3,10-7.2,14.6c-6,8.8-14.4,14.4-18.9,12.3S45.5,28.6,51.4,20c1.4-2,2.7-3.7,4.5-5.3l0,0
		c-2,0.2-3.9,0.6-5.7,1.2l0,0C29.9,40.1,21.5,71.7,22.5,100l0,0C10.2,94.9,1.8,83,1.2,69.6v-0.2C-0.2,44,20.3,17.5,46.9,10.8
		C56,8.3,66,8.9,75,12.4z"/>
	<path d="M67.6,81.5c-2,1.4-3.9,2.5-6,3.7l0,0c-0.2-5.9-1.6-11.7-4.1-17c-6-13.3-16.8-14.1-23.8-2.3c-4.3,7.4-6.2,17.8-5.9,28.1l0,0
		c8.2,2.5,17,2.5,25.4,0.4c26.7-6.8,47-33,45.5-58.5C97,13.4,79.3-1.3,57,0.1l0,0c-2,2.3-4.3,4.3-6,6.6l0,0
		c13.1-1.6,23.6,1,30.2,6.4l0,0C58,46.1,60.9,65.3,67.6,81.5L67.6,81.5L67.6,81.5z"/>
</g>
</svg>
