<?xml version="1.0" encoding="utf-8"?>
<!-- Generator: Adobe Illustrator 24.1.3, SVG Export Plug-In . SVG Version: 6.00 Build 0)  -->
<svg version="1.1" id="Layer_1" xmlns="http://www.w3.org/2000/svg" xmlns:xlink="http://www.w3.org/1999/xlink" x="0px" y="0px"
	 viewBox="0 0 100 100" style="enable-background:new 0 0 100 100;" xml:space="preserve">
<style type="text/css">
	.st0{fill:#FFFFFF;}
</style>
<g>
	<path class="st0" d="M56.5,68.5v0.2c0.2,0,0.3,0,0.3-0.1C56.7,68.5,56.7,68.5,56.5,68.5L56.5,68.5z"/>
	<path class="st0" d="M56.6,68.1c-0.4,0-0.6,0.4-0.6,0.7c0,0.4,0.4,0.6,0.7,0.6s0.5-0.3,0.6-0.6c0-0.1,0-0.1,0-0.1
		C57.3,68.3,56.9,68.1,56.6,68.1z M57,69.2L57,69.2l-0.3-0.4h-0.1v0.4h-0.2v-0.9h0.3c0.1,0,0.1,0,0.1,0c0.1,0,0.2,0.2,0.2,0.3
		c0,0.2-0.1,0.2-0.2,0.2L57,69.2z"/>
	<path class="st0" d="M37.2,51.5c0.3-0.5,0.5-1.1,0.5-1.8c0-1.5-0.8-2.5-2.2-2.5h-2.1v5.2h1.7C36.4,52.4,36.8,52.2,37.2,51.5z"/>
	<path class="st0" d="M33.4,64.8c-0.4,0-0.7,0.3-0.9,0.6c-0.2,0.4-0.3,1-0.3,1.5s0,1,0.2,1.4c0.2,0.4,0.6,0.6,1,0.6
		c0.3,0.1,0.6-0.1,0.9-0.3c0.1-0.1,0.2-0.2,0.3-0.4v-2.8C34.3,65,33.9,64.8,33.4,64.8z"/>
	<path class="st0" d="M25,25v50h50V25H25z M49.5,48.6c0.3,0.5,0.4,1,0.4,1.6c0.4-0.3,0.9-0.6,1.4-0.9c0.7-0.3,1.4-0.5,2.1-0.5
		c1.2-0.1,2.4,0.7,2.8,1.8c0.2,0.6,0.3,1.2,0.2,1.8v9.1h-3.1v-8.2c0-1.4-0.2-1.8-1-1.8c-0.8,0.1-1.6,0.5-2.1,1.1v8.9h-3.1v-9.1
		c0-1-0.1-2-0.4-2.9L49.5,48.6z M43.8,43.5c1.1,0,2,0.9,1.9,2c-0.1,1.1-1,1.9-2,1.8c-1-0.1-1.9-1-1.8-2C42,44.3,42.8,43.5,43.8,43.5
		z M45.3,48.6v12.9h-3.1V49.2L45.3,48.6z M30.1,44.5h4.2c2.8,0,3.6,0.3,4.5,0.8c1.6,0.9,2.5,2.6,2.3,4.5c0,2.2-1,4-2.8,4.9
		c-0.7,0.4-1.4,0.6-3.2,0.6h-1.8v6.2h-3.2V44.5z M30.9,69.5h-0.8v-7.3h0.8V69.5z M34.8,69.6c-0.1-0.1-0.1-0.3-0.1-0.5
		c-0.3,0.4-0.8,0.6-1.3,0.6c-1.3,0-2-1-2-2.7c-0.1-1,0.3-1.9,1-2.5c0.2-0.2,0.6-0.3,0.9-0.3c0.5,0,1,0.3,1.3,0.7c0,0,0-0.4,0-0.8
		v-1.8h0.8v5.6c-0.1,0.5,0,1.1,0.2,1.7H34.8z M37.1,68.4c0.2,0.4,0.7,0.6,1.2,0.6c0.4,0,0.9-0.2,1.2-0.5l0.3,0.5
		c-0.5,0.5-1.1,0.7-1.7,0.7c-1.4,0-2.2-1-2.2-2.8c0-0.7,0.2-1.4,0.6-2c0.4-0.4,0.9-0.7,1.5-0.7c0.5,0,1,0.2,1.3,0.6
		c0.5,0.4,0.6,1,0.6,2.3l-3-0.1v0.2C36.8,67.6,36.9,68,37.1,68.4z M44.2,69.5h-0.8v-3.6c0-0.3,0-0.6-0.2-0.9
		c-0.1-0.1-0.3-0.2-0.5-0.2c-0.6,0-1.1,0.3-1.4,0.7v4h-0.7v-4.1c0-0.4-0.1-0.7-0.2-1.1l0.7-0.2c0.1,0.2,0.2,0.5,0.2,0.8
		c0.3-0.5,0.9-0.8,1.5-0.8c0.5,0,1,0.3,1.3,0.8c0.1,0.2,0.1,0.4,0.1,0.6V69.5z M49,69.6h-0.8v-4.7H46v3.4c0,0.6,0.1,0.8,0.6,0.8
		c0.2,0,0.4,0,0.5-0.1l0.1,0.5c-0.3,0.1-0.6,0.2-0.9,0.2c-0.2,0.1-0.4,0-0.6-0.1c-0.4-0.3-0.6-0.7-0.5-1.1v-3.6h-0.6v-0.6h0.6v-2H46
		v2h2.3l0.7-0.1V69.6z M51.4,69.1c0.2,0,0.4,0,0.5-0.1l0.1,0.5c-0.3,0.1-0.6,0.2-0.9,0.2c-0.2,0.1-0.4,0-0.6-0.1
		c-0.4-0.3-0.6-0.7-0.5-1.1v-3.6h-0.6v-0.6H50v-2h0.8v2H52l-0.2,0.6c0,0-1,0-1,0v3.4C50.8,68.9,50.9,69.1,51.4,69.1z M53.3,71.8
		l-0.2-0.6c0.4-0.2,0.8-0.5,0.9-1c-0.1-0.4-0.1-0.6-0.1-0.6c-0.1-0.3-0.3-1.4-0.5-1.9l-1.1-3.3l0.8-0.3l1,3.4
		c0.2,0.5,0.3,1.3,0.3,1.3l0.3-1.1l1-3.4h0.9l-1.7,5.5C54.5,70.9,54.2,71.6,53.3,71.8z M56.6,69.5c-0.4,0-0.7-0.4-0.7-0.8
		c0-0.4,0.4-0.7,0.8-0.7c0.4,0,0.7,0.4,0.7,0.8C57.4,69.2,57,69.5,56.6,69.5z M67.8,53.3c0,2.1-1.9,3.7-4.4,3.7c-0.2,0-0.3,0-0.5,0
		c-0.8,0.4-1.2,0.7-1.2,1c0,0.2,0.2,0.3,0.5,0.3h1.7c1.8,0,2.7,0.3,3.5,1c0.7,0.7,1,1.6,1,2.6c0.1,1-0.3,1.9-0.9,2.6
		c-1.1,1.2-2.8,1.6-4.7,1.6c-1.7,0-3.4-0.2-4.5-1.3c-0.7-0.5-1-1.4-1-2.2c0-0.4,0.1-0.8,0.3-1.2h2.9c-0.1,0.2-0.1,0.5-0.1,0.8
		c0,1,0.8,1.5,2.2,1.5c0.6,0.1,1.3-0.1,1.9-0.4c0.5-0.2,0.8-0.7,0.8-1.2c0-1.1-1-1.5-2.2-1.5h-1.3c-0.9,0-1.9-0.1-2.8-0.4
		c-0.6-0.3-1-0.9-0.9-1.6c0-0.8,0.3-1.6,2.2-2.1c-1.7-0.5-2.5-1.6-2.5-3.5c0-2.5,2-4.2,5-4.2c0.7,0,1.4,0.1,2.1,0.3
		c0.5,0.2,1,0.3,1.5,0.3c0.9-0.1,1.8-0.4,2.4-1.1l1.3,2.1c-0.6,0.6-1.4,0.9-2.2,0.9c-0.3,0-0.5-0.1-0.8-0.1
		C67.6,51.8,67.8,52.6,67.8,53.3z"/>
	<path class="st0" d="M62.7,51.1c-1.1,0-1.9,0.9-1.9,1.9c0,1.3,0.8,1.8,1.9,1.8c1.2,0,1.9-0.7,1.9-1.8S63.7,51.1,62.7,51.1z"/>
	<path class="st0" d="M38.9,65.3c-0.2-0.3-0.5-0.5-0.9-0.5c-0.7,0-1.1,0.5-1.1,1.7h2.2C39.2,66.1,39.1,65.7,38.9,65.3z"/>
</g>
</svg>
