<?xml version="1.0" encoding="utf-8"?>
<!-- Generator: Adobe Illustrator 24.1.3, SVG Export Plug-In . SVG Version: 6.00 Build 0)  -->
<svg version="1.1" id="Layer_1" xmlns="http://www.w3.org/2000/svg" xmlns:xlink="http://www.w3.org/1999/xlink" x="0px" y="0px"
	 viewBox="0 0 100 100" style="enable-background:new 0 0 100 100;" xml:space="preserve">
<style type="text/css">
	.st0{fill:#FFFFFF;}
</style>
<path class="st0" d="M77.9,73.5C73.4,69,69,64.6,64.5,59.9l6.8-6.8c1.9-1.9,1.7-4.7,0.2-6.4L61.1,36.3l-3.4,3.4l0,0l-6.8,6.8
	c-1.7,1.7-1.7,4.5-0.4,6.2c6.8,6.8,13.8,13.8,20.6,20.6C73.2,75.7,76.4,75,77.9,73.5L77.9,73.5z M62.6,55c-1.1,1.1-2.6,0.9-3.4,0
	l-3.4-3.4c-0.9-0.9-1.1-2.3,0-3.4l5.1-5.1l5.1,5.1c0.9,0.9,1.1,2.3,0,3.4C64.9,52.7,63.8,53.8,62.6,55C62.6,54.8,62.6,55,62.6,55z"
	/>
<g>
	<path class="st0" d="M27.8,49.3c0.1-0.4,0.3-0.8,0.7-1.1l17-17c0.8-0.9,2.3-1.1,3.4,0l7.9,7.9l3.3-3.3l-9.7-9.7
		c-1.9-1.7-4.9-1.3-6.4,0.2L24.2,45.7L27.8,49.3z"/>
	<path class="st0" d="M48.9,68.5c-0.4,0.4-0.7,0.6-1.2,0.7l3.6,3.6l6-6L54,63.4L48.9,68.5z"/>
</g>
<path id="_120400048" class="st0" d="M50.6,73.5c-2.3,2.3-5.3,1.5-6.8,0L23.6,53.3c-1.9-1.9-1.9-4.7,0-6.8l13.2,13.2l8.7,8.7l0,0
	L50.6,73.5L50.6,73.5z"/>
<g>
	<path id="_120401272_1_" class="st0" d="M74.7-36.3C74.7-36.3,74.5-36.3,74.7-36.3C74.5-36.3,74.7-36.3,74.7-36.3z M74.5-36.3
		C74.5-36.3,74.3-36.3,74.5-36.3C74.3-36.3,74.5-36.3,74.5-36.3z M74.3-36.1c0,0-0.2,0-0.2,0.2C74.1-36.1,74.1-36.1,74.3-36.1z
		 M57.5-48.6l-9.1-9.1c0,0,0,0,0-0.2C51.3-54.8,54.5-51.6,57.5-48.6z M48.8-64.2l6.8-6.8l0,0L48.8-64.2L48.8-64.2z M55.3-71
		l-8.5-8.5c-1.1-1.1-2.6-0.9-3.4,0l-17,17c-1.1,1.1-0.9,2.6,0,3.4l1.5,1.5l-6.6-6.6l0,0l20.6-20.2c1.5-1.5,4.5-1.9,6.4-0.2
		l20.9,20.9c0.6,0.6,1.1,1.7,1.1,2.8c0-1.1-0.4-1.9-1.1-2.8L58.8-74.2L55.3-71L55.3-71z M43.6-42l0.2,0.2c0.9,0.6,2.1,0.6,3-0.4
		l5.1-5.1l3.4,3.4l-6.8,6.8c-2.3,2.3-5.3,1.5-6.8,0L21.5-57.4c-0.9-0.9-1.5-2.1-1.5-3.2c0,1.3,0.6,2.3,1.5,3.2l20.2,20.2
		c1.5,1.5,4.5,2.3,6.8,0C48.5-37.2,43.6-42,43.6-42z M20.2-60.8V-61C20.2-60.8,20.2-60.8,20.2-60.8z M62.2-50.8l7,7l0,0
		C66.8-46.1,64.5-48.4,62.2-50.8L62.2-50.8z M58.8-67.6l5.1,5.1c0.4,0.4,0.6,0.6,0.6,1.1c0-0.4-0.4-0.9-0.6-1.1L58.8-67.6z
		 M61.3-56.7l-0.9,0.9l0,0l0,0L61.3-56.7z"/>
	<path class="st0" d="M75.8-37.2c-4.5-4.5-8.9-8.9-13.4-13.6l6.8-6.8c1.9-1.9,1.7-4.7,0.2-6.4L59-74.4L55.6-71l0,0l-6.8,6.8
		c-1.7,1.7-1.7,4.5-0.4,6.2c6.8,6.8,13.8,13.8,20.6,20.6C71.1-35,74.3-35.7,75.8-37.2L75.8-37.2z M60.5-55.7c-1.1,1.1-2.6,0.9-3.4,0
		l-3.4-3.4c-0.9-0.9-1.1-2.3,0-3.4l5.1-5.1l5.1,5.1c0.9,0.9,1.1,2.3,0,3.4C62.8-58,61.7-56.9,60.5-55.7
		C60.5-55.9,60.5-55.7,60.5-55.7z"/>
	<path id="_120400048_1_" class="st0" d="M48.5-37.2c-2.3,2.3-5.3,1.5-6.8,0L21.5-57.4c-1.9-1.9-1.9-4.7,0-6.8L34.7-51l8.7,8.7l0,0
		L48.5-37.2L48.5-37.2z"/>
</g>
</svg>
