<?xml version="1.0" encoding="utf-8"?>
<!-- Generator: Adobe Illustrator 24.1.3, SVG Export Plug-In . SVG Version: 6.00 Build 0)  -->
<svg version="1.1" id="Layer_1" xmlns="http://www.w3.org/2000/svg" xmlns:xlink="http://www.w3.org/1999/xlink" x="0px" y="0px"
	 viewBox="0 0 100 100" style="enable-background:new 0 0 100 100;" xml:space="preserve">
<style type="text/css">
	.st0{fill:#FFFFFF;}
</style>
<g>
	<path class="st0" d="M50.8,62.8c-7.8,0-15.1-0.8-19.5-2.1L30.6,63c4.6,1.4,12.1,2.2,20.1,2.2c7.7,0,14.8-0.7,19.5-2l-0.6-2.3
		C65.1,62.1,58.1,62.8,50.8,62.8z"/>
	<path class="st0" d="M31.3,45.9l-0.7,2.3c4.6,1.4,12.1,2.2,20.1,2.2c7.7,0,14.8-0.7,19.5-2l-0.6-2.3C65.1,47.3,58.1,48,50.8,48
		C43,48,35.8,47.2,31.3,45.9z"/>
	<path class="st0" d="M65.7,38.6c1,0,1.8-0.8,1.8-1.8s-0.8-1.7-1.8-1.8c-1,0-1.8,0.8-1.8,1.8S64.7,38.6,65.7,38.6z"/>
	<path class="st0" d="M65.7,49.8c-1,0-1.8,0.8-1.8,1.8s0.8,1.8,1.8,1.8s1.8-0.8,1.8-1.8C67.5,50.7,66.7,49.9,65.7,49.8z"/>
	<path class="st0" d="M65.7,65.3c-1,0-1.8,0.8-1.8,1.8s0.8,1.8,1.8,1.8s1.8-0.8,1.8-1.8C67.5,66.2,66.7,65.4,65.7,65.3z"/>
	<path class="st0" d="M73.9,40.3V30.1c0-2.8-10.5-5.1-23.8-5.1c-13.3,0-24,2.3-24,5.1v10.2c0,0.8,0.9,1.5,2.5,2.2
		c-1.5,0.7-2.4,1.4-2.4,2.2l-0.1,10.2c0,0.8,1,1.6,2.7,2.3c-1.6,0.7-2.6,1.5-2.6,2.3l-0.1,10.4c0,2.8,10.6,5.1,24,5.1
		c13.4,0,23.8-2.3,23.8-5.1V59.5c0-0.8-0.9-1.6-2.6-2.3c1.7-0.7,2.6-1.5,2.6-2.3V44.7c0-0.8-0.8-1.5-2.4-2.2
		C73,41.8,73.9,41.1,73.9,40.3z M29.4,31.1c2-0.8,4-1.4,6.2-1.7c4.7-0.7,9.5-1,14.5-1c4.8,0,9.6,0.3,14.4,1c1.7,0.2,3.4,0.7,5,1.3
		C65,31.9,58,32.6,50.8,32.6c-7.8,0-15.1-0.8-19.5-2.1l-0.7,2.3c4.6,1.4,12.1,2.2,20.1,2.2c7.7,0,14.8-0.8,19.5-2l-0.6-2.2
		c0.3,0.1,0.7,0.3,1,0.4v8.1c-0.1,0-0.2,0.1-0.3,0.2L64.6,42c-1,0.2-2.1,0.3-3.1,0.4c-5.3,0.6-10.7,0.8-16.1,0.5
		c-3.1-0.1-6.3-0.3-9.3-0.8l-6.3-2.7c-0.2-0.1-0.3-0.1-0.4-0.2V31.1z M70.3,45.7c0.1,0,0.2,0.1,0.3,0.2V54l-0.5,0.2l-6.3,2.6
		c-0.8,0.1-1.6,0.2-2.4,0.3c-5.3,0.7-10.7,0.9-16.1,0.6c-2.7-0.1-5.5-0.3-8.2-0.6l-7-2.9c-0.2-0.1-0.4-0.2-0.6-0.3l0.1-8.1
		c0.1,0,0.2-0.1,0.3-0.2l3.2-1.4c3.9,0.9,8.1,1.2,12.1,1.4c1.7,0.1,3.3,0.1,5,0.1c3.9,0,7.8-0.2,11.6-0.6c1.8-0.2,3.5-0.5,5.2-0.8
		L70.3,45.7z M70.6,69c-2,0.8-4,1.4-6.1,1.7c-4.8,0.7-9.6,1-14.4,1c-4.8,0-9.7-0.3-14.4-1c-2.1-0.3-4.2-0.8-6.2-1.7l0.1-8.3l0.5-0.2
		l3.3-1.4c3.8,0.8,7.9,1.1,11.8,1.3c1.7,0.1,3.3,0.1,5,0.1c3.9,0,7.8-0.2,11.5-0.7c1.7-0.2,3.5-0.4,5.1-0.7l3.3,1.3l0.5,0.2V69z"/>
</g>
</svg>
