<?xml version="1.0" encoding="utf-8"?>
<!-- Generator: Adobe Illustrator 24.1.3, SVG Export Plug-In . SVG Version: 6.00 Build 0)  -->
<svg version="1.1" id="Layer_1" xmlns="http://www.w3.org/2000/svg" xmlns:xlink="http://www.w3.org/1999/xlink" x="0px" y="0px"
	 viewBox="0 0 100 100" style="enable-background:new 0 0 100 100;" xml:space="preserve">
<style type="text/css">
	.st0{fill:#FFFFFF;}
</style>
<g id="Layer_3">
</g>
<g id="Layer_2_1_">
</g>
<g>
	<path class="st0" d="M42.5,33.2c0.3-0.2,0.2-1.2-0.5-2c-0.7-0.8-2.2-0.7-2.9-1c-0.6-0.2-0.7-0.3-0.7-0.3c0,0,0.2,0.6,0.8,0.8
		c0.5,0.2,1.7,0.5,2,0.9C41.5,32.1,42.2,33.4,42.5,33.2z"/>
	<path class="st0" d="M38.3,30C38.3,30,38.3,30,38.3,30C38.3,30,38.3,30,38.3,30z"/>
	<path class="st0" d="M45.3,31.4c0.5,0,0.8-0.7,0.8-0.7l0.4,0l0.4-0.4c0,0-0.2,0-1.1,0c-0.5,0-1.4-0.1-1.8,0
		c-0.3,0.1-0.5,0.4-0.5,0.4h1C44.5,30.7,44.6,31.4,45.3,31.4z M45.1,30.5c0.1,0,0.2,0.1,0.2,0.2S45.2,31,45.1,31s-0.2-0.1-0.2-0.2
		S45,30.5,45.1,30.5z"/>
	<path class="st0" d="M40.4,48c0.5-0.1,0.3-0.9,0.3-0.9s-0.1,0.2-0.5,0.3c-0.5,0.1-1.6-1.7-1.6-1.7S39.5,48.1,40.4,48z"/>
	<path class="st0" d="M43.4,50.7c-0.4,0.2-0.8-0.2-1.4-0.8c-0.5-0.5-1.1-1.3-1.1-1.3l0.4,1.4c0,0,0,0.9-0.3,1
		c-0.3,0.1-0.7-0.3-1.4-1c-0.6-0.6-0.9-0.9-0.9-0.9s0.9,2.5,2.2,2.9c0.5,0.2,0.8-1.3,0.8-1.3s0.9,1.1,1.6,1.2c1,0,0.3-2,0.3-2
		S43.8,50.6,43.4,50.7z"/>
	<path class="st0" d="M45.8,50.2c-0.8,0.2-1.9-1.8-1.9-1.8s0.5,2.8,2.1,2.7c0.6,0,0.4-2.1,0.4-2.1S46,50.1,45.8,50.2z"/>
	<path class="st0" d="M40.7,41.4c0,0-0.2-0.2-0.5-0.6c-0.3-0.4-0.6-1.7-0.6-1.7s0,1.5,0.3,2C40.2,41.7,40.7,41.4,40.7,41.4z"/>
	<path class="st0" d="M41.9,44.5c0.5,0.3,0.7-0.1,0.7-0.1s-0.4-0.1-0.7-0.5c-0.2-0.4-1-1.6-1-1.6S41.2,44.2,41.9,44.5z"/>
	<path class="st0" d="M41.1,45.6c0,0,1,2.4,1.8,2.3c0.5-0.1,0.3-1.1,0.3-1.1s-0.2,0.3-0.4,0.4C42.3,47.4,41.1,45.6,41.1,45.6z"/>
	<path class="st0" d="M40.4,44.7c0,0-0.4-0.2-0.6-0.6c-0.4-0.6-0.8-1.8-0.8-1.8s0.1,1.7,0.5,2.2C39.9,45.1,40.4,44.7,40.4,44.7z"/>
	<path class="st0" d="M44.8,47.3c0.6,0.1,0.6-0.6,0.6-0.6s-0.3,0.1-0.8-0.2c-0.6-0.2-1.4-1.3-1.4-1.3S44,47.1,44.8,47.3z"/>
	<path class="st0" d="M48.7,58.4c0.1-0.1,0.2-0.3,0.3-0.4C48.9,58.2,48.8,58.3,48.7,58.4z"/>
	<path class="st0" d="M67.5,50c-1.7-3-4.2-4.7-6.7-5.7c0.7-0.8,1.1-1.5,1.1-1.5l-1.1,0c0,0,0.5-0.3,1.2-0.9c1.1-1,1.4-1.8,1.4-1.8
		L62.5,40c0,0,0.7-0.4,1.8-1.6c1.2-1.3,1.7-3.1,1.7-3.1l-0.8,0.1c0,0,0.4-0.3,1-1.4c0.7-1.1,1-3,1-3L65,32.2c0,0,0.5-0.5,1-1.6
		c0.8-1.5,0.9-3.2,0.9-3.2s-3.1,2.6-4.6,3.8c-1.3,1-3.1,2-3.1,2l0.1-1.1c0,0-2.4,1.7-4.5,3.3l0.2-2l-1.2,0.5c0,0,0.6-1.6,0.7-2.6
		c0.2-1.1,0-2.7,0-2.7L53,29.9c0,0,0-1.4-0.2-2.3c-0.4-1.8-1.1-2.6-1.1-2.6s-0.5,2.1-1.1,3.4c-0.3,0.7-0.6,1.3-0.9,1.9
		c-0.1,0-0.1-0.1-0.1-0.1s-0.2-1.1-1.4-1.7c-1.2-0.5-6,0.3-8.1,0.1c-2.2-0.1-4.3-1-4.3-1s0.6,2.6,1.2,3.7c0.9,1.8,1.8,2.2,1.8,2.2
		s-1.3,2.9-2,5.9c-0.7,3.1-0.7,9.5,2.6,13.7c-0.3,0.9-0.8,1.9-1.4,2.7c-1.2,1.5-2.2,1.9-2.2,1.9s-2.9-0.8-3.9,0.2
		c-0.8,0.8-0.7,1.3-0.7,1.3s-0.2,0-0.5,0.4c-0.2,0.3-0.1,0.6-0.1,0.6s0-0.1,0.3-0.2c0.1,0,0.3,0,0.3,0s0.1,0.3,0.4,0.5
		c0.4,0.2,0.7,0.1,0.7,0.1s-0.1,0.1-0.1,0.3c0,0.3,0.1,0.4,0.1,0.4s0.1-0.1,0.4-0.3C33,61,33.1,61,33.1,61s0.4,0.4,1.1,0.4
		c1.8,0.1,2.7-0.8,3.4-1c0.8-0.2,2.3-0.4,2.3-0.4s-0.6-0.4-0.7-1.3C39,58,41.3,56.7,42.7,56c1.4,0.7,2.7,1.1,4,1.3
		c-0.1,0.2-0.2,0.3-0.3,0.4c-0.7,1-1.8,2.1-2.2,2.2c-0.4,0.1-3-0.1-3.8,0.7c-0.6,0.6-0.5,1-0.5,1s-0.2,0-0.4,0.5c-0.2,0.5,0,1,0,1
		s0.1-0.3,0.3-0.4c0.2-0.1,0.3-0.1,0.3-0.1s0.1,0.2,0.3,0.4c0.1,0.1,0.4,0.2,0.4,0.2s-0.2,0.2-0.2,0.6c0,0.3,0,0.6,0,0.6
		s0.2-0.3,0.4-0.4c0.2-0.2,0.3-0.1,0.3-0.1s0.3,0.2,0.6,0.3c0.4,0.1,0.6,0,0.7,0c-0.1,0.1-0.2,0.2-0.2,0.5c0,0.4,0.1,0.6,0.1,0.6
		s0.3-0.2,0.4-0.3c0.1-0.1,0.4-0.1,0.4-0.1s0.2,0.1,0.7,0c0.9-0.1,1.3-1.1,1.8-1.6c0.7-0.7,2.3-1.1,2.3-1.1s-0.8-0.4-0.9-0.9
		c0.5,0,0.9,0,1.2-0.1c0.5-0.1,3.2-2.3,4.7-3.5c0.7,0,1.5-0.1,2.2-0.1c0.8,0.8,1.8,0.9,1.8,0.9l-0.6,1c0,0-2.3-0.1-3.6,0.9
		c-1.1,0.9-0.9,1.8-0.9,1.8s-0.2,0.8,0.6,1.3c0.4,0.3,0.9,0.3,0.9,0.3s0.5,0.3,1.1,0.5c0.7,0.2,1.5-0.1,1.5-0.1s1.6,0.4,2.7-0.5
		c1-0.9,1.9-3.3,2.3-4.1c0.1-0.1,0.1-0.2,0.2-0.4c2,2.2,2.7,7.8-3.7,11.5c-9.2,5.4-16.7-1.8-16.7-1.8s1.2-1.8-1.2-4.1
		c-2.5-2.4-6.7-0.5-6.7-0.5s1.5,0.6,2,1.6c0.4,0.7,0.7,3.2,2,4.1c1.1,0.8,2.6,0.2,2.6,0.2s6.5,7.8,17.5,4.1
		C70.2,69.6,71.2,56.5,67.5,50z M52.9,44.8l0.5-1.1c0,0,0.5-0.1,1.1-0.5c0.4-0.2,1.3-0.8,1.3-0.8l0.6,0c0,0-0.7,1-1.6,1.6
		C53.7,44.7,52.9,44.8,52.9,44.8z M54.6,44.8c0,0-0.6,0.9-1.6,1.5c-0.6,0.4-1.3,0.5-1.3,0.5l0.7-1.1c0,0,0.5-0.1,1.1-0.3
		C54.1,45.2,54.6,44.8,54.6,44.8z M55.4,40.7c0.6-0.3,1.2-0.9,1.2-0.9l0.7,0.1c0,0-1.2,1.4-2,1.9c-0.7,0.5-1.7,0.8-1.7,0.8l0.5-1.3
		C54.2,41.2,54.8,41,55.4,40.7z M54.5,40.3c0,0,0.1-0.6,0.2-0.9c0.1-0.3,0.9-0.7,1.5-1.4c0.7-0.6,1.1-1.3,1.1-1.3l0.7,0
		c0,0-0.4,1.2-1.4,2.3C55.6,40,54.5,40.3,54.5,40.3z M55.5,44.8c0,0,1.4-0.2,2.2-0.5c0.8-0.2,2.2-0.8,2.2-0.8l0.7,0.1
		c0,0-1.5,1.4-2.9,1.8c-1.4,0.4-2.9,0.3-2.9,0.3L55.5,44.8z M60.1,44.8C60.1,44.8,60.1,44.8,60.1,44.8
		C60.1,44.8,60.1,44.8,60.1,44.8z M58.7,43.1c-1.6,0.7-2.9,0.9-2.9,0.9s0.3-0.3,0.6-0.8c0.3-0.5,0.5-0.9,0.5-0.9s1.2-0.2,2-0.5
		c1.1-0.4,2.2-0.9,2.2-0.9l0.9-0.2C62.1,40.8,60.3,42.5,58.7,43.1z M61.3,40c-2.8,1.4-4.8,1.7-4.8,1.7s0.4-0.4,0.8-0.8
		c0.5-0.6,0.8-1.1,0.8-1.1s2-0.7,3.3-1.4c1.3-0.7,3-2.3,3-2.3l0.7-0.1C65.1,36.1,64.2,38.5,61.3,40z M66.3,32.2c0,0-1.3,3.3-4.8,5.3
		c-2.8,1.6-4.3,1.6-4.3,1.6s0.7-0.7,1-1c0.3-0.4,0.6-1.4,0.6-1.4s2.1-0.7,3.3-1.5c1-0.6,2.5-2.1,2.5-2.1L66.3,32.2z M59,33.9
		c0,0,1.8-0.9,2.9-1.6c1.2-0.8,3.6-2.9,3.6-2.9s-0.9,3-3.5,4.8c-2,1.4-4.1,1.9-4.1,1.9s0.3-0.6,0.7-1.2C58.9,34.4,59,33.9,59,33.9z
		 M49,30.7C49,30.7,49,30.7,49,30.7c0,0,1.9,0.6,2.4,1.3c0.6,1,0.3,2.3,0.3,2.3s-0.7-0.6-2-0.7c-1-0.1-2.4,0.2-3,0.3
		c-0.7,0.2-1.1,0.1-1.1,0.1s0.5-1.5,1.6-2.5C48,30.8,48.8,30.7,49,30.7z M49.4,34.1c0,0-1.1,0.7-1.5,1.2c-0.3,0.4-0.6,0.8-0.6,0.8
		s-0.3-0.1-1.1-0.6c-0.5-0.4-0.8-1-0.8-1s0.4,0,0.8,0c0.4-0.1,1-0.2,1.4-0.3C48.6,34,49.4,34.1,49.4,34.1z M38.3,58.4
		c-0.2,0.6,0.4,1.2,0.4,1.2s-1.3-0.1-2.8,0.7c-1.2,0.6-2.5,0.2-2.5,0.2s-0.1-0.5,0.2-1c0.3-0.4,1.6-0.6,1.6-0.6s-1.4-0.3-2.1,0.2
		c-0.4,0.3-0.6,1.2-0.6,1.2s-0.3,0-0.5-0.1c-0.2-0.1-0.2-0.3-0.2-0.3s0.1,0,0-0.3c-0.1-0.3,0-0.3,0-0.3s0.2-0.6,0.9-1
		c1.2-0.7,4.3,0.4,4.3,0.4l-0.4-0.6c0,0,0.5-0.2,1.6-1.4c0.4-0.5,1.3-1.8,1.9-2.6c0.4,0.4,0.8,0.8,1.3,1.1
		C40.4,56,38.6,57.5,38.3,58.4z M41.2,62.6c0,0-0.2-0.1-0.3-0.3c-0.2-0.3-0.1-0.8,0.3-1.2c0.5-0.6,2.2-0.5,2.2-0.5s-1,0.3-1.6,0.8
		C41.1,61.9,41.2,62.6,41.2,62.6z M48.7,60c-0.2,0.1-0.4,0.1-0.6,0.1c0.7-0.7,1.8-1.8,2.7-2.6c0.3,0,0.5,0,0.8,0
		C50.7,58.3,49.2,59.8,48.7,60z M39.9,68.9c-1.4,0.7-2.4-0.3-2.6-0.8c-0.2-0.5-0.7-2.2-1-2.8c-0.4-0.9-1.5-1.3-1.5-1.3
		s0.6-0.1,1.4-0.1c0.8,0,1.9,0.1,2.6,0.6C40.6,65.7,41.3,68.2,39.9,68.9z M49.8,74.1c-6.2-0.5-9.2-4.5-9.2-4.5l0.3-0.4
		c0,0,1.5,1.5,3.5,2.5c1.6,0.7,6.3,2.8,12.2,0.4c7.3-3,9.8-10.5,5.8-14.1c0.8-1.1,1.7-2.5,1.4-3c-0.2-0.5-0.7-1.5-0.9-1.7
		c-0.2-0.2-0.3-1.6-0.3-1.6l0,0c-0.1,0.3-0.3,0.9-0.3,1.5c0,0.9,0.5,1.1,0.6,1.9c0.1,0.6-0.5,1.3-1.1,2.3l0,0c0,0,0,0,0,0
		c-0.2,0.3-0.5,0.7-0.7,1.1c0,0,0,0,0,0l0,0c-0.1,0.1-0.1,0.2-0.2,0.3c-0.5,0.9-1.7,3.6-2.3,4.1C58,63.2,56.9,63,56.9,63
		s-0.1-0.2,0-0.6c0.1-0.4,0.6-1.2,0.6-1.2s-0.6,0.2-1,0.6c-0.4,0.5-0.3,1.2-0.3,1.2s-0.6,0.2-1.1,0.1c-0.5-0.1-0.7-0.4-0.7-0.4
		s-0.1-0.5,0.2-1c0.2-0.5,0.8-0.9,0.8-0.9s-0.5-0.1-1,0.3c-0.5,0.4-0.6,1.4-0.6,1.4s-0.5,0-0.5-0.6c0-0.3,0.1-1.1,1-1.6
		c1.4-0.8,4.3-0.5,4.3-0.5L58,59.6l0.9-1.4c0,0,0.3-0.2,0.6-0.4l0,0l0,0c0.2-0.1,0.4-0.3,0.6-0.5c0.1-0.1,0.3-0.3,0.3-0.4
		c0.1-0.1,0.1-0.2,0.2-0.3l0,0l0,0c0.1-0.3,0.2-0.4,0.2-0.4s-0.2,0.1-0.4,0.3c0,0,0,0-0.1,0c0,0-0.1,0.1-0.1,0.1c0,0-0.1,0-0.1,0.1
		c0,0-0.1,0-0.1,0.1c0,0-0.1,0-0.1,0.1c0,0,0,0,0,0c-0.1,0.1-0.2,0.1-0.4,0.1c0,0,0,0-0.1,0c-0.1,0-0.1,0-0.2,0.1c0,0,0,0,0,0
		c-0.8,0.2-1.9,0.1-2.8-1.2l0,0c-0.1-0.1-0.1-0.1-0.2-0.2c-1.2-1.9-0.5-5.4,0.8-7.1l0,0c0,0-3.2,3.3-2.3,6.8
		c0.1,0.2,0.1,0.4,0.2,0.6c-0.4,0-0.7,0.1-1.1,0.1c-0.4,0-0.8,0.1-1.3,0.1c0.3-0.4,0.3-1,0.4-1.3c0.1-0.4-0.4-1.1-0.4-1.1l0.7-0.2
		c0,0-0.5-0.3-1.1-0.8c-0.4-0.3-0.7-0.5-0.9-0.6c0,0.1,0,0.2,0.2,0.6c0.3,0.5,0.8,0.8,0.8,0.8l-0.6,0.2c0,0,0.2,0.4,0.1,1.1
		c-0.1,0.2-0.5,0.8-1.1,1.5l0,0c-0.2,0.2-0.3,0.4-0.5,0.6c0,0-0.1,0.1-0.1,0.1c-0.2,0.2-0.3,0.4-0.5,0.6c-0.3,0.3-0.6,0.6-0.8,1
		c0,0,0.1-0.1,0.1-0.1c-0.2,0.3-0.5,0.5-0.7,0.8c0,0-0.1,0.1-0.1,0.1c-0.1,0.1-0.1,0.1-0.2,0.2c0,0-0.1,0.1-0.1,0.1
		c-0.1,0.1-0.1,0.1-0.2,0.2c0,0-0.1,0.1-0.1,0.1c0,0.1-0.1,0.1-0.1,0.1c0,0,0,0-0.1,0.1c0,0.1-0.1,0.1-0.1,0.1
		c-0.1,0.1-0.2,0.3-0.2,0.4c0,0,0,0,0,0c0,0.1-0.1,0.2-0.1,0.3l0,0l0,0c0,0.6,0.6,0.8,0.6,0.8s-1.3,0.3-1.9,0.8
		c-0.3,0.3-0.9,1.5-1.5,1.4c-0.6-0.1-0.7-0.8-0.4-1.5c0.2-0.4,0.7-1,0.7-1s-0.4,0.1-0.9,0.6c-0.5,0.4-0.7,1.4-0.7,1.4
		s-0.4,0-0.6-0.1c-0.2-0.1-0.4-0.4-0.4-0.4s-0.3-0.8,0.5-1.3c0.7-0.5,1.6-0.6,2.3-1c0.9-0.4,2.3-2.4,3-3.7c0.1-0.2,0.2-0.3,0.2-0.5
		c0-0.1,0-0.1,0.1-0.2c0,0,0,0,0,0c0.2-0.6,0.3-1.5,0.4-2.2c-0.2,0.4-0.6,1.3-1.1,2.1c-1.3-0.2-2.6-0.5-3.9-1.2
		c-0.2-0.1-0.4-0.2-0.6-0.3l0,0c-0.7-0.4-1.2-0.8-1.8-1.3c0,0,0,0,0,0c-0.3-0.2-0.5-0.5-0.7-0.7c0,0,0,0,0,0
		c-0.2-0.2-0.4-0.5-0.6-0.8v0c-2.1-2.8-2.5-6.6-2.3-10.2c0.2-3.9,2.1-7.7,2.1-7.7s0.7,0.1,1.1,0.2c0.4,0.2,0.8,0.6,0.8,0.6
		s0-0.7-0.4-1c-0.2-0.3-1.4-0.4-2.5-1.4c-1.1-1-1.7-3.5-1.7-3.5s1.5,0.7,3.5,0.8c1.1,0,6.4-0.3,7.1-0.3c0.9,0,1.3,1.1,1.3,1.1
		s-1.4,0.1-2.3,1.2C45.3,33,45,34.3,45,34.3s0.1,0.6,0.8,1.4c0.6,0.7,1.4,1,1.4,1s-0.3,0.4-0.4,1l0,0c0,0,0,0,0,0
		c0,0.1,0,0.3-0.1,0.5c0,0,0,0.1,0,0.1c0,0.1,0,0.3,0,0.4c0,0.1,0,0.2,0,0.3c0,0.1,0,0.2,0,0.3c0,0.2,0.1,0.5,0.2,0.8
		c0.4,1.1,1.2,1.9,2.3,2.4c-0.2,0.5-0.4,0.9-0.5,1c-1.1,2-2.1,2.4-2.3,2.5c0.2,0,0.8-0.1,1.8-0.9c0.5-0.4,1.1-1.3,1.7-2.4
		c0,0,0,0,0,0c0,0,0,0,0,0c0.8-1.4,1.6-3.1,2.2-4c0,0,0,0,0,0c0.1-0.1,0.1-0.2,0.2-0.3c0.1-0.1,0.1-0.2,0.2-0.2
		c0-0.1,0.1-0.1,0.2-0.2c0,0,0,0,0.1-0.1c0.1-0.1,0.1-0.1,0.2-0.2c0,0,0.1-0.1,0.1-0.1c0.1-0.1,0.2-0.2,0.3-0.3c0,0,0,0,0,0
		c0.1-0.1,0.2-0.2,0.4-0.3c0,0,0.1-0.1,0.1-0.1c0.1-0.1,0.2-0.2,0.3-0.2c0,0,0.1-0.1,0.2-0.1c0.1-0.1,0.2-0.2,0.4-0.3
		c0,0,0.1,0,0.1-0.1l0,0c1.7-1.3,3.7-2.8,3.7-2.8S58,34.9,57,36.3c-1.5,2-2.1,1.7-2.9,2.9c-0.4,0.7-0.5,2-1.5,4.5
		c0.2-0.4,0.3-0.8,0.4-1.2c-0.1,0.4-0.3,0.8-0.4,1.2c-0.2,0.5-0.4,1-0.7,1.6c-0.5,1.2-0.8,2-1.3,2.4c0.4,0,0.9-0.1,1.3-0.3
		c0.8-0.3,1.8-0.9,1.8-0.9s2.5,0.1,4.2-0.5c0.6-0.2,1-0.4,1.5-0.7c1.1,0.4,2.3,0.9,3.3,1.5c7.1,4.5,6.3,14.3,3,19.6
		C63.2,70.6,57.5,74.7,49.8,74.1z"/>
</g>
</svg>
