<?xml version="1.0" encoding="utf-8"?>
<!-- Generator: Adobe Illustrator 24.1.3, SVG Export Plug-In . SVG Version: 6.00 Build 0)  -->
<svg version="1.1" id="Layer_1" xmlns="http://www.w3.org/2000/svg" xmlns:xlink="http://www.w3.org/1999/xlink" x="0px" y="0px"
	 viewBox="0 0 100 100" style="enable-background:new 0 0 100 100;" xml:space="preserve">
<style type="text/css">
	.st0{fill:#FFFFFF;}
</style>
<g>
	<path class="st0" d="M75,63.0999985c0,3.5,0,7,0,10.5c0,1.1999969-0.4000015,1.5-1.5,1.3000031
		c-7.9000015-1.1999969-15.7000008-2.3000031-23.5999985-3.3000031C48.5,71.4000015,48,70.9000015,48,69.4000015
		c0.0999985-5.5999985,0.0999985-11.2000008,0-16.7999992c0-1.2000008,0.4000015-1.5999985,1.5999985-1.5999985
		c8,0,15.9000015,0,23.9000015,0c1.3000031,0,1.5999985,0.5,1.5999985,1.5999985C75,56.0999985,75,59.5999985,75,63.0999985z"/>
	<path class="st0" d="M61.5999985,48.9000015c-4,0-8,0-11.9000015,0c-1.2000008,0-1.7000008-0.2999992-1.7000008-1.7000008
		c0.0999985-5.7000008,0.0999985-11.2999992,0-17c-0.2000008-0.7000008,0.2999992-1.5,1.0999985-1.6000004
		c0.0999985,0,0.2999992,0,0.4000015,0c8.1000023-1.1000004,16.2999992-2.2999992,24.3999977-3.5
		c1.4000015-0.2000008,1.1999969,0.7999992,1.1999969,1.5c0,5.1000004,0,10.1999989,0,15.3000011
		c0,1.9000015,0,3.7000008,0,5.5999985c0,1.0999985-0.4000015,1.5-1.5,1.5
		C69.5,48.9000015,65.5999985,48.9000015,61.5999985,48.9000015z"/>
	<path class="st0" d="M35.2999992,51c3,0,6,0,8.8999977,0c0.5999985-0.2000008,1.2000008,0.2000008,1.4000015,0.7999992
		c0,0.2000008,0.0999985,0.4000015,0,0.5c0,5.7999992,0,11.7000008,0,17.5000038c0,1-0.5,1.0999985-1.2999992,1
		c-5.9000015-0.9000015-11.7999992-1.6999969-17.7000008-2.5c-0.7999992,0.0999985-1.5-0.5999985-1.6000004-1.4000015
		c0-0.0999985,0-0.3000031,0-0.4000015c0.1000004-4.7000008,0.1000004-9.2999992,0-14c0-1.0999985,0.2999992-1.5,1.5-1.5
		C29.3999996,51.0999985,32.4000015,51,35.2999992,51z"/>
	<path class="st0" d="M35.2999992,48.9000015c-2.9000015,0-5.7999992,0-8.7999992,0c-1.1000004,0-1.5-0.4000015-1.5-1.5
		c0-4.5999985,0-9.2000008,0-13.7999992c-0.2000008-0.7000008,0.2999992-1.5,1-1.5999985c0.1000004,0,0.2999992,0,0.3999996,0
		c5.8999996-0.7999992,11.8000011-1.6000004,17.6999989-2.6000004c1.4000015-0.2000008,1.5,0.2999992,1.5,1.2999992
		c0,5.6000004,0,11.1999989,0,16.7999973c0,1.2000008-0.5,1.4000015-1.5999985,1.4000015H35.2999992z"/>
</g>
</svg>
