<?xml version="1.0" encoding="utf-8"?>
<!-- Generator: Adobe Illustrator 24.1.3, SVG Export Plug-In . SVG Version: 6.00 Build 0)  -->
<svg version="1.1" id="Layer_1" xmlns="http://www.w3.org/2000/svg" xmlns:xlink="http://www.w3.org/1999/xlink" x="0px" y="0px"
	 viewBox="0 0 101 101" style="enable-background:new 0 0 101 101;" xml:space="preserve">
<style type="text/css">
	.st0{fill:#FFFFFF;}
</style>
<g>
	<g>
		<g>
			<path class="st0" d="M22.4,44.2c-5.2,0-9.4,4.2-9.4,9.4s4.2,9.4,9.4,9.4s9.4-4.2,9.4-9.4S27.6,44.2,22.4,44.2z M22.4,58.4
				c-2.6,0-4.7-2.1-4.7-4.7c0-2.6,2.1-4.7,4.7-4.7s4.7,2.1,4.7,4.7S25,58.4,22.4,58.4z"/>
		</g>
		<path class="st0" d="M39,56.8c0-0.8,0.9-1.1,1.4-0.6c2.4,2.4,6.3,6.5,6.3,6.5c0.1,0.1,0.1,0.2,0.3,0.2c0.1,0,0.2,0,0.4,0h4.3
			c0.8,0,1-0.9,0.6-1.3l-7-7.2l-0.4-0.4c-0.8-1-0.7-1.3,0.2-2.3l5.6-6.2c0.4-0.5,0.1-1.3-0.7-1.3h-3.9c-0.1,0-0.3,0-0.4,0
			c-0.2,0.1-0.3,0.2-0.4,0.2c0,0-3.1,3.4-5,5.4c-0.5,0.6-1.5,0.2-1.5-0.6V38.6c0-0.5-0.4-0.8-0.8-0.8H35c-0.5,0-0.8,0.4-0.8,0.7
			v23.7c0,0.5,0.5,0.7,0.8,0.7h3.1c0.5,0,0.8-0.4,0.8-0.7V62L39,56.8L39,56.8z"/>
		<path class="st0" d="M64.7,62.2L64.4,59c0-0.4-0.5-0.7-0.9-0.7c-0.2,0-0.5,0.1-0.7,0.1c-2.5,0-4.6-2-4.7-4.5c0-0.1,0-0.2,0-0.3
			v-3.9c0-0.5,0.4-0.9,0.9-0.9h4.2c0.3,0,0.8-0.3,0.8-0.8v-3c0-0.6-0.4-0.9-0.7-0.9H59c-0.5,0-0.9-0.4-0.9-0.8v-4.8
			c0-0.3-0.2-0.8-0.8-0.8h-3.1c-0.4,0-0.8,0.2-0.8,0.7c0,0,0,15.3,0,15.4c0.1,5.1,4.3,9.2,9.4,9.2c0.4,0,0.8,0,1.3-0.1
			C64.5,63,64.8,62.6,64.7,62.2z"/>
	</g>
	<g>
		<path class="st0" d="M87.5,58.2c-2.7,0-3.1-1-3.1-4.5c0,0,0,0,0,0V45c0-0.3-0.2-0.8-0.8-0.8h-3.2c-0.4,0-0.8,0.3-0.8,0.8v0.4
			c-1.4-0.8-3-1.2-4.6-1.2c-5.2,0-9.4,4.2-9.4,9.4s4.2,9.4,9.4,9.4c2.3,0,4.5-0.9,6.1-2.3c0.9,1.3,2.3,2.2,4.5,2.3
			c0.4,0,2.4,0.1,2.4-0.9v-3.4C88,58.5,87.8,58.2,87.5,58.2z M74.9,58.4c-2.6,0-4.7-2.1-4.7-4.7c0-2.6,2.1-4.7,4.7-4.7
			c2.6,0,4.7,2.1,4.7,4.7C79.7,56.2,77.5,58.4,74.9,58.4z"/>
	</g>
</g>
</svg>
