<?xml version="1.0" encoding="utf-8"?>
<!-- Generator: Adobe Illustrator 26.1.0, SVG Export Plug-In . SVG Version: 6.00 Build 0)  -->
<svg version="1.1" id="Layer_1" xmlns="http://www.w3.org/2000/svg" xmlns:xlink="http://www.w3.org/1999/xlink" x="0px" y="0px"
	 viewBox="0 0 96 96" style="enable-background:new 0 0 96 96;" xml:space="preserve">
<style type="text/css">
	.st0{fill:#FFFFFF;}
</style>
<g>
	<path class="st0" d="M92.13779,43.88808L52.01868,3.77039c-2.3096-2.311-6.05669-2.311-8.3692,0l-8.3301,8.3316l10.5674,10.5678
		c2.4561-0.8296,5.2725-0.2729,7.2295,1.6846c1.9688,1.96969,2.5205,4.8101,1.6699,7.2749l10.1856,10.1846
		c2.4648-0.8496,5.30659-0.3003,7.2754,1.6709c2.75,2.7495,2.75,7.206,0,9.9575c-2.752,2.7515-7.208,2.7515-9.961,0
		c-2.0683-2.0703-2.58-5.1099-1.53119-7.65821l-9.5-9.499v24.99661c0.66989,0.332,1.30269,0.77439,1.86129,1.3315
		c2.75,2.7495,2.75,7.2056,0,9.9595c-2.75,2.749-7.209,2.749-9.957,0c-2.75-2.7539-2.75-7.21,0-9.9595
		c0.67971-0.6792,1.4668-1.1929,2.3066-1.5366v-25.2281c-0.8398-0.3437-1.625-0.853-2.3066-1.5366
		c-2.083-2.082-2.584-5.1396-1.5156-7.6977l-10.418-10.4195L3.71589,43.70208c-2.3105,2.313-2.3105,6.06,0,8.37111l40.12111,40.1176
		c2.30959,2.3106,6.05569,2.3106,8.36919,0l39.9316-39.93159C94.44929,49.94769,94.44929,46.19859,92.13779,43.88808z"/>
</g>
</svg>
