<svg xmlns="http://www.w3.org/2000/svg" viewBox="0 0 24 24"><g fill="#ffffff" transform="translate(0, 0) scale(1, 1) "><path d="M18,9.5A2.49248,2.49248,0,0,0,13.51129,8H10.48871a2.43563,2.43563,0,1,0,.46087,1h2.10084A2.5,2.5,0,1,0,18,9.5Z"/><path d="M20,5H17V2a2,2,0,0,0-2-2H9A2,2,0,0,0,7,2V5H4V6H20Z"/><path d="M5,17H4a4,4,0,0,0-4,4v3H8L7,23l2-2Z"/><path d="M20,17H19l-4,4,2,2-1,1h8V21A4,4,0,0,0,20,17Z"/><rect x="11" y="20" width="2" height="4"/><polygon points="12 18 11 20 13 20 12 18"/></g></svg>