<?xml version="1.0" encoding="utf-8"?>
<!-- Generator: Adobe Illustrator 25.2.0, SVG Export Plug-In . SVG Version: 6.00 Build 0)  -->
<svg version="1.1" id="Layer_1" xmlns="http://www.w3.org/2000/svg" xmlns:xlink="http://www.w3.org/1999/xlink" x="0px" y="0px"
	 viewBox="0 0 100 100" style="enable-background:new 0 0 100 100;" xml:space="preserve">
<style type="text/css">
	.st0{fill:#326CE5;}
	.st1{fill:#FFFFFF;}
</style>
<g>
	<path class="st0" d="M49.7,1.5c-0.9,0-1.8,0.3-2.6,0.6L12.4,18.8c-1.8,0.9-3.2,2.5-3.6,4.5L0.2,60.6c-0.4,1.7-0.1,3.6,0.9,5.1
		l0.4,0.5L25.5,96c1.3,1.6,3.2,2.5,5.2,2.5h38.6c2,0,3.9-0.9,5.2-2.5l24.1-29.9c1.3-1.6,1.7-3.6,1.3-5.6l-8.5-37.3
		c-0.5-2-1.8-3.6-3.6-4.5L52.9,2.2C51.9,1.7,50.8,1.5,49.7,1.5L49.7,1.5z"/>
	<path class="st1" d="M50,14.2c-1.2,0.1-2.1,1.1-2.1,2.3c0,0,0,0,0,0l0,0c0,0.2,0,0.4,0,0.5c0.1,0.7,0.1,1.3,0.3,2
		c0.2,1.2,0.3,2.5,0.2,3.8c-0.1,0.4-0.3,0.8-0.7,1.1v0.9c-1.3,0.1-2.5,0.3-3.8,0.6c-5.2,1.2-10,3.9-13.7,7.8l-0.7-0.5
		c-0.4,0.1-0.8,0.1-1.2-0.1c-1-0.8-2-1.6-2.8-2.5c-0.4-0.5-0.9-1-1.4-1.5l-0.5-0.4c-0.4-0.3-0.9-0.5-1.5-0.6c-0.6,0-1.3,0.2-1.7,0.7
		c-0.7,1-0.5,2.4,0.5,3.1l0,0l0.4,0.4c0.6,0.4,1.1,0.7,1.7,1c1.1,0.6,2.2,1.4,3.1,2.2c0.2,0.4,0.4,0.8,0.4,1.2l0.7,0.6
		c-3.7,5.5-5.2,12.2-4.2,18.8l-0.8,0.4c-0.2,0.4-0.5,0.7-0.9,0.9c-1.2,0.3-2.5,0.5-3.7,0.6c-0.7,0-1.3,0.1-2,0.2l-0.6,0.1l0,0
		c-1.1,0.2-1.9,1.2-1.8,2.4c0.2,1.1,1.2,1.9,2.4,1.8c0.1,0,0.2,0,0.3-0.1l0,0l0.5-0.1c0.6-0.2,1.2-0.5,1.7-0.8
		c1.2-0.4,2.4-0.8,3.6-1c0.4,0,0.8,0.2,1.2,0.4l0.9-0.2c2,6.3,6.3,11.6,12,14.9l-0.4,0.9c0.2,0.4,0.2,0.8,0.2,1.2
		c-0.5,1.2-1.2,2.3-2,3.4c-0.4,0.5-0.8,1.1-1.1,1.7l-0.3,0.6c-0.6,1-0.2,2.3,0.8,2.8c1,0.6,2.3,0.2,2.8-0.8c0-0.1,0.1-0.2,0.1-0.2
		l0,0l0.3-0.5c0.2-0.6,0.4-1.3,0.6-2c0.4-1.3,0.9-2.6,1.6-3.7c0.3-0.2,0.6-0.4,0.9-0.4l0.5-0.8c6.2,2.4,13,2.4,19.2,0l0.5,0.8
		c0.4,0.1,0.8,0.3,1.1,0.6c0.6,1.1,1.1,2.3,1.4,3.5c0.2,0.7,0.4,1.3,0.6,2l0.3,0.5c0.4,1.1,1.6,1.6,2.7,1.2s1.6-1.6,1.2-2.7
		c0-0.1-0.1-0.2-0.2-0.3l-0.3-0.6c-0.3-0.6-0.7-1.1-1-1.7c-0.7-1-1.3-2.1-1.8-3.3c-0.1-0.4-0.1-0.8,0.2-1.2
		c-0.1-0.3-0.2-0.6-0.3-0.8c5.7-3.4,10-8.8,12-15.1l0.9,0.2c0.3-0.3,0.7-0.4,1.2-0.4c1.2,0.2,2.4,0.6,3.6,1.1
		c0.6,0.3,1.2,0.5,1.9,0.7l0.5,0.1l0,0c1.1,0.3,2.3-0.3,2.6-1.4c0.3-1.1-0.3-2.3-1.4-2.6c-0.1,0-0.2-0.1-0.3-0.1l-0.6-0.1
		c-0.7-0.1-1.3-0.1-2-0.2c-1.3-0.1-2.5-0.3-3.7-0.6c-0.4-0.2-0.7-0.5-0.9-0.9l-0.8-0.2c0.9-6.6-0.6-13.2-4.3-18.7l0.7-0.7
		c0-0.4,0.1-0.9,0.4-1.2c1-0.8,2-1.6,3.1-2.2c0.6-0.3,1.2-0.6,1.7-1l0.5-0.4c1-0.6,1.2-1.9,0.6-2.9c-0.6-1-1.9-1.2-2.9-0.6
		c-0.1,0.1-0.2,0.1-0.3,0.2l-0.5,0.4c-0.5,0.5-0.9,0.9-1.4,1.5c-0.8,0.9-1.7,1.8-2.7,2.5c-0.4,0.2-0.8,0.2-1.3,0.1l-0.8,0.6
		c-4.6-4.8-10.7-7.7-17.3-8.3c0-0.3,0-0.8,0-0.9c-0.4-0.2-0.6-0.6-0.7-1c0-1.3,0-2.5,0.2-3.8c0.1-0.6,0.2-1.3,0.3-2
		c0-0.2,0-0.4,0-0.6C52.2,15.3,51.3,14.3,50,14.2C50.1,14.2,50,14.2,50,14.2L50,14.2z M47.4,30.3l-0.6,10.9l0,0c0,1-0.9,1.8-1.9,1.7
		c-0.4,0-0.7-0.1-1-0.4l0,0l-9-6.3c2.8-2.8,6.4-4.7,10.3-5.6C45.9,30.5,46.7,30.4,47.4,30.3z M52.6,30.3c4.7,0.6,9.1,2.7,12.5,6
		l-8.9,6.3l0,0c-0.8,0.6-2,0.4-2.6-0.4c-0.2-0.3-0.3-0.6-0.4-1l0,0L52.6,30.3z M31.6,40.4l8.2,7.3l0,0c0.8,0.7,0.8,1.8,0.2,2.6
		c-0.2,0.3-0.6,0.5-0.9,0.6l0,0l-10.5,3C28.1,49.2,29.1,44.4,31.6,40.4L31.6,40.4L31.6,40.4z M68.4,40.4c2.5,4,3.6,8.8,3.1,13.5
		l-10.5-3l0,0c-1-0.3-1.6-1.3-1.3-2.2c0.1-0.4,0.3-0.7,0.6-0.9l0,0L68.4,40.4L68.4,40.4L68.4,40.4z M48.3,48.3h3.3l2.1,2.6L53,54.1
		l-3,1.5l-3-1.5l-0.7-3.2L48.3,48.3z M59.1,57.2h0.4l0,0L70.3,59c-1.6,4.5-4.6,8.3-8.7,10.9l-4.2-10.1l0,0c-0.4-0.9,0.1-2,1-2.4
		C58.7,57.3,58.9,57.3,59.1,57.2L59.1,57.2L59.1,57.2z M40.9,57.2c1,0,1.8,0.8,1.8,1.9c0,0.2-0.1,0.5-0.2,0.7l0,0l-4.2,10
		c-4-2.6-7-6.4-8.6-10.8l10.7-1.8l0,0L40.9,57.2L40.9,57.2L40.9,57.2z M50,61.6c0.7,0,1.3,0.4,1.7,1l0,0l5.3,9.6
		c-0.7,0.2-1.4,0.4-2.1,0.6c-3.9,0.9-8,0.7-11.8-0.6l5.3-9.6l0,0C48.7,62,49.3,61.6,50,61.6z"/>
	<path class="st1" d="M34.6,85.8c-0.3,0-0.6-0.1-0.8-0.2c-1.1-0.6-1.5-1.9-0.9-3v-0.2l0.2-0.4c0.2-0.4,0.5-0.8,0.7-1.1l0.4-0.6
		c0.8-1.1,1.4-2.2,2-3.4c0.1-0.4,0-0.8-0.2-1.2l0,0l0.3-0.9c-5.7-3.4-10-8.7-12-15l-0.9,0.2l0,0l0,0c-0.3-0.2-0.7-0.3-1.1-0.4l0,0
		c-1.3,0.2-2.5,0.5-3.7,1l0,0L18,61c-0.4,0.2-0.8,0.3-1.3,0.5h-0.4h-0.2l0,0c-1.1,0.4-2.3-0.3-2.6-1.4c-0.4-1.1,0.3-2.3,1.4-2.6
		c0.1,0,0.2-0.1,0.3-0.1l0,0h0.2h0.4c0.4-0.1,0.9-0.1,1.3-0.1h0.7l0,0c1.2-0.1,2.5-0.3,3.7-0.6c0.3-0.2,0.6-0.5,0.8-0.8v-0.1l0,0
		l0.9-0.3c-0.9-6.6,0.6-13.2,4.2-18.8l-0.6-0.5l0,0l0,0c0-0.4-0.2-0.8-0.4-1.1c-1-0.8-2-1.5-3.1-2.2l-0.6-0.3
		c-0.4-0.2-0.8-0.4-1.1-0.7l-0.3-0.2l-0.1-0.1l0,0c-1-0.7-1.4-2-0.7-3.1c0-0.1,0.1-0.1,0.1-0.2c0.4-0.5,1-0.8,1.6-0.7l0,0
		c0.5,0,1,0.2,1.5,0.6h0.1l0.3,0.3c0.3,0.3,0.6,0.6,0.9,1l0.5,0.5l0,0c0.9,1,1.8,1.8,2.9,2.6c0.3,0.2,0.7,0.2,1.1,0.1h0.2l0.7,0.5
		c3.7-3.9,8.4-6.6,13.6-7.8c1.2-0.3,2.5-0.5,3.8-0.6v-0.9l0,0c0.3-0.3,0.6-0.7,0.7-1.1c0-1.2,0-2.5-0.2-3.7l0,0c0-0.2,0-0.5-0.1-0.7
		c-0.1-0.4-0.2-0.9-0.2-1.3c0-0.1,0-0.2,0-0.4v-0.3l0,0l0,0c-0.1-1.2,0.9-2.3,2.1-2.4c0,0,0.1,0,0.1,0c0.6,0,1.1,0.3,1.5,0.7
		c0.4,0.5,0.6,1,0.6,1.7c0,0,0,0.1,0,0.2s0,0.3,0,0.4c0,0.5,0,0.9-0.1,1.4c0,0.2,0,0.4-0.1,0.7v0.1c-0.2,1.2-0.3,2.4-0.2,3.7
		c0.1,0.4,0.3,0.7,0.6,0.9l0.1,0.1l0,0c0,0.2,0,0.6,0,0.9c3.3,0.3,6.5,1.1,9.5,2.6c2.9,1.4,5.6,3.4,7.9,5.7l0.8-0.6h0.1
		c0.4,0,0.7,0,1.1-0.2c1-0.7,1.9-1.6,2.7-2.5l0,0l0.4-0.5c0.3-0.3,0.6-0.7,0.9-1l0.3-0.3l0.1-0.1c0.9-0.8,2.3-0.7,3.1,0.2
		c0.4,0.4,0.5,1,0.4,1.6c-0.1,0.6-0.4,1.1-0.9,1.5l-0.2,0.1l-0.3,0.3c-0.4,0.3-0.7,0.5-1.1,0.7l-0.6,0.3c-1.1,0.6-2.1,1.3-3,2.1
		c-0.3,0.3-0.4,0.6-0.4,1v0.2l0,0l-0.3,0.3l-0.4,0.4c3.7,5.5,5.2,12.2,4.3,18.7l0.7,0.2l0,0l0,0c0.2,0.3,0.5,0.6,0.8,0.8
		c1.2,0.3,2.4,0.5,3.7,0.6l0,0h0.7c0.4,0,0.9,0,1.3,0.1h0.4h0.2c1.2,0.2,2,1.2,1.8,2.4c-0.2,1.2-1.2,2-2.4,1.8c-0.1,0-0.2,0-0.3-0.1
		l0,0h-0.2h-0.3c-0.4-0.1-0.8-0.3-1.2-0.5l-0.5-0.1l0,0c-1.1-0.5-2.3-0.8-3.6-1c-0.4,0-0.7,0.1-1,0.3h-0.1l0,0l-0.9-0.2
		c-1,3.1-2.5,6-4.6,8.6c-2.1,2.6-4.6,4.8-7.5,6.5l0.1,0.3c0.1,0.2,0.1,0.4,0.2,0.6l0,0V76c-0.2,0.3-0.2,0.7-0.1,1.1
		c0.5,1.2,1,2.3,1.7,3.3l0.4,0.6c0.3,0.3,0.5,0.7,0.7,1.1l0.2,0.4v0.2c0.6,1.1,0.2,2.4-0.9,3c-0.5,0.2-1.1,0.2-1.6,0
		c-0.6-0.2-1-0.7-1.3-1.2v-0.2l-0.2-0.4c-0.2-0.4-0.3-0.8-0.4-1.3c0-0.2-0.1-0.4-0.2-0.6l0,0c-0.4-1.2-0.8-2.3-1.4-3.4
		c-0.2-0.3-0.5-0.5-0.9-0.6h-0.1l0,0l-0.2-0.4l-0.2-0.4c-6.2,2.4-13,2.4-19.2,0L40,77.9l0,0c-0.3,0.1-0.6,0.2-0.9,0.4
		c-0.5,0.8-0.9,1.6-1.2,2.5c-0.1,0.4-0.3,0.8-0.5,1.2c-0.2,0.4-0.1,0.4-0.2,0.6c-0.1,0.4-0.2,0.9-0.4,1.3l-0.2,0.4v0.2l0,0
		C36.3,85.3,35.5,85.8,34.6,85.8z M36,75.9c0.2,0.4,0.2,0.8,0.2,1.2c-0.5,1.2-1.2,2.3-2,3.4L33.8,81c-0.3,0.4-0.5,0.7-0.7,1.1
		l-0.2,0.4v0.2c-0.6,1-0.2,2.2,0.8,2.8c1,0.6,2.2,0.2,2.8-0.8c0.1-0.1,0.1-0.2,0.1-0.3l0,0v-0.2l0.2-0.4c0.2-0.4,0.3-0.8,0.4-1.3
		c0-0.2,0.1-0.4,0.2-0.6c0.1-0.2,0.3-0.8,0.5-1.2c0.2-0.9,0.6-1.8,1.2-2.5c0.3-0.2,0.6-0.4,0.9-0.4l0.5-0.9l0,0
		c6.2,2.4,13,2.4,19.2,0l0,0l0.3,0.6l0.2,0.4h0.1c0.4,0.1,0.7,0.3,0.9,0.6c0.6,1.1,1.1,2.3,1.4,3.4l0,0c0,0.2,0.1,0.4,0.2,0.6
		c0.1,0.4,0.2,0.8,0.4,1.3l0.2,0.4v0.2c0.3,0.5,0.7,1,1.2,1.2c0.5,0.2,1.1,0.2,1.6,0c1-0.6,1.4-1.9,0.9-2.9v-0.2L66.8,82
		c-0.2-0.4-0.5-0.8-0.7-1.1l-0.4-0.5c-0.7-1-1.3-2.1-1.8-3.3c-0.1-0.4-0.1-0.8,0.1-1.1v-0.1c-0.1-0.2-0.2-0.4-0.2-0.6V75l0,0
		c5.7-3.4,10-8.8,12-15.1l0,0l0.9,0.2h0.1c0.3-0.2,0.7-0.4,1-0.4c1.2,0.2,2.4,0.6,3.6,1l0,0l0.6,0.3c0.4,0.2,0.8,0.3,1.2,0.5h0.3
		h0.2l0,0c1,0.5,2.3,0,2.7-1c0.5-1,0-2.3-1-2.7c-0.3-0.1-0.5-0.2-0.8-0.2h-0.2h-0.4c-0.4-0.1-0.9-0.1-1.3-0.1h-0.7l0,0
		c-1.2-0.1-2.5-0.3-3.7-0.6c-0.3-0.2-0.6-0.6-0.7-1l0,0l-0.8-0.3l0,0c0.9-6.6-0.6-13.2-4.3-18.7l0,0l0.4-0.4l0.3-0.3v-0.3
		c0-0.4,0.1-0.8,0.4-1c1-0.8,2-1.6,3.1-2.2l0.6-0.3c0.4-0.2,0.8-0.4,1.1-0.7l0.3-0.2l0.2-0.1c0.5-0.4,0.8-0.9,0.9-1.5
		c0.1-0.5,0-1.1-0.4-1.6c-0.8-0.9-2.2-1-3.1-0.2c0,0,0,0,0,0l-0.1,0.1l-0.3,0.3c-0.3,0.3-0.6,0.6-0.9,1L74.5,30l0,0
		c-0.9,0.9-1.8,1.8-2.9,2.5c-0.4,0.2-0.8,0.2-1.2,0.2h-0.1l-0.8,0.6l0,0c-2.3-2.4-4.9-4.3-7.9-5.7c-3-1.4-6.1-2.3-9.4-2.6l0,0
		c0-0.3,0-0.8,0-0.9l-0.1-0.1c-0.3-0.2-0.5-0.6-0.6-0.9c0-1.2,0-2.5,0.2-3.7v-0.2c0-0.2,0-0.5,0.1-0.7c0.1-0.4,0.2-0.9,0.2-1.3
		c0-0.1,0-0.3,0-0.4c0-0.1-0.1-0.2-0.1-0.2c0-0.6-0.2-1.2-0.6-1.6c-0.3-0.4-0.8-0.6-1.4-0.7l0,0c-1.2,0.1-2,1.1-2,2.3l0,0v0.2
		c0,0.1,0,0.3,0,0.4c0,0.5,0,0.9,0,1.4c0,0.2,0,0.4,0.1,0.7l0,0c0.2,1.2,0.3,2.5,0.2,3.8c-0.1,0.4-0.3,0.8-0.7,1.1v0.9l0,0
		c-1.3,0.1-2.5,0.3-3.8,0.6c-5.2,1.2-10,3.8-13.6,7.7l0,0l-0.7-0.5h-0.1c-0.4,0.1-0.7,0.1-1.1-0.1c-1-0.7-1.9-1.6-2.8-2.5l0,0
		l-0.5-0.5c-0.3-0.3-0.6-0.7-0.9-0.9l-0.4-0.3h-0.1c-0.4-0.3-0.9-0.5-1.4-0.6c-0.6,0-1.3,0.2-1.7,0.7c-0.7,1-0.5,2.3,0.5,3
		c0,0,0,0,0,0l0,0l0.1,0.1l0.3,0.2c0.4,0.3,0.7,0.5,1.1,0.7l0.6,0.3c1.1,0.6,2.2,1.3,3.1,2c0.2,0.3,0.4,0.7,0.4,1.1l0,0l0.7,0.6l0,0
		c-3.7,5.5-5.2,12.2-4.2,18.8l0,0l-0.8,0.4V56c-0.2,0.3-0.5,0.6-0.8,0.8c-1.2,0.3-2.4,0.5-3.7,0.6l0,0h-0.7c-0.4,0-0.9,0-1.3,0.1
		h-0.4h-0.2l0,0c-1.1,0-2,1-2,2.1c0,1.1,1,2,2.1,2c0.3,0,0.6-0.1,0.8-0.2l0,0h0.2h0.4c0.4-0.1,0.8-0.3,1.2-0.5l0.5-0.2l0,0
		c1.2-0.4,2.4-0.8,3.6-1c0.4,0,0.8,0.1,1.1,0.4l0,0l0.9-0.2l0,0c2,6.3,6.3,11.6,12,14.9l0,0L36,75.9z M50,73.3
		c-2.4,0-4.7-0.4-6.9-1.1l0,0l5.3-9.6l0,0c0.3-0.6,1-1,1.7-1c0.7,0,1.3,0.4,1.7,1l0,0l5.3,9.6l0,0c-0.7,0.2-1.4,0.4-2.1,0.6
		C53.3,73.1,51.7,73.3,50,73.3z M43.1,72.1c3.8,1.3,7.9,1.5,11.8,0.6c0.7-0.2,1.4-0.4,2.1-0.6l-5.3-9.5l0,0c-0.3-0.6-1-1-1.7-0.9
		l0,0c-0.6,0-1.2,0.4-1.5,1l0,0L43.1,72.1z M61.6,69.9L61.6,69.9l-4.2-10.1l0,0c-0.4-1,0.1-2,1-2.4c0.2-0.1,0.4-0.1,0.6-0.1h0.5
		L70.4,59l0,0C68.8,63.5,65.7,67.4,61.6,69.9L61.6,69.9L61.6,69.9z M57.5,59.8l4.2,10.1c4-2.6,7-6.4,8.6-10.9l-10.8-1.8l0,0h-0.4
		l0,0c-1,0-1.8,0.9-1.8,1.9C57.3,59.4,57.4,59.6,57.5,59.8L57.5,59.8z M38.4,69.9L38.4,69.9c-4-2.6-7-6.4-8.6-10.8l0,0l10.8-1.8h0.4
		c1,0,1.8,0.9,1.8,1.9c0,0.2,0,0.4-0.1,0.6l0,0l0,0L38.4,69.9z M29.8,59.1c1.6,4.4,4.6,8.2,8.6,10.8l4.1-10.1l0,0l0,0
		c0.4-0.9,0-2-0.9-2.4c-0.2-0.1-0.5-0.2-0.7-0.2h-0.4l0,0L29.8,59.1z M50,55.6L50,55.6l-3-1.5l0,0l-0.7-3.2l0,0l2.1-2.6h3.4l2.1,2.6
		L53,54.2l0,0L50,55.6z M47,54.1l3,1.4l3-1.4l0.7-3.2l-2.1-2.6h-3.3l-2.1,2.6L47,54.1z M28.6,54L28.6,54c-0.5-4.7,0.6-9.5,3-13.6
		l0,0l8.2,7.3l0,0c0.8,0.7,0.8,1.8,0.2,2.6c-0.2,0.3-0.5,0.5-0.9,0.6l0,0l0,0L28.6,54z M31.6,40.5c-2.5,4-3.5,8.8-3,13.4l10.4-3l0,0
		l0,0c1-0.3,1.5-1.2,1.3-2.2c-0.1-0.4-0.3-0.7-0.6-0.9l0,0l0,0L31.6,40.5z M71.5,53.9L71.5,53.9l-10.5-3l0,0c-1-0.3-1.6-1.3-1.3-2.3
		c0.1-0.3,0.3-0.7,0.6-0.9l0,0l8.1-7.3l0,0C70.8,44.4,71.9,49.2,71.5,53.9L71.5,53.9L71.5,53.9z M61,50.8l10.5,3.1
		c0.4-4.7-0.7-9.4-3.1-13.5l-8.1,7.3l0,0c-0.8,0.6-0.9,1.8-0.2,2.5C60.3,50.5,60.6,50.7,61,50.8L61,50.8L61,50.8L61,50.8z M44.9,43
		c-0.4,0-0.8-0.1-1.1-0.4l0,0l-9-6.3l0,0c2.9-2.8,6.4-4.7,10.3-5.6c0.7-0.1,1.5-0.3,2.2-0.3l0,0l-0.6,10.9l0,0
		C46.8,42.2,45.9,43.1,44.9,43L44.9,43z M43.8,42.6L43.8,42.6c0.8,0.6,1.9,0.4,2.5-0.4c0.2-0.3,0.3-0.7,0.4-1l0,0l0.7-10.9
		c-0.7,0.1-1.5,0.2-2.2,0.4c-3.9,0.9-7.5,2.8-10.3,5.6L43.8,42.6L43.8,42.6L43.8,42.6z M55.1,42.9c-1,0-1.8-0.8-1.8-1.8l0,0
		l-0.6-10.9l0,0c4.7,0.6,9.1,2.7,12.5,6l0,0l-8.9,6.3l0,0C55.9,42.9,55.5,43,55.1,42.9L55.1,42.9z M53.2,41.1L53.2,41.1
		c0.1,1,0.9,1.8,1.9,1.7c0.4,0,0.7-0.1,1-0.3l0,0l8.9-6.3c-3.4-3.3-7.8-5.3-12.4-5.9L53.2,41.1z"/>
</g>
</svg>
