<?xml version="1.0" encoding="UTF-8"?>
<svg width="30px" height="30px" viewBox="0 0 30 30" version="1.1" xmlns="http://www.w3.org/2000/svg" xmlns:xlink="http://www.w3.org/1999/xlink">
    <!-- Generator: Sketch 63.1 (92452) - https://sketch.com -->
    <title>icon/仓库</title>
    <desc>Created with Sketch.</desc>
    <g id="200722harbor" stroke="none" stroke-width="1" fill="none" fill-rule="evenodd">
        <g id="项目列表" transform="translate(-277.000000, -204.000000)" fill-rule="nonzero">
            <g id="仓库" transform="translate(265.000000, 189.000000)">
                <g transform="translate(11.033223, 15.000000)">
                    <rect id="矩形" fill="#000000" opacity="0" x="1" y="0" width="30.0664452" height="30"></rect>
                    <path d="M4.77681947,8.44776119 L16.0480336,1.89552239 L17.3958398,2.68656716 L18.1660148,2.23880597 L16.0332226,1 L4.00664452,8 L4.00664452,17.6716418 L4.77681947,17.6716418 L4.77681947,8.44776119 Z M16.0332226,28.1044776 L4.77681947,21.5522388 L4.77681947,20.0597015 L4.00664452,20.0597015 L4.00664452,22 L16.0332226,29 L24.223737,24.2537313 L23.453562,23.7910448 L16.0332226,28.1044776 Z M20.06183,3.35820896 L19.2916551,3.80597015 L27.2896257,8.44776119 L27.2896257,21.5522388 L25.3789994,22.6567164 L26.1491743,23.119403 L28.0598007,22.0149254 L28.0598007,8.01492537 L20.06183,3.35820896 Z" id="形状" fill="#268BCF"></path>
                    <path d="M15.8898798,15.4503817 C15.8898798,15.4351145 12.1321665,13.2977099 12.1321665,13.2977099 L15.8744793,15.4198473 L25.0377557,10.2137405 L21.2800424,8.07633588 L21.1722391,8 L12.0243632,13.2366412 L12.0243632,15.8015267 L12.1321665,15.8625954 L15.8898798,18 L15.8898798,17.9847328 L25.0531561,12.778626 L25.0531561,10.2137405 L15.8898798,15.4198473 L15.8898798,15.4503817 Z" id="路径" fill="#268BCF"></path>
                    <polygon id="路径" fill="#268BCF" points="12.344971 17.1748527 10.709114 16.2003929 7.01328904 14 7.01328904 16.6247544 10.709114 18.8251473 12.344971 19.7996071 16.040796 22 25.0531561 16.6404715 25.0531561 14.0157171 16.040796 19.3752456"></polygon>
                    <path d="M12.3342919,21.3044428 L7.01328904,18.214858 L7.01328904,20.7691187 L12.3342919,23.8587036 L16.0332226,26 L25.0531561,20.7538237 L25.0531561,18.184268 L16.0332226,23.4304443 C16.0332226,23.4457393 12.3342919,21.3044428 12.3342919,21.3044428 Z M7.02844859,10.2461763 L7.01328904,10.2461763 L7.01328904,12.800437 L10.7122198,14.9417334 L10.8183366,15.0029133 L10.8183366,12.4486526 L19.8231106,7.20247633 L19.7169938,7.14129643 L16.0332226,5 L7.02844859,10.2461763 Z" id="形状" fill="#268BCF"></path>
                </g>
            </g>
        </g>
    </g>
</svg>