<?xml version="1.0" encoding="utf-8"?>
<!-- Generator: Adobe Illustrator 24.1.3, SVG Export Plug-In . SVG Version: 6.00 Build 0)  -->
<svg version="1.1" id="Layer_1" xmlns="http://www.w3.org/2000/svg" xmlns:xlink="http://www.w3.org/1999/xlink" x="0px" y="0px"
	 viewBox="0 0 48 48" style="enable-background:new 0 0 48 48;" xml:space="preserve">
<style type="text/css">
	.st0{fill:#37474F;}
	.st1{fill:#E91E63;}
</style>
<path class="st0" d="M35,29c-1.4691162,0-2.7455444,0.8115845-3.44104,2H20v2c0,3.2999878-2.7000122,6-6,6s-6-2.7000122-6-6
	c0-2.7000122,1.9000244-5.0999756,4.5-5.7999878l-1-3.9000244C7.0999756,24.5,4,28.4000244,4,33c0,5.5,4.5,10,10,10
	c4.7999878,0,8.9000244-3.4000244,9.7999878-8H31.55896c0.6954956,1.1884155,1.9719238,2,3.44104,2c2.2000122,0,4-1.7999878,4-4
	S37.2000122,29,35,29z"/>
<path class="st0" d="M35.0999756,23c-1,0-2,0.2000122-3,0.5l-3.6618652-6.4946289C28.7860107,16.4129028,29,15.7330933,29,15
	c0-2.2000122-1.7999878-4-4-4s-4,1.7999878-4,4c0,2.1869507,1.7796631,3.9749756,3.9619141,3.9961548l5.4381104,9.803833
	l1.6999512-1C33,27.4000244,34,27.0999756,35,27.0999756c3.2999878,0,6,2.7000122,6,6c0,3.3000488-2.7000122,6-6,6
	c-1.7999878,0-3.5999756-0.8999634-4.7000122-2.2999878l-3.0999756,2.5C29.0999756,41.5999756,32,43,35,43
	c5.5,0,10.0999756-4.5,10.0999756-10S40.5999756,23,35.0999756,23z"/>
<path class="st1" d="M25,5c-5.5,0-10,4.5-10,10c0,2.7999878,1.2000122,5.4000244,3.2000122,7.2999878l-4.0825195,6.7119751
	C14.0775757,29.0107422,14.0402222,29,14,29c-2.2000122,0-4,1.7999878-4,4s1.7999878,4,4,4s4-1.7999878,4-4
	c0-0.6972656-0.1966553-1.3445435-0.5137329-1.9168701l6.1137085-9.9831543l-1.6999512-1C20.0999756,19,19,17.0999756,19,15
	c0-3.2999878,2.7000122-6,6-6s6,2.7000122,6,6c0,0.5-0.0999756,1-0.2000122,1.5l3.9000244,1
	C34.9000244,16.7000122,35,15.9000244,35,15C35,9.5,30.5,5,25,5z"/>
</svg>
