<?xml version="1.0" encoding="utf-8"?>
<!-- Generator: Adobe Illustrator 24.1.3, SVG Export Plug-In . SVG Version: 6.00 Build 0)  -->
<svg version="1.1" id="Layer_1" xmlns="http://www.w3.org/2000/svg" xmlns:xlink="http://www.w3.org/1999/xlink" x="0px" y="0px"
	 viewBox="0 0 51 51" style="enable-background:new 0 0 51 51;" xml:space="preserve">
<style type="text/css">
	.st0{fill:#3D98D3;}
</style>
<g>
	<path class="st0" d="M7.5491395,26.9503384c0-10.7451725,7.6761146-18.2928314,19.0600967-18.2928314
		c10.4466,0,16.8416233,5.3725863,16.8416233,14.7533474c0,6.4384232-2.8989372,11.1288033-8.2281265,11.1288033
		c-1.9615593,0-3.9231167-1.0241776-4.6070576-2.6437626c-1.3644123,1.7046452-3.6662045,2.6437626-6.1832485,2.6437626
		c-4.3918076,0-7.8010998-2.3451881-7.8010998-7.6327171c0-5.7978802,3.7946606-10.2330837,9.9779091-10.2330837
		c2.4302483,0,5.2423935,0.597147,7.1206303,1.6213226l-0.5554886,9.7209969
		c-0.1284561,1.7897034,0.725605,2.6854248,1.919899,2.6854248c2.2601318,0,3.0690575-2.942337,3.0690575-7.2907467
		c0-6.9505119-3.7529984-10.1480255-11.5540981-10.1480255c-8.1448059,0-13.7725687,4.9889545-13.7725687,13.6875095
		c0,7.2907467,4.4751291,10.9152889,12.4914789,10.9152889c2.4753838,0,5.2042046-0.2985725,7.676115-1.1526337v4.3918076
		c-2.2601318,0.8540611-4.777174,1.2376938-7.676115,1.2376938C14.7114305,42.342495,7.5491395,36.9265099,7.5491395,26.9503384z
		 M28.442337,27.1204548l0.3402348-5.8412762c-0.597147-0.2551765-1.4477329-0.3836327-2.3017921-0.3836327
		c-2.6455002,0-4.4786015,2.34519-4.4786015,5.6277618c0,2.5587063,1.0241756,3.7946606,2.9440727,3.7946606
		C27.2480431,30.3179684,28.3138809,28.8684978,28.442337,27.1204548z"/>
</g>
</svg>
