<?xml version="1.0" encoding="utf-8"?>
<!-- Generator: Adobe Illustrator 24.1.3, SVG Export Plug-In . SVG Version: 6.00 Build 0)  -->
<svg version="1.1" id="Layer_1" xmlns="http://www.w3.org/2000/svg" xmlns:xlink="http://www.w3.org/1999/xlink" x="0px" y="0px"
	 viewBox="0 0 682.5 768" style="enable-background:new 0 0 682.5 768;" xml:space="preserve">
<style type="text/css">
	.st0{fill:none;}
	.st1{fill:#0D8F85;}
	.st2{fill:#3D98D3;}
	.st3{fill:#67BA7D;}
	.st4{fill:url(#SVGID_2_);}
	.st5{fill:#93DD8F;}
	.st6{fill:#065667;}
	.st7{fill:none;stroke:#54BFEE;stroke-width:9;stroke-miterlimit:10;}
	.st8{fill:#FFFFFF;}
	.st9{fill:#0D8E84;}
	.st10{fill:#2E729D;}
	.st11{fill:#54C0EF;}
	.st12{fill:#2C3E50;}
	.st13{fill:none;stroke:#065667;stroke-width:4;stroke-miterlimit:10;}
	.st14{fill:none;stroke:#0D8E84;stroke-miterlimit:10;}
	.st15{fill:#54BFEE;}
	.st16{fill:none;stroke:#2C3E50;stroke-width:3;stroke-miterlimit:10;}
	.st17{fill:none;stroke:#2E729D;stroke-width:3;stroke-miterlimit:10;}
</style>
<pattern  y="768" width="72" height="72" patternUnits="userSpaceOnUse" id="SVGID_1_" viewBox="0 -72 72 72" style="overflow:visible;">
	<g>
		<rect y="-72" class="st0" width="72" height="72"/>
		<g>
			<rect y="-72" class="st0" width="72" height="72"/>
			<rect y="-72" class="st0" width="72" height="72"/>
			<path class="st1" d="M68.9938965-3.3371582L65.6572266,0H54.3427696L48-6.3427734L41.6572304,0H30.3427696L24-6.3427734
				L17.6572304,0H6.3427701l-3.3374-3.3374023l-0.00049,0.0004883L0-6.3417969v-11.3164024l3.0341799-3.0341797l0.00049,0.0004883
				l3.3078599-3.307869L3.02-27.3217812l-0.00049,0.0004883L0-30.3408203v-11.3164101l3.0195301-3.0195274l0.00049,0.0004883
				l3.3227501-3.322998l-3.3081-3.3078613l-0.00049,0.0004883L0-54.3410606v-11.3161659l3.00488-3.0048828l0.0002501,0.0002365
				L6.3427701-72h11.3144608L24-65.6569977L30.3427696-72h11.3144608l6.3425293,6.3430023L54.3427696-72h11.3144569
				l-0.0002289,0.0002365l4.5117035,4.5122147l1.8308105,1.8308105L72-65.6572266v11.3161659l-0.0004883-0.0004921
				l-3.034668,3.0349121l-0.0004807-0.0004883l-3.307869,3.3078575l3.3227615,3.3227577l0.0002365-0.000248l3.0199966,3.0200005
				L72-41.6572304v11.3164101l-0.0004883-0.0004883l-3.0199966,3.0200005l-0.0004883-0.0004883l-3.322258,3.3222694
				l3.3076172,3.307621l0.0004807-0.0004883l3.034668,3.0346718L72-17.6581993v11.3164024l-0.0004883-0.0004883
				l-3.0053711,3.0053787L68.9938965-3.3371582z M59.9992714-42.3419991l-6.3422699,6.3422394l6.3425293,6.3429985
				l6.3424721-6.3425102L59.9992714-42.3419991z M53.6567383-59.9995117l6.3427696,6.3427734l6.3427773-6.3427734
				l-1.8308182-1.8308067l-1.1745567-1.1745605l-3.3371506-3.3376503L53.6567383-59.9995117z M47.9995079-54.342289
				l-6.3425064,6.3425293l6.3427582,6.342762l6.3425293-6.3425293L47.9995079-54.342289z M35.9997597-42.3425293
				l-6.3427601,6.3427696l6.3427601,6.3427582l6.3427696-6.3427811L35.9997597-42.3425293z M29.6572304-59.9997597
				l6.3425293,6.342762l6.3427696-6.3427811L36-66.3425293L29.6572304-59.9997597z M24-54.3425293l-6.3427696,6.3430023
				l6.3425293,6.3425293l6.3427696-6.3427811L24-54.3425293z M12-53.6565285l6.3427696-6.3432693L12-66.3425293
				l-6.3427701,6.3432579L12-53.6565285z M11.9997597-29.6570015l6.3427696-6.3427811L12-42.3419991l-6.3427701,6.3427277
				L11.9997597-29.6570015z M18.3425293-11.9997787l-6.3427696-6.3427696L5.6572299-12L12-5.6572266L18.3425293-11.9997787z
				 M30.3425293-23.9997787l-6.3427696-6.3427696l-6.3427601,6.3427887l6.3427601,6.3427582L30.3425293-23.9997787z M42.3427696-12
				l-6.3429985-6.3425293L29.6572304-12L36-5.6572266L42.3427696-12z M48-17.6572304l6.342289-6.3422813l-6.3425293-6.3429985
				l-6.3427582,6.3427505L48-17.6572304z M66.3420029-12l-6.3425293-6.342289L53.6572304-12l6.3425293,6.3427734L66.3420029-12z"/>
		</g>
	</g>
</pattern>
<rect class="st2" width="682.5" height="768"/>
<rect y="379.8816833" class="st3" width="682.5" height="197.0000305"/>
<pattern  id="SVGID_2_" xlink:href="#SVGID_1_" patternTransform="matrix(1 0 0 1 2338.2648926 16224.5878906)">
</pattern>
<rect y="379.8816833" class="st4" width="682.5" height="197.0000305"/>
<rect y="540" class="st5" width="682.5" height="228"/>
<rect y="718" class="st6" width="682.5" height="50"/>
<path class="st2" d="M267.2409973,717.9904175h-100c0-74.3017578,60.4482422-134.75,134.75-134.75h79.4775391
	c19.1918945,0,34.75-15.5581055,34.75-34.75s-15.5581055-34.75-34.75-34.75h-79.4775391
	c-74.3017578,0-134.75-60.4492188-134.75-134.7504883h100c0.0215454,19.1830444,15.5669556,34.7286682,34.75,34.7504883h79.4775391
	c74.3017578,0,134.7499695,60.4482422,134.7499695,134.75s-60.4482422,134.75-134.75,134.75h-79.4775085
	C282.8081055,683.262146,267.2627563,698.8075562,267.2409973,717.9904175z"/>
<path class="st7" d="M267.2409973,378.9899292c0.0215454,19.1830444,15.5669556,34.7286682,34.75,34.7504883h79.4775391
	c74.3017578,0,134.7499695,60.4482422,134.7499695,134.75s-60.4482422,134.75-134.75,134.75h-79.4775085
	c-19.1828918,0.0217285-34.728241,15.5671387-34.75,34.75"/>
<path class="st7" d="M250.5743561,717.9904175c0.0320892-28.3833618,23.0333099-51.3845825,51.4166412-51.416687h79.4775391
	c65.2156372,0,118.0833435-52.8677368,118.0833435-118.083374s-52.8677063-118.083313-118.0833435-118.083313h-79.4775391
	c-28.3834839-0.0322266-51.3847046-23.0336609-51.4166565-51.4171448"/>
<path class="st7" d="M233.9076843,717.9904175c0.0424347-37.5838013,30.4995117-68.0408936,68.083313-68.083374h79.4775391
	c56.0108643,0.0330811,101.4434509-45.3459473,101.4765015-101.3568115s-45.3459167-101.4434509-101.356781-101.4765015
	c-0.039917-0.0000305-0.0798035-0.0000305-0.1197205,0h-79.4775391
	c-37.5838928-0.0426331-68.0409698-30.4999084-68.0833282-68.0838013"/>
<path class="st7" d="M217.2409973,717.9904175c0.0527954-46.7842407,37.9657593-84.6972046,84.75-84.75h79.4775391
	c46.8061218,0,84.75-37.9438477,84.75-84.75s-37.9438782-84.75-84.75-84.75h-79.4775391
	c-46.7843323-0.0530396-84.6972351-37.966156-84.75-84.7504883"/>
<path class="st7" d="M200.5743561,717.9904175c0.0631409-55.9846802,45.4319458-101.3535156,101.4166412-101.416687h79.4775391
	c37.6013794,0.0064087,68.0885315-30.4703979,68.0949097-68.0717773
	c0.0064087-37.6013794-30.4703674-68.0885315-68.0717773-68.0949097c-0.0076904,0-0.0154114,0-0.0231323,0h-79.4775391
	c-55.9847412-0.063446-101.3534546-45.432373-101.4166412-101.4171143"/>
<path class="st7" d="M183.9076843,717.9904175c0.0734863-65.1851807,52.8981476-118.0098267,118.083313-118.083374h79.4775391
	c28.396637,0.0093384,51.4242249-23.0031128,51.4335938-51.3997192
	c0.0093384-28.3966675-23.0031128-51.4242554-51.3997498-51.4335938c-0.011261,0-0.0225525,0-0.033844,0h-79.4775391
	c-65.1851807-0.0738525-118.0097351-52.8986206-118.083313-118.0838013"/>
<path class="st7" d="M167.2409973,717.9904175c0-74.3017578,60.4482422-134.75,134.75-134.75h79.4775391
	c19.1918945,0,34.75-15.5581055,34.75-34.75s-15.5581055-34.75-34.75-34.75h-79.4775391
	c-74.3017578,0-134.75-60.4492188-134.75-134.7504883"/>
<path class="st6" d="M682.5,174.4806519C609.5,174.4806519,559,235,458,235s-228.418457,54.5549316-230,60.7774658L682.5,296
	V174.4806519z"/>
<path class="st8" d="M682.5,133.5942688c-14.0595093-10.8738174-32.7161865-13.770195-49.4107056-7.6708221
	c-10.0535889-44.1777725-54.0168457-71.8408661-98.1945801-61.7872543
	c-30.5084839,6.9428635-54.4111023,30.6351852-61.623291,61.0811234
	c-25.4794617-8.1073532-52.9395752,4.533783-63.3491211,29.1625061
	c-18.8599548-8.7562714-41.247345-0.5655975-50.0036011,18.2943573c-0.2763672,0.5952454-0.5371094,1.1976013-0.7819824,1.8064728
	H682.5V133.5942688z"/>
<path class="st8" d="M0,110.3524704h157.2599945c-6.2705383-15.5916672-23.9933624-23.1479416-39.5850296-16.8774033
	c-0.4920425,0.1978912-0.9788284,0.4086075-1.4598618,0.6319351c-8.4129333-19.9049225-30.606163-30.1214943-51.1986313-23.5690994
	C57.9270134,40.6391258,30.7277927,19.5258255,0,19.5193501"/>
<path class="st9" d="M87.5,667c0,16.5685425-13.4314575,30-30,30s-30-13.4314575-30-30s13.4314613-70,30-70
	S87.5,650.4314575,87.5,667z"/>
<path class="st9" d="M148,686.4000244c0,14.083252-11.4167328,25.5-25.5,25.5s-25.5-11.416748-25.5-25.5s11.4167404-65.5,25.5-65.5
	S148,672.3167114,148,686.4000244z"/>
<polygon class="st10" points="682.5,718.651001 682.5,474.4679871 661.1040039,474.4679871 661.1040039,451.7340088 
	638.3690186,451.7340088 638.3690186,429 575.2189941,429 575.2189941,451.7340088 574.3770142,451.7340088 
	552.4849854,451.7340088 552.4849854,474.4679871 529.75,474.4679871 529.75,718.651001 "/>
<polygon class="st8" points="529.75,718.651001 643.4219971,718.651001 643.4219971,474.4679871 620.6870117,474.4679871 
	620.6870117,451.7340088 597.9530029,451.7340088 597.9530029,429 575.2189941,429 575.2189941,451.7340088 
	574.3770142,451.7340088 552.4849854,451.7340088 552.4849854,474.4679871 529.75,474.4679871 "/>
<rect x="540.6964722" y="484.5726013" class="st11" width="91.7789917" height="13.8789062"/>
<rect x="540.6964722" y="503.5918274" class="st11" width="91.7789917" height="13.8789368"/>
<rect x="540.6964722" y="522.611084" class="st11" width="91.7789917" height="13.8789062"/>
<rect x="540.6964722" y="541.6303101" class="st11" width="91.7789917" height="13.8789062"/>
<rect x="540.6964722" y="560.6495972" class="st11" width="91.7789917" height="13.8789062"/>
<rect x="540.6964722" y="579.6688232" class="st11" width="91.7789917" height="13.8789062"/>
<rect x="540.6964722" y="598.6881104" class="st11" width="91.7789917" height="13.8789062"/>
<rect x="540.6964722" y="617.7490234" class="st11" width="91.7789917" height="13.8789062"/>
<rect x="540.6964722" y="636.7682495" class="st11" width="91.7789917" height="13.8789062"/>
<rect x="540.6964722" y="655.7875366" class="st11" width="91.7789917" height="13.8789062"/>
<rect x="540.6964722" y="674.8067627" class="st11" width="91.7789917" height="13.8789062"/>
<rect x="540.6964722" y="693.8260498" class="st11" width="91.7789917" height="13.8789062"/>
<rect x="652.6836548" y="484.5726013" class="st12" width="29.8163452" height="13.8789062"/>
<rect x="652.6836548" y="503.5918274" class="st12" width="29.8163452" height="13.8789368"/>
<rect x="652.6836548" y="522.611084" class="st12" width="29.8163452" height="13.8789062"/>
<rect x="652.6836548" y="541.6303101" class="st12" width="29.8163452" height="13.8789062"/>
<rect x="652.6836548" y="560.6495972" class="st12" width="29.8163452" height="13.8789062"/>
<rect x="652.6836548" y="579.6688232" class="st12" width="29.8163452" height="13.8789062"/>
<rect x="652.6836548" y="598.6881104" class="st12" width="29.8163452" height="13.8789062"/>
<rect x="652.6836548" y="617.7490234" class="st12" width="29.8163452" height="13.8789062"/>
<rect x="652.6836548" y="636.7682495" class="st12" width="29.8163452" height="13.8789062"/>
<rect x="652.6836548" y="655.7875366" class="st12" width="29.8163452" height="13.8789062"/>
<rect x="652.6836548" y="674.8067627" class="st12" width="29.8163452" height="13.8789062"/>
<rect x="652.6836548" y="693.8260498" class="st12" width="29.8163452" height="13.8789062"/>
<line class="st13" x1="57.5" y1="647" x2="57.5" y2="718"/>
<line class="st13" x1="122.5" y1="677" x2="122.5" y2="718"/>
<path class="st9" d="M0,174.4806519C73,174.4806519,124.5,235,225.5,235s228.418457,54.5549316,230,60.7774658L0,296V174.4806519z"
	/>
<path class="st6" d="M33.2053719,255.8311768C33.2053719,245.5469055,51.8266716,208,51.8266716,208
	s18.6213264,37.5469055,18.6213264,47.8311768H33.2053719z"/>
<line class="st14" x1="51.8266716" y1="222.7574158" x2="51.8266716" y2="262"/>
<path class="st14" d="M56.3650017,231.6947632c-2.6119995-5.6087799-4.5381889-9.4932098-4.5381889-9.4932098
	s-1.9263496,3.8844299-4.5383682,9.4932098"/>
<path class="st14" d="M56.3650017,239.7274628c-2.6119995-5.6087799-4.5381889-9.4932098-4.5381889-9.4932098
	s-1.9263496,3.8844299-4.5383682,9.4932098"/>
<path class="st14" d="M56.3650017,247.7601929c-2.6119995-5.6087799-4.5381889-9.4932098-4.5381889-9.4932098
	s-1.9263496,3.8844299-4.5383682,9.4932098"/>
<path class="st6" d="M73.205368,255.8311768C73.205368,245.5469055,91.8266678,208,91.8266678,208
	s18.6213303,37.5469055,18.6213303,47.8311768H73.205368z"/>
<line class="st14" x1="91.8266678" y1="222.7574158" x2="91.8266678" y2="262"/>
<path class="st14" d="M96.3649521,231.6947632c-2.6119995-5.6087799-4.5381927-9.4932098-4.5381927-9.4932098
	s-1.9263535,3.8844299-4.5383682,9.4932098"/>
<path class="st14" d="M96.3649521,239.7274628c-2.6119995-5.6087799-4.5381927-9.4932098-4.5381927-9.4932098
	s-1.9263535,3.8844299-4.5383682,9.4932098"/>
<path class="st14" d="M96.3649521,247.7601929c-2.6119995-5.6087799-4.5381927-9.4932098-4.5381927-9.4932098
	s-1.9263535,3.8844299-4.5383682,9.4932098"/>
<path class="st6" d="M12.2053699,289.8311768C12.2053699,279.5469055,30.8266697,242,30.8266697,242
	s18.6213322,37.5469055,18.6213322,47.8311768H12.2053699z"/>
<line class="st14" x1="30.8266697" y1="256.7574158" x2="30.8266697" y2="296"/>
<path class="st14" d="M35.3650017,265.6947632c-2.6119995-5.6087646-4.5381889-9.4932251-4.5381889-9.4932251
	s-1.9263496,3.8844299-4.5383701,9.4932251"/>
<path class="st14" d="M35.3650017,273.727478c-2.6119995-5.6087646-4.5381889-9.4932251-4.5381889-9.4932251
	s-1.9263496,3.8844299-4.5383701,9.4932251"/>
<path class="st14" d="M35.3650017,281.7601929c-2.6119995-5.6087646-4.5381889-9.4932251-4.5381889-9.4932251
	s-1.9263496,3.8844299-4.5383701,9.4932251"/>
<path class="st6" d="M93.205368,289.8311768C93.205368,279.5469055,111.8266678,242,111.8266678,242
	s18.6213303,37.5469055,18.6213303,47.8311768H93.205368z"/>
<line class="st14" x1="111.8266678" y1="256.7574158" x2="111.8266678" y2="296"/>
<path class="st14" d="M116.3649979,265.6947632c-2.6119995-5.6087646-4.5381927-9.4932251-4.5381927-9.4932251
	s-1.9263535,3.8844299-4.5383682,9.4932251"/>
<path class="st14" d="M116.3649979,273.727478c-2.6119995-5.6087646-4.5381927-9.4932251-4.5381927-9.4932251
	s-1.9263535,3.8844299-4.5383682,9.4932251"/>
<path class="st14" d="M116.3649979,281.7601929c-2.6119995-5.6087646-4.5381927-9.4932251-4.5381927-9.4932251
	s-1.9263535,3.8844299-4.5383682,9.4932251"/>
<path class="st6" d="M134.205368,289.8311768C134.205368,279.5469055,152.8266602,242,152.8266602,242
	s18.6213379,37.5469055,18.6213379,47.8311768H134.205368z"/>
<line class="st14" x1="152.8266754" y1="256.7574158" x2="152.8266754" y2="296"/>
<path class="st14" d="M157.3650055,265.6947632c-2.6119995-5.6087646-4.5381927-9.4932251-4.5381927-9.4932251
	s-1.9263458,3.8844299-4.5383759,9.4932251"/>
<path class="st14" d="M157.3650055,273.727478c-2.6119995-5.6087646-4.5381927-9.4932251-4.5381927-9.4932251
	s-1.9263458,3.8844299-4.5383759,9.4932251"/>
<path class="st14" d="M157.3650055,281.7601929c-2.6119995-5.6087646-4.5381927-9.4932251-4.5381927-9.4932251
	s-1.9263458,3.8844299-4.5383759,9.4932251"/>
<path class="st15" d="M0,322.9715576c11.6599998,0,23.3582287-6.326355,28.8646202-9.9457092
	c5.5058479,3.6193542,16.7996101,9.9457092,28.4601784,9.9457092c11.6622009,0,22.9560013-6.3269043,28.4618073-9.9457092
	c5.5058517,3.6188049,16.8006973,9.9457092,28.4623566,9.9457092c11.6622086,0,22.9554138-6.3269043,28.4612732-9.9457092
	c5.5063934,3.6188049,16.800705,9.9457092,28.4629059,9.9457092c11.6616516,0,22.9554138-6.3269043,28.4612579-9.9457092
	c5.5058441,3.6188049,16.799057,9.9457092,28.4612732,9.9457092s22.9570618-6.3269043,28.4629211-9.9457092
	c5.5058289,3.6188049,16.7995911,9.9457092,28.4618225,9.9457092c11.6632996,0,22.959259-6.3269043,28.4656372-9.9457092
	c5.5063782,3.6188049,16.802887,9.9457092,28.4661865,9.9457092v-11.1953735
	c-11.6632996,0-22.9598083-6.3269348-28.4661865-9.9457397c-5.5063782,3.6188049-16.8023376,9.9457397-28.4656372,9.9457397
	c-11.6622009,0-22.9559937-6.3269348-28.4618225-9.9457397c-5.5058441,3.6188049-16.800705,9.9457397-28.4629059,9.9457397
	s-22.9554138-6.3269348-28.4612732-9.9457397c-5.5058441,3.6188049-16.7996063,9.9457397-28.4612579,9.9457397
	c-11.6622162,0-22.9565125-6.3269348-28.4629059-9.9457397c-5.5058441,3.6188049-16.799057,9.9457397-28.4612732,9.9457397
	c-11.6616592,0-22.9565125-6.3269348-28.4623566-9.9457397c-5.5058365,3.6188049-16.7996063,9.9457397-28.4618073,9.9457397
	c-11.6605682,0-22.9543304-6.326355-28.4601803-9.9457397C23.3582439,305.4497986,11.6600208,311.7761841,0,311.7761841V322.9715576
	z"/>
<path class="st2" d="M0,333.6071472c11.6599998,0,23.3582287-6.326355,28.8646202-9.9457397
	c5.5058479,3.6193542,16.7996101,9.9457397,28.4601784,9.9457397c11.6622009,0,22.9560013-6.3269043,28.4618073-9.9457397
	c5.5058517,3.6188049,16.8006973,9.9457397,28.4623566,9.9457397c11.6622086,0,22.9554138-6.3269043,28.4612732-9.9457397
	c5.5063934,3.6188049,16.800705,9.9457397,28.4629059,9.9457397c11.6616516,0,22.9554138-6.3269043,28.4612579-9.9457397
	c5.5058441,3.6188049,16.799057,9.9457397,28.4612732,9.9457397s22.9570618-6.3269043,28.4629211-9.9457397
	c5.5058289,3.6188049,16.7995911,9.9457397,28.4618225,9.9457397c11.6632996,0,22.959259-6.3269043,28.4656372-9.9457397
	c5.5063782,3.6188049,16.802887,9.9457397,28.4661865,9.9457397v-11.1953735
	c-11.6632996,0-22.9598083-6.3269043-28.4661865-9.9457092c-5.5063782,3.6188049-16.8023376,9.9457092-28.4656372,9.9457092
	c-11.6622009,0-22.9559937-6.3269043-28.4618225-9.9457092c-5.5058441,3.6188049-16.800705,9.9457092-28.4629059,9.9457092
	s-22.9554138-6.3269043-28.4612732-9.9457092c-5.5058441,3.6188049-16.7996063,9.9457092-28.4612579,9.9457092
	c-11.6622162,0-22.9565125-6.3269043-28.4629059-9.9457092c-5.5058441,3.6188049-16.799057,9.9457092-28.4612732,9.9457092
	c-11.6616592,0-22.9565125-6.3269043-28.4623566-9.9457092c-5.5058365,3.6188049-16.7996063,9.9457092-28.4618073,9.9457092
	c-11.6605682,0-22.9543304-6.326355-28.4601803-9.9457092C23.3582439,316.0854187,11.6600208,322.4117737,0,322.4117737V333.6071472
	z"/>
<path class="st15" d="M0,301.7003479c11.6599998,0,23.3582287-6.326355,28.8646202-9.9457397
	c5.5058479,3.6193542,16.7996101,9.9457397,28.4601784,9.9457397c11.6622009,0,22.9560013-6.3269348,28.4618073-9.9457397
	c5.5058517,3.6188049,16.8006973,9.9457397,28.4623566,9.9457397c11.6622086,0,22.9554138-6.3269348,28.4612732-9.9457397
	c5.5063934,3.6188049,16.800705,9.9457397,28.4629059,9.9457397c11.6616516,0,22.9554138-6.3269348,28.4612579-9.9457397
	c5.5058441,3.6188049,16.799057,9.9457397,28.4612732,9.9457397s22.9570618-6.3269348,28.4629211-9.9457397
	c5.5058289,3.6188049,16.7995911,9.9457397,28.4618225,9.9457397c11.6632996,0,22.959259-6.3269348,28.4656372-9.9457397
	c5.5063782,3.6188049,16.802887,9.9457397,28.4661865,9.9457397v-11.195343
	c-11.6632996,0-22.9598083-6.3269043-28.4661865-9.9457397c-5.5063782,3.6188049-16.8023376,9.9457397-28.4656372,9.9457397
	c-11.6622009,0-22.9559937-6.3269043-28.4618225-9.9457397c-5.5058441,3.6188049-16.800705,9.9457397-28.4629059,9.9457397
	s-22.9554138-6.3269043-28.4612732-9.9457397c-5.5058441,3.6188049-16.7996063,9.9457397-28.4612579,9.9457397
	c-11.6622162,0-22.9565125-6.3269043-28.4629059-9.9457397c-5.5058441,3.6188049-16.799057,9.9457397-28.4612732,9.9457397
	c-11.6616592,0-22.9565125-6.3269043-28.4623566-9.9457397c-5.5058517,3.6188049-16.7996216,9.9457397-28.4618225,9.9457397
	c-11.6605682,0-22.9543304-6.326355-28.4601803-9.9457397C23.3582306,284.1786194,11.6600199,290.5050049,0,290.5050049V301.7003479
	z"/>
<path class="st2" d="M0,312.3359985c11.6599998,0,23.3582287-6.326355,28.8646202-9.9457092
	c5.5058479,3.6193542,16.7996101,9.9457092,28.4601784,9.9457092c11.6622009,0,22.9560013-6.3269043,28.4618073-9.9457092
	c5.5058517,3.6188049,16.8006973,9.9457092,28.4623566,9.9457092c11.6622086,0,22.9554138-6.3269043,28.4612732-9.9457092
	c5.5063934,3.6188049,16.800705,9.9457092,28.4629059,9.9457092c11.6616516,0,22.9554138-6.3269043,28.4612579-9.9457092
	c5.5058441,3.6188049,16.799057,9.9457092,28.4612732,9.9457092s22.9570618-6.3269043,28.4629211-9.9457092
	c5.5058289,3.6188049,16.7995911,9.9457092,28.4618225,9.9457092c11.6632996,0,22.959259-6.3269043,28.4656372-9.9457092
	c5.5063782,3.6188049,16.802887,9.9457092,28.4661865,9.9457092v-11.1954041
	c-11.6632996,0-22.9598083-6.3269043-28.4661865-9.9457397c-5.5063782,3.6188049-16.8023376,9.9457397-28.4656372,9.9457397
	c-11.6622009,0-22.9559937-6.3269043-28.4618225-9.9457397c-5.5058441,3.6188049-16.800705,9.9457397-28.4629059,9.9457397
	s-22.9554138-6.3269043-28.4612732-9.9457397c-5.5058441,3.6188049-16.7996063,9.9457397-28.4612579,9.9457397
	c-11.6622162,0-22.9565125-6.3269043-28.4629059-9.9457397c-5.5058441,3.6188049-16.799057,9.9457397-28.4612732,9.9457397
	c-11.6616592,0-22.9565125-6.3269043-28.4623566-9.9457397c-5.5058365,3.6188049-16.7996063,9.9457397-28.4618073,9.9457397
	c-11.6605682,0-22.9543304-6.326355-28.4601803-9.9457397C23.3582439,294.814209,11.6600208,301.1405945,0,301.1405945V312.3359985z
	"/>
<path class="st15" d="M0,365.5139465c11.6599998,0,23.3582287-6.326355,28.8646202-9.9457092
	c5.5058479,3.6193542,16.7996101,9.9457092,28.4601784,9.9457092c11.6622009,0,22.9560013-6.3269043,28.4618073-9.9457092
	c5.5058517,3.6188049,16.8006973,9.9457092,28.4623566,9.9457092c11.6622086,0,22.9554138-6.3269043,28.4612732-9.9457092
	c5.5063934,3.6188049,16.800705,9.9457092,28.4629059,9.9457092c11.6616516,0,22.9554138-6.3269043,28.4612579-9.9457092
	c5.5058441,3.6188049,16.799057,9.9457092,28.4612732,9.9457092s22.9570618-6.3269043,28.4629211-9.9457092
	c5.5058289,3.6188049,16.7995911,9.9457092,28.4618225,9.9457092c11.6632996,0,22.959259-6.3269043,28.4656372-9.9457092
	c5.5063782,3.6188049,16.802887,9.9457092,28.4661865,9.9457092V354.318573
	c-11.6632996,0-22.9598083-6.3269043-28.4661865-9.9457397c-5.5063782,3.6188049-16.8023376,9.9457397-28.4656372,9.9457397
	c-11.6622009,0-22.9559937-6.3269043-28.4618225-9.9457397c-5.5058441,3.6188049-16.800705,9.9457397-28.4629059,9.9457397
	s-22.9554138-6.3269043-28.4612732-9.9457397c-5.5058441,3.6188049-16.7996063,9.9457397-28.4612579,9.9457397
	c-11.6622162,0-22.9565125-6.3269043-28.4629059-9.9457397c-5.5058441,3.6188049-16.799057,9.9457397-28.4612732,9.9457397
	c-11.6616592,0-22.9565125-6.3269043-28.4623566-9.9457397c-5.5058365,3.6188049-16.7996063,9.9457397-28.4618073,9.9457397
	c-11.6605682,0-22.9543304-6.326355-28.4601803-9.9457397C23.3582439,347.9921875,11.6600208,354.318573,0,354.318573V365.5139465z"
	/>
<path class="st2" d="M0,376.1495361c11.6599998,0,23.3582287-6.326355,28.8646202-9.9457397
	c5.5058479,3.6193848,16.7996101,9.9457397,28.4601784,9.9457397c11.6622009,0,22.9560013-6.3269043,28.4618073-9.9457397
	c5.5058517,3.6188049,16.8006973,9.9457397,28.4623566,9.9457397c11.6622086,0,22.9554138-6.3269043,28.4612732-9.9457397
	c5.5063934,3.6188049,16.800705,9.9457397,28.4629059,9.9457397c11.6616516,0,22.9554138-6.3269043,28.4612579-9.9457397
	c5.5058441,3.6188049,16.799057,9.9457397,28.4612732,9.9457397s22.9570618-6.3269043,28.4629211-9.9457397
	c5.5058289,3.6188049,16.7995911,9.9457397,28.4618225,9.9457397c11.6632996,0,22.959259-6.3269043,28.4656372-9.9457397
	c5.5063782,3.6188049,16.802887,9.9457397,28.4661865,9.9457397v-11.195343
	c-11.6632996,0-22.9598083-6.3269348-28.4661865-9.9457397c-5.5063782,3.6188049-16.8023376,9.9457397-28.4656372,9.9457397
	c-11.6622009,0-22.9559937-6.3269348-28.4618225-9.9457397c-5.5058441,3.6188049-16.800705,9.9457397-28.4629059,9.9457397
	s-22.9554138-6.3269348-28.4612732-9.9457397c-5.5058441,3.6188049-16.7996063,9.9457397-28.4612579,9.9457397
	c-11.6622162,0-22.9565125-6.3269348-28.4629059-9.9457397c-5.5058441,3.6188049-16.799057,9.9457397-28.4612732,9.9457397
	c-11.6616592,0-22.9565125-6.3269348-28.4623566-9.9457397c-5.5058365,3.6188049-16.7996063,9.9457397-28.4618073,9.9457397
	c-11.6605682,0-22.9543304-6.326355-28.4601803-9.9457397C23.3582439,358.6278076,11.6600208,364.9541931,0,364.9541931V376.1495361
	z"/>
<path class="st15" d="M0,386.7851257c11.6599998,0,23.3582287-6.326355,28.8646202-9.9457397
	c5.5058479,3.6193542,16.7996101,9.9457397,28.4601784,9.9457397c11.6622009,0,22.9560013-6.3269043,28.4618073-9.9457397
	c5.5058517,3.6188049,16.8006973,9.9457397,28.4623566,9.9457397c11.6622086,0,22.9554138-6.3269043,28.4612732-9.9457397
	c5.5063934,3.6188049,16.800705,9.9457397,28.4629059,9.9457397c11.6616516,0,22.9554138-6.3269043,28.4612579-9.9457397
	c5.5058441,3.6188049,16.799057,9.9457397,28.4612732,9.9457397s22.9570618-6.3269043,28.4629211-9.9457397
	c5.5058289,3.6188049,16.7995911,9.9457397,28.4618225,9.9457397c11.6632996,0,22.959259-6.3269043,28.4656372-9.9457397
	c5.5063782,3.6188049,16.802887,9.9457397,28.4661865,9.9457397v-11.195343
	c-11.6632996,0-22.9598083-6.3269043-28.4661865-9.9457092c-5.5063782,3.6188049-16.8023376,9.9457092-28.4656372,9.9457092
	c-11.6622009,0-22.9559937-6.3269043-28.4618225-9.9457092c-5.5058441,3.6188049-16.800705,9.9457092-28.4629059,9.9457092
	s-22.9554138-6.3269043-28.4612732-9.9457092c-5.5058441,3.6188049-16.7996063,9.9457092-28.4612579,9.9457092
	c-11.6622162,0-22.9565125-6.3269043-28.4629059-9.9457092c-5.5058441,3.6188049-16.799057,9.9457092-28.4612732,9.9457092
	c-11.6616592,0-22.9565125-6.3269043-28.4623566-9.9457092c-5.5058365,3.6188049-16.7996063,9.9457092-28.4618073,9.9457092
	c-11.6605682,0-22.9543304-6.326355-28.4601803-9.9457092C23.3582439,369.2634277,11.6600208,375.5897827,0,375.5897827V386.7851257
	z"/>
<path class="st2" d="M0,397.4207458c11.6599998,0,23.3582287-6.326355,28.8646202-9.9457397
	c5.5058479,3.6193542,16.7996101,9.9457397,28.4601784,9.9457397c11.6622009,0,22.9560013-6.3269043,28.4618073-9.9457397
	c5.5058517,3.6188049,16.8006973,9.9457397,28.4623566,9.9457397c11.6622086,0,22.9554138-6.3269043,28.4612732-9.9457397
	c5.5063934,3.6188049,16.800705,9.9457397,28.4629059,9.9457397c11.6616516,0,22.9554138-6.3269043,28.4612579-9.9457397
	c5.5058441,3.6188049,16.799057,9.9457397,28.4612732,9.9457397s22.9570618-6.3269043,28.4629211-9.9457397
	c5.5058289,3.6188049,16.7995911,9.9457397,28.4618225,9.9457397c11.6632996,0,22.959259-6.3269043,28.4656372-9.9457397
	c5.5063782,3.6188049,16.802887,9.9457397,28.4661865,9.9457397v-11.1953735
	c-11.6632996,0-22.9598083-6.3269043-28.4661865-9.9457397c-5.5063782,3.6188049-16.8023376,9.9457397-28.4656372,9.9457397
	c-11.6622009,0-22.9559937-6.3269043-28.4618225-9.9457397c-5.5058441,3.6188049-16.800705,9.9457397-28.4629059,9.9457397
	s-22.9554138-6.3269043-28.4612732-9.9457397c-5.5058441,3.6188049-16.7996063,9.9457397-28.4612579,9.9457397
	c-11.6622162,0-22.9565125-6.3269043-28.4629059-9.9457397c-5.5058441,3.6188049-16.799057,9.9457397-28.4612732,9.9457397
	c-11.6616592,0-22.9565125-6.3269043-28.4623566-9.9457397c-5.5058365,3.6188049-16.7996063,9.9457397-28.4618073,9.9457397
	c-11.6605682,0-22.9543304-6.326355-28.4601803-9.9457397C23.3582439,379.8990173,11.6600208,386.2253723,0,386.2253723V397.4207458
	z"/>
<path class="st15" d="M0,344.2427368c11.6599998,0,23.3582287-6.326355,28.8646202-9.9457397
	c5.5058479,3.6193542,16.7996101,9.9457397,28.4601784,9.9457397c11.6622009,0,22.9560013-6.3269043,28.4618073-9.9457397
	c5.5058517,3.6188049,16.8006973,9.9457397,28.4623566,9.9457397c11.6622086,0,22.9554138-6.3269043,28.4612732-9.9457397
	c5.5063934,3.6188049,16.800705,9.9457397,28.4629059,9.9457397c11.6616516,0,22.9554138-6.3269043,28.4612579-9.9457397
	c5.5058441,3.6188049,16.799057,9.9457397,28.4612732,9.9457397s22.9570618-6.3269043,28.4629211-9.9457397
	c5.5058289,3.6188049,16.7995911,9.9457397,28.4618225,9.9457397c11.6632996,0,22.959259-6.3269043,28.4656372-9.9457397
	c5.5063782,3.6188049,16.802887,9.9457397,28.4661865,9.9457397v-11.195343
	c-11.6632996,0-22.9598083-6.3269043-28.4661865-9.9457397c-5.5063782,3.6188049-16.8023376,9.9457397-28.4656372,9.9457397
	c-11.6622009,0-22.9559937-6.3269043-28.4618225-9.9457397c-5.5058441,3.6188049-16.800705,9.9457397-28.4629059,9.9457397
	s-22.9554138-6.3269043-28.4612732-9.9457397c-5.5058441,3.6188049-16.7996063,9.9457397-28.4612579,9.9457397
	c-11.6622162,0-22.9565125-6.3269043-28.4629059-9.9457397c-5.5058441,3.6188049-16.799057,9.9457397-28.4612732,9.9457397
	c-11.6616592,0-22.9565125-6.3269043-28.4623566-9.9457397c-5.5058365,3.6188049-16.7996063,9.9457397-28.4618073,9.9457397
	c-11.6605682,0-22.9543304-6.326355-28.4601803-9.9457397C23.3582439,326.7210388,11.6600208,333.0473938,0,333.0473938V344.2427368
	z"/>
<path class="st2" d="M0,354.8783569c11.6599998,0,23.3582287-6.326355,28.8646202-9.9457397
	c5.5058479,3.6193542,16.7996101,9.9457397,28.4601784,9.9457397c11.6622009,0,22.9560013-6.3269348,28.4618073-9.9457397
	c5.5058517,3.6188049,16.8006973,9.9457397,28.4623566,9.9457397c11.6622086,0,22.9554138-6.3269348,28.4612732-9.9457397
	c5.5063934,3.6188049,16.800705,9.9457397,28.4629059,9.9457397c11.6616516,0,22.9554138-6.3269348,28.4612579-9.9457397
	c5.5058441,3.6188049,16.799057,9.9457397,28.4612732,9.9457397s22.9570618-6.3269348,28.4629211-9.9457397
	c5.5058289,3.6188049,16.7995911,9.9457397,28.4618225,9.9457397c11.6632996,0,22.959259-6.3269348,28.4656372-9.9457397
	c5.5063782,3.6188049,16.802887,9.9457397,28.4661865,9.9457397v-11.195343
	c-11.6632996,0-22.9598083-6.3269043-28.4661865-9.9457397c-5.5063782,3.6188049-16.8023376,9.9457397-28.4656372,9.9457397
	c-11.6622009,0-22.9559937-6.3269043-28.4618225-9.9457397c-5.5058441,3.6188049-16.800705,9.9457397-28.4629059,9.9457397
	s-22.9554138-6.3269043-28.4612732-9.9457397c-5.5058441,3.6188049-16.7996063,9.9457397-28.4612579,9.9457397
	c-11.6622162,0-22.9565125-6.3269043-28.4629059-9.9457397c-5.5058441,3.6188049-16.799057,9.9457397-28.4612732,9.9457397
	c-11.6616592,0-22.9565125-6.3269043-28.4623566-9.9457397c-5.5058517,3.6188049-16.7996216,9.9457397-28.4618225,9.9457397
	c-11.6605682,0-22.9543304-6.326355-28.4601803-9.9457397C23.3582306,337.3565979,11.6600199,343.6830139,0,343.6830139V354.8783569
	z"/>
<path class="st15" d="M341.95224,322.9715576c11.6600037,0,22.9537659-6.326355,28.4601746-9.9457092
	c5.5058594,3.6193542,16.7996216,9.9457092,28.4601746,9.9457092c11.6622009,0,22.9559937-6.3269043,28.4618225-9.9457092
	c5.5058289,3.6188049,16.8006897,9.9457092,28.4623718,9.9457092c11.6622009,0,22.9554138-6.3269043,28.4612732-9.9457092
	c5.5064087,3.6188049,16.8007202,9.9457092,28.4628906,9.9457092c11.6616821,0,22.9554443-6.3269043,28.4612427-9.9457092
	c5.5058594,3.6188049,16.7990723,9.9457092,28.4612427,9.9457092s22.9570312-6.3269043,28.4628906-9.9457092
	c5.5058594,3.6188049,16.7996216,9.9457092,28.461792,9.9457092c11.6633301,0,22.9592285-6.3269043,28.4656372-9.9457092
	c5.5064087,3.6188049,15.8029785,9.9457092,27.4662476,9.9457092v-11.1953735
	c-11.663269,0-21.9598389-6.3269348-27.4662476-9.9457397c-5.5064087,3.6188049-16.8023682,9.9457397-28.4656372,9.9457397
	c-11.6621704,0-22.9559937-6.3269348-28.461792-9.9457397c-5.5058594,3.6188049-16.8007202,9.9457397-28.4628906,9.9457397
	s-22.9554443-6.3269348-28.4612427-9.9457397c-5.5058594,3.6188049-16.7996216,9.9457397-28.4612427,9.9457397
	c-11.6622009,0-22.9565125-6.3269348-28.4629211-9.9457397c-5.5058289,3.6188049-16.7990723,9.9457397-28.4612732,9.9457397
	c-11.6616516,0-22.9565125-6.3269348-28.4623718-9.9457397c-5.5058594,3.6188049-16.7996216,9.9457397-28.4618225,9.9457397
	c-11.660553,0-22.9543152-6.326355-28.4601746-9.9457397c-5.5063782,3.6193542-16.8001709,9.9457397-28.4601746,9.9457397
	L341.95224,322.9715576z"/>
<path class="st2" d="M341.95224,333.6071472c11.6600037,0,22.9537659-6.326355,28.4601746-9.9457397
	c5.5058594,3.6193542,16.7996216,9.9457397,28.4601746,9.9457397c11.6622009,0,22.9559937-6.3269043,28.4618225-9.9457397
	c5.5058289,3.6188049,16.8006897,9.9457397,28.4623718,9.9457397c11.6622009,0,22.9554138-6.3269043,28.4612732-9.9457397
	c5.5064087,3.6188049,16.8007202,9.9457397,28.4628906,9.9457397c11.6616821,0,22.9554443-6.3269043,28.4612427-9.9457397
	c5.5058594,3.6188049,16.7990723,9.9457397,28.4612427,9.9457397s22.9570312-6.3269043,28.4628906-9.9457397
	c5.5058594,3.6188049,16.7996216,9.9457397,28.461792,9.9457397c11.6633301,0,22.9592285-6.3269043,28.4656372-9.9457397
	c5.5064087,3.6188049,15.8029785,9.9457397,27.4662476,9.9457397v-11.1953735
	c-11.663269,0-21.9598389-6.3269043-27.4662476-9.9457092c-5.5064087,3.6188049-16.8023682,9.9457092-28.4656372,9.9457092
	c-11.6621704,0-22.9559937-6.3269043-28.461792-9.9457092c-5.5058594,3.6188049-16.8007202,9.9457092-28.4628906,9.9457092
	s-22.9554443-6.3269043-28.4612427-9.9457092c-5.5058594,3.6188049-16.7996216,9.9457092-28.4612427,9.9457092
	c-11.6622009,0-22.9565125-6.3269043-28.4629211-9.9457092c-5.5058289,3.6188049-16.7990723,9.9457092-28.4612732,9.9457092
	c-11.6616516,0-22.9565125-6.3269043-28.4623718-9.9457092c-5.5058594,3.6188049-16.7996216,9.9457092-28.4618225,9.9457092
	c-11.660553,0-22.9543152-6.326355-28.4601746-9.9457092c-5.5063782,3.6193542-16.8001709,9.9457092-28.4601746,9.9457092
	L341.95224,333.6071472z"/>
<path class="st15" d="M341.95224,301.7003479c11.6600037,0,22.9537659-6.326355,28.4601746-9.9457397
	c5.5058594,3.6193542,16.7996216,9.9457397,28.4601746,9.9457397c11.6622009,0,22.9559937-6.3269348,28.4618225-9.9457397
	c5.5058289,3.6188049,16.8006897,9.9457397,28.4623718,9.9457397c11.6622009,0,22.9554138-6.3269348,28.4612732-9.9457397
	c5.5064087,3.6188049,16.8007202,9.9457397,28.4628906,9.9457397c11.6616821,0,22.9554443-6.3269348,28.4612427-9.9457397
	c5.5058594,3.6188049,16.7990723,9.9457397,28.4612427,9.9457397s22.9570312-6.3269348,28.4628906-9.9457397
	c5.5058594,3.6188049,16.7996216,9.9457397,28.461792,9.9457397c11.6633301,0,22.9592285-6.3269348,28.4656372-9.9457397
	c5.5064087,3.6188049,15.8029785,9.9457397,27.4662476,9.9457397v-11.195343
	c-11.663269,0-21.9598389-6.3269043-27.4662476-9.9457397c-5.5064087,3.6188049-16.8023682,9.9457397-28.4656372,9.9457397
	c-11.6621704,0-22.9559937-6.3269043-28.461792-9.9457397c-5.5058594,3.6188049-16.8007202,9.9457397-28.4628906,9.9457397
	s-22.9554443-6.3269043-28.4612427-9.9457397c-5.5058594,3.6188049-16.7996216,9.9457397-28.4612427,9.9457397
	c-11.6622009,0-22.9565125-6.3269043-28.4629211-9.9457397c-5.5058289,3.6188049-16.7990723,9.9457397-28.4612732,9.9457397
	c-11.6616516,0-22.9565125-6.3269043-28.4623718-9.9457397c-5.5058594,3.6188049-16.7996216,9.9457397-28.4618225,9.9457397
	c-11.660553,0-22.9543152-6.326355-28.4601746-9.9457397c-5.5063782,3.6193542-16.8001709,9.9457397-28.4601746,9.9457397
	L341.95224,301.7003479z"/>
<path class="st2" d="M341.95224,312.3359985c11.6600037,0,22.9537659-6.326355,28.4601746-9.9457092
	c5.5058594,3.6193542,16.7996216,9.9457092,28.4601746,9.9457092c11.6622009,0,22.9559937-6.3269043,28.4618225-9.9457092
	c5.5058289,3.6188049,16.8006897,9.9457092,28.4623718,9.9457092c11.6622009,0,22.9554138-6.3269043,28.4612732-9.9457092
	c5.5064087,3.6188049,16.8007202,9.9457092,28.4628906,9.9457092c11.6616821,0,22.9554443-6.3269043,28.4612427-9.9457092
	c5.5058594,3.6188049,16.7990723,9.9457092,28.4612427,9.9457092s22.9570312-6.3269043,28.4628906-9.9457092
	c5.5058594,3.6188049,16.7996216,9.9457092,28.461792,9.9457092c11.6633301,0,22.9592285-6.3269043,28.4656372-9.9457092
	c5.5064697,3.6187134,15.8029175,9.9457092,27.4662476,9.9457092v-11.1954041
	c-11.6633301,0-21.9597778-6.3269043-27.4661865-9.9457397c-5.5064087,3.6188049-16.8023682,9.9457397-28.4656372,9.9457397
	c-11.6621704,0-22.9559937-6.3269043-28.461792-9.9457397c-5.5058594,3.6188049-16.8007202,9.9457397-28.4628906,9.9457397
	s-22.9554443-6.3269043-28.4612427-9.9457397c-5.5058594,3.6188049-16.7996216,9.9457397-28.4612427,9.9457397
	c-11.6622009,0-22.9565125-6.3269043-28.4629211-9.9457397c-5.5058289,3.6188049-16.7990723,9.9457397-28.4612732,9.9457397
	c-11.6616516,0-22.9565125-6.3269043-28.4623718-9.9457397c-5.5058594,3.6188049-16.7996216,9.9457397-28.4618225,9.9457397
	c-11.660553,0-22.9543152-6.326355-28.4601746-9.9457397c-5.5063782,3.6193542-16.8001709,9.9457397-28.4601746,9.9457397
	L341.95224,312.3359985z"/>
<path class="st15" d="M341.95224,365.5139465c11.6600037,0,22.9537659-6.326355,28.4601746-9.9457092
	c5.5058594,3.6193542,16.7996216,9.9457092,28.4601746,9.9457092c11.6622009,0,22.9559937-6.3269043,28.4618225-9.9457092
	c5.5058289,3.6188049,16.8006897,9.9457092,28.4623718,9.9457092c11.6622009,0,22.9554138-6.3269043,28.4612732-9.9457092
	c5.5064087,3.6188049,16.8007202,9.9457092,28.4628906,9.9457092c11.6616821,0,22.9554443-6.3269043,28.4612427-9.9457092
	c5.5058594,3.6188049,16.7990723,9.9457092,28.4612427,9.9457092s22.9570312-6.3269043,28.4628906-9.9457092
	c5.5058594,3.6188049,16.7996216,9.9457092,28.461792,9.9457092c11.6633301,0,22.9592285-6.3269043,28.4656372-9.9457092
	c5.5064087,3.6188049,15.8029785,9.9457092,27.4662476,9.9457092V354.318573
	c-11.663269,0-21.9598389-6.3269043-27.4662476-9.9457397c-5.5064087,3.6188049-16.8023682,9.9457397-28.4656372,9.9457397
	c-11.6621704,0-22.9559937-6.3269043-28.461792-9.9457397c-5.5058594,3.6188049-16.8007202,9.9457397-28.4628906,9.9457397
	s-22.9554443-6.3269043-28.4612427-9.9457397c-5.5058594,3.6188049-16.7996216,9.9457397-28.4612427,9.9457397
	c-11.6622009,0-22.9565125-6.3269043-28.4629211-9.9457397c-5.5058289,3.6188049-16.7990723,9.9457397-28.4612732,9.9457397
	c-11.6616516,0-22.9565125-6.3269043-28.4623718-9.9457397c-5.5058594,3.6188049-16.7996216,9.9457397-28.4618225,9.9457397
	c-11.660553,0-22.9543152-6.326355-28.4601746-9.9457397c-5.5063782,3.6193542-16.8001709,9.9457397-28.4601746,9.9457397
	L341.95224,365.5139465z"/>
<path class="st2" d="M341.95224,376.1495361c11.6600037,0,22.9537659-6.326355,28.4601746-9.9457397
	c5.5058594,3.6193848,16.7996216,9.9457397,28.4601746,9.9457397c11.6622009,0,22.9559937-6.3269043,28.4618225-9.9457397
	c5.5058289,3.6188049,16.8006897,9.9457397,28.4623718,9.9457397c11.6622009,0,22.9554138-6.3269043,28.4612732-9.9457397
	c5.5064087,3.6188049,16.8007202,9.9457397,28.4628906,9.9457397c11.6616821,0,22.9554443-6.3269043,28.4612427-9.9457397
	c5.5058594,3.6188049,16.7990723,9.9457397,28.4612427,9.9457397s22.9570312-6.3269043,28.4628906-9.9457397
	c5.5058594,3.6188049,16.7996216,9.9457397,28.461792,9.9457397c11.6633301,0,22.9592285-6.3269043,28.4656372-9.9457397
	c5.5064087,3.6188049,15.8029785,9.9457397,27.4662476,9.9457397v-11.195343
	c-11.663269,0-21.9598389-6.3269348-27.4662476-9.9457397c-5.5064087,3.6188049-16.8023682,9.9457397-28.4656372,9.9457397
	c-11.6621704,0-22.9559937-6.3269348-28.461792-9.9457397c-5.5058594,3.6188049-16.8007202,9.9457397-28.4628906,9.9457397
	s-22.9554443-6.3269348-28.4612427-9.9457397c-5.5058594,3.6188049-16.7996216,9.9457397-28.4612427,9.9457397
	c-11.6622009,0-22.9565125-6.3269348-28.4629211-9.9457397c-5.5058289,3.6188049-16.7990723,9.9457397-28.4612732,9.9457397
	c-11.6616516,0-22.9565125-6.3269348-28.4623718-9.9457397c-5.5058594,3.6188049-16.7996216,9.9457397-28.4618225,9.9457397
	c-11.660553,0-22.9543152-6.326355-28.4601746-9.9457397c-5.5063782,3.6193542-16.8001709,9.9457397-28.4601746,9.9457397
	L341.95224,376.1495361z"/>
<path class="st15" d="M341.95224,386.7851257c11.6600037,0,22.9537659-6.326355,28.4601746-9.9457397
	c5.5058594,3.6193542,16.7996216,9.9457397,28.4601746,9.9457397c11.6622009,0,22.9559937-6.3269043,28.4618225-9.9457397
	c5.5058289,3.6188049,16.8006897,9.9457397,28.4623718,9.9457397c11.6622009,0,22.9554138-6.3269043,28.4612732-9.9457397
	c5.5064087,3.6188049,16.8007202,9.9457397,28.4628906,9.9457397c11.6616821,0,22.9554443-6.3269043,28.4612427-9.9457397
	c5.5058594,3.6188049,16.7990723,9.9457397,28.4612427,9.9457397s22.9570312-6.3269043,28.4628906-9.9457397
	c5.5058594,3.6188049,16.7996216,9.9457397,28.461792,9.9457397c11.6633301,0,22.9592285-6.3269043,28.4656372-9.9457397
	c5.5064087,3.6188049,15.8029785,9.9457397,27.4662476,9.9457397v-11.195343
	c-11.663269,0-21.9598389-6.3269043-27.4662476-9.9457092c-5.5064087,3.6188049-16.8023682,9.9457092-28.4656372,9.9457092
	c-11.6621704,0-22.9559937-6.3269043-28.461792-9.9457092c-5.5058594,3.6188049-16.8007202,9.9457092-28.4628906,9.9457092
	s-22.9554443-6.3269043-28.4612427-9.9457092c-5.5058594,3.6188049-16.7996216,9.9457092-28.4612427,9.9457092
	c-11.6622009,0-22.9565125-6.3269043-28.4629211-9.9457092c-5.5058289,3.6188049-16.7990723,9.9457092-28.4612732,9.9457092
	c-11.6616516,0-22.9565125-6.3269043-28.4623718-9.9457092c-5.5058594,3.6188049-16.7996216,9.9457092-28.4618225,9.9457092
	c-11.660553,0-22.9543152-6.326355-28.4601746-9.9457092c-5.5063782,3.6193542-16.8001709,9.9457092-28.4601746,9.9457092
	L341.95224,386.7851257z"/>
<path class="st2" d="M341.95224,397.4207458c11.6600037,0,22.9537659-6.326355,28.4601746-9.9457397
	c5.5058594,3.6193542,16.7996216,9.9457397,28.4601746,9.9457397c11.6622009,0,22.9559937-6.3269043,28.4618225-9.9457397
	c5.5058289,3.6188049,16.8006897,9.9457397,28.4623718,9.9457397c11.6622009,0,22.9554138-6.3269043,28.4612732-9.9457397
	c5.5064087,3.6188049,16.8007202,9.9457397,28.4628906,9.9457397c11.6616821,0,22.9554443-6.3269043,28.4612427-9.9457397
	c5.5058594,3.6188049,16.7990723,9.9457397,28.4612427,9.9457397s22.9570312-6.3269043,28.4628906-9.9457397
	c5.5058594,3.6188049,16.7996216,9.9457397,28.461792,9.9457397c11.6633301,0,22.9592285-6.3269043,28.4656372-9.9457397
	c5.5064087,3.6188049,15.8029785,9.9457397,27.4662476,9.9457397v-11.1953735
	c-11.663269,0-21.9598389-6.3269043-27.4662476-9.9457397c-5.5064087,3.6188049-16.8023682,9.9457397-28.4656372,9.9457397
	c-11.6621704,0-22.9559937-6.3269043-28.461792-9.9457397c-5.5058594,3.6188049-16.8007202,9.9457397-28.4628906,9.9457397
	s-22.9554443-6.3269043-28.4612427-9.9457397c-5.5058594,3.6188049-16.7996216,9.9457397-28.4612427,9.9457397
	c-11.6622009,0-22.9565125-6.3269043-28.4629211-9.9457397c-5.5058289,3.6188049-16.7990723,9.9457397-28.4612732,9.9457397
	c-11.6616516,0-22.9565125-6.3269043-28.4623718-9.9457397c-5.5058594,3.6188049-16.7996216,9.9457397-28.4618225,9.9457397
	c-11.660553,0-22.9543152-6.326355-28.4601746-9.9457397c-5.5063782,3.6193848-16.8001709,9.9457397-28.4601746,9.9457397
	L341.95224,397.4207458z"/>
<path class="st15" d="M341.95224,344.2427368c11.6600037,0,22.9537659-6.326355,28.4601746-9.9457397
	c5.5058594,3.6193542,16.7996216,9.9457397,28.4601746,9.9457397c11.6622009,0,22.9559937-6.3269043,28.4618225-9.9457397
	c5.5058289,3.6188049,16.8006897,9.9457397,28.4623718,9.9457397c11.6622009,0,22.9554138-6.3269043,28.4612732-9.9457397
	c5.5064087,3.6188049,16.8007202,9.9457397,28.4628906,9.9457397c11.6616821,0,22.9554443-6.3269043,28.4612427-9.9457397
	c5.5058594,3.6188049,16.7990723,9.9457397,28.4612427,9.9457397s22.9570312-6.3269043,28.4628906-9.9457397
	c5.5058594,3.6188049,16.7996216,9.9457397,28.461792,9.9457397c11.6633301,0,22.9592285-6.3269043,28.4656372-9.9457397
	c5.5064087,3.6188049,15.8029785,9.9457397,27.4662476,9.9457397v-11.195343
	c-11.663269,0-21.9598389-6.3269043-27.4662476-9.9457397c-5.5064087,3.6188049-16.8023682,9.9457397-28.4656372,9.9457397
	c-11.6621704,0-22.9559937-6.3269043-28.461792-9.9457397c-5.5058594,3.6188049-16.8007202,9.9457397-28.4628906,9.9457397
	s-22.9554443-6.3269043-28.4612427-9.9457397c-5.5058594,3.6188049-16.7996216,9.9457397-28.4612427,9.9457397
	c-11.6622009,0-22.9565125-6.3269043-28.4629211-9.9457397c-5.5058289,3.6188049-16.7990723,9.9457397-28.4612732,9.9457397
	c-11.6616516,0-22.9565125-6.3269043-28.4623718-9.9457397c-5.5058594,3.6188049-16.7996216,9.9457397-28.4618225,9.9457397
	c-11.660553,0-22.9543152-6.326355-28.4601746-9.9457397c-5.5063782,3.6193848-16.8001709,9.9457397-28.4601746,9.9457397
	L341.95224,344.2427368z"/>
<path class="st2" d="M341.95224,354.8783569c11.6600037,0,22.9537659-6.326355,28.4601746-9.9457397
	c5.5058594,3.6193542,16.7996216,9.9457397,28.4601746,9.9457397c11.6622009,0,22.9559937-6.3269348,28.4618225-9.9457397
	c5.5058289,3.6188049,16.8006897,9.9457397,28.4623718,9.9457397c11.6622009,0,22.9554138-6.3269348,28.4612732-9.9457397
	c5.5064087,3.6188049,16.8007202,9.9457397,28.4628906,9.9457397c11.6616821,0,22.9554443-6.3269348,28.4612427-9.9457397
	c5.5058594,3.6188049,16.7990723,9.9457397,28.4612427,9.9457397s22.9570312-6.3269348,28.4628906-9.9457397
	c5.5058594,3.6188049,16.7996216,9.9457397,28.461792,9.9457397c11.6633301,0,22.9592285-6.3269348,28.4656372-9.9457397
	c5.5064087,3.6188049,15.8029785,9.9457397,27.4662476,9.9457397v-11.195343
	c-11.663269,0-21.9598389-6.3269043-27.4662476-9.9457397c-5.5064087,3.6188049-16.8023682,9.9457397-28.4656372,9.9457397
	c-11.6621704,0-22.9559937-6.3269043-28.461792-9.9457397c-5.5058594,3.6188049-16.8007202,9.9457397-28.4628906,9.9457397
	s-22.9554443-6.3269043-28.4612427-9.9457397c-5.5058594,3.6188049-16.7996216,9.9457397-28.4612427,9.9457397
	c-11.6622009,0-22.9565125-6.3269043-28.4629211-9.9457397c-5.5058289,3.6188049-16.7990723,9.9457397-28.4612732,9.9457397
	c-11.6616516,0-22.9565125-6.3269043-28.4623718-9.9457397c-5.5058594,3.6188049-16.7996216,9.9457397-28.4618225,9.9457397
	c-11.660553,0-22.9543152-6.326355-28.4601746-9.9457397c-5.5063782,3.6193542-16.8001709,9.9457397-28.4601746,9.9457397
	L341.95224,354.8783569z"/>
<path class="st8" d="M682.5,304.2328491c-0.0029907-16.5346985-12.4094238-29.9363098-28.9440918-29.9333191
	c-16.5305176,0.0029602-29.9303589,13.402832-29.9333496,29.9333191V418H682.5V304.2328491z"/>
<path class="st10" d="M623.6225586,304.2328491h29.9387207v-29.9387207
	C637.0266113,274.2941284,623.6225586,287.6981506,623.6225586,304.2328491z"/>
<rect x="653.5612793" y="304.2328491" class="st10" width="28.9387207" height="113.7671509"/>
<path class="st12" d="M653.5612793,274.2941284v29.9387207H682.5
	C682.5,287.6981506,670.0959473,274.2941284,653.5612793,274.2941284z"/>
<line class="st16" x1="653.5612793" y1="323.2564087" x2="682.5" y2="323.2564087"/>
<line class="st16" x1="653.5612793" y1="342.2799683" x2="682.5" y2="342.2799683"/>
<line class="st16" x1="653.5612793" y1="361.3035278" x2="682.5" y2="361.3035278"/>
<line class="st16" x1="653.5612793" y1="380.3270874" x2="682.5" y2="380.3270874"/>
<line class="st16" x1="653.5612793" y1="399.3506775" x2="682.5" y2="399.3506775"/>
<line class="st17" x1="623.6225586" y1="323.2564087" x2="653.5612793" y2="323.2564087"/>
<line class="st17" x1="623.6225586" y1="342.2799683" x2="653.5612793" y2="342.2799683"/>
<line class="st17" x1="623.6225586" y1="361.3035278" x2="653.5612793" y2="361.3035278"/>
<line class="st17" x1="623.6225586" y1="380.3270874" x2="653.5612793" y2="380.3270874"/>
<line class="st17" x1="623.6225586" y1="399.3506775" x2="653.5612793" y2="399.3506775"/>
<path class="st12" d="M590.3157349,312.4660034c0,0-0.133606,0.0809937-0.3742676,0.2303467v-0.2303467h-95.055481v0.2303467
	c-4.4173889,2.7398682-47.1535034,29.8896179-47.1535034,54.782074V418h190.1109009v-50.5216064
	C637.8434448,341.2295837,590.3157349,312.4660034,590.3157349,312.4660034z"/>
<path class="st8" d="M542.7880249,367.4783936c0-26.2488403-47.5277405-55.0124207-47.5277405-55.0124207
	s-47.52771,28.7635803-47.52771,55.0124207V418h95.0554504V367.4783936z"/>
<path class="st10" d="M477.6712646,418v-34.6053162c0.8756409-2.2004395,4.9819946-8.6552734,16.1191101-17.9815063
	c0.4926758-0.4125977,0.982666-0.8173828,1.4698792-1.2144165c0.6702576,0.5463562,1.3451233,1.1068726,2.0246582,1.681488
	c10.7314453,9.0843201,14.7070007,15.3644409,15.5643311,17.5151672V418H477.6712646z"/>
<rect x="542.7879639" y="367.8526306" class="st10" width="95.0554199" height="50.1473694"/>
<path class="st12" d="M574.2236328,393.4421387c0-4.7655945-8.6288452-9.9877319-8.6288452-9.9877319
	s-8.6288452,5.2221375-8.6288452,9.9877319v9.1724243h17.2577515L574.2236328,393.4421387z"/>
<path class="st12" d="M598.9230957,393.4421387c0-4.7655945-8.6288452-9.9877319-8.6288452-9.9877319
	s-8.6288452,5.2221375-8.6288452,9.9877319v9.1724243h17.2576904V393.4421387z"/>
<path class="st12" d="M623.6225586,393.4421387c0-4.7655945-8.6288452-9.9877319-8.6288452-9.9877319
	s-8.6288452,5.2221375-8.6288452,9.9877319v9.1724243h17.2577515L623.6225586,393.4421387z"/>
<polygon class="st10" points="78.9929962,382.0150146 0,445.2090149 0,540 237.6100006,540 237.6100006,445.2090149 
	158.6170044,382.0150146 "/>
<polygon class="st8" points="237.6100006,540 79.625,540 79.625,445.2090149 158.6170044,382.0150146 237.6100006,445.2090149 "/>
<rect y="444.6020203" class="st12" width="79.6246796" height="95.3979797"/>
<polygon class="st8" points="92.2639999,389.7130127 74.7850037,389.7130127 74.7850037,424.2810059 92.2639999,410.2980042 "/>
<rect x="58.138649" y="389.7128296" class="st12" width="16.6462708" height="34.5684509"/>
<rect x="104.902359" y="484.3890991" class="st10" width="11.8582001" height="11.8582153"/>
<rect x="120.8495865" y="484.3890991" class="st10" width="11.8582077" height="11.8582153"/>
<rect x="104.902359" y="500.3363647" class="st10" width="11.8582001" height="11.8582153"/>
<rect x="120.8495865" y="500.3363647" class="st10" width="11.8582077" height="11.8582153"/>
<rect x="184.5270233" y="484.3890991" class="st10" width="11.8582001" height="11.8582153"/>
<rect x="200.4742737" y="484.3890991" class="st10" width="11.8582001" height="11.8582153"/>
<rect x="184.5270233" y="500.3363647" class="st10" width="11.8582001" height="11.8582153"/>
<rect x="200.4742737" y="500.3363647" class="st10" width="11.8582001" height="11.8582153"/>
<rect x="104.902359" y="443.9448242" class="st10" width="11.8582001" height="11.8582153"/>
<rect x="120.8495865" y="443.9448242" class="st10" width="11.8582077" height="11.8582153"/>
<rect x="104.902359" y="459.8920593" class="st10" width="11.8582001" height="11.8581848"/>
<rect x="120.8495865" y="459.8920593" class="st10" width="11.8582077" height="11.8581848"/>
<rect x="184.5270233" y="443.9448242" class="st10" width="11.8582001" height="11.8582153"/>
<rect x="200.4742737" y="443.9448242" class="st10" width="11.8582001" height="11.8582153"/>
<rect x="184.5270233" y="459.8920593" class="st10" width="11.8582001" height="11.8581848"/>
<rect x="200.4742737" y="459.8920593" class="st10" width="11.8582001" height="11.8581848"/>
<rect x="142.1869354" y="484.3890991" class="st10" width="32.8609772" height="55.6109009"/>
</svg>
