<svg id="Layer_1" data-name="Layer 1" xmlns="http://www.w3.org/2000/svg" xmlns:xlink="http://www.w3.org/1999/xlink" viewBox="0 0 56 56"><defs><style>.cls-1{fill:url(#linear-gradient);}.cls-2{fill:url(#linear-gradient-2);}.cls-3{fill:url(#linear-gradient-3);}.cls-4{fill:url(#linear-gradient-4);}.cls-5{fill:url(#linear-gradient-5);}.cls-6{fill:url(#linear-gradient-6);}.cls-7{fill:url(#linear-gradient-7);}.cls-8{fill:url(#linear-gradient-8);}.cls-9{fill:#fff;}</style><linearGradient id="linear-gradient" x1="146" y1="1103.99976" x2="201.99989" y2="1103.99976" gradientTransform="matrix(1, 0, 0, -1, -146, 1132)" gradientUnits="userSpaceOnUse"><stop offset="0" stop-color="#2a59a2"/><stop offset="1" stop-color="#2a59a2"/></linearGradient><linearGradient id="linear-gradient-2" x1="143.73885" y1="1113.5609" x2="202.97005" y2="1113.5609" gradientTransform="matrix(1, 0, 0, -1, -146, 1132)" gradientUnits="userSpaceOnUse"><stop offset="0" stop-color="#91d3f2"/><stop offset="0.2664" stop-color="#6fb2de"/><stop offset="0.5214" stop-color="#5598ce"/><stop offset="0.6729" stop-color="#4b8fc8"/></linearGradient><linearGradient id="linear-gradient-3" x1="146.00452" y1="1090.96301" x2="202.41319" y2="1090.96301" gradientTransform="matrix(1, 0, 0, -1, -146, 1132)" gradientUnits="userSpaceOnUse"><stop offset="0" stop-color="#2c9ec7"/><stop offset="0.4037" stop-color="#2c63a5"/><stop offset="1" stop-color="#395da1"/></linearGradient><linearGradient id="linear-gradient-4" x1="146.00358" y1="1102.79807" x2="202.41225" y2="1102.79807" gradientTransform="matrix(1, 0, 0, -1, -146, 1132)" gradientUnits="userSpaceOnUse"><stop offset="0" stop-color="#4faac4"/><stop offset="0.00155" stop-color="#2f75b1"/><stop offset="1" stop-color="#356eac"/></linearGradient><linearGradient id="linear-gradient-5" x1="166.22458" y1="1111.53039" x2="202.73668" y2="1111.53039" gradientTransform="matrix(1, 0, 0, -1, -146, 1132)" gradientUnits="userSpaceOnUse"><stop offset="0" stop-color="#4faac4"/><stop offset="0.00155" stop-color="#2f81b6"/><stop offset="1" stop-color="#3b5ea9"/></linearGradient><linearGradient id="linear-gradient-6" x1="166.22315" y1="1097.5519" x2="202.73526" y2="1097.5519" gradientTransform="matrix(1, 0, 0, -1, -146, 1132)" gradientUnits="userSpaceOnUse"><stop offset="0" stop-color="#4faac4"/><stop offset="0.00155" stop-color="#1e3773"/><stop offset="1" stop-color="#203370"/></linearGradient><linearGradient id="linear-gradient-7" x1="189.8539" y1="1094.50229" x2="189.8539" y2="1114.52393" gradientTransform="matrix(1, 0, 0, -1, -146, 1132)" gradientUnits="userSpaceOnUse"><stop offset="0" stop-color="#4faac4"/><stop offset="0.00155" stop-color="#2c5a9a"/><stop offset="1" stop-color="#374580"/></linearGradient><linearGradient id="linear-gradient-8" x1="139.91429" y1="1096.93636" x2="181.46443" y2="1096.93636" gradientTransform="matrix(1, 0, 0, -1, -146, 1132)" gradientUnits="userSpaceOnUse"><stop offset="0.1115" stop-color="#38b1da"/><stop offset="1" stop-color="#326fb5"/></linearGradient></defs><path class="cls-1" d="M55.7013,24.6299h-.99991a12.342,12.342,0,0,0-8.4699,2.90474c-7.55141,6.53793-9.27525,16.16157-22.19726,21.35571C13.2704,53.21579,0,49.1211,0,49.1211s11.84066-.82346,13.41066-9.85892c1.22614-7.06729-5.20319-12.085-9.23906-18.46C.06787,14.30948-.98634,8.91626.99087,6.58614,6.59674-.03323,22.03439,17.86123,29.69891,20.2728c7.50165,2.35727,12.56459-3.11739,18.77674-2.312a4.39185,4.39185,0,0,1,3.59247,2.19891,11.14121,11.14121,0,0,0,1.22614,2.07676,8.60573,8.60573,0,0,0,1.665,1.1266C55.69678,23.79739,56.42522,24.6299,55.7013,24.6299Z"/><path class="cls-2" d="M20.22458,14.27781c-1.855-1.41164-3.76892-2.89116-5.65112-4.23947h0c-.4253-.30314-.85061-.60176-1.27139-.89133h0C8.25724,5.69481,3.57889,3.53209.99087,6.58614c-1.97721,2.33012-.923,7.72334,3.18526,14.216.04072.06787.086.13121.12668.19908,2.1401,3.31195,8.34773,11.07149,23.06146,10.7412.96824-1.02706,2.43871-2.96808,4.339-5.081C28.62208,21.67992,23.97993,17.33639,20.22458,14.27781Z"/><path class="cls-3" d="M35.05594,37.68765a17.57084,17.57084,0,0,0-1.10851-6.48815,51.97909,51.97909,0,0,1-6.58317.54294A67.2458,67.2458,0,0,1,14.6368,43.375C5.56515,49.51021.00452,49.1211.00452,49.1211s13.27493,4.09469,24.03423-.23075a28.79073,28.79073,0,0,0,9.04-5.64207A8.39475,8.39475,0,0,0,35.05594,37.68765Z"/><path class="cls-4" d="M31.7078,26.66141c-1.9003,2.10843-3.37529,4.054-4.339,5.081A51.835,51.835,0,0,0,33.952,31.1995c-.22623-.62891-.48865-1.24876-.77822-1.85958A28.61922,28.61922,0,0,0,31.7078,26.66141Z"/><path class="cls-5" d="M42.73856,18.65754C38.766,19.86107,34.798,21.87448,29.69891,20.2728c-2.52468-.79179-5.89544-3.2667-9.47433-5.995,3.75535,3.05858,8.3975,7.39759,11.48322,12.3836C34.52205,23.544,38.27739,20.06014,42.73856,18.65754Z"/><path class="cls-6" d="M33.952,31.1995a17.571,17.571,0,0,1,1.1085,6.48815,8.43849,8.43849,0,0,1-1.98173,5.56063C38.51267,38.22155,40.94234,32.118,46.236,27.53465a11.675,11.675,0,0,1,2.9907-1.88673h-.00453C45.75189,27.10482,41.9875,29.98693,33.952,31.1995Z"/><path class="cls-7" d="M55.7013,24.6299c.72392,0-.00452-.83251-.7375-1.26234a9.03253,9.03253,0,0,1-1.665-1.1266,10.79712,10.79712,0,0,1-1.22614-2.07675,4.38879,4.38879,0,0,0-3.59247-2.19891,13.543,13.543,0,0,0-5.73708.69677c-4.46117,1.4026-8.22105,4.88648-11.03529,8.00387a27.547,27.547,0,0,1,1.46594,2.674c.28957.61534.552,1.2352.77822,1.85958,8.04006-1.21257,11.79993-4.09469,15.27023-5.55158h.00453a13.12126,13.12126,0,0,1,5.47918-1.018Z"/><path class="cls-8" d="M14.6368,43.375A67.2458,67.2458,0,0,0,27.36426,31.74244c-14.71372.33029-20.92135-7.42925-23.06145-10.7412,4.04039,6.28455,10.325,11.27057,9.11238,18.26095C11.84518,48.29765.00452,49.1211.00452,49.1211S5.56515,49.51021,14.6368,43.375Z"/><ellipse class="cls-9" cx="48.06845" cy="21.33153" rx="1.17637" ry="1.16733"/></svg>