<?xml version="1.0" encoding="utf-8"?>
<!-- Generator: Adobe Illustrator 24.1.3, SVG Export Plug-In . SVG Version: 6.00 Build 0)  -->
<svg version="1.1" id="Layer_1" xmlns="http://www.w3.org/2000/svg" xmlns:xlink="http://www.w3.org/1999/xlink" x="0px" y="0px"
	 viewBox="0 0 30.7954369 50" style="enable-background:new 0 0 30.7954369 50;" xml:space="preserve">
<style type="text/css">
	.st0{fill:#000000;}
</style>
<path class="st0" d="M24.2773895,27.6937599c-1.9470901,0-3.6926861,0.8626328-4.8880539,2.2207584L16.326273,27.746088
	c0.3251553-0.8952332,0.5118542-1.8565083,0.5118542-2.8626537c0-0.9887009-0.1802025-1.933857-0.4946518-2.8158569
	l3.0562077-2.1454563c1.1952477,1.3512707,2.9362717,2.2092113,4.8777084,2.2092113
	c3.5938034,0,6.5180454-2.9237633,6.5180454-6.5180473s-2.9242439-6.5180464-6.5180454-6.5180464
	s-6.5180454,2.9237623-6.5180454,6.5180464c0,0.6433372,0.0971985,1.2636967,0.2716255,1.8512154l-3.0582533,2.1465378
	c-1.2775297-1.5848827-3.1169548-2.6914711-5.2127285-3.0292606v-3.6858292
	c2.9525118-0.6201191,5.1771212-3.2433844,5.1771212-6.3779035C14.9371099,2.9237621,12.012867,0,8.4190636,0
	S1.9010168,2.9237621,1.9010168,6.5180464c0,3.092536,2.1669884,5.6834412,5.0604362,6.3478308v3.7337055
	C3.01266,17.2927208,0,20.7389221,0,24.8834343c0,4.1647224,3.0424929,7.6235542,7.0197959,8.2931175v3.9425354
	c-2.9230404,0.6424942-5.1187792,3.2492752-5.1187792,6.3628654C1.901017,47.0762405,4.8252602,50,8.4190636,50
	s6.5180464-2.9237595,6.5180464-6.5180473c0-3.1135864-2.1957388-5.7203712-5.1187782-6.3628654v-3.9426575
	c2.0131159-0.3390923,3.8343639-1.3983231,5.1245527-2.9804211l3.0835133,2.1825047
	c-0.1711788,0.5822258-0.2670536,1.1964531-0.2670536,1.8332901c0,3.5942841,2.9242439,6.5180473,6.5180473,6.5180473
	s6.5180454-2.9237633,6.5180454-6.5180473S27.8711929,27.6937599,24.2773895,27.6937599z M24.2773895,12.4530258
	c1.7427082,0,3.160141,1.4180336,3.160141,3.1602612s-1.4174328,3.1601429-3.160141,3.1601429
	s-3.160141-1.4179153-3.160141-3.1601429S22.5346813,12.4530268,24.2773895,12.4530258z M5.2588005,6.5180469
	c0-1.7422276,1.4175525-3.1601412,3.1602612-3.1601412s3.1601419,1.4179132,3.1601419,3.1601412
	s-1.4174318,3.1601415-3.1601419,3.1601415S5.2588,8.2602749,5.2588005,6.5180469z M11.5792036,43.4819527
	c0,1.7422295-1.4174318,3.160141-3.1601419,3.160141S5.2588,45.2241821,5.2588,43.4819527
	c0-1.7422256,1.4175525-3.1601372,3.1602616-3.1601372S11.5792036,41.739727,11.5792036,43.4819527z M8.4188213,29.2907925
	c-2.4305544,0-4.4078374-1.9769249-4.4078374-4.4073582c0-2.4305534,1.9772835-4.4078369,4.4078374-4.4078369
	c2.4304333,0,4.4077168,1.9772835,4.4077168,4.4078369C12.8265381,27.3138676,10.8492537,29.2907925,8.4188213,29.2907925z
	 M24.2773876,37.3720703c-1.7427082,0-3.160141-1.4180336-3.160141-3.1602631c0-1.7422256,1.4174328-3.1601391,3.160141-3.1601391
	s3.160141,1.4179134,3.160141,3.1601391C27.4375286,35.9540367,26.0200958,37.3720703,24.2773876,37.3720703z"/>
</svg>
