<?xml version="1.0" encoding="utf-8"?>
<svg xmlns="http://www.w3.org/2000/svg" viewBox="0 0 200.21 93.82">
  <defs>
    <style>.cls-1{fill:#fff;}</style>
  </defs>
  <title>logos-registered</title>
  <path class="cls-1" d="M200.21,20.64L198,7.61C197.34,3.42,195.71,0,194.41,0s-2.35,3.47-2.35,7.71v3.41a7.73,7.73,0,0,1-7.71,7.71h-3.41l-0.73,0v9.37l0.73,0h12.82a6.33,6.33,0,0,0,6.44-7.61"/>
  <path class="cls-1" d="M169.47,9.61H148.69l-0.51,0H126.83a4.71,4.71,0,0,0-.73.06v-2C126.1,3.47,125,0,123.74,0s-2.92,3.42-3.62,7.61l-2.17,13a6.33,6.33,0,0,0,6.44,7.61h12.82a11.69,11.69,0,0,0,3.65-.57,4.71,4.71,0,0,1-4.62,3.84h-18A4.71,4.71,0,0,1,113.63,26l1.82-10.92a4.71,4.71,0,0,0-4.64-5.48H21.33A4.7,4.7,0,0,0,17,12.4L0.19,38a1.17,1.17,0,0,0,.09,1.4l3.27,3.86a1.17,1.17,0,0,0,1.62.16l11.45-9V89.26A4.71,4.71,0,0,0,21.33,94h25.4a4.71,4.71,0,0,0,4.71-4.71V70.19a4.71,4.71,0,0,1,4.71-4.71h63.41a4.71,4.71,0,0,1,4.71,4.71V89.26A4.71,4.71,0,0,0,129,94h25.4a4.71,4.71,0,0,0,4.71-4.71V68.74H145.59A7.73,7.73,0,0,1,137.88,61V47.83a7.7,7.7,0,0,1,3.1-6.16V57.42a7.73,7.73,0,0,0,7.71,7.71h20.79a7.73,7.73,0,0,0,7.71-7.71V17.32a7.73,7.73,0,0,0-7.71-7.71"/>
</svg>
