<?xml version="1.0" encoding="utf-8"?>
<!-- Generator: Adobe Illustrator 24.1.3, SVG Export Plug-In . SVG Version: 6.00 Build 0)  -->
<svg version="1.1" id="Layer_1" xmlns="http://www.w3.org/2000/svg" xmlns:xlink="http://www.w3.org/1999/xlink" x="0px" y="0px"
	 viewBox="0 0 50 50" style="enable-background:new 0 0 50 50;" xml:space="preserve">
<style type="text/css">
	.st0{fill:#013144;}
	.st1{fill:#2691D0;}
</style>
<g>
	<path class="st0" d="M31.781599,6.7816014c-10.061718,0-18.2183971,8.1566811-18.2183971,18.218399
		s8.1604328,18.218399,18.218401,18.218399S50,35.0579681,50,25S41.8433189,6.7816014,31.781599,6.7816014z M31.781599,40.4457283
		c-8.5304394,0.0005188-15.4461479-6.9143524-15.4466648-15.4447918
		c-0.0005188-8.5304394,6.9143505-15.4461479,15.4447899-15.4466658s15.4461517,6.9143515,15.4466667,15.4447908
		c0,0.0003128,0,0.0006256,0,0.0009384c-0.000515,8.5298615-6.9149323,15.4446945-15.4447918,15.4457321V40.4457283z"/>
	<path class="st1" d="M25.5262089,10.8749495c-7.8010521,3.4564991-11.3230057,12.5825453-7.8665066,20.3835983
		c1.5543461,3.5080395,4.358469,6.3121586,7.8665066,7.8665066c7.8010502-6.8965797,8.5342693-18.8113594,1.6376934-26.6124096
		C26.6520824,11.9336996,26.1051521,11.3867693,25.5262089,10.8749495z"/>
	<path class="st1" d="M13.5632019,25c-0.0060539-4.1857929,1.4354668-8.2449131,4.0802155-11.4893246
		c-1.6182289-0.7431602-3.3781767-1.1271477-5.1588936-1.125577C5.5903649,12.3869743,0,18.0336189,0,25
		s5.5903649,12.6130295,12.4854612,12.6130295c1.7807169,0.0015717,3.5406637-0.3824196,5.1588945-1.1255798
		C14.9996767,33.2436676,13.5578461,29.1852646,13.5632019,25z"/>
</g>
</svg>
