<?xml version="1.0" encoding="utf-8"?>
<!-- Generator: Adobe Illustrator 23.0.6, SVG Export Plug-In . SVG Version: 6.00 Build 0)  -->
<svg version="1.1" id="Layer_1" xmlns="http://www.w3.org/2000/svg" xmlns:xlink="http://www.w3.org/1999/xlink" x="0px" y="0px"
	 viewBox="0 0 200.2100067 93.8199997" style="enable-background:new 0 0 200.2100067 93.8199997;" xml:space="preserve">
<style type="text/css">
	.st0{fill:#3D98D3;}
</style>
<title>logos-registered</title>
<path class="st0" d="M200.2100067,20.6399994L198,7.6100001C197.3399963,3.4200001,195.7100067,0,194.4100037,0
	s-2.3500061,3.47-2.3500061,7.71v3.4099998c-0.0109863,4.2535572-3.4564514,7.6990118-7.7100067,7.71h-3.4100037h-0.7299957
	v9.3700008h0.7299957h12.8199921c3.4934082,0.1335011,6.433609-2.5902462,6.5671082-6.0836582
	c0.0195618-0.5120506-0.0231171-1.0245819-0.1271057-1.5263424"/>
<path class="st0" d="M169.4700012,9.6099997h-20.7799988h-0.5099945h-21.3500061
	c-0.2445221,0.0010204-0.4885941,0.021081-0.7300034,0.0600004v-2C126.0999985,3.47,125,0,123.7399979,0
	s-2.9199982,3.4200001-3.6200027,7.6100001l-2.1699982,13c-0.7094727,3.423214,1.490448,6.7734222,4.9136581,7.4828968
	c0.5017624,0.1039906,1.0142975,0.1466713,1.5263443,0.1271038h12.8199921
	c1.2391815,0.0046597,2.4712372-0.1877422,3.6499939-0.5699997c-0.4178925,2.2234554-2.3576202,3.8356972-4.6199951,3.8400002h-18
	c-2.6011887-0.0193024-4.6942215-2.143631-4.6749191-4.7448196c0.0018539-0.2497234,0.0235596-0.4989033,0.0649261-0.745182
	l1.8199997-10.9200001c0.4252625-2.5662642-1.3103638-4.991375-3.8766251-5.4166365
	c-0.2523193-0.0418119-0.5076218-0.0630026-0.7633743-0.0633631H21.3299999
	C19.4578094,9.5876045,17.7568188,10.6875525,17,12.3999996L0.19,38c-0.2841312,0.4348984-0.2474777,1.0050659,0.09,1.4000015
	l3.27,3.8600006c0.4083083,0.4818306,1.125324,0.5526466,1.6200001,0.1599998l11.4499989-9v54.8400002
	c-0.0165672,2.6012115,2.0786991,4.7233353,4.6799068,4.7398987C21.3099365,93.9999695,21.3199692,94,21.3299999,94h25.3999996
	c2.6012611,0,4.7099991-2.1087418,4.7099991-4.7099991V70.1900024c0-2.6012573,2.1087379-4.7099991,4.7099991-4.7099991h63.4099998
	c2.6012573,0,4.7099991,2.1087418,4.7099991,4.7099991v19.0699997c-0.0165939,2.6012115,2.0786591,4.7233505,4.679863,4.7399445
	C128.966568,94.0000534,128.9832916,94.0000687,129,94h25.3999939c2.6012573,0,4.7100067-2.1087341,4.7100067-4.7099915
	c0-0.0000076,0-0.0000076,0-0.0000076V68.7399979h-13.5200043c-4.2652435-0.0110397-7.7155151-3.4747391-7.7099915-7.7399979
	V47.8300018c0.004715-2.4271584,1.1535645-4.7100143,3.1000061-6.1599998v15.7499962
	c0.0109863,4.2535553,3.4564514,7.6990128,7.7100067,7.7099991h20.7899933
	c4.2535553-0.0109863,7.6990204-3.4564438,7.7100067-7.7099991V17.3199997c-0.0109863-4.2535572-3.4564514-7.6990128-7.7100067-7.71
	"/>
</svg>
