<svg id="Layer_1" data-name="Layer 1" xmlns="http://www.w3.org/2000/svg" viewBox="0 0 864.12 93.82"><defs><style>.cls-1{fill:#fff;}</style></defs><title>logos-registered</title><path class="cls-1" d="M200.21,20.64L198,7.61C197.34,3.42,195.71,0,194.41,0s-2.35,3.47-2.35,7.71v3.41a7.73,7.73,0,0,1-7.71,7.71h-3.41l-0.73,0v9.37l0.73,0h12.82a6.33,6.33,0,0,0,6.44-7.61"/><path class="cls-1" d="M169.47,9.61H148.69l-0.51,0H126.83a4.71,4.71,0,0,0-.73.06v-2C126.1,3.47,125,0,123.74,0s-2.92,3.42-3.62,7.61l-2.17,13a6.33,6.33,0,0,0,6.44,7.61h12.82a11.69,11.69,0,0,0,3.65-.57,4.71,4.71,0,0,1-4.62,3.84h-18A4.71,4.71,0,0,1,113.63,26l1.82-10.92a4.71,4.71,0,0,0-4.64-5.48H21.33A4.7,4.7,0,0,0,17,12.4L0.19,38a1.17,1.17,0,0,0,.09,1.4l3.27,3.86a1.17,1.17,0,0,0,1.62.16l11.45-9V89.26A4.71,4.71,0,0,0,21.33,94h25.4a4.71,4.71,0,0,0,4.71-4.71V70.19a4.71,4.71,0,0,1,4.71-4.71h63.41a4.71,4.71,0,0,1,4.71,4.71V89.26A4.71,4.71,0,0,0,129,94h25.4a4.71,4.71,0,0,0,4.71-4.71V68.74H145.59A7.73,7.73,0,0,1,137.88,61V47.83a7.7,7.7,0,0,1,3.1-6.16V57.42a7.73,7.73,0,0,0,7.71,7.71h20.79a7.73,7.73,0,0,0,7.71-7.71V17.32a7.73,7.73,0,0,0-7.71-7.71"/><path class="cls-1" d="M201.63,4.92a4.9,4.9,0,1,1,9.8,0A4.9,4.9,0,0,1,201.63,4.92Zm8.62,0A3.52,3.52,0,0,0,206.53,1a3.56,3.56,0,0,0-3.76,3.87,3.54,3.54,0,0,0,3.76,3.83A3.5,3.5,0,0,0,210.25,4.9Zm-5.34-2.44h1.72c0.88,0,1.77.25,1.77,1.49a1.26,1.26,0,0,1-1.16,1.28l1.16,2h-1.05L206.28,5.3h-0.42V7.21h-0.95V2.46Zm1.81,2.17a0.7,0.7,0,0,0,.76-0.69,0.64,0.64,0,0,0-.76-0.63h-0.86V4.62h0.86Z"/><path class="cls-1" d="M216.94,13.07h28.55c13.56,0,22.7,6.57,22.7,19.31,0,10.37-7.09,16.64-14,18.8A20.57,20.57,0,0,1,259,57.75c2.88,5.85,4.83,12.32,10.89,12.32a8,8,0,0,0,2.77-.51l-1.34,12.22a33.6,33.6,0,0,1-6.88.92c-8.22,0-12.94-3.18-17.77-14.17C244.67,63.6,241.79,55,238,55h-3.9V82.4H216.94V13.07ZM234.09,25.5v17h6.16c4.93,0,10.68-1.54,10.68-8.93,0-6.06-3.9-8.12-8.63-8.12h-8.22Z"/><path class="cls-1" d="M291.39,13.07h17.36L332.17,82.4H314.81L310.5,69.25H287.29L283.07,82.4h-15Zm0,43.45h14.89l-4.72-14.58A67.81,67.81,0,0,1,299.2,30h-0.41a87.92,87.92,0,0,1-2.57,11.81Z"/><path class="cls-1" d="M332.88,13.07h18.39l18.18,34.41c1.54,3,3.59,8.22,5.24,12.32h0.41c-0.2-3.9-.72-9.45-0.72-13.45V13.07h14.07V82.4h-18l-18.9-34.31a96,96,0,0,1-5-11.3h-0.41c0.31,3.9.82,8.53,0.82,12.32V82.4H332.88V13.07Z"/><path class="cls-1" d="M392.13,47.27c0-25.06,12.43-35.44,31.63-35.44,20.23,0,28.35,11.09,26.09,26.09l-16,1.44c1.75-11-2.57-15.41-10.37-15.41C416,24,409.9,29.5,409.9,47.37c0,18.9,6.57,23.73,14.07,23.73,7.09,0,12.84-4.42,11.61-13.46l15,1.54c1.13,14.07-9,24.44-27.53,24.44-18.8,0-30.92-11.09-30.92-36.36"/><polygon class="cls-1" points="456.06 13.07 473.21 13.07 473.21 39.26 494.26 39.26 494.26 13.07 511.42 13.07 511.42 82.4 494.26 82.4 494.26 53.02 473.21 53.02 473.21 82.4 456.06 82.4 456.06 13.07"/><polygon class="cls-1" points="516.29 13.07 562.2 13.07 562.2 25.81 533.44 25.81 533.44 40.7 557.58 40.7 557.58 53.44 533.44 53.44 533.44 69.66 563.23 69.66 563.23 82.4 516.29 82.4 516.29 13.07"/><path class="cls-1" d="M566.51,13.07h28.55c13.56,0,22.7,6.57,22.7,19.31,0,10.37-7.09,16.64-14,18.8a20.56,20.56,0,0,1,4.83,6.57c2.88,5.85,4.83,12.32,10.89,12.32a8,8,0,0,0,2.77-.51l-1.33,12.22a33.62,33.62,0,0,1-6.88.92c-8.22,0-12.94-3.18-17.77-14.17C594.24,63.6,591.36,55,587.56,55h-3.9V82.4H566.51V13.07ZM583.66,25.5v17h6.16c4.93,0,10.68-1.54,10.68-8.93,0-6.06-3.9-8.12-8.63-8.12h-8.22Z"/><path class="cls-1" d="M641,14.07h17.15V70.65H687V83.38H641V14.07Z"/><path class="cls-1" d="M706.22,14.07h17.35L747,83.38H729.63l-4.31-13.14H702.11L697.9,83.38h-15Zm0,43.43h14.89l-4.72-14.58A67.79,67.79,0,0,1,714,31h-0.41A88,88,0,0,1,711,42.82Z"/><path class="cls-1" d="M749.34,14.07H779c12.22,0,21.46,4.11,21.46,16.74,0,9.55-5.24,13.25-14.17,15.2v0.41c10.16,1.23,16.33,6.57,16.33,16.94,0,13.55-9.75,20-22.8,20h-30.5V14.07ZM774,40.66c4.52,0,9-1.23,9-7.19s-4-7-8-7h-8.63V40.66H774ZM775.63,71c5.24,0,9.76-2.57,9.76-9.45,0-6-4.52-8.42-9.76-8.42h-9.24V71h9.24Z"/><path class="cls-1" d="M820.27,60.58c-1.23,5.54.92,11.91,11.81,11.91,7.19,0,9.65-2.88,9.65-6.67,0-5.75-5.75-7.19-12.53-9.65-10.17-3.49-22.69-8.42-22.69-22.9,0-12.94,10-20.84,26.9-20.43C854.15,13.25,860,25.47,857.75,36L842,37.48c1-8-1.85-12.53-10-12.53-5.44,0-8.52,2.05-8.52,6.37,0,5.75,5.55,7.5,12.32,9.86,10.47,3.49,22.9,7.7,22.9,22.08,0,12.42-9.24,21.36-27.31,21.36-16.94,0-28.55-7.8-26.18-22.59Z"/></svg>