<svg id="Layer_1" data-name="Layer 1" xmlns="http://www.w3.org/2000/svg" viewBox="0 0 56 56"><defs><style>.cls-1{fill:#f0bf1a;}.cls-2{fill:#07a5de;}.cls-3{fill:#3ebeb0;}.cls-4{fill:#231f20;}.cls-5{fill:#d7a229;}.cls-6{fill:#019b8f;}</style></defs><path class="cls-1" d="M5.67233,15.75H42.84189A13.2881,13.2881,0,0,0,53.05,10.93953,27.99761,27.99761,0,0,0,5.67233,15.75"/><path class="cls-2" d="M39.69179,20.12505H3.985a27.992,27.992,0,0,0,0,15.75H39.69179a7.875,7.875,0,1,0,0-15.75"/><path class="cls-3" d="M53.14557,44.93887A13.26041,13.26041,0,0,0,43.01679,40.25H5.67239a27.9999,27.9999,0,0,0,47.47318,4.68888"/><path class="cls-4" d="M3.98506,20.12505a27.992,27.992,0,0,0,0,15.75H27.35439A31.30625,31.30625,0,0,0,28.3168,28a31.30573,31.30573,0,0,0-.96241-7.8749Z"/><path class="cls-5" d="M16.767,3.76251A28.81329,28.81329,0,0,0,5.65438,15.7501H26.30444A30.46011,30.46011,0,0,0,16.767,3.76251"/><path class="cls-6" d="M17.642,52.67506A31.226,31.226,0,0,0,26.917,40.25H5.6544A28.83025,28.83025,0,0,0,17.642,52.67506"/></svg>