<?xml version="1.0" encoding="UTF-8" standalone="no"?>
<svg
        xmlns="http://www.w3.org/2000/svg"
        version="1.1"
        width="500"
        height="500"
        viewBox="0 0 500 500">
    <path
            style="fill:#fefefe"
            d="M 0,250 V 0 H 250 500 V 250 500 H 250 0 Z"
            id="path146" />
    <path
            style="fill:#fdf5e9"
            d="m 122.12968,495.75 c -2.02361,-5.54706 -7.36313,-35.91655 -6.47155,-36.80813 0.5235,-0.5235 9.16483,-2.59575 19.20297,-4.605 15.6281,-3.12816 18.43861,-3.45081 19.5555,-2.24503 1.33626,1.44262 7.5853,31.22009 7.58408,36.13911 -7.8e-4,3.1299 1.58654,2.57518 -19.4067,6.78203 -18.0844,3.62394 -19.39392,3.6711 -20.4643,0.73702 z m 57.98303,-10.1142 c -0.6227,-0.7503 -2.7417,-9.35783 -4.70889,-19.12784 -2.97073,-14.75407 -3.35028,-17.97333 -2.24026,-19.00127 1.61893,-1.49924 33.42825,-7.84043 36.8838,-7.3528 2.33976,0.33018 2.62575,1.1954 6.21389,18.79915 3.06453,15.03488 3.52311,18.69117 2.47566,19.73862 C 217.74688,479.68169 185.34629,487 181.95313,487 c -0.38953,0 -1.21772,-0.61389 -1.84042,-1.3642 z M 236.52062,473.75 c -0.22914,-0.6875 -1.9516,-9.01322 -3.82769,-18.5016 -2.5726,-13.01098 -3.13846,-17.61873 -2.302,-18.74515 0.69534,-0.93639 7.77829,-2.83326 18.98691,-5.08485 15.10279,-3.03384 18.08966,-3.37948 19.24241,-2.22672 0.75051,0.75051 2.98759,9.42532 4.9713,19.27736 3.25877,16.18461 3.45315,18.02511 2.0148,19.07686 -1.75727,1.28494 -31.4644,7.45586 -35.88773,7.45478 -1.52977,-3.8e-4 -2.96887,-0.56318 -3.198,-1.25068 z m 57.75399,-11 c -1.11592,-1.43764 -7.27631,-31.88816 -7.27529,-35.96146 5.8e-4,-2.29346 0.57877,-2.86138 3.75068,-3.68401 11.12849,-2.88617 155.76782,-31.17945 158.04847,-30.91628 2.66867,0.30796 2.74728,0.53618 6.46278,18.76479 3.25874,15.98766 3.5705,18.64378 2.3335,19.88078 -0.87351,0.87352 -32.21803,7.58797 -80.74597,17.29696 C 333.22375,456.85885 297.01628,464 296.38772,464 c -0.62856,0 -1.57945,-0.5625 -2.11311,-1.25 z m -183,-23 c -1.10491,-1.42346 -7.27632,-31.86919 -7.27529,-35.89159 5.3e-4,-2.04744 0.61922,-2.79689 2.75068,-3.33202 6.94604,-1.7439 31.81025,-6.52639 33.93077,-6.52639 3.0242,0 3.26291,0.69551 7.31164,21.30316 2.34424,11.93198 2.99117,17.11326 2.23157,17.87286 C 149.21687,434.18313 117.60746,441 113.94466,441 c -0.93487,0 -2.13639,-0.5625 -2.67005,-1.25 z m 57.86126,-10.64486 C 167.84835,428.28943 161,397.41756 161,392.42921 c 0,-1.21838 0.7875,-2.52217 1.75,-2.89731 3.93159,-1.53236 35.37015,-7.42303 36.7634,-6.88838 1.72137,0.66055 1.544,0.0231 5.49958,19.7625 3.4762,17.34716 3.58713,19.14611 1.23702,20.06208 -1.27262,0.49601 -35.10046,7.62455 -35.66931,7.51659 -0.0444,-0.008 -0.69455,-0.40422 -1.44482,-0.87955 z M 225.12968,415.75 c -0.45145,-1.2375 -2.31441,-9.85186 -4.13991,-19.14301 -2.9611,-15.07098 -3.1521,-17.01513 -1.7708,-18.02515 0.85156,-0.62268 9.4802,-2.6752 19.17477,-4.56117 15.36638,-2.98935 17.79962,-3.24257 18.97684,-1.97485 1.35568,1.4599 7.63137,31.14837 7.6301,36.09577 -7.9e-4,3.0524 0.98468,2.70882 -19.9067,6.94043 -17.53165,3.55109 -18.89587,3.59673 -19.9643,0.66798 z m 58.04976,-10.03378 c -0.6594,-0.79454 -2.80843,-9.43825 -4.77562,-19.20826 -2.97861,-14.79319 -3.35323,-17.97983 -2.24026,-19.05648 0.73504,-0.71106 36.66144,-8.32975 79.83644,-16.93041 43.175,-8.60067 79.24008,-15.85164 80.14463,-16.11327 0.90454,-0.26163 2.26183,0.14152 3.0162,0.89589 1.59604,1.59604 8.45227,35.6562 7.61613,37.83516 -0.46839,1.22062 -75.84746,17.02499 -160.33778,33.61727 -1.13345,0.22259 -2.60033,-0.24537 -3.25974,-1.0399 z M 99.253757,381.35869 C 98.711803,379.78641 85.2705,313.55311 69.384194,234.17358 42.604001,100.36027 40.624786,89.755604 42.213086,88.590327 44.791858,86.698377 57.953562,84.553562 59.219055,85.819055 60.439171,87.039171 118,372.6976 118,377.53258 c 0,3.15034 -0.22814,3.35062 -4.97688,4.36904 -12.18317,2.61282 -12.68846,2.5929 -13.769363,-0.54293 z m 22.037553,-2.5444 C 119.93938,377.13848 57.765311,67.665158 58.186157,64.706442 58.4273,63.011112 59.542404,62.244889 63,61.398699 c 8.126248,-1.988764 11.48011,-2.378224 12.876117,-1.495209 2.027329,1.282343 64.459593,313.98708 63.031773,315.7075 -0.58387,0.70352 -3.6145,1.79147 -6.73473,2.41768 -3.12024,0.62621 -6.60655,1.35487 -7.74736,1.61924 -1.14081,0.26436 -2.55133,-0.11077 -3.13449,-0.83362 z M 156.10393,368.25 C 153.44715,358.01219 84.926074,12.635031 85.338505,11.560254 85.864773,10.18882 100.61421,6.9147287 102.6855,7.7095559 c 0.71103,0.2728492 1.71825,2.1373192 2.23825,4.1432671 0.52001,2.005947 16.75405,82.765939 36.07565,179.466647 25.73604,128.80369 34.84292,176.1656 34.05594,177.11385 C 173.91763,369.80418 164.56988,372 159.87176,372 c -2.38973,0 -2.93568,-0.54337 -3.76783,-3.75 z m 22.0345,-2 C 177.62586,365.2875 162.50478,291.00756 144.53602,201.18346 120.55863,81.322756 112.15204,37.521723 112.94223,36.569612 114.08192,35.196368 123.42581,33 128.12824,33 c 2.39197,0 2.93308,0.540359 3.7552,3.75 0.5283,2.0625 15.46292,76.15555 33.18805,164.65122 23.23288,115.99405 31.94989,161.34133 31.23282,162.47812 -0.93555,1.48316 -10.13659,3.98083 -15.01913,4.07703 -1.21815,0.024 -2.63419,-0.74387 -3.14675,-1.70637 z m 36.08299,-6.5 C 213.65851,359.0625 201.14965,298.26267 186.42394,224.63926 166.56322,125.34252 159.91581,90.355248 160.67961,89.139259 c 1.36367,-2.170992 15.87128,-4.98837 17.46747,-3.392182 1.75535,1.755349 55.21457,270.291273 54.04208,271.463763 -0.96889,0.96889 -12.04427,3.6834 -15.31672,3.75403 -0.89515,0.0193 -2.08811,-0.52737 -2.65102,-1.21487 z m 20.80617,-4.91502 C 233.53988,351.38522 178.88805,77.843842 179.21825,75.5 c 0.23052,-1.636381 1.71725,-2.302302 8.17736,-3.662738 8.43609,-1.776556 10.24097,-1.612003 11.02457,1.005119 1.65064,5.512843 55.59437,277.025979 55.36319,278.657619 -0.28776,2.03101 -3.80325,3.31387 -13.63141,4.97433 -3.68988,0.6234 -4.22195,0.45318 -5.12437,-1.63935 z M 121.44721,2.0854102 c 0.31089,-0.5030244 -5e-5,-1.14249808 -0.69098,-1.42105263 C 119.99837,0.35881646 120.19425,0.12657508 121.25,0.07894737 122.2125,0.03552632 123,0.675 123,1.5 123,2.325 122.52344,3 121.94098,3 121.35852,3 121.13633,2.5884346 121.44721,2.0854102 Z"
            id="path144" />
    <path
            style="fill:#fcecd1"
            d="m 123.73392,496.59106 c -1.32766,-1.32766 -7.73606,-30.55323 -7.7346,-35.27367 8.2e-4,-2.61898 -0.29073,-2.51917 18.4067,-6.30179 15.94028,-3.22484 19.14189,-3.55611 20.05709,-2.07528 0.31963,0.51717 2.14959,8.7102 4.06657,18.20673 2.82974,14.01819 3.24492,17.50693 2.20696,18.54488 -0.70316,0.70316 -8.01906,2.62929 -16.25756,4.2803 -8.23849,1.651 -15.95903,3.23306 -17.15675,3.51569 -1.19772,0.28263 -2.81251,-0.12095 -3.58841,-0.89686 z M 180.18207,484.25 c -1.75438,-3.45622 -7.49254,-35.33953 -6.5329,-36.29917 1.47748,-1.47748 36.46383,-8.23783 37.46279,-7.23887 0.48403,0.48403 2.50147,8.93277 4.48319,18.77497 3.25555,16.1686 3.44957,18.0072 2.0112,19.05897 -1.5091,1.10347 -31.18265,7.45622 -34.82117,7.45478 -0.94315,-3.8e-4 -2.11455,-0.78818 -2.60311,-1.75068 z m 58.0695,-10.04504 c -0.68664,-0.45158 -2.86875,-8.86835 -4.84915,-18.70393 -3.28692,-16.32444 -3.45897,-17.98651 -1.97421,-19.07219 0.89457,-0.65413 9.30665,-2.69726 18.69351,-4.54028 16.06275,-3.15377 17.14178,-3.24869 18.33764,-1.61325 1.54889,2.11823 8.00346,34.0762 7.26898,35.99025 -0.33254,0.86658 -6.46354,2.57816 -16.76392,4.67995 -8.9318,1.82254 -16.96521,3.48623 -17.85203,3.6971 -0.88681,0.21087 -2.17418,0.0139 -2.86082,-0.43765 z m 56.28532,-12.14528 c -0.31963,-0.51717 -2.14959,-8.7102 -4.06657,-18.20673 -2.85657,-14.15111 -3.2513,-17.50054 -2.1878,-18.56404 0.71369,-0.71369 36.15459,-8.26133 78.75755,-16.77254 42.60296,-8.5112 78.36367,-15.69051 79.46824,-15.95403 1.10457,-0.26352 2.56636,-0.13422 3.24843,0.28732 0.68207,0.42154 2.85473,8.78534 4.82814,18.58623 2.97886,14.79448 3.36112,18.02847 2.25156,19.04894 -1.18894,1.09349 -155.83704,32.51585 -160.02742,32.51536 -0.93004,-10e-5 -1.9525,-0.42333 -2.27213,-0.94051 z m -183,-23 c -0.31963,-0.51717 -2.14959,-8.7102 -4.06657,-18.20673 -2.79183,-13.83043 -3.23518,-17.50705 -2.22787,-18.47564 0.69165,-0.66507 9.04621,-2.76374 18.56568,-4.66371 14.06482,-2.80715 17.54804,-3.21457 18.58841,-2.1742 1.23356,1.23356 7.60552,30.68216 7.60414,35.14321 -8.2e-4,2.61898 0.29073,2.51917 -18.4067,6.30179 -15.94028,3.22484 -19.14189,3.55611 -20.05709,2.07528 z M 169.22467,427.75 C 168.06744,426.33213 162,397.09335 162,392.93456 c 0,-3.127 -1.71174,-2.54385 20.3792,-6.94275 13.21402,-2.63128 16.09477,-2.9379 17.16357,-1.8269 2.08738,2.16979 8.80522,37.83509 7.12654,37.83509 -0.18187,0 -8.13306,1.575 -17.66931,3.5 -19.98292,4.03378 -18.4608,3.8606 -19.77533,2.25 z m 57.35544,-11.31274 c -1.54737,-1.54738 -8.18402,-34.42111 -7.37478,-36.52996 0.6289,-1.63889 34.39239,-8.65938 36.94131,-7.68127 2.17027,0.83281 9.23513,35.82107 7.55991,37.43993 -0.6636,0.64127 -8.99521,2.72047 -18.51468,4.62044 -14.22621,2.83937 -17.54026,3.22235 -18.61176,2.15086 z m 56.53845,-12.21573 c -1.87482,-3.50314 -7.59325,-35.14684 -6.54155,-36.19854 0.55504,-0.55504 36.92602,-8.25995 80.82441,-17.12203 66.95114,-13.51589 80.02562,-15.89432 81.12049,-14.75691 1.35484,1.40747 7.47809,30.07518 7.47809,35.01075 0,2.08446 -0.57922,2.94605 -2.25,3.34688 C 438.37328,375.79157 286.41534,406 285.30348,406 c -0.67821,0 -1.66143,-0.80031 -2.18492,-1.77847 z M 100.27823,381.75 C 98.986353,380.07946 41.789137,93.49499 42.1881,90.691618 c 0.264234,-1.856683 1.395889,-2.408208 7.404893,-3.608856 3.901146,-0.779481 7.762644,-1.160269 8.581107,-0.846195 2.005676,0.76965 60.29174,291.497203 58.80058,293.293943 C 116.03095,380.66764 106.60669,383 102.95566,383 c -0.94092,0 -2.14577,-0.5625 -2.67743,-1.25 z m 21.08876,-3.96522 C 120.95391,377.11641 106.58858,306.43732 89.444026,220.72015 63.386008,90.438544 58.492003,64.650855 59.61245,63.530407 c 2.06031,-2.06031 15.349973,-4.209243 16.320432,-2.639007 0.421947,0.682725 14.830762,71.46179 32.019588,157.2868 26.07969,130.21774 31.02856,156.25273 29.89997,157.29758 -1.1998,1.11078 -11.10238,3.52422 -14.4602,3.52422 -0.70082,0 -1.61218,-0.54685 -2.02525,-1.21522 z m 36.94652,-6.56986 C 157.65717,370.79758 141.15006,290.78728 121.36997,192.14885 94.405162,57.682047 85.871449,13.427349 86.664378,12.170295 87.891493,10.224914 101.6474,7.2282505 102.98192,8.6155914 c 0.4679,0.4864247 16.97589,81.2967846 36.68441,179.5785786 27.09229,135.10294 35.55218,178.97708 34.67976,179.8539 -0.63464,0.63786 -4.00964,1.77218 -7.5,2.52071 -7.56838,1.62309 -7.05708,1.58437 -8.53258,0.64614 z m 20.43893,-4.8369 c -0.2881,-0.48291 -15.2979,-74.55788 -33.3551,-164.61105 C 121.19232,81.053988 112.85992,37.740081 113.68448,36.915519 115.87714,34.722856 131,32.495934 131,34.365716 131,34.449172 145.625,107.6346 163.5,197 c 17.875,89.3654 32.5,163.51011 32.5,164.76602 0,1.54905 -0.85084,2.60697 -2.6454,3.28926 -3.78494,1.43903 -13.98171,2.36271 -14.60216,1.32274 z m 35.81066,-7.27593 c -1.16805,-1.88993 -53.66078,-265.439407 -53.36979,-267.952909 0.2812,-2.429029 0.89613,-2.766956 7.39968,-4.066419 3.90115,-0.779481 7.76282,-1.160203 8.58149,-0.84605 1.10703,0.424807 8.33882,34.823418 28.21901,134.226038 14.70178,73.51017 26.58432,134.41394 26.40565,135.34171 -0.51286,2.66305 -15.81845,5.59134 -17.23604,3.29763 z m 20.95246,-4.21887 C 234.56999,352.38674 180,78.575725 180,76.327702 c 0,-2.408227 0.54058,-2.651408 9.8084,-4.412295 3.68695,-0.70052 6.66493,-0.828095 7.16636,-0.307003 0.92796,0.964352 56.02671,275.449136 56.02579,279.103056 -4.3e-4,1.71962 -0.8575,2.4422 -3.85371,3.249 -7.56403,2.03678 -13.0682,2.40938 -13.63128,0.92276 z M 121.5,1 C 121.16008,0.45 121.35852,0 121.94098,0 122.52344,0 123,0.45 123,1 c 0,0.55 -0.19844,1 -0.44098,1 -0.24254,0 -0.7191,-0.45 -1.05902,-1 z"
            id="path142" />
    <path
            style="fill:#fae8b2"
            d="m 123.54078,496.06599 c -0.31749,-0.51371 -1.9132,-7.60121 -3.54604,-15.75 -1.63283,-8.1488 -3.1809,-15.71973 -3.44016,-16.8243 -0.25925,-1.10457 -0.12742,-2.56482 0.29296,-3.245 0.42037,-0.68018 8.59468,-2.81734 18.16512,-4.74925 13.90339,-2.80655 17.63524,-3.25979 18.5672,-2.25499 1.42552,1.53693 8.09864,35.41239 7.16065,36.35037 C 160.08353,490.24981 127.86046,497 125.38124,497 c -0.69476,0 -1.52297,-0.42031 -1.84046,-0.93401 z m 57.56559,-11.43782 c -0.61736,-0.74387 -2.63144,-8.83887 -4.47572,-17.98889 -2.50992,-12.45237 -3.07376,-16.9809 -2.24195,-18.00624 1.24643,-1.53644 33.72195,-8.18829 35.89866,-7.35301 0.89712,0.34426 2.50678,6.13641 4.55103,16.37631 3.37915,16.92655 3.69699,19.89474 2.2276,20.80288 -0.51371,0.31749 -7.60121,1.9132 -15.75,3.54604 -8.1488,1.63283 -15.777,3.19528 -16.95157,3.4721 -1.17457,0.27682 -2.64069,-0.10532 -3.25805,-0.84919 z M 237.69945,473.25 c -0.23022,-0.4125 -1.92654,-8.50774 -3.7696,-17.98942 -2.24507,-11.54984 -3.01934,-17.57109 -2.34604,-18.24439 0.55273,-0.55273 8.635,-2.55094 17.96058,-4.44046 13.2666,-2.68804 17.22557,-3.17303 18.19639,-2.22912 0.68244,0.66351 2.76271,8.75705 4.62283,17.98563 2.75158,13.65132 3.14294,17.01835 2.09938,18.06191 -0.70547,0.70547 -8.41074,2.70569 -17.12283,4.44494 -16.73044,3.34 -18.96883,3.61476 -19.64071,2.41091 z m 57.6166,-11.43571 c -0.56955,-0.72286 -2.54905,-9.10069 -4.39889,-18.6174 -2.72793,-14.03417 -3.1125,-17.45813 -2.03561,-18.12368 2.14252,-1.32416 158.84195,-32.39329 160.38721,-31.80032 0.92075,0.35333 2.49927,6.0128 4.56963,16.38345 3.79626,19.01589 3.84261,20.10043 0.91161,21.33183 -1.2375,0.51991 -36.45,7.7432 -78.25,16.05176 -41.8,8.30855 -76.93339,15.32745 -78.0742,15.59755 -1.14081,0.2701 -2.5402,-0.10034 -3.10975,-0.82319 z M 112.26991,438.75 c -0.53624,-0.6875 -2.45849,-8.81679 -4.27165,-18.06508 -2.81423,-14.35437 -3.09191,-17.00538 -1.89746,-18.11547 1.94284,-1.80564 34.74441,-8.12424 35.9446,-6.92405 1.53828,1.53828 8.07987,35.62933 7.0369,36.6723 -0.74149,0.74149 -32.48769,7.6823 -35.13764,7.6823 -0.38487,0 -1.13851,-0.5625 -1.67475,-1.25 z m 56.23617,-13 C 167.24091,420.3995 162,393.57575 162,392.45097 c 0,-1.72281 1.56394,-2.20535 17.90602,-5.52479 17.7457,-3.60454 19.87891,-3.67461 20.5879,-0.67618 1.26517,5.3505 6.50608,32.17425 6.50608,33.29903 0,1.72281 -1.56394,2.20535 -17.90602,5.52479 -17.7457,3.60454 -19.87891,3.67461 -20.5879,0.67618 z m 58.06199,-9.63985 c -1.49409,-2.41749 -7.57505,-35.50317 -6.68827,-36.38995 0.53522,-0.53522 8.71443,-2.52944 18.17602,-4.4316 14.27985,-2.87082 17.41292,-3.23164 18.43901,-2.12353 0.67986,0.73421 2.72075,8.93679 4.5353,18.22794 3.04158,15.57397 3.16977,16.98765 1.64173,18.10498 -1.42673,1.04325 -31.02011,7.50459 -34.36284,7.50269 -0.65504,-3.8e-4 -1.43847,-0.40111 -1.74095,-0.89053 z m 57.56506,-11.44974 c -0.63208,-0.7616 -2.68906,-8.98426 -4.57107,-18.27257 -2.62734,-12.9668 -3.14788,-17.15965 -2.24194,-18.05852 1.13937,-1.13048 154.93915,-32.33225 159.36249,-32.33029 2.6016,10e-4 2.37322,-0.70395 6.41251,19.79799 1.8941,9.6138 2.84053,16.64582 2.30786,17.14756 -0.49664,0.46779 -36.00298,7.89013 -78.90298,16.4941 -42.9,8.60397 -78.72397,15.86023 -79.60882,16.12503 -0.88485,0.2648 -2.12597,-0.14169 -2.75805,-0.9033 z M 101.17759,381.71398 C 99.35158,379.51378 41.660412,90.939588 42.815615,89.784385 c 0.543008,-0.543008 4.063804,-1.632179 7.823992,-2.42038 5.847898,-1.225822 6.983051,-1.231103 7.848549,-0.03651 0.556514,0.76812 14.027758,66.544865 29.936098,146.170545 26.856246,134.42301 28.801326,144.86384 27.204906,146.03118 -0.94565,0.69147 -3.78159,1.56647 -6.30211,1.94444 -2.52051,0.37798 -5.12812,0.89651 -5.79469,1.15229 -0.66656,0.25579 -1.72621,-0.1546 -2.35477,-0.91197 z m 20.35032,-4.82871 C 120.18452,373.25866 58.982614,65.48769 59.392449,64.419679 59.899771,63.097619 68.2651,61 73.030169,61 c 2.221623,0 3.055998,0.54498 3.444792,2.25 C 79.204955,75.222128 138,370.94642 138,372.70547 c 0,2.77403 -2.61518,3.99677 -10.54045,4.92823 -4.14398,0.48704 -5.5392,0.311 -5.93164,-0.74843 z m 36.0228,-7.72549 C 155.97357,364.19066 86.278573,13.437626 86.667139,12.425039 87.115553,11.256489 96.294422,9 100.59939,9 c 1.322,0 2.50913,0.7665475 2.8499,1.840221 0.32123,1.012122 16.50944,81.449622 35.97379,178.749999 22.29825,111.46676 35.05093,177.32182 34.47388,178.02362 C 173.00905,368.69371 163.47622,371 159.90061,371 c -0.97121,0 -2.02866,-0.8281 -2.3499,-1.84022 z m 21.5042,-4.29129 C 178.49931,363.56582 163.44173,289.60747 145.59362,200.51661 123.60591,90.762468 113.45979,38.150912 114.12653,37.347546 c 0.5412,-0.652117 4.14642,-1.750822 8.01159,-2.441566 5.67831,-1.01477 7.17873,-1.011345 7.8148,0.01784 0.43296,0.700555 15.46351,74.65432 33.4012,164.3417 22.50035,112.50033 32.30299,163.44271 31.61106,164.27643 -0.55161,0.66466 -2.68194,1.47766 -4.73406,1.80667 -2.05212,0.32901 -5.17897,0.88849 -6.94857,1.24328 -2.74683,0.55072 -3.36521,0.29864 -4.22764,-1.72341 z M 215.23487,358.75 C 214.67937,358.0625 202.20335,297.45254 187.51039,224.0612 163.36876,103.47369 160.95195,90.508301 162.41602,89.437748 c 2.52277,-1.844693 13.64632,-3.775411 14.84507,-2.576663 1.42735,1.427351 54.57479,267.786425 53.71109,269.183925 -0.39026,0.63146 -3.58115,1.76385 -7.09087,2.51642 -7.91118,1.69635 -7.43649,1.686 -8.64644,0.18857 z m 21.75526,-3.7561 c -1.49994,-0.92701 -57.37458,-279.009454 -56.28069,-280.10334 1.11977,-1.119771 15.0727,-3.441749 15.87295,-2.641499 1.2114,1.211391 56.50069,279.067859 55.69139,279.877159 -1.28585,1.28585 -13.9871,3.66899 -15.28365,2.86768 z"
            id="path140" />
    <path
            style="fill:#f9d2ae"
            d="m 123.51646,494.75 c -1.71475,-5.09401 -6.65149,-33.99805 -5.91944,-34.65761 1.64153,-1.47898 34.45158,-7.44379 35.45053,-6.44484 0.51768,0.51768 2.45588,8.45583 4.30713,17.64035 2.6071,12.93456 3.09188,16.92653 2.1504,17.70788 C 158.18445,490.09181 130.18595,496 126.3126,496 c -1.30645,0 -2.56472,-0.5625 -2.79614,-1.25 z m 57.51384,-12 c -1.79807,-4.36505 -7.12031,-33.05999 -6.28651,-33.89379 1.25559,-1.25559 34.63363,-7.82466 35.5006,-6.98681 0.40942,0.39566 2.29036,8.34941 4.17988,17.67499 2.62676,12.96413 3.15774,17.21702 2.25561,18.06608 -0.93503,0.88002 -30.85593,7.39293 -33.95132,7.39021 -0.42429,-3.8e-4 -1.18851,-1.01318 -1.69826,-2.25068 z m 58.03689,-9.70847 c -0.58361,-0.3607 -2.60593,-8.28009 -4.49403,-17.59867 -2.62572,-12.95898 -3.15549,-17.20515 -2.25304,-18.05833 1.41027,-1.33328 34.4635,-7.93425 35.34008,-7.05767 1.24373,1.24374 7.48296,34.92998 6.62795,35.78499 -1.27482,1.27482 -33.96418,7.70641 -35.22096,6.92968 z m 56.46721,-11.98586 c -1.12,-1.81221 -7.22686,-33.93521 -6.63306,-34.89097 0.59702,-0.96097 154.64028,-32.1675 158.77776,-32.16567 1.85174,8.2e-4 2.353,0.86479 3.33665,5.75097 0.63666,3.1625 2.2543,10.89819 3.59477,17.19041 1.96681,9.23229 2.19135,11.66965 1.16335,12.62806 -1.06628,0.9941 -154.87678,32.48632 -158.46485,32.44519 -0.65504,-0.008 -1.45362,-0.43861 -1.77462,-0.95799 z m -183,-23 c -0.32099,-0.51939 -2.08468,-8.39147 -3.9193,-17.49351 -2.64126,-13.104 -3.07468,-16.76578 -2.08198,-17.58964 1.68849,-1.40133 32.68876,-7.48509 34.53358,-6.77717 1.7835,0.6844 8.69588,34.46478 7.32071,35.77592 -0.90555,0.8634 -30.29244,7.02873 -33.50224,7.02873 -0.97193,0 -2.02977,-0.42495 -2.35077,-0.94433 z M 169.47334,426.75 C 168.56336,424.29799 163,395.64589 163,393.41137 c 0,-1.30901 0.74378,-2.49137 1.75,-2.78194 6.81672,-1.96844 33.63764,-6.6338 34.27599,-5.96213 0.90936,0.95684 6.97401,30.51261 6.97401,33.9875 0,2.63508 1.30206,2.20847 -19.40602,6.35818 -17.16904,3.44051 -16.51315,3.37396 -17.12064,1.73702 z m 57.04738,-12 c -1.31591,-3.94925 -6.59122,-33.12389 -6.18216,-34.18989 0.67411,-1.7567 34.28642,-8.33513 35.64525,-6.9763 0.55273,0.55273 2.51962,8.51957 4.37087,17.70409 2.6071,12.93456 3.09188,16.92653 2.1504,17.70788 C 261.18445,410.09181 233.18595,416 229.3126,416 c -1.30645,0 -2.5628,-0.5625 -2.79188,-1.25 z m 57.10871,-11.5 c -0.27793,-0.9625 -1.92047,-8.89029 -3.65008,-17.6173 -2.13164,-10.75557 -2.81709,-16.19496 -2.12769,-16.88436 1.38707,-1.38707 159.3806,-32.92662 160.26281,-31.99255 0.84709,0.89688 6.88553,30.62547 6.88553,33.89901 0,1.57036 -0.7185,2.47471 -2.25,2.83197 C 437.05402,374.81553 286.15334,405 285.20652,405 c -0.58946,0 -1.29915,-0.7875 -1.57709,-1.75 z m -183.04761,-23 C 100.10833,378.75151 56.221695,162.69895 45.509713,109.13172 43.102859,97.095805 42.175502,90.424498 42.81973,89.78027 c 1.585402,-1.585402 14.400833,-3.959707 15.490607,-2.869933 1.053554,1.053554 5.89881,24.892353 37.203211,183.040923 11.698072,59.09819 21.066762,107.97885 20.819312,108.6237 -0.42221,1.10026 -9.53949,3.42504 -13.43225,3.42504 -0.97121,0 -2.01467,-0.7875 -2.31879,-1.75 z m 21.46442,-4.39377 C 121.49202,374.5603 118.12633,359.1 114.56695,341.5 111.00756,323.9 99.282547,265.85 88.511362,212.5 77.740177,159.15 66.652369,104.34481 63.871789,90.710694 61.091209,77.076575 59.051564,65.308008 59.339246,64.558323 59.890162,63.122659 68.057255,61 73.030169,61 c 2.218479,0 3.05913,0.547393 3.455405,2.25 0.483742,2.078414 27.717326,139.13874 51.461606,258.99431 C 133.47623,350.15368 138,373.42384 138,373.95577 c 0,0.97217 -4.30826,2.35006 -11.22304,3.58941 -3.27699,0.58734 -3.84376,0.385 -4.73072,-1.68895 z m 36.47668,-5.81915 C 157.12972,367.78283 86.029663,14.086274 86.646557,12.478674 87.112766,11.263752 96.211365,9 100.62824,9 c 1.81008,0 2.50241,0.7919346 3.27836,3.75 0.54103,2.0625 12.0517,59.55 25.57926,127.75 13.52757,68.2 29.17981,147.03494 34.78276,175.18876 5.60295,28.15382 9.88392,51.49204 9.51325,51.8627 -0.56441,0.56442 -11.76796,3.30131 -13.97285,3.41341 -0.38004,0.0193 -0.95879,-0.39818 -1.2861,-0.92779 z m 21.02491,-4.95969 c -0.65012,-1.05192 -2.77245,-11.4383 -39.55154,-193.55973 C 121.78433,81.33628 113.45775,38.153375 114.12565,37.348603 c 0.54169,-0.652698 4.1473,-1.751879 8.01247,-2.442623 5.70535,-1.019602 7.17718,-1.01384 7.8227,0.03063 0.96024,1.553704 -1.55131,-10.873541 35.06415,173.49836 C 181.51124,291.4492 195,360.37441 195,361.6021 c 0,1.87187 -0.81502,2.40696 -5.04922,3.31504 -6.18289,1.32599 -9.64948,1.37939 -10.40295,0.16025 z M 214.1481,354.25 c -1.1099,-5.18068 -25.66046,-126.31773 -42.69729,-210.67639 -12.1146,-59.986037 -11.98585,-54.421185 -1.30768,-56.521987 4.10526,-0.807661 6.43755,-0.870948 7.11541,-0.193079 1.56908,1.569073 54.20246,266.497716 53.37402,268.656596 -0.49887,1.30003 -8.71122,3.48486 -13.09892,3.48486 -2.01539,0 -2.51941,-0.70716 -3.38554,-4.75 z m 22.3908,-0.18707 c -0.31853,-0.51538 -8.67474,-40.90288 -18.56935,-89.75 -9.89462,-48.84711 -22.53242,-111.24358 -28.084,-138.65881 -5.693,-28.113596 -9.71597,-50.2237 -9.22722,-50.712451 1.17982,-1.179818 15.11069,-3.505978 15.95288,-2.663792 0.6367,0.636701 17.59003,84.744873 43.831,217.452633 6.44157,32.57678 11.55897,60.02483 11.37201,60.99566 -0.50294,2.61155 -13.9131,5.54089 -15.27532,3.33676 z"
            id="path138" />
    <path
            style="fill:#f8cf90"
            d="m 123.51646,494.75 c -1.71475,-5.09401 -6.65149,-33.99805 -5.91944,-34.65761 1.64153,-1.47898 34.45158,-7.44379 35.45053,-6.44484 0.51768,0.51768 2.45588,8.45583 4.30713,17.64035 2.6071,12.93456 3.09188,16.92653 2.1504,17.70788 C 158.18445,490.09181 130.18595,496 126.3126,496 c -1.30645,0 -2.56472,-0.5625 -2.79614,-1.25 z m 57.51384,-12 c -1.79807,-4.36505 -7.12031,-33.05999 -6.28651,-33.89379 1.25559,-1.25559 34.63363,-7.82466 35.5006,-6.98681 0.40942,0.39566 2.29036,8.34941 4.17988,17.67499 2.62676,12.96413 3.15774,17.21702 2.25561,18.06608 -0.93503,0.88002 -30.85593,7.39293 -33.95132,7.39021 -0.42429,-3.8e-4 -1.18851,-1.01318 -1.69826,-2.25068 z m 58.03689,-9.70847 c -0.58361,-0.3607 -2.60593,-8.28009 -4.49403,-17.59867 -2.62572,-12.95898 -3.15549,-17.20515 -2.25304,-18.05833 1.41027,-1.33328 34.4635,-7.93425 35.34008,-7.05767 1.24373,1.24374 7.48296,34.92998 6.62795,35.78499 -1.27482,1.27482 -33.96418,7.70641 -35.22096,6.92968 z m 56.46721,-11.98586 c -1.12,-1.81221 -7.22686,-33.93521 -6.63306,-34.89097 0.59702,-0.96097 154.64028,-32.1675 158.77776,-32.16567 1.85174,8.2e-4 2.353,0.86479 3.33665,5.75097 0.63666,3.1625 2.2543,10.89819 3.59477,17.19041 1.96681,9.23229 2.19135,11.66965 1.16335,12.62806 -1.06628,0.9941 -154.87678,32.48632 -158.46485,32.44519 -0.65504,-0.008 -1.45362,-0.43861 -1.77462,-0.95799 z m -183,-23 c -0.32099,-0.51939 -2.08468,-8.39147 -3.9193,-17.49351 -2.64126,-13.104 -3.07468,-16.76578 -2.08198,-17.58964 1.68849,-1.40133 32.68876,-7.48509 34.53358,-6.77717 1.7835,0.6844 8.69588,34.46478 7.32071,35.77592 -0.90555,0.8634 -30.29244,7.02873 -33.50224,7.02873 -0.97193,0 -2.02977,-0.42495 -2.35077,-0.94433 z M 169.47334,426.75 C 168.56336,424.29799 163,395.64589 163,393.41137 c 0,-1.30901 0.74378,-2.49137 1.75,-2.78194 6.81672,-1.96844 33.63764,-6.6338 34.27599,-5.96213 0.90936,0.95684 6.97401,30.51261 6.97401,33.9875 0,2.63508 1.30206,2.20847 -19.40602,6.35818 -17.16904,3.44051 -16.51315,3.37396 -17.12064,1.73702 z m 57.04738,-12 c -1.31591,-3.94925 -6.59122,-33.12389 -6.18216,-34.18989 0.67411,-1.7567 34.28642,-8.33513 35.64525,-6.9763 0.55273,0.55273 2.51962,8.51957 4.37087,17.70409 2.6071,12.93456 3.09188,16.92653 2.1504,17.70788 C 261.18445,410.09181 233.18595,416 229.3126,416 c -1.30645,0 -2.5628,-0.5625 -2.79188,-1.25 z m 57.10871,-11.5 c -0.27793,-0.9625 -1.92047,-8.89029 -3.65008,-17.6173 -2.13289,-10.76186 -2.8173,-16.19475 -2.12707,-16.88498 1.2235,-1.2235 158.04266,-32.72527 159.71508,-32.0835 1.11355,0.42731 7.43474,29.39716 7.43332,34.06673 -4.6e-4,1.49108 -0.74686,2.40501 -2.25068,2.75582 C 437.05402,374.81553 286.15334,405 285.20652,405 c -0.58946,0 -1.29915,-0.7875 -1.57709,-1.75 z M 100.51392,379.75 C 97.15342,365.32555 43.024034,92.969706 43.225645,91.5 c 0.220628,-1.608341 1.604294,-2.275864 7.065661,-3.408694 4.060727,-0.8423 7.142474,-1.043335 7.664705,-0.5 C 59.436321,89.131437 116.7711,377.40155 115.83822,378.61384 115.06354,379.62056 105.58703,382 102.35227,382 c -0.72279,0 -1.55005,-1.0125 -1.83835,-2.25 z m 21.55147,-3.89789 C 120.5742,372.29049 59.795372,67.301065 60.179403,65.306951 c 0.24498,-1.272076 2.162705,-2.097982 7.197884,-3.099911 3.77516,-0.751204 7.200318,-0.992598 7.611461,-0.536432 0.411143,0.456165 14.756645,70.758552 31.878892,156.227532 21.78073,108.72269 30.82548,155.7667 30.11298,156.62521 -0.56011,0.67489 -2.92238,1.52974 -5.2495,1.89968 -2.32712,0.36993 -5.23233,0.92204 -6.45603,1.2269 -1.68132,0.41887 -2.46552,-0.0204 -3.2097,-1.79782 z m 37.00296,-5.80987 C 157.81899,369.2701 86.379598,13.287069 87.291082,12.375585 88.454657,11.21201 101.36957,8.9695719 102.18886,9.7888589 c 1.55535,1.5553491 72.02312,356.3991611 70.98317,357.4391111 -1.3635,1.3635 -12.76872,3.63932 -14.10368,2.81427 z m 20.64011,-4.70495 C 179.40716,364.84978 164.45347,291.18048 146.47804,201.62774 124.55568,92.41157 114.12671,38.473291 114.80162,37.798376 c 1.38883,-1.388824 13.52241,-3.842394 14.4587,-2.923739 C 129.96785,35.568848 195,358.94201 195,361.76602 c 0,0.70592 -1.10738,1.70451 -2.46085,2.21909 -3.82312,1.45355 -12.22107,2.33858 -12.83069,1.35218 z M 215.09421,356.75 C 214.63147,355.5125 202.38523,295.23324 187.88035,222.79608 169.07287,128.87185 161.81618,90.783815 162.58278,90.017221 c 1.57812,-1.578126 13.26978,-3.571686 14.35336,-2.447411 1.39247,1.444774 54.32228,267.57909 53.38984,268.44743 C 229.46834,356.81592 220.01709,359 217.41855,359 c -0.81565,0 -1.8616,-1.0125 -2.32434,-2.25 z m 21.57841,-2.5 c -1.05894,-1.7831 -56.02425,-278.231703 -55.43666,-278.819295 1.14682,-1.14682 14.09263,-3.503966 14.84338,-2.702651 0.97304,1.038577 56.07864,276.213126 55.70358,278.160626 -0.39756,2.06436 -14.07377,5.10666 -15.1103,3.36132 z"
            id="path136" />
    <path
            style="fill:#f6b58d"
            d="m 123.07185,490.75 c -5.06209,-24.83856 -5.82378,-29.35752 -5.07739,-30.12286 1.252,-1.28377 34.28238,-7.76587 35.0624,-6.88087 1.30502,1.48068 7.23383,34.36273 6.33998,35.16247 -0.82285,0.73623 -31.36878,7.09349 -34.07594,7.09194 -0.64851,-3.8e-4 -1.66058,-2.36318 -2.24905,-5.25068 z m 58.0581,-7.97694 c -1.63285,-4.4286 -6.46674,-31.45301 -5.89333,-32.9473 0.72915,-1.90013 33.35507,-8.63407 34.80537,-7.18377 1.72582,1.72582 8.01702,35.35801 6.61403,35.35801 -0.48752,0 -29.68511,5.86265 -32.422,6.51009 -1.71537,0.40578 -2.46963,-0.0163 -3.10407,-1.73703 z m 57.65169,-10.32475 c -0.88048,-0.88049 -7.24933,-34.31396 -6.65062,-34.91267 1.04867,-1.04866 34.37861,-7.37632 35.11337,-6.66624 0.40942,0.39566 2.25904,8.23398 4.11029,17.4185 2.42331,12.0227 3.05497,16.95235 2.25561,17.60339 C 272.60935,466.7065 243.28972,473 240.49282,473 c -0.63772,0 -1.40775,-0.24826 -1.71118,-0.55169 z m 57.4546,-11.67573 c -1.61236,-1.96138 -7.68428,-33.72975 -6.63922,-34.73645 1.59746,-1.53881 158.41177,-32.42734 159.43447,-31.40464 1.01547,1.01547 6.96851,29.17001 6.96851,32.95714 0,1.30758 -0.74488,2.49329 -1.75,2.78569 -0.9625,0.28001 -35.95,7.31156 -77.75,15.62568 -41.8,8.31412 -76.72397,15.32551 -77.60882,15.58087 -0.88485,0.25536 -2.07957,-0.10837 -2.65494,-0.80829 z M 112.10412,435.25 c -2.22019,-8.55706 -6.35148,-31.33597 -5.78583,-31.90163 1.31224,-1.31223 34.09796,-7.33212 35.00306,-6.42702 0.51085,0.51085 2.41543,8.27502 4.23241,17.25373 2.52444,12.47468 3.0256,16.58683 2.12492,17.43539 -0.92318,0.86976 -30.83811,7.39312 -33.89014,7.39021 -0.3913,-3.8e-4 -1.14929,-1.68818 -1.68442,-3.75068 z m 57.4166,-9.5 c -1.69402,-5.08401 -6.51515,-33.15557 -5.81459,-33.85613 C 164.6682,390.9318 192.96183,385 196.58863,385 c 2.6614,0 2.33899,-0.94359 6.43948,18.84607 1.8652,9.00179 2.81067,15.71515 2.28699,16.23883 -0.99248,0.99248 -29.25833,6.9151 -33.0025,6.9151 -1.30645,0 -2.5628,-0.5625 -2.79188,-1.25 z m 57.85897,-10.94467 c -0.40609,-0.65707 -2.20055,-8.41957 -3.9877,-17.25 -2.48309,-12.2692 -2.97139,-16.3172 -2.07067,-17.1658 0.64828,-0.61076 8.55498,-2.55909 17.57046,-4.32961 12.44669,-2.44438 16.57175,-2.92795 17.13955,-2.00923 0.41127,0.66545 2.21729,8.61907 4.01337,17.6747 2.56699,12.94241 2.99425,16.63251 1.99716,17.24874 -1.07153,0.66224 -31.18173,7.02856 -33.23284,7.02655 -0.38004,-3.8e-4 -1.02324,-0.53828 -1.42933,-1.19535 z m 57.64126,-10.79238 c -1.10047,-0.68013 -7.8894,-32.9076 -7.30287,-34.66718 0.41941,-1.25825 158.84174,-33.11928 159.81908,-32.14194 1.28736,1.28735 7.6572,34.00181 6.78946,34.86955 -1.24867,1.24867 -158.08601,32.69336 -159.30567,31.93957 z M 101.57444,381.12045 C 101.22912,380.56171 95.810005,354.54353 89.531962,323.30228 83.25392,292.06102 70.20025,227.575 60.523807,180 50.847363,132.425 43.058462,92.6 43.215137,91.5 c 0.228758,-1.606089 1.622447,-2.27745 7.076169,-3.408694 4.067129,-0.843628 7.149256,-1.044192 7.683666,-0.5 C 58.46577,88.091088 66.790801,128.55 76.47504,177.5 c 9.68424,48.95 22.613785,114.12728 28.73232,144.8384 8.93031,44.8244 10.86199,56.0007 9.79319,56.66126 -0.73229,0.45258 -3.33952,1.124 -5.79384,1.49205 -2.45432,0.36805 -5.03436,0.88866 -5.73341,1.15691 -0.69905,0.26825 -1.55353,0.0306 -1.89886,-0.52817 z m 20.94485,-5.08924 c -0.32932,-0.53284 -6.85254,-32.14534 -14.49607,-70.25 C 100.3797,267.67654 86.421775,198.54557 77.005613,152.15682 67.589451,105.76808 60.023622,66.858313 60.192659,65.690682 c 0.255556,-1.765256 1.465005,-2.352666 7.177949,-3.486216 3.778834,-0.749788 7.222964,-0.990024 7.653621,-0.533858 C 75.454887,62.126773 84.64146,107.275 95.438835,162 106.23621,216.725 120.00458,286.09263 126.03521,316.15029 132.06585,346.20794 137,371.70815 137,372.81742 c 0,1.6132 -1.01054,2.23357 -5.04922,3.09972 -6.2374,1.33768 -8.65717,1.36695 -9.43149,0.11407 z M 158.52412,368.75 C 158.11533,367.51306 120.67829,182.29203 98.289145,70.735371 91.912874,38.964825 86.963973,12.702694 87.291587,12.37508 88.463465,11.203202 101.37287,8.9728707 102.19948,9.7994752 c 0.46385,0.4638518 14.32258,68.7612268 30.79719,151.7719448 16.4746,83.01072 32.37044,162.93952 35.32407,177.61956 2.95364,14.68003 5.10228,27.11025 4.77476,27.62271 -0.57628,0.90166 -9.66529,3.18631 -12.67611,3.18631 -0.81519,0 -1.66806,-0.5625 -1.89527,-1.25 z m 20.99035,-5 c -0.288,-1.2375 -8.59518,-42.3 -18.4604,-91.25 -9.86522,-48.95 -24.53171,-121.55894 -32.59222,-161.3532 -9.7772,-48.269535 -14.32236,-72.686295 -13.65475,-73.353904 1.38186,-1.381854 13.51805,-3.835799 14.44974,-2.921743 0.41625,0.408385 5.45754,24.341942 11.20285,53.185682 31.19564,156.614385 53.72423,270.727175 53.87248,272.877165 0.15175,2.20077 -0.4071,2.55592 -5.83217,3.70636 -8.09884,1.71745 -8.38523,1.68908 -8.98553,-0.89036 z m 36.06037,-5.89393 C 215.33075,357.11023 208.37264,322.975 200.11237,282 191.85211,241.025 179.78513,181.31236 173.29685,149.30524 c -8.44487,-41.65917 -11.4903,-58.50279 -10.71799,-59.278857 1.57901,-1.586684 13.26671,-3.583687 14.37739,-2.456573 0.50414,0.511605 7.48934,34.23019 15.52267,74.93019 8.03332,40.7 19.92059,100.66245 26.41615,133.24989 8.37049,41.99371 11.48899,59.50319 10.70752,60.11961 -0.60642,0.47835 -2.90259,1.18412 -5.10259,1.56838 -2.2,0.38427 -5.00831,0.94068 -6.24068,1.23646 -1.39098,0.33386 -2.40898,0.0236 -2.68448,-0.81827 z m 21.66446,-4.22678 C 236.83806,353.00818 229.04167,315.6 219.91398,270.5 210.78629,225.4 198.18415,163.22494 191.90923,132.3332 185.6343,101.44145 180.81234,75.854322 181.19376,75.472904 c 1.18187,-1.181868 14.11838,-3.561472 14.92214,-2.74485 0.41788,0.42457 8.45901,39.696946 17.86918,87.271946 9.41017,47.575 21.77673,109.9 27.48125,138.5 5.70452,28.6 10.0015,52.38426 9.54885,52.85391 -1.56386,1.62259 -12.97951,3.50814 -13.77588,2.27538 z"
            id="path134" />
    <path
            style="fill:#f7d06f"
            d="m 123.07185,490.75 c -5.06209,-24.83856 -5.82378,-29.35752 -5.07739,-30.12286 1.252,-1.28377 34.28238,-7.76587 35.0624,-6.88087 1.30502,1.48068 7.23383,34.36273 6.33998,35.16247 -0.82285,0.73623 -31.36878,7.09349 -34.07594,7.09194 -0.64851,-3.8e-4 -1.66058,-2.36318 -2.24905,-5.25068 z m 58.0581,-7.97694 c -1.63285,-4.4286 -6.46674,-31.45301 -5.89333,-32.9473 0.72915,-1.90013 33.35507,-8.63407 34.80537,-7.18377 1.72582,1.72582 8.01702,35.35801 6.61403,35.35801 -0.48752,0 -29.68511,5.86265 -32.422,6.51009 -1.71537,0.40578 -2.46963,-0.0163 -3.10407,-1.73703 z m 57.65169,-10.32475 c -0.88048,-0.88049 -7.24933,-34.31396 -6.65062,-34.91267 1.04867,-1.04866 34.37861,-7.37632 35.11337,-6.66624 0.40942,0.39566 2.25904,8.23398 4.11029,17.4185 2.42331,12.0227 3.05497,16.95235 2.25561,17.60339 C 272.60935,466.7065 243.28972,473 240.49282,473 c -0.63772,0 -1.40775,-0.24826 -1.71118,-0.55169 z m 57.4546,-11.67573 c -1.61236,-1.96138 -7.68428,-33.72975 -6.63922,-34.73645 1.59746,-1.53881 158.41177,-32.42734 159.43447,-31.40464 1.01547,1.01547 6.96851,29.17001 6.96851,32.95714 0,1.30758 -0.74488,2.49329 -1.75,2.78569 -0.9625,0.28001 -35.95,7.31156 -77.75,15.62568 -41.8,8.31412 -76.72397,15.32551 -77.60882,15.58087 -0.88485,0.25536 -2.07957,-0.10837 -2.65494,-0.80829 z M 112.10412,435.25 c -2.22019,-8.55706 -6.35148,-31.33597 -5.78583,-31.90163 1.31224,-1.31223 34.09796,-7.33212 35.00306,-6.42702 0.51085,0.51085 2.41543,8.27502 4.23241,17.25373 2.52444,12.47468 3.0256,16.58683 2.12492,17.43539 -0.92318,0.86976 -30.83811,7.39312 -33.89014,7.39021 -0.3913,-3.8e-4 -1.14929,-1.68818 -1.68442,-3.75068 z m 57.4166,-9.5 c -1.69402,-5.08401 -6.51515,-33.15557 -5.81459,-33.85613 C 164.6682,390.9318 192.96183,385 196.58863,385 c 2.6614,0 2.33899,-0.94359 6.43948,18.84607 1.8652,9.00179 2.81067,15.71515 2.28699,16.23883 -0.99248,0.99248 -29.25833,6.9151 -33.0025,6.9151 -1.30645,0 -2.5628,-0.5625 -2.79188,-1.25 z m 57.85897,-10.94467 c -0.40609,-0.65707 -2.20055,-8.41957 -3.9877,-17.25 -2.48309,-12.2692 -2.97139,-16.3172 -2.07067,-17.1658 0.64828,-0.61076 8.55498,-2.55909 17.57046,-4.32961 12.44669,-2.44438 16.57175,-2.92795 17.13955,-2.00923 0.41127,0.66545 2.21729,8.61907 4.01337,17.6747 2.56699,12.94241 2.99425,16.63251 1.99716,17.24874 -1.07153,0.66224 -31.18173,7.02856 -33.23284,7.02655 -0.38004,-3.8e-4 -1.02324,-0.53828 -1.42933,-1.19535 z m 57.64126,-10.79238 c -1.10047,-0.68013 -7.8894,-32.9076 -7.30287,-34.66718 0.41941,-1.25825 158.84174,-33.11928 159.81908,-32.14194 1.28736,1.28735 7.6572,34.00181 6.78946,34.86955 -1.24867,1.24867 -158.08601,32.69336 -159.30567,31.93957 z M 101.55794,381.09375 C 100.18233,378.86796 43.211032,91.451099 43.985887,90.646095 c 1.570674,-1.63179 12.905349,-3.489479 13.842186,-2.268656 0.473788,0.617409 13.83106,66.074791 29.682827,145.460861 23.06456,115.50792 28.55542,144.50268 27.48981,145.16126 -0.73238,0.45264 -3.33968,1.1241 -5.794,1.49215 -2.45432,0.36805 -5.03436,0.88866 -5.73341,1.15691 -0.69905,0.26825 -1.56096,0.0186 -1.91536,-0.55487 z m 20.98054,-5.03149 C 121.21518,373.92111 60.088901,65.511099 60.839138,64.760862 c 1.127867,-1.127867 12.995031,-3.260026 13.779339,-2.475718 0.743745,0.743744 62.298313,307.176056 62.347963,310.381996 0.0279,1.80178 -0.81768,2.34969 -5.01566,3.25 -6.19821,1.32927 -8.65702,1.36719 -9.4123,0.14512 z M 158.51183,368.75 C 157.02041,364.36764 87.444492,13.89944 87.915207,13.140317 88.681082,11.905193 100.85356,9.5202305 101.76086,10.427529 102.85364,11.520311 173.75757,365.77819 173.09192,366.81948 172.51836,367.71671 163.42076,370 160.41939,370 c -0.81519,0 -1.67359,-0.5625 -1.90756,-1.25 z m 20.98554,-5 C 177.52286,355.53412 115,41.086626 115,39.372095 c 0,-1.850765 0.90331,-2.316075 6.573,-3.385868 3.74563,-0.706751 6.91534,-0.862994 7.36887,-0.363231 0.81491,0.897981 65.03387,320.239624 65.37147,325.072704 0.17425,2.49467 -0.21217,2.75687 -5.81334,3.94466 -8.09802,1.71728 -8.38271,1.68912 -9.00263,-0.89036 z m 36.05977,-5.89393 C 215.30332,357.11023 203.18388,296.875 188.62504,224 168.49074,123.21666 162.43517,91.23237 163.32722,90.381945 c 1.63314,-1.556934 11.96865,-3.420892 13.06861,-2.356859 0.49271,0.476616 12.91893,60.736704 27.61384,133.911304 19.07252,94.97333 26.39928,133.29627 25.60417,133.92378 -0.61261,0.48348 -2.91384,1.19345 -5.11384,1.57771 -2.2,0.38427 -5.00831,0.94068 -6.24068,1.23646 -1.38756,0.33304 -2.4164,0.0215 -2.70218,-0.81827 z m 21.6153,-4.23351 C 236.40346,352.61987 182.41778,84.086224 181.7662,78.022784 c -0.23646,-2.200429 0.29246,-2.620968 4.7338,-3.763787 2.75,-0.707615 6.10526,-1.167868 7.45614,-1.022785 C 196.4,73.49868 196.55093,74.192917 224.12342,212 c 15.24112,76.175 27.34159,138.88426 26.88995,139.35391 -1.56903,1.63155 -12.90459,3.48956 -13.84093,2.26865 z"
            id="path132" />
    <path
            style="fill:#f6cf50"
            d="m 120.98946,478.44684 c -2.11209,-10.64886 -2.93852,-16.89778 -2.31698,-17.51932 1.291,-1.291 33.04883,-7.53954 33.91533,-6.67304 1.13553,1.13553 7.31129,33.1921 6.54715,33.98435 -0.82361,0.8539 -29.35417,6.76117 -32.65468,6.76117 -2.05578,0 -2.4336,-1.13901 -5.49082,-16.55316 z m 60.53126,4.30316 c -1.21558,-3.64814 -6.59366,-33.01039 -6.13102,-33.47303 0.29916,-0.29916 7.87136,-2.02676 16.82711,-3.83912 12.44122,-2.51771 16.54475,-3.0171 17.39175,-2.11653 1.44618,1.53766 7.61469,32.88428 6.63887,33.73684 -0.6505,0.56833 -31.44332,6.94433 -33.52881,6.94252 -0.42977,-3.8e-4 -0.96882,-0.56318 -1.1979,-1.25068 z m 57.63974,-11.13971 c -1.32167,-1.7213 -7.25072,-32.92502 -6.40789,-33.7238 1.13134,-1.0722 32.22161,-7.11038 33.69662,-6.54436 1.24287,0.47693 8.25456,33.28745 7.3145,34.22751 -0.23978,0.23978 -7.93178,1.94684 -17.09334,3.79345 -11.93669,2.40598 -16.89897,3.04283 -17.50989,2.2472 z M 294.53775,453.75 c -3.56331,-16.15973 -5.23432,-26.29748 -4.47265,-27.13497 0.44267,-0.48674 36.15925,-7.95768 79.37019,-16.60208 55.44546,-11.09195 78.81422,-15.3928 79.41105,-14.61503 1.31787,1.71736 7.24084,32.91913 6.40109,33.72044 -0.69715,0.66525 -155.34161,31.88473 -157.92922,31.88261 -0.65312,-5.4e-4 -1.89694,-3.24421 -2.78046,-7.25097 z m -182.4659,-21 c -0.58847,-2.8875 -2.14165,-10.56907 -3.4515,-17.07015 l -2.38156,-11.82014 2.13061,-0.78393 c 5.27152,-1.93958 31.67947,-6.42581 32.55798,-5.531 0.94608,0.96363 7.07262,28.99083 7.07262,32.35526 0,1.54056 -2.36517,2.28496 -15.75,4.95705 -8.6625,1.72935 -16.5056,3.14396 -17.4291,3.14359 -1.22288,-5e-4 -1.96981,-1.42713 -2.74905,-5.25068 z m 58.04933,-8 c -1.95274,-5.29791 -6.48336,-31.78295 -5.5764,-32.59845 1.48316,-1.33359 32.76083,-7.24594 33.64662,-6.36015 1.06194,1.06194 6.93687,30.19963 6.58662,32.66741 -0.2399,1.69022 -2.47196,2.40358 -16.27802,5.2024 -8.8,1.78398 -16.34864,3.26501 -16.77475,3.29119 -0.42611,0.0262 -1.14795,-0.9649 -1.60407,-2.2024 z m 54.02173,-25.5 c -1.72935,-8.6625 -3.14396,-16.48119 -3.14359,-17.37487 5.5e-4,-1.30498 3.33999,-2.28052 16.96223,-4.95512 9.32886,-1.83163 17.20512,-3.08667 17.50281,-2.78899 1.07345,1.07346 7.24894,33.92814 6.46798,34.4108 C 260.72883,409.28563 232.02083,415 229.48757,415 c -2.04097,0 -2.42822,-1.14117 -5.34466,-15.75 z m 60.37781,3.5 c -1.23048,-3.69285 -6.59072,-33.01333 -6.12119,-33.48286 1.08692,-1.08692 158.11545,-32.08966 158.86979,-31.36627 1.44859,1.38917 7.21504,33.01649 6.19852,33.99708 -0.77183,0.74455 -154.87993,32.10657 -157.74922,32.10302 -0.42977,-5.3e-4 -0.96882,-0.56347 -1.1979,-1.25097 z M 101.5209,379.86182 C 99.516819,374.42679 43.204605,91.428965 43.971419,90.646095 45.574576,89.009368 56.891403,87.158356 57.841658,88.377439 58.575728,89.319179 82.748949,209.82726 108.61657,341.5 c 3.56564,18.15 6.71579,33.78715 7.00035,34.74922 0.60148,2.03364 -1.87314,3.21678 -8.94677,4.27754 -3.49898,0.5247 -4.77117,0.36042 -5.14925,-0.66494 z M 122.51676,374.75 C 116.12784,347.17688 60.058561,65.541439 60.808747,64.791253 c 1.163632,-1.163632 13.017905,-3.297934 13.826456,-2.489383 0.975582,0.975582 61.624517,305.39892 61.794477,310.17334 0.0557,1.56476 -0.96868,2.22017 -4.92968,3.154 -7.36734,1.73692 -8.40049,1.6358 -8.98324,-0.87921 z m 36.5236,-6.97807 C 158.52514,366.52237 153.51762,342.775 147.91253,315 100.4498,79.807341 87.36813,14.022809 87.892979,13.176283 88.769085,11.763218 100.95183,9.5314067 101.91021,10.608404 102.77455,11.579731 173,363.00518 173,366.35925 c 0,0.31001 -1.6875,0.98588 -3.75,1.50192 -9.25298,2.31513 -9.21816,2.31544 -10.20964,-0.0892 z m 20.92347,-3.38425 C 179.94394,363.89946 176.3991,346.175 172.08641,325 150.80719,220.52048 115,41.407932 115,39.44581 c 0,-1.941575 0.82267,-2.374575 6.573,-3.459583 3.74944,-0.70747 6.92089,-0.863502 7.38287,-0.363231 C 129.40131,36.105348 140.87028,92.3 154.44249,160.5 189.82754,338.30904 194,359.48118 194,361.22506 c 0,0.85853 -0.71329,1.83468 -1.58508,2.16922 -2.94994,1.13199 -12.41467,1.88713 -12.45109,0.9934 z M 215.51676,355.75 C 214.27361,350.38484 197.48889,267.53162 180.52042,183 166.5435,113.37137 162.43363,91.23275 163.32657,90.381945 163.97196,89.767015 166.975,88.783528 170,88.196419 c 4.3107,-0.836646 5.7168,-0.78889 6.5026,0.22085 C 177.51409,89.717002 230,351.19001 230,354.92926 230,355.84235 221.54702,358 217.96983,358 c -1.18213,0 -2.13403,-0.8731 -2.45307,-2.25 z m 15.09218,-34.5 C 209.75822,220.1362 181.23953,76.392573 181.8961,75.721138 c 1.32067,-1.350559 13.07395,-3.158044 13.98914,-2.151328 0.7204,0.792444 11.80095,55.95847 48.76234,242.76999 3.57361,18.06189 6.27082,33.43046 5.9938,34.15237 -0.44196,1.15171 -8.50837,3.50783 -12.00943,3.50783 -0.86283,0 -3.43339,-10.49306 -8.02301,-32.75 z"
            id="path130" />
    <path
            style="fill:#f5af6f"
            d="m 124.17481,490.33314 c -3.35882,-15.81344 -5.48608,-28.3552 -4.90756,-28.93373 0.36651,-0.3665 7.91688,-2.12539 16.77862,-3.90864 11.14867,-2.24345 16.22533,-2.89548 16.4793,-2.11652 1.49511,4.58563 6.32834,32.15299 5.72922,32.67784 -0.41491,0.36349 -7.05439,1.88322 -14.75439,3.37719 -7.7,1.49397 -14.96719,2.94596 -16.14931,3.22665 -1.88106,0.44665 -2.27743,-0.0929 -3.17588,-4.32279 z M 182,482.65602 c 0,-0.18919 -1.35,-7.0094 -3,-15.15602 -1.65,-8.14662 -3,-15.54562 -3,-16.44224 0,-1.29991 2.88708,-2.19642 14.25,-4.42496 7.8375,-1.53712 15.41778,-3.02563 16.84506,-3.30779 l 2.59506,-0.51303 3.29626,16.61935 c 1.81295,9.14065 3.08389,16.83174 2.82431,17.09131 C 215.19739,477.13594 186.25741,483 183.84398,483 182.82979,483 182,482.84521 182,482.65602 Z m 57.71628,-11.3189 c -0.83624,-1.37412 -6.90777,-32.47896 -6.43252,-32.95421 0.80659,-0.8066 32.61757,-6.81492 33.16787,-6.26461 0.63088,0.63088 6.54837,29.39568 6.54837,31.83148 0,1.31323 -2.92272,2.20656 -14.75,4.50837 -8.1125,1.57884 -15.48671,3.06085 -16.38714,3.29336 -0.90043,0.2325 -1.86639,0.046 -2.14658,-0.41439 z m 53.51802,-27.55005 c -1.76464,-8.91712 -2.87675,-16.52906 -2.47137,-16.91542 1.30846,-1.24707 156.62072,-31.888 157.44669,-31.06203 1.12968,1.12968 7.2224,32.09169 6.46421,32.84988 C 453.9296,429.40373 301.45182,460 298.48714,460 c -1.84322,0 -2.36015,-1.59552 -5.25284,-16.21293 z m -179.68533,-6.96812 c -1.51309,-4.52354 -6.42241,-32.32823 -5.80336,-32.86823 0.88942,-0.77584 32.44599,-7.09245 32.9441,-6.59435 0.18706,0.18706 1.85751,7.59553 3.71211,16.46328 2.46483,11.78551 3.06615,16.35918 2.2351,17.00044 -0.62531,0.4825 -7.43692,2.09641 -15.13692,3.58647 -7.7,1.49006 -14.78972,2.93918 -15.75493,3.22027 -0.9652,0.28109 -1.95345,-0.0825 -2.1961,-0.80788 z M 170.52143,424.75 c -1.46903,-4.41629 -6.23814,-31.38612 -5.65663,-31.98883 0.91389,-0.94719 30.15835,-6.89622 32.09102,-6.5281 1.03353,0.19687 2.38786,4.91687 4.66901,16.27212 1.76726,8.79714 2.89467,16.32728 2.50535,16.73364 C 203.43716,419.96219 175.02365,426 172.3126,426 c -0.75645,0 -1.56248,-0.5625 -1.79117,-1.25 z m 57.00816,-11.90251 c -1.8373,-7.73715 -6.29706,-31.41026 -5.97776,-31.73097 0.88044,-0.88432 33.0001,-6.90613 33.55184,-6.29031 1.10979,1.23871 6.90193,32.56954 6.14376,33.23285 -0.41109,0.35965 -7.04743,1.87625 -14.74743,3.37022 -7.7,1.49397 -14.99292,2.95242 -16.20648,3.241 -1.70901,0.40639 -2.33216,-0.005 -2.76393,-1.82279 z M 284.15698,398.25 c -2.90774,-13.69205 -5.50265,-28.2362 -5.10654,-28.6215 0.94829,-0.92238 157.17488,-31.73691 157.79512,-31.12391 1.24691,1.23234 6.99115,31.99677 6.1392,32.87967 C 442.15947,372.23952 290.2471,403 286.84864,403 c -1.19944,0 -1.97271,-1.3646 -2.69166,-4.75 z M 101.92864,378.62647 C 101.09292,376.68617 98.033508,362.31634 83.059619,290 67.167707,213.25007 43.280201,91.37807 43.985281,90.646095 c 1.573575,-1.633599 12.905225,-3.48889 13.856377,-2.268656 1.668576,2.140619 57.640082,286.677351 56.855562,289.030911 -0.19061,0.57182 -2.93543,1.55828 -6.09961,2.19213 -5.46492,1.09474 -5.79893,1.04596 -6.66897,-0.97401 z M 123,375.65105 c 0,-0.33364 -3.35042,-16.47911 -7.44538,-35.87883 C 95.639724,245.42607 59.881844,65.718156 60.834417,64.765583 61.979355,63.620645 73.836925,61.503591 74.634963,62.30163 75.918938,63.585605 136,366.97853 136,372.17827 c 0,0.88426 -0.66952,1.86467 -1.48782,2.17868 C 132.08684,375.28764 123,376.3091 123,375.65105 Z m 29.04618,-41.81921 C 136.12813,257.59 87.320385,14.435245 87.716858,13.350306 c 0.539583,-1.476554 13.165872,-3.8998344 14.210412,-2.72731 0.83868,0.941445 46.11795,227.142874 61.02795,304.877004 4.95822,25.85 9.21099,47.8122 9.4506,48.80489 0.50012,2.07198 -1.74207,3.17311 -8.53575,4.19189 l -4.44718,0.66689 z m 28.47603,29.96592 C 178.43616,357.80405 115,43.71112 115,39.376123 c 0,-1.855728 0.89876,-2.319244 6.573,-3.389896 3.73888,-0.705478 6.90554,-0.862094 7.34425,-0.363231 1.49697,1.702212 62.82967,310.718784 64.26369,323.783964 0.34252,3.12067 -0.20664,3.44487 -8.444,4.98499 -2.69797,0.50444 -3.89089,0.33626 -4.21473,-0.59419 z m 36.11873,-6.56972 C 215.65134,355.62684 204.16962,300.34821 183.46442,197.5 167.10235,116.22528 162.40173,91.239205 163.31235,90.381945 c 1.65803,-1.560872 11.98484,-3.419633 13.0851,-2.355236 1.38542,1.340255 51.29464,252.058211 52.93291,265.907391 0.1092,0.92319 -1.25539,1.72324 -3.83036,2.24571 -2.2,0.44639 -4.98492,1.0402 -6.18871,1.31957 -1.2038,0.27938 -2.40546,0.15727 -2.67035,-0.27134 z m 14.01229,-36.37542 C 216.15184,252.33007 181.17139,76.462255 181.8961,75.721138 c 1.31953,-1.349401 13.07443,-3.158438 13.97905,-2.151328 0.92271,1.027246 33.40786,163.39111 46.1036,230.43019 4.42672,23.375 8.26423,43.46558 8.5278,44.64574 0.56418,2.52616 -0.6031,3.11536 -7.84163,3.95815 L 237.5,353.20524 Z"
            id="path128" />
    <path
            style="fill:#f4af4e"
            d="m 124.17481,490.33314 c -3.35882,-15.81344 -5.48608,-28.3552 -4.90756,-28.93373 0.36651,-0.3665 7.91688,-2.12539 16.77862,-3.90864 11.14867,-2.24345 16.22533,-2.89548 16.4793,-2.11652 1.49511,4.58563 6.32834,32.15299 5.72922,32.67784 -0.41491,0.36349 -7.05439,1.88322 -14.75439,3.37719 -7.7,1.49397 -14.96719,2.94596 -16.14931,3.22665 -1.88106,0.44665 -2.27743,-0.0929 -3.17588,-4.32279 z M 182,482.65602 c 0,-0.18919 -1.35,-7.0094 -3,-15.15602 -1.65,-8.14662 -3,-15.54562 -3,-16.44224 0,-1.29991 2.88708,-2.19642 14.25,-4.42496 7.8375,-1.53712 15.41778,-3.02563 16.84506,-3.30779 l 2.59506,-0.51303 3.29626,16.61935 c 1.81295,9.14065 3.08389,16.83174 2.82431,17.09131 C 215.19739,477.13594 186.25741,483 183.84398,483 182.82979,483 182,482.84521 182,482.65602 Z m 57.71628,-11.3189 c -0.83624,-1.37412 -6.90777,-32.47896 -6.43252,-32.95421 0.80659,-0.8066 32.61757,-6.81492 33.16787,-6.26461 0.63088,0.63088 6.54837,29.39568 6.54837,31.83148 0,1.31323 -2.92272,2.20656 -14.75,4.50837 -8.1125,1.57884 -15.48671,3.06085 -16.38714,3.29336 -0.90043,0.2325 -1.86639,0.046 -2.14658,-0.41439 z m 53.51802,-27.55005 c -1.76464,-8.91712 -2.87675,-16.52906 -2.47137,-16.91542 1.30846,-1.24707 156.62072,-31.888 157.44669,-31.06203 1.12968,1.12968 7.2224,32.09169 6.46421,32.84988 C 453.9296,429.40373 301.45182,460 298.48714,460 c -1.84322,0 -2.36015,-1.59552 -5.25284,-16.21293 z m -179.68533,-6.96812 c -1.51309,-4.52354 -6.42241,-32.32823 -5.80336,-32.86823 0.88942,-0.77584 32.44599,-7.09245 32.9441,-6.59435 0.18706,0.18706 1.85751,7.59553 3.71211,16.46328 2.46483,11.78551 3.06615,16.35918 2.2351,17.00044 -0.62531,0.4825 -7.43692,2.09641 -15.13692,3.58647 -7.7,1.49006 -14.78972,2.93918 -15.75493,3.22027 -0.9652,0.28109 -1.95345,-0.0825 -2.1961,-0.80788 z M 170.52143,424.75 c -1.46903,-4.41629 -6.23814,-31.38612 -5.65663,-31.98883 0.91389,-0.94719 30.15835,-6.89622 32.09102,-6.5281 1.03353,0.19687 2.38786,4.91687 4.66901,16.27212 1.76726,8.79714 2.89467,16.32728 2.50535,16.73364 C 203.43716,419.96219 175.02365,426 172.3126,426 c -0.75645,0 -1.56248,-0.5625 -1.79117,-1.25 z m 57.00816,-11.90251 c -1.8373,-7.73715 -6.29706,-31.41026 -5.97776,-31.73097 0.88044,-0.88432 33.0001,-6.90613 33.55184,-6.29031 1.10979,1.23871 6.90193,32.56954 6.14376,33.23285 -0.41109,0.35965 -7.04743,1.87625 -14.74743,3.37022 -7.7,1.49397 -14.99292,2.95242 -16.20648,3.241 -1.70901,0.40639 -2.33216,-0.005 -2.76393,-1.82279 z M 284.15698,398.25 c -2.90774,-13.69205 -5.50265,-28.2362 -5.10654,-28.6215 0.94829,-0.92238 157.17488,-31.73691 157.79512,-31.12391 1.24691,1.23234 6.99115,31.99677 6.1392,32.87967 C 442.15947,372.23952 290.2471,403 286.84864,403 c -1.19944,0 -1.97271,-1.3646 -2.69166,-4.75 z M 102.01148,379.02145 C 101.05749,377.23891 43.998788,94.769212 43.999561,91.832864 c 3.14e-4,-1.192973 1.436527,-1.975122 5.04966,-2.75 C 54.386771,87.938165 58,87.690021 58,88.468156 58,88.725642 70.579346,152.06314 85.954103,229.21816 101.32886,306.37317 114.04136,371.49604 114.2041,373.93564 l 0.2959,4.43564 -5.78546,1.18236 c -5.17804,1.05823 -5.8818,1.00235 -6.70306,-0.53219 z M 123,375.64934 c 0,-0.33458 -1.59814,-8.15505 -3.55141,-17.37883 C 112.36472,324.81901 61,68.1936 61,66.25309 c 0,-1.642438 1.077075,-2.204781 6.125071,-3.197914 3.368789,-0.662768 6.494675,-0.833816 6.946413,-0.380105 1.139563,1.14454 61.915266,304.868769 61.925026,309.467939 0.002,0.90366 -0.66603,1.89993 -1.48433,2.21394 C 132.08348,375.28893 123,376.30867 123,375.64934 Z m 33.28606,-21.31006 C 136.51211,257.73956 88.020143,14.389891 88.365468,13.489989 88.969885,11.914903 100.10125,9.7012464 101.3148,10.914798 c 0.78122,0.781222 57.24044,280.887742 67.90956,336.914182 l 3.49039,18.32897 -2.19875,0.83597 c -1.20931,0.45978 -4.22231,1.13941 -6.69555,1.5103 l -4.49679,0.67433 z m 24.22651,9.45848 c -1.48843,-4.18724 -64.83595,-319.533302 -64.9344,-323.245566 -0.0746,-2.81466 0.19283,-3.003204 5.92183,-4.174329 3.40533,-0.696119 6.38703,-0.850595 6.89498,-0.357215 1.15975,1.126484 63.72537,313.39 64.7942,323.38631 0.33357,3.11972 -0.21907,3.44565 -8.45224,4.98499 -2.69635,0.50414 -3.89382,0.3357 -4.22437,-0.59419 z m 36.1151,-6.59118 c -1.57406,-2.54689 -54.35831,-265.809273 -53.4725,-266.695081 0.78943,-0.78943 12.71567,-2.973991 13.26067,-2.428991 0.5011,0.501101 52.28102,259.944822 52.76278,264.368382 0.2966,2.72334 0.0129,3.01218 -3.67862,3.74571 -2.2,0.43715 -4.98492,1.02341 -6.18871,1.30278 -1.2038,0.27938 -2.41142,0.14762 -2.68362,-0.2928 z m 19.69806,-9.34101 c -0.57782,-2.95106 -13.06442,-64.93336 -27.748,-137.73843 -14.68358,-72.80507 -26.48662,-132.922191 -26.22898,-133.593592 0.60151,-1.567499 11.73253,-3.852265 12.93064,-2.654157 0.71261,0.712608 52.84653,259.829689 54.98601,273.292599 0.67187,4.22782 0.27141,4.51239 -7.66233,5.44484 l -5.22676,0.61431 z"
            id="path126" />
    <path
            style="fill:#f5ca2d"
            d="m 124.17481,490.33314 c -3.35882,-15.81344 -5.48608,-28.3552 -4.90756,-28.93373 0.36651,-0.3665 7.91688,-2.12539 16.77862,-3.90864 11.14867,-2.24345 16.22533,-2.89548 16.4793,-2.11652 1.49511,4.58563 6.32834,32.15299 5.72922,32.67784 -0.41491,0.36349 -7.05439,1.88322 -14.75439,3.37719 -7.7,1.49397 -14.96719,2.94596 -16.14931,3.22665 -1.88106,0.44665 -2.27743,-0.0929 -3.17588,-4.32279 z M 182,482.65602 c 0,-0.18919 -1.35,-7.0094 -3,-15.15602 -1.65,-8.14662 -3,-15.54562 -3,-16.44224 0,-1.29991 2.88708,-2.19642 14.25,-4.42496 7.8375,-1.53712 15.41778,-3.02563 16.84506,-3.30779 l 2.59506,-0.51303 3.29626,16.61935 c 1.81295,9.14065 3.08389,16.83174 2.82431,17.09131 C 215.19739,477.13594 186.25741,483 183.84398,483 182.82979,483 182,482.84521 182,482.65602 Z m 57.71628,-11.3189 c -0.83624,-1.37412 -6.90777,-32.47896 -6.43252,-32.95421 0.80659,-0.8066 32.61757,-6.81492 33.16787,-6.26461 0.63088,0.63088 6.54837,29.39568 6.54837,31.83148 0,1.31323 -2.92272,2.20656 -14.75,4.50837 -8.1125,1.57884 -15.48671,3.06085 -16.38714,3.29336 -0.90043,0.2325 -1.86639,0.046 -2.14658,-0.41439 z m 53.51802,-27.55005 c -1.76464,-8.91712 -2.87675,-16.52906 -2.47137,-16.91542 1.30846,-1.24707 156.62072,-31.888 157.44669,-31.06203 1.12968,1.12968 7.2224,32.09169 6.46421,32.84988 C 453.9296,429.40373 301.45182,460 298.48714,460 c -1.84322,0 -2.36015,-1.59552 -5.25284,-16.21293 z m -179.68533,-6.96812 c -1.51309,-4.52354 -6.42241,-32.32823 -5.80336,-32.86823 0.88942,-0.77584 32.44599,-7.09245 32.9441,-6.59435 0.18706,0.18706 1.85751,7.59553 3.71211,16.46328 2.46483,11.78551 3.06615,16.35918 2.2351,17.00044 -0.62531,0.4825 -7.43692,2.09641 -15.13692,3.58647 -7.7,1.49006 -14.78972,2.93918 -15.75493,3.22027 -0.9652,0.28109 -1.95345,-0.0825 -2.1961,-0.80788 z M 170.52143,424.75 c -1.46903,-4.41629 -6.23814,-31.38612 -5.65663,-31.98883 0.91389,-0.94719 30.15835,-6.89622 32.09102,-6.5281 1.03353,0.19687 2.38786,4.91687 4.66901,16.27212 1.76726,8.79714 2.89467,16.32728 2.50535,16.73364 C 203.43716,419.96219 175.02365,426 172.3126,426 c -0.75645,0 -1.56248,-0.5625 -1.79117,-1.25 z m 57.00816,-11.90251 c -1.8373,-7.73715 -6.29706,-31.41026 -5.97776,-31.73097 0.88044,-0.88432 33.0001,-6.90613 33.55184,-6.29031 1.10979,1.23871 6.90193,32.56954 6.14376,33.23285 -0.41109,0.35965 -7.04743,1.87625 -14.74743,3.37022 -7.7,1.49397 -14.99292,2.95242 -16.20648,3.241 -1.70901,0.40639 -2.33216,-0.005 -2.76393,-1.82279 z M 284.15698,398.25 c -2.90774,-13.69205 -5.50265,-28.2362 -5.10654,-28.6215 0.94829,-0.92238 157.17488,-31.73691 157.79512,-31.12391 1.24691,1.23234 6.99115,31.99677 6.1392,32.87967 C 442.15947,372.23952 290.2471,403 286.84864,403 c -1.19944,0 -1.97271,-1.3646 -2.69166,-4.75 z M 102,379.62004 C 102,378.0806 78.277238,260.51735 70.093397,221.5 55.635655,152.57115 43.467828,91.198839 44.128567,90.538099 45.020024,89.646643 56.888765,87.555431 57.51314,88.179806 58.088637,88.755304 76.466951,181.21888 86.099236,232 c 5.327463,28.08623 27.210254,138.23868 28.530324,143.61446 0.33251,1.3541 -0.0425,2.33004 -1.04299,2.71395 C 111.04412,379.30404 102,380.31224 102,379.62004 Z M 114.15185,329.25 C 109.04424,303.5375 100.37272,260.9 94.881816,234.5 78.361708,155.07217 61,69.019219 61,66.565467 c 0,-2.024941 0.744799,-2.451787 6.125071,-3.510291 3.72217,-0.732292 6.485494,-0.844611 7.043801,-0.286304 C 75.048101,63.648101 88.103388,128.39598 103.04894,206 c 3.8662,20.075 12.69993,64.85 19.63053,99.5 6.93059,34.65 12.80717,64.19073 13.05905,65.64607 0.42822,2.47417 0.12359,2.71777 -4.6895,3.75 -2.8311,0.60716 -5.70167,1.10393 -6.37903,1.10393 -0.82543,0 -4.29401,-15.41684 -10.51814,-46.75 z m 45.41958,38.60607 C 159.32547,367.11023 153.88566,340.175 147.48297,308 141.08027,275.825 130.90749,225.65 124.87679,196.5 103.80067,94.626468 87.8577,14.813211 88.33551,13.568058 c 0.627013,-1.63397 11.73121,-3.9013399 12.98179,-2.650757 1.09392,1.093919 2.95776,10.205292 22.72327,111.082699 8.244,42.075 22.41058,113.85 31.48128,159.5 9.0707,45.65 16.48903,83.51242 16.48517,84.13871 -0.004,0.62629 -1.69452,1.44451 -3.75702,1.81827 -2.0625,0.37377 -4.75831,0.92158 -5.99068,1.21736 -1.39032,0.3337 -2.4104,0.0232 -2.68789,-0.81827 z m 20.95846,-5.09265 C 180.24667,361.51854 175.5385,338 170.06728,310.5 164.59606,283 154.49415,233.275 147.61859,200 127.66032,103.40985 114.91247,39.76258 115.29497,38.615076 c 0.48128,-1.443832 11.95859,-3.703208 13.11305,-2.581382 1.03557,1.006291 13.68401,63.709434 32.57089,161.466306 7.11951,36.85 17.26017,88.375 22.5348,114.5 5.27462,26.125 9.67934,48.14534 9.78826,48.9341 0.12865,0.93166 -1.20339,1.71845 -3.80197,2.24571 -2.2,0.44639 -5.00241,1.04459 -6.22758,1.32933 -1.71453,0.39847 -2.34618,-0.004 -2.74253,-1.74572 z m 35.96601,-6.13675 C 216.30524,356.007 211.7941,333.675 206.47117,307 201.14823,280.325 192.80676,239.375 187.93457,216 172.98877,144.29553 162.48685,91.179819 163.12852,90.538146 c 0.81055,-0.810553 12.73215,-3.010812 13.29012,-2.452836 0.55674,0.556738 18.21786,89.41236 28.01609,140.95299 4.13408,21.74607 11.37138,58.58937 16.08289,81.87401 4.71151,23.28463 8.40138,42.8307 8.19971,43.4357 -0.54233,1.627 -11.77739,3.72175 -12.22143,2.27866 z m 21.09138,-4.76485 C 237.34761,351.11282 233.48713,331.825 229.00844,309 224.52974,286.175 216.20822,245.225 210.51617,218 193.09927,134.69522 181.78901,77.992203 182.31575,76.619562 c 0.64791,-1.688427 11.72868,-3.975136 13.01744,-2.686375 0.95976,0.95976 13.9428,65.442113 26.69133,132.566813 3.86494,20.35 11.74053,60.42349 17.50132,89.05219 C 245.28663,324.1809 250,348.32026 250,349.19521 c 0,1.87676 -1.17251,2.4082 -7.36063,3.33616 -3.48236,0.52221 -4.72337,0.35774 -5.05209,-0.66955 z"
            id="path124" />
    <path
            style="fill:#f5ca1e"
            d="m 125.56227,492.85607 c -0.44912,-1.33456 -5.50926,-26.99315 -5.87485,-29.7898 -0.14126,-1.0806 3.75338,-2.22776 15.81258,-4.65761 8.8,-1.77313 16.11128,-3.11667 16.2473,-2.98564 0.35717,0.34409 6.2527,29.65885 6.2527,31.09075 0,0.74573 -5.2174,2.23194 -13.75,3.91677 -7.5625,1.49328 -14.75831,2.95502 -15.99068,3.24832 -1.38548,0.32974 -2.41486,0.0157 -2.69705,-0.82279 z m 57.13421,-11.26252 c -1.07841,-2.96736 -6.02519,-30.59817 -5.56111,-31.06225 0.87484,-0.87484 30.99051,-6.73875 31.5802,-6.14907 0.81293,0.81293 6.36966,28.89184 6.05041,30.57359 -0.3575,1.88332 -31.45795,8.32047 -32.0695,6.63773 z M 239.63027,469.25 c -1.4235,-4.93769 -5.71512,-28.49545 -5.37631,-29.51188 0.21577,-0.6473 7.45455,-2.58854 16.08618,-4.31385 l 15.69387,-3.13693 0.49692,2.10633 c 0.27331,1.15848 1.76909,8.46851 3.32396,16.2445 l 2.82703,14.13817 -15.59096,3.11251 c -8.57503,1.71188 -15.89814,3.1122 -16.27357,3.11183 -0.37544,-3.8e-4 -0.90964,-0.78818 -1.18712,-1.75068 z m 54.44691,-25.32565 c -1.77,-8.86417 -3.02882,-16.30604 -2.79737,-16.53749 0.23145,-0.23145 35.42665,-7.42452 78.21157,-15.98461 52.31914,-10.46762 78.00785,-15.21251 78.45379,-14.49097 0.91385,1.47865 6.5402,30.95491 5.99472,31.40622 -0.24194,0.20017 -34.86489,7.21147 -76.93989,15.58066 -42.075,8.36919 -77.22104,15.4251 -78.10232,15.67979 -1.33572,0.38603 -2.13777,-2.21846 -4.8205,-15.6536 z M 112.23287,427.32016 c -3.51833,-16.67575 -4.52352,-22.36285 -4.03836,-22.84801 C 108.69147,403.9752 137.53562,398 139.43764,398 c 1.26957,0 7.77279,31.11031 6.72261,32.15987 -0.36314,0.36292 -6.73525,1.86039 -14.16025,3.32771 -7.425,1.46731 -14.44393,2.88945 -15.59761,3.16029 -1.92377,0.45164 -2.26933,-0.32142 -4.16952,-9.32771 z m 55.86838,-17.94472 c -1.78868,-8.5935 -2.88069,-15.95392 -2.42669,-16.35648 0.45399,-0.40256 7.12544,-1.94756 14.82544,-3.43333 7.7,-1.48576 14.7086,-2.90563 15.57466,-3.15525 1.30212,-0.3753 2.11852,2.35201 4.7169,15.75765 1.72823,8.91633 2.9481,16.40565 2.71081,16.64293 -0.59169,0.59169 -27.49962,6.07243 -30.07568,6.12596 -1.8762,0.039 -2.38249,-1.44235 -5.32544,-15.58148 z m 60.41279,3.48063 c -0.7493,-2.01369 -6.55907,-31.14719 -6.26583,-31.42047 0.59821,-0.55749 31.97078,-6.54995 32.34292,-6.1778 0.55734,0.55734 6.59152,31.89768 6.21044,32.25576 -0.16587,0.15585 -6.37657,1.48902 -13.80157,2.96261 -7.425,1.47359 -14.50831,2.91702 -15.74068,3.20761 -1.37273,0.32369 -2.43615,0.003 -2.74528,-0.82771 z m 56.93307,-12.25209 c -2.72634,-11.08018 -6.14293,-30.1733 -5.47297,-30.5849 1.5127,-0.92935 155.88978,-31.48849 156.4156,-30.96267 0.86721,0.8672 6.60361,31.28318 6.01268,31.88085 -0.30601,0.30951 -35.62966,7.58453 -78.497,16.16672 -76.15096,15.24569 -77.9525,15.55568 -78.45831,13.5 z M 92.564912,331.31083 C 87.199391,304.46487 78.194016,260.45 72.552969,233.5 56.403182,156.34469 43.451198,91.215469 44.123687,90.542979 45.018543,89.648124 56.886714,87.55338 57.513073,88.17974 58.090419,88.757086 76.218226,179.92249 86.111047,232 c 3.395596,17.875 11.225524,57.84614 17.399843,88.82476 11.10463,55.71568 11.20312,56.33342 9.10757,57.12476 -1.16515,0.44 -3.95887,1.10873 -6.20826,1.48607 l -4.0898,0.68607 z m 30.910548,43.42178 C 123.22883,374.05468 117.64645,346.725 111.07017,314 104.49389,281.275 95.914827,239.2 92.005588,220.5 79.074886,158.64548 61,68.908455 61,66.565467 c 0,-2.024941 0.744799,-2.451787 6.125071,-3.510291 3.72217,-0.732292 6.485494,-0.844611 7.043801,-0.286304 C 75.044999,63.644999 87.919714,127.48247 103.05567,206 c 3.86989,20.075 12.60974,64.625 19.42188,99 6.81214,34.375 12.52897,63.80813 12.70408,65.40696 0.33768,3.08325 -0.12371,3.36757 -7.96969,4.91132 -2.20256,0.43337 -3.43609,0.24002 -3.73648,-0.58567 z m 36.09106,-7.63054 C 159.30563,366.22093 152.57065,333.1 144.59989,293.5 136.62914,253.9 126.46401,203.95 122.0107,182.5 104.53823,98.341272 87.877378,14.76193 88.33551,13.568058 c 0.627013,-1.63397 11.73121,-3.9013399 12.98179,-2.650757 1.09077,1.090774 2.89432,9.902454 22.73599,111.082699 8.251,42.075 22.43264,114.03428 31.51475,159.90952 9.08211,45.87523 16.15721,83.72616 15.72244,84.11317 -0.43476,0.38701 -3.14378,1.14866 -6.02004,1.69255 -4.48342,0.84781 -5.29725,0.76032 -5.70392,-0.61317 z m 20.97114,-5.2454 C 180.23297,360.5605 175.46204,337 169.93559,309.5 164.40914,282 154.31426,232.5 147.50253,199.5 127.39585,102.09149 114.91607,39.751798 115.29497,38.615076 c 0.48128,-1.443832 11.95859,-3.703208 13.11305,-2.581382 1.02861,0.999526 13.50122,62.801451 32.58647,161.466306 7.12809,36.85 17.24536,88.36157 22.48283,114.47016 C 188.7148,338.07875 193,359.9681 193,360.61317 c 0,1.45096 -1.46756,2.03448 -7.32633,2.91306 -4.24972,0.63728 -4.6222,0.5162 -5.13601,-1.66956 z M 216.52309,355.75 c -0.22777,-0.6875 -6.26172,-30.05 -13.40878,-65.25 -7.14705,-35.2 -18.16636,-89.2 -24.48735,-120 -14.39203,-70.12734 -16.16356,-79.296737 -15.45671,-80.003587 0.78129,-0.781287 12.7077,-2.9518 13.24839,-2.411103 0.54927,0.549271 18.08149,88.7161 28.02127,140.91469 4.13693,21.725 11.35533,58.60999 16.04089,81.96665 C 225.16636,334.32331 229,353.74852 229,354.13379 229,354.763 220.35187,357 217.91939,357 c -0.54019,0 -1.16852,-0.5625 -1.3963,-1.25 z m 21.0163,-5.42361 C 237.14572,348.77187 232.39828,325.45 226.98952,298.5 221.58076,271.55 213.33245,231.275 208.65994,209 193.48094,136.63796 181.80298,77.95582 182.31575,76.619562 c 0.64791,-1.688427 11.72868,-3.975136 13.01744,-2.686375 0.95434,0.954341 13.77112,64.585393 26.70204,132.566813 3.87083,20.35 11.74643,60.5352 17.50132,89.30044 5.7549,28.76523 10.46345,52.90265 10.46345,53.6387 0,0.75898 -1.62327,1.63244 -3.75,2.01784 -2.0625,0.37377 -4.70509,0.90822 -5.87242,1.18768 -1.68315,0.40295 -2.27056,-0.0768 -2.83819,-2.31827 z"
            id="path122" />
    <path
            style="fill:#f5be1f"
            d="m 112.23287,427.32016 c -3.51833,-16.67575 -4.52352,-22.36285 -4.03836,-22.84801 C 108.69147,403.9752 137.53562,398 139.43764,398 c 1.26957,0 7.77279,31.11031 6.72261,32.15987 -0.36314,0.36292 -6.73525,1.86039 -14.16025,3.32771 -7.425,1.46731 -14.44393,2.88945 -15.59761,3.16029 -1.92377,0.45164 -2.26933,-0.32142 -4.16952,-9.32771 z m 55.86838,-17.94472 c -1.78868,-8.5935 -2.88069,-15.95392 -2.42669,-16.35648 0.45399,-0.40256 7.12544,-1.94756 14.82544,-3.43333 7.7,-1.48576 14.7086,-2.90563 15.57466,-3.15525 1.30212,-0.3753 2.11852,2.35201 4.7169,15.75765 1.72823,8.91633 2.9481,16.40565 2.71081,16.64293 -0.59169,0.59169 -27.49962,6.07243 -30.07568,6.12596 -1.8762,0.039 -2.38249,-1.44235 -5.32544,-15.58148 z m 60.41279,3.48063 c -0.7493,-2.01369 -6.55907,-31.14719 -6.26583,-31.42047 0.59821,-0.55749 31.97078,-6.54995 32.34292,-6.1778 0.55734,0.55734 6.59152,31.89768 6.21044,32.25576 -0.16587,0.15585 -6.37657,1.48902 -13.80157,2.96261 -7.425,1.47359 -14.50831,2.91702 -15.74068,3.20761 -1.37273,0.32369 -2.43615,0.003 -2.74528,-0.82771 z m 56.93307,-12.25209 c -2.72634,-11.08018 -6.14293,-30.1733 -5.47297,-30.5849 1.5127,-0.92935 155.88978,-31.48849 156.4156,-30.96267 0.86721,0.8672 6.60361,31.28318 6.01268,31.88085 -0.30601,0.30951 -35.62966,7.58453 -78.497,16.16672 -76.15096,15.24569 -77.9525,15.55568 -78.45831,13.5 z M 92.564912,331.31083 C 87.199391,304.46487 78.194016,260.45 72.552969,233.5 56.403182,156.34469 43.451198,91.215469 44.123687,90.542979 45.018543,89.648124 56.886714,87.55338 57.513073,88.17974 58.090419,88.757086 76.218226,179.92249 86.111047,232 c 3.395596,17.875 11.225524,57.84614 17.399843,88.82476 11.10463,55.71568 11.20312,56.33342 9.10757,57.12476 -1.16515,0.44 -3.95887,1.10873 -6.20826,1.48607 l -4.0898,0.68607 z m 30.910548,43.42178 C 123.22883,374.05468 117.64645,346.725 111.07017,314 104.49389,281.275 95.914827,239.2 92.005588,220.5 79.074886,158.64548 61,68.908455 61,66.565467 c 0,-2.024941 0.744799,-2.451787 6.125071,-3.510291 3.72217,-0.732292 6.485494,-0.844611 7.043801,-0.286304 C 75.044999,63.644999 87.919714,127.48247 103.05567,206 c 3.86989,20.075 12.60974,64.625 19.42188,99 6.81214,34.375 12.52897,63.80813 12.70408,65.40696 0.33768,3.08325 -0.12371,3.36757 -7.96969,4.91132 -2.20256,0.43337 -3.43609,0.24002 -3.73648,-0.58567 z m 36.09106,-7.63054 C 159.30563,366.22093 152.57065,333.1 144.59989,293.5 136.62914,253.9 126.46401,203.95 122.0107,182.5 104.53823,98.341272 87.877378,14.76193 88.33551,13.568058 c 0.627013,-1.63397 11.73121,-3.9013399 12.98179,-2.650757 1.09077,1.090774 2.89432,9.902454 22.73599,111.082699 8.251,42.075 22.43264,114.03428 31.51475,159.90952 9.08211,45.87523 16.15721,83.72616 15.72244,84.11317 -0.43476,0.38701 -3.14378,1.14866 -6.02004,1.69255 -4.48342,0.84781 -5.29725,0.76032 -5.70392,-0.61317 z m 20.97114,-5.2454 C 180.23297,360.5605 175.46204,337 169.93559,309.5 164.40914,282 154.31426,232.5 147.50253,199.5 127.39585,102.09149 114.91607,39.751798 115.29497,38.615076 c 0.48128,-1.443832 11.95859,-3.703208 13.11305,-2.581382 1.02861,0.999526 13.50122,62.801451 32.58647,161.466306 7.12809,36.85 17.24536,88.36157 22.48283,114.47016 C 188.7148,338.07875 193,359.9681 193,360.61317 c 0,1.45096 -1.46756,2.03448 -7.32633,2.91306 -4.24972,0.63728 -4.6222,0.5162 -5.13601,-1.66956 z M 216.52309,355.75 c -0.22777,-0.6875 -6.26172,-30.05 -13.40878,-65.25 -7.14705,-35.2 -18.16636,-89.2 -24.48735,-120 -14.39203,-70.12734 -16.16356,-79.296737 -15.45671,-80.003587 0.78129,-0.781287 12.7077,-2.9518 13.24839,-2.411103 0.54927,0.549271 18.08149,88.7161 28.02127,140.91469 4.13693,21.725 11.35533,58.60999 16.04089,81.96665 C 225.16636,334.32331 229,353.74852 229,354.13379 229,354.763 220.35187,357 217.91939,357 c -0.54019,0 -1.16852,-0.5625 -1.3963,-1.25 z m 21.0163,-5.42361 C 237.14572,348.77187 232.39828,325.45 226.98952,298.5 221.58076,271.55 213.33245,231.275 208.65994,209 193.48094,136.63796 181.80298,77.95582 182.31575,76.619562 c 0.64791,-1.688427 11.72868,-3.975136 13.01744,-2.686375 0.95434,0.954341 13.77112,64.585393 26.70204,132.566813 3.87083,20.35 11.74643,60.5352 17.50132,89.30044 5.7549,28.76523 10.46345,52.90265 10.46345,53.6387 0,0.75898 -1.62327,1.63244 -3.75,2.01784 -2.0625,0.37377 -4.70509,0.90822 -5.87242,1.18768 -1.68315,0.40295 -2.27056,-0.0768 -2.83819,-2.31827 z"
            id="path120" />
    <path
            style="fill:#f2904e"
            d="M 109.03518,410.06574 C 108.0664,408.25555 107.58147,404 108.34398,404 c 0.18919,0 7.0094,-1.35 15.15602,-3 8.14662,-1.65 15.36575,-3 16.04252,-3 1.44165,0 2.62166,6.09472 1.42746,7.37277 -0.71209,0.76208 -26.44264,6.46917 -29.6848,6.58415 -0.66815,0.0237 -1.68065,-0.82734 -2.25,-1.89118 z m 57.00747,-11.96278 c -0.68376,-1.65073 -1.05266,-3.57293 -0.81979,-4.27154 0.25345,-0.76034 6.81665,-2.55001 16.35027,-4.45843 8.75978,-1.75352 15.97675,-3.11729 16.03771,-3.0306 0.061,0.0867 0.38923,1.9791 0.72948,4.20537 l 0.61864,4.04777 -14.72948,2.85176 c -8.10121,1.56847 -15.22767,3.03295 -15.83656,3.25439 -0.60889,0.22143 -1.66652,-0.94799 -2.35027,-2.59872 z M 223.67661,388.25 c -0.24278,-0.4125 -0.73999,-2.14376 -1.10492,-3.84725 l -0.6635,-3.09725 16.14207,-3.22325 c 8.87813,-1.77279 16.34304,-3.02229 16.58867,-2.77666 0.24563,0.24563 0.70759,2.05492 1.02659,4.02065 0.66825,4.11798 2.3558,3.38551 -16.55304,7.18479 -13.50375,2.71325 -14.77796,2.8568 -15.43587,1.73897 z M 92.564912,331.31083 C 87.199391,304.46487 78.194016,260.45 72.552969,233.5 56.403182,156.34469 43.451198,91.215469 44.123687,90.542979 45.018543,89.648124 56.886714,87.55338 57.513073,88.17974 58.090419,88.757086 76.218226,179.92249 86.111047,232 c 3.395596,17.875 11.225524,57.84614 17.399843,88.82476 11.10463,55.71568 11.20312,56.33342 9.10757,57.12476 -1.16515,0.44 -3.95887,1.10873 -6.20826,1.48607 l -4.0898,0.68607 z m 187.530848,43.07382 c -0.59747,-2.16386 -0.66731,-4.03008 -0.16243,-4.34035 1.46176,-0.8983 155.91054,-31.53784 156.3736,-31.02138 0.23526,0.26239 0.72,2.09613 1.07719,4.07496 l 0.64943,3.59788 -76.26677,15.22448 c -41.94673,8.37346 -77.2469,15.45757 -78.44483,15.74247 -1.83217,0.43573 -2.3445,-0.0848 -3.22619,-3.27806 z m -156.6203,0.34796 C 123.22883,374.05468 117.64645,346.725 111.07017,314 104.49389,281.275 95.914827,239.2 92.005588,220.5 79.074886,158.64548 61,68.908455 61,66.565467 c 0,-2.024941 0.744799,-2.451787 6.125071,-3.510291 3.72217,-0.732292 6.485494,-0.844611 7.043801,-0.286304 C 75.044999,63.644999 87.919714,127.48247 103.05567,206 c 3.86989,20.075 12.60974,64.625 19.42188,99 6.81214,34.375 12.52897,63.80813 12.70408,65.40696 0.33768,3.08325 -0.12371,3.36757 -7.96969,4.91132 -2.20256,0.43337 -3.43609,0.24002 -3.73648,-0.58567 z m 36.09106,-7.63054 C 159.30563,366.22093 152.57065,333.1 144.59989,293.5 136.62914,253.9 126.46401,203.95 122.0107,182.5 104.53823,98.341272 87.877378,14.76193 88.33551,13.568058 c 0.627013,-1.63397 11.73121,-3.9013399 12.98179,-2.650757 1.09077,1.090774 2.89432,9.902454 22.73599,111.082699 8.251,42.075 22.43264,114.03428 31.51475,159.90952 9.08211,45.87523 16.15721,83.72616 15.72244,84.11317 -0.43476,0.38701 -3.14378,1.14866 -6.02004,1.69255 -4.48342,0.84781 -5.29725,0.76032 -5.70392,-0.61317 z m 20.97114,-5.2454 C 180.23297,360.5605 175.46204,337 169.93559,309.5 164.40914,282 154.31426,232.5 147.50253,199.5 127.39585,102.09149 114.91607,39.751798 115.29497,38.615076 c 0.48128,-1.443832 11.95859,-3.703208 13.11305,-2.581382 1.02861,0.999526 13.50122,62.801451 32.58647,161.466306 7.12809,36.85 17.24536,88.36157 22.48283,114.47016 C 188.7148,338.07875 193,359.9681 193,360.61317 c 0,1.45096 -1.46756,2.03448 -7.32633,2.91306 -4.24972,0.63728 -4.6222,0.5162 -5.13601,-1.66956 z M 216.52309,355.75 c -0.22777,-0.6875 -6.26172,-30.05 -13.40878,-65.25 -7.14705,-35.2 -18.16636,-89.2 -24.48735,-120 -14.39203,-70.12734 -16.16356,-79.296737 -15.45671,-80.003587 0.78129,-0.781287 12.7077,-2.9518 13.24839,-2.411103 0.54927,0.549271 18.08149,88.7161 28.02127,140.91469 4.13693,21.725 11.35533,58.60999 16.04089,81.96665 C 225.16636,334.32331 229,353.74852 229,354.13379 229,354.763 220.35187,357 217.91939,357 c -0.54019,0 -1.16852,-0.5625 -1.3963,-1.25 z m 21.0163,-5.42361 C 237.14572,348.77187 232.39828,325.45 226.98952,298.5 221.58076,271.55 213.33245,231.275 208.65994,209 193.48094,136.63796 181.80298,77.95582 182.31575,76.619562 c 0.64791,-1.688427 11.72868,-3.975136 13.01744,-2.686375 0.95434,0.954341 13.77112,64.585393 26.70204,132.566813 3.87083,20.35 11.74643,60.5352 17.50132,89.30044 5.7549,28.76523 10.46345,52.90265 10.46345,53.6387 0,0.75898 -1.62327,1.63244 -3.75,2.01784 -2.0625,0.37377 -4.70509,0.90822 -5.87242,1.18768 -1.68315,0.40295 -2.27056,-0.0768 -2.83819,-2.31827 z"
            id="path118" />
    <path
            style="fill:#f4b920"
            d="M 109.03518,410.06574 C 108.0664,408.25555 107.58147,404 108.34398,404 c 0.18919,0 7.0094,-1.35 15.15602,-3 8.14662,-1.65 15.36575,-3 16.04252,-3 1.44165,0 2.62166,6.09472 1.42746,7.37277 -0.71209,0.76208 -26.44264,6.46917 -29.6848,6.58415 -0.66815,0.0237 -1.68065,-0.82734 -2.25,-1.89118 z m 57.00747,-11.96278 c -0.68376,-1.65073 -1.05266,-3.57293 -0.81979,-4.27154 0.25345,-0.76034 6.81665,-2.55001 16.35027,-4.45843 8.75978,-1.75352 15.97675,-3.11729 16.03771,-3.0306 0.061,0.0867 0.38923,1.9791 0.72948,4.20537 l 0.61864,4.04777 -14.72948,2.85176 c -8.10121,1.56847 -15.22767,3.03295 -15.83656,3.25439 -0.60889,0.22143 -1.66652,-0.94799 -2.35027,-2.59872 z M 223.67661,388.25 c -0.24278,-0.4125 -0.73999,-2.14376 -1.10492,-3.84725 l -0.6635,-3.09725 16.14207,-3.22325 c 8.87813,-1.77279 16.34304,-3.02229 16.58867,-2.77666 0.24563,0.24563 0.70759,2.05492 1.02659,4.02065 0.66825,4.11798 2.3558,3.38551 -16.55304,7.18479 -13.50375,2.71325 -14.77796,2.8568 -15.43587,1.73897 z M 87.582967,306.31072 C 79.476647,265.71482 66.352297,200.79946 58.417746,162.05436 50.483195,123.30925 44.330749,91.308324 44.745645,90.941185 45.946755,89.878328 56.435203,88.08892 57.124517,88.829256 57.468001,89.198165 62.3494,113.125 67.97207,142 c 5.622671,28.875 18.444387,93.59636 28.492704,143.82523 18.018066,90.06757 18.240506,91.33625 16.152446,92.12476 -1.16447,0.43974 -3.95733,1.10821 -6.20635,1.48549 l -4.08914,0.68596 z m 192.512793,68.07393 c -0.59747,-2.16386 -0.66731,-4.03008 -0.16243,-4.34035 1.46176,-0.8983 155.91054,-31.53784 156.3736,-31.02138 0.23526,0.26239 0.72,2.09613 1.07719,4.07496 l 0.64943,3.59788 -76.26677,15.22448 c -41.94673,8.37346 -77.2469,15.45757 -78.44483,15.74247 -1.83217,0.43573 -2.3445,-0.0848 -3.22619,-3.27806 z M 123.4677,374.73261 C 123.2168,374.05468 113.58494,326.475 102.06357,269 90.54219,211.525 76.571526,142.26273 71.017645,115.08384 63.301828,77.325129 61.212752,65.486546 62.162016,64.899869 64.167564,63.660372 73.114751,62.709319 73.983149,63.643326 74.421222,64.114497 78.458214,83.4 82.954243,106.5 c 4.496028,23.1 18.023317,91.275 30.060637,151.5 12.03732,60.225 22.02083,110.80813 22.18558,112.40696 0.31746,3.08087 -0.15187,3.36941 -7.98852,4.91132 -2.20117,0.43309 -3.43885,0.2395 -3.74424,-0.58567 z m 36.0825,-7.63054 C 159.28033,366.22093 147.82361,309.475 134.09081,241 120.35802,172.525 104.42329,93.424611 98.680307,65.221358 86.946175,7.5961401 87.138777,12.71375 96.656658,11.451158 l 5.002602,-0.663619 8.20191,41.856231 c 4.51105,23.020926 20.36743,102.77902 35.2364,177.2402 14.86897,74.46118 26.66728,135.71211 26.21846,136.11317 -0.44882,0.40106 -3.16933,1.17421 -6.04559,1.7181 -4.48153,0.84745 -5.29975,0.75974 -5.72024,-0.61317 z m 21.10372,-4.75333 C 180.35497,361.33193 168.82425,304.25 155.03009,235.5 141.23593,166.75 126.63352,94.38333 122.58029,74.685179 l -7.3695,-35.814821 2.23598,-0.850119 c 1.22979,-0.467565 4.2731,-1.155603 6.76291,-1.528973 l 4.52692,-0.678855 5.21024,26.843795 c 2.86563,14.764087 17.3249,87.642164 32.1317,161.951294 C 180.88534,298.91662 193,360.18098 193,360.75051 c 0,1.30972 -1.59316,1.91598 -7.27342,2.76778 -3.88291,0.58228 -4.60668,0.41541 -5.07266,-1.16955 z M 216.484,355.75 c -0.24928,-0.6875 -8.0911,-39.5 -17.42628,-86.25 -9.33518,-46.75 -21.27628,-105.89332 -26.53578,-131.4296 -5.2595,-25.53629 -9.21605,-46.750735 -8.79234,-47.143222 1.29004,-1.194949 11.56905,-3.033489 12.32116,-2.203804 0.3872,0.427144 2.36892,9.551626 4.40382,20.276626 2.0349,10.725 13.79008,70.16892 26.12262,132.09759 C 218.90974,303.02626 229,353.95147 229,354.26473 229,354.79766 220.07833,357 217.91939,357 c -0.54019,0 -1.18611,-0.5625 -1.43539,-1.25 z m 21.05412,-5.42361 C 237.14374,348.77187 228.56705,306.325 218.4788,256 208.39055,205.675 196.05173,144.74158 191.05919,120.59241 c -4.99254,-24.149179 -8.90684,-44.078094 -8.69845,-44.28648 0.63241,-0.632416 12.59582,-2.686817 12.99116,-2.230893 0.20268,0.23373 4.97623,24.049963 10.6079,52.924963 5.63167,28.875 17.84458,90.45668 27.1398,136.84818 9.29522,46.39149 16.9004,84.92891 16.9004,85.63871 0,0.70979 -1.6875,1.59633 -3.75,1.97009 -2.0625,0.37377 -4.70509,0.90822 -5.87242,1.18768 -1.68298,0.40291 -2.27088,-0.0771 -2.83946,-2.31827 z"
            id="path116" />
    <path
            style="fill:#f3a722"
            d="M 98.200297,357.80251 C 96.980027,352.68613 88.58521,311.6 79.545148,266.5 70.505087,221.4 58.804061,163.60266 53.54287,138.06147 48.281678,112.52027 44.319727,91.319347 44.738533,90.948296 45.944068,89.880228 56.432387,88.086084 57.126152,88.829256 57.470536,89.198165 60.093129,101.65 62.954136,116.5 c 2.861008,14.85 14.378121,73.125 25.593584,129.5 11.215463,56.375 21.00261,106.34107 21.74921,111.03571 1.22105,7.67805 1.19897,8.53989 -0.21974,8.5772 -0.86745,0.0228 -3.39542,0.36787 -5.61771,0.76679 l -4.04051,0.72531 z m 20.942323,-5.35293 C 117.89986,347.18851 108.83723,302.74759 99.003443,253.692 89.169653,204.6364 76.577893,142.26273 71.021753,115.08384 63.302935,77.325804 61.212769,65.486536 62.162016,64.899869 64.167564,63.660372 73.114751,62.709319 73.983149,63.643326 74.421222,64.114497 78.455929,83.4 82.949165,106.5 c 4.493236,23.1 16.678988,84.525 27.079445,136.5 10.40046,51.975 19.75026,99.45 20.77734,105.5 l 1.8674,11 -2.08667,0.59419 c -1.14768,0.32681 -3.68369,0.89272 -5.63559,1.25759 l -3.54891,0.6634 z m 34.89267,-13.86929 C 152.27518,330.83613 141.45344,277.7 129.98699,220.5 118.52053,163.3 104.43631,93.424611 98.688703,65.221358 86.945025,7.5955993 87.138237,12.713821 96.658883,11.450863 l 5.004827,-0.663914 8.29218,42.356525 C 114.51659,76.439564 128.71607,147.925 141.51028,212 c 24.31969,121.79602 27.13082,136.69223 26.00775,137.8153 -0.37584,0.37584 -2.84317,1.16978 -5.48294,1.76431 l -4.7996,1.08097 z m 24.46391,10.06384 C 176.9076,343.5402 170.11566,310.64472 151.52505,218 139.6607,158.875 126.63639,94.38333 122.58215,74.685179 l -7.37136,-35.814821 2.23598,-0.850119 c 1.22979,-0.467565 4.2731,-1.155603 6.76291,-1.528973 l 4.52692,-0.678855 5.21292,26.843795 C 136.81662,77.420293 149.90445,143.5 163.03357,209.5 c 25.83409,129.86777 27.12697,136.67803 26.13079,137.64464 -0.3654,0.35455 -2.83426,1.0944 -5.48637,1.64413 -3.51579,0.72874 -4.91866,0.68956 -5.17879,-0.14464 z m 35.55691,-7.43574 c -2.3646,-8.78145 -6.66761,-29.53248 -19.017,-91.70839 -7.10067,-35.75 -17.22347,-85.89332 -22.49511,-111.4296 -5.27163,-25.53629 -9.23811,-46.750735 -8.8144,-47.143222 1.29004,-1.194949 11.56905,-3.033489 12.32116,-2.203804 0.3872,0.427144 2.37081,9.551626 4.40802,20.276626 2.03721,10.725 12.8514,65.625 24.03152,122 21.41968,108.00727 22.0732,111.5348 20.80768,112.31396 -0.43889,0.27021 -2.90558,0.80673 -5.48154,1.19225 l -4.68357,0.70095 z m 20.08474,-8.94066 C 232.9462,327.44548 224.80641,287.725 216.05241,244 207.29842,200.275 196.05545,144.7614 191.06803,120.63644 186.08061,96.511478 182,76.636267 182,76.469302 182,76.034875 191.76103,74 193.84492,74 c 1.48057,0 2.40239,3.387693 6.05442,22.25 2.36937,12.2375 13.46029,68.375 24.64649,124.75 C 245.84357,328.33404 247,334.31198 247,337.07237 c 0,1.18546 -1.14276,1.90758 -3.75,2.36966 -2.0625,0.36553 -4.46709,0.87359 -5.34354,1.12902 -1.26883,0.36978 -2.03613,-1.32214 -3.76561,-8.30332 z"
            id="path114" />
    <path
            style="fill:#f17a44"
            d="M 88.251079,305.69599 C 88.205838,305.03819 87.046606,300 85.675007,294.5 84.303409,289 80.400988,270.55 77.002962,253.5 73.604936,236.45 64.785143,193.05152 57.403422,157.05894 50.021701,121.06636 44.323637,91.315437 44.741056,90.945774 45.945058,89.87952 56.433372,88.087106 57.125865,88.829256 57.470092,89.198165 60.317318,102.775 63.453035,119 c 3.135717,16.225 11.718831,59.875 19.073588,97 12.644115,63.82438 16.462817,83.92734 16.470182,86.70469 0.0018,0.66257 -1.684305,1.50931 -3.746805,1.88162 -2.0625,0.37232 -4.4625,1.0434 -5.333333,1.4913 -1.008942,0.51893 -1.613174,0.38049 -1.665588,-0.38162 z m 20.042771,-10.13571 c -0.0217,-0.58315 -1.02143,-4.83202 -2.22157,-9.44193 -1.20015,-4.60991 -7.306669,-33.85991 -13.570047,-65 C 86.238856,189.97826 76.570491,142.26273 71.016978,115.08384 63.301648,77.32502 61.212749,65.486548 62.162016,64.899869 64.168134,63.66002 73.114429,62.709502 73.988624,63.643326 74.429708,64.114497 80.27433,92.625 86.976672,127 c 6.702342,34.375 15.704288,79.825 20.004318,101 8.03991,39.59153 12.56136,64.79098 11.76765,65.58469 -1.21996,1.21997 -10.4182,2.95811 -10.45479,1.97559 z m 94.815,-10.27403 c -0.54327,-2.08244 -1.71659,-6.65382 -2.60739,-10.15863 -0.8908,-3.50481 -5.38708,-25.32981 -9.99174,-48.5 -4.60465,-23.17019 -12.68724,-63.02094 -17.9613,-88.55722 -5.27407,-25.53629 -9.24253,-46.750735 -8.81882,-47.143222 1.28996,-1.194882 11.56906,-3.033519 12.3206,-2.203804 0.3869,0.427144 2.59357,10.676626 4.90371,22.776626 2.31013,12.1 10.06012,51.475 17.22218,87.5 7.16207,36.025 13.80523,70.36028 14.76259,76.30063 1.95533,12.13268 2.08574,11.80023 -5.14037,13.104 -3.62263,0.65361 -3.7228,0.587 -4.68946,-3.11838 z M 221.70859,270.3011 C 220.20875,263.8105 214.74083,237.35 209.55766,211.5 204.37448,185.65 196.05362,144.7614 191.06685,120.63644 186.08008,96.511478 182,76.636267 182,76.469302 182,76.037081 191.75595,74 193.82594,74 c 1.44633,0 2.34087,3.133182 5.49601,19.25 2.07268,10.5875 10.31621,52.325 18.31894,92.75 17.47377,88.26696 18.56418,94.55508 16.40665,94.61291 -0.85115,0.0228 -3.36204,0.36724 -5.57976,0.76539 l -4.03221,0.72391 z m -57.06136,8.99069 C 162.87666,273.12052 156.33479,241.78101 144.02522,180.5 136.2917,142 126.64474,94.38333 122.58753,74.685179 l -7.37674,-35.814821 2.23598,-0.850119 c 1.22979,-0.467565 4.27291,-1.155575 6.76249,-1.52891 l 4.5265,-0.678792 5.71416,29.343731 C 137.59271,81.295321 147.30447,130.5 156.03162,174.5 c 14.11905,71.1846 17.68719,89.87628 19.31047,101.1578 0.42642,2.9635 0.2299,3.19752 -3.19386,3.80332 -2.00653,0.35503 -4.39944,0.86533 -5.31758,1.13399 -1.02897,0.30109 -1.86655,-0.19888 -2.18342,-1.30332 z M 139.56679,265.83802 C 138.09206,259.60211 130.64235,223.45 123.01188,185.5 115.3814,147.55 104.43584,93.424611 98.688402,65.221358 86.945059,7.595583 87.138243,12.71382 96.658883,11.450863 l 5.004827,-0.663914 8.29158,42.356525 C 114.51566,76.439564 124.50403,126.775 132.15166,165 144.10582,224.75018 153,271.28123 153,274.0708 c 0,0.89418 -1.8315,1.52745 -7.12594,2.4639 l -3.62594,0.64133 z"
            id="path112" />
    <path
            style="fill:#f29724"
            d="m 88.251079,305.69599 c -0.04524,-0.6578 -1.220682,-5.73573 -2.612092,-11.28431 C 83.58751,286.23094 45,93.786845 45,91.736438 45,91.026427 55.979968,88.646635 56.563504,89.23017 57.663825,90.330491 99,298.24529 99,302.67942 c 0,0.67647 -1.6875,1.53458 -3.75,1.90689 -2.0625,0.37232 -4.4625,1.0434 -5.333333,1.4913 -1.008942,0.51893 -1.613174,0.38049 -1.665588,-0.38162 z M 108.26886,295.56028 C 108.2334,294.97713 106.83565,288.875 105.16274,282 102.42482,270.74819 62,68.717688 62,66.286242 62,65.419449 72.914616,62.554843 73.568507,63.250019 73.697831,63.387509 76.138581,75.2 78.992396,89.5 c 2.853815,14.3 12.075135,59.975 20.491822,101.5 14.897852,73.50079 20.186392,101.66272 19.264422,102.58469 -1.22408,1.22408 -10.42006,2.95766 -10.47978,1.97559 z m 94.81293,-10.27403 c -2.79825,-10.44013 -6.50764,-27.71996 -12.07148,-56.23375 -3.37496,-17.29612 -10.83294,-55.02638 -16.5733,-83.84502 C 168.69666,116.38884 164,92.434613 164,91.975871 c 0,-0.857602 10.85244,-3.456766 11.54433,-2.764873 0.21215,0.212147 3.54277,16.113962 7.40138,35.337362 3.8586,19.2234 11.76511,58.35164 17.57002,86.95164 5.8049,28.6 11.36652,57.08524 12.35916,63.30053 2.02574,12.684 2.17031,12.29658 -5.07658,13.6041 -3.6197,0.65308 -3.72418,0.584 -4.71652,-3.11838 z m 18.67986,-14.66811 C 218.49269,256.64275 182.7718,76.868468 183.19744,76.534123 c 0.49988,-0.392669 11.28318,-2.371613 11.54412,-2.118572 0.52396,0.50808 37.44306,184.776809 39.09324,195.120159 1.57495,9.87187 1.59741,11.04009 0.21292,11.0772 -0.85125,0.0228 -3.35955,0.36679 -5.57402,0.76439 l -4.0263,0.72291 z m -57.24449,8.18867 C 160.28248,261.02842 154.83266,234.65275 143.06828,175 135.31283,135.675 126.07377,89.1 122.53703,71.5 119.00028,53.9 116.4201,39.224073 116.80329,38.88683 c 0.38319,-0.337244 3.06652,-1.061441 5.96296,-1.609327 4.94171,-0.934764 5.29657,-0.86616 5.75814,1.11317 0.27053,1.16013 2.71242,13.359327 5.42642,27.109327 2.714,13.75 12.13101,60.55 20.9267,104 13.87327,68.53291 18.45184,92.28737 20.46144,106.1578 0.42948,2.96428 0.23394,3.19736 -3.19072,3.80332 -2.00653,0.35503 -4.42074,0.87209 -5.36492,1.14901 -1.18964,0.34892 -1.88538,-0.20472 -2.26615,-1.80332 z M 139.55514,265.83802 C 134.46358,244.40143 89.051232,14.548802 89.77539,13.879974 c 0.789109,-0.728817 10.52528,-2.912642 10.976,-2.46192 0.15225,0.152248 4.9761,23.632969 10.71968,52.17938 C 117.21465,92.143846 127.35352,142.275 134.00191,175 144.24137,225.40115 153,271.07546 153,274.0708 c 0,0.89418 -1.8315,1.52745 -7.12594,2.4639 l -3.62594,0.64133 z"
            id="path110" />
    <path
            style="fill:#f18725"
            d="M 76.529899,246.81895 C 74.865125,242.04815 45,95.092377 45,91.671406 45,91.010485 56.011385,88.678052 56.55678,89.223447 57.138095,89.804762 81.68699,211.73168 84.934577,230.16736 l 2.759927,15.66737 -3.597252,0.63595 c -1.978489,0.34978 -4.386969,0.86799 -5.352178,1.15159 -0.965209,0.2836 -1.962038,-0.0779 -2.215175,-0.80332 z M 192.54782,232.85667 C 192.24871,231.5605 191.07187,226.45 189.93262,221.5 187.7621,212.06915 164,93.367532 164,91.955696 c 0,-0.8439 10.86253,-3.426498 11.54433,-2.744698 0.21215,0.212147 3.52519,16.113962 7.36231,35.337362 3.83712,19.2234 8.58666,42.54011 10.55452,51.8149 5.31295,25.04066 10.64136,55.93875 9.78758,56.75574 -0.41181,0.39405 -2.86562,1.02649 -5.45292,1.40541 -4.37983,0.64143 -4.74167,0.52645 -5.248,-1.66774 z M 95.646911,232.29179 C 93.174032,223.67795 62,69.834569 62,66.244781 c 0,-0.835467 10.959984,-3.677474 11.54907,-2.994762 0.468859,0.543376 27.76632,137.000091 30.38724,151.902131 1.5376,8.74251 2.51845,16.04755 2.17966,16.23341 -0.33878,0.18586 -1.96597,0.64651 -3.61597,1.02367 -1.65,0.37716 -3.751207,0.90818 -4.669349,1.18005 -1.032025,0.30559 -1.865732,-0.18977 -2.18374,-1.29749 z M 209.13719,207.57234 c -5.0738,-23.21227 -26.35021,-130.71843 -25.93462,-131.043345 0.47665,-0.372664 11.27451,-2.369858 11.52141,-2.131026 0.46271,0.447585 24.38434,119.721511 26.86171,133.933181 1.42194,8.15713 2.28466,15.13183 1.91717,15.49933 -0.3675,0.36749 -2.81211,1.15103 -5.43248,1.74118 l -4.7643,1.07302 z m -57.50159,5.75028 C 149.12,204.91406 116.86973,45.890276 116.5987,40.558191 c -0.0805,-1.584121 0.96325,-2.157716 5.6664,-3.113924 5.51867,-1.122012 5.7863,-1.081753 6.26098,0.941809 0.27273,1.162658 2.25069,11.113924 4.39546,22.113924 2.14478,11 7.82231,39.125 12.61674,62.5 12.75162,62.16978 17.42839,88.25218 16.07527,89.65193 -0.61245,0.63356 -2.98535,1.45374 -5.27311,1.82262 -3.50242,0.56473 -4.24571,0.38274 -4.70484,-1.15193 z m -23.99299,-9.03083 C 123.98373,191.65245 88.799114,14.783349 89.765838,13.889526 c 0.795427,-0.735444 10.531262,-2.925761 10.985552,-2.471472 0.15225,0.152248 4.96993,23.632969 10.70596,52.17938 5.73603,28.546412 12.67904,62.927566 15.42892,76.402566 4.07805,19.9833 8.61786,44.13005 11.49761,61.15438 0.40394,2.38799 0.081,2.71952 -3.21744,3.30332 -2.01654,0.35692 -4.41765,0.86875 -5.33579,1.13741 -1.02822,0.30087 -1.86856,-0.19968 -2.18804,-1.30332 z"
            id="path108" />
    <path
            style="fill:#f07727"
            d="M 63.001544,180.7881 C 60.890689,171.80688 45,93.303217 45,91.856324 c 0,-0.811556 10.927174,-3.262483 11.59005,-2.599607 0.846097,0.846097 16.991514,82.959683 18.758044,95.401083 0.420572,2.96203 0.222188,3.19782 -3.199862,3.80332 -2.006528,0.35503 -4.394214,0.86367 -5.305969,1.1303 -1.361138,0.39805 -2.048311,-1.17702 -3.840719,-8.80332 z M 180.62343,174.25 C 178.03235,162.63124 164,93.339037 164,92.162951 164,91.184118 174.75754,88.424204 175.53652,89.203184 176.31204,89.978711 193,175.29442 193,178.48371 193,179.50985 185.65385,182 182.62665,182 c -0.1512,0 -1.05264,-3.4875 -2.00322,-7.75 z M 83.276185,170.56927 C 83.244753,169.98117 82.242537,165.45 81.049037,160.5 78.643275,150.52218 62,68.370733 62,66.473675 c 0,-0.995274 10.814163,-4.006533 11.576932,-3.223656 0.369035,0.378764 17.099378,84.894541 18.92765,95.615791 0.878422,5.1512 1.312049,9.65089 0.963616,9.99933 -1.333176,1.33317 -10.133199,2.80456 -10.192013,1.70413 z M 202.5757,170.12249 C 201.41169,168.23907 183,80.661126 183,77.00773 c 0,-0.630305 11.19379,-3.060092 11.76075,-2.552854 0.98084,0.877529 18.72833,93.434844 18.03379,94.050444 -0.82969,0.7354 -9.87875,2.16744 -10.21884,1.61717 z m -63.9595,-21.8307 c -2.81384,-9.24931 -22.64589,-108.676853 -21.82117,-109.399989 0.38773,-0.339978 3.07478,-1.066412 5.97122,-1.614298 4.9448,-0.935349 5.29477,-0.867399 5.73325,1.11317 1.67035,7.54462 16.80702,84.213097 18.46649,93.534217 2.75563,15.47821 2.73383,15.77535 -1.21599,16.57031 -1.7875,0.35976 -4.00121,0.86432 -4.91935,1.12125 -1.01231,0.28327 -1.88389,-0.23809 -2.21445,-1.32466 z M 113.0366,131.08097 C 108.75417,114.92946 88.846957,14.741196 89.753363,13.902 c 0.802962,-0.743421 10.538887,-2.943084 10.997317,-2.484652 0.4219,0.421896 18.83391,92.738952 21.52724,107.936662 l 2.37037,13.37533 -5.33112,0.9663 -5.33111,0.9663 z"
            id="path106" />
    <path
            style="fill:#f06928"
            d="M 54.46969,136.62203 C 53.527232,133.7588 45,93.542434 45,91.960819 c 0,-0.941467 10.898705,-3.395447 11.667147,-2.627005 0.569294,0.569293 8.320059,42.249556 8.327868,44.783676 0.0062,2.0031 -9.913431,4.3635 -10.525325,2.50454 z m 118.07173,-4.54461 C 171.63029,129.10673 164,93.663323 164,92.401708 c 0,-1.181341 10.64447,-4.090571 11.57224,-3.162798 0.50515,0.505151 1.69999,6.538419 5.32203,26.87333 l 2.78084,15.61223 -5.32494,0.96519 c -4.52913,0.82093 -5.39725,0.72943 -5.80875,-0.61224 z M 188.21193,102.25 c -2.24494,-10.3125 -4.3708,-20.355952 -4.72412,-22.318783 l -0.6424,-3.568784 5.8273,-1.070419 c 3.20501,-0.58873 5.97932,-0.930748 6.16513,-0.760041 0.31564,0.28998 8.14629,42.178477 8.15718,43.635167 0.004,0.50337 -8.54612,2.83286 -10.39742,2.83286 -0.16718,0 -2.14073,-8.4375 -4.38567,-18.75 z M 67.642028,94.259693 C 60.845562,62.937448 61.01175,65.403207 65.64055,64.563549 c 2.122697,-0.385055 4.809098,-0.927384 5.969779,-1.205177 1.741198,-0.416731 2.229288,0.07623 2.790416,2.818275 1.135864,5.550593 8.589342,46.278033 8.594469,46.962063 0.0026,0.35129 -1.682714,0.93778 -3.745214,1.30332 -2.0625,0.36553 -4.455699,0.86997 -5.318219,1.12098 -1.295784,0.37709 -2.388459,-3.32379 -6.289753,-21.303317 z m 59.345142,-3.15358 c -0.007,-0.333362 -2.48287,-12.057804 -5.5018,-26.054316 -3.01893,-13.996511 -5.15066,-25.747438 -4.73717,-26.11317 0.41349,-0.365732 3.1051,-1.109973 5.98136,-1.653869 4.4856,-0.848219 5.29437,-0.760988 5.6851,0.61317 1.00988,3.551637 9.66004,51.379733 9.33595,51.619904 -0.83879,0.621593 -10.75294,2.084549 -10.76344,1.588281 z M 100.6362,69.087811 C 100.33429,67.664515 97.567144,54.847993 94.486985,40.606652 91.406826,26.36531 89.24969,14.375224 89.693348,13.962015 90.493973,13.216341 100.2585,10.925168 100.7103,11.37697 c 0.67101,0.671011 11.49828,57.818095 11.0195,58.161673 -0.12639,0.0907 -2.55065,0.608621 -5.38724,1.150941 -5.06725,0.968795 -5.16703,0.940786 -5.70636,-1.601773 z"
            id="path104" />
</svg>
