<?xml version="1.0" encoding="utf-8"?>
<!-- Generator: Adobe Illustrator 24.1.3, SVG Export Plug-In . SVG Version: 6.00 Build 0)  -->
<svg version="1.1" id="Layer_1" xmlns="http://www.w3.org/2000/svg" xmlns:xlink="http://www.w3.org/1999/xlink" x="0px" y="0px"
	 viewBox="0 0 50 50" style="enable-background:new 0 0 50 50;" xml:space="preserve">
<style type="text/css">
	.st0{fill:#E6532B;}
</style>
<path id="path4486" class="st0" d="M25.0002213,0.000441C11.1935625,0.000441,0,11.1926794,0,24.9997787
	c0,13.8066597,11.1935625,24.9997787,25.0002213,24.9997787S50,38.8064384,50,24.9997787
	C50,11.1926804,38.8064384,0.0004409,25.0002213,0.000441z M25.0002213,46.7895508
	c-3.9282475,0-7.1131096-2.6241264-7.1131096-5.8601646h14.2262192
	C32.1133308,44.1649818,28.9284668,46.7895508,25.0002213,46.7895508z M36.7487831,38.9886436H13.2503328v-4.2608948h23.4988937
	v4.2608948H36.7487831z M36.6645203,32.5346565H13.3173923c-0.0776472-0.0895615-0.1570597-0.1777954-0.2320595-0.2686768
	c-2.4053011-2.9206009-2.9717741-4.4453087-3.5219221-5.9991379c-0.0092649-0.051178,2.916626,0.5977955,4.9914856,1.0645599
	c0,0,1.0676508,0.2470608,2.6285372,0.53162c-1.4986811-1.7567692-2.3885374-3.9900112-2.3885374-6.2726669
	c0-5.0113373,3.8435411-9.3904676,2.4569197-12.9300375c1.3495636,0.1098537,2.7930965,2.8482437,2.8905964,7.1298733
	c1.4347095-1.9826527,2.0351524-5.6033993,2.0351524-7.8234057c0-2.2985363,1.5145626-4.968544,3.0295677-5.0598679
	c-1.3504467,2.2257419,0.3498535,4.1338353,1.8613281,8.8672333c0.5669136,1.7779465,0.4945583,4.7700129,0.9322071,6.6675196
	c0.1451511-3.9410391,0.8227997-9.69135,3.3229542-11.6766491c-1.1029453,2.500154,0.1632366,5.6285453,1.0292683,7.1325212
	c1.3972092,2.4264774,2.2442703,4.2648659,2.2442703,7.741787c0,2.3311844-0.8607368,4.5260429-2.3126526,6.2417831
	c1.6508865-0.3097076,2.7908897-0.5889721,2.7908897-0.5889721l5.3611908-1.046032
	C40.4370308,26.2456665,39.6579094,29.4494972,36.6645203,32.5346565z"/>
</svg>
