<?xml version="1.0" encoding="utf-8"?>
<!-- Generator: Adobe Illustrator 24.1.3, SVG Export Plug-In . SVG Version: 6.00 Build 0)  -->
<svg version="1.1" id="Layer_1" xmlns="http://www.w3.org/2000/svg" xmlns:xlink="http://www.w3.org/1999/xlink" x="0px" y="0px"
	 viewBox="0 0 50 50" style="enable-background:new 0 0 50 50;" xml:space="preserve">
<style type="text/css">
	.st0{fill:url(#SVGID_1_);}
</style>
<linearGradient id="SVGID_1_" gradientUnits="userSpaceOnUse" x1="-386.3835144" y1="273.4660339" x2="-386.3835144" y2="290.3613586" gradientTransform="matrix(2.703872 0 0 -2.703872 1069.7315674 800.664917)">
	<stop  offset="0" style="stop-color:#FFF200"/>
	<stop  offset="1" style="stop-color:#F15A29"/>
</linearGradient>
<path class="st0" d="M47.956646,22.0635929c-0.0757103-0.8381996-0.2217216-1.811594-0.5029221-2.8769188
	c-0.275795-1.0653267-0.6921921-2.2333984-1.29245-3.4447327c-0.6056709-1.2113342-1.3897896-2.4713383-2.417263-3.6880808
	c-0.4001694-0.4758806-0.8327942-0.9517632-1.3086739-1.4060135c0.7030106-2.7958035-0.8598289-5.218472-0.8598289-5.218472
	c-2.693058-0.1676407-4.4019012,0.8327923-5.0346069,1.2924509c-0.1081581-0.043262-0.2109032-0.0919318-0.3190575-0.1351938
	c-0.4596596-0.1838632-0.9301338-0.3569112-1.4114227-0.5137353c-0.4812889-0.1514168-0.9788017-0.2920184-1.4817238-0.4109888
	c-0.5083275-0.1189704-1.0220604-0.2163095-1.5466137-0.2974262c-0.0919304-0.016223-0.1838627-0.0270386-0.2757931-0.0378537
	C30.3273983,1.5682456,26.9583759,0,26.9583759,0c-3.7583828,2.3848147-4.4722042,5.7159848-4.4722042,5.7159848
	s-0.0162239,0.0757084-0.0378551,0.1946783c-0.2054939,0.059485-0.4163952,0.1189709-0.621891,0.1838636
	c-0.2866096,0.0865235-0.5732212,0.1946783-0.8598309,0.2974257c-0.2866096,0.1135626-0.5732212,0.2217174-0.8544254,0.346096
	c-0.567812,0.2433481-1.1302185,0.5191431-1.6763992,0.8273845c-0.535368,0.2974262-1.054512,0.6272979-1.5682468,0.9842095
	c-0.0757065-0.0324469-0.1297855-0.0594854-0.1297855-0.0594854c-5.2022495-1.9900498-9.8258696,0.4055815-9.8258696,0.4055815
	c-0.4218035,5.537529,2.0765734,9.0201168,2.5740862,9.6582298c-0.1243782,0.3406887-0.2379408,0.6867847-0.346096,1.0382862
	C8.755909,20.8468513,8.4692984,22.133894,8.290843,23.4641991c-0.0270386,0.18927-0.0486698,0.3839493-0.0703011,0.5786285
	c-4.8128901,2.3685913-6.2351265,7.2355614-6.2351265,7.2355614c4.0125456,4.6128044,8.6902437,4.8994141,8.6902437,4.8994141
	c0.0054083-0.0054054,0.0108156-0.0054054,0.0108156-0.0108109c0.5948524,1.0599174,1.2816353,2.071167,2.0549421,3.0121117
	c0.3244648,0.3947678,0.6651525,0.7733078,1.0166559,1.1410332c-1.4654999,4.1855927,0.205493,7.6681824,0.205493,7.6681824
	c4.4667969,0.1676369,7.4032001-1.952198,8.0196838-2.4442978c0.4434338,0.1514168,0.8976841,0.2866096,1.3519344,0.4001694
	c1.3735676,0.3515053,2.7795811,0.5624084,4.1855927,0.621891c0.3515053,0.0162239,0.7030067,0.0216331,1.0545101,0.0216331
	h0.1676407l0.1135635-0.0054092l0.2217159-0.0054092l0.2163105-0.0108147l0.0054073,0.0054092
	C31.4035378,49.5727921,35.1078415,50,35.1078415,50c2.6335716-2.7741699,2.7849884-5.5267143,2.7849884-6.126976l0,0
	c0,0,0-0.0216293,0-0.0378532c0-0.0486679,0-0.0811157,0-0.0811157l0,0c0-0.0432625-0.0054092-0.0811157-0.0054092-0.124382
	c0.5515862-0.3893547,1.0815468-0.8057518,1.5790596-1.2491875c1.0545082-0.9517632,1.9738274-2.0387154,2.7363167-3.2067909
	c0.0703011-0.1081543,0.1406021-0.2217178,0.2109032-0.3352814c2.9796677,0.1730461,5.0778694-1.8440437,5.0778694-1.8440437
	c-0.4921074-3.1040421-2.260437-4.6182137-2.6335716-4.9048233l0,0c0,0-0.0162239-0.0108147-0.0378532-0.0270348
	c-0.0216331-0.0162239-0.0324478-0.0270386-0.0324478-0.0270386l0,0c-0.0216293-0.0108185-0.0432625-0.0270386-0.0648918-0.0432644
	c0.0162201-0.18927,0.032444-0.3731327,0.0432625-0.5624065c0.0216293-0.3352795,0.032444-0.6705608,0.032444-1.0004311v-0.2487564
	v-0.1243763v-0.0648937c0-0.0865231,0-0.0540752,0-0.0865231l-0.0108147-0.2054958l-0.0162201-0.2812023
	c-0.0054092-0.0973396-0.0108147-0.1838627-0.0216331-0.2703876c-0.0054092-0.0865231-0.0162239-0.1730461-0.0270386-0.2595711
	l-0.0324478-0.2595711l-0.0378532-0.2541656c-0.0486679-0.3406868-0.1135635-0.6813736-0.1946793-1.016655
	c-0.3136482-1.3357143-0.8327942-2.6065331-1.5249825-3.7475662c-0.6921921-1.1410351-1.5466156-2.1522827-2.5146027-3.0067062
	c-0.9679871-0.8544254-2.0495338-1.5412064-3.190567-2.0495358c-1.1356277-0.5137367-2.3307419-0.8381996-3.520443-0.9896183
	c-0.5948524-0.0757084-1.1897049-0.1081543-1.7737408-0.102747l-0.2217159,0.0054073h-0.0540771
	c-0.0162239,0-0.0811176,0-0.0757084,0L31.490057,17.472414l-0.2163105,0.016222
	c-0.0811176,0.0054073-0.1676407,0.0108166-0.2433491,0.0216312c-0.3028355,0.0270386-0.6002598,0.0703011-0.897686,0.1243782
	c-1.1788883,0.2217178-2.2928829,0.6489296-3.277092,1.2329655c-0.9842091,0.5894432-1.8332253,1.3248978-2.5308247,2.1522808
	c-0.6921902,0.8327942-1.2329655,1.7521095-1.6006927,2.7038727c-0.3731327,0.9517612-0.5786266,1.9359722-0.638113,2.8931408
	c-0.016222,0.2379398-0.0216312,0.4758835-0.016222,0.7138233c0,0.0594845,0,0.1189709,0.0054054,0.1784554l0.0054073,0.18927
	c0.0108166,0.1135635,0.016222,0.2271252,0.0270386,0.3406887c0.0486698,0.4866982,0.1351929,0.9463558,0.2649803,1.3951969
	c0.2595711,0.897686,0.6759682,1.7034397,1.1897049,2.3956299c0.5137348,0.6921902,1.1248093,1.2600079,1.7737389,1.7034397
	c0.6489296,0.4434357,1.346529,0.7624931,2.0333099,0.9679871c0.6867847,0.2054939,1.3735676,0.2920189,2.0224972,0.2866096
	c0.0811176,0,0.1622314,0,0.2379398-0.0054092c0.0432625,0,0.0865231-0.0054092,0.1297874-0.0054092
	c0.0432625,0,0.0865231-0.0054092,0.1297855-0.0054092c0.0703011-0.0054054,0.1351948-0.0162201,0.2054958-0.0216293
	c0.016222,0,0.0378532-0.0054092,0.0594845-0.0054092l0.0648937-0.0108147
	c0.0432625-0.0054092,0.0811157-0.0108109,0.1243763-0.0162201c0.086525-0.0108147,0.156826-0.0270424,0.2325344-0.0432625
	c0.0757084-0.0162239,0.1514149-0.0270424,0.2271233-0.0486679c0.1460094-0.0324478,0.2920189-0.0757103,0.4326191-0.1189728
	c0.2812042-0.0919304,0.5461826-0.2054939,0.7895317-0.3298721c0.2433472-0.1243782,0.4704704-0.2703896,0.6813736-0.4163971
	c0.0594864-0.0432625,0.1189728-0.086525,0.1784554-0.1351929c0.2271271-0.1784554,0.2595711-0.5083275,0.0811195-0.7300453
	c-0.156826-0.1946793-0.4272118-0.2433472-0.6435204-0.1243782c-0.0540771,0.0270386-0.1081581,0.0594864-0.1622353,0.086525
	c-0.1892681,0.0919304-0.3839474,0.1730461-0.5894432,0.2433472c-0.2109013,0.0648918-0.4272118,0.1189728-0.6489296,0.156826
	c-0.1135616,0.0162239-0.2271233,0.0324478-0.3406868,0.0432625c-0.0594864,0.0054092-0.1135635,0.0108147-0.173048,0.0108147
	c-0.0594864,0-0.1189709,0.0054092-0.173048,0.0054092s-0.1135616,0-0.1676407-0.0054092
	c-0.0703011-0.0054054-0.1406002-0.0054054-0.2109013-0.0108147c0,0-0.0378551,0-0.0054073,0h-0.0216312l-0.0486603,0.0108223
	c-0.0324459-0.0054054-0.0648918-0.0054054-0.0919304-0.0108147c-0.0648918-0.0054092-0.1243782-0.0162239-0.18927-0.0216331
	c-0.5029202-0.0703011-1.0166569-0.2163086-1.5087605-0.4434357c-0.4921055-0.221714-0.9679871-0.5299568-1.3897896-0.9139061
	c-0.4272137-0.3839493-0.8003464-0.8436089-1.086956-1.362751c-0.2920189-0.5191441-0.4975109-1.0977726-0.5894451-1.708847
	c-0.0486698-0.3028355-0.0703011-0.6164837-0.0594845-0.9247246c0.0054073-0.0865231,0.0054073-0.1676407,0.0108147-0.2541637
	c0,0.0216312,0-0.0108166,0-0.0162239v-0.0324459l0.0054073-0.0648937c0.0054073-0.0432625,0.0054073-0.0811157,0.0108166-0.1243763
	c0.016222-0.1676407,0.0432625-0.3352795,0.0703011-0.4975128c0.2325325-1.3248959,0.8922787-2.6119385,1.9197483-3.5961494
	c0.2541637-0.2433491,0.5299587-0.4704723,0.827383-0.6759682c0.2974262-0.2000866,0.6056671-0.3785419,0.9355412-0.5299587
	c0.3244629-0.1514168,0.6651516-0.2703876,1.016655-0.3677273c0.3515053-0.0919304,0.708416-0.1568241,1.070734-0.18927
	c0.1838627-0.016222,0.362318-0.0216312,0.5461807-0.0216312c0.0486698,0,0.0865231,0,0.1243782,0l0.1460094,0.0054073
	l0.0919304,0.0054073c0.0378532,0,0,0,0.016222,0h0.0378551l0.1460075,0.0108147
	c0.3947659,0.0324478,0.7895298,0.086525,1.1734791,0.173048c0.7733078,0.173048,1.5303917,0.4596577,2.2333984,0.8490162
	c1.4060173,0.7787132,2.6011276,1.9954567,3.3365784,3.4609566c0.3731384,0.7300434,0.6273003,1.519577,0.7570877,2.3307381
	c0.032444,0.2054939,0.0540771,0.4109879,0.0702972,0.6164818l0.0108147,0.156826l0.0054092,0.1568241
	c0.0054092,0.0540771,0.0054092,0.102747,0.0054092,0.156826c0,0.0486698,0.0054092,0.1081543,0,0.1460094v0.1351929
	l-0.0054092,0.1514168c-0.0054092,0.1027451-0.0108147,0.2649803-0.0162239,0.362318
	c-0.0162201,0.2271233-0.0378532,0.448843-0.0648918,0.6705608c-0.0270424,0.2217159-0.0648956,0.4434338-0.1027489,0.6597443
	c-0.0432625,0.2163105-0.0919304,0.4380283-0.1460075,0.6543369c-0.1081543,0.432621-0.2487564,0.8598328-0.4109917,1.276226
	c-0.3298721,0.8327942-0.7678986,1.6223259-1.2978592,2.3577766c-1.0599174,1.4600906-2.5091934,2.6497955-4.1585541,3.401474
	c-0.8219757,0.3731346-1.6926231,0.6435204-2.5848999,0.7949371c-0.4434338,0.0757103-0.897686,0.1189728-1.3519363,0.1351929
	l-0.0811157,0.0054092h-0.0703011h-0.1460094h-0.2217178h-0.1135616c0.0594845,0-0.0108166,0-0.0054073,0H28.613142
	c-0.2433491-0.0054092-0.4866982-0.0162201-0.724638-0.0378532c-0.9679871-0.0702972-1.9197483-0.2433472-2.8498821-0.5137329
	c-0.9247227-0.2649803-1.8278179-0.6273003-2.6768322-1.0815506c-1.6980324-0.9085007-3.2176075-2.1522827-4.4073105-3.6556358
	c-0.6002598-0.7462692-1.1194038-1.552021-1.5520229-2.3956299c-0.43262-0.8436089-0.7679005-1.7304783-1.0220642-2.638979
	c-0.2487555-0.9085007-0.4055805-1.8332253-0.465066-2.7687645l-0.0108156-0.173048l-0.0054083-0.0432625V26.881897v-0.0757084
	l-0.0054073-0.1514168v-0.0378532v-0.0540771v-0.1081543l-0.0054083-0.2163105v-0.0432644c0,0.0054073,0,0.0054073,0-0.016222
	v-0.0865231c0-0.1135635,0.0054083-0.2271252,0.0054083-0.3406887c0.016223-0.4596577,0.0540771-0.9355392,0.1135616-1.4114208
	c0.0594854-0.4758835,0.1406021-0.9517632,0.2379417-1.4222374c0.0973387-0.4704742,0.2109013-0.9409485,0.3460951-1.4006062
	c0.2649794-0.9247246,0.5948524-1.8170033,0.9842091-2.6606102c0.7787151-1.6872158,1.8061867-3.1797543,3.0337429-4.3748655
	c0.3082409-0.2974253,0.6272984-0.5840359,0.9571705-0.8490152c0.329874-0.2649794,0.6759682-0.5137367,1.0274734-0.7408619
	c0.3515034-0.2325325,0.7138214-0.4434347,1.0923634-0.638114c0.1838646-0.102747,0.3785419-0.189271,0.5678139-0.2812023
	c0.0973396-0.0432625,0.1946774-0.086524,0.2866096-0.1297855c0.0973396-0.0432625,0.1946793-0.086524,0.292017-0.1243782
	c0.3893585-0.1622314,0.7895317-0.3028336,1.1951122-0.4326191c0.1027451-0.0324459,0.2054939-0.0594854,0.3028336-0.0919313
	c0.102747-0.0324469,0.2054958-0.0540781,0.3082409-0.086524c0.2054958-0.0594854,0.4109879-0.1081553,0.6164837-0.1568251
	c0.1027451-0.0270386,0.2109013-0.0432615,0.3136501-0.0703001c0.1027451-0.0216312,0.2054939-0.0432625,0.3136501-0.0648937
	c0.1027451-0.0216312,0.2109013-0.0378542,0.3136501-0.0594854l0.1568241-0.0270386l0.156826-0.0216312
	c0.1081543-0.0162239,0.2109013-0.0324459,0.3190556-0.0486698c0.1189709-0.0216312,0.2379398-0.0270386,0.3569126-0.0486698
	c0.0973377-0.0108156,0.2595711-0.0324459,0.3515034-0.0432615c0.0757084-0.0054083,0.1514168-0.0162239,0.2217178-0.0216312
	l0.1514149-0.0162239l0.0757084-0.0054083l0.086525-0.0054073c0.1189709-0.0054083,0.2379398-0.0162239,0.3569107-0.0216312
	l0.1784554-0.0108166c0,0,0.0648937,0,0.0108166,0h0.0378532l0.0757084-0.0054073
	c0.102747-0.0054083,0.2054958-0.0108156,0.3028355-0.0162239c0.4055805-0.0108156,0.811161-0.0108156,1.2113342,0
	c0.8003464,0.0324459,1.5844688,0.1189699,2.346962,0.259572c1.5249825,0.2866106,2.968853,0.7733068,4.2667122,1.4168291
	c1.3032684,0.638114,2.4713364,1.4222364,3.4825859,2.2712526c0.0648956,0.0540771,0.124382,0.1081553,0.18927,0.1622314
	c0.0594864,0.0540781,0.124382,0.1081553,0.1838608,0.1622324c0.124382,0.1081553,0.2379417,0.2217169,0.3569145,0.3298721
	s0.2325325,0.2217178,0.346096,0.3352804c0.1081505,0.1135626,0.2217178,0.2217178,0.3298721,0.3406878
	c0.432621,0.4542503,0.8273849,0.9139099,1.1842957,1.3789749c0.7192307,0.9247227,1.29245,1.8602619,1.7521095,2.7417259
	c0.0270386,0.0540752,0.0594864,0.1081543,0.086525,0.1622314c0.0270424,0.0540771,0.0540771,0.1081543,0.0811157,0.1622314
	c0.0540771,0.1081562,0.1081543,0.2163105,0.156826,0.3244648c0.0486679,0.1081543,0.1027489,0.2109013,0.1460075,0.3190556
	c0.0486679,0.1081562,0.0919304,0.2109013,0.1351929,0.3136501c0.1730499,0.4109879,0.3298721,0.8057556,0.4542503,1.1788883
	c0.2108994,0.6002598,0.3623161,1.1410351,0.4812889,1.6115074c0.0486679,0.18927,0.2271233,0.3136501,0.4218025,0.2974262
	c0.2000885-0.0162239,0.3569145-0.1838646,0.3569145-0.3839493C48.0269432,23.3344135,48.0107193,22.7395611,47.956646,22.0635929z"
	/>
</svg>
