<?xml version="1.0" encoding="utf-8"?>
<!-- Generator: Adobe Illustrator 24.1.3, SVG Export Plug-In . SVG Version: 6.00 Build 0)  -->
<svg version="1.1" id="Layer_1" xmlns="http://www.w3.org/2000/svg" xmlns:xlink="http://www.w3.org/1999/xlink" x="0px" y="0px"
	 viewBox="0 0 50 50" style="enable-background:new 0 0 50 50;" xml:space="preserve">
<style type="text/css">
	.st0{fill:#5F234A;}
</style>
<g>
	<path class="st0" d="M0.8139431,18.4582138c0.1919888,1.3042736,1.1830294,2.3471489,2.4758589,2.6053295l12.9171371,2.5789566
		l1.7600613,10.8295612c0.1609497,3.3265152,2.9028168,5.94207,6.2332172,5.9460526h1.5993042
		c3.3164616-0.0040588,6.0519295-2.5984955,6.231369-5.9101028l1.9862328-10.8732414
		c0.0023422-0.0127029,0.0028191-0.0252895,0.0050087-0.0379906l12.6881294-2.5332355
		c1.2928085-0.2581806,2.2838516-1.3010559,2.4758568-2.6053295l0.7806015-5.3039322
		c0.2491722-1.7029915-0.9277229-3.2860889-2.6302948-3.5381002c-1.7045517-0.2523165-3.2909088,0.924962-3.5432053,2.6295147
		l-0.4603767,3.1291199l-18.3328114,3.6601439L6.6672006,15.3748159l-0.4603767-3.1291008
		C5.9549265,10.5429144,4.3715811,9.3658457,2.668438,9.6152105c-1.7049524,0.2496119-2.8847444,1.8341188-2.6351132,3.5390711
		L0.8139431,18.4582138z M24.3891411,25.2761002c0.201149,0.040123,0.4057617,0.0603275,0.6108913,0.0603275
		c0.2051086,0,0.4097233-0.0202045,0.6108894-0.0603275l1.8300819-0.3653736l-1.5905991,8.7066975
		c-0.0338211,0.1850166-0.0508633,0.3727036-0.0508823,0.5607681h-1.5992851
		c0.0000572-0.1676903-0.0134811-0.3350945-0.0405235-0.5005951l-1.4191399-8.7306328L24.3891411,25.2761002z"/>
</g>
</svg>
