<?xml version="1.0" encoding="utf-8"?>
<svg xmlns="http://www.w3.org/2000/svg" viewBox="0 0 112.47 49.68">
  <defs>
    <style>.cls-1{fill:#3C4044;}.cls-2{fill:#3588c8;}</style>
  </defs>
  <title>Rio-logo</title>
  <g id="Layer_2" data-name="Layer 2">
    <g id="Layer_1-2" data-name="Layer 1">
      <path class="cls-1" d="M19.8,33.41H14.54V48.82H0V.79H25.63c11.24,0,17.29,7.49,17.29,16.49,0,8.28-4.83,12.68-8.65,14.55l8.72,17H26.43Zm3.6-20.52H14.54v8.42H23.4c2.45,0,4.75-1.58,4.75-4.24S25.85,12.89,23.4,12.89Z" />
      <path class="cls-2" d="M44.06.79H59.47L57.67,31H46Zm7.78,33.49A7.67,7.67,0,1,1,44.21,42,7.73,7.73,0,0,1,51.84,34.28Z" />
      <path class="cls-1" d="M86.18,0C101,0,112.47,10.08,112.47,24.84S101,49.68,86.18,49.68,59.9,39.6,59.9,24.84,71.35,0,86.18,0Zm0,12.82c-7,0-11.52,5.33-11.52,12s4.54,12,11.52,12,11.53-5.33,11.53-12S93.17,12.82,86.18,12.82Z" />
    </g>
  </g>
</svg>
