<?xml version="1.0" encoding="utf-8"?>
<!-- Generator: Adobe Illustrator 23.0.6, SVG Export Plug-In . SVG Version: 6.00 Build 0)  -->
<svg version="1.1" id="Layer_1" xmlns="http://www.w3.org/2000/svg" xmlns:xlink="http://www.w3.org/1999/xlink" x="0px" y="0px"
	 viewBox="0 0 683.748291 625.0234985" style="enable-background:new 0 0 683.748291 625.0234985;" xml:space="preserve">
<style type="text/css">
	.st0{fill:#94DE90;}
	.st1{fill:#2E729D;}
	.st2{fill:#FFFFFF;}
	.st3{fill:#54C0EF;}
	.st4{fill:#2C3E50;}
	.st5{fill:#67BB7D;}
	.st6{fill:#0D8F85;}
	.st7{fill:#54BFEE;}
	.st8{fill:#3D98D3;}
	.st9{fill:#065667;}
	.st10{fill:none;stroke:#065667;stroke-linecap:round;stroke-linejoin:round;stroke-miterlimit:10;}
	.st11{fill:#0D8E84;}
</style>
<g>
	<path class="st0" d="M87.5,569.7834473c0,16.5685425-13.4314575,30-30,30s-30-13.4314575-30-30s13.4314575-70,30-70
		S87.5,553.2149048,87.5,569.7834473z"/>
	<path class="st0" d="M148,589.1834717c0,14.083252-11.4167328,25.5-25.5,25.5s-25.5-11.416748-25.5-25.5s11.4167404-65.5,25.5-65.5
		S148,575.1002197,148,589.1834717z"/>
	<g>
		<polygon class="st1" points="682.4337158,621.4345093 682.4337158,377.2519226 659.6994629,377.2519226 659.6994629,354.5177002 
			636.965271,354.5177002 636.965271,331.7834473 573.8145752,331.7834473 573.8145752,354.5177002 572.9725952,354.5177002 
			551.0803223,354.5177002 551.0803223,377.2519226 528.3461304,377.2519226 528.3461304,621.4345093 		"/>
	</g>
	<g>
		<g>
			<polygon class="st2" points="528.3461304,621.4345093 642.017334,621.4345093 642.017334,377.2519226 619.2830811,377.2519226 
				619.2830811,354.5177002 596.5488281,354.5177002 596.5488281,331.7834473 573.8145752,331.7834473 573.8145752,354.5177002 
				572.9725952,354.5177002 551.0803223,354.5177002 551.0803223,377.2519226 528.3461304,377.2519226 			"/>
		</g>
	</g>
	<g>
		<rect x="539.2922363" y="387.3560486" class="st3" width="91.7789688" height="13.8789129"/>
	</g>
	<g>
		<rect x="539.2922363" y="406.3753052" class="st3" width="91.7789688" height="13.8789129"/>
	</g>
	<g>
		<rect x="539.2922363" y="425.3945312" class="st3" width="91.7789688" height="13.8789129"/>
	</g>
	<g>
		<rect x="539.2922363" y="444.4137878" class="st3" width="91.7789688" height="13.8789129"/>
	</g>
	<g>
		<rect x="539.2922363" y="463.4330444" class="st3" width="91.7789688" height="13.8789129"/>
	</g>
	<g>
		<rect x="539.2922363" y="482.452301" class="st3" width="91.7789688" height="13.8789129"/>
	</g>
	<g>
		<rect x="539.2922363" y="501.4715576" class="st3" width="91.7789688" height="13.8789129"/>
	</g>
	<g>
		<rect x="539.2922363" y="520.5324707" class="st3" width="91.7789688" height="13.8789129"/>
	</g>
	<g>
		<rect x="539.2922363" y="539.5516968" class="st3" width="91.7789688" height="13.8789129"/>
	</g>
	<g>
		<rect x="539.2922363" y="558.5709839" class="st3" width="91.7789688" height="13.8789129"/>
	</g>
	<g>
		<rect x="539.2922363" y="577.59021" class="st3" width="91.7789688" height="13.8789129"/>
	</g>
	<g>
		<rect x="539.2922363" y="596.6094971" class="st3" width="91.7789688" height="13.8789129"/>
	</g>
	<g>
		<rect x="651.2794189" y="387.3560486" class="st4" width="24.4182568" height="13.8789129"/>
	</g>
	<g>
		<rect x="651.2794189" y="406.3753052" class="st4" width="24.4182568" height="13.8789129"/>
	</g>
	<g>
		<rect x="651.2794189" y="425.3945312" class="st4" width="24.4182568" height="13.8789129"/>
	</g>
	<g>
		<rect x="651.2794189" y="444.4137878" class="st4" width="24.4182568" height="13.8789129"/>
	</g>
	<g>
		<rect x="651.2794189" y="463.4330444" class="st4" width="24.4182568" height="13.8789129"/>
	</g>
	<g>
		<rect x="651.2794189" y="482.452301" class="st4" width="24.4182568" height="13.8789129"/>
	</g>
	<g>
		<rect x="651.2794189" y="501.4715576" class="st4" width="24.4182568" height="13.8789129"/>
	</g>
	<g>
		<rect x="651.2794189" y="520.5324707" class="st4" width="24.4182568" height="13.8789129"/>
	</g>
	<g>
		<rect x="651.2794189" y="539.5516968" class="st4" width="24.4182568" height="13.8789129"/>
	</g>
	<g>
		<rect x="651.2794189" y="558.5709839" class="st4" width="24.4182568" height="13.8789129"/>
	</g>
	<g>
		<rect x="651.2794189" y="577.59021" class="st4" width="24.4182568" height="13.8789129"/>
	</g>
	<g>
		<rect x="651.2794189" y="596.6094971" class="st4" width="24.4182568" height="13.8789129"/>
	</g>
	<rect x="55.5000877" y="549.7832642" class="st5" width="4" height="71"/>
	<rect x="88.1758118" y="438.8856201" class="st6" width="4" height="18"/>
	<rect x="120.5000916" y="579.7832642" class="st5" width="4" height="41"/>
	<path class="st7" d="M267.2408142,625.0234985c-2.347168,0-4.25-1.9023438-4.25-4.25c0-21.5048828,17.4951172-39,39-39h79.4775391
		c71.9580078,0,130.5-58.5419922,130.5-130.5s-58.5419922-130.5-130.5-130.5h-79.4775391c-21.5048828,0-39-17.4951172-39-39
		c0-2.3476562,1.902832-4.25,4.25-4.25s4.25,1.9023438,4.25,4.25c0,16.8173828,13.6821289,30.5,30.5,30.5h79.4775391
		c76.6450195,0,138.9999695,62.3554688,138.9999695,139s-62.35495,139-138.9999695,139h-79.4775391
		c-16.8178711,0-30.5,13.6826172-30.5,30.5C271.4908142,623.1211548,269.5879822,625.0234985,267.2408142,625.0234985z"/>
	<path class="st7" d="M254.8243103,620.7734985c0-26.0078125,21.1586914-47.1660156,47.1665039-47.1660156h79.4775391
		c67.4550781,0,122.3334961-54.8789062,122.3334961-122.3339844s-54.878418-122.3330078-122.3334961-122.3330078h-79.4775391
		c-26.0078125,0-47.1665039-21.1591797-47.1665039-47.1669922c0-2.3476562-1.902832-4.25-4.25-4.25s-4.25,1.9023438-4.25,4.25
		c0,30.6953125,24.9716797,55.6669922,55.6665039,55.6669922h79.4775391
		c62.7680664,0,113.8334961,51.0654297,113.8334961,113.8330078c0,62.7685547-51.0654297,113.8339844-113.8334961,113.8339844
		h-79.4775391c-30.6948242,0-55.6665039,24.9716797-55.6665039,55.6660156c0,2.3476562,1.902832,4.25,4.25,4.25
		S254.8243103,623.1211548,254.8243103,620.7734985z"/>
	<path class="st7" d="M238.1578064,620.7734985c0-35.1972656,28.6352539-63.8330078,63.8330078-63.8330078h79.4775391
		c58.2651367,0,105.6669922-47.4023438,105.6669922-105.6669922S439.73349,345.6074829,381.4683533,345.6074829h-79.4775391
		c-35.1977539,0-63.8330078-28.6357422-63.8330078-63.8339844c0-2.3476562-1.902832-4.25-4.25-4.25s-4.25,1.9023438-4.25,4.25
		c0,39.8847656,32.4482422,72.3339844,72.3330078,72.3339844h79.4775391c53.578125,0,97.1669922,43.5888672,97.1669922,97.1660156
		c0,53.578125-43.5888672,97.1669922-97.1669922,97.1669922h-79.4775391c-39.8847656,0-72.3330078,32.4482422-72.3330078,72.3330078
		c0,2.3476562,1.902832,4.25,4.25,4.25S238.1578064,623.1211548,238.1578064,620.7734985z"/>
	<path class="st7" d="M204.8243103,620.7734985c0-53.5771484,43.5888672-97.1660156,97.1665039-97.1660156h79.4775391
		c39.8847656,0,72.3334961-32.4492188,72.3334961-72.3339844s-32.4487305-72.3330078-72.3334961-72.3330078h-79.4775391
		c-53.5776367,0-97.1665039-43.5888672-97.1665039-97.1669922c0-2.3476562-1.902832-4.25-4.25-4.25s-4.25,1.9023438-4.25,4.25
		c0,58.2646484,47.4018555,105.6669922,105.6665039,105.6669922h79.4775391
		c35.1977539,0,63.8334961,28.6357422,63.8334961,63.8330078c0,35.1982422-28.6357422,63.8339844-63.8334961,63.8339844h-79.4775391
		c-58.2646484,0-105.6665039,47.4013672-105.6665039,105.6660156c0,2.3476562,1.902832,4.25,4.25,4.25
		S204.8243103,623.1211548,204.8243103,620.7734985z"/>
	<path class="st7" d="M188.1578064,620.7734985c0-62.7675781,51.0654297-113.8330078,113.8330078-113.8330078h79.4775391
		c30.6948242,0,55.6669922-24.9716797,55.6669922-55.6669922c0-30.6943359-24.972168-55.6660156-55.6669922-55.6660156h-79.4775391
		c-62.7675781,0-113.8330078-51.0654297-113.8330078-113.8339844c0-2.3476562-1.902832-4.25-4.25-4.25s-4.25,1.9023438-4.25,4.25
		c0,67.4550781,54.878418,122.3339844,122.3330078,122.3339844h79.4775391
		c26.0078125,0,47.1669922,21.1582031,47.1669922,47.1660156s-21.1591797,47.1669922-47.1669922,47.1669922h-79.4775391
		c-67.4545898,0-122.3330078,54.8779297-122.3330078,122.3330078c0,2.3476562,1.902832,4.25,4.25,4.25
		S188.1578064,623.1211548,188.1578064,620.7734985z"/>
	<path class="st7" d="M171.4908142,620.7734985c0-71.9580078,58.5419922-130.5,130.5-130.5h79.4775391
		c21.5048828,0,39-17.4951172,39-39s-17.4951172-39-39-39h-79.4775391c-71.9580078,0-130.5-58.5419922-130.5-130.5
		c0-2.3476562-1.902832-4.25-4.25-4.25s-4.25,1.9023438-4.25,4.25c0,76.6445312,62.3549805,139,139,139h79.4775391
		c16.8178711,0,30.5,13.6826172,30.5,30.5s-13.6821289,30.5-30.5,30.5h-79.4775391c-76.6450195,0-139,62.3554688-139,139
		c0,2.3476562,1.902832,4.25,4.25,4.25S171.4908142,623.1211548,171.4908142,620.7734985z"/>
	<path class="st3" d="M278.6680908,79c-5.0411987,0-9.8184204,1.1206055-14.1069336,3.1152344
		C257.5827637,65.5942383,241.2296295,54,222.1681061,54c-4.8724976,0-9.5653076,0.7636719-13.9725342,2.1674805
		C200.5924835,23.9692383,171.688797,0,137.1681061,0c-34.7448196,0-63.7993851,24.2817383-71.172493,56.7958984
		C61.0606804,54.9873047,55.7296867,54,50.1681023,54c-25.4050922,0-46,20.5947266-46,46H309.748291
		C304.7932129,87.6923828,292.7493286,79,278.6680908,79z"/>
	<path class="st3" d="M361.638855,133.3577423c5.9155579,0,11.5213318,1.3149719,16.5536499,3.6555481
		c8.1887512-19.3864059,27.3781738-32.9915543,49.7457581-32.9915543c5.7175903,0,11.2243042,0.8961182,16.3959351,2.5434036
		c8.9217834-37.7827225,42.8385315-65.9091949,83.3465271-65.9091949c40.7709351,0,74.8647461,28.4931755,83.5166626,66.6466064
		c5.7908325-2.1222763,12.0464478-3.2808151,18.5726318-3.2808151c29.8114014,0,53.9782715,24.1666794,53.9782715,53.9782639
		H325.1680908C330.9825745,143.5577393,345.1153564,133.3577423,361.638855,133.3577423z"/>
	<g>
		<path class="st8" d="M381.4682922,320.7731934h-79.477478c-21.5048828,0-39-17.4951172-39-39h-8.1665039
			c0,26.0078125,21.1586914,47.1669922,47.1665039,47.1669922h79.477478
			c67.4550781,0,122.3334961,54.8779297,122.3334961,122.3330078s-54.878418,122.3339844-122.3334961,122.3339844h-79.477478
			c-26.0078125,0-47.1665039,21.1582031-47.1665039,47.1660156c0,0.0004883-0.000061,0.0004883-0.000061,0.0004883h0.0072632
			c-0.0004272,0.0238037-0.007019,0.0458984-0.007019,0.0698242c0,2.255249,1.8282471,4.0834961,4.0834961,4.0834961
			c2.2553101,0,4.0835571-1.8282471,4.0835571-4.0834961c0-0.0239258-0.0065918-0.0460205-0.007019-0.0698242h0.0063477
			c0,0-0.000061,0-0.000061-0.0004883c0-21.5048828,17.4951172-39,39-39h79.477478c71.9580078,0,130.5-58.5419922,130.5-130.5
			S453.4263,320.7731934,381.4682922,320.7731934z"/>
		<path class="st8" d="M229.6578674,620.7736816c0,0-0.000061,0-0.000061-0.0004883
			c0-39.8847656,32.4482422-72.3330078,72.3330078-72.3330078h79.477478c53.578125,0,97.1669922-43.5888672,97.1669922-97.1669922
			c0-53.5771484-43.5888672-97.1660156-97.1669922-97.1660156h-79.477478
			c-39.8847656,0-72.3330078-32.4492188-72.3330078-72.3339844h-8.1669922c0,44.3876953,36.1123047,80.5,80.5,80.5h79.477478
			c49.074707,0,89,39.9248047,89,89s-39.925293,89-89,89h-79.477478c-44.3876953,0-80.5,36.1123047-80.5,80.5
			c0,0.0004883-0.000061,0.0004883-0.000061,0.0004883h0.0072632c-0.0004272,0.0238037-0.007019,0.0458984-0.007019,0.0698242
			c0,2.255249,1.8282471,4.0834961,4.0834961,4.0834961c2.2553101,0,4.0835571-1.8282471,4.0835571-4.0834961
			c0-0.0239258-0.0065918-0.0460205-0.007019-0.0698242H229.6578674z"/>
		<path class="st8" d="M246.3243713,620.7736816c0,0-0.000061,0-0.000061-0.0004883
			c0-30.6943359,24.9716797-55.6660156,55.6665039-55.6660156h79.477478
			c62.7680664,0,113.8334961-51.0654297,113.8334961-113.8339844c0-62.7675781-51.0654297-113.8330078-113.8334961-113.8330078
			h-79.477478c-30.6948242,0-55.6665039-24.9716797-55.6665039-55.6669922h-8.1665039
			c0,35.1982422,28.6352539,63.8339844,63.8330078,63.8339844h79.477478
			c58.2651367,0,105.6669922,47.4013672,105.6669922,105.6660156S439.733429,556.9401855,381.4682922,556.9401855h-79.477478
			c-35.1977539,0-63.8330078,28.6357422-63.8330078,63.8330078c0,0.0004883-0.000061,0.0004883-0.000061,0.0004883h0.007019
			c-0.0004272,0.0238037-0.007019,0.0458984-0.007019,0.0698242c0,2.255249,1.8282471,4.0834961,4.0834961,4.0834961
			c2.2553101,0,4.0835571-1.8282471,4.0835571-4.0834961c0-0.0239258-0.0065918-0.0460205-0.007019-0.0698242H246.3243713z"/>
		<path class="st8" d="M196.3243713,620.7736816c0,0-0.000061,0-0.000061-0.0004883
			c0-58.2646484,47.4018555-105.6660156,105.6665039-105.6660156h79.477478
			c35.1977539,0,63.8334961-28.6357422,63.8334961-63.8339844c0-35.1972656-28.6357422-63.8330078-63.8334961-63.8330078h-79.477478
			c-58.2646484,0-105.6665039-47.4023438-105.6665039-105.6669922h-8.1665039
			c0,62.7685547,51.0654297,113.8339844,113.8330078,113.8339844h79.477478
			c30.6948242,0,55.6669922,24.9716797,55.6669922,55.6660156c0,30.6953125-24.972168,55.6669922-55.6669922,55.6669922h-79.477478
			c-62.7675781,0-113.8330078,51.0654297-113.8330078,113.8330078c0,0.0004883-0.000061,0.0004883-0.000061,0.0004883h0.0067749
			c-0.0004272,0.0238037-0.007019,0.0458984-0.007019,0.0698242c0,2.255249,1.8282471,4.0834961,4.0834961,4.0834961
			c2.2553101,0,4.0835571-1.8282471,4.0835571-4.0834961c0-0.0239258-0.0065918-0.0460205-0.007019-0.0698242H196.3243713z"/>
		<path class="st8" d="M179.6578064,620.7731934c0-67.4550781,54.878418-122.3330078,122.3330078-122.3330078h79.477478
			c26.0078125,0,47.1669922-21.1591797,47.1669922-47.1669922s-21.1591797-47.1660156-47.1669922-47.1660156h-79.477478
			c-67.4545898,0-122.3330078-54.8789062-122.3330078-122.3339844h-8.1669922c0,71.9580078,58.5419922,130.5,130.5,130.5h79.477478
			c21.5048828,0,39,17.4951172,39,39s-17.4951172,39-39,39h-79.477478c-71.9580078,0-130.5,58.5419922-130.5,130.5
			c0,0.0004883-0.000061,0.0004883-0.000061,0.0004883h0.007019c-0.0004272,0.0238037-0.007019,0.0458984-0.007019,0.0698242
			c0,2.255249,1.8282471,4.0834961,4.0834961,4.0834961c2.2553101,0,4.0835571-1.8282471,4.0835571-4.0834961
			c0-0.0239258-0.0065918-0.0460205-0.007019-0.0698242h0.0070801
			C179.6578674,620.7736816,179.6578064,620.7736816,179.6578064,620.7731934z"/>
		<path class="st8" d="M212.9908752,620.7736816c0,0-0.000061,0-0.000061-0.0004883c0-49.0751953,39.925293-89,89-89h79.477478
			c44.3876953,0,80.5-36.1123047,80.5-80.5s-36.1123047-80.5-80.5-80.5h-79.477478c-49.074707,0-89-39.9248047-89-89h-8.1665039
			c0,53.578125,43.5888672,97.1669922,97.1665039,97.1669922h79.477478c39.8847656,0,72.3334961,32.4482422,72.3334961,72.3330078
			s-32.4487305,72.3339844-72.3334961,72.3339844h-79.477478c-53.5776367,0-97.1665039,43.5888672-97.1665039,97.1660156
			c0,0.0004883-0.000061,0.0004883-0.000061,0.0004883h0.007019c-0.0004272,0.0238037-0.007019,0.0458984-0.007019,0.0698242
			c0,2.255249,1.8282471,4.0834961,4.0834961,4.0834961c2.2553101,0,4.0835571-1.8282471,4.0835571-4.0834961
			c0-0.0239258-0.0065918-0.0460205-0.007019-0.0698242H212.9908752z"/>
	</g>
	<g>
		<g>
			<path class="st6" d="M380.8580627,329.5554199h-10.5300293l-7.2431641,1.8334961
				c-0.7397461,0-1.3394775,0.5996094-1.3394775,1.3393555v5.6723633l-15.0487061,2.7724609v12.2177734v1.2050781
				l15.3347778-2.8300781c0.0019531,0.0273438,0.0139771,0.0507812,0.0139771,0.0786133v4.9716797
				c0,0.6459961,0.5234375,1.1694336,1.1691895,1.1694336h6.4579468v-0.0146484
				c0.0251465,0.0014648,0.0465088,0.0146484,0.0720825,0.0146484l6.3225708-1.6000977
				c0.645752,0,1.1692505-0.5239258,1.1692505-1.1694336v-6.1098633l-0.4227905-0.0683594l0.4227905-0.078125v-4.4614258
				l3.621582-0.9165039c0.7397461,0,1.3394775-0.5996094,1.3394775-1.3393555v-11.347168
				C382.1975403,330.1555176,381.5978088,329.5554199,380.8580627,329.5554199z"/>
			<path class="st2" d="M380.8580322,329.5553284l-7.2431641,1.8334961c-0.7397461,0-1.3394775,0.5996094-1.3394775,1.3393555
				v5.6723633l-25.5787354,4.7207031v11.4746094l20.9653931-3.8691406c0.5186768,0.1196289,0.9133911,0.5625,0.9133911,1.1176758
				v4.9716797c0,0.6459961,0.5234375,1.1694336,1.1691895,1.1694336l6.3225708-1.6000977
				c0.645752,0,1.1692505-0.5239258,1.1692505-1.1694336v-6.1098633l-0.4227905-0.0683594l0.4227905-0.078125v-4.4614258
				l3.621582-0.9165039c0.7397461,0,1.3394775-0.5996094,1.3394775-1.3393555v-11.347168
				C382.1975098,330.155426,381.5977783,329.5553284,380.8580322,329.5553284z"/>
			<g>
				<path class="st9" d="M372.2753906,332.4107361h-10.4658813c-0.0261841,0.1044922-0.0641479,0.2050781-0.0641479,0.3173828
					v5.6723633h10.5300293V332.4107361z"/>
			</g>
			<path class="st9" d="M383.7264709,335.0262146l-0.5613708-3.3166809
				c-0.1796265-1.0684814-0.6062622-1.9365845-0.9206238-1.9365845c-0.3368225,0-0.6062622,0.8903809-0.6062622,1.9588318v0.9215698
				c0,1.0479736-0.8574524,1.905426-1.905426,1.905426h-2.4937744v2.3817749h4.8482666
				C383.1651001,336.9405518,383.9060974,336.0724182,383.7264709,335.0262146"/>
			<g>
				<path class="st2" d="M382.2445679,329.7722473c0.3143311,0,0.7409668,0.8681641,0.9205933,1.9365234l0.5614014,3.3168945
					c0.1204834,0.7016602-0.178833,1.3164062-0.7103882,1.6494141h0.1911011c1.0778198,0,1.8188477-0.8681641,1.6391602-1.9140625
					l-0.5613403-3.3168945c-0.1796265-1.0683594-0.6062622-1.9365234-0.9206543-1.9365234L382.2445679,329.7722473"/>
			</g>
			<path class="st6" d="M381.1785583,333.8779297h-1.3522949l-2.5872192,0.6694336v0.0112305h2.4937744
				C380.3130188,334.5585938,380.8283386,334.2905273,381.1785583,333.8779297z"/>
			<path class="st9" d="M367.6620789,350.7268066c0.5186768,0.1196289,0.9133911,0.5625,0.9133911,1.1176758v4.9716797
				c0,0.6459961,0.5234375,1.1694336,1.1691895,1.1694336c-0.0255737,0-0.046936-0.0131836-0.0720825-0.0146484v0.0146484
				h-10.5123291c-0.645752,0-1.1691895-0.5234375-1.1691895-1.1694336v-4.304657"/>
		</g>
		<g>
			<path class="st9" d="M341.5780029,364.2437134c-4.3422852,0-7.8747559-3.5324707-7.8747559-7.8744507
				c0-4.3420105,3.5324707-7.8744812,7.8747559-7.8744812c4.34198,0,7.8744507,3.5324707,7.8744507,7.8744812
				C349.4524536,360.7112427,345.9199829,364.2437134,341.5780029,364.2437134z"/>
			<circle class="st9" cx="341.5779114" cy="356.3692322" r="5.118762"/>
		</g>
		<g>
			<path class="st9" d="M313.7940063,369.8441162c-4.3422546,0-7.8747253-3.5324707-7.8747253-7.8744812
				c0-4.34198,3.5324707-7.8744507,7.8747253-7.8744507c4.3420105,0,7.8744812,3.5324707,7.8744812,7.8744507
				C321.6684875,366.3116455,318.1360168,369.8441162,313.7940063,369.8441162z"/>
			<circle class="st9" cx="313.7939453" cy="361.969635" r="5.118762"/>
		</g>
		<g>
			<path class="st2" d="M348.3099976,324.849823c-1.0943604,0-2.149292,0.168457-3.1412964,0.4790039l-0.000061-0.0009766
				l-29.4371338,5.3598633c0.6599121-0.1298828,1.3407593-0.2016602,2.0387573-0.2016602
				c5.8013916,0,10.5043945,4.703125,10.5043945,10.5048828l-1.6534424,10.5043945h-6.49646l0.1342163,0.3222656h27.1682129
				l9.7337646-5.9589844l1.6535034-10.5043945C358.8144531,329.552948,354.1114502,324.849823,348.3099976,324.849823z"/>
		</g>
		<path class="st2" d="M328.2746582,340.9906921c0-5.8014221-4.7030029-10.504425-10.504425-10.504425
			c-5.8014526,0-10.504425,4.7030029-10.504425,10.504425l1.6534729,10.5044556h17.7019043L328.2746582,340.9906921z"/>
		<path class="st6" d="M328.2746582,340.9906921c0-5.8014221-4.7030029-10.504425-10.504425-10.504425
			c-5.8014526,0-10.504425,4.7030029-10.504425,10.504425l1.6534729,10.5044556h17.7019043L328.2746582,340.9906921z"/>
		<path class="st9" d="M314.1820984,351.4951172h7.170929l1.3975525-10.8568726
			c-0.1816711-2.5894775-2.3459473-4.6401672-4.9803467-4.6401672c-2.6344299,0-4.7986755,2.0506897-4.9803467,4.6401672
			L314.1820984,351.4951172z"/>
		<rect x="308.919281" y="351.4951477" class="st9" width="17.7019196" height="10.4745083"/>
		<polygon class="st0" points="357.1609497,356.3333435 326.6211853,361.969635 326.6211853,351.4951477 357.1609497,345.8588257 		
			"/>
		<path class="st6" d="M326.6213074,369.8441162c-4.3422546,0-7.8747253-3.5324707-7.8747253-7.8744812
			c0-4.34198,3.5324707-7.8744507,7.8747253-7.8744507c4.3420105,0,7.8744812,3.5324707,7.8744812,7.8744507
			C334.4957886,366.3116455,330.9633179,369.8441162,326.6213074,369.8441162z"/>
		<path class="st6" d="M354.4052734,364.2437134c-4.3422546,0-7.8747253-3.5324707-7.8747253-7.8744507
			c0-4.3420105,3.5324707-7.8744812,7.8747253-7.8744812c4.3420105,0,7.8744812,3.5324707,7.8744812,7.8744812
			C362.2797546,360.7112427,358.7472839,364.2437134,354.4052734,364.2437134z"/>
		<circle class="st9" cx="326.6212463" cy="361.969635" r="5.118762"/>
		<circle class="st9" cx="354.4052124" cy="356.3692627" r="5.118762"/>
		<g>
			<path class="st10" d="M336.8175659,349.7192078c0.1897888-1.2056885,0.3795776-2.411377,0.5693359-3.6170654
				c0.2772217-1.7610474,0.5544128-3.5220947,0.831604-5.2831421c0.2122498-1.3483887,0.3676758-2.4291687,0.1300659-3.7951355
				c-0.0256348-0.1471558-0.0548096-0.2946472-0.0876465-0.442627c-0.5578918-2.514801-2.0374756-4.7753601-4.0978088-6.3121948
				c-0.2366333-0.1764221-0.4803772-0.3428345-0.7306213-0.4987488c-1.1723633-0.7304077-2.4774475-1.2301025-3.8323669-1.4637756
				c-1.2702942-0.2190552-3.1277771-0.3886108-4.3502502,0.1260986"/>
			<path class="st10" d="M347.2781982,347.7884827c0.1903381-1.2092896,0.3807068-2.4185486,0.5710449-3.6278381
				c0.2780457-1.7662659,0.5560608-3.5325623,0.8341064-5.2988586c0.2149963-1.3658752,0.3554382-2.4831238,0.1109314-3.8474121
				c-0.0265198-0.1479797-0.0570984-0.2973938-0.0919495-0.4486084c-0.5879517-2.5531006-2.1260071-4.8344116-4.2538452-6.3554993
				c-0.2455444-0.1754456-0.4978638-0.3398438-0.7562256-0.4928894c-1.2107239-0.7172546-2.5491638-1.1840515-3.9292603-1.3848877
				c-1.3851929-0.1964111-3.0831604-0.2161865-4.4301453,0.2642212"/>
		</g>
	</g>
	<path class="st7" d="M221.4908142,620.7734985c0-44.3876953,36.1123047-80.5,80.5-80.5h79.4775391c49.074707,0,89-39.9248047,89-89
		s-39.925293-89-89-89h-79.4775391c-44.3876953,0-80.5-36.1123047-80.5-80.5c0-2.3476562-1.902832-4.25-4.25-4.25
		s-4.25,1.9023438-4.25,4.25c0,49.0751953,39.925293,89,89,89h79.4775391c44.3876953,0,80.5,36.1123047,80.5,80.5
		s-36.1123047,80.5-80.5,80.5h-79.4775391c-49.074707,0-89,39.9248047-89,89c0,2.3476562,1.902832,4.25,4.25,4.25
		S221.4908142,623.1211548,221.4908142,620.7734985z"/>
	<path class="st11" d="M0.1681013,282.3972168c12.1652498-47.8600006,111.996788-42.9713135,147.242569-53.0696869
		c67.2515259-19.2684174,116.2001343-72.2885284,194.2982178-55.3755798
		c26.1249695,5.6576385,48.0432739,22.0656281,72.396698,32.1773682
		c37.1184998,15.4118958,67.2169189,15.8022461,106.4868774,14.816925
		c41.2612305-1.0352936,85.583374,41.9393768,162.9075317,61.1926727
		C455.7227173,282.2502441,227.9454498,282.5085144,0.1681013,282.3972168z"/>
	<g>
		<g>
			<g>
				<path class="st2" d="M683.5,207.0162964c0-16.5346985-13.4040527-29.9387207-29.9387207-29.9387207
					c-16.534729,0-29.9387207,13.4040222-29.9387207,29.9387207v113.7671509H683.5V207.0162964z"/>
			</g>
		</g>
		<g>
			<g>
				<path class="st1" d="M623.6225586,207.0162964h29.9387207v-29.9387207
					C637.0266113,177.0775757,623.6225586,190.4815674,623.6225586,207.0162964z"/>
			</g>
			<g>
				<rect x="653.5612793" y="207.0162964" class="st1" width="29.9387264" height="113.7671585"/>
			</g>
			<g>
				<path class="st4" d="M653.5612793,177.0775757v29.9387207H683.5
					C683.5,190.4815674,670.0958862,177.0775757,653.5612793,177.0775757z"/>
			</g>
		</g>
	</g>
	<g>
		<g>
			<rect x="653.5610962" y="224.5401001" class="st4" width="29.9389648" height="3"/>
		</g>
		<g>
			<rect x="653.5610962" y="243.5635376" class="st4" width="29.9389648" height="3"/>
		</g>
		<g>
			<rect x="653.5610962" y="262.5869751" class="st4" width="29.9389648" height="3"/>
		</g>
		<g>
			<rect x="653.5610962" y="281.6104126" class="st4" width="29.9389648" height="3"/>
		</g>
		<g>
			<rect x="653.5610962" y="300.6338501" class="st4" width="29.9389648" height="3"/>
		</g>
	</g>
	<g>
		<g>
			<rect x="623.6226196" y="224.5401001" class="st1" width="29.9384766" height="3"/>
		</g>
		<g>
			<rect x="623.6226196" y="243.5635376" class="st1" width="29.9384766" height="3"/>
		</g>
		<g>
			<rect x="623.6226196" y="262.5869751" class="st1" width="29.9384766" height="3"/>
		</g>
		<g>
			<rect x="623.6226196" y="281.6104126" class="st1" width="29.9384766" height="3"/>
		</g>
		<g>
			<rect x="623.6226196" y="300.6338501" class="st1" width="29.9384766" height="3"/>
		</g>
	</g>
	<g>
		<g>
			<path class="st4" d="M590.3157349,215.2494507c0,0-0.133606,0.0810394-0.3742676,0.2303314v-0.2303314h-95.0554504v0.2303314
				c-4.4173889,2.7398682-47.1534729,29.8896179-47.1534729,54.7820587v50.5216064h47.1534729h47.901947h47.1535034h47.9019775
				v-50.5216064C637.8434448,244.013031,590.3157349,215.2494507,590.3157349,215.2494507z"/>
		</g>
		<g>
			<g>
				<path class="st2" d="M542.7879639,270.2618408c0-26.2488251-47.52771-55.0123901-47.52771-55.0123901
					s-47.52771,28.7635651-47.52771,55.0123901v50.5216064h95.0554199V270.2618408z"/>
			</g>
		</g>
		<g>
			<path class="st1" d="M477.6712646,320.7834473v-34.6053162c0.8756409-2.2004395,4.9819946-8.6552734,16.1191101-17.9815063
				c0.4926453-0.4125977,0.9823608-0.8171692,1.4698792-1.214447c0.6702576,0.5463867,1.3463745,1.1073608,2.0246887,1.6815186
				c10.7314453,9.0842896,14.7069397,15.3644104,15.5643005,17.5151672v34.6045837H477.6712646z"/>
		</g>
		<g>
			<rect x="542.7879639" y="270.6360779" class="st1" width="95.0554504" height="50.1473656"/>
		</g>
		<g>
			<g>
				<path class="st4" d="M574.2236328,296.2256165c0-4.7655945-8.6288452-9.9877625-8.6288452-9.9877625
					s-8.6288452,5.222168-8.6288452,9.9877625v9.1723938h17.2576904V296.2256165z"/>
			</g>
			<g>
				<path class="st4" d="M598.9230957,296.2256165c0-4.7655945-8.6288452-9.9877625-8.6288452-9.9877625
					s-8.6289062,5.222168-8.6289062,9.9877625v9.1723938h17.2577515V296.2256165z"/>
			</g>
			<g>
				<path class="st4" d="M623.6225586,296.2256165c0-4.7655945-8.6288452-9.9877625-8.6288452-9.9877625
					s-8.6289062,5.222168-8.6289062,9.9877625v9.1723938h17.2577515V296.2256165z"/>
			</g>
		</g>
	</g>
	<g>
		<path class="st9" d="M404.9334106,239.8780975c0-10.284256-18.6212769-47.8311615-18.6212769-47.8311615
			s-18.6213074,37.5469055-18.6213074,47.8311615H404.9334106z"/>
	</g>
	<g>
		<rect x="385.8121033" y="206.8047485" class="st11" width="1" height="39.2421875"/>
	</g>
	<g>
		<path class="st11" d="M390.3970642,215.9522095c-1.8491211-3.9697266-3.3666992-7.1015625-4.0849609-8.5703125
			c-0.7182617,1.46875-2.2358398,4.6005859-4.0849609,8.5703125l-0.90625-0.421875
			c2.5844727-5.5498047,4.5239258-9.4658203,4.543457-9.5039062l0.4477539-0.9042969l0.4477539,0.9042969
			c0.0195312,0.0380859,1.9589844,3.9541016,4.543457,9.5039062L390.3970642,215.9522095z"/>
	</g>
	<g>
		<path class="st11" d="M390.3970642,223.9854126c-1.8491211-3.9697266-3.3666992-7.1015625-4.0849609-8.5703125
			c-0.7182617,1.46875-2.2358398,4.6005859-4.0849609,8.5703125l-0.90625-0.421875
			c2.5844727-5.5498047,4.5239258-9.4658203,4.543457-9.5039062l0.4477539-0.9042969l0.4477539,0.9042969
			c0.0195312,0.0380859,1.9589844,3.9541016,4.543457,9.5039062L390.3970642,223.9854126z"/>
	</g>
	<g>
		<path class="st11" d="M390.3970642,232.0176392c-1.8491211-3.9697266-3.3666992-7.1015625-4.0849609-8.5703125
			c-0.7182617,1.46875-2.2358398,4.6005859-4.0849609,8.5703125l-0.90625-0.421875
			c2.5844727-5.5498047,4.5239258-9.4658203,4.543457-9.5039062l0.4477539-0.9042969l0.4477539,0.9042969
			c0.0195312,0.0380859,1.9589844,3.9541016,4.543457,9.5039062L390.3970642,232.0176392z"/>
	</g>
	<g>
		<path class="st9" d="M364.9334106,239.8780975c0-10.284256-18.6212769-47.8311615-18.6212769-47.8311615
			s-18.6213074,37.5469055-18.6213074,47.8311615H364.9334106z"/>
	</g>
	<g>
		<rect x="345.8121033" y="206.8047485" class="st11" width="1" height="39.2421875"/>
	</g>
	<g>
		<path class="st11" d="M350.3970642,215.9522095c-1.8491211-3.9697266-3.3666992-7.1015625-4.0849609-8.5703125
			c-0.7182617,1.46875-2.2358398,4.6005859-4.0849609,8.5703125l-0.90625-0.421875
			c2.5844727-5.5498047,4.5239258-9.4658203,4.543457-9.5039062l0.4477539-0.9042969l0.4477539,0.9042969
			c0.0195312,0.0380859,1.9589844,3.9541016,4.543457,9.5039062L350.3970642,215.9522095z"/>
	</g>
	<g>
		<path class="st11" d="M350.3970642,223.9854126c-1.8491211-3.9697266-3.3666992-7.1015625-4.0849609-8.5703125
			c-0.7182617,1.46875-2.2358398,4.6005859-4.0849609,8.5703125l-0.90625-0.421875
			c2.5844727-5.5498047,4.5239258-9.4658203,4.543457-9.5039062l0.4477539-0.9042969l0.4477539,0.9042969
			c0.0195312,0.0380859,1.9589844,3.9541016,4.543457,9.5039062L350.3970642,223.9854126z"/>
	</g>
	<g>
		<path class="st11" d="M350.3970642,232.0176392c-1.8491211-3.9697266-3.3666992-7.1015625-4.0849609-8.5703125
			c-0.7182617,1.46875-2.2358398,4.6005859-4.0849609,8.5703125l-0.90625-0.421875
			c2.5844727-5.5498047,4.5239258-9.4658203,4.543457-9.5039062l0.4477539-0.9042969l0.4477539,0.9042969
			c0.0195312,0.0380859,1.9589844,3.9541016,4.543457,9.5039062L350.3970642,232.0176392z"/>
	</g>
	<g>
		<path class="st9" d="M425.9334106,273.8781128c0-10.2842712-18.6212769-47.8311768-18.6212769-47.8311768
			s-18.6213074,37.5469055-18.6213074,47.8311768H425.9334106z"/>
	</g>
	<g>
		<rect x="406.8121033" y="240.8047485" class="st11" width="1" height="39.2421875"/>
	</g>
	<g>
		<path class="st11" d="M411.3970642,249.9522095c-1.8491211-3.9697266-3.3666992-7.1015625-4.0849609-8.5703125
			c-0.7182617,1.46875-2.2358398,4.6005859-4.0849609,8.5703125l-0.90625-0.421875
			c2.5844727-5.5498047,4.5239258-9.4658203,4.543457-9.5039062l0.4477539-0.9042969l0.4477539,0.9042969
			c0.0195312,0.0380859,1.9589844,3.9541016,4.543457,9.5039062L411.3970642,249.9522095z"/>
	</g>
	<g>
		<path class="st11" d="M411.3970642,257.9854126c-1.8491211-3.9697266-3.3666992-7.1015625-4.0849609-8.5703125
			c-0.7182617,1.46875-2.2358398,4.6005859-4.0849609,8.5703125l-0.90625-0.421875
			c2.5844727-5.5498047,4.5239258-9.4658203,4.543457-9.5039062l0.4477539-0.9042969l0.4477539,0.9042969
			c0.0195312,0.0380859,1.9589844,3.9541016,4.543457,9.5039062L411.3970642,257.9854126z"/>
	</g>
	<g>
		<path class="st11" d="M411.3970642,266.0176392c-1.8491211-3.9697266-3.3666992-7.1015625-4.0849609-8.5703125
			c-0.7182617,1.46875-2.2358398,4.6005859-4.0849609,8.5703125l-0.90625-0.421875
			c2.5844727-5.5498047,4.5239258-9.4658203,4.543457-9.5039062l0.4477539-0.9042969l0.4477539,0.9042969
			c0.0195312,0.0380859,1.9589844,3.9541016,4.543457,9.5039062L411.3970642,266.0176392z"/>
	</g>
	<g>
		<path class="st9" d="M344.9334106,273.8781128c0-10.2842712-18.6212769-47.8311768-18.6212769-47.8311768
			s-18.6213074,37.5469055-18.6213074,47.8311768H344.9334106z"/>
	</g>
	<g>
		<rect x="325.8121033" y="240.8047485" class="st11" width="1" height="39.2421875"/>
	</g>
	<g>
		<path class="st11" d="M330.3970642,249.9522095c-1.8491211-3.9697266-3.3666992-7.1015625-4.0849609-8.5703125
			c-0.7182617,1.46875-2.2358398,4.6005859-4.0849609,8.5703125l-0.90625-0.421875
			c2.5844727-5.5498047,4.5239258-9.4658203,4.543457-9.5039062l0.4477539-0.9042969l0.4477539,0.9042969
			c0.0195312,0.0380859,1.9589844,3.9541016,4.543457,9.5039062L330.3970642,249.9522095z"/>
	</g>
	<g>
		<path class="st11" d="M330.3970642,257.9854126c-1.8491211-3.9697266-3.3666992-7.1015625-4.0849609-8.5703125
			c-0.7182617,1.46875-2.2358398,4.6005859-4.0849609,8.5703125l-0.90625-0.421875
			c2.5844727-5.5498047,4.5239258-9.4658203,4.543457-9.5039062l0.4477539-0.9042969l0.4477539,0.9042969
			c0.0195312,0.0380859,1.9589844,3.9541016,4.543457,9.5039062L330.3970642,257.9854126z"/>
	</g>
	<g>
		<path class="st11" d="M330.3970642,266.0176392c-1.8491211-3.9697266-3.3666992-7.1015625-4.0849609-8.5703125
			c-0.7182617,1.46875-2.2358398,4.6005859-4.0849609,8.5703125l-0.90625-0.421875
			c2.5844727-5.5498047,4.5239258-9.4658203,4.543457-9.5039062l0.4477539-0.9042969l0.4477539,0.9042969
			c0.0195312,0.0380859,1.9589844,3.9541016,4.543457,9.5039062L330.3970642,266.0176392z"/>
	</g>
	<g>
		<path class="st9" d="M303.9334106,273.8781128c0-10.2842712-18.6212769-47.8311768-18.6212769-47.8311768
			s-18.6213074,37.5469055-18.6213074,47.8311768H303.9334106z"/>
	</g>
	<g>
		<rect x="284.8121033" y="240.8047485" class="st11" width="1" height="39.2421875"/>
	</g>
	<g>
		<path class="st11" d="M289.3970642,249.9522095c-1.8491211-3.9697266-3.3666992-7.1015625-4.0849609-8.5703125
			c-0.7182617,1.46875-2.2358398,4.6005859-4.0849609,8.5703125l-0.90625-0.421875
			c2.5844727-5.5498047,4.5239258-9.4658203,4.543457-9.5039062l0.4477539-0.9042969l0.4477539,0.9042969
			c0.0195312,0.0380859,1.9589844,3.9541016,4.543457,9.5039062L289.3970642,249.9522095z"/>
	</g>
	<g>
		<path class="st11" d="M289.3970642,257.9854126c-1.8491211-3.9697266-3.3666992-7.1015625-4.0849609-8.5703125
			c-0.7182617,1.46875-2.2358398,4.6005859-4.0849609,8.5703125l-0.90625-0.421875
			c2.5844727-5.5498047,4.5239258-9.4658203,4.543457-9.5039062l0.4477539-0.9042969l0.4477539,0.9042969
			c0.0195312,0.0380859,1.9589844,3.9541016,4.543457,9.5039062L289.3970642,257.9854126z"/>
	</g>
	<g>
		<path class="st11" d="M289.3970642,266.0176392c-1.8491211-3.9697266-3.3666992-7.1015625-4.0849609-8.5703125
			c-0.7182617,1.46875-2.2358398,4.6005859-4.0849609,8.5703125l-0.90625-0.421875
			c2.5844727-5.5498047,4.5239258-9.4658203,4.543457-9.5039062l0.4477539-0.9042969l0.4477539,0.9042969
			c0.0195312,0.0380859,1.9589844,3.9541016,4.543457,9.5039062L289.3970642,266.0176392z"/>
	</g>
	<g>
		<polygon class="st1" points="68.6181412,305.5471802 0,360.4416809 0,442.7834473 206.4033813,442.7834473 
			206.4033813,360.4416809 137.7852325,305.5471802 		"/>
	</g>
	<g>
		<g>
			<polygon class="st2" points="206.4033813,442.7834473 69.1670914,442.7834473 69.1670914,360.4416809 137.7852325,305.5471802 
				206.4033813,360.4416809 			"/>
		</g>
	</g>
	<g>
		<rect y="359.9146423" class="st4" width="69.1670914" height="82.8687973"/>
	</g>
	<g>
		<g>
			<polygon class="st2" points="80.1459885,312.2344055 64.9629745,312.2344055 64.9629745,342.2627563 80.1459885,330.116333 			
				"/>
		</g>
	</g>
	<g>
		<rect x="50.5029526" y="312.2344055" class="st4" width="14.4600182" height="30.0283623"/>
	</g>
	<g>
		<g>
			<rect x="91.1248932" y="394.4762878" class="st1" width="10.3007946" height="10.3007946"/>
		</g>
		<g>
			<rect x="104.977684" y="394.4762878" class="st1" width="10.3007946" height="10.3007946"/>
		</g>
		<g>
			<rect x="91.1248932" y="408.329071" class="st1" width="10.3007946" height="10.3007946"/>
		</g>
		<g>
			<rect x="104.977684" y="408.329071" class="st1" width="10.3007946" height="10.3007946"/>
		</g>
	</g>
	<g>
		<g>
			<rect x="160.2919769" y="394.4762878" class="st1" width="10.3007946" height="10.3007946"/>
		</g>
		<g>
			<rect x="174.1447754" y="394.4762878" class="st1" width="10.3007946" height="10.3007946"/>
		</g>
		<g>
			<rect x="160.2919769" y="408.329071" class="st1" width="10.3007946" height="10.3007946"/>
		</g>
		<g>
			<rect x="174.1447754" y="408.329071" class="st1" width="10.3007946" height="10.3007946"/>
		</g>
	</g>
	<g>
		<g>
			<rect x="91.1248932" y="359.3437805" class="st1" width="10.3007946" height="10.3007946"/>
		</g>
		<g>
			<rect x="104.977684" y="359.3437805" class="st1" width="10.3007946" height="10.3007946"/>
		</g>
		<g>
			<rect x="91.1248932" y="373.1965942" class="st1" width="10.3007946" height="10.3007946"/>
		</g>
		<g>
			<rect x="104.977684" y="373.1965942" class="st1" width="10.3007946" height="10.3007946"/>
		</g>
	</g>
	<g>
		<g>
			<rect x="160.2919769" y="359.3437805" class="st1" width="10.3007946" height="10.3007946"/>
		</g>
		<g>
			<rect x="174.1447754" y="359.3437805" class="st1" width="10.3007946" height="10.3007946"/>
		</g>
		<g>
			<rect x="160.2919769" y="373.1965942" class="st1" width="10.3007946" height="10.3007946"/>
		</g>
		<g>
			<rect x="174.1447754" y="373.1965942" class="st1" width="10.3007946" height="10.3007946"/>
		</g>
	</g>
	<g>
		<rect x="123.5126572" y="394.4762878" class="st1" width="28.5451469" height="48.3071747"/>
	</g>
	<path class="st5" d="M94.1758118,452.8856201h-8c-4.3999939,0-8-3.5999756-8-8v-8c0-4.3999939,3.6000061-8,8-8h8
		c4.4000015,0,8,3.6000061,8,8v8C102.1758118,449.2856445,98.5758133,452.8856201,94.1758118,452.8856201z"/>
	<rect x="115.1758118" y="438.8856201" class="st6" width="4" height="18"/>
	<path class="st5" d="M121.1758118,452.8856201h-8c-4.3999939,0-8-3.5999756-8-8v-8c0-4.3999939,3.6000061-8,8-8h8
		c4.4000015,0,8,3.6000061,8,8v8C129.1758118,449.2856445,125.5758133,452.8856201,121.1758118,452.8856201z"/>
	<rect x="164.1758118" y="438.8856201" class="st6" width="4" height="18"/>
	<path class="st5" d="M170.1758118,452.8856201h-8c-4.3999939,0-8-3.5999756-8-8v-8c0-4.3999939,3.6000061-8,8-8h8
		c4.4000092,0,8,3.6000061,8,8v8C178.1758118,449.2856445,174.5758209,452.8856201,170.1758118,452.8856201z"/>
	<rect x="191.1758118" y="438.8856201" class="st6" width="4" height="18"/>
	<path class="st5" d="M197.1758118,452.8856201h-8c-4.3999939,0-8-3.5999756-8-8v-8c0-4.3999939,3.6000061-8,8-8h8
		c4.4000092,0,8,3.6000061,8,8v8C205.1758118,449.2856445,201.5758209,452.8856201,197.1758118,452.8856201z"/>
</g>
</svg>
