<svg xmlns="http://www.w3.org/2000/svg" width="44.677" height="48.497" viewBox="0 0 44.677 48.497">
  <path id="Path_2369" data-name="Path 2369" d="M44.578,21.394a17.006,17.006,0,0,0-.485-2.792,17.931,17.931,0,0,0-1.252-3.345,18.473,18.473,0,0,0-2.348-3.569,18.058,18.058,0,0,0-1.268-1.367,7.041,7.041,0,0,0-.83-5.062,7.48,7.48,0,0,0-4.884,1.258c-.1-.042-.2-.089-.308-.13-.444-.183-.9-.35-1.372-.5s-.95-.282-1.44-.4-.991-.214-1.5-.292c-.089-.016-.177-.026-.266-.037A9.072,9.072,0,0,0,24.217,0a9.678,9.678,0,0,0-4.336,5.547s-.016.073-.037.193c-.2.057-.4.115-.605.177-.282.083-.553.188-.835.287s-.553.214-.83.334a17.376,17.376,0,0,0-1.628.8q-.775.438-1.518.955c-.073-.031-.125-.057-.125-.057a12.6,12.6,0,0,0-9.528.391,13.792,13.792,0,0,0,2.494,9.361c-.12.334-.23.668-.334,1.007a22.919,22.919,0,0,0-.824,3.757c-.026.183-.047.37-.068.558A12.483,12.483,0,0,0,0,30.333a13.3,13.3,0,0,0,8.427,4.754c.005-.005.01-.005.01-.01A20.621,20.621,0,0,0,10.431,38c.313.381.647.751.986,1.106a10.494,10.494,0,0,0,.2,7.436,12.087,12.087,0,0,0,7.775-2.369c.433.146.866.277,1.31.391a19.825,19.825,0,0,0,4.054.605c.339.016.678.021,1.023.021h.167l.11-.005.214-.005.214-.01.005.005a8.717,8.717,0,0,0,5.63,3.324,8.979,8.979,0,0,0,2.7-5.938h0v-.12h0c0-.042-.005-.078-.005-.125A15.737,15.737,0,0,0,36.339,41.1a16,16,0,0,0,2.656-3.11c.068-.1.136-.214.2-.324a7.127,7.127,0,0,0,4.926-1.79,7.554,7.554,0,0,0-2.552-4.759h0l-.037-.026a.319.319,0,0,1-.031-.026h0a.435.435,0,0,1-.063-.042c.016-.183.031-.36.042-.543q.031-.485.031-.971v-.506l-.01-.2-.016-.271c-.005-.094-.01-.177-.021-.261s-.016-.167-.026-.25l-.031-.25-.037-.25c-.047-.329-.115-.657-.188-.986a12.459,12.459,0,0,0-3.914-6.549A12.28,12.28,0,0,0,34.184,18a12.011,12.011,0,0,0-3.413-.96,12.753,12.753,0,0,0-1.722-.1l-.214.005H28.71l-.089.005-.209.016c-.078.005-.162.01-.235.021a7.866,7.866,0,0,0-.866.125,9.623,9.623,0,0,0-5.63,3.282,9.521,9.521,0,0,0-1.555,2.625,9.332,9.332,0,0,0-.616,2.807c-.016.23-.021.464-.016.689,0,.057,0,.115.005.172l.005.188c.01.11.016.224.026.334a7.7,7.7,0,0,0,.256,1.357,7.264,7.264,0,0,0,2.875,3.976,6.976,6.976,0,0,0,3.929,1.216c.078,0,.157,0,.235-.005.042,0,.083-.005.125-.005s.083-.005.125-.005c.068-.005.13-.016.2-.021.016,0,.037-.005.057-.005l.063-.01.12-.016c.083-.01.151-.026.23-.042s.146-.026.219-.047a3.511,3.511,0,0,0,.417-.12,5.625,5.625,0,0,0,.767-.318,6.2,6.2,0,0,0,.663-.4c.057-.042.115-.083.172-.13a.5.5,0,0,0-.548-.824c-.052.026-.1.057-.157.083a4.714,4.714,0,0,1-.574.235,5.875,5.875,0,0,1-.631.157c-.11.016-.219.031-.334.042-.057.005-.115.01-.167.01s-.115.005-.167.005-.11,0-.162-.005c-.068-.005-.136-.005-.2-.01h-.026l-.047-.005c-.031-.005-.063-.005-.089-.01-.063-.005-.12-.016-.183-.021a5.256,5.256,0,0,1-3.867-2.64,5.027,5.027,0,0,1-.574-1.654,4.69,4.69,0,0,1-.057-.9c.005-.083.005-.162.01-.245V26.8l.005-.063c.005-.042.005-.078.01-.12.016-.162.042-.324.068-.485a6.366,6.366,0,0,1,1.863-3.486,6.452,6.452,0,0,1,.8-.652,6.2,6.2,0,0,1,.9-.517,6.007,6.007,0,0,1,.986-.355,6.362,6.362,0,0,1,1.038-.183c.177-.016.355-.021.532-.021h.12l.146.005.089.005h.052l.146.01a7.68,7.68,0,0,1,1.138.172,8.192,8.192,0,0,1,2.166.819,7.948,7.948,0,0,1,3.235,3.36,7.651,7.651,0,0,1,.736,2.259c.031.2.052.4.068.595l.01.151.005.151a1.466,1.466,0,0,1,.005.151,1.26,1.26,0,0,1,0,.141v.13l-.005.146c-.005.1-.01.256-.016.355-.016.219-.037.433-.063.652s-.063.428-.1.642-.089.423-.141.631a9.495,9.495,0,0,1-.4,1.237,10.5,10.5,0,0,1-1.258,2.286,10.327,10.327,0,0,1-4.028,3.3,9.965,9.965,0,0,1-3.814.9l-.083.005h-.579c-.235-.005-.47-.016-.7-.037a13.318,13.318,0,0,1-2.76-.5,13.712,13.712,0,0,1-8.37-6.914,13.861,13.861,0,0,1-.991-2.557,13.45,13.45,0,0,1-.449-2.687l-.01-.172-.005-.042v-.11l-.005-.151v-.193l-.005-.209v-.141c0-.11.005-.219.005-.334a13.67,13.67,0,0,1,.115-1.367c.057-.459.136-.924.23-1.383s.209-.913.334-1.357a17.664,17.664,0,0,1,.955-2.578,14.134,14.134,0,0,1,2.943-4.242,11.527,11.527,0,0,1,.929-.824c.318-.256.652-.5,1-.72a11.25,11.25,0,0,1,1.059-.621c.177-.1.365-.183.548-.271l.282-.125c.094-.042.188-.083.282-.12.376-.162.767-.292,1.158-.417.1-.031.2-.057.3-.089s.2-.052.3-.083c.2-.057.4-.1.6-.151.1-.026.2-.047.3-.068l.3-.063c.1-.021.2-.037.308-.057l.151-.026.151-.021.308-.047c.115-.021.23-.026.344-.047l.344-.042c.073-.005.146-.016.219-.021l.146-.016.073-.005.083-.005c.115-.005.23-.016.35-.021l.172-.01h.047l.073-.005.3-.016q.587-.016,1.174,0a15.556,15.556,0,0,1,2.28.256,15.884,15.884,0,0,1,4.138,1.378,16.526,16.526,0,0,1,3.376,2.2c.063.052.12.1.183.157s.12.1.177.157c.12.1.235.214.35.318s.224.214.334.324.219.219.318.329a17.59,17.59,0,0,1,1.148,1.336,17.241,17.241,0,0,1,1.7,2.661c.026.052.057.1.083.162s.052.1.078.162c.052.1.1.209.151.313s.1.209.141.308.089.2.13.3c.167.4.318.783.438,1.143.2.579.355,1.106.47,1.565a.384.384,0,0,0,.757-.083C44.646,22.626,44.636,22.052,44.578,21.394Z" fill="#fff"/>
</svg>
