<?xml version="1.0" encoding="utf-8"?>
<!-- Generator: Adobe Illustrator 22.1.0, SVG Export Plug-In . SVG Version: 6.00 Build 0)  -->
<svg version="1.1"
	 id="svg2" inkscape:version="0.47 r22583" sodipodi:docname="Neues Dokument 1" xmlns:cc="http://creativecommons.org/ns#" xmlns:dc="http://purl.org/dc/elements/1.1/" xmlns:inkscape="http://www.inkscape.org/namespaces/inkscape" xmlns:rdf="http://www.w3.org/1999/02/22-rdf-syntax-ns#" xmlns:sodipodi="http://sodipodi.sourceforge.net/DTD/sodipodi-0.dtd" xmlns:svg="http://www.w3.org/2000/svg"
	 xmlns="http://www.w3.org/2000/svg" xmlns:xlink="http://www.w3.org/1999/xlink" x="0px" y="0px" viewBox="0 0 1602.7 741.7"
	 style="enable-background:new 0 0 1602.7 741.7;" xml:space="preserve">
<style type="text/css">
	.st0{fill:#326DE6;}
	.st1{fill:#FFFFFF;}
	.st2{stroke:#FFFFFF;stroke-miterlimit:10;}
	.st3{fill:none;stroke:#A49FFF;stroke-width:4;stroke-miterlimit:10;}
	.st4{fill:none;stroke:#4E2AFF;stroke-width:4;stroke-miterlimit:10;}
</style>
<g>
	<path class="st0" d="M995.1,696.4c-5.9,0-11.6-2.6-15.4-7.4l-57.8-71.8c-3.8-4.8-5.3-10.9-3.8-16.8l20.6-89.7
		c1.3-5.9,5.3-10.7,10.7-13.4l83.6-40c2.6-1.3,5.6-2,8.6-2s5.9,0.7,8.6,2l83.6,39.8c5.5,2.6,9.4,7.4,10.7,13.4l20.6,89.7
		c1.3,5.9,0,12.1-3.8,16.8l-57.8,71.8c-3.8,4.6-9.4,7.4-15.4,7.4L995.1,696.4L995.1,696.4z"/>
	<path class="st1" d="M1041.5,459.4c2.3,0,4.6,0.5,6.8,1.5l83.6,39.8c4.3,2.1,7.6,6.1,8.6,10.7l20.6,89.7c1.2,4.8,0,9.7-3.1,13.5
		l-57.8,71.8c-3,3.8-7.6,5.9-12.4,5.9h-92.7c-4.8,0-9.4-2.1-12.4-5.9l-57.8-71.8c-3-3.8-4.1-8.8-3.1-13.5l20.6-89.7
		c1.2-4.8,4.3-8.8,8.6-10.7l83.6-40C1036.7,459.8,1039.2,459.4,1041.5,459.4L1041.5,459.4z M1041.5,451.6L1041.5,451.6
		c-3.5,0-6.9,0.8-10.2,2.3l-83.6,40c-6.6,3.1-11.2,8.9-12.9,16l-20.6,89.7c-1.7,7.1,0,14.4,4.6,20.1l57.8,71.8
		c4.5,5.6,11.2,8.8,18.3,8.8h92.7c7.1,0,13.9-3.1,18.3-8.8l57.8-71.8c4.6-5.6,6.3-13,4.6-20.1l-20.6-89.7c-1.7-7.1-6.3-12.9-12.9-16
		l-83.2-40C1048.4,452.4,1045,451.6,1041.5,451.6L1041.5,451.6L1041.5,451.6z"/>
	<path class="st1" d="M1125.2,594L1125.2,594L1125.2,594C1125.1,594,1125.1,594,1125.2,594h-0.2c-0.2,0-0.3,0-0.3-0.2
		c-0.3,0-0.7-0.2-1-0.2c-1.2-0.2-2.1-0.3-3.1-0.3c-0.5,0-1,0-1.7-0.2h-0.2c-3.5-0.3-6.3-0.7-8.9-1.5c-1.2-0.5-1.5-1.2-1.8-1.8
		c0-0.2-0.2-0.2-0.2-0.3l0,0l-2.1-0.7c1-7.6,0.7-15.5-1.2-23.3c-1.8-7.8-5-15-9.2-21.6l1.7-1.5v-0.3c0-0.8,0.2-1.7,0.8-2.5
		c2-1.8,4.5-3.3,7.4-5.1l0,0c0.5-0.3,1-0.5,1.5-0.8c1-0.5,1.8-1,2.8-1.7c0.2-0.2,0.5-0.3,0.8-0.7c0.2-0.2,0.3-0.2,0.3-0.3l0,0
		c2.3-2,2.8-5.3,1.2-7.4c-0.8-1.2-2.3-1.8-3.8-1.8c-1.3,0-2.5,0.5-3.6,1.3l0,0l0,0c-0.2,0.2-0.2,0.2-0.3,0.3
		c-0.3,0.2-0.5,0.5-0.8,0.7c-0.8,0.8-1.5,1.5-2.1,2.3c-0.3,0.3-0.7,0.8-1.2,1.2l0,0c-2.3,2.5-4.5,4.5-6.6,5.9
		c-0.5,0.3-1,0.5-1.5,0.5c-0.3,0-0.7,0-1-0.2h-0.3l0,0l-2,1.3c-2.1-2.3-4.5-4.3-6.8-6.3c-9.9-7.8-22-12.6-34.5-13.7l-0.2-2.1
		c-0.2-0.2-0.2-0.2-0.3-0.3c-0.5-0.5-1.2-1-1.3-2.1c-0.2-2.6,0.2-5.6,0.5-8.9v-0.2c0-0.5,0.2-1.2,0.3-1.7c0.2-1,0.3-2,0.5-3.1v-1
		v-0.5l0,0l0,0c0-3-2.3-5.5-5.1-5.5c-1.3,0-2.6,0.7-3.6,1.7s-1.5,2.3-1.5,3.8l0,0l0,0v0.3v1c0,1.2,0.2,2.1,0.5,3.1
		c0.2,0.5,0.2,1,0.3,1.7v0.2c0.3,3.3,0.8,6.3,0.5,8.9c-0.2,1.2-0.8,1.7-1.3,2.1c-0.2,0.2-0.2,0.2-0.3,0.3l0,0l-0.2,2.1
		c-3,0.3-5.9,0.7-8.9,1.3c-12.7,2.8-23.9,9.2-32.7,18.5l-1.7-1.2h-0.3c-0.3,0-0.7,0.2-1,0.2c-0.5,0-1-0.2-1.5-0.5
		c-2.1-1.5-4.3-3.6-6.6-6.1l0,0c-0.3-0.3-0.7-0.8-1.2-1.2c-0.7-0.8-1.3-1.5-2.1-2.3c-0.2-0.2-0.5-0.3-0.8-0.7
		c-0.2-0.2-0.3-0.2-0.3-0.3l0,0c-1-0.8-2.3-1.3-3.6-1.3c-1.5,0-3,0.7-3.8,1.8c-1.7,2.1-1.2,5.5,1.2,7.4l0,0l0,0
		c0.2,0,0.2,0.2,0.3,0.2c0.3,0.2,0.5,0.5,0.8,0.7c1,0.7,1.8,1.2,2.8,1.7c0.5,0.2,1,0.5,1.5,0.8l0,0c3,1.8,5.5,3.3,7.4,5.1
		c0.8,0.8,0.8,1.7,0.8,2.5v0.3l0,0l1.7,1.5c-0.3,0.5-0.7,0.8-0.8,1.3c-8.3,13-11.4,28.4-9.2,43.6l-2.1,0.7c0,0.2-0.2,0.2-0.2,0.3
		c-0.3,0.7-0.8,1.3-1.8,1.8c-2.5,0.8-5.5,1.2-8.9,1.5h-0.2c-0.5,0-1.2,0-1.7,0.2c-1,0-2,0.2-3.1,0.3c-0.3,0-0.7,0.2-1,0.2
		c-0.2,0-0.3,0-0.5,0.2l0,0l0,0c-3,0.7-4.8,3.5-4.3,6.1c0.5,2.3,2.6,3.8,5.3,3.8c0.5,0,0.8,0,1.3-0.2l0,0l0,0c0.2,0,0.3,0,0.3-0.2
		c0.3,0,0.7-0.2,1-0.2c1.2-0.3,2-0.7,3-1.2c0.5-0.2,1-0.5,1.5-0.7h0.2c3.1-1.2,5.9-2.1,8.6-2.5h0.3c1,0,1.7,0.5,2.1,0.8
		c0.2,0,0.2,0.2,0.3,0.2l0,0l2.3-0.3c4,12.2,11.6,23.1,21.6,31.1c2.3,1.8,4.6,3.3,7.1,4.8l-1,2.1c0,0.2,0.2,0.2,0.2,0.3
		c0.3,0.7,0.7,1.5,0.3,2.6c-1,2.5-2.5,5-4.3,7.8v0.2c-0.3,0.5-0.7,0.8-1,1.3c-0.7,0.8-1.2,1.7-1.8,2.6c-0.2,0.2-0.3,0.5-0.5,0.8
		c0,0.2-0.2,0.3-0.2,0.3l0,0l0,0c-1.3,2.8-0.3,5.9,2.1,7.1c0.7,0.3,1.3,0.5,2,0.5c2,0,4-1.3,5-3.1l0,0l0,0c0-0.2,0.2-0.3,0.2-0.3
		c0.2-0.3,0.3-0.7,0.5-0.8c0.5-1.2,0.7-2,1-3c0.2-0.5,0.3-1,0.5-1.5l0,0c1.2-3.3,2-5.9,3.5-8.3c0.7-1,1.5-1.2,2.1-1.5
		c0.2,0,0.2,0,0.3-0.2l0,0l1.2-2.1c7.3,2.8,15.2,4.3,23.1,4.3c4.8,0,9.7-0.5,14.4-1.7c3-0.7,5.8-1.5,8.6-2.5l1,1.8
		c0.2,0,0.2,0,0.3,0.2c0.8,0.2,1.5,0.5,2.1,1.5c1.3,2.3,2.3,5.1,3.5,8.3v0.2c0.2,0.5,0.3,1,0.5,1.5c0.3,1,0.5,2,1,3
		c0.2,0.3,0.3,0.5,0.5,0.8c0,0.2,0.2,0.3,0.2,0.3l0,0l0,0c1,2,3,3.1,5,3.1c0.7,0,1.3-0.2,2-0.5c1.2-0.7,2.1-1.7,2.5-3
		s0.3-2.8-0.3-4.1l0,0l0,0c0-0.2-0.2-0.2-0.2-0.3c-0.2-0.3-0.3-0.7-0.5-0.8c-0.5-1-1.2-1.8-1.8-2.6c-0.3-0.5-0.7-0.8-1-1.3V648
		c-1.8-2.8-3.5-5.3-4.3-7.8c-0.3-1.2,0-1.8,0.2-2.6c0-0.2,0.2-0.2,0.2-0.3l0,0l-0.8-2c8.8-5.1,16.2-12.4,21.8-21.3
		c3-4.6,5.3-9.7,6.9-14.9l2,0.3c0.2,0,0.2-0.2,0.3-0.2c0.7-0.3,1.2-0.8,2.1-0.8h0.3c2.6,0.3,5.5,1.3,8.6,2.5h0.2
		c0.5,0.2,1,0.5,1.5,0.7c1,0.5,1.8,0.8,3,1.2c0.3,0,0.7,0.2,1,0.2c0.2,0,0.3,0,0.5,0.2l0,0c0.5,0.2,0.8,0.2,1.3,0.2
		c2.5,0,4.6-1.7,5.3-3.8C1130,597.4,1128.2,594.8,1125.2,594L1125.2,594z M1048.8,585.9l-7.3,3.5l-7.3-3.5l-1.8-7.8l5-6.3h8.1l5,6.3
		L1048.8,585.9L1048.8,585.9z M1091.9,568.7c1.3,5.6,1.7,11.2,1.2,16.7l-25.3-7.3c-2.3-0.7-3.6-3-3.1-5.3c0.2-0.7,0.5-1.3,1-1.8
		l20-18C1088.4,557.6,1090.5,562.9,1091.9,568.7L1091.9,568.7z M1077.7,543.1l-21.6,15.4c-1.8,1.2-4.3,0.8-5.8-1
		c-0.5-0.5-0.7-1.2-0.8-1.8l-1.5-26.9C1059.3,530,1069.7,535.2,1077.7,543.1L1077.7,543.1z M1029.8,529.5c1.8-0.3,3.5-0.7,5.3-1
		l-1.5,26.4c-0.2,2.3-2,4.3-4.5,4.3c-0.7,0-1.5-0.2-2-0.5l-22-15.7C1011.9,536.3,1020.4,531.7,1029.8,529.5L1029.8,529.5z
		 M997.2,553l19.7,17.5c1.8,1.5,2,4.3,0.5,6.1c-0.5,0.7-1.2,1.2-2,1.3l-25.6,7.4C988.8,574.1,991.3,562.7,997.2,553L997.2,553z
		 M992.8,597.8l26.3-4.5c2.1-0.2,4.1,1.3,4.6,3.5c0.2,1,0.2,1.8-0.2,2.6l0,0l-10.1,24.3C1004.2,617.7,996.7,608.7,992.8,597.8
		L992.8,597.8z M1053.1,630.6c-3.8,0.8-7.6,1.3-11.6,1.3c-5.8,0-11.4-1-16.7-2.6l13-23.6c1.3-1.5,3.5-2.1,5.3-1.2
		c0.8,0.5,1.5,1.2,2,1.8l0,0l12.7,23C1056.4,629.8,1054.7,630.1,1053.1,630.6L1053.1,630.6z M1085.3,607.7
		c-4.1,6.6-9.6,11.9-15.9,16l-10.4-24.9c-0.5-2,0.3-4.1,2.3-5.1c0.7-0.3,1.5-0.5,2.3-0.5l26.4,4.5
		C1089.1,601.2,1087.4,604.5,1085.3,607.7L1085.3,607.7z"/>
</g>
<defs>
	
	
		<inkscape:perspective  id="perspective10" inkscape:persp3d-origin="372.04724 : 350.78739 : 1" inkscape:vp_x="0 : 526.18109 : 1" inkscape:vp_y="0 : 1000 : 0" inkscape:vp_z="744.09448 : 526.18109 : 1" sodipodi:type="inkscape:persp3d">
		</inkscape:perspective>
	
		<inkscape:perspective  id="perspective2824" inkscape:persp3d-origin="0.5 : 0.33333333 : 1" inkscape:vp_x="0 : 0.5 : 1" inkscape:vp_y="0 : 1000 : 0" inkscape:vp_z="1 : 0.5 : 1" sodipodi:type="inkscape:persp3d">
		</inkscape:perspective>
</defs>
<sodipodi:namedview  bordercolor="#666666" borderopacity="1.0" id="base" inkscape:current-layer="layer1" inkscape:cx="625.17606" inkscape:cy="518.80927" inkscape:document-units="px" inkscape:pageopacity="0.0" inkscape:pageshadow="2" inkscape:window-height="749" inkscape:window-maximized="1" inkscape:window-width="1366" inkscape:window-x="-4" inkscape:window-y="-4" inkscape:zoom="0.35" pagecolor="#ffffff" showgrid="false">
	</sodipodi:namedview>
<g id="layer1" transform="translate(275.17606,-309.45844)" inkscape:groupmode="layer" inkscape:label="Ebene 1">
	<path id="path2830" class="st2" d="M103,1028.3c-6-2.2-7.7-4.4-6.3-8.2c0.7-1.7,1.9-3.2,2.8-3.2c0.9,0,4.8,2,8.7,4.5
		c3.9,2.5,8.6,5.1,10.5,5.8l3.5,1.3l-4.3,0.1c-2.4,0.1-5.8,0.3-7.7,0.6S105.2,1029.1,103,1028.3L103,1028.3z M89.4,1016.7
		c-1.1-0.6-3-0.8-4.2-0.5c-1.5,0.5-2.6-0.2-3.7-2.3c-0.9-1.6-2.4-3.2-3.5-3.6c-2.4-0.8-7.3-8.9-10.1-16.4c-1.4-3.8-3.3-6.4-5.5-7.7
		c-4-2.2-4.2-3.3-1.2-4.2c3.5-1.1,4.2-7.3,1.2-11.4c-1.4-2-2.1-4.3-1.7-5.4c0.5-1.3-0.9-3.6-4.2-7c-4.2-4.3-5-5.9-5.2-10.4
		c-0.1-2.9-0.8-6.1-1.6-7c-0.9-1.1-1.1-5.2-0.6-13.3c0.6-8.8,0.2-14.2-1.3-21.7c-2.3-11.2-3.4-32.1-2.8-51.1
		c0.1-4.1-0.4-9.6-1.2-12.4c-1.9-6.7-10.5-15.2-21.1-20.8c-7.6-4-8.7-5-11.7-11.2c-1.8-3.7-5.2-9.3-7.7-12.4c-2.4-3.1-5-7.6-5.8-10
		c-2.5-7.8-6.9-15.6-10-17.5c-1.6-1.1-3.4-3.8-4.1-6.1c-1-3.7-0.8-4.7,2.5-9.4c3.5-5.1,3.5-5.3,1.2-5.9c-5.8-1.5-3.3-9.2,7-22.3
		c6.9-8.7,8.9-15.3,7-23c-0.7-2.9-1.4-6-1.4-6.8c-0.1-0.8-0.6-1.5-1.2-1.5s-0.5-1.1,0.2-2.4c1.1-2,0.8-2.6-1.8-3.8
		c-3.8-1.7-9.4,0-9.5,2.8c0,3.4-1.5,3.7-6.5,1.1c-2.6-1.4-5.4-2.5-6.1-2.5c-0.7,0-3.5-1.9-6.2-4.2c-2.7-2.3-5.5-4.7-6.3-5.4
		c-0.8-0.6-1.5-2.4-1.5-3.9s-1-3.7-2.3-4.8c-1.3-1.2-2.9-3.9-3.7-6.2c-1-3-1.7-3.7-2.6-2.8c-1.9,1.9-4.8,1.6-11.8-1.5
		c-3.7-1.6-7.5-4.4-9-6.5c-1.5-2-4.2-4.5-6.2-5.5c-3.2-1.7-4-1.6-8.7,0.1l-5.1,2l-15.8-7.6c-9.7-4.7-17.2-9.2-19.5-11.6
		c-3.6-3.8-3.7-4.2-2.5-9c1.1-4.3,0.9-5.7-1.5-10.6c-1.5-3.1-4.8-7.9-7.3-10.6s-4.3-5.4-3.9-6c0.3-0.6-1.4-4.4-3.9-8.5
		c-2.9-4.7-4.9-9.6-5.4-13.3c-0.6-4.7-1.4-6.1-3.8-7.2c-2.5-1.1-3.2-1-4.7,1c-2,2.8-1.5,5.7,3,15.4c1.8,3.9,3.7,9.8,4.2,13
		c0.5,3.2,1.9,7.8,3.1,10.3c3,5.8,1,5.7-3.6-0.2c-2.8-3.5-3.5-5.4-3-7.6c0.6-2.3,0-3.5-2.9-5.6c-4.3-3.2-5.3-5.3-3.7-8.3
		c0.9-1.7,0.5-3.6-1.9-8.3c-2.4-4.7-2.9-7-2.3-10.5c1-5.7-1.6-10.9-6.4-12.9c-2.8-1.1-3.7-2.4-4.3-5.8c-0.4-2.4-1.2-6-1.7-8.1
		c-0.6-2.2-0.5-4.1,0.1-4.5c0.6-0.4,0.2-2-0.9-3.6c-1.6-2.4-1.7-3.5-0.6-5.9c0.7-1.6,1-3.5,0.6-4.2c-0.4-0.7,0.6-2.6,2.2-4.3
		s3.8-5.2,4.8-7.7s4.2-7.1,7-10.3c2.8-3.2,6.4-8.7,8-12.3c2.2-5,3.4-6.5,5.4-6.6c1.4,0,2.5,0.6,2.4,1.5c-0.4,3.4,2.3,2.3,5.3-2.1
		c1.8-2.6,2.7-4.9,2.1-5.1c-0.6-0.2-1.1-1.2-1.1-2.2s-2.4-4.2-5.4-7.1c-5-4.8-5.3-5.5-3.6-7.3c1.3-1.5,1.5-2.6,0.6-4.1
		c-1.6-2.8,0.9-9.1,3.6-9.1c1.1,0,1.4-0.4,0.7-0.9c-1.5-1.1-2.2-3.7-2-7.4c0.3-5.9-1-8.4-5.3-10.2c-2.4-1-6-3.1-8-4.6
		s-4.7-2.8-5.8-2.8c-1.1,0-6.3-1.1-11.4-2.4c-8.3-2.1-9.7-2.2-12.6-0.7c-5.9,3.1-12.2,4.3-14.8,2.9c-1.9-1-4-0.4-11.3,3.4
		c-4.9,2.6-10.8,5.1-13.1,5.6c-2.3,0.5-6.6,2.1-9.7,3.7c-8.6,4.4-21,8.7-24.4,8.7c-2.2,0-0.7-1,5.2-3.3c10-4,20.2-9.1,21.2-10.7
		c1.2-1.9-1.4-2.6-4.4-1.2c-2.2,1-3.6,0.9-6.2-0.4l-3.3-1.7l3.6-1.9c4.1-2.1,5.4-4.5,4.4-8.3c-0.9-3.6,4.1-6.3,14.9-7.9
		c5.8-0.9,10.2-2.3,13.2-4.4c5.2-3.6,4.3-6.3-1.3-3.9c-2.7,1.1-4.6,1.1-8.6,0.1c-4.8-1.3-5-1.5-2.8-3.1c3.6-2.6,11.1-4.2,16-3.4
		c3.1,0.5,5.6,0.2,8.3-1.2l3.8-1.9l-2.5-2.6c-1.4-1.5-2.5-3-2.5-3.3c0-1.1,7.1-3.3,10.7-3.3c1.8,0,6.6-1.3,10.8-2.9
		c4.2-1.6,13.8-3.7,21.4-4.8c12.3-1.7,14.9-1.7,24.2-0.2c5.7,0.9,13.5,2.1,17.4,2.5s10.8,1.8,15.3,3c10.5,2.9,17.4,2.9,29.2-0.1
		c5.2-1.3,10.4-2.1,11.7-1.7c1.2,0.4,3.3,0.1,4.6-0.6c1.8-1,3.2-0.9,5.8,0.5c2.3,1.2,5.2,1.6,9.2,1.1c4.2-0.5,7.8,0,13.1,1.8
		c4,1.4,8.5,2.5,10,2.5c2.6,0,2.6,0,0.3,1.7c-2.2,1.6-2.2,1.7-0.1,2.5c1.2,0.5,5.3,0.5,9.1,0.1c6.9-0.7,7-0.7,8.9,3l1.9,3.8l2.5-3.2
		c1.5-1.8,4.9-3.9,8.1-4.8c4.9-1.5,6.3-1.5,11.2,0c3.4,1.1,7.6,1.4,10.6,1c3.9-0.6,5.7-0.2,8.3,1.6c3.2,2.3,3.3,2.3,6.2,0.1
		c1.6-1.2,4.9-2.8,7.3-3.5c5.8-1.6,7.8-5.1,4.3-7.5c-2.5-1.7-2.4-1.9,4.1-5c4.8-2.4,7-2.9,8-2s0.9,2,0,3.8c-1.6,3.1,0.4,7.7,3,6.8
		c0.9-0.4,2.5-0.3,3.4,0c1.5,0.6,1.5,1.1-0.2,3.6c-4.5,6.9,5.6,5,12.5-2.4c2.8-3,7.1-3.9,11.2-2.4c2.6,1,2.4,1.8-2,6.6
		c-5.2,5.7-7.8,6.8-15.6,6.8c-3.8,0-8.2,0.8-10.3,1.9c-2.9,1.5-4.3,1.6-6.5,0.6c-4.2-1.9-5.7-0.3-2.7,2.9l2.6,2.7l-5.1,1.5
		c-2.8,0.8-7.5,1.5-10.5,1.6c-4.2,0.1-5.3,0.6-5.3,2.3c0,1.4-2.1,2.9-6.5,4.8c-14.3,5.9-26.5,16.4-22.1,19.2
		c0.8,0.5,2.1,2.4,2.9,4.2c0.9,2,2.6,3.5,4.7,3.9c1.8,0.4,6.5,2.2,10.4,4.1s8.7,3.8,10.6,4.3c5.4,1.2,5.4,1.3,2.9,7.6
		c-2.1,5.4-2.2,6.2-0.5,9.4c1,1.9,2.5,3.5,3.3,3.4c3.9-0.1,7.5-3.7,9.8-9.6c2.1-5.6,3.1-6.7,9.3-10c9.1-4.9,12.9-9.7,11.9-15
		c-0.7-3.5-0.3-4.3,2.7-6.5c1.9-1.3,4.4-4.6,5.6-7.2c2.6-5.8,6.8-7.8,13.9-6.6c6.3,1,13.7,5,14.6,7.8c0.4,1.2,0.1,3.2-0.7,4.6
		c-1.1,2.1-0.9,3,1.3,5.3l2.6,2.8l4.3-2.2c2.4-1.2,6.1-3.6,8.4-5.3l4.1-3.1l1,2.6c0.5,1.4,0.7,3.3,0.3,4.2c-0.3,0.9-0.1,2.7,0.6,3.9
		c0.8,1.4,0.8,3,0.2,4.2c-0.7,1.3-0.2,3.4,1.7,6.7c2.7,4.8,2.7,4.8,0.3,6.5c-3.1,2.2-1.1,4.5,2.3,2.7c3.4-1.8,7.4-1.6,9.8,0.6
		c3.6,3.2,0.6,7.1-8.9,11.6c-10.3,4.9-14.9,5.8-28.4,5.9c-10,0.1-11.3,0.4-21,5c-5.7,2.7-10.3,5.4-10.3,6c0,2.4,1.8,2.2,8.7-1
		c4-1.9,9.3-3.4,11.8-3.4c4.2,0,4.4,0.1,3.1,2.6c-0.8,1.4-2.4,3.4-3.7,4.5c-2,1.6-2.1,2.3-0.9,5c1.9,4.1,6.7,6,12.5,5.1l4.6-0.8
		l-3.5,2.4c-1.9,1.3-5.1,2.8-7.1,3.2c-2,0.4-6,2-9,3.5c-3,1.5-6,2.3-6.8,1.8c-1.9-1.2,0.1-2.9,6.2-5.4c5.4-2.3,4.5-4.7-1.3-3.6
		c-2.3,0.4-9.6,3.2-16.3,6.2c-10.5,4.6-12.3,5.8-12.9,8.6c-0.8,3.4-3.3,5-12.3,7.8c-2.9,0.9-6.6,3-8.3,4.7s-4.9,4.3-7.1,5.7
		c-2.2,1.4-4.4,3.9-4.8,5.5c-0.6,2.7-0.8,2.7-1.6,0.7c-1.5-3.8-3.7-0.1-3.8,6.5c-0.1,6.7-3.5,11.3-11,14.8
		c-7.7,3.6-18.6,12.1-20.8,16.2c-1.9,3.6-2,5-0.8,14.3c1.1,8.7,1.1,10.9-0.4,13.7c-1.1,2.1-2.4,3.1-3.5,2.7c-2.5-1-5.6-11.4-4.8-16
		c0.6-3.2,0.2-4.4-2.2-6.7c-1.9-1.8-3.7-2.5-5.2-2c-1.3,0.4-4.8-0.4-8-1.7c-4.8-2-6.3-2.2-9.7-1.1c-2.3,0.8-4.6,2.6-5.3,4.2
		c-1.1,2.5-1.9,2.8-4.9,2.1c-2-0.4-5.1-1.5-6.8-2.4c-4.3-2.2-6.7-2.1-11.6,0.7c-2.3,1.3-6.9,3.8-10.3,5.5c-3.9,2-6.6,4.3-7.3,6.2
		c-0.6,1.7-2.8,8.2-4.8,14.4l-3.7,11.4l1.9,7.4c3.5,13.5,8.4,17.6,18.5,15.4c7.7-1.6,12.2-5,13.9-10.1c1.1-3.3,2.2-4.3,5.7-5.3
		c5.2-1.4,7.4-1.5,9.4-0.2c1.7,1,1.1,2.8-6.3,18.8c-5.1,11-4.7,12,4,10.7c7.9-1.1,15.2-0.3,16,1.9c0.3,0.9-0.2,6.7-1.2,12.9
		c-1.8,11.1-1.8,11.4,0.8,15.5c1.4,2.3,4.1,5,5.9,5.9c2.9,1.5,3.8,1.5,7.5,0c5.8-2.4,9-2.2,13.1,1.1c3.2,2.6,3.7,2.7,6.3,1
		c1.5-1,3.6-3.5,4.6-5.5c2.3-4.5,6.1-7.7,9.4-7.8c1.3,0,3.7-1.4,5.2-3c3.1-3.3,8.6-4.4,5.9-1.2c-2.2,2.7-3.5,11.4-2.1,14.1
		c1.2,2.2,1.3,2.2,3.5-0.5c1.6-1.9,1.9-3.2,1-4c-2-2-1.4-3.7,2.4-6.5c3.9-2.9,7-2.6,10.3,1c2.5,2.6,15.7,6.2,19.5,5.3
		c5.8-1.5,21.4,8,27.3,16.6c2.8,4.1,11.7,8.1,15.6,7.2c8.1-2,19.1,6.1,21.7,15.9c0.8,2.9,1.9,5.6,2.6,6.1c1.7,1.1-0.9,5.3-6.5,10.7
		c-3.6,3.4-4.5,4.9-3.5,5.9c1,1,2.7,0.1,6.7-3.6c5.8-5.4,7.8-5.9,10.7-3c1.8,1.8,1.7,2.1-0.7,4.7c-1.4,1.5-3.5,2.8-4.5,2.9
		c-1.1,0-0.6,0.6,1,1.2c2.3,0.9,3.5,0.7,5.9-1.3c6.2-5,7.7-5.3,13.2-2.2c3.6,2,5,3.5,4.9,5.2c-0.5,4.5,0.6,5.5,3.7,3.5
		c2.5-1.6,4.2-1.7,12.5-0.6c8.8,1.2,10,1.7,14.2,5.9c3.1,3.1,6.7,5.2,11.1,6.5c6,1.7,6.6,2.3,7.7,6.3c1.6,5.8-0.3,12.3-5.2,18.4
		c-2.1,2.6-4.7,6.5-5.8,8.6c-1.1,2.1-3.3,5.2-5,6.9c-2.9,2.9-3,3.6-2.3,10.4c1.4,13.3-5.1,38.1-11.4,43.4c-2,1.7-3.8,2.1-7,1.6
		c-2.7-0.4-4.6-0.1-5.1,0.7c-0.5,0.7-3,2.3-5.7,3.5s-6.7,3.7-8.9,5.6c-3.8,3.3-3.9,3.6-2.7,7.5c1.5,4.5,0.5,9.8-2.7,14.3
		c-1,1.5-1.9,4-1.9,5.5s-1.2,4.5-2.7,6.5c-1.5,2-4.4,6.6-6.5,10.2c-5,8.9-8.1,10.4-15.4,7.8c-6.3-2.3-9.7-2.5-9.7-0.8
		c0,0.7,1.3,1.8,2.8,2.5c1.5,0.7,3.9,3.6,5.3,6.4c2.1,4.2,2.3,5.6,1.2,8c-1.7,3.7-8.1,6.8-14.1,6.8c-5.3,0-6.6,1.3-4.8,4.7
		c1.1,2.1,0.4,5.5-1.8,8.1c-0.2,0.2-2-0.5-4.1-1.6c-5-2.6-6.7-0.9-4.2,3.9c1,2,3,3.9,4.3,4.4c2.3,0.7,2.4,0.9,0.5,3
		c-1.1,1.2-1.7,3.1-1.3,4.1c0.4,1.1-0.5,3.6-2.4,5.9c-3,3.9-3,4.2-1.1,7.1c1.1,1.7,2.8,3.3,3.8,3.7c3.6,1.4,4.1,6,1.4,11.3
		c-2.7,5.3-3.1,10.7-1,13.2C98.7,1013.9,92.3,1018.4,89.4,1016.7L89.4,1016.7z M2.4,505.2c3.2-6.6,9-11.5,13.8-11.5
		c3.4,0,3.4,0.6,0.3,4.5l-2.5,3.1l2.5,2c2,1.6,3.1,1.8,5.4,0.7c1.6-0.7,3.2-2.3,3.6-3.6c0.5-1.7,1.4-2.1,3.5-1.6
		c1.9,0.5,3.1,0.1,3.9-1.3c2.4-4.3-3.7-9.8-8.2-7.4c-3.2,1.7-7.4-1.7-6.5-5.3c0.3-1.3-0.4-3.7-1.5-5.2c-2.4-3.2-6.2-3.6-14.3-1.3
		c-2.9,0.8-6.3,1.4-7.4,1.4c-1.2,0-1.8,0.4-1.4,1c0.4,0.6,0.3,1.1-0.3,1.1c-0.5,0-2.3,1-3.9,2.3l-2.9,2.3l3.3,1.3
		c2.6,1,4.1,0.8,7-0.6c3.4-1.7,4-1.7,7.7,0c2.2,1.1,5.2,1.6,6.8,1.2c1.5-0.4,3.1-0.2,3.5,0.5c0.4,0.7-1.3,1.5-3.8,1.9
		c-6.9,1.2-10.5,4-15.5,12.4c-4.2,7-4.4,7.9-2.8,9.7c1.6,1.8,2.1,1.8,4.3,0.3C-1.7,512.2,0.8,508.6,2.4,505.2L2.4,505.2z
		 M23.8,512.5c4.2-2.1,4.6-2.7,3.1-4.2s-2.4-1.4-7.2,0.7c-5.7,2.5-7.5,5.9-3.1,5.9C17.9,515,21.2,513.9,23.8,512.5z M44.8,503.6
		c2.5-1.7,2.6-2.1,0.8-3c-2.6-1.4-10.1,1-10.1,3.3C35.4,506.2,41.3,506,44.8,503.6z M133.5,1013.6c0-0.5,0.6-1.6,1.4-2.4
		s1-1.4,0.4-1.4s-1.6,0.9-2.4,1.9c-1.1,1.5-1.9,1.7-3.7,0.6c-1.3-0.7-1.6-1.3-0.7-1.3c0.9,0,1.2-0.6,0.8-1.2
		c-0.8-1.2,1.3-1.6,7.1-1.2c5.2,0.4,5.7,1.1,2.5,3.6C135.9,1014.6,133.5,1015.2,133.5,1013.6L133.5,1013.6z M1119.8,984
		c-3.4-2.1,3.7-6.9,21.1-14.2c4.9-2,12.3-6.3,16.5-9.5c7.1-5.4,7.7-5.6,9.2-3.6c2.1,3.1,0.9,5.3-4.4,7.7c-2.5,1.1-5.7,3.3-7,4.9
		c-1.3,1.5-3.5,2.8-4.8,2.8s-4.4,1.8-6.8,4C1135.2,983.5,1124.7,987,1119.8,984L1119.8,984z M1037.2,968.6c-1.2-0.8-1.3-1.6-0.3-3.4
		c0.7-1.3,1.3-4.1,1.3-6.1c0-3.3,0.3-3.6,2.7-2.8c1.5,0.5,4.5,1,6.8,1.1c2.3,0.1,4.5,0.2,5,0.3c2,0.4-3.3,6.3-8,9.1
		C1039.1,970.1,1039.3,970,1037.2,968.6L1037.2,968.6z M1173.6,958.3c-0.4-0.4,0.6-1.8,2.2-3c2.4-1.9,2.7-2.7,1.6-4.7
		c-1.5-2.8,0.7-5.9,6-8.1c4.1-1.7,5.1-5.1,4-13.3c-0.7-5.7-0.7-6,1.2-4.5c1.4,1.2,1.8,2.7,1.3,5.4c-0.6,3-0.1,4.5,2.4,7.5
		c2.7,3.2,3.5,3.5,5.6,2.4c2.1-1.1,2.3-1,1.7,0.7c-0.4,1.1-0.8,2.2-0.8,2.5s-1.7,1.3-3.8,2.4c-2.1,1.1-6.2,3.9-9.2,6.4
		c-4.8,3.9-9.6,7.1-10.9,7.1C1174.6,959,1174.1,958.7,1173.6,958.3L1173.6,958.3z M1048.8,943c-2.5-2.6-2.9-2.7-5.3-1.2
		c-3,2-8.8,0.8-13.4-2.7c-2.4-1.9-2.6-2.5-1.4-4.9c1.1-2,1.1-3.4,0.1-5.6c-0.7-1.6-1.3-3.9-1.3-5.2c0-2.9-1.9-3-3.4-0.2
		c-0.6,1.1-1.5,1.7-1.9,1.3c-0.4-0.4,1-2.7,3-5.1c5.1-5.8,3.1-7.4-3.6-2.9c-2.9,2-5.5,4.1-5.7,4.7c-0.2,0.7-1.6-1.4-3.1-4.5
		c-1.6-3.4-4.4-6.8-6.9-8.4c-3.8-2.5-5-2.7-12.2-2c-10.6,1.1-20.8,3.7-27.4,7c-3,1.5-9,3.1-13.5,3.6c-4.5,0.5-11.6,2.2-15.8,3.7
		c-6.4,2.4-8.3,2.7-11.6,1.6c-4.4-1.4-6.2-4.4-3.4-5.5c1-0.4,2.9-3.1,4.1-6c2-4.7,2.1-6.1,0.9-12.2c-1-5-1-9.7-0.1-17.4
		c0.7-5.8,0.9-11.7,0.6-13.1s0.2-4.8,1.3-7.6c1.9-4.9,2.3-5.2,15-10.6c7.2-3,14.5-5.5,16.3-5.5c4.9,0,10.9-4.6,14.3-11
		c2.1-3.9,3.5-5.4,4.7-4.9c3.4,1.3,4.1,1.1,3.9-1.5c-0.2-1.6,0.5-2.8,1.9-3.3c1.2-0.4,3.5-2.5,5-4.8c1.6-2.3,4.8-4.9,7.4-5.9
		c4.3-1.7,4.7-1.7,7.1,0.4c4.3,3.9,7.4,5.1,8.9,3.3c0.7-0.9,1-1.9,0.5-2.3c-1.4-1.4,4.8-9.1,7.9-9.9c1.6-0.4,5-1.7,7.4-3
		c3.8-1.9,5.2-2,9.4-0.9c9.2,2.5,9.5,2.9,6.1,8.1c-4.4,6.7-3.2,9.3,7.6,16.9c5,3.5,9.7,6.2,10.5,5.9c0.8-0.3,3.2-3,5.4-6
		c3-4.1,4.2-7.2,4.6-12c0.7-6.9,4-16.5,5.7-16.5c0.6,0,1.8,2.8,2.9,6.3c1,3.5,3.1,7.5,4.7,9c3.7,3.5,5.8,13.2,4.2,18.9
		c-1.1,3.8-0.9,4.4,2.9,8.3c2.2,2.3,5.8,7.9,7.8,12.4s5.8,11,8.3,14.3l4.6,6l-1.3,9.3c-0.9,6.8-2.4,11.3-5.3,16.4
		c-4.5,7.9-11.1,15.4-14.6,16.5c-1.3,0.4-4.2,3.4-6.5,6.6c-2.3,3.2-4.7,5.8-5.4,5.8c-0.6,0-3.3,2.8-6,6.1c-4.4,5.6-5.3,6.1-9.9,6.2
		c-3.6,0.1-6.3,1-9.2,3.3l-4.1,3.2L1048.8,943L1048.8,943z M472.8,918.2c-2.5-2.5-2.9-3.8-2.4-7.2c0.5-3.2,0-5.1-2.2-8.5
		c-1.6-2.3-2.9-4.8-2.9-5.6c0-0.7-2.1-4.1-4.6-7.5c-3.9-5.3-4.8-7.4-5.4-14.1c-1.1-11.8-4.9-24.6-10-33.8
		c-2.5-4.6-4.9-10.5-5.3-13.1c-0.9-5.7,1.4-14.1,6.7-24.4l3.5-6.8l-2-5.9c-1.1-3.3-1.6-7.2-1.2-8.9c0.5-2,0-4.3-1.5-6.7
		c-1.3-2.1-3.1-6.7-4.1-10.2c-1.4-4.8-3.3-7.9-7.1-11.7c-7.5-7.3-8.5-10.2-6.1-18.2c4.7-16.3-0.4-25.8-12.9-23.9
		c-4.9,0.7-5,0.6-5.7-2.8c-0.5-2.6-2-4.2-5.5-6c-4.7-2.4-6.7-2.4-12.4-0.1c-1.3,0.5-6.6,2.4-11.8,4.1c-7.8,2.6-10.2,2.9-13.6,1.9
		c-3.2-0.9-5.9-0.7-12.5,1.1c-6.8,1.9-9.3,2.1-13,1.1c-7.7-2.1-20.9-14-22.8-20.5c-1.5-5-10.5-16.7-13.6-17.6c-2-0.5-2.2-1-1-1.7
		c1.2-0.8,1-1.2-0.9-1.7c-3-0.8-3.3-3.2-0.4-3.2c1.8,0,1.8-0.2,0.3-1.2c-1.1-0.7-1.2-1.2-0.3-1.2c0.9,0,0.6-1.5-1-4.2
		c-2.3-3.8-2.3-4.3-0.6-6.3c5.3-5.8,6.4-18.4,2.4-26.3c-1.9-3.8-0.7-9,3.4-14.4c1.5-2,4.5-7,6.7-11.1c3.7-7.1,12.1-16.9,14.3-16.9
		c2.5,0,10.5-8.7,10.5-11.3c0-6.1,3.6-12.1,9.5-15.9c3.2-2,6.9-5.5,8.3-7.7c2.8-4.5,3.2-4.7,6.5-2.4c1.3,0.9,4.5,2,7.1,2.4
		c4,0.7,5.9,0.2,11.8-3c10.2-5.5,16.5-6.8,28.2-6.1c7.7,0.5,11.2,0.2,14.9-1.3c5.5-2.2,10.2-0.9,9,2.5c-0.4,1-0.2,2.5,0.5,3.3
		c0.8,1,0.8,2.5,0,4.8c-1.1,2.9-0.8,3.7,1.8,6.5c1.7,1.8,4.7,3.6,6.8,4c9.5,1.9,12.2,3.1,14.2,6.4c1.4,2.4,3.3,3.7,6.4,4.3
		c2.4,0.5,5.9,1.6,7.8,2.6c3.2,1.6,3.6,1.6,6.3-0.9c1.8-1.7,2.6-3.5,2.2-4.8c-0.4-1.2-0.1-3.2,0.6-4.5c1.8-3.4,7-3.1,15.1,1
		c8.8,4.4,25.6,7.6,31.5,5.9c2.9-0.8,5.6-0.8,8.1,0c8.2,2.5,12.3,0.5,13.5-6.3c0.4-2.3,1-4.1,1.4-4.1c0.8,0,1.2-3.4,1.3-10.9
		c0-2.4,0.6-4.4,1.3-4.4c0.8,0,0.8-0.9-0.1-2.5c-1.5-2.7-4.4-2.7-11.4,0.2c-3.3,1.4-4.3,1.3-7.3-0.5c-3.9-2.3-7.9-2.6-9-0.8
		c-0.9,1.4-6.9,0.4-10.2-1.6c-2.4-1.5-4.6-5.8-4.6-9.1c0-1.2-1.2-3.1-2.7-4.1c-2.3-1.6-2.4-2-0.9-3c1-0.6,3-0.9,4.5-0.5
		c1.9,0.4,3.6-0.3,5.8-2.5c2.1-2.1,4.6-3.2,7.4-3.3c2.3-0.1,5.7-1.2,7.5-2.4c3.9-2.6,12.8-1.9,19.6,1.6c9.3,4.6,17.5,4.4,20.8-0.7
		c1.7-2.6,1.7-3.2,0.1-5.7c-1-1.5-5.8-5-10.6-7.8l-8.8-5l1.7-3.2c0.9-1.8,1.4-3.5,1-3.9c-0.4-0.4-0.2-1.4,0.3-2.2
		c0.5-0.9,1.1-2.2,1.2-3.1c0.3-1.8-1.6-1.3-11,2.9c-5.5,2.4-6.3,3.2-5.1,4.6c0.8,1,2.6,1.8,4,1.8c1.9,0,1.5,0.6-2,2.4
		c-4.2,2.2-4.7,2.3-7.5,0.5c-2.4-1.5-2.7-2.3-1.5-3.6c1.1-1.3,0.9-1.8-0.8-2.5c-1.2-0.5-2.8-1.6-3.5-2.5
		c-3.4-4.5-14.1,7.4-17.2,19.1c-1.5,5.5-1.4,5.8,1.3,7.9l2.9,2.2l-5.3,1.1c-2.9,0.6-6.8,0.7-8.7,0.2c-3.4-0.9-7.8,0.5-7.8,2.5
		c0,0.6-0.8,0.8-1.8,0.4s-2.5-0.1-3.5,0.7c-1.4,1.2-1.3,2.2,1.1,6.6c2.6,4.8,2.7,5.5,1,8.7c-2,4-3.9,3.7-6.7-1.1
		c-2-3.4-2-3.4,0.7-3.8c3.3-0.5,3.5-2.6,0.3-3.1c-7.3-1.2-11.2-5-11.2-11.1c0-4.7-4.4-9.9-9.7-11.5c-2.8-0.8-5.8-2.6-6.7-3.9
		c-0.9-1.3-3.6-3.2-5.9-4.1c-2.3-1-5-2.8-5.8-4c-1.2-1.8-2-2-3.9-1c-1.3,0.7-2.3,2-2.3,2.9c0,3.1,15.1,16.9,22.4,20.7
		c7.8,3.9,9,5.3,3.6,4.2c-4.8-1.1-6.1,0-4.5,3.6c1.2,2.5,1,3.3-1.4,5.6l-2.7,2.6l0.6-3.5c1-5.6-6.4-13.6-12.5-13.6
		c-2.2,0-10.8-8.3-13.1-12.7c-2.4-4.7-5.1-5.6-8.9-3c-5.7,3.9-10,5.2-14.5,4.4c-6-1-9.7,1.1-8.8,4.9c0.5,2,0.2,2.9-0.9,2.9
		c-0.9,0-3.2,1.3-5,3s-3.8,3-4.3,3c-1.5,0-5.6,7.5-5.6,10.1c0,2.5-4.6,7.5-9.1,9.8c-1.4,0.7-4.7,1.3-7.3,1.3c-3.6,0-5.1,0.6-6.1,2.4
		c-1.3,2.4-1.3,2.4-4.4-0.6c-2.8-2.8-4.5-3.6-10.2-4.4c-3-0.5-3.5-7.3-1.3-17c1-4.2,1.4-8.8,1.1-10.3c-1.1-4.5,2.4-7.1,8.2-6.2
		c13.5,2.1,21.4,2.2,23.3,0.3c2.5-2.5,3.7-11,2.1-15.7c-1-3.1-2.4-4.3-6.6-5.9c-6.1-2.3-6.3-4.6-0.3-4.7c2.3,0,5.6-1,7.3-2.1
		c1.7-1.1,3.7-1.8,4.3-1.4c1.7,1,8-2.6,10.1-5.8c1-1.5,3-3.1,4.4-3.5c1.4-0.4,5.3-3.1,8.5-6.2c4.6-4.3,7-5.6,11-6.1
		c4.9-0.6,9.8-4.6,7.5-6.1c-1.4-0.9-2.6-6.7-1.8-8.8c0.4-1,2.1-2.7,3.7-3.8l3-2l-0.8,4.9c-0.7,4.2-0.5,4.8,1.3,4.5
		c1.1-0.2,3.3-1,4.8-1.8c2.2-1.2,2.8-1.2,3.4,0.4c1,2.6-1.8,5.7-3.7,4.1c-1.1-0.9-1.8-0.9-2.4,0.1c-0.6,1-1.1,0.9-1.8-0.2
		c-0.5-0.9-1.2-1.3-1.6-1c-0.3,0.3,0.6,2.1,2.1,4c2.5,3.1,3,3.3,6.5,2c3.1-1.1,4.5-1,7.1,0.4c2.9,1.5,3.9,1.4,9.6-0.7
		c4.9-1.9,6.9-2.1,9.1-1.1c2,0.9,3.5,0.9,5.4-0.1c5.3-2.7,6.8-4.8,6.1-8.6c-1-5.6,0.8-7.5,5.5-5.7c3.2,1.2,4.1,1.2,5.6-0.3
		c1.5-1.5,1.4-2.1-1.1-4.8c-2.4-2.6-2.6-3.2-1.1-4.2c1-0.6,4.5-0.9,8-0.5c6.3,0.7,14.1-1.8,12.7-4c-1.2-1.9-8.4-2.5-14.5-1.1
		c-5.4,1.2-6.8,1.1-11-0.8c-6.4-2.9-7.2-6.3-2.8-12.5c5.7-7.9,6.7-10.4,5.1-12.4c-2.4-2.9-4.8-1.9-10.2,4.1
		c-2.9,3.2-6.8,6.5-8.8,7.3c-1.9,0.8-4.3,3-5.3,4.9c-1.6,3.1-1.6,3.8,0,6.2c1,1.5,2.9,3.1,4.2,3.5c3.6,1.1,2.9,3.3-2.3,6.9
		c-1.6,1.1-3.7,4.2-4.7,6.9c-1.3,3.4-3.2,5.7-6.2,7.4c-4.2,2.4-4.4,2.4-6.7,0.3c-1.3-1.2-2.7-3.6-3.1-5.4c-0.4-1.8-2.2-5-3.9-7.1
		l-3.2-3.9l-4.1,2.5c-2.3,1.4-5.2,2.5-6.5,2.5c-3.7,0-8.1-4.1-8.4-7.8c-0.1-1.9-0.6-4.3-1.1-5.4c-1.1-2.6,4.2-7.6,9.7-9.1
		c5.5-1.5,16.7-9.4,18.6-13c0.8-1.6,3.7-4.9,6.4-7.3s4.8-4.9,4.8-5.5s2.5-2.1,5.6-3.2s8.3-3.1,11.5-4.4c4-1.6,9-2.5,15.4-2.7
		c11.1-0.3,18.4,1.2,24.5,5c3,1.9,5.4,2.5,7.7,2.1c4.1-0.8,25.8,5.9,26.7,8.3c0.9,2.4-5.3,4.6-10.7,3.8c-2.5-0.4-7.5-1.3-11.3-2.1
		c-5.1-1.1-7.2-1.1-8.2-0.1c-1,1-0.5,1.7,1.9,2.8c1.8,0.8,4,3,4.9,4.8c2.4,4.6,10,8.4,14,6.9c3.8-1.4,3.8-1.9-0.2-4.1
		c-3.7-2-2-2.4,2.7-0.7c3.7,1.4,7.9-0.3,6.9-2.9c-0.5-1.2,0.8-2.1,4.5-3c7.8-2,8.4-2.3,7.7-3.9c-2.4-6-2.5-5.8,1.1-5.4
		c1.9,0.2,3.3,1,3.1,1.8c-0.2,0.8,0.8,2,2.2,2.8c2.1,1.1,3.7,0.7,9.3-2.2c8.3-4.3,14.7-5.7,17.1-3.8c1.3,1.1,3.6,1.1,10,0
		c4.5-0.8,8.8-1.1,9.4-0.7s1.5,0.1,1.9-0.5c0.9-1.5-1.6-4.9-3.1-4.1c-1.7,1.1-7.3-0.8-6.1-2c1.2-1.2,34.1,6.4,36.1,8.4
		c1.3,1.3,5.5-0.4,5.5-2.3c0-0.6-2.3-2.3-5.2-3.7c-8.9-4.3-9.5-11.2-1.1-13.3c4.8-1.2,6.9,0.2,13.7,9.1c8.7,11.6,8.5,11,5.6,15
		c-2.1,3-2.2,3.7-0.8,4.2c2.8,1.1,8.7-2.7,9.5-6c1-3.9-0.8-7.2-5.2-9.5c-3.4-1.8-5.9-5-5.9-7.7c0-0.9,1.3-1.2,3.8-0.7
		c3.8,0.7,7-0.7,15.7-6.9c2-1.4,5.3-2.3,8.7-2.4c6.9-0.2,9.1-1.3,7.1-3.7c-0.8-0.9-1.2-1.9-0.9-2.2c1.5-1.5,21-4.2,25.4-3.6
		c4.3,0.6,5.6,0.3,9.2-2.4c2.3-1.7,4.1-3.6,4.1-4.2c0-1.4-10.3-1.3-11.2,0.1c-1.2,2-2.8,1.3-2.4-1c0.4-2-0.6-2.3-9.2-3
		c-23.5-1.8-25.4-2.3-22.6-5.1c2.5-2.5,8.6-2.4,13.6,0.1c2.1,1,5.5,1.9,7.7,1.9s4.2,0.5,4.6,1.2c0.4,0.6,2.5,1.2,4.6,1.2
		c5.9,0,17.3,2.5,16.6,3.7c-0.3,0.6,0.8,1,2.4,1s4.8,0.9,6.9,2c2.8,1.5,6.7,2,15,2.1c8.9,0,11.9,0.5,14.5,2.2
		c1.8,1.2,3.2,2.5,3.2,2.9c0,0.4-2.7,2.2-6.1,4.1c-8,4.4-6.3,6.4,3.4,3.8c6.3-1.6,7.7-1.6,12.9-0.1c4.3,1.3,6.9,1.4,9.8,0.6
		c2.9-0.8,5.9-0.7,10.9,0.7c5.3,1.4,8,1.5,11.3,0.6c7.6-2.1,16.9-1.5,22.4,1.4c2.7,1.5,7.7,4.2,11,6c6,3.3,6.3,3.3,10.4,1.4
		c3.5-1.6,5.4-1.7,10.5-0.7c5.1,1,7,0.9,9.8-0.6c2.8-1.5,3.3-2.2,2.2-3.5c-2.1-2.5,5.3-3.4,14.3-1.8c4.1,0.7,9.4,1.5,11.7,1.6
		s6.7,1.5,9.9,2.9c4.8,2.2,8.4,2.7,22.5,3c13.4,0.4,17.6,0.9,20.8,2.6c3.3,1.7,7,2.2,19.4,2.3c11.4,0.1,16.5,0.7,19.9,2.1
		c5.5,2.3,7.6,1.5,4.7-1.8c-2.1-2.4-2.1-2.4,6.1-1.6c13.8,1.4,30.4,4.4,36,6.6c2.9,1.1,8.5,2.4,12.4,2.9c3.9,0.5,9.6,2.1,12.6,3.7
		c4.6,2.3,6.1,2.6,9.1,1.6c4.1-1.4,6.7-0.4,12.9,5l3.9,3.3l-2.9,0.7c-2.9,0.7-10.6-1.2-13.3-3.3c-0.8-0.6-1.9-0.8-2.4-0.5
		c-0.6,0.3-3.3-0.2-6.1-1.1c-6.6-2.3-9.5-1.4-6.5,1.9c2.1,2.3,2,2.3-1.9,2c-7.3-0.5-5.3,1.7,5.4,5.8c5.8,2.3,10.9,4.4,11.2,4.7
		c1.1,1.1-2.5,2.4-5.2,1.9c-2.9-0.6-10.1,2.6-10.1,4.4c0,0.6-1.1,2.2-2.5,3.5c-2.3,2.2-2.8,2.2-5.9,0.6c-2.9-1.5-3.8-1.5-6.6-0.1
		c-1.8,0.9-4.8,2-6.8,2.5c-1.9,0.5-4.2,1.4-5,2.1c-2.4,2,1.8,7.7,7.7,10.6c3.2,1.6,5.5,3.6,6.2,5.6c0.6,1.7,1.9,4.5,2.9,6.2
		c1.6,2.8,1.6,3.2-0.1,3.8c-1.2,0.5-1.6,1.4-1.1,2.8c0.5,1.1,1,3.4,1.1,5c0.2,1.6,0.7,3.8,1.2,4.9c0.6,1.4,0.1,2.2-1.8,2.8
		c-2.1,0.7-3.5-0.1-6.9-3.9c-2.4-2.6-6.3-6.2-8.7-8c-2.4-1.8-6.8-6.4-9.7-10.3c-5.1-6.8-5.2-7.1-3.5-10.4c1-1.9,1.8-4.6,1.8-6.1
		c0-1.5,0.8-4,1.7-5.6c1.7-3.1,1-5.5-2.6-9.7c-2.4-2.7-6.7-0.7-5.6,2.7c1,3.1-2,4.1-5.5,1.8c-1.5-1-5-2.2-7.7-2.6
		c-4.7-0.8-5.1-0.6-6.3,2.6c-0.7,1.9-1,4.8-0.7,6.6c0.5,2.7,0.2,3.3-2.6,3.9c-1.9,0.4-5.1-0.1-7.8-1.2c-2.9-1.2-5.7-1.6-7.6-1
		c-1.7,0.5-7.4,0.9-12.7,1c-8.4,0.1-10,0.5-12.6,2.9c-1.6,1.5-3.6,5.2-4.3,8.3c-0.8,3-2.1,6.7-3.1,8.1c-1.6,2.5-1.5,2.8,3.2,5.1
		c5,2.6,10.5,3.2,14.7,1.8c3.2-1.1,13,6.5,16,12.5c1.2,2.4,3.3,5,4.6,5.7c4.8,2.6,5.8,19.5,1.8,30.6c-2.8,7.7-5.9,10.2-10.5,8.4
		c-1.8-0.7-3.4-1.2-3.6-1.2c-0.2,0-1.5,2.2-2.9,4.8c-1.8,3.5-2.2,5.3-1.3,6.3c1.7,2.1,0.4,4.8-3,6.3c-1.6,0.7-2.9,1.8-2.9,2.5
		s3.7,3.7,8.2,6.8c5.7,4,8.8,7,10.2,10.1c1.1,2.5,1.8,4.7,1.5,4.9c-0.3,0.2-2.7,1.5-5.4,2.9l-4.9,2.5l-2.9-6.7
		c-3.3-7.6-6.1-10.6-11.1-11.9c-2.5-0.7-3.4-1.6-3.4-3.7c0-1.9-1.2-3.5-3.8-5c-3.8-2.2-3.9-2.2-7.9,0.3c-4,2.5-4.1,2.5-5.3,0.2
		c-0.7-1.3-1.3-3.2-1.3-4.1s-1-2.3-2.2-3c-1.8-1-2.9-0.4-6.3,3.2c-2.2,2.4-5.1,5-6.3,5.7c-2,1.1-2.1,1.6-0.7,3.2
		c0.9,1,3.9,3.2,6.7,4.8c4.5,2.5,5.3,2.6,6.8,1.1c1.4-1.4,2.6-1.5,6.9-0.3l5.2,1.4l-2.9,1.9c-5.4,3.6-7,5.5-7.8,8.7
		c-0.6,2.7-0.3,3.4,2.1,4.5c1.6,0.7,4,3.6,5.4,6.4c1.4,2.8,4.1,6.1,6.1,7.2c4.3,2.6,5.6,5.3,3.1,6.7c-2.3,1.3-1.2,3.2,1.9,3.2
		c3.7,0,3.7,2.2,0.1,14.9c-4.3,15.3-8.2,20.5-18.4,24.2c-4,1.5-8.9,2.8-10.8,2.9c-4.5,0.3-8,2.2-11.1,6.1l-2.4,3.1l-1.1-3
		c-1.5-3.9-4.9-4.9-9.7-2.8c-4.5,1.9-7.4,4.9-8.6,8.8c-1.1,3.5,2.7,9.6,8.9,14.5c5.1,4,10.8,14.2,12.2,21.6
		c1.2,6.4-0.9,10.7-6.5,13.2c-2.5,1.1-4.9,3-5.3,4.2c-0.9,2.8-6.1,6.2-7.1,4.6c-0.4-0.6-0.4-2.2,0-3.4s0.4-3,0-4.1
		c-0.6-1.5-1.2-1.7-3.1-0.7c-1.9,1-2.7,0.8-4.3-1.5c-3.9-5.6-15-14.6-18.1-14.6c-1.1,0-1.5,1.3-1.3,4.1c0.2,2.3-0.3,6.7-1,9.9
		c-1.2,5.1-1,6.1,1.2,9c1.3,1.8,2.8,4.7,3.2,6.3c0.4,1.7,3.8,5.4,7.7,8.6c6.5,5.2,7.2,6.3,9.9,14.9c1.6,5.1,2.9,9.8,2.9,10.4
		c0,2-2.5,1.2-7.6-2.5c-5.3-3.8-8.7-9.9-11.6-20.6c-1.2-4.6-2.6-6.6-6.4-9.4c-4.7-3.5-4.8-3.8-4.5-9.5c0.2-3.2,0.7-7.9,1.2-10.2
		c0.6-3.3,0.1-5.7-2.2-10.6c-1.7-3.5-3.6-8.8-4.4-11.8c-1.7-6.8-4-7.9-8.2-4c-1.7,1.6-3.5,3-3.9,3c-1.9,0-4.5-4-3.8-6
		c1.1-3.5-5.8-15.9-9.8-17.6c-2.2-0.9-4.2-3.1-5.6-6.1c-2.4-5.2-5-7.2-7.6-5.8c-1,0.5-4.8,1.6-8.5,2.3c-6.8,1.4-9.3,3.5-8.4,7
		c0.3,1.3-0.9,2.6-3.7,4c-2.3,1.1-4.8,3.3-5.6,5s-2.4,3.3-3.6,3.7s-3.2,2.2-4.3,4c-1.1,1.8-4.4,5.1-7.3,7.4c-4,3.1-5.2,4.8-5,6.9
		c1.2,12.6-0.6,23.1-5,29.4c-4.2,6.1-4.5,6.3-8.1,4.6c-2-0.9-3.2-2.7-3.7-5.3c-0.4-2.2-2.8-8.4-5.3-13.7
		c-15.1-32.4-17.3-38.6-16-44.5c0.9-4-1.2-9.9-3.2-9.3c-0.8,0.3-1.5,1.2-1.5,2.2c-0.1,5.4-6.2,6.2-10.9,1.5l-3.1-3.1l2.7-1
		c3-1.1,2.8-4.1-0.3-3.6c-1.1,0.2-3.6-1-5.6-2.7c-2-1.7-4-3-4.6-3s-1.4-1.1-1.8-2.4c-1.1-3.4-7.4-6.4-10.5-5
		c-2.8,1.3-28.5,1-32.8-0.3c-1.5-0.5-4.4-2.7-6.4-4.9c-3.5-4-3.6-4-8.9-2.6c-5,1.3-5.7,1.2-12.5-2.2c-5.8-2.9-7.6-4.5-9.4-8.5
		c-2.3-5.1-7.4-8.8-10.5-7.6c-1,0.4-2.1,2.2-2.5,4.1c-0.6,2.7,0,4.5,2.9,8.4c2,2.7,4.2,7,4.9,9.5c1.4,5.3,4.3,6.9,6.6,3.7
		c1.4-1.9,1.8-2,2.8-0.5c0.6,1,0.9,2.3,0.7,2.9c-0.7,2,6.2,5.4,9.3,4.6c1.6-0.4,5-3.1,7.6-6.1c4.1-4.6,5.5-4.9,4.8-1.1
		c-0.5,2.6,1.6,5.7,5,7.5c5.3,2.7,12.6,8.8,12.6,10.4c0,0.8-1.4,2.7-3.1,4.2s-4.1,4.9-5.4,7.4c-3.1,6.1-12.1,14.9-15.2,14.9
		c-3.5,0-8.8,3-10.9,6.2c-1,1.5-3.6,3.6-5.8,4.7c-11.2,5.6-24.7,11.3-28.5,12c-4.1,0.8-4.4,0.6-6.6-3.7c-1.2-2.5-2.7-7.4-3.1-11
		c-0.6-4.6-1.8-7.6-4.3-10.4c-1.9-2.1-3.4-4.4-3.4-5s-2.1-3.3-4.7-6c-3.2-3.3-5.3-7-6.7-11.5c-1.1-3.7-3.2-8.2-4.8-10.2
		c-10.8-13.5-14-18.2-15.7-23.2c-2.1-6.6-4-7.6-4.8-2.8l-0.6,3.4l-4-5c-6.2-7.8-6.9-4.2-1.2,5.2c2.7,4.5,7.1,12.4,9.7,17.6
		c2.6,5.2,6,11.1,7.5,13.1c1.6,2.1,2.8,5.3,2.8,7.5c0,4.5,1.3,7.2,6.5,13.7c2.1,2.6,4.2,6.4,4.6,8.4c0.6,2.6,2.8,5.3,7.7,9.3
		c7.4,6,12.3,12.2,13.5,17.4c0.5,2,2.2,4,4.3,5.1c3.3,1.7,4.5,1.7,14.9-0.6c6.2-1.3,12.8-3.2,14.6-4.2l3.3-1.7l0.8,4.7
		c0.7,4.2-0.1,6.3-8.5,22.4c-9,17.3-9.5,17.9-18.5,25c-5.1,4-10.4,8.9-11.8,10.9s-5.9,7.3-10,11.9c-12,13.3-13.6,25-5.7,40.7
		c2,4,2.8,7,2.3,8.9c-0.4,1.6-0.1,5.6,0.6,8.9c1.1,5.2,1,6.6-0.9,10.4c-2.8,5.5-5,7.4-12.8,11.4c-3.4,1.7-6.2,3.6-6.2,4.2
		s-2.4,3.8-5.3,7.1s-5.3,6.5-5.3,7.2s1.1,3.3,2.4,6c4,7.9,1.3,13.6-8.3,17.6c-4.1,1.7-5.4,5.1-4.4,11.3c0.5,3.2,0.2,4.3-1.6,5.3
		c-1.3,0.7-3.6,3.2-5.1,5.6c-4.8,7.6-18.8,21.1-25.1,24.2c-5.3,2.7-6.6,2.9-10.5,1.8c-3.4-0.9-6.2-0.8-11.9,0.6
		C475.4,921.7,476.4,921.8,472.8,918.2L472.8,918.2z M628.4,541.5c3-1.6,3.5-2.4,3.5-6.9c0-3.2-0.7-5.7-1.8-6.7
		c-1-0.8-2.7-3.1-3.7-5c-1.6-3.2-1.6-3.4,0.1-2.8c2.3,0.9,5.4-0.2,5.4-1.8c0-0.6-1.1-2.7-2.4-4.6c-2-2.8-2.8-3.2-4.7-2.2
		c-1.5,0.8-2.3,0.8-2.3,0c0-0.7-2.1-2.3-4.7-3.6c-5.7-2.9-7.7-6.1-6-9.5c1.3-2.5,6.2-4.3,8.2-3c2.8,1.7,3.6-0.8,1.3-4
		c-5.5-7.8-13.3-7.3-22.8,1.5c-6.2,5.7-6.7,7.2-3.2,9c1.3,0.7,2.4,2.1,2.4,3c0,1,2.1,4,4.7,6.8c5.9,6.4,7,9.3,6.3,16.9l-0.6,6.1
		l8.1,4.2c4.5,2.3,8.3,4.2,8.5,4.2C624.8,543.3,626.5,542.5,628.4,541.5L628.4,541.5z M595.9,871.4c-3.3-1.9-3.8-2.9-4.7-9.9
		c-0.7-5.6-0.4-6.8,2.9-12.2c3.4-5.5,3.6-6.6,2.9-12.5c-1.1-8.6,0.8-13.2,5.8-14.3c4.7-1,15-10.1,17.4-15.4l1.9-4.1l1.3,2.9
		c3.3,7.2,2.9,10.3-2.8,26.1c-3,8.4-6.3,18.5-7.3,22.4c-3,12.5-4.8,15.5-9.7,17C598.3,873.1,598.8,873.1,595.9,871.4L595.9,871.4z
		 M1177.7,850.9c-3.8-4.1-6-7.7-6-9.4c0-4,0.6-3.6,4,2.2c1.6,2.8,4.6,6.6,6.5,8.5c2,1.9,3.6,3.9,3.6,4.4
		C1185.8,858.8,1183.3,857.1,1177.7,850.9L1177.7,850.9z M650.8,849.2c0-0.6,0.5-1.2,1.2-1.2s1.2,0.5,1.2,1.2s-0.5,1.2-1.2,1.2
		S650.8,849.9,650.8,849.2z M1272.7,847.1c-0.4-0.7-0.2-1.6,0.5-2c1.8-1.1,2.4-0.2,1.2,1.7C1273.8,847.7,1273.2,847.8,1272.7,847.1
		L1272.7,847.1z M659.1,845.1c0-0.3,0.5-0.8,1.2-1.3s1.2-0.2,1.2,0.5s-0.5,1.3-1.2,1.3S659.1,845.4,659.1,845.1z M1242,833.2
		c-1.2-3,0.3-4,3.6-2.6c2.8,1.3,2.9,1.5,0.9,2.9C1243.8,835.5,1242.9,835.4,1242,833.2z M1249.5,827.9c-2.3-1.4-0.7-2.6,3-2.1
		c2.9,0.4,2.9,0.5,0.9,1.8C1252.1,828.4,1250.5,828.5,1249.5,827.9L1249.5,827.9z M1194.4,823.6c-2.4-5.2-1.6-7.2,0.9-2.2
		c2.6,5.2,2.7,5.4,1.4,5.4C1196.2,826.8,1195.2,825.3,1194.4,823.6z M1198.9,822.7c-0.1-1.2,0.2-1.9,0.6-1.6
		c0.4,0.4,0.4,1.4,0.1,2.3C1199.2,824.4,1199,824.1,1198.9,822.7L1198.9,822.7z M1295,811.4c-1.1-1.7-0.1-2.6,2.5-2.2
		c1.8,0.4,1.9,0.6,0.2,1.9C1296.4,812.3,1295.6,812.3,1295,811.4L1295,811.4z M597,805.5c-0.4-0.6-0.2-1.2,0.5-1.2s1.3,0.5,1.3,1.2
		s-0.2,1.2-0.5,1.2S597.4,806.2,597,805.5z M1115.5,794.4c-7.5-2.4-10.9-4.5-13.8-8.9c-3.4-5-9.5-8.8-12.7-7.8
		c-1.3,0.4-3.4,2.6-4.7,4.9c-2.3,3.9-2.7,4.1-6.9,3.3c-2.4-0.4-5.8-2.1-7.6-3.7c-2.2-2-3.9-2.7-5.6-2.1c-1.3,0.4-3.3,0.3-4.3-0.3
		c-1.6-0.9-1.5-1.3,1.1-3c3-2,3-2,1-6.2c-1.6-3.4-3.9-5.2-11.2-8.8c-5-2.5-10.7-4.6-12.6-4.6c-4.4,0-6.2-4-2.9-6.5
		c2-1.4,1.7-1.8-3.5-4.3c-5.5-2.6-5.5-2.8-2.9-4.2c1.5-0.8,3.8-1.5,5.3-1.5c2.8,0,6.3,3.9,6.3,7.1c0,1.1,1.1,3.4,2.6,5.2
		c2.5,3.2,2.6,3.2,4.4,0.9c1-1.3,4.3-3.7,7.3-5.5l5.4-3.1l7.5,3.4c4.2,1.9,10,4.3,13.1,5.4s9.2,4.4,13.6,7.3
		c8.4,5.5,12.1,10.2,10,12.7c-1.7,2.1,5,11.4,12,16.7C1124.1,796.5,1123.9,797.1,1115.5,794.4L1115.5,794.4z M1166.9,794.3
		c-0.9-1.1-1-1.8-0.2-1.8c1.4,0,3.1,2.2,2.3,3.1C1168.7,795.9,1167.8,795.3,1166.9,794.3L1166.9,794.3z M968.5,789.5
		c-1.7-0.9-2.2-1.6-1.2-1.7c2.1,0,5.5,1.9,4.7,2.7C971.7,790.9,970.1,790.4,968.5,789.5z M988.5,787.9c3.3-4.7,8.6-6.7,13.4-5.2
		c3.5,1.1,3.6,1.2,0.8,1.3c-1.7,0.1-5.5,1.7-8.6,3.7C987.1,792.2,985.4,792.3,988.5,787.9L988.5,787.9z M1159.8,789.6
		c-1.6-1.9-1.2-2.2,1.7-1.1c1,0.4,1.9,1.2,1.9,1.8C1163.4,791.9,1161.5,791.5,1159.8,789.6z M1165.4,788.5c-0.4-1.2-0.8-3-0.7-4.1
		c0.1-1.3,0.5-1,1.2,0.9c0.6,1.6,1,3.4,0.7,4.1C1166.3,790.1,1165.8,789.7,1165.4,788.5L1165.4,788.5z M1256.7,789.6
		c0-0.3,0.5-0.8,1.2-1.3s1.2-0.2,1.2,0.5s-0.5,1.3-1.2,1.3S1256.7,789.9,1256.7,789.6z M954.6,784.7c-0.8-0.3-1.2-1.1-0.8-1.7
		c0.9-1.5,8.5-1.4,9.4,0.1c0.4,0.6,0,1.2-0.8,1.2c-0.9,0-2.6,0.2-3.9,0.5C957.2,785.1,955.4,785,954.6,784.7L954.6,784.7z
		 M972.1,783.8c-2.1-2.6,0.3-3.4,5.9-1.9c5.6,1.5,5.6,1.7-0.2,2.8C974.8,785.3,973.1,785,972.1,783.8z M1149.5,783.1
		c-0.8-1.3-1-2.4-0.3-2.4c0.6,0,1.7,1.1,2.4,2.4c0.7,1.3,0.8,2.4,0.3,2.4C1151.4,785.4,1150.3,784.4,1149.5,783.1z M1156.9,781.9
		c-3.2-3.5-1.5-4,1.8-0.6c1.5,1.6,2.2,2.9,1.6,2.9S1158,783.2,1156.9,781.9L1156.9,781.9z M935.4,781.7c-4.2-0.6-10.2-1.9-13.2-2.9
		c-3.1-1-6.7-1.5-8-1c-2.7,0.9-14.2-2.5-14.2-4.2c0-3.8,10.6-4.1,16.2-0.4c2.1,1.4,3.8,1.4,8.2,0.4c4.9-1.1,5.9-1,8.8,1.2
		c1.8,1.3,3.8,2.4,4.5,2.4c2.3,0,9.4,4,8.8,4.9c-0.3,0.5-1.2,0.9-2,0.8C943.7,782.8,939.6,782.3,935.4,781.7L935.4,781.7z
		 M1147.4,776c-1.2-1.3-1.6-2.4-1-2.4c0.6,0,2.1,1.1,3.3,2.4c1.2,1.3,1.6,2.4,1,2.4S1148.6,777.3,1147.4,776L1147.4,776z
		 M1140,774.5c-0.7-0.8-1.6-3.1-2-5c-0.7-3.1-0.6-3.3,0.7-1.2c0.8,1.3,2.2,3.2,3.1,4.3c1,1.1,1.2,2.2,0.6,2.6
		C1141.7,775.6,1140.6,775.3,1140,774.5z M1115,770.7l-2.9-1.6l4.5-0.9c2.5-0.5,6.3-2.4,8.5-4.4c2.4-2.1,4-2.9,4-1.9
		c0,2.4-1.5,4.3-5.9,7.5C1118.6,772.9,1118.8,772.9,1115,770.7L1115,770.7z M893.4,766.1c-4.3-2.5-12.2-12-14.7-18
		c-1.4-3.2-4.5-8.5-7-11.7s-5.3-7.5-6.3-9.4c-1-1.9-4-5.7-6.7-8.3c-5.7-5.5-9.2-11.2-6.8-11.2c3.1,0.1,11.1,4.5,14.5,8.1
		c9.4,9.9,11.4,11.6,15.8,14.4c4.3,2.6,6.3,5.4,6.5,8.9c0,0.6,1.3,2.5,2.7,4.1c1.5,1.6,4.2,4.7,6.1,6.8c1.9,2.1,3.8,5.4,4.2,7.3
		C903.1,763.3,898.1,768.8,893.4,766.1L893.4,766.1z M655.5,765.4c0-0.6,0.5-1.2,1.2-1.2s1.2,0.5,1.2,1.2s-0.5,1.2-1.2,1.2
		S655.5,766,655.5,765.4z M967.9,765.3c-0.4-0.7-0.4-2.2,0-3.5c0.4-1.3-0.1-3.5-1.1-5.1c-1.6-2.5-1.6-3,0.2-5.6
		c1.1-1.6,2.4-5.7,2.9-9.3c0.6-4.4,1.8-7.3,3.7-9.2c2.6-2.6,3.2-2.7,9-1.6c5,0.9,6.9,0.8,9.6-0.6c4.5-2.3,4.9-2.2,3.4,1.1
		c-1.9,4.2-5.7,5.5-9.8,3.4c-7.2-3.8-16.8,1.8-11.7,6.9c1.9,1.9,2.9,2,6.3,1c5.9-1.7,8.2-1.4,4.5,0.6c-4.1,2.2-4.9,4.7-2.8,8.9
		c1,1.9,1.8,4.8,1.8,6.5c0,2.7-0.3,2.9-2.4,1.8c-1.3-0.7-3.2-3.2-4.2-5.6c-1.8-4.3-1.8-4.3-4.1-2c-2,2-2.1,2.9-1,6.9
		c1,3.6,0.9,4.8-0.3,5.6C969.7,766.8,968.8,766.8,967.9,765.3L967.9,765.3z M1129.9,759c-1.1-1.7-3.7-3.9-5.7-5
		c-2-1-3.4-2.1-3.1-2.5c1.8-1.8,12.1,6.5,11.2,9.1C1132.2,761.5,1131.1,760.8,1129.9,759L1129.9,759z M944.5,755.1
		c-1.8-0.9-4.2-1.4-5.3-1c-2.9,0.9-14.6-1.4-15.8-3.2c-0.9-1.4-3.6-10.1-5.1-16.2c-0.4-1.7,0-3.9,0.9-5.2c1.4-1.8,2.1-2,4.2-0.8
		c2.3,1.2,2.7,1,4-1.7c0.8-1.7,3.4-4.1,5.7-5.3c2.5-1.3,4.9-3.7,5.8-5.8c1-2.4,2.8-4,5.5-4.9c2.2-0.7,5.4-3.1,7.1-5.4s3.7-4,4.5-4
		c0.8,0,3.1,1.8,5.2,3.9l3.8,3.9l-3,4.1c-3.4,4.6-3.3,8.6,0.6,14.1l2.4,3.3l-2.9,1.9c-1.6,1.1-2.9,2.6-2.9,3.4
		c0,2.7-7.6,18.3-9.5,19.5C948.3,756.5,946.7,756.3,944.5,755.1L944.5,755.1z M1013.1,755.1c-2.4-0.6-2.8-2.7-0.4-2.7
		c0.9,0,3.4,0.4,5.6,0.8c3.3,0.7,3.6,0.9,1.6,1.7C1017.2,755.8,1016.1,755.9,1013.1,755.1L1013.1,755.1z M1201.2,740
		c0-0.3,0.5-0.8,1.2-1.3c0.6-0.4,1.2-0.2,1.2,0.5s-0.5,1.3-1.2,1.3C1201.7,740.5,1201.2,740.3,1201.2,740z M1008.9,736.8
		c-0.9-0.9-1-2-0.2-3.6c0.6-1.2,0.9-2.7,0.5-3.3c-1.1-1.7,1.6-5.9,3.8-5.9c1.7,0,1.7,0.2-0.1,2.2c-1.6,1.7-1.7,2.9-0.8,5.3
		C1014,736.4,1012,739.8,1008.9,736.8L1008.9,736.8z M415.8,732.9c0-0.3,0.5-0.8,1.2-1.3c0.6-0.4,1.2-0.2,1.2,0.5s-0.5,1.3-1.2,1.3
		S415.8,733.2,415.8,732.9z M1234.8,729.9c-0.4-0.6-0.2-1.2,0.5-1.2c0.7,0,1.3,0.5,1.3,1.2s-0.2,1.2-0.5,1.2
		C1235.8,731.1,1235.2,730.6,1234.8,729.9z M422.8,718.8c0-0.3,0.5-0.8,1.2-1.3c0.6-0.4,1.2-0.2,1.2,0.5s-0.5,1.3-1.2,1.3
		S422.8,719.1,422.8,718.8z M990.9,701c-2.3-5.3-2.6-5.5-6-4.7c-3.5,0.8-3.6,0.7-2.3-1.8c1.1-2,2.1-2.4,4.6-1.8c2.4,0.5,4,0,6.4-2.2
		c1.7-1.6,3.2-3.9,3.2-5.1c0-3,4.4,7,5.4,12.4c0.8,4.1,0.7,4.3-1.2,2.8c-2.7-2.3-5.4,0.1-3.1,2.8c0.9,1.1,1,1.8,0.3,1.8
		c-0.7,0-2.1,0.3-3.1,0.7C993.8,706.4,992.7,705.1,990.9,701L990.9,701z M775.6,703.1c-1.3-2.1-2.1-11.8-1.1-14.3
		c1-2.7,1.1-2.7,4.1,1.8c3.6,5.3,4.8,8.7,3.6,10.6C781,702.9,776.3,704.3,775.6,703.1L775.6,703.1z M1039.4,697
		c0-0.6,0.5-1.5,1.2-1.9s1.2-0.2,1.2,0.5c0,0.6-0.5,1.5-1.2,1.9S1039.4,697.6,1039.4,697z M1224.8,696.8c0-0.6,0.2-1.2,0.5-1.2
		c0.3,0,0.8,0.5,1.3,1.2s0.2,1.2-0.5,1.2S1224.8,697.5,1224.8,696.8z M956.7,690c0-0.5,2.4-3.6,5.3-6.8c4.2-4.7,5.3-5.4,5.3-3.4
		c0,1.3-1.7,4.4-3.9,6.8C959.6,690.7,956.7,692.2,956.7,690z M982.3,686.9c-0.4-1.1-0.3-2.8,0.2-3.8c0.8-1.5,1.2-1.5,2.3-0.1
		c1,1.3,1,2.2-0.2,3.8C983.1,688.8,983,688.8,982.3,686.9z M77.8,682.3c0.7-0.9,1-1.9,0.5-2.4c-0.4-0.4,0.3-0.8,1.7-0.8
		c1.9,0,2.3,0.6,1.8,2.4c-0.4,1.4-1.6,2.4-3,2.4C77,683.9,76.8,683.5,77.8,682.3L77.8,682.3z M990.2,682c-0.4-1.2-1-2.6-1.3-3.1
		c-0.3-0.5,0-0.9,0.6-0.9c1.2,0,2.8,4.8,2,5.7C991.2,684,990.6,683.2,990.2,682z M978.2,678.9c-1.7-2,0-4.8,2.4-4.3
		c1.6,0.3,1.6,0.8,0.4,3.1C979.8,680,979.3,680.2,978.2,678.9z M992.2,674.8c-1.4-1.7-2.3-3.3-2-3.6c1-1,4.3,1.2,6,3.9
		C998.9,679.2,995.5,679,992.2,674.8z M972.8,670.2c-1.1-1.1-1.9-2.5-1.9-3.3s1.2-0.2,2.6,1.2c1.4,1.4,2.3,2.9,1.9,3.3
		S973.8,671.3,972.8,670.2z M45.7,670.1c-0.4-0.4-0.8-1.3-0.8-2c0-0.7,0.6-0.7,1.4,0.2c0.8,0.8,1.1,1.7,0.8,2S46.1,670.5,45.7,670.1
		z M39,668.5c0-0.6,0.2-1.2,0.5-1.2s0.8,0.5,1.3,1.2s0.2,1.2-0.5,1.2S39,669.2,39,668.5z M94.5,666.1c0-0.6,0.2-1.2,0.5-1.2
		s0.8,0.5,1.3,1.2c0.4,0.6,0.2,1.2-0.5,1.2S94.5,666.8,94.5,666.1z M984.6,666c-1.2-0.7-3.4-0.9-5-0.5c-2.3,0.6-3.9-0.3-8.1-4.8
		c-6-6.2-7.2-8.8-5.4-12.2c0.7-1.3,1.2-3.9,1.2-5.9c0-6.4,4.3-6.2,7.4,0.4c1.7,3.7,1.8,4.4,0.1,8.4c-1.8,4.2-1.7,4.4,1.4,7.7
		c2.3,2.4,4,3.2,5.8,2.7c1.5-0.4,3.2,0.1,4,1.2C988.2,665.6,987.3,667.5,984.6,666L984.6,666z M87.4,658.5c0-0.3,0.5-0.8,1.2-1.3
		s1.2-0.2,1.2,0.5s-0.5,1.3-1.2,1.3S87.4,658.8,87.4,658.5z M272.8,654.3c0-0.6,0.5-1.2,1.2-1.2c0.6,0,1.2,0.5,1.2,1.2
		s-0.5,1.2-1.2,1.2C273.4,655.5,272.8,655,272.8,654.3z M83.9,649.7c0-0.6,0.5-1.5,1.2-1.9s1.2-0.2,1.2,0.5c0,0.6-0.5,1.5-1.2,1.9
		S83.9,650.4,83.9,649.7z M73.8,644.9c-0.4-0.7,0.1-0.9,1.1-0.5c2,0.8,2.4,1.6,0.7,1.6C75.1,646.1,74.2,645.5,73.8,644.9z
		 M261.6,644.9c-0.4-0.6-0.2-1.2,0.5-1.2s1.3,0.5,1.3,1.2s-0.2,1.2-0.5,1.2C262.6,646.1,262,645.5,261.6,644.9z M78.6,642.5
		c-0.4-0.6-0.2-1.2,0.5-1.2s1.3,0.5,1.3,1.2s-0.2,1.2-0.5,1.2S79,643.2,78.6,642.5z M83.9,642.5c0-0.6,0.2-1.2,0.5-1.2
		s0.8,0.5,1.3,1.2s0.2,1.2-0.5,1.2S83.9,643.2,83.9,642.5z M2.7,639.4c-0.8-0.3-1.5-1.1-1.5-1.7c0-1.7,5.2-1.3,7.7,0.7
		c2.2,1.6,2.1,1.7-1.3,1.7C5.7,640,3.5,639.7,2.7,639.4z M32.6,638.7c-1.1-0.6-3.4-0.8-5.2-0.4c-1.8,0.4-4.6,0.2-6.2-0.4
		c-2.5-1-2.3-1.1,1.9-1c6.3,0.1,8-0.9,6.4-3.9c-1.1-2.1-0.8-2.3,4.8-2.3c5.5,0,13.3,2.5,14.6,4.7C49.9,636.8,34.7,639.9,32.6,638.7
		L32.6,638.7z M55.2,639.5c-1.4-1.4,0.3-2.8,3.4-2.8c1.9,0,2.8,0.6,2.5,1.5C60.6,639.7,56.5,640.7,55.2,639.5z M909.7,637.6
		c-3.1-3.1,0-6.9,5.7-6.9c2.5,0,2.5,0,0.4,3.7C913.2,638.8,911.7,639.6,909.7,637.6z M65,637.3c0-0.3,0.8-0.8,1.8-1.1
		c1-0.4,1.8-0.2,1.8,0.5s-0.8,1.1-1.8,1.1S65,637.6,65,637.3z M13.9,628.9c-0.4-0.4-2.9-0.7-5.5-0.7c-3.7-0.1-4.6-0.4-3.7-1.5
		c0.9-1.1-0.4-2.5-4.7-5.3c-8.5-5.5-13.3-6.6-19-4.3c-5.4,2.1-5.8,2.2-5.8,0.9c0-2.5,9.4-5.2,16.2-4.7c6.5,0.5,10.1,1.9,22.8,8.7
		c10.4,5.6,10.5,5.6,7.1,6.6C17.4,629.5,14.7,629.7,13.9,628.9z M22.5,618.9c2.3-1.5,3.5-1.5,3.5,0c0,0.6-1.2,1.2-2.7,1.2
		C21.2,620,21,619.8,22.5,618.9z M963.1,616.8c-0.7-0.5-1.9-2.1-2.7-3.6c-1.2-2.3-1.1-3.3,0.7-6.4c2.8-4.7,4.6-5.3,5.5-1.7
		C967.5,608.8,964.8,617.9,963.1,616.8L963.1,616.8z M30.2,615.2c0.8-1.3,5.2-1.4,5.2-0.2c0,0.5-1.3,1-2.9,1.1
		C30.9,616.2,29.8,615.8,30.2,615.2L30.2,615.2z M6.9,603.8c-1.9-2.2-1.6-5,0.5-5c0.7,0,0.9,1,0.6,2.3s0,2.5,0.7,2.8
		c0.7,0.3,1,0.8,0.7,1.2C9,605.6,7.8,605,6.9,603.8z M13.7,594.6c-0.4-1.1-0.5-2.3-0.2-2.6c0.3-0.3,0.9,0.3,1.4,1.4s0.5,2.3,0.2,2.6
		C14.7,596.3,14.1,595.7,13.7,594.6z M6.3,593.5c0-1,1-1.8,2.2-1.8c2,0,2.1,0.2,0.5,1.8c-1,1-2,1.8-2.2,1.8
		C6.5,595.3,6.3,594.5,6.3,593.5z M996.8,567.6c0-0.9-1.3-3.2-2.9-5.1c-3.7-4.4-2.4-7.4,2-4.5c3.2,2.1,4.9,6.4,3.7,9.4
		C998.8,569.8,996.8,569.9,996.8,567.6z M80.3,560.5c0-0.3,0.5-0.8,1.2-1.3s1.2-0.2,1.2,0.5s-0.5,1.3-1.2,1.3S80.3,560.8,80.3,560.5
		z M1003.4,559.1c-0.8-2,1-3.9,3.8-3.9c1.9,0,1.9,2.6,0.1,4.5C1005.3,561.5,1004.3,561.4,1003.4,559.1L1003.4,559.1z M1014.2,554.7
		c-2.3-3.5-5.5-4-12.9-1.9c-3,0.8-5.1,0.8-6.5,0c-1.1-0.7-1.4-1.2-0.7-1.2s3-1.4,4.9-3c2.5-2.1,4.4-2.8,6.4-2.3
		c2.1,0.5,4.4-0.5,9.2-4.1c9.3-7,10.2-9.2,6.4-16.7c-3.6-7.2-2.6-9.5,2.8-6.3c3.9,2.3,7.6,9,6.6,11.8c-0.4,1,0.2,4.2,1.3,7
		c1.5,4.1,1.7,5.8,0.7,7.7c-1.5,2.8-5.7,4.7-10.5,4.7c-2.7,0-3.5,0.7-4.4,3.8l-1.1,3.8L1014.2,554.7L1014.2,554.7z M535.7,550.7
		c-1.4-1.4-0.7-2.7,1.6-2.7c1.3,0,2.6-0.5,3-1.2c1.1-1.8,3-1.4,2.3,0.4C541.9,549.2,536.8,551.7,535.7,550.7L535.7,550.7z
		 M495.5,548.7l-3.5-1.6l4.7-0.1c5.9-0.1,10.2,1,9.4,2.4C505.1,550.9,499.5,550.5,495.5,548.7L495.5,548.7z M447.8,536.9
		c-4.7-2.4-4.9-2.7-2.5-3.4c3-0.8,9.5,0.2,9.4,1.4c0,0.4-0.4,1.6-0.9,2.7C453,539.4,452.5,539.3,447.8,536.9z M424.1,524.1
		c-1-2.9-0.9-4.1,0.4-5.4c2.4-2.4,4.3-0.7,4.3,3.9C428.7,528,425.8,529,424.1,524.1L424.1,524.1z M396.4,525.1
		c0.8-2.2,4.4-2.6,3.7-0.4c-0.3,0.8-1.4,1.6-2.5,1.9C396.3,526.8,395.9,526.4,396.4,525.1L396.4,525.1z M1013.5,511.6
		c-2.2-3-2.2-3.6-0.6-5.9c1.6-2.2,1.6-2.9-0.1-6c-2.7-5.1-2.3-5.4,2.3-1.9c2.3,1.7,6.8,3.9,10,4.9c6.6,2,8.2,3.5,4.8,4.6
		c-1.3,0.4-2.4,1.5-2.4,2.5c0,1.3-0.8,1.5-3.2,0.9c-6.2-1.6-8-1.2-7.6,1.7C1017.2,515.8,1016.4,515.7,1013.5,511.6L1013.5,511.6z
		 M426,513c-1.4-1.4-0.9-3.7,1-4.4c1.3-0.5,1.8,0.1,1.8,2.2C428.7,513.7,427.6,514.6,426,513z M1006,488.1c-1-1.1-3.4-5.3-5.4-9.2
		s-7.1-11.1-11.5-15.9c-4.9-5.4-7.3-9-6.4-9.3c0.8-0.3,2.6,1,3.9,2.7c3.2,4.3,7.3,8.1,13.6,12.7c5.2,3.9,7.8,7.4,4.4,6.1
		c-3.9-1.5-2.9,2.1,2.1,7.7c2.9,3.3,5.3,6.3,5.3,6.6C1012.2,491,1007.6,489.9,1006,488.1L1006,488.1z M141.7,486
		c0-1,0.5-1.8,1.1-1.8s0.8,0.8,0.5,1.8c-0.4,1-0.9,1.8-1.1,1.8C142,487.8,141.7,487,141.7,486z M135.6,482.2l-4.4-0.5l8.3-8.2
		c4.6-4.5,8.9-8.2,9.6-8.2c0.8,0,0.5,0.9-0.5,2.1c-2.5,2.7-0.8,5.8,3.7,6.8c2,0.4,3.9,1.9,4.7,3.6c1.2,2.7,1,2.9-3.1,4.1
		C149.5,483,144.4,483.1,135.6,482.2L135.6,482.2z M-152.2,473.7c-4.1-3.8-4.5-5.4-1.8-6.5c2.4-0.9,6.9,2.1,8.6,5.8
		c1.8,3.9,1.8,4.1-0.9,4.1C-147.5,477.2-150.2,475.6-152.2,473.7z M367.9,467.7c1.3-0.6,3.9-1.7,5.7-2.4c4-1.5,3.4-3-1.7-4
		c-3.5-0.7-3.6-0.9-1.6-2.3c1.2-0.9,1.8-2.1,1.4-2.8c-0.4-0.7,0.8-1.8,2.8-2.5c1.9-0.7,3.5-1.8,3.5-2.4c0-2.7-2.5-7.3-3.8-7.1
		c-3.2,0.4-4.6-0.1-4.1-1.6c0.3-0.8,0.1-2.4-0.5-3.5c-1.5-3,2-9.1,5.2-9.1c0.5,0,0.8,0.6,0.6,1.4c-0.2,0.8,1,1.6,2.5,1.9l2.8,0.4
		l-2.6,2.8l-2.6,2.8l3,1.1c3.2,1.2,6.3,5.2,9.4,12.1c1.5,3.3,2.5,4.2,4.3,3.7c3.6-0.9,4,1.5,0.7,3.7c-2.3,1.5-2.7,2.4-1.7,3.4
		c1,1-1,1.7-7.8,2.7c-5.1,0.7-11.1,1.7-13.3,2.1C366.5,468.7,366.1,468.6,367.9,467.7L367.9,467.7z M348,461.2
		c-0.4-1.1,0.1-3.4,1-5.3c1.1-2.1,1.3-3.7,0.6-4.1c-2-1.3-1.3-2.9,1.7-3.6c1.6-0.4,3.5-1.5,4.3-2.4c1.6-1.9,8.8-2.2,9.9-0.5
		c0.4,0.6-0.1,2.4-1.1,3.8c-1,1.4-1.8,4-1.8,5.8c0,2.6-0.8,3.4-5,4.9c-2.8,1-5.9,2.1-6.9,2.6C349.4,462.8,348.5,462.5,348,461.2z
		 M369.7,449.5c0-0.3,0.5-0.8,1.2-1.3c0.6-0.4,1.2-0.2,1.2,0.5c0,0.7-0.5,1.3-1.2,1.3C370.2,450,369.7,449.8,369.7,449.5z
		 M-154.5,443.8c-1.2-1.4-1.1-2,0.4-3.2c2.4-2,3.6-0.6,2.2,2.5C-152.9,445.2-153.2,445.3-154.5,443.8L-154.5,443.8z M-156.3,434.9
		c-0.4-0.6,0.1-1.8,1-2.6c1.9-1.6,2.3-0.3,0.7,2.2C-155.2,435.5-155.9,435.6-156.3,434.9z M-232.7,434.2c0-0.8,3.6-2.3,8.7-3.5
		c1.9-0.5,3.1-0.4,2.7,0.3c-0.4,0.6-2.1,1.4-3.9,1.7c-1.8,0.4-4.2,1-5.3,1.5C-231.7,434.5-232.7,434.6-232.7,434.2L-232.7,434.2z
		 M469.2,420.9c-2.2-0.9-1.8-2.2,0.7-2.4c1.2-0.1,2.2,0.6,2.2,1.5C472,421.7,471.6,421.9,469.2,420.9L469.2,420.9z M209.7,414.8
		c-7.5-4.1-11-10.3-8.9-15.6c1-2.5,1.1-4,0.1-5.8c-2-3.7,0.6-7.9,7.1-12c3.1-1.9,6.2-4.5,6.9-5.8c1.9-3.5,0.2-9.6-3.1-11.1
		c-1.7-0.8-2.6-2-2.2-2.9c0.8-2.2-3.1-9.6-7-13.3c-2.9-2.7-4.1-3-14-3c-13.4-0.1-15.9-0.8-15.7-4.7c0.1-1.6,0.4-2.9,0.8-2.9
		c0.3,0,5.1-0.6,10.6-1.2c7-0.9,13.3-2.6,21.2-6c12.1-5.2,13.1-5.3,42-4.6c9.1,0.2,17.5-0.5,28.3-2.3c10.1-1.7,17.5-2.3,21.5-1.9
		c3.4,0.4,8.3,0.1,11.1-0.6c6.4-1.7,23.2,0.4,29.8,3.7c3.9,2,6,2.2,12.5,1.6c7.1-0.7,7.6-0.6,5.5,1c-1.3,1-5.3,2.1-8.9,2.6
		c-7.8,1-14.9,6.5-13,10.1c0.8,1.5,0.2,2.8-2.4,5.3c-1.9,1.8-3.8,4.2-4.1,5.3c-0.8,2.6-11.3,7.4-16.4,7.6c-5.8,0.2-6.4,1.4-1.9,3.9
		c2.1,1.2,5.2,3.1,6.8,4.4l3,2.3l-2.7,1c-2.1,0.8-3.8,0.3-7.2-2.1c-4.7-3.2-9.7-3.3-7,0c1,1.3,0.8,1.8-1.2,2.3
		c-4.4,1.1-1.3,3.4,3.6,2.6c3.1-0.5,4.8-0.2,5.8,0.9c1.1,1.4-0.3,2-9,3.8c-5.7,1.2-13.3,2.2-16.8,2.3c-6.6,0.1-11.4,2-18.5,7.4
		c-2.3,1.7-7.2,3.5-12.9,4.6c-11.9,2.3-16,4.9-23.1,15.2c-5.8,8.2-9.3,11.3-12.8,11.3C216.4,418.1,212.9,416.6,209.7,414.8
		L209.7,414.8z M125.9,406.9c-2.5-1.6-5.6-4.5-6.9-6.5c-2.5-3.9-4.7-4.4-11.4-2.5c-2.3,0.6-4.8,0.7-5.8,0.1c-3.5-2,2.8-3.9,9.9-3
		c5.4,0.7,6.5,0.5,7.2-1.1c1.3-3.3,7-5.6,10.2-4.2c2,0.9,3.7,0.9,6.3-0.1c3.4-1.3,3.4-1.4,1.2-3c-1.3-0.9-2.7-1.7-3.2-1.7
		c-0.5,0-2.3-2.4-4-5.3c-1.7-2.9-4.9-6.4-7.1-7.7c-3.7-2.3-4.2-2.3-7.6-0.6c-2.9,1.5-4.6,1.6-9.2,0.6c-3.1-0.7-7.4-0.9-9.6-0.5
		c-3.8,0.7-10.8-1.2-10.8-2.9c0-3.2,10-10.3,15.9-11.4l4.7-0.8l-3.4,3.6c-4.7,5-2.9,7.2,2.2,2.8c2.1-1.9,5.9-3.8,8.2-4.2
		c3.6-0.7,5.2-0.2,9.8,2.8c6.1,4,6.6,4.1,10,2.3c2.1-1.1,2.8-0.8,5.1,2c1.6,1.9,5,4.1,8.4,5.1c5.4,1.7,5.8,2.1,5.8,5.8
		c0,2.8,0.8,4.6,2.7,5.9c7.9,5.7,7.8,5.4,6,8.2c-2.4,3.8-4.2,4-9.4,1.4c-3.6-1.8-5.2-2.1-7-1.1c-2.2,1.2-2.3,1.4-0.5,4.9
		c1.5,2.8,1.6,4.3,0.6,6.5c-1.2,2.7-1.4,2.7-4.8,1c-6.6-3.4-11-1.2-4.9,2.5c1.9,1.1,3.2,2.5,2.9,3
		C136.3,410.7,130.5,409.8,125.9,406.9L125.9,406.9z M368.5,408.5c0-0.5,0.8-1,1.8-1c1,0,1.8,0.4,1.8,1s-0.8,1-1.8,1
		S368.5,409,368.5,408.5z M81.4,402.1c-2.3-1.2-4.1-1.3-7.4-0.4c-5.5,1.5-7.5,0.4-4.7-2.7c3.6-4,6-4.8,10.4-3.3
		c4.9,1.6,7.1,4,5.7,6.3C84.6,403.5,84,403.5,81.4,402.1z M316,401.6c-1.9-1.3-4.4-2-5.5-1.7c-1.5,0.5-1.8,0.1-1.4-1.7
		c0.7-2.7,11.1-6.6,14.6-5.5c1.2,0.4,4.3,0.1,6.9-0.7c4.1-1.2,5.2-1.1,7.9,0.7l3.2,2.1l-2.8,2.2c-2.4,1.9-6.9,3.5-17.6,6.4
		C320.3,403.7,317.9,402.9,316,401.6z M-4.7,379.5c-1.6-0.3-5.6-1.6-8.8-3.1l-5.8-2.6l8.2-0.6c4.5-0.3,8.2-1.1,8.2-1.8
		s-3.2-1.5-7.1-1.8c-5.1-0.5-6.1-0.8-3.5-1.2c4.3-0.7,4.6-2.5,0.6-3.5c-2.9-0.7-2.9-0.8,1.2-2.5c7.1-3,14.6-3.6,21.3-1.6
		c5.5,1.6,6.3,1.6,8.9-0.1c1.8-1.2,2.9-1.4,3-0.6c0.1,0.7,0.2,1.9,0.3,2.7c0.3,2.6,2.6,2.2,5.4-0.8c2.6-2.8,7.1-4.1,7.1-2.1
		c0,0.5-1.1,2.6-2.3,4.7l-2.3,3.8l3.8,2l3.8,2l-6.3,2.9c-5.6,2.6-6.8,2.7-11.9,1.5c-4.9-1.2-6.3-1-11.3,1.1
		C2.2,380.3,1.1,380.4-4.7,379.5L-4.7,379.5z M42.7,378.7c-1.1-1.3-0.6-1.9,2.1-3.1c1.9-0.8,4.7-1.1,6.1-0.6c2.6,0.8,2.5,0.9-1.4,3
		C44.6,380.7,44.3,380.7,42.7,378.7L42.7,378.7z M368.5,373.2c2.3-1.5,3.5-1.5,3.5,0c0,0.6-1.2,1.2-2.7,1.2
		C367.2,374.4,367.1,374.2,368.5,373.2z M585.2,370c-6-2.4-5.9-2.3-4.2-4.4c0.8-1,1-1.8,0.5-1.8c-0.6,0,0-0.8,1.3-1.8
		c1.3-1,2.4-2.2,2.4-2.6c0-1.7,4.8-6.4,8.2-7.9c1.9-0.9,7-1.9,11.2-2.2c4.2-0.3,9.9-0.9,12.6-1.4c2.9-0.4,5.2-0.3,5.6,0.4
		c0.8,1.4-0.8,1.9-9.9,3.6c-9.1,1.6-14.6,4.2-18.2,8.5c-3.8,4.5-3.9,7.4-0.4,9.8l2.7,1.9l-3.5-0.1C591.6,371.8,587.8,371,585.2,370
		L585.2,370z M-33.3,366.5c-1.9-1.9-1.5-2.3,7.7-7.3c10.7-5.9,16.1-6.6,25.7-3.7l5.3,1.6l-7.1,1.4c-5.8,1.1-18.1,5.3-27.8,9.3
		C-30.5,368.2-32.2,367.6-33.3,366.5z M52,365c0-0.6-1.5-2-3.2-3l-3.2-1.9l4.3,0.7c3.1,0.5,4.6,0.2,5.3-1c0.8-1.4,8.3-4.3,11.3-4.3
		c0.5,0,0.1,1.6-0.9,3.5C63.2,363.6,52,368.6,52,365L52,365z M70.4,361.6c-1.7-2.7,9.9-7,14.8-5.4c3.6,1.1,1.2,3.1-5.1,4.1
		c-2.8,0.5-6,1.2-7,1.7C72,362.4,70.8,362.2,70.4,361.6L70.4,361.6z M108.1,352.9c-7.8-0.6-14.3-1.3-14.5-1.4
		c-1.1-1,1.6-4.2,4.4-5.3c2.8-1.2,4.1-1,7.9,0.9c3.7,1.9,6.1,2.2,13,1.7c4.7-0.3,10-0.2,11.8,0.2l3.3,0.8l-4.1,2.2
		c-2.3,1.2-4.9,2.2-5.9,2.1C123.1,354,115.9,353.5,108.1,352.9L108.1,352.9z M448,348c-5.8-3-6.4-4.3-1.8-4.3c1.8,0,4-0.6,5-1.3
		c1.5-1.1,1.5-1.2-0.2-0.7c-1.1,0.3-2.5,0-3.3-0.8c-1-1-1.6-1-2.3,0.1c-0.6,1-1.9,1.1-4.4,0.4c-6.2-1.9-7.6-2.7-7.6-4.5
		c0-1.6,1.6-1.7,11.2-1c7.4,0.5,11.2,0.4,11.2-0.4c0-2.3,3.3-1.2,4.1,1.5l0.9,2.7l0.5-2.7c0.3-1.5,1.3-2.7,2.2-2.7
		c0.9,0,1.7-0.6,1.7-1.4c0-1.1,0.3-1.1,1.4,0c0.8,0.8,4.8,1.4,9.4,1.4c8.4,0,10.4,1.5,4.8,3.7c-2.9,1.1-8,0.8-13.6-0.8
		c-1.1-0.3-2.1-0.2-2.1,0.4c0,1.1,6.6,5.1,8.4,5.1c0.6,0,1.9,0.7,2.8,1.7c1.4,1.4,1.4,1.8-0.1,2.3c-1,0.4-1.7,0.1-1.7-0.6
		c0-0.8-1.5-1-4.2-0.5c-3,0.6-4,0.4-3.4-0.5c0.4-0.7,0.2-2.1-0.6-3c-1.5-1.8-5.9-2.4-5.9-0.8c0,0.5-1.7,2.9-3.8,5.2l-3.8,4.2
		L448,348L448,348z M134.7,345.4c-2-1.2-4.9-1.6-9.4-1.1c-4.2,0.4-7.4,0.1-9.2-0.9c-2.4-1.4-1.8-1.5,5.6-1.5c9.2,0.1,13.3-1.9,8.3-4
		c-2.4-1-2-1.1,2-0.5c5.3,0.7,7.4-0.7,4.5-3.1c-3.1-2.6,0.3-3.4,11.3-2.6c6.8,0.4,11.1,0.2,12.8-0.7c3.3-1.8,2-4.1-1.8-3.1
		c-2.6,0.7-21-0.4-20.2-1.2c0.6-0.6,26.5-3,43.6-4c8.8-0.6,18.7-1.3,21.8-1.7l5.8-0.7l-9.5,4.6c-8.9,4.3-23.5,8.5-29.4,8.5
		c-1.5,0-5.6,1.6-9.3,3.5c-3.7,1.9-7.4,3.5-8.3,3.5c-0.9,0-4.8,1.6-8.6,3.5s-7,3.5-7,3.5C137.6,347.2,136.3,346.4,134.7,345.4
		L134.7,345.4z M111.6,334.6c-5.7-1.3-5.9-1.7-1.7-3.9c6.1-3.2,11.9-4,14.6-2c2.1,1.5,2,1.8-2.1,4.2
		C118.1,335.4,116.3,335.7,111.6,334.6z"/>
</g>
<path class="st3" d="M628.2,231.6c-15.6,12.8-60.5,53.5-62.2,108S484.3,470.7,469,522s-25.7,25-24.3,30.3
	c1.3,5.3-8.1,35.2-15.4,43.4c-26,29.2-39.4,15.4-39.4,15.4c30.1,23.8-11.4,25.4-11.4,25.4c9.8,15.8-7.7,11.3-7,11.8
	c11.5,7.8,14.4,19-0.8,23.8c-9.4,2.9,22.1-8.2,6.3,30.1c-12.6,30.6-54,2.9-106-79.7c-77.7-123.3-78.3-81-143.7-127
	C63.7,450.5,0,433,0,433"/>
<path class="st3" d="M1602.7,446.7c-50.7-28.7-224.6-120.3-331.2-74.2c-9,3.9-2.6,5.2-4.6,6.3h-6.2c0,0-13.1,2.1-8,4.2
	s-9.3-6.8-12.6-5.5c-3.3,1.3-23.5,15.3-20.5,20.6s55.7,5.6,63.7,18.6s4.4,19.3,2.9,23.7c-1.6,4.3-13.7,30.3-19.3,33.7
	c-5.6,3.3-127.8,56.6-109.3,62.2c6,1.8,29.8,78.9,13,89.1c-24.9,15.2-27.3,24.2-28.7,27.9c-60.7,162.8-317.7-32.6-357.7-40.4
	c-13.7-2.7-14,17.8-25.6,17.8c-7.3,0-4-10.8-10-16.2S543.4,518.7,542.3,327c-0.3-61.7,83.2-93.2,83.2-93.2"/>
<path class="st4" d="M1164.8,418.4"/>
</svg>
