<?xml version="1.0" encoding="utf-8"?>
<!-- Generator: Adobe Illustrator 25.0.0, SVG Export Plug-In . SVG Version: 6.00 Build 0)  -->
<svg version="1.1" xmlns="http://www.w3.org/2000/svg" xmlns:xlink="http://www.w3.org/1999/xlink" x="0px" y="0px"
	 viewBox="0 0 361 361" style="enable-background:new 0 0 361 361;" xml:space="preserve">
<style type="text/css">
	.st0{fill:none;stroke:#0C322C;stroke-width:17;stroke-miterlimit:10;}
	.st1{fill:none;stroke:#30BA77;stroke-width:17;stroke-miterlimit:10;}
</style>
<g id="Layer_1">
	<path class="st0" d="M72.5,216.5h-36v-54c0-24.85,20.15-45,45-45h9v-27c0-24.85,20.15-45,45-45h99c24.85,0,45,20.15,45,45v45h0
		c24.85,0,45,20.15,45,45v36h-36"/>
	<g>
		<polyline class="st1" points="194.96,168.74 240.49,160.49 232.24,114.96 		"/>
		<path class="st1" d="M107.11,245.9c-13.06-28.81-7.75-63.92,15.94-87.61c30.54-30.54,80.06-30.54,110.6,0"/>
		<polyline class="st1" points="167.76,262.75 122.23,271 130.48,316.53 		"/>
		<path class="st1" d="M257.26,189.54c10.89,28.02,5.02,61.05-17.6,83.67c-30.54,30.54-80.06,30.54-110.6,0"/>
	</g>
</g>
<g id="Outlines">
</g>
</svg>
