<svg id="eI4sOc52BGU1" xmlns="http://www.w3.org/2000/svg" xmlns:xlink="http://www.w3.org/1999/xlink" viewBox="-350 50 5000 1527" shape-rendering="geometricPrecision" text-rendering="geometricPrecision"><style><![CDATA[#eI4sOc52BGU5_to {animation: eI4sOc52BGU5_to__to 10000ms linear infinite normal forwards}@keyframes eI4sOc52BGU5_to__to { 0% {transform: translate(2986.1px,641.9px)} 10% {transform: translate(2986.1px,641.9px);animation-timing-function: cubic-bezier(0.55,0.085,0.68,0.53)} 31% {transform: translate(-181.374592px,-56.2px)} 100% {transform: translate(-181.374592px,-56.2px)}} #eI4sOc52BGU196_to {animation: eI4sOc52BGU196_to__to 10000ms linear infinite normal forwards}@keyframes eI4sOc52BGU196_to__to { 0% {transform: translate(3490.950098px,1262.666667px)} 2% {transform: translate(3490.950098px,1262.666667px)} 22% {transform: translate(1523.556582px,1256.716667px)} 100% {transform: translate(1523.556582px,1256.716667px)}} #eI4sOc52BGU196_ts {animation: eI4sOc52BGU196_ts__ts 10000ms linear infinite normal forwards}@keyframes eI4sOc52BGU196_ts__ts { 0% {transform: scale(1,1)} 2% {transform: scale(1,1);animation-timing-function: cubic-bezier(0.55,0.085,0.68,0.53)} 22% {transform: scale(0.8,0.8)} 100% {transform: scale(0.8,0.8)}} #eI4sOc52BGU230_tr {animation: eI4sOc52BGU230_tr__tr 10000ms linear infinite normal forwards}@keyframes eI4sOc52BGU230_tr__tr { 0% {transform: translate(178.8px,794.3px) rotate(1800deg)} 100% {transform: translate(178.8px,794.3px) rotate(0deg)}} #eI4sOc52BGU235_tr {animation: eI4sOc52BGU235_tr__tr 10000ms linear infinite normal forwards}@keyframes eI4sOc52BGU235_tr__tr { 0% {transform: translate(329.9px,1108.9px) rotate(1800deg)} 100% {transform: translate(329.9px,1108.9px) rotate(0deg)}} #eI4sOc52BGU240_tr {animation: eI4sOc52BGU240_tr__tr 10000ms linear infinite normal forwards}@keyframes eI4sOc52BGU240_tr__tr { 0% {transform: translate(530.3px,1396.100965px) rotate(1800deg)} 100% {transform: translate(530.3px,1396.100965px) rotate(0deg)}}]]></style><path id="eI4sOc52BGU2" d="M4740.96609,1585.362574C4744.839793,1569.562574,4722.016692,1516.839493,4722.016692,1515.123061C4534.36127,1280.974204,4273.282776,1023.546816,3721.187777,1023.546816C3169.092777,1023.546816,2845.814457,1322.81751,2632.402409,1542.260884C2632.402409,1558.460884,2634.431492,1574.460884,2638.120733,1590.260884L4740.96609,1585.362574Z" transform="matrix(1 0 0 0.99659 -1921.078418 -99.884828)" fill="rgb(119,211,158)" stroke="none" stroke-width="1" stroke-miterlimit="1"/><g id="eI4sOc52BGU3"><g id="eI4sOc52BGU4"><g id="eI4sOc52BGU5_to" transform="translate(2986.1,641.9)"><g id="eI4sOc52BGU5" transform="translate(-1886.5,-529.8)"><line id="eI4sOc52BGU6" x1="1818.9" y1="466.9" x2="1796.1" y2="459.1" fill="none" stroke="rgb(138,148,156)" stroke-width="1.8875" stroke-linecap="round" stroke-miterlimit="1"/><rect id="eI4sOc52BGU7" width="9.8" height="27.9" rx="0" ry="0" transform="matrix(0.3233 -0.9463 0.9463 0.3233 1991.342208 500.692716)" fill="rgb(128,128,128)" stroke="none" stroke-width="1" stroke-miterlimit="1"/><rect id="eI4sOc52BGU8" width="9.8" height="27.9" rx="0" ry="0" transform="matrix(0.3233 -0.9463 0.9463 0.3233 1972.534654 555.704646)" fill="rgb(128,128,128)" stroke="none" stroke-width="1" stroke-miterlimit="1"/><path id="eI4sOc52BGU9" d="M1998.3,539.8L1847.5,488.3L1814.6,469.4C1811.4,467.5,1813.1,462.6,1816.8,463.1L1854.4,468.3L2005.2,519.8L1998.3,539.8Z" fill="rgb(208,211,214)" stroke="none" stroke-width="1" stroke-miterlimit="1"/><polygon id="eI4sOc52BGU10" points="1990,449.6 1958.2,438.7 1893.3,481.6 1959.1,504" fill="rgb(173,180,186)" stroke="none" stroke-width="1" stroke-miterlimit="1"/><polygon id="eI4sOc52BGU11" points="1943.4,586 1911.6,575.2 1886.5,501.6 1952.2,524" fill="rgb(173,180,186)" stroke="none" stroke-width="1" stroke-miterlimit="1"/><polygon id="eI4sOc52BGU12" points="2016.8,491.4 2001,486 1968.7,507.4 2001.4,518.5" fill="rgb(173,180,186)" stroke="none" stroke-width="1" stroke-miterlimit="1"/><polygon id="eI4sOc52BGU13" points="1990.2,569.3 1974.4,563.9 1961.9,527.3 1994.6,538.5" fill="rgb(173,180,186)" stroke="none" stroke-width="1" stroke-miterlimit="1"/><path id="eI4sOc52BGU14" d="M1873.3,493.5L1846.1,482.2C1843.7,481.4,1842.5,478.8,1843.3,476.4L1844,474.3C1844.8,471.9,1847.4,470.7,1849.8,471.5L1878.3,479.2C1880.7,480,1881.9,482.6,1881.1,485L1879.2,490.7C1878.2,493,1875.7,494.3,1873.3,493.5Z" fill="rgb(138,148,156)" stroke="none" stroke-width="1" stroke-miterlimit="1"/><g id="eI4sOc52BGU15"><rect id="eI4sOc52BGU16" width="26.4" height="6.6" rx="0" ry="0" transform="matrix(0.3233 -0.9463 0.9463 0.3233 1941.199939 483.5945)" fill="rgb(255,255,255)" stroke="none" stroke-width="1" stroke-miterlimit="1"/><circle id="eI4sOc52BGU17" r="8.8" transform="matrix(1 0 0 1 1948.7 472.2)" fill="rgb(138,148,156)" stroke="none" stroke-width="1" stroke-miterlimit="1"/><g id="eI4sOc52BGU18"><line id="eI4sOc52BGU19" x1="1941.3" y1="483.6" x2="1949.8" y2="458.6" fill="none" stroke="rgb(138,148,156)" stroke-width="1.101" stroke-miterlimit="1"/><line id="eI4sOc52BGU20" x1="1944.5" y1="484.7" x2="1953.1" y2="459.7" fill="none" stroke="rgb(138,148,156)" stroke-width="1.101" stroke-miterlimit="1"/><line id="eI4sOc52BGU21" x1="1947.8" y1="485.8" x2="1956.3" y2="460.8" fill="none" stroke="rgb(138,148,156)" stroke-width="1.101" stroke-miterlimit="1"/></g><polygon id="eI4sOc52BGU22" points="1942.4,470 1947.6,470.1 1949.3,465.2 1950.8,470.2 1956,470.2 1951.8,473.2 1953.3,478.2 1949.1,475.1 1944.9,478 1946.6,473.1" fill="rgb(255,255,255)" stroke="none" stroke-width="1" stroke-miterlimit="1"/></g><rect id="eI4sOc52BGU23" width="2.3" height="61.9" rx="0" ry="0" transform="matrix(0.3233 -0.9463 0.9463 0.3233 1958.594037 515.863302)" fill="rgb(138,148,156)" stroke="none" stroke-width="1" stroke-miterlimit="1"/><polygon id="eI4sOc52BGU24" points="2005.3,539 1998.3,539.8 2005.1,519.8 2010.2,524.7" fill="rgb(128,128,128)" stroke="none" stroke-width="1" stroke-miterlimit="1"/></g></g><rect id="eI4sOc52BGU25" width="162.6" height="104.5" rx="0" ry="0" transform="matrix(1 0 0 1 2592.7 706.9)" fill="rgb(36,83,255)" stroke="none" stroke-width="1" stroke-miterlimit="1"/><rect id="eI4sOc52BGU26" width="27.9" height="76.7" rx="0" ry="0" transform="matrix(1 0 0 1 2712.4 720.9)" fill="rgb(223,235,245)" stroke="none" stroke-width="1" stroke-miterlimit="1"/><rect id="eI4sOc52BGU27" width="27.9" height="76.7" rx="0" ry="0" transform="matrix(1 0 0 1 2677.5 720.9)" fill="rgb(223,235,245)" stroke="none" stroke-width="1" stroke-miterlimit="1"/><rect id="eI4sOc52BGU28" width="27.9" height="76.7" rx="0" ry="0" transform="matrix(1 0 0 1 2642.7 720.9)" fill="rgb(223,235,245)" stroke="none" stroke-width="1" stroke-miterlimit="1"/><rect id="eI4sOc52BGU29" width="27.9" height="76.7" rx="0" ry="0" transform="matrix(1 0 0 1 2607.8 720.9)" fill="rgb(223,235,245)" stroke="none" stroke-width="1" stroke-miterlimit="1"/><rect id="eI4sOc52BGU30" width="176.6" height="9.3" rx="0" ry="0" transform="matrix(1 0 0 1 2585.8 697.6)" fill="rgb(191,203,251)" stroke="none" stroke-width="1" stroke-miterlimit="1"/><g id="eI4sOc52BGU31"><rect id="eI4sOc52BGU32" width="158" height="53.4" rx="0" ry="0" transform="matrix(1 0 0 1 2596.2 641.9)" fill="rgb(255,255,255)" stroke="none" stroke-width="1" stroke-miterlimit="1"/><path id="eI4sOc52BGU33" d="M2598.5,644.2L2598.5,693L2751.8,693L2751.8,644.2L2598.5,644.2M2593.9,639.6L2756.5,639.6L2756.5,697.7L2593.9,697.7L2593.9,639.6L2593.9,639.6Z" fill="rgb(36,83,255)" stroke="none" stroke-width="1" stroke-miterlimit="1"/></g><g id="eI4sOc52BGU34"><polygon id="eI4sOc52BGU35" points="2740.2,720.9 2740.2,730.8 2713.9,720.9" fill="rgb(255,255,255)" stroke="none" stroke-width="1" stroke-miterlimit="1"/><polygon id="eI4sOc52BGU36" points="2712.4,797.5 2712.4,788.2 2737.1,797.5" fill="rgb(255,255,255)" stroke="none" stroke-width="1" stroke-miterlimit="1"/></g><g id="eI4sOc52BGU37"><polygon id="eI4sOc52BGU38" points="2705.4,720.9 2705.4,730.8 2679.1,720.9" fill="rgb(255,255,255)" stroke="none" stroke-width="1" stroke-miterlimit="1"/><polygon id="eI4sOc52BGU39" points="2677.5,797.5 2677.5,788.2 2702.3,797.5" fill="rgb(255,255,255)" stroke="none" stroke-width="1" stroke-miterlimit="1"/></g><g id="eI4sOc52BGU40"><polygon id="eI4sOc52BGU41" points="2635.7,720.9 2635.7,730.8 2609.4,720.9" fill="rgb(255,255,255)" stroke="none" stroke-width="1" stroke-miterlimit="1"/><polygon id="eI4sOc52BGU42" points="2607.8,797.5 2607.8,788.2 2632.6,797.5" fill="rgb(255,255,255)" stroke="none" stroke-width="1" stroke-miterlimit="1"/></g><g id="eI4sOc52BGU43"><polygon id="eI4sOc52BGU44" points="2670.5,720.9 2670.5,730.8 2644.2,720.9" fill="rgb(255,255,255)" stroke="none" stroke-width="1" stroke-miterlimit="1"/><g id="eI4sOc52BGU45"><polygon id="eI4sOc52BGU46" points="2740.2,776.6 2712.4,766.2 2712.4,728.4 2740.2,738.9" fill="rgb(255,255,255)" stroke="none" stroke-width="1" stroke-miterlimit="1"/><polygon id="eI4sOc52BGU47" points="2705.4,776.6 2677.5,766.2 2677.5,728.4 2705.4,738.9" fill="rgb(255,255,255)" stroke="none" stroke-width="1" stroke-miterlimit="1"/><polygon id="eI4sOc52BGU48" points="2635.7,738.9 2635.7,776.6 2607.8,766.2 2607.8,728.4" fill="rgb(255,255,255)" stroke="none" stroke-width="1" stroke-miterlimit="1"/><polygon id="eI4sOc52BGU49" points="2670.5,776.6 2642.7,766.2 2642.7,728.4 2670.5,738.9" fill="rgb(255,255,255)" stroke="none" stroke-width="1" stroke-miterlimit="1"/></g><polygon id="eI4sOc52BGU50" points="2642.7,797.5 2642.7,788.2 2667.4,797.5" fill="rgb(255,255,255)" stroke="none" stroke-width="1" stroke-miterlimit="1"/></g><rect id="eI4sOc52BGU51" width="176.6" height="9.3" rx="0" ry="0" transform="matrix(1 0 0 1 2585.8 754.6)" fill="rgb(191,203,251)" stroke="none" stroke-width="1" stroke-miterlimit="1"/></g><g id="eI4sOc52BGU52"><g id="eI4sOc52BGU53"><ellipse id="eI4sOc52BGU54" rx="53.6" ry="53.6" transform="matrix(0.919 -0.3942 0.3942 0.919 2349.242426 815.60139)" fill="rgb(227,248,241)" stroke="none" stroke-width="1" stroke-miterlimit="1"/></g><g id="eI4sOc52BGU55"><path id="eI4sOc52BGU56" d="M2403,815.7C2403,786.1,2379,762,2349.4,762L2349.4,869.3C2379,869.3,2403,845.3,2403,815.7Z" fill="rgb(144,235,205)" stroke="none" stroke-width="1" stroke-miterlimit="1"/></g><g id="eI4sOc52BGU57"><g id="eI4sOc52BGU58"><path id="eI4sOc52BGU59" d="M2349.4,900.4C2348.4,900.4,2347.6,899.6,2347.6,898.6L2347.6,823.4C2347.6,822.4,2348.4,821.6,2349.4,821.6C2350.4,821.6,2351.2,822.4,2351.2,823.4L2351.2,898.6C2351.2,899.6,2350.4,900.4,2349.4,900.4L2349.4,900.4Z" fill="rgb(49,49,49)" stroke="none" stroke-width="1" stroke-miterlimit="1"/></g><g id="eI4sOc52BGU60"><path id="eI4sOc52BGU61" d="M2349.4,852.6C2348.9,852.6,2348.5,852.4,2348.1,852.1C2347.4,851.4,2347.4,850.2,2348.1,849.5L2359.3,838.3C2360,837.6,2361.2,837.6,2361.9,838.3C2362.6,839,2362.6,840.2,2361.9,840.9L2350.7,852.1C2350.3,852.5,2349.8,852.6,2349.4,852.6L2349.4,852.6Z" fill="rgb(49,49,49)" stroke="none" stroke-width="1" stroke-miterlimit="1"/></g><g id="eI4sOc52BGU62"><path id="eI4sOc52BGU63" d="M2349.4,842.9C2348.9,842.9,2348.5,842.7,2348.1,842.4L2333.3,827.6C2332.6,826.9,2332.6,825.7,2333.3,825C2334,824.3,2335.2,824.3,2335.9,825L2350.7,839.8C2351.4,840.5,2351.4,841.7,2350.7,842.4C2350.3,842.7,2349.8,842.9,2349.4,842.9L2349.4,842.9Z" fill="rgb(49,49,49)" stroke="none" stroke-width="1" stroke-miterlimit="1"/></g></g></g><g id="eI4sOc52BGU64"><g id="eI4sOc52BGU65"><rect id="eI4sOc52BGU66" width="209.1" height="348.4" rx="0" ry="0" transform="matrix(1 0 0 1 3071.750049 431.636389)" fill="rgb(25,32,114)" stroke="none" stroke-width="1" stroke-miterlimit="1"/><rect id="eI4sOc52BGU67" width="23.2" height="348.4" rx="0" ry="0" transform="matrix(1 0 0 1 3070.1 433)" fill="rgb(191,203,251)" stroke="none" stroke-width="1" stroke-miterlimit="1"/><rect id="eI4sOc52BGU68" width="23.2" height="348.4" rx="0" ry="0" transform="matrix(1 0 0 1 3116.6 433)" fill="rgb(191,203,251)" stroke="none" stroke-width="1" stroke-miterlimit="1"/><rect id="eI4sOc52BGU69" width="23.2" height="348.4" rx="0" ry="0" transform="matrix(1 0 0 1 3163 433)" fill="rgb(191,203,251)" stroke="none" stroke-width="1" stroke-miterlimit="1"/><rect id="eI4sOc52BGU70" width="23.2" height="348.4" rx="0" ry="0" transform="matrix(1 0 0 1 3258 433)" fill="rgb(191,203,251)" stroke="none" stroke-width="1" stroke-miterlimit="1"/><rect id="eI4sOc52BGU71" width="23.2" height="348.4" rx="0" ry="0" transform="matrix(1 0 0 1 3209.5 433)" fill="rgb(191,203,251)" stroke="none" stroke-width="1" stroke-miterlimit="1"/><rect id="eI4sOc52BGU72" width="220.7" height="7" rx="0" ry="0" transform="matrix(1 0 0 1 3064.3 531.4)" fill="rgb(242,245,245)" stroke="none" stroke-width="1" stroke-miterlimit="1"/><rect id="eI4sOc52BGU73" width="220.7" height="7" rx="0" ry="0" transform="matrix(1 0 0 1 3064.3 465.8)" fill="rgb(242,245,245)" stroke="none" stroke-width="1" stroke-miterlimit="1"/><rect id="eI4sOc52BGU74" width="220.7" height="7" rx="0" ry="0" transform="matrix(1 0 0 1 3064.3 695.3)" fill="rgb(242,245,245)" stroke="none" stroke-width="1" stroke-miterlimit="1"/><rect id="eI4sOc52BGU75" width="220.7" height="7" rx="0" ry="0" transform="matrix(1 0 0 1 3064.3 629.7)" fill="rgb(242,245,245)" stroke="none" stroke-width="1" stroke-miterlimit="1"/><rect id="eI4sOc52BGU76" width="220.7" height="7" rx="0" ry="0" transform="matrix(1 0 0 1 3064.3 564.1)" fill="rgb(242,245,245)" stroke="none" stroke-width="1" stroke-miterlimit="1"/><rect id="eI4sOc52BGU77" width="220.7" height="7" rx="0" ry="0" transform="matrix(1 0 0 1 3064.3 498.6)" fill="rgb(242,245,245)" stroke="none" stroke-width="1" stroke-miterlimit="1"/><rect id="eI4sOc52BGU78" width="220.7" height="7" rx="0" ry="0" transform="matrix(1 0 0 1 3064.3 596.9)" fill="rgb(242,245,245)" stroke="none" stroke-width="1" stroke-miterlimit="1"/><rect id="eI4sOc52BGU79" width="220.7" height="7" rx="0" ry="0" transform="matrix(1 0 0 1 3064.3 433)" fill="rgb(61,61,61)" stroke="none" stroke-width="1" stroke-miterlimit="1"/><rect id="eI4sOc52BGU80" width="220.7" height="7" rx="0" ry="0" transform="matrix(1 0 0 1 3064.3 728)" fill="rgb(242,245,245)" stroke="none" stroke-width="1" stroke-miterlimit="1"/><rect id="eI4sOc52BGU81" width="220.7" height="7" rx="0" ry="0" transform="matrix(1 0 0 1 3064.3 662.5)" fill="rgb(242,245,245)" stroke="none" stroke-width="1" stroke-miterlimit="1"/></g><g id="eI4sOc52BGU82"><rect id="eI4sOc52BGU83" width="69.7" height="9.3" rx="0" ry="0" transform="matrix(1 0 0 1 2764.6 454.3)" fill="rgb(135,135,135)" stroke="none" stroke-width="1" stroke-miterlimit="1"/><rect id="eI4sOc52BGU84" width="92.9" height="278.7" rx="0" ry="0" transform="matrix(1 0 0 1 2755.3 502.8)" fill="rgb(135,135,135)" stroke="none" stroke-width="1" stroke-miterlimit="1"/><rect id="eI4sOc52BGU85" width="18.6" height="18.6" rx="0" ry="0" transform="matrix(1 0 0 1 2773.9 521.4)" fill="rgb(255,255,255)" stroke="none" stroke-width="1" stroke-miterlimit="1"/><rect id="eI4sOc52BGU86" width="18.6" height="18.6" rx="0" ry="0" transform="matrix(1 0 0 1 2811 521.4)" fill="rgb(255,255,255)" stroke="none" stroke-width="1" stroke-miterlimit="1"/><rect id="eI4sOc52BGU87" width="18.6" height="18.6" rx="0" ry="0" transform="matrix(1 0 0 1 2773.9 563.8)" fill="rgb(255,255,255)" stroke="none" stroke-width="1" stroke-miterlimit="1"/><rect id="eI4sOc52BGU88" width="18.6" height="18.6" rx="0" ry="0" transform="matrix(1 0 0 1 2811 563.8)" fill="rgb(255,255,255)" stroke="none" stroke-width="1" stroke-miterlimit="1"/><rect id="eI4sOc52BGU89" width="18.6" height="18.6" rx="0" ry="0" transform="matrix(1 0 0 1 2773.9 608.9)" fill="rgb(255,255,255)" stroke="none" stroke-width="1" stroke-miterlimit="1"/><rect id="eI4sOc52BGU90" width="18.6" height="18.6" rx="0" ry="0" transform="matrix(1 0 0 1 2811 608.9)" fill="rgb(255,255,255)" stroke="none" stroke-width="1" stroke-miterlimit="1"/><rect id="eI4sOc52BGU91" width="18.6" height="18.6" rx="0" ry="0" transform="matrix(1 0 0 1 2773.9 654)" fill="rgb(255,255,255)" stroke="none" stroke-width="1" stroke-miterlimit="1"/><rect id="eI4sOc52BGU92" width="18.6" height="18.6" rx="0" ry="0" transform="matrix(1 0 0 1 2811 654)" fill="rgb(255,255,255)" stroke="none" stroke-width="1" stroke-miterlimit="1"/><rect id="eI4sOc52BGU93" width="18.6" height="18.6" rx="0" ry="0" transform="matrix(1 0 0 1 2773.9 699.2)" fill="rgb(255,255,255)" stroke="none" stroke-width="1" stroke-miterlimit="1"/><rect id="eI4sOc52BGU94" width="18.6" height="18.6" rx="0" ry="0" transform="matrix(1 0 0 1 2811 699.2)" fill="rgb(255,255,255)" stroke="none" stroke-width="1" stroke-miterlimit="1"/><rect id="eI4sOc52BGU95" width="18.6" height="37.2" rx="0" ry="0" transform="matrix(1 0 0 1 2773.9 744.3)" fill="rgb(255,255,255)" stroke="none" stroke-width="1" stroke-miterlimit="1"/><rect id="eI4sOc52BGU96" width="18.6" height="37.2" rx="0" ry="0" transform="matrix(1 0 0 1 2811 744.3)" fill="rgb(255,255,255)" stroke="none" stroke-width="1" stroke-miterlimit="1"/></g><g id="eI4sOc52BGU97"><polygon id="eI4sOc52BGU98" points="2934.2,781.5 2843.6,781.5 2843.6,409.8 2934.2,372.6" fill="rgb(191,203,251)" stroke="none" stroke-width="1" stroke-miterlimit="1"/><polygon id="eI4sOc52BGU99" points="3003.9,781.5 2931.9,781.5 2931.9,409.8 3003.9,465.5" fill="rgb(191,203,251)" stroke="none" stroke-width="1" stroke-miterlimit="1"/><rect id="eI4sOc52BGU100" width="53.4" height="18.6" rx="0" ry="0" transform="matrix(1 0 0 1 2862.2 521.3)" fill="rgb(229,243,244)" stroke="none" stroke-width="1" stroke-miterlimit="1"/><rect id="eI4sOc52BGU101" width="53.4" height="18.6" rx="0" ry="0" transform="matrix(1 0 0 1 2934.2 521.3)" fill="rgb(229,243,244)" stroke="none" stroke-width="1" stroke-miterlimit="1"/><rect id="eI4sOc52BGU102" width="125.4" height="18.6" rx="0" ry="0" transform="matrix(1 0 0 1 2862.2 707.1)" fill="rgb(25,32,114)" stroke="none" stroke-width="1" stroke-miterlimit="1"/><rect id="eI4sOc52BGU103" width="53.4" height="18.6" rx="0" ry="0" transform="matrix(1 0 0 1 2862.2 670)" fill="rgb(229,243,244)" stroke="none" stroke-width="1" stroke-miterlimit="1"/><rect id="eI4sOc52BGU104" width="53.4" height="18.6" rx="0" ry="0" transform="matrix(1 0 0 1 2934.2 670)" fill="rgb(229,243,244)" stroke="none" stroke-width="1" stroke-miterlimit="1"/><rect id="eI4sOc52BGU105" width="125.4" height="18.6" rx="0" ry="0" transform="matrix(1 0 0 1 2862.2 632.8)" fill="rgb(25,32,114)" stroke="none" stroke-width="1" stroke-miterlimit="1"/><rect id="eI4sOc52BGU106" width="53.4" height="18.6" rx="0" ry="0" transform="matrix(1 0 0 1 2862.2 595.6)" fill="rgb(229,243,244)" stroke="none" stroke-width="1" stroke-miterlimit="1"/><rect id="eI4sOc52BGU107" width="53.4" height="18.6" rx="0" ry="0" transform="matrix(1 0 0 1 2934.2 595.6)" fill="rgb(229,243,244)" stroke="none" stroke-width="1" stroke-miterlimit="1"/><rect id="eI4sOc52BGU108" width="125.4" height="18.6" rx="0" ry="0" transform="matrix(1 0 0 1 2862.2 558.5)" fill="rgb(25,32,114)" stroke="none" stroke-width="1" stroke-miterlimit="1"/><rect id="eI4sOc52BGU109" width="125.4" height="18.6" rx="0" ry="0" transform="matrix(1 0 0 1 2862.2 484.1)" fill="rgb(25,32,114)" stroke="none" stroke-width="1" stroke-miterlimit="1"/><rect id="eI4sOc52BGU110" width="53.4" height="18.6" rx="0" ry="0" transform="matrix(1 0 0 1 2862.2 447)" fill="rgb(229,243,244)" stroke="none" stroke-width="1" stroke-miterlimit="1"/><rect id="eI4sOc52BGU111" width="18.6" height="18.6" rx="0" ry="0" transform="matrix(1 0 0 1 2934.2 447)" fill="rgb(25,32,114)" stroke="none" stroke-width="1" stroke-miterlimit="1"/><rect id="eI4sOc52BGU112" width="18.6" height="18.6" rx="0" ry="0" transform="matrix(1 0 0 1 2897 409.8)" fill="rgb(25,32,114)" stroke="none" stroke-width="1" stroke-miterlimit="1"/><rect id="eI4sOc52BGU113" width="53.4" height="37.2" rx="0" ry="0" transform="matrix(1 0 0 1 2862.2 744.3)" fill="rgb(229,243,244)" stroke="none" stroke-width="1" stroke-miterlimit="1"/><rect id="eI4sOc52BGU114" width="53.4" height="37.2" rx="0" ry="0" transform="matrix(1 0 0 1 2934.2 744.3)" fill="rgb(191,225,228)" stroke="none" stroke-width="1" stroke-miterlimit="1"/></g><g id="eI4sOc52BGU115"><rect id="eI4sOc52BGU116" width="185.8" height="139.3" rx="0" ry="0" transform="matrix(1 0 0 1 2941.2 642.1)" fill="rgb(254,124,63)" stroke="none" stroke-width="1" stroke-miterlimit="1"/><rect id="eI4sOc52BGU117" width="185.8" height="74.3" rx="0" ry="0" transform="matrix(1 0 0 1 2941.2 642.1)" fill="rgb(243,178,146)" stroke="none" stroke-width="1" stroke-miterlimit="1"/><g id="eI4sOc52BGU118"><rect id="eI4sOc52BGU119" width="144" height="41.8" rx="0" ry="0" transform="matrix(1 0 0 1 2962.1 658.3)" fill="rgb(255,255,255)" stroke="none" stroke-width="1" stroke-miterlimit="1"/><path id="eI4sOc52BGU120" d="M3103.8,660.7L2964.4,660.7L2964.4,697.9L3103.8,697.9L3103.8,660.7M3108.4,656L3108.4,702.5L2959.7,702.5L2959.7,656L3108.4,656L3108.4,656Z" fill="rgb(254,124,63)" stroke="none" stroke-width="1" stroke-miterlimit="1"/></g><g id="eI4sOc52BGU121"><g id="eI4sOc52BGU122"><rect id="eI4sOc52BGU123" width="27.9" height="55.8" rx="0" ry="0" transform="matrix(1 0 0 1 2959.8 725.7)" fill="rgb(223,235,245)" stroke="none" stroke-width="1" stroke-miterlimit="1"/><rect id="eI4sOc52BGU124" width="27.9" height="55.8" rx="0" ry="0" transform="matrix(1 0 0 1 2992.3 725.7)" fill="rgb(223,235,245)" stroke="none" stroke-width="1" stroke-miterlimit="1"/></g><g id="eI4sOc52BGU125"><rect id="eI4sOc52BGU126" width="27.9" height="55.8" rx="0" ry="0" transform="matrix(1 0 0 1 3048.1 725.7)" fill="rgb(223,235,245)" stroke="none" stroke-width="1" stroke-miterlimit="1"/><rect id="eI4sOc52BGU127" width="27.9" height="55.8" rx="0" ry="0" transform="matrix(1 0 0 1 3080.6 725.7)" fill="rgb(223,235,245)" stroke="none" stroke-width="1" stroke-miterlimit="1"/></g><polygon id="eI4sOc52BGU128" points="3020.2,733.3 2992.3,743.7 2992.3,758.2 3020.2,747.8" fill="rgb(255,255,255)" stroke="none" stroke-width="1" stroke-miterlimit="1"/><polygon id="eI4sOc52BGU129" points="3020.2,781.5 3020.2,772.2 2995.4,781.5" fill="rgb(255,255,255)" stroke="none" stroke-width="1" stroke-miterlimit="1"/><polygon id="eI4sOc52BGU130" points="3108.4,733.3 3080.6,743.7 3080.6,758.2 3108.4,747.8" fill="rgb(255,255,255)" stroke="none" stroke-width="1" stroke-miterlimit="1"/><polygon id="eI4sOc52BGU131" points="3108.4,781.5 3108.4,772.2 3083.7,781.5" fill="rgb(255,255,255)" stroke="none" stroke-width="1" stroke-miterlimit="1"/><polygon id="eI4sOc52BGU132" points="3048.1,725.7 3048.1,735.6 3074.4,725.7" fill="rgb(255,255,255)" stroke="none" stroke-width="1" stroke-miterlimit="1"/><polygon id="eI4sOc52BGU133" points="2992.3,725.7 2992.3,735.6 3018.6,725.7" fill="rgb(255,255,255)" stroke="none" stroke-width="1" stroke-miterlimit="1"/><polygon id="eI4sOc52BGU134" points="2959.8,725.7 2959.8,735.6 2986.1,725.7" fill="rgb(255,255,255)" stroke="none" stroke-width="1" stroke-miterlimit="1"/><polygon id="eI4sOc52BGU135" points="3080.6,725.7 3080.6,735.6 3106.9,725.7" fill="rgb(255,255,255)" stroke="none" stroke-width="1" stroke-miterlimit="1"/><polygon id="eI4sOc52BGU136" points="3075.9,733.3 3048.1,743.7 3048.1,758.2 3075.9,747.8" fill="rgb(255,255,255)" stroke="none" stroke-width="1" stroke-miterlimit="1"/><polygon id="eI4sOc52BGU137" points="3075.9,781.5 3075.9,772.2 3051.1,781.5" fill="rgb(255,255,255)" stroke="none" stroke-width="1" stroke-miterlimit="1"/><polygon id="eI4sOc52BGU138" points="2987.6,733.3 2959.8,743.7 2959.8,758.2 2987.6,747.8" fill="rgb(255,255,255)" stroke="none" stroke-width="1" stroke-miterlimit="1"/><polygon id="eI4sOc52BGU139" points="2987.6,781.5 2987.6,772.2 2962.9,781.5" fill="rgb(255,255,255)" stroke="none" stroke-width="1" stroke-miterlimit="1"/></g></g><g id="eI4sOc52BGU140"><g id="eI4sOc52BGU141"><g id="eI4sOc52BGU142"><rect id="eI4sOc52BGU143" width="41.7" height="41" rx="0" ry="0" transform="matrix(1 0 0 1 3132.7 351)" fill="rgb(36,83,255)" stroke="none" stroke-width="1" stroke-miterlimit="1"/><path id="eI4sOc52BGU144" d="M3155.7,357.2L3155.7,385.9L3159.9,385.9L3159.9,357.2L3155.7,357.2ZM3143.1,357.2L3143.1,385.9L3138.9,385.9L3138.9,357.2L3143.1,357.2ZM3168.2,357.2L3168.2,385.9L3164,385.9L3164,357.2L3168.2,357.2ZM3151.5,357.2L3151.5,385.9L3147.3,385.9L3147.3,357.2L3151.5,357.2Z" fill="rgb(128,154,247)" stroke="none" stroke-width="1" stroke-miterlimit="1"/></g><g id="eI4sOc52BGU145"><rect id="eI4sOc52BGU146" width="41.7" height="41" rx="0" ry="0" transform="matrix(1 0 0 1 3195.3 392)" fill="rgb(36,83,255)" stroke="none" stroke-width="1" stroke-miterlimit="1"/><path id="eI4sOc52BGU147" d="M3218.3,398.2L3218.3,426.9L3222.5,426.9L3222.5,398.2L3218.3,398.2ZM3205.7,398.2L3205.7,426.9L3201.5,426.9L3201.5,398.2L3205.7,398.2ZM3230.8,398.2L3230.8,426.9L3226.6,426.9L3226.6,398.2L3230.8,398.2ZM3214.1,398.2L3214.1,426.9L3209.9,426.9L3209.9,398.2L3214.1,398.2Z" fill="rgb(128,154,247)" stroke="none" stroke-width="1" stroke-miterlimit="1"/></g><g id="eI4sOc52BGU148"><rect id="eI4sOc52BGU149" width="41.7" height="41" rx="0" ry="0" transform="matrix(1 0 0 1 3070.1 392)" fill="rgb(36,83,255)" stroke="none" stroke-width="1" stroke-miterlimit="1"/><path id="eI4sOc52BGU150" d="M3093.1,398.2L3093.1,426.9L3097.3,426.9L3097.3,398.2L3093.1,398.2ZM3080.6,398.2L3080.6,426.9L3076.4,426.9L3076.4,398.2L3080.6,398.2ZM3105.6,398.2L3105.6,426.9L3101.4,426.9L3101.4,398.2L3105.6,398.2ZM3088.9,398.2L3088.9,426.9L3084.7,426.9L3084.7,398.2L3088.9,398.2Z" fill="rgb(128,154,247)" stroke="none" stroke-width="1" stroke-miterlimit="1"/></g><g id="eI4sOc52BGU151"><rect id="eI4sOc52BGU152" width="41.7" height="41" rx="0" ry="0" transform="matrix(1 0 0 1 3174.4 351)" fill="rgb(222,223,224)" stroke="none" stroke-width="1" stroke-miterlimit="1"/><path id="eI4sOc52BGU153" d="M3197.4,357.2L3197.4,385.9L3201.6,385.9L3201.6,357.2L3197.4,357.2ZM3184.9,357.2L3184.9,385.9L3180.7,385.9L3180.7,357.2L3184.9,357.2ZM3209.9,357.2L3209.9,385.9L3205.7,385.9L3205.7,357.2L3209.9,357.2ZM3193.2,357.2L3193.2,385.9L3189,385.9L3189,357.2L3193.2,357.2Z" fill="rgb(192,194,196)" stroke="none" stroke-width="1" stroke-miterlimit="1"/></g><g id="eI4sOc52BGU154"><rect id="eI4sOc52BGU155" width="41.7" height="41" rx="0" ry="0" transform="matrix(1 0 0 1 3111.9 392)" fill="rgb(222,223,224)" stroke="none" stroke-width="1" stroke-miterlimit="1"/><path id="eI4sOc52BGU156" d="M3134.8,398.2L3134.8,426.9L3139,426.9L3139,398.2L3134.8,398.2ZM3122.3,398.2L3122.3,426.9L3118.1,426.9L3118.1,398.2L3122.3,398.2ZM3147.3,398.2L3147.3,426.9L3143.1,426.9L3143.1,398.2L3147.3,398.2ZM3130.6,398.2L3130.6,426.9L3126.4,426.9L3126.4,398.2L3130.6,398.2Z" fill="rgb(192,194,196)" stroke="none" stroke-width="1" stroke-miterlimit="1"/></g><g id="eI4sOc52BGU157"><rect id="eI4sOc52BGU158" width="41.7" height="41" rx="0" ry="0" transform="matrix(1 0 0 1 3237 392)" fill="rgb(222,223,224)" stroke="none" stroke-width="1" stroke-miterlimit="1"/><path id="eI4sOc52BGU159" d="M3260,398.2L3260,426.9L3264.2,426.9L3264.2,398.2L3260,398.2ZM3247.5,398.2L3247.5,426.9L3243.3,426.9L3243.3,398.2L3247.5,398.2ZM3272.5,398.2L3272.5,426.9L3268.3,426.9L3268.3,398.2L3272.5,398.2ZM3255.8,398.2L3255.8,426.9L3251.6,426.9L3251.6,398.2L3255.8,398.2Z" fill="rgb(192,194,196)" stroke="none" stroke-width="1" stroke-miterlimit="1"/></g><g id="eI4sOc52BGU160"><rect id="eI4sOc52BGU161" width="41.7" height="41" rx="0" ry="0" transform="matrix(1 0 0 1 3216.2 351)" fill="rgb(48,186,120)" stroke="none" stroke-width="1" stroke-miterlimit="1"/><path id="eI4sOc52BGU162" d="M3239.1,357.2L3239.1,385.9L3243.3,385.9L3243.3,357.2L3239.1,357.2ZM3226.6,357.2L3226.6,385.9L3222.4,385.9L3222.4,357.2L3226.6,357.2ZM3251.6,357.2L3251.6,385.9L3247.4,385.9L3247.4,357.2L3251.6,357.2ZM3234.9,357.2L3234.9,385.9L3230.7,385.9L3230.7,357.2L3234.9,357.2Z" fill="rgb(152,229,199)" stroke="none" stroke-width="1" stroke-miterlimit="1"/></g><g id="eI4sOc52BGU163"><rect id="eI4sOc52BGU164" width="41.7" height="41" rx="0" ry="0" transform="matrix(1 0 0 1 3091 351)" fill="rgb(48,186,120)" stroke="none" stroke-width="1" stroke-miterlimit="1"/><path id="eI4sOc52BGU165" d="M3113.9,357.2L3113.9,385.9L3118.1,385.9L3118.1,357.2L3113.9,357.2ZM3101.4,357.2L3101.4,385.9L3097.2,385.9L3097.2,357.2L3101.4,357.2ZM3126.5,357.2L3126.5,385.9L3122.3,385.9L3122.3,357.2L3126.5,357.2ZM3109.8,357.2L3109.8,385.9L3105.6,385.9L3105.6,357.2L3109.8,357.2Z" transform="matrix(1 0 0 1 -0.25 0)" fill="rgb(152,229,199)" stroke="none" stroke-width="1" stroke-miterlimit="1"/></g><g id="eI4sOc52BGU166"><rect id="eI4sOc52BGU167" width="41.7" height="41" rx="0" ry="0" transform="matrix(1 0 0 1 3153.6 392)" fill="rgb(48,186,120)" stroke="none" stroke-width="1" stroke-miterlimit="1"/><path id="eI4sOc52BGU168" d="M3176.5,398.2L3176.5,426.9L3180.7,426.9L3180.7,398.2L3176.5,398.2ZM3164,398.2L3164,426.9L3159.8,426.9L3159.8,398.2L3164,398.2ZM3189.1,398.2L3189.1,426.9L3184.9,426.9L3184.9,398.2L3189.1,398.2ZM3172.4,398.2L3172.4,426.9L3168.2,426.9L3168.2,398.2L3172.4,398.2Z" fill="rgb(152,229,199)" stroke="none" stroke-width="1" stroke-miterlimit="1"/></g></g></g><g id="eI4sOc52BGU169"><rect id="eI4sOc52BGU170" width="88.3" height="39.2" rx="0" ry="0" transform="matrix(1 0 0 1 2755.3 463.5)" fill="rgb(254,124,63)" stroke="none" stroke-width="1" stroke-miterlimit="1"/><path id="eI4sOc52BGU171" d="M2811.7,470.9L2811.7,495.4L2816.6,495.4L2816.6,470.9L2811.7,470.9ZM2806.8,470.9L2806.8,495.4L2801.9,495.4L2801.9,470.9L2806.8,470.9ZM2836.2,470.9L2836.2,495.4L2831.3,495.4L2831.3,470.9L2836.2,470.9ZM2826.4,470.9L2826.4,495.4L2821.5,495.4L2821.5,470.9L2826.4,470.9ZM2767.6,470.9L2767.6,495.4L2762.7,495.4L2762.7,470.9L2767.6,470.9ZM2777.4,470.9L2777.4,495.4L2772.5,495.4L2772.5,470.9L2777.4,470.9ZM2787.2,470.9L2787.2,495.4L2782.3,495.4L2782.3,470.9L2787.2,470.9ZM2797,470.9L2797,495.4L2792.1,495.4L2792.1,470.9L2797,470.9Z" fill="rgb(239,239,239)" stroke="none" stroke-width="1" stroke-miterlimit="1"/></g><g id="eI4sOc52BGU172"><rect id="eI4sOc52BGU173" width="185.8" height="74.7" rx="0" ry="0" transform="matrix(1 0 0 1 2941.2 568.55)" fill="rgb(36,83,255)" stroke="none" stroke-width="1" stroke-miterlimit="1"/><path id="eI4sOc52BGU174" d="M3039.3,581.6L3039.3,628.3L3049.6,628.3L3049.6,581.6L3039.3,581.6ZM3070.3,581.6L3070.3,628.3L3060,628.3L3060,581.6L3070.3,581.6ZM3111.6,581.6L3111.6,628.3L3101.3,628.3L3101.3,581.6L3111.6,581.6ZM3090.9,581.6L3090.9,628.3L3080.6,628.3L3080.6,581.6L3090.9,581.6ZM3028.9,581.6L3028.9,628.3L3018.6,628.3L3018.6,581.6L3028.9,581.6ZM2967,581.6L2967,628.3L2956.7,628.3L2956.7,581.6L2967,581.6ZM2987.6,581.6L2987.6,628.3L2977.3,628.3L2977.3,581.6L2987.6,581.6ZM3008.3,581.6L3008.3,628.3L2998,628.3L2998,581.6L3008.3,581.6Z" transform="matrix(1 0 0 1 0.3 0)" fill="rgb(128,154,247)" stroke="none" stroke-width="1" stroke-miterlimit="1"/></g></g><path id="eI4sOc52BGU175" d="M1721.6,1623L-351,1623C-184.9,1379,216.4,1207,685.3,1207C1154.1,1207,1555.5,1379,1721.6,1623Z" fill="rgb(48,186,120)" stroke="none" stroke-width="1" stroke-miterlimit="1"/><polygon id="eI4sOc52BGU176" points="175.6,792.7 177.8,792.7 178.6,792.7 180.8,792.7 187.4,1350 178.6,1350 177.8,1350 169,1350" fill="rgb(208,211,214)" stroke="none" stroke-width="1" stroke-miterlimit="1"/><path id="eI4sOc52BGU177" d="M4650,1589L1476.3,1589C1901.6,1132.9,2218.6,750,3154.3,750C4090,750,4650,1589,4650,1589Z" transform="matrix(1 0 0 1 6.95 -2.07)" fill="rgb(48,186,120)" stroke="none" stroke-width="1" stroke-miterlimit="1"/><g id="eI4sOc52BGU178"><g id="eI4sOc52BGU179"><ellipse id="eI4sOc52BGU180" rx="108.2" ry="108.2" transform="matrix(0.7071 -0.7071 0.7071 0.7071 1029.641811 1279.070668)" fill="rgb(227,248,241)" stroke="none" stroke-width="1" stroke-miterlimit="1"/></g><g id="eI4sOc52BGU181"><path id="eI4sOc52BGU182" d="M921.5,1279.1C921.5,1219.3,969.9,1170.9,1029.7,1170.9L1029.7,1387.3C969.9,1387.3,921.5,1338.9,921.5,1279.1Z" fill="rgb(144,235,205)" stroke="none" stroke-width="1" stroke-miterlimit="1"/></g><g id="eI4sOc52BGU183"><g id="eI4sOc52BGU184"><path id="eI4sOc52BGU185" d="M1029.7,1450C1031.7,1450,1033.4,1448.3,1033.4,1446.3L1033.4,1294.7C1033.4,1292.7,1031.7,1291,1029.7,1291C1027.7,1291,1026,1292.7,1026,1294.7L1026,1446.3C1026,1448.4,1027.6,1450,1029.7,1450L1029.7,1450Z" fill="rgb(49,49,49)" stroke="none" stroke-width="1" stroke-miterlimit="1"/></g><g id="eI4sOc52BGU186"><path id="eI4sOc52BGU187" d="M1029.7,1353.7C1030.6,1353.7,1031.6,1353.3,1032.3,1352.6C1033.7,1351.2,1033.7,1348.8,1032.3,1347.4L1009.8,1324.9C1008.4,1323.5,1006,1323.5,1004.6,1324.9C1003.2,1326.3,1003.2,1328.7,1004.6,1330.1L1027.1,1352.6C1027.8,1353.4,1028.7,1353.7,1029.7,1353.7L1029.7,1353.7Z" fill="rgb(49,49,49)" stroke="none" stroke-width="1" stroke-miterlimit="1"/></g><g id="eI4sOc52BGU188"><path id="eI4sOc52BGU189" d="M1029.7,1334.1C1030.6,1334.1,1031.6,1333.7,1032.3,1333L1062.2,1303.1C1063.6,1301.7,1063.6,1299.3,1062.2,1297.9C1060.8,1296.5,1058.4,1296.5,1057,1297.9L1027.1,1327.8C1025.7,1329.2,1025.7,1331.6,1027.1,1333C1027.8,1333.7,1028.7,1334.1,1029.7,1334.1L1029.7,1334.1Z" fill="rgb(49,49,49)" stroke="none" stroke-width="1" stroke-miterlimit="1"/></g></g></g><path id="eI4sOc52BGU190" d="M3466.6,930.9L2965,917.5L2562.3,917.5C2543.2,917.5,2527.7,933,2527.7,952C2527.7,971.1,2543.2,986.5,2562.3,986.5L2707.8,986.5C2726.9,986.5,2742.4,1002,2742.4,1021C2742.4,1040.1,2726.9,1055.6,2707.8,1055.6L2401.9,1055.6C2382.8,1055.6,2367.4,1071.1,2367.4,1090.1C2367.4,1109.2,2382.9,1124.7,2401.9,1124.7L2607.7,1124.7C2626.8,1124.7,2642.2,1140.2,2642.2,1159.3C2642.2,1178.4,2626.7,1193.8,2607.7,1193.8L2562.3,1193.8C2543.2,1193.8,2527.7,1209.3,2527.7,1228.3C2527.7,1247.4,2543.2,1262.9,2562.3,1262.9L3947.6,1262.9L3466.6,930.9ZM2456.4,986.5C2437.3,986.5,2421.8,971,2421.8,952C2421.8,933,2437.3,917.5,2456.4,917.5C2475.5,917.5,2491,933,2491,952C2491,971,2475.5,986.5,2456.4,986.5Z" fill="rgb(33,166,103)" stroke="none" stroke-width="1" stroke-miterlimit="1"/><g id="eI4sOc52BGU191"><polygon id="eI4sOc52BGU192" points="529.7,1395.2 531.5,1395.2 532.1,1395.2 534,1395.2 539.5,1862 532.1,1862 531.5,1862 524.1,1862" fill="rgb(208,211,214)" stroke="none" stroke-width="1" stroke-miterlimit="1"/></g><g id="eI4sOc52BGU193"><polygon id="eI4sOc52BGU194" points="332.4,1115.2 330.2,1115.2 329.5,1115.2 327.4,1115.2 321,1654 329.5,1654 330.2,1654 338.8,1654" fill="rgb(208,211,214)" stroke="none" stroke-width="1" stroke-miterlimit="1"/></g></g><g id="eI4sOc52BGU195"><g id="eI4sOc52BGU196_to" transform="translate(3490.950098,1262.666667)"><g id="eI4sOc52BGU196_ts" transform="scale(1,1)"><g id="eI4sOc52BGU196" transform="translate(-2602.35,-1273)"><rect id="eI4sOc52BGU197" width="244.3" height="9" rx="0" ry="0" transform="matrix(1 0 0 1 2317 1261.1)" clip-rule="evenodd" fill="rgb(41,49,52)" fill-rule="evenodd" stroke="none" stroke-width="1" stroke-miterlimit="1"/><path id="eI4sOc52BGU198" d="M2636,1261.1L2247.8,1261.1C2242.4,1261.1,2238,1256.7,2238,1251.4L2238,1251.4C2238,1207.2,2274.2,1171,2318.4,1171L2636,1171L2636,1261.1Z" clip-rule="evenodd" fill="rgb(254,124,63)" fill-rule="evenodd" stroke="none" stroke-width="1" stroke-miterlimit="1"/><path id="eI4sOc52BGU199" d="M2636,1261.1L2247.8,1261.1C2242.4,1261.1,2238,1256.7,2238,1251.4L2238,1251.4C2238,1221,2255.1,1194.5,2280.1,1180.8C2282.6,1180.6,2285,1180.5,2287.6,1180.5L2636,1180.5L2636,1261.1L2636,1261.1Z" clip-rule="evenodd" fill="rgb(255,255,255)" fill-rule="evenodd" stroke="none" stroke-width="1" stroke-miterlimit="1"/><path id="eI4sOc52BGU200" d="M2636,1261.1L2247.8,1261.1C2243,1261.1,2239.1,1257.7,2238.2,1253.2L2636,1253.2L2636,1261.1L2636,1261.1Z" clip-rule="evenodd" fill="rgb(254,124,63)" fill-rule="evenodd" stroke="none" stroke-width="1" stroke-miterlimit="1"/><path id="eI4sOc52BGU201" d="M2300,1261.1L2247.7,1261.1C2242.3,1261.1,2237.9,1256.7,2237.9,1251.4L2237.9,1251.4C2237.9,1248.7,2238.1,1246,2238.4,1243.4L2287.8,1243.4C2294.5,1243.4,2299.9,1248.9,2299.9,1255.6L2300,1261.1L2300,1261.1Z" clip-rule="evenodd" fill="rgb(26,35,37)" fill-rule="evenodd" stroke="none" stroke-width="1" stroke-miterlimit="1"/><path id="eI4sOc52BGU202" d="M2245.2,1218.2C2250.4,1206.7,2258.4,1196.5,2268.1,1188.7L2287,1188.7C2295.1,1188.7,2301.7,1195.4,2301.7,1203.5L2301.7,1203.5C2301.7,1211.6,2295.1,1218.2,2287,1218.2L2245.2,1218.2Z" clip-rule="evenodd" fill="rgb(41,49,52)" fill-rule="evenodd" stroke="none" stroke-width="1" stroke-miterlimit="1"/><path id="eI4sOc52BGU203" d="M2613.3,1189.8L2591.3,1189.8C2588,1189.8,2585.4,1192.5,2585.4,1195.8L2585.4,1261L2619.3,1261L2619.3,1195.8C2619.2,1192.5,2616.6,1189.8,2613.3,1189.8L2613.3,1189.8Z" clip-rule="evenodd" fill="rgb(254,124,63)" fill-rule="evenodd" stroke="none" stroke-width="1" stroke-miterlimit="1"/><path id="eI4sOc52BGU204" d="M2612.9,1193.9L2591.6,1193.9C2590.1,1193.9,2589,1195.1,2589,1196.6L2589,1206.9C2589,1208.4,2590.2,1209.6,2591.6,1209.6L2612.9,1209.6C2614.4,1209.6,2615.5,1208.4,2615.5,1206.9L2615.5,1196.6C2615.6,1195.1,2614.4,1193.9,2612.9,1193.9L2612.9,1193.9Z" clip-rule="evenodd" fill="rgb(41,49,52)" fill-rule="evenodd" stroke="none" stroke-width="1" stroke-miterlimit="1"/><rect id="eI4sOc52BGU205" width="8" height="90" rx="0" ry="0" transform="matrix(1 0 0 1 2636 1171)" clip-rule="evenodd" fill="rgb(64,73,76)" fill-rule="evenodd" stroke="none" stroke-width="1" stroke-miterlimit="1"/><path id="eI4sOc52BGU206" d="M2544.1,1193.9C2537,1193.9,2529.9,1193.9,2522.8,1193.9C2521.3,1193.9,2520.1,1195.1,2520.1,1196.6C2520.1,1200.1,2520.1,1203.4,2520.1,1206.9C2520.1,1208.4,2521.4,1209.6,2522.8,1209.6C2529.8,1209.6,2537,1209.6,2544.1,1209.6C2545.6,1209.6,2546.7,1208.4,2546.7,1206.9C2546.7,1203.4,2546.7,1200.1,2546.7,1196.6C2546.7,1195.1,2545.5,1193.9,2544.1,1193.9L2544.1,1193.9ZM2509.9,1193.9C2502.9,1193.9,2495.7,1193.9,2488.7,1193.9C2487.1,1193.9,2486,1195.1,2486,1196.6C2486,1200.1,2486,1203.4,2486,1206.9C2486,1208.4,2487.2,1209.6,2488.7,1209.6C2495.7,1209.6,2502.9,1209.6,2509.9,1209.6C2511.4,1209.6,2512.6,1208.4,2512.6,1206.9C2512.6,1203.4,2512.6,1200.1,2512.6,1196.6C2512.6,1195.1,2511.4,1193.9,2509.9,1193.9L2509.9,1193.9ZM2475.8,1193.9C2468.7,1193.9,2461.6,1193.9,2454.5,1193.9C2453,1193.9,2451.9,1195.1,2451.9,1196.6C2451.9,1200.1,2451.9,1203.4,2451.9,1206.9C2451.9,1208.4,2453.1,1209.6,2454.5,1209.6C2461.6,1209.6,2468.7,1209.6,2475.8,1209.6C2477.3,1209.6,2478.4,1208.4,2478.4,1206.9C2478.4,1203.4,2478.4,1200.1,2478.4,1196.6C2478.5,1195.1,2477.3,1193.9,2475.8,1193.9L2475.8,1193.9ZM2441.7,1193.9C2434.6,1193.9,2427.5,1193.9,2420.4,1193.9C2418.9,1193.9,2417.7,1195.1,2417.7,1196.6C2417.7,1200.1,2417.7,1203.4,2417.7,1206.9C2417.7,1208.4,2419,1209.6,2420.4,1209.6C2427.4,1209.6,2434.6,1209.6,2441.7,1209.6C2443.2,1209.6,2444.3,1208.4,2444.3,1206.9C2444.3,1203.4,2444.3,1200.1,2444.3,1196.6C2444.4,1195.1,2443.2,1193.9,2441.7,1193.9L2441.7,1193.9ZM2407.6,1193.9C2400.6,1193.9,2393.4,1193.9,2386.3,1193.9C2384.8,1193.9,2383.7,1195.1,2383.7,1196.6C2383.7,1200.1,2383.7,1203.4,2383.7,1206.9C2383.7,1208.4,2384.9,1209.6,2386.3,1209.6C2393.4,1209.6,2400.5,1209.6,2407.6,1209.6C2409.1,1209.6,2410.3,1208.4,2410.3,1206.9C2410.3,1203.4,2410.3,1200.1,2410.3,1196.6C2410.3,1195.1,2409,1193.9,2407.6,1193.9L2407.6,1193.9ZM2373.5,1193.9C2366.4,1193.9,2359.3,1193.9,2352.2,1193.9C2350.7,1193.9,2349.6,1195.1,2349.6,1196.6C2349.6,1200.1,2349.6,1203.4,2349.6,1206.9C2349.6,1208.4,2350.8,1209.6,2352.2,1209.6C2359.3,1209.6,2366.4,1209.6,2373.5,1209.6C2375,1209.6,2376.1,1208.4,2376.1,1206.9C2376.1,1203.4,2376.1,1200.1,2376.1,1196.6C2376.1,1195.1,2374.9,1193.9,2373.5,1193.9L2373.5,1193.9ZM2339.3,1193.9L2318.1,1193.9C2316.6,1193.9,2315.4,1195.1,2315.4,1196.6L2315.4,1206.9C2315.4,1208.4,2316.7,1209.6,2318.1,1209.6L2339.3,1209.6C2340.9,1209.6,2342,1208.4,2342,1206.9L2342,1196.6C2342.1,1195.1,2340.9,1193.9,2339.3,1193.9L2339.3,1193.9ZM2578.1,1193.9L2556.8,1193.9C2555.3,1193.9,2554.2,1195.1,2554.2,1196.6L2554.2,1206.9C2554.2,1208.4,2555.4,1209.6,2556.8,1209.6L2578.1,1209.6C2579.6,1209.6,2580.7,1208.4,2580.7,1206.9L2580.7,1196.6C2580.8,1195.1,2579.6,1193.9,2578.1,1193.9L2578.1,1193.9Z" clip-rule="evenodd" fill="rgb(41,49,52)" fill-rule="evenodd" stroke="none" stroke-width="1" stroke-miterlimit="1"/><path id="eI4sOc52BGU207" d="M2550.7,1261.1L2553,1269.5C2553.5,1271.4,2555.4,1273,2557.2,1273C2566.5,1273,2575.9,1273,2585.3,1273C2594.7,1273,2604,1273,2613.4,1273C2615.2,1273,2617,1271.4,2617.6,1269.5L2619.8,1261.1L2550.7,1261.1Z" clip-rule="evenodd" fill="rgb(26,35,37)" fill-rule="evenodd" stroke="none" stroke-width="1" stroke-miterlimit="1"/><path id="eI4sOc52BGU208" d="M2257.2,1261.1L2259.5,1269.5C2260,1271.4,2261.9,1273,2263.7,1273C2273,1273,2282.4,1273,2291.8,1273C2301.2,1273,2310.5,1273,2319.9,1273C2321.7,1273,2323.5,1271.4,2324.1,1269.5L2326.3,1261.1L2257.2,1261.1Z" clip-rule="evenodd" fill="rgb(26,35,37)" fill-rule="evenodd" stroke="none" stroke-width="1" stroke-miterlimit="1"/><path id="eI4sOc52BGU209" d="M2576.4,1222.6L2313.4,1222.6L2313.4,1228.7L2576.4,1228.7L2576.4,1222.6ZM2576.4,1236.2L2313.4,1236.2L2313.4,1242.3L2576.4,1242.3L2576.4,1236.2Z" clip-rule="evenodd" fill="rgb(192,194,196)" fill-rule="evenodd" stroke="none" stroke-width="1" stroke-miterlimit="1"/><g id="eI4sOc52BGU210"><rect id="eI4sOc52BGU211" width="306.9" height="90.1" rx="0" ry="0" transform="matrix(1 0 0 1 2659.1 1171)" clip-rule="evenodd" fill="rgb(254,124,63)" fill-rule="evenodd" stroke="none" stroke-width="1" stroke-miterlimit="1"/><rect id="eI4sOc52BGU212" width="306.9" height="80.6" rx="0" ry="0" transform="matrix(1 0 0 1 2659.1 1180.5)" clip-rule="evenodd" fill="rgb(255,255,255)" fill-rule="evenodd" stroke="none" stroke-width="1" stroke-miterlimit="1"/><rect id="eI4sOc52BGU213" width="153.2" height="4.9" rx="0" ry="0" transform="matrix(1 0 0 1 2733.8 1261.1)" clip-rule="evenodd" fill="rgb(41,49,52)" fill-rule="evenodd" stroke="none" stroke-width="1" stroke-miterlimit="1"/><path id="eI4sOc52BGU214" d="M2681.8,1189.8L2703.8,1189.8C2707.1,1189.8,2709.7,1192.5,2709.7,1195.8L2709.7,1261L2675.8,1261L2675.8,1195.8C2675.9,1192.5,2678.5,1189.8,2681.8,1189.8L2681.8,1189.8Z" clip-rule="evenodd" fill="rgb(254,124,63)" fill-rule="evenodd" stroke="none" stroke-width="1" stroke-miterlimit="1"/><path id="eI4sOc52BGU215" d="M2682.2,1193.9L2703.5,1193.9C2705,1193.9,2706.1,1195.1,2706.1,1196.6L2706.1,1206.9C2706.1,1208.4,2704.9,1209.6,2703.5,1209.6L2682.2,1209.6C2680.7,1209.6,2679.6,1208.4,2679.6,1206.9L2679.6,1196.6C2679.5,1195.1,2680.7,1193.9,2682.2,1193.9L2682.2,1193.9Z" clip-rule="evenodd" fill="rgb(41,49,52)" fill-rule="evenodd" stroke="none" stroke-width="1" stroke-miterlimit="1"/><rect id="eI4sOc52BGU216" width="8" height="90" rx="0" ry="0" transform="matrix(1 0 0 1 2651.1 1171)" clip-rule="evenodd" fill="rgb(64,73,76)" fill-rule="evenodd" stroke="none" stroke-width="1" stroke-miterlimit="1"/><rect id="eI4sOc52BGU217" width="8" height="90" rx="0" ry="0" transform="matrix(1 0 0 1 2966.1 1171)" clip-rule="evenodd" fill="rgb(64,73,76)" fill-rule="evenodd" stroke="none" stroke-width="1" stroke-miterlimit="1"/><path id="eI4sOc52BGU218" d="M2751.1,1193.9C2758.2,1193.9,2765.3,1193.9,2772.4,1193.9C2773.9,1193.9,2775.1,1195.1,2775.1,1196.6C2775.1,1200.1,2775.1,1203.4,2775.1,1206.9C2775.1,1208.4,2773.8,1209.6,2772.4,1209.6C2765.4,1209.6,2758.2,1209.6,2751.1,1209.6C2749.6,1209.6,2748.5,1208.4,2748.5,1206.9C2748.5,1203.4,2748.5,1200.1,2748.5,1196.6C2748.4,1195.1,2749.6,1193.9,2751.1,1193.9L2751.1,1193.9Z" clip-rule="evenodd" fill="rgb(41,49,52)" fill-rule="evenodd" stroke="none" stroke-width="1" stroke-miterlimit="1"/><path id="eI4sOc52BGU219" d="M2785.2,1193.9C2792.2,1193.9,2799.4,1193.9,2806.4,1193.9C2808,1193.9,2809.1,1195.1,2809.1,1196.6C2809.1,1200.1,2809.1,1203.4,2809.1,1206.9C2809.1,1208.4,2807.9,1209.6,2806.4,1209.6C2799.4,1209.6,2792.2,1209.6,2785.2,1209.6C2783.7,1209.6,2782.5,1208.4,2782.5,1206.9C2782.5,1203.4,2782.5,1200.1,2782.5,1196.6C2782.5,1195.1,2783.8,1193.9,2785.2,1193.9L2785.2,1193.9Z" clip-rule="evenodd" fill="rgb(41,49,52)" fill-rule="evenodd" stroke="none" stroke-width="1" stroke-miterlimit="1"/><path id="eI4sOc52BGU220" d="M2819.3,1193.9C2826.4,1193.9,2833.5,1193.9,2840.6,1193.9C2842.1,1193.9,2843.2,1195.1,2843.2,1196.6C2843.2,1200.1,2843.2,1203.4,2843.2,1206.9C2843.2,1208.4,2842,1209.6,2840.6,1209.6C2833.5,1209.6,2826.4,1209.6,2819.3,1209.6C2817.8,1209.6,2816.7,1208.4,2816.7,1206.9C2816.7,1203.4,2816.7,1200.1,2816.7,1196.6C2816.6,1195.1,2817.8,1193.9,2819.3,1193.9L2819.3,1193.9Z" clip-rule="evenodd" fill="rgb(41,49,52)" fill-rule="evenodd" stroke="none" stroke-width="1" stroke-miterlimit="1"/><path id="eI4sOc52BGU221" d="M2853.4,1193.9C2860.5,1193.9,2867.6,1193.9,2874.7,1193.9C2876.2,1193.9,2877.4,1195.1,2877.4,1196.6C2877.4,1200.1,2877.4,1203.4,2877.4,1206.9C2877.4,1208.4,2876.1,1209.6,2874.7,1209.6C2867.7,1209.6,2860.5,1209.6,2853.4,1209.6C2851.9,1209.6,2850.8,1208.4,2850.8,1206.9C2850.8,1203.4,2850.8,1200.1,2850.8,1196.6C2850.7,1195.1,2851.9,1193.9,2853.4,1193.9L2853.4,1193.9Z" clip-rule="evenodd" fill="rgb(41,49,52)" fill-rule="evenodd" stroke="none" stroke-width="1" stroke-miterlimit="1"/><path id="eI4sOc52BGU222" d="M2887.6,1193.9C2894.6,1193.9,2901.8,1193.9,2908.9,1193.9C2910.4,1193.9,2911.5,1195.1,2911.5,1196.6C2911.5,1200.1,2911.5,1203.4,2911.5,1206.9C2911.5,1208.4,2910.3,1209.6,2908.9,1209.6C2901.8,1209.6,2894.7,1209.6,2887.6,1209.6C2886.1,1209.6,2884.9,1208.4,2884.9,1206.9C2884.9,1203.4,2884.9,1200.1,2884.9,1196.6C2884.8,1195.1,2886.1,1193.9,2887.6,1193.9L2887.6,1193.9Z" clip-rule="evenodd" fill="rgb(41,49,52)" fill-rule="evenodd" stroke="none" stroke-width="1" stroke-miterlimit="1"/><path id="eI4sOc52BGU223" d="M2921.6,1193.9C2928.7,1193.9,2935.8,1193.9,2942.9,1193.9C2944.4,1193.9,2945.5,1195.1,2945.5,1196.6C2945.5,1200.1,2945.5,1203.4,2945.5,1206.9C2945.5,1208.4,2944.3,1209.6,2942.9,1209.6C2935.8,1209.6,2928.7,1209.6,2921.6,1209.6C2920.1,1209.6,2919,1208.4,2919,1206.9C2919,1203.4,2919,1200.1,2919,1196.6C2919,1195.1,2920.2,1193.9,2921.6,1193.9L2921.6,1193.9Z" clip-rule="evenodd" fill="rgb(41,49,52)" fill-rule="evenodd" stroke="none" stroke-width="1" stroke-miterlimit="1"/><path id="eI4sOc52BGU224" d="M2717,1193.9L2738.3,1193.9C2739.8,1193.9,2740.9,1195.1,2740.9,1196.6L2740.9,1206.9C2740.9,1208.4,2739.7,1209.6,2738.3,1209.6L2717,1209.6C2715.5,1209.6,2714.4,1208.4,2714.4,1206.9L2714.4,1196.6C2714.3,1195.1,2715.5,1193.9,2717,1193.9L2717,1193.9Z" clip-rule="evenodd" fill="rgb(41,49,52)" fill-rule="evenodd" stroke="none" stroke-width="1" stroke-miterlimit="1"/><path id="eI4sOc52BGU225" d="M2744.4,1261.1L2742.1,1269.5C2741.6,1271.4,2739.7,1273,2737.9,1273C2728.6,1273,2719.2,1273,2709.8,1273C2700.4,1273,2691.1,1273,2681.7,1273C2679.9,1273,2678.1,1271.4,2677.5,1269.5L2675.3,1261.1L2744.4,1261.1Z" clip-rule="evenodd" fill="rgb(26,35,37)" fill-rule="evenodd" stroke="none" stroke-width="1" stroke-miterlimit="1"/><path id="eI4sOc52BGU226" d="M2949.9,1261.1L2947.6,1269.5C2947.1,1271.4,2945.2,1273,2943.4,1273C2934.1,1273,2924.7,1273,2915.3,1273C2905.9,1273,2896.6,1273,2887.2,1273C2885.4,1273,2883.6,1271.4,2883,1269.5L2880.8,1261.1L2949.9,1261.1Z" clip-rule="evenodd" fill="rgb(26,35,37)" fill-rule="evenodd" stroke="none" stroke-width="1" stroke-miterlimit="1"/><path id="eI4sOc52BGU227" d="M2718.7,1222.6L2956,1222.6L2956,1228.7L2718.7,1228.7L2718.7,1222.6ZM2718.7,1236.2L2956,1236.2L2956,1242.3L2718.7,1242.3L2718.7,1236.2Z" clip-rule="evenodd" fill="rgb(192,194,196)" fill-rule="evenodd" stroke="none" stroke-width="1" stroke-miterlimit="1"/><rect id="eI4sOc52BGU228" width="306.9" height="7.9" rx="0" ry="0" transform="matrix(1 0 0 1 2659.1 1253.2)" clip-rule="evenodd" fill="rgb(254,124,63)" fill-rule="evenodd" stroke="none" stroke-width="1" stroke-miterlimit="1"/></g><rect id="eI4sOc52BGU229" width="7.1" height="87" rx="0" ry="0" transform="matrix(1 0 0 1 2644 1172.8)" clip-rule="evenodd" fill="rgb(41,49,52)" fill-rule="evenodd" stroke="none" stroke-width="1" stroke-miterlimit="1"/></g></g></g><g id="eI4sOc52BGU230_tr" transform="translate(178.8,794.3) rotate(1800)"><g id="eI4sOc52BGU230" transform="translate(-178.8,-794.3)"><path id="eI4sOc52BGU231" d="M181.7,787.5L276.6,696C276.6,696,280.9,699.1,277.4,702.8C271.2,709.7,201.7,788,201.7,788L190,786.4L184.3,790.9L181.7,787.5Z" fill="rgb(208,211,214)" stroke="none" stroke-width="1" stroke-miterlimit="1"/><path id="eI4sOc52BGU232" d="M183.2,801.5L213.8,929.7C213.8,929.7,209,931.8,207.5,926.9C204.8,918,172.5,818.4,172.5,818.4L179.8,809.2L178.8,802L183.2,801.5Z" fill="rgb(208,211,214)" stroke="none" stroke-width="1" stroke-miterlimit="1"/><path id="eI4sOc52BGU233" d="M171,795.9L44.2,759.8C44.2,759.8,44.7,754.6,49.7,755.6C58.8,757.6,161.4,778.3,161.4,778.3L165.8,789.2L172.5,791.9L171,795.9Z" fill="rgb(208,211,214)" stroke="none" stroke-width="1" stroke-miterlimit="1"/><path id="eI4sOc52BGU234" d="M185.6,786.8C181.5,783,175.1,783.3,171.3,787.5C167.5,791.6,167.8,798,172,801.8C176.1,805.6,182.6,805.3,186.3,801.1C190.1,797,189.8,790.5,185.6,786.8Z" fill="rgb(208,211,214)" stroke="none" stroke-width="1" stroke-miterlimit="1"/></g></g><g id="eI4sOc52BGU235_tr" transform="translate(329.9,1108.9) rotate(1800)"><g id="eI4sOc52BGU235" transform="translate(-329.9,-1108.9)"><path id="eI4sOc52BGU236" d="M336.2,1111.2L462.9,1103C462.9,1103,463.5,1098,458.5,1098C449.6,1098,348.7,1096.6,348.7,1096.6L342.3,1106L335.4,1107.1L336.2,1111.2Z" fill="rgb(208,211,214)" stroke="none" stroke-width="1" stroke-miterlimit="1"/><path id="eI4sOc52BGU237" d="M327.2,1101.1L255.7,996.1C255.7,996.1,251.1,998.2,253.6,1002.4C258.1,1010.1,308.2,1097.7,308.2,1097.7L319.5,1098.5L324,1103.8L327.2,1101.1Z" fill="rgb(208,211,214)" stroke="none" stroke-width="1" stroke-miterlimit="1"/><path id="eI4sOc52BGU238" d="M323.3,1113.4L266.8,1227.1C266.8,1227.1,270.9,1230.1,273.3,1225.9C277.8,1218.2,329.6,1131.6,329.6,1131.6L324.7,1121.4L327.2,1114.9L323.3,1113.4Z" fill="rgb(208,211,214)" stroke="none" stroke-width="1" stroke-miterlimit="1"/><path id="eI4sOc52BGU239" d="M339.3,1108.9C339.3,1114.3,334.9,1118.7,329.5,1118.7C324.1,1118.7,319.7,1114.3,319.7,1108.9C319.7,1103.5,324.1,1099.1,329.5,1099.1C334.9,1099.1,339.3,1103.5,339.3,1108.9Z" fill="rgb(208,211,214)" stroke="none" stroke-width="1" stroke-miterlimit="1"/></g></g><g id="eI4sOc52BGU240_tr" transform="translate(530.3,1396.100965) rotate(1800)"><g id="eI4sOc52BGU240" transform="translate(-530.3,-1396.100965)"><path id="eI4sOc52BGU241" d="M535.8,1394.2L645.9,1402.2C645.9,1402.2,646.4,1406.6,642.1,1406.5C634.3,1406.4,546.6,1407,546.6,1407L541.1,1398.8L535.1,1397.8L535.8,1394.2Z" fill="rgb(208,211,214)" stroke="none" stroke-width="1" stroke-miterlimit="1"/><path id="eI4sOc52BGU242" d="M527.9,1402.9L465.1,1493.7C465.1,1493.7,461.1,1491.9,463.3,1488.2C467.3,1481.5,511.4,1405.7,511.4,1405.7L521.2,1405.1L525.1,1400.5L527.9,1402.9Z" fill="rgb(208,211,214)" stroke="none" stroke-width="1" stroke-miterlimit="1"/><path id="eI4sOc52BGU243" d="M524.6,1392.2L476.2,1293C476.2,1293,479.8,1290.4,481.9,1294.1C485.8,1300.9,530.3,1376.4,530.3,1376.4L526,1385.3L528.1,1391L524.6,1392.2Z" fill="rgb(208,211,214)" stroke="none" stroke-width="1" stroke-miterlimit="1"/><path id="eI4sOc52BGU244" d="M538.5,1396.2C538.5,1391.5,534.8,1387.7,530.1,1387.6C525.4,1387.6,521.6,1391.3,521.6,1396C521.6,1400.7,525.3,1404.5,530,1404.6C534.6,1404.7,538.4,1400.9,538.5,1396.2Z" fill="rgb(208,211,214)" stroke="none" stroke-width="1" stroke-miterlimit="1"/></g></g><rect id="eI4sOc52BGU245" width="46" height="46" rx="0" ry="0" transform="matrix(11.234199 0 0 3.074036 1178.217654 1131.444355)" fill="rgb(119,211,158)" stroke="none" stroke-width="1" stroke-miterlimit="1"/></g><g id="eI4sOc52BGU246"><g id="eI4sOc52BGU247" transform="matrix(1 0 0 1 0 -4)"><path id="eI4sOc52BGU248" d="M2019.561369,1267L2019.561369,1550.7L2066.680684,1550.7L2065.9,1470.4C2065.9,1386.6,2133.8,1318.7,2217.6,1318.7C2301.4,1318.7,2369.3,1386.6,2369.3,1470.4L2369.3,1553L2445.3,1553L2445.3,1470.4C2445.3,1386.6,2513.2,1318.7,2597,1318.7C2680.8,1318.7,2748.7,1386.6,2748.7,1470.4L2748.7,1553L2847.8,1553L2847.8,1267L2019.561369,1267Z" transform="matrix(1 0 0 1 377.908549 -0.85)" fill="rgb(222,223,224)" stroke="none" stroke-width="1" stroke-miterlimit="1"/><path id="eI4sOc52BGU249" d="M1968,1267L1968,1553L2065.9,1553L2065.9,1470.4C2065.9,1386.6,2133.8,1318.7,2217.6,1318.7C2301.4,1318.7,2369.3,1386.6,2369.3,1470.4L2369.3,1553L2445.3,1553L2445.3,1470.4C2445.3,1386.6,2513.2,1318.7,2597,1318.7C2680.8,1318.7,2748.7,1386.6,2748.7,1470.4L2748.7,1553L2847.8,1553L2847.8,1267.15L1968,1267Z" transform="matrix(1 0 0 1 0 -1)" fill="rgb(222,223,224)" stroke="none" stroke-width="1" stroke-miterlimit="1"/></g><g id="eI4sOc52BGU250"><g id="eI4sOc52BGU251"><path id="eI4sOc52BGU252" d="M1690,1155.1C1690,1105.7,1676,1048.6,1647.5,1048.6C1619,1048.6,1605,1105.7,1605,1155.1C1605,1173.2,1619,1187.9,1647.5,1187.9C1676,1187.8,1690,1173.2,1690,1155.1Z" transform="matrix(1 0 0 1 0 -49.17)" fill="rgb(152,229,199)" stroke="none" stroke-width="1" stroke-miterlimit="1"/></g><g id="eI4sOc52BGU253"><path id="eI4sOc52BGU254" d="M1690,1155.1C1690,1105.7,1676,1048.6,1647.5,1048.6L1647.5,1187.8C1676,1187.8,1690,1173.2,1690,1155.1Z" transform="matrix(1 0 0 1 0 -49.07)" fill="rgb(48,186,120)" stroke="none" stroke-width="1" stroke-miterlimit="1"/></g><g id="eI4sOc52BGU255"><g id="eI4sOc52BGU256"><path id="eI4sOc52BGU257" d="M1647.5,1239.2C1645.3,1239.2,1643.6,1237.4,1643.6,1235.3L1643.6,1113.5C1643.6,1111.3,1645.4,1109.6,1647.5,1109.6C1649.6,1109.6,1651.4,1111.4,1651.4,1113.5L1651.4,1235.3C1651.4,1237.4,1649.7,1239.2,1647.5,1239.2L1647.5,1239.2Z" transform="matrix(1 0 0 1 0 -49.07)" fill="rgb(49,49,49)" stroke="none" stroke-width="1" stroke-miterlimit="1"/></g><g id="eI4sOc52BGU258"><path id="eI4sOc52BGU259" d="M1647.5,1161.8C1646.5,1161.8,1645.5,1161.4,1644.7,1160.6L1626.6,1142.5C1625.1,1141,1625.1,1138.5,1626.6,1136.9C1628.1,1135.3,1630.6,1135.4,1632.2,1136.9L1650.3,1155C1651.8,1156.5,1651.8,1159,1650.3,1160.6C1649.5,1161.4,1648.5,1161.8,1647.5,1161.8L1647.5,1161.8Z" transform="matrix(1 0 0 1 0 -49.07)" fill="rgb(49,49,49)" stroke="none" stroke-width="1" stroke-miterlimit="1"/></g><g id="eI4sOc52BGU260"><path id="eI4sOc52BGU261" d="M1647.5,1146C1646.5,1146,1645.5,1145.6,1644.7,1144.8C1643.2,1143.3,1643.2,1140.8,1644.7,1139.2L1668.8,1115.1C1670.3,1113.6,1672.8,1113.6,1674.4,1115.1C1676,1116.6,1675.9,1119.1,1674.4,1120.7L1650.3,1144.8C1649.5,1145.6,1648.5,1146,1647.5,1146L1647.5,1146Z" transform="matrix(1 0 0 1 0 -49.07)" fill="rgb(49,49,49)" stroke="none" stroke-width="1" stroke-miterlimit="1"/></g></g></g><g id="eI4sOc52BGU262"><g id="eI4sOc52BGU263"><ellipse id="eI4sOc52BGU264" rx="60" ry="60" transform="matrix(1 0 0 1 3169.9 1026.9)" fill="rgb(227,248,241)" stroke="none" stroke-width="1" stroke-miterlimit="1"/></g><g id="eI4sOc52BGU265"><path id="eI4sOc52BGU266" d="M3230,1030C3230,996.9,3203.1,970,3170,970L3170,1090C3203.1,1090,3230,1063.1,3230,1030Z" transform="matrix(1 0 0 1 0 -3.332451)" fill="rgb(144,235,205)" stroke="none" stroke-width="1" stroke-miterlimit="1"/></g><g id="eI4sOc52BGU267"><g id="eI4sOc52BGU268"><path id="eI4sOc52BGU269" d="M3170,1124.8C3168.9,1124.8,3167.9,1123.9,3167.9,1122.8L3167.9,1038.7C3167.9,1037.6,3168.8,1036.6,3170,1036.6C3171.1,1036.6,3172.1,1037.5,3172.1,1038.7L3172.1,1122.8C3172.1,1123.9,3171.1,1124.8,3170,1124.8L3170,1124.8Z" fill="rgb(49,49,49)" stroke="none" stroke-width="1" stroke-miterlimit="1"/></g><g id="eI4sOc52BGU270"><path id="eI4sOc52BGU271" d="M3170,1071.4C3169.5,1071.4,3168.9,1071.2,3168.6,1070.8C3167.8,1070,3167.8,1068.7,3168.6,1067.9L3181.1,1055.4C3181.9,1054.6,3183.2,1054.6,3184,1055.4C3184.8,1056.2,3184.8,1057.5,3184,1058.3L3171.5,1070.8C3171.1,1071.2,3170.5,1071.4,3170,1071.4L3170,1071.4Z" fill="rgb(49,49,49)" stroke="none" stroke-width="1" stroke-miterlimit="1"/></g><g id="eI4sOc52BGU272"><path id="eI4sOc52BGU273" d="M3170,1060.5C3169.5,1060.5,3168.9,1060.3,3168.6,1059.9L3152,1043.3C3151.2,1042.5,3151.2,1041.2,3152,1040.4C3152.8,1039.6,3154.1,1039.6,3154.9,1040.4L3171.5,1057C3172.3,1057.8,3172.3,1059.1,3171.5,1059.9C3171.1,1060.3,3170.5,1060.5,3170,1060.5L3170,1060.5Z" fill="rgb(49,49,49)" stroke="none" stroke-width="1" stroke-miterlimit="1"/></g></g></g><path id="eI4sOc52BGU274" d="M2159.6,1624C2159.9,1617.687374,2160,1611.374747,2160,1604.953283C2160,1377.481061,1990.5,1193,1781.5,1193C1572.5,1193,1403,1377.481061,1403,1604.953283C1403,1611.374747,1403.1,1617.687374,1403.4,1624L2159.6,1624Z" transform="matrix(1 0 0 1 -10 -49.921143)" fill="rgb(152,229,199)" stroke="none" stroke-width="1" stroke-miterlimit="1"/><path id="eI4sOc52BGU275" d="M4740.96609,1585.362574C4744.839793,1569.562574,4722.016692,1516.839493,4722.016692,1515.123061C4534.36127,1280.974204,4273.282776,1023.546816,3721.187777,1023.546816C3169.092777,1023.546816,2845.814457,1322.81751,2632.402409,1542.260884C2632.402409,1558.460884,2634.431492,1574.460884,2638.120733,1590.260884L4740.96609,1585.362574Z" transform="matrix(1 0 0 0.99659 -83.895785 44.3)" fill="rgb(119,211,158)" stroke="none" stroke-width="1" stroke-miterlimit="1"/><g id="eI4sOc52BGU276"><g id="eI4sOc52BGU277"><path id="eI4sOc52BGU278" d="M3048.7,1328.5C3048.7,1269.2,3031.9,1200.6,2997.6,1200.6C2963.4,1200.6,2946.5,1269.2,2946.5,1328.5C2946.5,1350.2,2963.3,1367.9,2997.6,1367.9C3031.9,1367.8,3048.7,1350.2,3048.7,1328.5Z" fill="rgb(48,186,120)" stroke="none" stroke-width="1" stroke-miterlimit="1"/></g><g id="eI4sOc52BGU279"><path id="eI4sOc52BGU280" d="M3048.7,1328.5C3048.7,1269.2,3031.9,1200.6,2997.6,1200.6L2997.6,1367.9C3031.9,1367.8,3048.7,1350.2,3048.7,1328.5Z" fill="rgb(152,229,199)" stroke="none" stroke-width="1" stroke-miterlimit="1"/></g><g id="eI4sOc52BGU281"><g id="eI4sOc52BGU282"><path id="eI4sOc52BGU283" d="M2997.6,1429.6C2995,1429.6,2992.9,1427.5,2992.9,1424.9L2992.9,1278.5C2992.9,1275.9,2995,1273.8,2997.6,1273.8C3000.2,1273.8,3002.3,1275.9,3002.3,1278.5L3002.3,1424.9C3002.4,1427.4,3000.2,1429.6,2997.6,1429.6L2997.6,1429.6Z" fill="rgb(49,49,49)" stroke="none" stroke-width="1" stroke-miterlimit="1"/></g><g id="eI4sOc52BGU284"><path id="eI4sOc52BGU285" d="M2997.6,1336.6C2996.4,1336.6,2995.2,1336.1,2994.3,1335.2L2972.5,1313.4C2970.6,1311.6,2970.6,1308.6,2972.5,1306.7C2974.4,1304.9,2977.3,1304.9,2979.2,1306.7L3001,1328.5C3002.9,1330.3,3002.9,1333.3,3001,1335.2C3000.1,1336.1,2998.9,1336.6,2997.6,1336.6L2997.6,1336.6Z" fill="rgb(49,49,49)" stroke="none" stroke-width="1" stroke-miterlimit="1"/></g><g id="eI4sOc52BGU286"><path id="eI4sOc52BGU287" d="M2997.6,1317.6C2996.4,1317.6,2995.2,1317.1,2994.3,1316.2C2992.4,1314.4,2992.4,1311.4,2994.3,1309.5L3023.2,1280.6C3025.1,1278.8,3028,1278.8,3029.9,1280.6C3031.8,1282.4,3031.8,1285.4,3029.9,1287.3L3001,1316.2C3000.1,1317.1,2998.9,1317.6,2997.6,1317.6L2997.6,1317.6Z" fill="rgb(49,49,49)" stroke="none" stroke-width="1" stroke-miterlimit="1"/></g></g></g></g></svg>