<?xml version="1.0" encoding="utf-8"?>
<!-- Generator: Adobe Illustrator 25.2.0, SVG Export Plug-In . SVG Version: 6.00 Build 0)  -->
<svg version="1.1" id="Layer_1" xmlns="http://www.w3.org/2000/svg" xmlns:xlink="http://www.w3.org/1999/xlink" x="0px" y="0px"
	 viewBox="0 0 469.412384 165" style="enable-background:new 0 0 469.412384 165;" xml:space="preserve">
<style type="text/css">
	.st0{fill:#A453B9;}
	.st1{fill:#FFFFFF;}
	.st2{fill:#344845;}
	.st3{fill:#D13306;}
	.st4{fill:#004D93;}
	.st5{fill:#0081BE;}
	.st6{fill:#1167F1;}
	.st7{fill:#FFC400;}
	.st8{fill:#FF7A3D;}
	.st9{fill:#00A580;}
	.st10{fill:#53C3D0;}
	.st11{fill:#671C4C;}
	.st12{fill:#00E3C2;}
	.st13{fill:#BC2A46;}
	.st14{fill:#FF192E;}
	.st15{fill:#00B056;}
</style>
<path class="st4" d="M180,165H20c-11,0-20-9-20-20V20C0,9,9,0,20,0h160c11,0,20,9,20,20v125C200,156,191,165,180,165z"/>
<g>
	<path class="st1" d="M47.4770508,106.6396484V79.3925781H138.4375c-2.987793,5.4580078-4.6884766,11.7177734-4.6884766,18.3662109
		v13.2089844c3.2719727-0.9838867,6.123291-2.234375,8.0161133-3.1591797l6.5839844-3.2177734l5.3999023,2.637207v-9.4692383
		c0-10.1269531,8.2392578-18.3662109,18.3662109-18.3662109v-20h-70.4760742V47.4648438h10v-20h-10H37.6933594H27.4770508v20
		h10.2163086v11.9277344H27.4770508v53.1425781c6.8833008,0,13.9960938-2.9619141,17.6079102-4.7265625L47.4770508,106.6396484z
		 M57.6933594,47.4648438h23.9458008v11.9277344H57.6933594V47.4648438z"/>
	<path class="st1" d="M152.7397461,112.2998047l-4.3901367-2.1445312l-4.3891602,2.1455078
		c-4.0004883,1.9550781-11.8891602,5.234375-19.7788086,5.234375c-7.8886719,0-15.7788086-3.2792969-19.7797852-5.234375
		l-4.390625-2.1455078l-4.3901367,2.1455078c-4.0004883,1.9550781-11.8886719,5.234375-19.7773438,5.234375
		c-7.8862305,0-15.7802734-3.2802734-19.7836914-5.2353516l-4.3901367-2.1445312l-4.3891602,2.1455078
		c-4.0004883,1.9550781-11.9145508,5.234375-19.8037109,5.234375v20c9.0991211,0,17.6704102-2.5546875,24.1953125-5.2783203
		c6.527832,2.7236328,15.074707,5.2783203,24.1713867,5.2783203c9.0986328,0,17.6435547-2.5537109,24.168457-5.2773438
		c6.5253906,2.7236328,15.0712891,5.2773438,24.1694336,5.2773438c9.0996094,0,17.6455078-2.5546875,24.1704102-5.2783203
		c6.527832,2.7236328,15.074707,5.2783203,24.1708984,5.2783203v-20
		C164.637207,117.5351562,156.7431641,114.2548828,152.7397461,112.2998047z"/>
</g>
<g>
	<path class="st2" d="M230.0149231,57.1879883h33.5234375v9.2998047h-20.9990234v10.8740234h17.6240234v9.2998047h-17.6240234
		v11.8496094h21.7490234v9.2998047h-34.2734375V57.1879883z"/>
	<path class="st2" d="M270.8147278,57.1879883h21.2236328c9.9746094,0,17.1748047,5.0253906,17.1748047,15.1494141
		c0,11.0244141-6.9755859,17.3994141-17.1748047,17.3994141h-8.6992188v18.0742188h-12.5244141V57.1879883z M283.3391418,66.2631836
		v14.3994141h5.8496094c3.8994141,0,7.4248047-2.1005859,7.4248047-7.5751953c0-5.1748047-3.5253906-6.8242188-7.4248047-6.8242188
		H283.3391418z"/>
	<path class="st2" d="M312.6643372,57.1879883H338.76297v8.8496094h-6.8242188v32.9238281h6.8242188v8.8496094h-26.0986328
		v-8.8496094h6.7490234V66.0375977h-6.7490234V57.1879883z"/>
	<path class="st2" d="M345.5891418,57.1879883H359.01297l13.2744141,25.1240234c1.125,2.1748047,2.625,6,3.8251953,9h0.2998047
		c-0.1494141-2.8505859-0.5244141-6.9003906-0.5244141-9.8251953V57.1879883h10.2744141v50.6230469h-13.125L359.2385559,82.762207
		c-1.2753906-2.25-2.625-5.5498047-3.6748047-8.25H355.26297c0.2255859,2.8496094,0.6005859,6.2246094,0.6005859,9v24.2988281
		h-10.2744141V57.1879883z"/>
	<path class="st2" d="M393.0637512,57.1879883h26.0986328v8.8496094h-6.8251953v32.9238281h6.8251953v8.8496094h-26.0986328
		v-8.8496094h6.7490234V66.0375977h-6.7490234V57.1879883z"/>
	<path class="st2" d="M423.1389465,81.7866211c0-18.2236328,9.6748047-25.4980469,23.2490234-25.4980469
		c13.3496094,0,23.0244141,7.2744141,23.0244141,25.4980469c0,20.25-9.9746094,26.9248047-23.0244141,26.9248047
		C432.8137512,108.7114258,423.1389465,101.4360352,423.1389465,81.7866211z M456.5871887,81.7866211
		c0-12.5986328-4.9492188-16.6484375-10.3496094-16.6484375c-5.3994141,0-10.2744141,4.0498047-10.2744141,16.6484375
		c0,14.0244141,4.875,18.0751953,10.2744141,18.0751953C451.63797,99.8618164,456.5871887,95.8110352,456.5871887,81.7866211z"/>
</g>
</svg>
