<svg xmlns="http://www.w3.org/2000/svg" xml:space="preserve" style="enable-background:new 0 0 1106.9 166.1" viewBox="0 0 1106.9 166.1"><switch><g><linearGradient id="a" x1="553.414" x2="553.414" y1="97.502" y2="-20.129" gradientUnits="userSpaceOnUse"><stop offset="0" style="stop-color:#e7f2f2"/><stop offset=".032" style="stop-color:#e4f1f1"/><stop offset=".404" style="stop-color:#cae1e8"/><stop offset=".738" style="stop-color:#bbd8e2"/><stop offset="1" style="stop-color:#b5d5e0"/></linearGradient><path d="M0 .1h1106.8v166H0z" style="fill:url(#a)"/><path d="M1012.5 0c-3.9 6.9-4.5 14.5-1 22.8 0 0-.1.8-.1.9C969.9 14.4 885 22 880.7 62c-18.7-10-63.8-4.4-63.8 13.4-28.3-6.5-75.4 7.2-61 24.3-11.9-7.8-79.2-19.4-93.2 4.6-6.2 10.6-54-15.9-71.7 4-.2.4-.6.8-1 1.1.1-.2.8-.9.9-1l.1-.1c4.6-7.8-24.5-30.9-78.5-18.2-42.8 10.1-11.5 9.9-39.9-8.7-38.2-24.9-124.9-6.1-115.3 14-9.2-8.7-69-21.4-99.6 6.6-.6.8-1.4 1.6-2.4 2.4l2.4-2.4c7.8-11.3-32.6-24.9-53.3-12.8C209.5 33.2 88 29 54.8 70c-.3.9-.8 1.8-1.5 2.5 0-.2-.1-.4.1-.6.5-.6.9-1.3 1.4-1.9 3.5-9.2-9.2-24.3-47.2-19.9-.4 0-.9-.2-1.2-.3 3.4-2.6 1-6.7-5.9-8.8v81.7H1107V0h-94.5z" style="fill-rule:evenodd;clip-rule:evenodd;fill:#e7f2f2"/><path d="M1029.9 111.4v-10.3h1.1v-.8h-9V95h1.1v-.8h-28.3v.8h1.1v5.3h-9v.8h1.1v10.3H567.3v-9.6h-2.6v-.3h-1.1v.3h-.6v-1h-4.8v-.5h-3.4v.5h-.5v1H553v1.7h-3.1v-.2H548v-.1h-.4v.1h-.3v-.1h-.4v.1h-.3v-.1h-.4v.1h-.3v-.1h-.4v.1h-.5v.2h-.9v1.1h-4v1.5h-7.8v-.4H529v.4h-.9v5.4h-24v-4.6h-2.6V105h-.4v-1H500v-.1h-.4v.1h-.8v1.1h-.7v-.3h-2v.3h-.6v1.8h-.3v-.1h-.6v-3.3h.4v-.2h-1.1v-.4h-.8v.4h-.7v-.2h.1v-.1l-1.6-.5h-1.1l-1.6.5v.1h.1v.2h-1.9v-1.8h-1.7v-1.4h-1.9v-.8h-.9v-.7h-.9v.7h-2.8v-.5h-.7v-.6h-1.1v-.6h-3.6v.6h-.6v.6h-.5v.5h-2.8v.8H467v11.4h-10.2v-8.1h-.1v-.5h-.8v.1H454.6v-.6h-2.4v-.3h-1.3v.3h-.4v.6h-.5v-.2h-.7v-.2h.7v-1h-.7v-.2h.7v-1h-.7v-.2h.7v-1h-.7V99h.7v-1h-.7.7v-1h-.7v-.2h.7v-1h-.7v-.2h.7v-1h-.7v-.2h.7v-.5h.3v-.7h-4l-.3-7.4h-.8l.1-1.4h-.7v-.5h-.8l-.1-.8h-.8l.1-1.1h-.4l.2-8-.5 8h-.4l-.1 1.1h-.8l-.2.8h-.8v.5h-.7l-.1 1.4h-.8l-1 7.4h-.2v.7h.1l-.5 4.1h-1v.7h.2v.5h-.4v.1h-.6v-2.9h-1.9V95h-1l-.1-1h-.3v-.2h-.8l.3-7.5H429l.5-10.6h-1.6l.1-3.3c.1-3.2-4.6-5.8-5.8-5.6l-.3 6.6h-.3v-.2h-.6v.2h-.7l-.1 2.3h-1.4l-.5 10.6h-1.6l-.3 7.7h-1.1l-.2 3.7h-1.3l-.4-.1.8-17.2h-2l.1-3.4h-1.1l.1-1.4h-.5v-.2h-2.4v.2h-1.6l-.1 1.4h-1.1l-.1 3.4h-2l-.6 12.9h-3.6l1-22.4h-3.6v-.5h-.7v-.8h-1.6l.2-5.4h-.3l-.2 5.4h-1.3v.8h-1v-.2H389v.2h-.8v.5h-.4v-.1h-1.2v-.1h-.5v.1h-.4v.1h-1.1l-1.4 31.3h-1.9v-1h-.9l.3-6.8h-5.1l.6-13.3h-1.6v-.8h.5v-1.1h-1v-.5h.6l.1-1.3h-.8c-.1-1.6-1.6-2.8-3.6-3.1l.1-1.9h-.5l.1-3.2h-.3l.1-6.8-.5 6.8h-.3l-.1 3.2h-.5l-.1 1.9c-2 .3-3.6 1.6-3.8 3.1h-.8l-.1 1.3h.6v.5h-1v1.1h.5v.8H362l-.9 22.1-2.1-.6.2-4.8h-.7v-.1h-.2v-.2h-.3v.2h-1v.1h-.3l.1-2.5h-.6V95h-.3l.3-23.9h-2.5v-.5h-5.8v.5h-.3V71h-1.4v.1h-.8l-3.2 30.3h-.2v.4H341.2l-.2.6h.4v.1h-.6v.1h-2.4v-1.1l-1.3-1.1h-.7v-.5h-.8v-.3h-.8v.3h-4.6v.5h-.7l-1.3 1.1v1.1h-.8v-.3h-.7v-4.7h-1.4v-.3H322v.3h-.9v-.1h-.8v.1h-.7v-.7h-2.7v.7h-2.2v-4.1h-.5v-1h-13.6v1h-.5v8.5h-.6v.7h-.5v-4.1h-.5v-1h-6.3v1h-.5v6.3h-.7v-1.1h-.8v-.2h-.4v-.1h-.4v.1h-.2v-.1h-.4v.1h-.2v-.1h-.4v.1h-.2v-.1h-.4v.1H286v.2h-2.7v-1.7h-1v-1h-.4v-.5h-3v.5h-4.2v1h-.5v-.3h-1v.3h-2.3v9.6H135.7v15.5l686.1 2.5h285.1v-18h-77zm-579.8-8.1h-.1v-.3h.2v.3zm.4 0h-.2v-.3h.2v.3zm4.2 0h-.2v-.3h.2v.3zm.4 0h-.1v-.3h.2v.3zm.4 0h-.2v-.3h.2v.3zm.4 0h-.1v-.3h.1v.3z" style="fill-rule:evenodd;clip-rule:evenodd;fill:#b5d5e0"/><path d="M952.1 135.2c-43.2 1.4-86.7-.6-129.9-2.7l-8.4-1.1c-2.7-.1-5.5-.2-8.4-.2-5.6.1-11.1-.2-16.7-.6-29.4-1.1-57.7-2.5-63-2.5-17.1.2-34.2.4-51.4.7-8.5.1-17.1.1-25.5.4-3.8.1-7.7 0-11.5.1-66.3-2.3-159.3-2.9-184.1-2.7v7.2c47 .7 174.7-3.2 195.7-2.8l21.5.3c8.5.1 17.1.1 25.6.1 8.1 0 16.3.5 24.4.9 16.9.8 33.8 1.7 50.6 2.8 33.7 2.1 67.3 4.8 100.6 8-19.8 1.4-39.5.2-59.3-1-22.4-1.4-44.9-2.8-67.3-4.2-10.2-.6-20.3-1.3-30.5-1.4-12.7-.2-25.6.8-38 0-12.8-.8-27.4-.1-40 .9-11.8.9-126.6-.1-183.4-.7v5.6c63.3-.3 182.8-2.4 168.9-.8-3.9.5-7.9.8-11.9 1.1-8 .6-16 1.1-24.1 1.4-16.2.6-32.6.7-48.9.6-10.5 0-73.5-.1-84-.2v4.9c69-1.2 197.9-2.3 248.5.1 2.5.1 14.7 1.6 15.4-.3.5-1.3-9.6-1.1-11.4-1.1-15.2-.2-30.4-.1-45.6-.1-6.7 0-13.8-.1-19.4-1.6 14.5 0 29.1.1 43.5-.8 4.6-.3 9.2-.7 13.8-.8h1.3c5.6-.1 11.2 0 16.8.2 33.8.9 67.6 1.8 101.5 2.7-9.7 1.6-20.3 1.9-30.6 2-5.5.1-21.5-1.5-25.1.9-.6.4-.7.7-.4.9h84.7c32.8-.5 65.7-1.1 98.6-1.5 2.5 0 5.7.2 6.2 1.2l22.8.3h51v-17.5c-11.1-.4-47.4 1.1-72.6 1.3z" style="fill-rule:evenodd;clip-rule:evenodd;fill:#fff"/><linearGradient id="b" x1="916.6" x2="944.667" y1="96.442" y2="96.442" gradientUnits="userSpaceOnUse"><stop offset="0" style="stop-color:#9299a6"/><stop offset="1" style="stop-color:#b0b8c4"/></linearGradient><path d="M916.3 69.8c1.3 5.8 3 11.5 4.8 17.1 3.2 9.9 7 20.2 13 28.7 2.5 3.6 5.8 7.2 10.1 8.6.5.1 1.3-1.1.7-1.3-3.8-1.2-6.8-4.4-9.1-7.5-3-4.1-5.4-8.6-7.5-13.3-4-8.8-7-18.1-9.5-27.4-.5-2-1.1-4-1.5-6 0-.4-1.1.6-1 1.1z" style="fill:url(#b)"/><linearGradient id="c" x1="753.668" x2="917.278" y1="72.021" y2="72.021" gradientUnits="userSpaceOnUse"><stop offset="0" style="stop-color:#9299a6"/><stop offset="1" style="stop-color:#b0b8c4"/></linearGradient><path d="M753.1 21.4c1.2 2.2 2.4 4.3 3.7 6.4 3.2 5.5 6.6 11 10 16.4 4.7 7.4 9.5 14.8 14.6 21.9C787 74 792.8 81.8 799 89.3c5.9 7.1 12.2 14 19.1 20.2 5.7 5.1 11.9 9.9 19 12.9 2.9 1.2 5.9 2.1 9 2.4 4.2.4 8.6-.5 12.6-1.7 10.6-3 20-9.2 28.2-16.3 7.6-6.6 14.4-14.2 20.5-22.2 3.6-4.7 6.9-9.5 10-14.5.1-.2.3-.5.4-.7.2-.4.5-1.2-.1-1.4-.6-.2-1.3.7-1.5 1.2-2 3.6-4.1 6.5-6.5 9.9-5.3 7.5-11.2 14.6-17.8 21.1-7.7 7.5-16.4 14.3-26.4 18.5-7.4 3.1-15.7 5.1-23.5 2.6-6.9-2.1-13-6.4-18.5-10.9-6.9-5.7-13.1-12.1-18.9-18.9-6.3-7.3-12.2-14.9-17.8-22.7-5.3-7.3-10.3-14.7-15.1-22.2-3.8-5.8-7.4-11.7-10.9-17.7-1.8-3-3.5-6-5.2-9-.1-.1-.2-.3-.2-.4-.8-1.2-2.8 1-2.3 1.9z" style="fill:url(#c)"/><path d="M604.7 147.8c4.6-1.3 8.9-3.6 13-6 5.5-3.2 10.8-6.9 15.9-10.6 13.1-9.6 25.4-20.1 37.5-30.9 12.9-11.4 25.5-23.2 37.8-35.2 10.1-9.8 20.1-19.7 30-29.7 4.7-4.7 9.5-9.4 13.9-14.3l.2-.2c1.1-1.2-.7-2.9-1.8-1.8-3.7 3.9-7.5 7.7-11.3 11.6-9.3 9.5-18.8 18.9-28.3 28.2-12.2 11.9-24.6 23.6-37.2 34.9-12.2 11-24.7 21.8-37.8 31.8-5.4 4.1-10.8 8.1-16.5 11.7-4.3 2.7-8.8 5.3-13.4 7.1-.9.3-1.8.7-2.8.9-1.5.6-.8 3 .8 2.5z" style="fill:#9299a6"/><path d="m777.6 58.4-5.1 87.9" style="fill-rule:evenodd;clip-rule:evenodd;fill:none;stroke:#a2aab6;stroke-linecap:round;stroke-linejoin:round;stroke-miterlimit:10"/><path d="m805.1 95.7-.5 43.5M816.8 107.8l-.4 29M826.6 116.1l-.1 18.9M837.1 122v11M845.3 124.6v6.8M853.7 124.4v5.6M861.7 121.8v7.2M876.4 114.6l-.2 12.2M884.7 108.4l-.5 17.2M892.1 101.7l-.7 23.2M899.7 93.4l-.4 31.2M908.3 82.7l-1.2 41.7" style="fill-rule:evenodd;clip-rule:evenodd;fill:none;stroke:#b0b8c4;stroke-linecap:round;stroke-linejoin:round;stroke-miterlimit:10"/><path d="m695.8 77.2-10.7 76.9" style="fill-rule:evenodd;clip-rule:evenodd;fill:none;stroke:#a2aab6;stroke-linecap:round;stroke-linejoin:round;stroke-miterlimit:10"/><path d="M745.6 28.5 734.2 150" style="fill-rule:evenodd;clip-rule:evenodd;fill:none;stroke:#b0b8c4;stroke-linecap:round;stroke-linejoin:round;stroke-miterlimit:10"/><path d="m720.4 53.3-11.6 101.6M670.7 100.3l-7.2 52.6" style="fill-rule:evenodd;clip-rule:evenodd;fill:none;stroke:#a2aab6;stroke-linecap:round;stroke-linejoin:round;stroke-miterlimit:10"/><path d="m912.5 127.3 3.6-59.6 17-1.3 4.5 62.1-5 .1-1.1-38.6c-.6-12.8-6.9-11.5-6.9-11.5s-6.1-.7-6.5 11.4c-.5 14.1-.5 36.7-.5 36.7s-5.1.8-5.1.7z" style="fill-rule:evenodd;clip-rule:evenodd;fill:#a2aab6"/><path d="M962.8 123.8c-48.4-1.9-141.5 19.9-176.9 40.6l-41.2-3.7s130.4-40.5 217.7-37.6l.4.7z" style="fill-rule:evenodd;clip-rule:evenodd;fill:#808792"/><path d="M961.6 123.2c-48.4-1.9-145.6 15.3-176 34.6l-43.1 3.9-54-2.6s167.3-36.2 254.9-38.1l18.2 2.2z" style="fill-rule:evenodd;clip-rule:evenodd;fill:#b0b8c4"/><path d="m826.5 147.5-3.3 1-.2-7.9 3.5-1.2zM814.1 151.8l-3.4 1.3v-8.2l3.4-1.3zM838.8 143.7l-3.4 1v-8l3.4-1.3zM850.7 140.3l-3.5 1 .1-7.9 3.4-1.3zM861.6 137.5l-3.6.9.1-7.7 3.5-1.2zM872.4 135l-2.7.6v-6.2l2.7-1zM881.8 132.9l-2.7.6v-6.1l2.7-1zM891 131l-2.7.6v-6l2.7-1zM899.4 129.6l-2.7.4v-4.1h2.7zM906.6 128.4l-2.6.4v-4.2h2.7zM921.8 126.2l-2.8.4.1-4 2.8.1zM927.6 125.5l-1.9.3v-3h1.9zM933.3 125.1l-1.9.1v-3h1.9zM941.4 124.4h-1.9v-2.7h1.9zM945.6 124.2l-1.8.1v-2.8h1.8zM949.5 124h-1.4v-1.7h1.4z" style="fill-rule:evenodd;clip-rule:evenodd;fill:#b0b8c4"/><path d="M743.9 148.2 754.2 19l45.5-2.6 3 .9-1.2 139.1-6 3.4-.6-101.7c.5-22.7-17.2-20.7-17.2-20.7s-19.2-1-21.2 20.3c-2.3 24-8.7 90.1-8.7 90.1l-3.9.4z" style="fill-rule:evenodd;clip-rule:evenodd;fill:#646a73"/><path d="M738.9 148.8 751.8 19l48-2.8-4.3 141.4-7.4-.9 4.2-98.7c.7-22.7-18.2-21.1-18.2-21.1s-18.1-.6-20.2 20.7c-2.4 24-9.6 90.5-9.6 90.5s-5.2.8-5.4.7z" style="fill-rule:evenodd;clip-rule:evenodd;fill:#9299a6"/><path d="M1053.5 126.7s-4.8-10.4-14.2-11.9c0 0 12.4-2.4 18.9 10.8 0 0-1.1-13.9-15.3-23.4 0 0 14.5.7 22 22.2 0 0-1.1-20.3-11.4-27.1 0 0 14.7 4.9 17.7 26.7 0 0-1.9-10.6 7.9-18.5 0 0-5.2 8.9-2.5 18.1 0 0 1.8-9.2 10.7-14.9 0 0-5.4 4.4-5.3 14.8 0 0 3.1-8 11.4-8 0 0-4-1.4-6.8 9.6 0 0 1.2.9 3.5.4 1.4-.3 1.8.8-.5 1.5l-9.2.6c-5.8-.3-6.6 0-7.5.5l-29.7 2c-.3-.6 1.9-1.6 10.3-3.4z" style="fill-rule:evenodd;clip-rule:evenodd;fill:#99c2a6"/><path d="M1054.8 127.1s-4.3-9.3-12.7-10.6c0 0 11.1-2.2 16.8 9.7 0 0-1-12.4-13.7-20.9 0 0 12.9.6 19.6 19.8 0 0-.9-18.1-10.2-24.2 0 0 13.1 4.4 15.8 23.8 0 0-1.7-9.5 7.1-16.5 0 0-4.7 8-2.3 16.2 0 0 1.6-8.2 9.6-13.3 0 0-4.9 3.9-4.8 13.2 0 0 2.7-7.1 10.2-7.1 0 0-3.5-1.2-6 8.5 0 0 1.1.8 3.2.4 1.2-.2 1.6.7-.4 1.3l-8.2.5c-5.2-.3-5.9 0-6.7.4l-26.4 1.7c-.3-.4 1.6-1.3 9.1-2.9z" style="fill-rule:evenodd;clip-rule:evenodd;fill:#74a683"/><path d="M1106.9 166.1v-42.5c-194.2 0-287.9 52-529.9 30.7v11.8h529.9z" style="fill-rule:evenodd;clip-rule:evenodd;fill:#b7d9c2"/><path d="m932.6 115.6-.1 13.1 5-.1-.8-13z" style="fill-rule:evenodd;clip-rule:evenodd;fill:#a2aab6"/><path d="m913.6 127.3-2.8.4v-4.2h2.7z" style="fill-rule:evenodd;clip-rule:evenodd;fill:#b0b8c4"/><linearGradient id="d" x1="932.635" x2="962.46" y1="95.064" y2="95.064" gradientUnits="userSpaceOnUse"><stop offset="0" style="stop-color:#9299a6"/><stop offset="1" style="stop-color:#b0b8c4"/></linearGradient><path d="M932.2 66.7c1.5 6.1 3.4 12.2 5.5 18.1 3.6 10.3 7.7 21 14.1 29.9 2.7 3.7 6.1 7.5 10.6 9 1 .3.6-.6 0-.8-3.8-1.2-6.7-4.5-9-7.7-3.2-4.3-5.7-9.1-7.9-13.9-4.2-9.1-7.4-18.6-10.2-28.2-.6-2.1-1.2-4.1-1.7-6.2-.2-.4-1.5-.9-1.4-.2z" style="fill:url(#d)"/><linearGradient id="e" x1="801.055" x2="932.507" y1="69.659" y2="69.659" gradientUnits="userSpaceOnUse"><stop offset="0" style="stop-color:#808792"/><stop offset="1" style="stop-color:#9299a6"/></linearGradient><path d="m800.2 18.7 3 6.6c2.7 5.7 5.4 11.3 8.3 16.9 3.9 7.6 8 15.1 12.4 22.5 4.8 8.1 9.8 16 15.4 23.7 5.2 7.1 10.7 14 17 20.1 5.1 4.9 10.9 9.6 17.6 12.2 2.8 1.1 5.8 1.8 8.9 1.8 4.5 0 9.1-1.1 13.3-2.7 8.7-3.3 15.9-9.5 21.5-16.9 4.9-6.5 8.7-13.9 11.5-21.6 1.7-4.4 3.1-9 4-13.6 0-.2.1-.5.1-.7.2-1.3-2.4-.2-2.6.7-.6 3.2-1.5 6.4-2.5 9.5-2.2 7-5.2 13.9-9 20.2-4.5 7.4-10.4 14.1-18.1 18.4-6.6 3.7-14.9 5.9-22.3 3.8-6.5-1.8-12.3-5.9-17.2-10.3-6.4-5.6-11.9-12.2-17-18.9-5.6-7.4-10.7-15.1-15.5-23-4.5-7.4-8.7-14.9-12.8-22.6-3.1-6-6.2-12-9.1-18.1-1.5-3.1-2.8-6.2-4.3-9.3-.1-.1-.1-.3-.2-.4-.2-.7-2.8.7-2.4 1.7z" style="fill:url(#e)"/><path d="M654.1 154c4.6-1.3 9-3.7 13-6.2 5.6-3.4 10.8-7.3 16-11.3 13.1-10.1 25.3-21.3 37.3-32.6 12.9-12.2 25.4-24.7 37.8-37.5 10.1-10.4 20-20.9 29.8-31.5 4.7-5 9.4-10 13.9-15.2l.2-.2c1.3-1.4-.8-3.6-2.1-2.2-3.7 4.1-7.5 8.2-11.2 12.3-9.3 10.1-18.7 20.1-28.2 30-12.1 12.6-24.4 25-37 37.1-12.2 11.7-24.6 23.1-37.7 33.8-5.3 4.3-10.7 8.4-16.4 12.2-2.4 1.6-4.8 3.1-7.3 4.5-1.1.6-2.2 1.2-3.3 1.7-.5.2-1 .5-1.5.7-.5.2-1 .4-1.2.5-.9.4-1.8.7-2.8.9-1.9.6-1.2 3.5.7 3z" style="fill:#808792"/><path d="m823 61.6-.1 86.5M811.6 41l-.9 111.4M834.5 79.9l.5 64.4M846.9 96.6v44.3" style="fill-rule:evenodd;clip-rule:evenodd;fill:none;stroke:#9299a6;stroke-linecap:round;stroke-linejoin:round;stroke-miterlimit:10"/><path d="m868.4 119-.2 8.8" style="fill-rule:evenodd;clip-rule:evenodd;fill:none;stroke:#b0b8c4;stroke-linecap:round;stroke-linejoin:round;stroke-miterlimit:10"/><path d="m857.5 108.4.3 29.6M869.5 117.9v17.2M879.1 121.2V133M887.8 121.4l.2 9.7M896.3 118.7l.1 10.9M903.3 115.2l.4 13.2M911 109.9l-.4 17.4M918.2 100.9l.5 25.2M924.2 90.8l1.2 34.5M929 77.6l2.3 47" style="fill-rule:evenodd;clip-rule:evenodd;fill:none;stroke:#9299a6;stroke-linecap:round;stroke-linejoin:round;stroke-miterlimit:10"/><path d="m938.6 86.1 1.2 37.8M943.5 99.2l.6 24.5M947.4 107.2l.3 16.4M951.7 114.2l.1 9.2M955.4 118.7v4.7M786.4 36.4l-5.6 118.9M771.8 52.1l-7.1 104.3M758.3 65.9l-8.5 91.7M724.6 100l-7 58M697.9 124.3l-4.2 32.1" style="fill-rule:evenodd;clip-rule:evenodd;fill:none;stroke:#a2aab6;stroke-linecap:round;stroke-linejoin:round;stroke-miterlimit:10"/><path d="M813.7 166.1c-265.6-18.5-461.5-69.3-765-63.8l.5 63.8h764.5z" style="fill-rule:evenodd;clip-rule:evenodd;fill:#86b596"/><path d="M427.7 166.1C327.4 136.2 200 85.2 1 88.1v78h426.7z" style="fill-rule:evenodd;clip-rule:evenodd;fill:#5c926d"/><path d="M70.1 89.8C35.4 101.1 15 124.2 1 155.3v10.9h44.3c16.4-46.9 43.4-71.3 84.5-72.7l-59.7-3.7zM172.2 99.4c-38.6 12.3-59.6 35.8-71.1 66.8h43.7c16-40.2 44.1-49.5 87.9-55.7l-60.5-11.1zM272.6 119.7c-41.1 9.8-60.9 24.4-71.8 46.4h27.8c10.1-31.8 32.1-22.4 81.8-36.2l-37.8-10.2zM336.2 137.8c-27.5 3.3-45.5 3.8-57.1 28.4h20.6c10.6-28.8 30.2-26.8 58-22.1l-21.5-6.3zM369.7 147.8c-13.1 2.1-23 3.6-29.8 18.3h12.9c3.4-18.8 7.4-1.9 27.4-15l-10.5-3.3z" style="fill:#99c2a6"/></g></switch></svg>