<svg xmlns="http://www.w3.org/2000/svg" xml:space="preserve" style="enable-background:new 0 0 133 150" viewBox="0 0 133 150"><switch><g><linearGradient id="a" x1="66.414" x2="66.414" y1="88.019" y2="-18.285" gradientUnits="userSpaceOnUse"><stop offset="0" style="stop-color:#e7f2f2"/><stop offset=".058" style="stop-color:#daebed"/><stop offset=".164" style="stop-color:#c9e1e7"/><stop offset=".297" style="stop-color:#bedae3"/><stop offset=".483" style="stop-color:#b7d6e1"/><stop offset="1" style="stop-color:#b5d5e0"/></linearGradient><path d="M0 0h132.8v150H0z" style="fill:url(#a)"/><path d="M133 61.4c-24.8 2.5-46.6 8.8-48.6 20.2C69.3 76.5 33 79.3 33 88.5c-9.9-1.5-22.7-1-33 .8v23.6h133V61.4z" style="fill-rule:evenodd;clip-rule:evenodd;fill:#e7f2f2"/><path d="M0 43c24.8-2.5 55.2-9.7 57.1-21.1C72.2 27 100 33.6 100 24.4c9.9 1.5 22.7 1 33-.8V0H0v43z" style="opacity:.5;fill-rule:evenodd;clip-rule:evenodd;fill:#e7f2f2"/><path d="M67.2 108V105.1H66.3v-.1h-.8v-.1h-.4v.1H65v.2h-.1.1-.1v-.1h-.2v-.1h.2v-.3h-.2v-.1h.2v-.3h-.2v-.1h.2v-.2h-.2v-.1h.2v-.3h-.2v-.1h.2v-.3h-.2v-.1h.2v-.3h-.2v-.1h.2v-.3h-.2v-.1h.2v-.2h.1v-.1h-1.4l-.1-2.5h-.3V99H63v-.2h-.3v-.3h-.3v-.4h-.1l.1-2.7-.2 2.7h-.1v.4h-.3l-.1.3h-.3v.2h-.2v.5H61l-.3 2.5h-.1v.2l-.2 1.4H60.1v.2h.1v.2H59.9v-1h-.7v-.5h-.3v-.4h-.1v-.1h-.3l.1-2.5h-.7L58 96h-.6l.1-1.1c0-1.1-1.5-2-2-1.9l-.1 2.2h-.1v-.1h-.2v.1h-.2v.8h-.5l-.2 3.6h-.5l-.1 2.6h-.4l-.1 1.2h-.5l.3-5.8h-.7l.1-1.1h-.4V96h-.2v-.1h-.8v.1h-.6v.5h-.4l-.1 1.1h-.7l-.2 4.4h-1.2l.3-7.6h-1.2v-.2h-.2v-.3h-.5l.1-1.8h-.1l-.1 1.8h-.4v.3h-.3v-.1h-.9v.1h-.3v.2h-1.2l-.5 10.6h-.6v-.3h-.3l.1-2.3h-1.7l.2-4.5h-.6v-.3h.2v-.4h-.4V97h.2v-.4h-.3c0-.5-.5-1-1.2-1.1v-.6h-.2v-1.1h-.1v-2.3l-.2 2.3h-.1v1.1h-.2v.6c-.7.1-1.2.5-1.3 1.1h-.3v.4h.4v.2h-.4v.4h.2v.3h-.6l-.3 7.5-.7-.2.1-1.6h-.4v-.1h-.1v.1h-.4v-.8h-.2v-.1h-.1l.1-8.1h-.8v-.2h-1.9v.2h-.8l-1.1 10.2h-.1v.1h-.2l-.1.2h.1-1v-.4l-.5-.4h-.2v-.2h-.3v-.1H26v.1h-1.5v.2h-.2l-.5.4v.4h-.3v-.1h-.2v-1.6h-.5v-.1h-1.1v.1h-.8v-.2H20v.2h-.7V102h-.2v-.4h-4.6v.4h-.2v2.9h-.2v.2H14v-1.4h-.2v-.4h-2.1v.4h-.2v2.1h-.2v-.4H11v-.1H9.6v.1h-.9v-.6h-.4v-.3h-.1v-.2h-1v.2H5.8v.3h-.2v-.1h-.4v.1h-.7v3.2H.1v5.2l132.9.8v-6H67.2zm-2.2-2.7zm.1 0zm1.4 0zm.2 0zm.1 0zm.1 0z" style="fill-rule:evenodd;clip-rule:evenodd;fill:#b5d5e0"/><path d="M76.6 31.3c0 .2 0 0 .2 0s.5-.1.7-.1c.8-.1 1.7 0 2.5.1 2.5.4 4.8 1.5 6.7 3.2.5.4.1-.9.1-1-.2-.6 1.3-1.3 1.6-1.4 1.1-.4 2.2-.5 3.4-.4 1 .1 2 .4 3 .8.5.2.9.4 1.4.6l.6.3c.2.1.4.4 0-.1.8 1 .5-.7.1-1.2-.6-.7-1.8-1.1-2.6-1.4-1.4-.6-2.8-.9-4.3-.9-1.2 0-2.6.3-3.5 1.1-.9.8-.7 1.9-.3 2.9 0-.3.1-.7.1-1-2.1-1.8-4.6-3-7.4-3.4-.4-.1-3.4-.4-3.4.4 0 .4.2 1 .5 1.3.1.1.5.6.6.2zM62.1 35.9c0 .2-.1.1.1.1s.3-.1.5-.1c.6-.1 1.2 0 1.8.1 1.8.3 3.4 1.1 4.8 2.3.5.4.1-.9.1-1 .2.4 0 .1.2 0 .1-.1.1-.2.3-.3.2-.2.5-.3.8-.4.8-.3 1.6-.3 2.4-.3.7.1 1.4.3 2.1.6.3.1.7.3 1 .5.1.1.2.1.4.2s.3.3 0-.2c.2.2.4.5.6.1.1-.3-.3-1-.5-1.3-.4-.6-1.3-.8-2-1.1-1-.4-2-.7-3.1-.6-.9 0-1.9.2-2.5.8-.7.6-.5 1.6-.2 2.4 0-.3.1-.7.1-1-1.5-1.3-3.3-2.2-5.3-2.4-.4 0-2.5-.3-2.5.4 0 .5.2.9.5 1.3-.1-.1.4.3.4-.1zM35 16.4c0 .2 0 0 .3 0s.5-.1.8-.1c.9-.1 1.9 0 2.8.1 2.7.4 5.2 1.7 7.3 3.5.5.4.1-.9.1-1-.3-.7 1.3-1.5 1.8-1.7 1.2-.4 2.5-.5 3.7-.4 1.1.1 2.2.4 3.2.9.5.2 1 .4 1.5.7l.6.3c.2.1.4.4.1-.1.8 1 .5-.7.1-1.2-.6-.8-2-1.2-2.8-1.5-1.5-.7-3.1-1-4.7-1-1.3.1-2.8.3-3.8 1.2-.9.9-.7 2-.3 3 0-.3.1-.7.1-1-2.3-2-5.1-3.3-8.1-3.7-.5 0-3.7-.4-3.7.6 0 .4.2 1 .5 1.3 0 .1.5.6.5.1z" style="fill:#fff"/><path d="M120.9 117.4c-7.1.5-14.2-.2-21.2-.9l-1.4-.4c-.4 0-.9-.1-1.4-.1-.9 0-1.8-.1-2.7-.2-4.8-.4-9.4-.9-10.3-.8-2.8.1-5.6.1-8.4.2-1.4 0-2.8 0-4.2.1h-1.9c-10.8-.8-26-1-30.1-.9v2.4c7.7.3 28.5-1.1 32-1 1.2 0 2.3.1 3.5.1H79c1.3 0 2.7.2 4 .3 2.8.3 5.5.6 8.3.9 5.5.7 11 1.6 16.4 2.7-3.2.5-6.4.1-9.7-.3-3.7-.5-7.3-.9-11-1.4-1.7-.2-3.3-.4-5-.5-2.1-.1-4.2.3-6.2 0-2.1-.3-4.5 0-6.5.3-1.9.3-20.7 0-29.9-.2v1.9c10.3-.1 29.8-.8 27.6-.3-.6.2-1.3.3-1.9.4-1.3.2-2.6.4-3.9.5-2.7.2-5.3.2-8 .2-1.7 0-12 0-13.7-.1v1.7c11.3-.4 32.3-.8 40.6 0 .4 0 2.4.6 2.5-.1.1-.4-1.6-.4-1.9-.4-2.5-.1-5 0-7.5-.1-1.1 0-2.3 0-3.2-.6 2.4 0 4.8 0 7.1-.3.8-.1 1.5-.2 2.3-.3h.2c.9 0 1.8 0 2.7.1 5.5.3 11 .6 16.6.9-1.6.5-3.3.6-5 .7-.9 0-3.5-.5-4.1.3-.1.1-.1.2-.1.3h13.8c5.4-.2 10.7-.4 16.1-.5.4 0 .9.1 1 .4l3.7.1h8.3v-5.9c-1.7.2-7.6.7-11.7.8z" style="fill-rule:evenodd;clip-rule:evenodd;fill:#d8e6ea"/><path d="m99.1 105-.5 7.9M103 99.6l-.9 12.8M107.4 92.1l-1 19.7M74.3 96.5l-.8 21.8" style="fill-rule:evenodd;clip-rule:evenodd;fill:none;stroke:#a3a8af;stroke-width:.4;stroke-linecap:round;stroke-linejoin:round;stroke-miterlimit:10"/><path d="M110.9 82.9c.4 3 .9 5.9 1.5 8.8 1 4.9 2 10 4.1 14.6.7 1.6 1.7 3.5 3.3 4.4.3.1.4-.1.1-.2-1.4-.8-2.3-2.6-2.9-4-1-2.2-1.7-4.4-2.3-6.7-1.2-4.5-2.1-9.1-2.9-13.8-.2-1-.3-2-.4-3-.1-.1-.5-.2-.5-.1z" style="fill:#b9c0c9"/><linearGradient id="b" x1="57.937" x2="111.563" y1="84.237" y2="84.237" gradientUnits="userSpaceOnUse"><stop offset="0" style="stop-color:#9299a6"/><stop offset="1" style="stop-color:#b0b8c4"/></linearGradient><path d="M58.1 57.4c.4 1.1.7 2.2 1.1 3.3 1 2.8 2 5.6 3 8.3 1.4 3.8 2.9 7.6 4.5 11.3 1.7 4.1 3.5 8.1 5.4 12.1 1.8 3.7 3.7 7.3 6 10.7 1.7 2.6 3.5 5.2 6 7.1.9.7 1.8 1.3 2.9 1.6 1.2.3 2.5.1 3.7-.3 4.1-1.3 7.3-4.7 9.8-7.9 2.9-3.6 5.2-7.6 7.3-11.7 1.3-2.6 2.5-5.2 3.6-7.9.1-.1.1-.3.2-.4.2-.6-.5-.2-.7.1-.7 1.9-1.5 3.7-2.4 5.5-1.8 3.9-3.9 7.8-6.4 11.3-2.4 3.6-5.4 7.3-9.2 9.4-1.3.7-3 1.4-4.5 1.3-1-.1-1.9-.5-2.8-1-2.4-1.5-4.3-3.9-5.9-6.2-2.2-3.2-4.1-6.6-5.9-10-2-3.8-3.8-7.8-5.5-11.8-1.6-3.8-3.2-7.6-4.6-11.5l-3.3-9c-.5-1.5-1-3.1-1.6-4.6 0-.1 0-.1-.1-.2 0-.5-.7.2-.6.5z" style="fill:url(#b)"/><path d="M8.7 122.2c1.6-.7 3-1.8 4.2-3 1.9-1.7 3.7-3.6 5.4-5.5 4.5-5.1 8.6-10.4 12.6-15.9 8.1-10.9 15.6-22.2 23-33.6l4.8-7.5c.2-.3-.8-.5-1-.2-4.3 6.9-8.8 13.8-13.4 20.5-8 11.8-16.1 23.7-25.4 34.6-1.9 2.3-3.9 4.5-6.1 6.5-1.5 1.4-3 2.8-4.9 3.6-.5.3.4.6.8.5z" style="fill:#9299a6"/><path d="m109.1 114.5 1.7-31.8 5.6-.6.8 33-1.6-.3.1-20.4c-.1-6.7-2.2-6-2.2-6s-2-.4-2.2 5.9c-.3 7.4-.5 19.9-.5 19.9l-1.7.3z" style="fill-rule:evenodd;clip-rule:evenodd;fill:#a2aab6"/><path d="M125.6 112.2c-15.8-1.3-46.4 9.5-58.1 20.1L54 130.1s42.9-20.4 71.4-18.3l.2.4z" style="fill-rule:evenodd;clip-rule:evenodd;fill:#808792"/><path d="M125.2 111.8c-15.8-1.3-47.7 7.1-57.8 17l-14.1 1.8-17.6-1.7s55-17.9 83.6-18.4l5.9 1.3z" style="fill-rule:evenodd;clip-rule:evenodd;fill:#b0b8c4"/><path d="m53.9 123.6 4.6-67.3 14.9-1.1 1 .5-1.7 72.5-2 1.7.8-53C71.7 65 65.9 66 65.9 66s-6.2-.6-7.1 10.4c-1 12.5-3.7 46.9-3.7 46.9l-1.2.3z" style="fill-rule:evenodd;clip-rule:evenodd;fill:#646a73"/><path d="m52.2 123.9 5.4-67.6 15.7-1.2-2.7 73.7-2.4-.5 2.3-51.4c.5-11.9-5.7-11.1-5.7-11.1s-5.9-.4-6.8 10.6c-1 12.5-4 47.1-4 47.1s-1.7.4-1.8.4z" style="fill-rule:evenodd;clip-rule:evenodd;fill:#9299a6"/><linearGradient id="c" x1="116.667" x2="125.574" y1="97.404" y2="97.404" gradientUnits="userSpaceOnUse"><stop offset="0" style="stop-color:#9299a6"/><stop offset="1" style="stop-color:#b0b8c4"/></linearGradient><path d="M116.7 82.8c.4 3.1.9 6.2 1.4 9.2.9 5.2 2 10.5 4 15.4.7 1.7 1.6 3.7 3.3 4.6.3.1.4-.1.1-.2-1.4-.8-2.3-2.7-2.9-4.1-1-2.3-1.7-4.7-2.3-7.2-1.2-4.7-2.1-9.5-2.8-14.4-.2-1.1-.3-2.1-.4-3.2 0-.1-.4-.2-.4-.1z" style="fill:url(#c)"/><path d="m50.9 68.6-5.6 46.6M62.9 70.9l-2.5 47.6M41.7 82.1l-4.3 31.4M28.5 100.4 27 112.2" style="fill-rule:evenodd;clip-rule:evenodd;fill:none;stroke:#a3a8af;stroke-width:.4;stroke-linecap:round;stroke-linejoin:round;stroke-miterlimit:10"/><linearGradient id="d" x1="73.438" x2="117.133" y1="83.124" y2="83.124" gradientUnits="userSpaceOnUse"><stop offset="0" style="stop-color:#808792"/><stop offset="1" style="stop-color:#9299a6"/></linearGradient><path d="m73.5 55.6.9 3.3c.8 2.8 1.6 5.7 2.4 8.5 1.1 3.8 2.4 7.6 3.7 11.4 1.4 4.1 2.9 8.2 4.6 12.2 1.5 3.7 3.2 7.3 5.2 10.7 1.5 2.6 3.2 5.3 5.5 7.2.9.7 1.8 1.4 2.9 1.7 1.2.4 2.4.2 3.6-.2 3.7-1.2 6.3-4.5 8.2-7.8 2.1-3.6 3.5-7.6 4.7-11.6.7-2.6 1.3-5.2 1.8-7.8 0-.1 0-.3.1-.4 0-.3-.8-.9-.8-.5-.3 1.8-.7 3.6-1.1 5.4-.9 3.8-2.1 7.6-3.8 11.2-1.6 3.6-3.8 7.3-7.1 9.5-2.1 1.4-4.8 2.3-7.1.9s-3.9-3.8-5.3-6c-2-3.2-3.7-6.6-5.2-10.1-1.7-3.9-3.2-7.9-4.6-11.8-1.4-3.8-2.6-7.7-3.8-11.5-.9-3-1.8-6.1-2.7-9.1-.4-1.5-.8-3.1-1.2-4.6 0-.1 0-.1-.1-.2-.1-.2-.2-.4-.5-.5 0-.1-.3-.2-.3.1z" style="fill:url(#d)"/><path d="M30.2 127.5c1.6-.7 2.9-2 4.1-3.2 1.8-1.8 3.4-3.9 4.9-5.9 4.1-5.5 7.6-11.4 11-17.4 3.8-6.6 7.4-13.2 10.9-19.9 2.9-5.6 5.8-11.2 8.5-16.9 1.3-2.7 2.7-5.4 3.9-8.1 0 0 0-.1.1-.1.3-.6-.6-1.1-.9-.5-1 2.2-2.1 4.4-3.2 6.6-2.6 5.4-5.3 10.7-8 16-3.4 6.7-7 13.3-10.7 19.8-3.5 6.1-7.1 12.2-11.1 18-1.6 2.2-3.2 4.4-5 6.5-1.2 1.4-2.6 2.9-4.2 3.9-.3.2-.6.3-.9.5-.5.1 0 1 .6.7z" style="fill:#808792"/><path d="m113.3 94.8.1 18.1M105.7 108.6l-.3 6" style="fill-rule:evenodd;clip-rule:evenodd;fill:none;stroke:#9299a6;stroke-width:.25;stroke-linecap:round;stroke-linejoin:round;stroke-miterlimit:10"/><path d="m100.6 110.8-.3 5.1" style="fill-rule:evenodd;clip-rule:evenodd;fill:none;stroke:#9299a6;stroke-width:.3;stroke-linecap:round;stroke-linejoin:round;stroke-miterlimit:10"/><path d="m95.4 108.5-.3 9.1M89.7 100.2l-.3 19.5M84.8 89.8l-1.2 32.4M79.4 75l-1.9 49.3M66.2 70.5l-2.1 49.3" style="fill-rule:evenodd;clip-rule:evenodd;fill:none;stroke:#9299a6;stroke-width:.4;stroke-linecap:round;stroke-linejoin:round;stroke-miterlimit:10"/><path d="m109.7 103.3-.4 10.3M118.4 92.3l.3 19.9M120.8 103.3l.2 8.7" style="fill-rule:evenodd;clip-rule:evenodd;fill:none;stroke:#9299a6;stroke-width:.25;stroke-linecap:round;stroke-linejoin:round;stroke-miterlimit:10"/><path d="m85.5 121.5-1.7.8.1-2.8 1.6-.6zM80 124.1l-2.3 1.2.1-3.3 2.2-.9zM91.2 119.2l-1.6.6.1-2.3 1.5-.7zM96.9 117.1l-1.6.6.1-1.9 1.6-.6zM102.1 115.6l-1.7.4.1-1.6 1.7-.7zM106.9 114.3l-1.4.3.1-1.5 1.3-.5zM110.8 113.4l-1.3.3v-1l1.3-.1zM114.5 112.8l-1 .1v-.9l.9.1zM119.7 112.2l-.8.1v-.6l.8-.1zM117.2 112.4l-.8.1v-.6h.8zM121.7 112.1h-.6v-1l.7.1z" style="fill-rule:evenodd;clip-rule:evenodd;fill:#b0b8c4"/><path d="M123 108.9v3M115.8 88.3l.5 24.1" style="fill-rule:evenodd;clip-rule:evenodd;fill:none;stroke:#9299a6;stroke-width:.25;stroke-linecap:round;stroke-linejoin:round;stroke-miterlimit:10"/><path d="M133 149.9V118c-49 0-70.2 33.7-131.2 29.7v2.2H133z" style="fill-rule:evenodd;clip-rule:evenodd;fill:#b7d9c2"/><path d="M132.9 149.9c-31.2-15-70.9-40.5-132.9-39V150h132.9z" style="fill-rule:evenodd;clip-rule:evenodd;fill:#5c926d"/><path d="M22.1 111.5c-11.9 3.1-17.8 17.7-22.1 33v5.4h13.8c5.1-23.2 13.2-32.7 26.8-36 0 0-13.8-2.5-18.5-2.4zM53.4 116.6c-13 4.8-18.7 18.1-22.3 33.3h13.6c5-19.8 13.7-26.2 23.5-29.1 0 0-7.4-2.6-14.8-4.2zM82.6 126.1c-10.7 2.8-17.1 13-20.5 23.9h13.2c3.7-10.3 7.5-16.3 19.8-18.6 0-.1-5.8-2.7-12.5-5.3zM103.9 135.5c-6.2 1.3-14.9 4-17.4 14.4h10.4c1.5-5.4 4.7-9.5 14.1-10.9l-7.1-3.5zM114.7 140.9c-4.1 1-7.2 1.8-9.3 9h9.4c1.4-4.3 2.1-4.9 5.7-6.1l-5.8-2.9z" style="fill:#99c2a6"/></g></switch></svg>