<?xml version="1.0" encoding="utf-8"?>
<!-- Generator: Adobe Illustrator 25.2.3, SVG Export Plug-In . SVG Version: 6.00 Build 0)  -->
<svg version="1.1" id="Layer_1" xmlns="http://www.w3.org/2000/svg" xmlns:xlink="http://www.w3.org/1999/xlink" x="0px" y="0px"
	 viewBox="0 0 682.5 768" style="enable-background:new 0 0 682.5 768;" xml:space="preserve">
<style type="text/css">
	.st0{fill:#2C3E50;}
	.st1{opacity:0.5;enable-background:new    ;}
	.st2{fill:#34495E;}
	.st3{fill:#8CC53F;}
	.st4{fill:#BAD546;}
	.st5{fill:#DAE03B;}
	.st6{fill:#BAD545;}
	.st7{fill:#313131;}
	.st8{fill:#6CA839;}
	.st9{fill:#5C9532;}
	.st10{fill:#AAC43F;}
	.st11{fill:#A1BA3B;}
	.st12{fill:#8BC53F;}
	.st13{opacity:0.5;fill:#2C3E50;enable-background:new    ;}
</style>
<rect class="st0" width="682.5" height="768"/>
<g class="st1">
	<path class="st0" d="M866.8705444,513.8812256c-1.9265137-17.074707-16.409668-30.346405-33.9996948-30.346405
		c-17.5896606,0-32.0730591,13.271698-33.9996948,30.346405h-13.1150513v-37.4233398h-43.7375488v10.7209473h-8.7507324v-10.7209473
		h-26.2217407v-32.9872131h-4.4628296v-6.9085693h-66.9710083v6.9085693h-4.4627075v59.7431641h-17.0655518l-2.0391235,5.1384583
		h-4.3295898l2.0391846-5.1384583H591.9375l-5.9931641,15.1025696v-8.1225891h-4.5303955V494.568573l-8.942688-7.471344h-7.3082275
		v-11.5932312c0-1.2746582-1.0334473-2.308136-2.3079224-2.308136h-15.4200439c-1.2744141,0-2.3078613,1.0334778-2.3078613,2.308136
		v11.5932312h-7.3085938l-5.3984985,4.510376c-0.6962891-2.2614441-2.2723999-4.1350708-4.328125-5.2268066v-14.9698792
		l-0.0896606-0.0756531l-30.8314209-25.9999084h-0.0006104l-30.8313599,25.9999084l-0.0897522,0.0756531v15.1045837
		c-2.6759644,1.5290527-4.4833374,4.40448-4.4833374,7.7070618h4.4833374v0.0493469h-7.1109924v28.7631836l-7.861084-2.4938965
		v-6.9517822h-19.3688354v0.8068237l-0.4680786-0.1484985v4.4473877h-9.1755676v-5.1057129h-48.2120972v-0.093811h16.1948242
		l6.2088928-15.6445312h4.3295898l-6.2081604,15.6445312h17.8167419l6.2084045-15.6445312h2.7611084v15.6445312h0.8034363
		v-15.6445312v-0.7438354v-0.0592041h-3.2458801l2.0391235-5.1384583h-17.8170776l-2.039032,5.1384583h-4.3295898
		l2.0392456-5.1384583h-17.8173828l-6.9442444,17.4990234v-26.7424622h-10.105011v-18.9480286h-13.3091431v-17.2053528
		c0-2.713623-2.1998901-4.9136963-4.9136047-4.9136963h-4.2505188v-16.0924683c0-0.4131775-0.3148804-0.7480774-0.7030945-0.7480774
		h-1.6538696c-0.3880005,0-0.7028198,0.3348999-0.7028198,0.7480774v16.0924683h-4.2509766
		c-2.7133179,0-4.9136047,2.2000732-4.9136047,4.9136963v17.2053528h-13.3092957v18.9480286h-10.1048584v34.3648071
		c-3.2003784-1.5671387-6.7817383-2.4718018-10.5788879-2.4718018h-6.5002747v-15.625885v-0.7438354v-0.0592041h-3.245636
		l2.039032-5.1384583h-8.7359009v-22.1459961h-6.7405701v-4.9119568h-76.3403778v4.9119568h-6.7406464v18.9505615
		c-6.6876984-3.1780701-14.9683228-5.0667419-23.8762054-5.0667419c-7.9515533,0-15.4009399,1.5071106-21.6670685,4.0893555
		v-54.4454346h-22.3223343c-1.2288513-10.7066956-10.3111343-19.0253906-21.3469162-19.0253906
		c-11.0357132,0-20.1177521,8.3186951-21.3466034,19.0253906H56.1106796v20.5249939l-55.320446-17.550415v62.6081238
		c-2.826494-13.4237976-14.7340126-23.5023804-28.9989128-23.5023804c-15.2328033,0-27.7756195,11.4932861-29.4440613,26.2802429
		h-15.2259903v11.178772h-36.6387787V499.026123c0-11.013855-8.9283829-19.9421692-19.9419327-19.9421692
		c-11.0137787,0-19.9424744,8.9283142-19.9424744,19.9421692v14.8867188h-52.5509644v5.7481079h3.1157074v43.1148071V798
		H884.4528809V535.3009033v-5.2202148v-16.1994629H866.8705444z M287.9533386,514.5591431h-8.9618835l6.2007141-15.625885h2.7611694
		V514.5591431z M529.2314453,494.2719116H528.09198v-0.0493469h1.1984253L529.2314453,494.2719116z M605.5254517,524.781189
		h-4.329834l6.2009277-15.6258545h4.3296509L605.5254517,524.781189z M631.1495361,524.781189h-7.8068848l6.2007446-15.6258545
		h1.6061401V524.781189z M631.1495361,508.3522949h-1.2874756l1.2874756-3.2443237V508.3522949z"/>
	<polygon class="st0" points="222.305954,449.9937439 226.3033447,449.9937439 220.0951691,465.6383972 237.9120941,465.6383972 
		244.1204987,449.9937439 248.4499359,449.9937439 242.2417755,465.6383972 260.0588379,465.6383972 266.2670898,449.9937439 
		269.0283508,449.9937439 269.0283508,465.6383972 269.8314819,465.6383972 269.8314819,449.9937439 269.8314819,449.2497253 
		269.8314819,449.1906738 266.5857544,449.1906738 268.6248779,444.0520935 250.8076324,444.0520935 248.7685242,449.1906738 
		244.4390869,449.1906738 246.4782715,444.0520935 228.6610413,444.0520935 226.621933,449.1906738 222.6245422,449.1906738 
		224.6636505,444.0520935 206.8466492,444.0520935 198.2807922,465.6383972 216.097702,465.6383972 	"/>
	<polygon class="st0" points="669.9790649,420.5980835 674.3085938,420.5980835 668.1004639,436.2427368 685.9175415,436.2427368 
		692.1259155,420.5980835 694.8870239,420.5980835 694.8870239,436.2427368 695.6901245,436.2427368 695.6901245,420.5980835 
		695.6901245,419.8540649 695.6901245,419.7951965 692.4445801,419.7951965 694.4837036,414.6567383 676.6663208,414.6567383 
		674.6272583,419.7951965 670.2977295,419.7951965 672.3369141,414.6567383 654.5198975,414.6567383 645.9536743,436.2427368 
		663.7704468,436.2427368 	"/>
	<polygon class="st0" points="773.9268188,460.3124695 776.6878052,460.3124695 776.6878052,475.9572754 777.491272,475.9572754 
		777.491272,460.3124695 777.491272,459.568634 777.491272,459.5097351 774.2453003,459.5097351 776.2844849,454.3712769 
		758.4674072,454.3712769 749.9012451,475.9572754 767.7183228,475.9572754 	"/>
</g>
<g>
	<path class="st2" d="M374.0312805,358.6667175h13.5591736c3.5248108,0,6.3822937-2.8575439,6.3822937-6.3824158
		c0-3.5247803-2.8574829-6.3822632-6.3822937-6.3822632h-2.6499939c-3.5248108,0-6.3823547-2.8574829-6.3823547-6.3823547v-0.000061
		c0-3.5248108,2.8575439-6.3822937,6.3823547-6.3822937h59.4479065c3.5249023,0,6.3823547,2.8574829,6.3823547,6.3822937v0.000061
		c0,3.5248718-2.8574524,6.3823547-6.3823547,6.3823547h-3.1492615h-27.5071106
		c-3.5248718,0-6.3823242,2.8574829-6.3823242,6.3822632v0.0000916c0,3.5248718,2.8574524,6.3823242,6.3823242,6.3823242h27.5071106
		h28.7742615h3.1664734h11.1018982c3.5248718,0,6.3823547,2.8574829,6.3823547,6.3822937
		c0,3.5248718-2.8574829,6.3823242-6.3823547,6.3823242h-9.3398438c-0.0308533,0.0004883-0.0606079,0.0046692-0.0915222,0.0046692
		h-3.1492615h-27.5071106c-3.5248718,0-6.3823547,2.8574524-6.3823547,6.3823242
		c0,3.5249023,2.8574829,6.3823547,6.3823547,6.3823547h27.5071106h28.7742615h3.1664429h18.8578186
		c3.5249023,0,6.3823853,2.8574829,6.3823853,6.3823547c0,3.5248108-2.8574829,6.3823547-6.3823853,6.3823547h-58.5584412
		h-18.5586243h-40.8893127c-3.5247803,0-6.3822632-2.8575439-6.3822632-6.3823547
		c0-3.5248718,2.8574829-6.3823547,6.3822632-6.3823547h13.5592041c3.5248108,0,6.3823547-2.8574524,6.3823547-6.3823547
		c0-3.5248718-2.8575439-6.3823242-6.3823547-6.3823242h-2.6499939c-0.0308533,0-0.0606995-0.0041809-0.0914307-0.0046692
		h-0.3904724h-40.8892822c-3.5248718,0-6.3822632-2.8574524-6.3822632-6.3823242
		C367.6490173,361.5242004,370.5064087,358.6667175,374.0312805,358.6667175z"/>
	
		<ellipse transform="matrix(0.7071068 -0.7071068 0.7071068 0.7071068 -154.1081696 358.0526428)" class="st2" cx="355.1536865" cy="365.0513306" rx="6.3825688" ry="6.3825383"/>
	
		<ellipse transform="matrix(0.2305667 -0.9730566 0.9730566 0.2305667 27.567955 713.9033203)" class="st2" cx="465.1994934" cy="339.5198975" rx="6.3825078" ry="6.3825688"/>
	
		<ellipse transform="matrix(0.1605944 -0.9870205 0.9870205 0.1605944 33.5282097 656.2073364)" class="st2" cx="402.566925" cy="308.3914795" rx="6.3825073" ry="6.3825684"/>
	<ellipse class="st2" cx="547.3463745" cy="390.4178772" rx="6.3825684" ry="6.3825684"/>
	<circle class="st2" cx="438.8504944" cy="419.6084595" r="6.3825684"/>
</g>
<g>
	<path class="st2" d="M682.5,127.791214h-55.2671509h-16.126709h-1.388855h-38.5911255h-7.2354126
		c-3.0997314-0.2472916-5.5394287-2.835907-5.5394287-5.9992752c0-3.326683,2.6967773-6.0235519,6.0235596-6.0235519h2.5009766
		c3.3268433,0,6.0236206-2.6968689,6.0236206-6.0236359l0,0c0-3.3267593-2.6967773-6.0236282-6.0236206-6.0236282h-56.1065979
		c-3.3267517,0-6.0236206,2.6968689-6.0236206,6.0236282l0,0c0,3.326767,2.6968689,6.0236359,6.0236206,6.0236359h2.9722595
		h25.9610596c3.3267822,0,6.0236206,2.6968689,6.0236206,6.0235519v0.0000763c0,3.3267593-2.6968384,6.0236282-6.0236206,6.0236282
		h-25.9610596h-27.1571045h-2.9884949h-17.7978516c-3.3267517,0-6.0236206,2.6968689-6.0236206,6.0235596
		c0,3.3268433,2.6968689,6.0236359,6.0236206,6.0236359h55.2671814h17.515564h38.5911865
		c0.1630859,0,0.3233032-0.0116272,0.4831543-0.0243683h6.2680664c3.3267212,0,6.0236206,2.6968689,6.0236206,6.0236359
		s-2.6968994,6.0236359-6.0236206,6.0236359h-2.5009766h-23.4505005h-27.1570435h-2.9885254h-17.7978516
		c-3.3267517,0-6.0236206,2.6968689-6.0236206,6.0235596c0,3.3267517,2.6968689,6.0236969,6.0236206,6.0236969h17.24823
		c0.2016602,0.0204163,0.406189,0.0309448,0.6132202,0.0309448h2.972229h25.9611816
		c3.3267212,0,6.0236206,2.6968689,6.0236206,6.0235596v0.000061c0,3.326767-2.6968994,6.0236359-6.0236206,6.0236359h-25.9611816
		h-27.1569519h-2.9885559h-17.7978516c-3.3267517,0-6.0236511,2.6968689-6.0236511,6.0235596
		c0,3.326767,2.6968994,6.0236969,6.0236511,6.0236969h55.2671509h17.515625h38.5910645
		c3.3267212,0,6.0236206-2.6969299,6.0236206-6.0236969c0-3.3266907-2.6968994-6.0235596-6.0236206-6.0235596h-12.7970581
		c-3.3267822,0-6.0236206-2.6969452-6.0236206-6.0236969c0-3.3266907,2.6968384-6.0235596,6.0236206-6.0235596h2.5009766
		c0.2070312,0,0.4115601-0.0105286,0.6132202-0.0309448h36.7926025h16.1266479c3.3267822,0,6.0236206-2.6968689,6.0236206-6.0236206
		l0,0c0-3.326767-2.6968384-6.0236359-6.0236206-6.0236359h-2.97229h-13.1543579h-12.7971191
		c-3.3267212,0-6.0235596-2.6969452-6.0235596-6.0236359c0-3.326767,2.6968384-6.0236359,6.0235596-6.0236359h2.5010376h23.4504395
		h27.1571045h2.9884644H682.5"/>
	
		<ellipse transform="matrix(0.2400311 -0.9707652 0.9707652 0.2400311 298.3702087 744.2418823)" class="st2" cx="624.5230103" cy="181.5556335" rx="6.0238037" ry="6.0237885"/>
	<ellipse class="st2" cx="587.5866699" cy="109.7449188" rx="6.0238042" ry="6.0238042"/>
	
		<ellipse transform="matrix(0.2305667 -0.9730566 0.9730566 0.2305667 335.303009 585.1867065)" class="st2" cx="537.6768799" cy="80.5744781" rx="6.0238042" ry="6.0238347"/>
	
		<ellipse transform="matrix(0.153126 -0.9882067 0.9882067 0.153126 255.6481171 707.9041748)" class="st2" cx="540.8463135" cy="204.7957916" rx="6.0238037" ry="6.0238495"/>
	
		<ellipse transform="matrix(0.1547078 -0.9879603 0.9879603 0.1547078 259.3974609 617.8166504)" class="st2" cx="490.7444763" cy="157.3190918" rx="6.0238037" ry="6.0238495"/>
	
		<ellipse transform="matrix(0.7071068 -0.7071068 0.7071068 0.7071068 29.2367134 338.7919006)" class="st2" cx="423.576355" cy="134.1041107" rx="6.0238347" ry="6.0238194"/>
</g>
<g>
	<path class="st2" d="M0,234.1632996h44.3193474h16.1267281h1.3888092h75.1910858h7.2354431
		c3.0997314-0.2472839,5.5394287-2.835907,5.5394287-5.9992676c0-3.3266907-2.6967926-6.0235596-6.0235596-6.0235596h-2.5010071
		c-3.326828,0-6.0236206-2.6968689-6.0236206-6.0236359l0,0c0-3.3267517,2.6967926-6.0236206,6.0236206-6.0236206h70.746582
		c3.326767,0,6.0236359,2.6968689,6.0236359,6.0236206l0,0c0,3.326767-2.6968689,6.0236359-6.0236359,6.0236359h-2.9722443
		h-25.9610901c-3.3267517,0-6.0236206,2.6968689-6.0236206,6.0235596v0.0000763
		c0,3.3267517,2.6968689,6.0236206,6.0236206,6.0236206h25.9610901h27.1571045h2.9884796h17.7978516
		c3.3267822,0,6.0236206,2.6968689,6.0236206,6.0235596c0,3.3268433-2.6968384,6.0236359-6.0236206,6.0236359h-55.2671509
		h-17.5155945h-53.2311401c-0.1631012,0-0.323349-0.0116272-0.4831543-0.024353h-6.268074
		c-3.3267593,0-6.0236359,2.6968689-6.0236359,6.0236206c0,3.326767,2.6968765,6.0236206,6.0236359,6.0236206h2.5009918h23.4504471
		h41.7970734h2.9884796h17.7978516c3.326767,0,6.0236359,2.6968689,6.0236359,6.0235596
		c0,3.3267822-2.6968689,6.0237122-6.0236359,6.0237122h-17.2481842c-0.2016602,0.0204163-0.4062347,0.0309448-0.6132202,0.0309448
		H191.93013h-40.6011505c-3.3267517,0-6.0236206,2.6968689-6.0236206,6.0235596v0.000061
		c0,3.3267822,2.6968689,6.0236511,6.0236206,6.0236511h25.9611664h27.1569519h2.9885559h17.7978516
		c3.326767,0,6.0236359,2.6968689,6.0236359,6.0235596c0,3.3267517-2.6968689,6.0236816-6.0236359,6.0236816h-55.2671509
		h-17.5155945h-31.2710876c-3.3267593,0-6.0236359-2.6969299-6.0236359-6.0236816
		c0-3.3266907,2.6968765-6.0235596,6.0236359-6.0235596h5.4770432c3.3267593,0,6.0236282-2.6969604,6.0236282-6.0237122
		c0-3.3266907-2.6968689-6.0235596-6.0236282-6.0235596h-2.5009918c-0.2069931,0-0.4115677-0.0105286-0.6132202-0.0309448
		H50.1499672H34.0233154c-3.3267612,0-6.0236282-2.6968689-6.0236282-6.0236206l0,0
		c0-3.3267822,2.696867-6.0236511,6.0236282-6.0236511h2.9723206h13.1543312h12.7971039
		c3.3267632,0,6.0235558-2.6969299,6.0235558-6.0236206c0-3.3267517-2.6967926-6.0236206-6.0235558-6.0236206h-2.5009956H36.995636
		H9.8385382H6.8500547H0"/>
	
		<ellipse transform="matrix(0.7376898 -0.6751398 0.6751398 0.7376898 -114.2836609 138.0882568)" class="st2" cx="120.5654755" cy="216.1170349" rx="6.0238037" ry="6.0237885"/>
	
		<ellipse transform="matrix(0.9730566 -0.2305667 0.2305667 0.9730566 -39.803772 47.9156342)" class="st2" cx="185.1152802" cy="194.2666626" rx="6.0238347" ry="6.0237889"/>
	
		<ellipse transform="matrix(0.9882067 -0.153126 0.153126 0.9882067 -45.6748047 29.2885799)" class="st2" cx="167.3058472" cy="311.1679077" rx="6.0238495" ry="6.0238037"/>
	
		<ellipse transform="matrix(0.9879603 -0.1547078 0.1547078 0.9879603 -38.0012894 39.0743523)" class="st2" cx="232.0476685" cy="263.6911926" rx="6.0238495" ry="6.0238037"/>
	<ellipse class="st2" cx="299.2158508" cy="240.4762115" rx="6.0238347" ry="6.0238347"/>
</g>
<g>
	<path class="st3" d="M285.9814758,767.3058472h517.8297119
		c-41.4989624-60.9594727-141.7769165-103.9497681-258.9144897-103.9497681
		C427.7600403,663.3560791,327.4810486,706.3463745,285.9814758,767.3058472z"/>
	<path class="st4" d="M-121.3112335,767.3058472h748.6677856
		c-100.3242188-75.1903687-175.1220093-138.3173828-395.8466187-138.3173828S-121.3112335,767.3058472-121.3112335,767.3058472z"/>
	<g>
		<g>
			<path class="st5" d="M596.3606567,641.7196655c0-18.953186-5.3735962-40.8799438-16.3153076-40.8799438
				c-10.9398804,0-16.3131714,21.9267578-16.3131714,40.8799438c0,6.9440308,5.373291,12.5750732,16.3131714,12.5750732
				C590.9870605,654.2947388,596.3606567,648.6636963,596.3606567,641.7196655z"/>
		</g>
		<g>
			<path class="st6" d="M596.3606567,641.7196655c0-18.953186-5.3735962-40.8799438-16.3153076-40.8799438v53.4550171
				C590.9870605,654.2947388,596.3606567,648.6636963,596.3606567,641.7196655z"/>
		</g>
		<g>
			<g>
				<path class="st7" d="M580.0453491,674.0140991c-0.8334961,0-1.5095825-0.6764526-1.5095825-1.5095825v-46.7900391
					c0-0.8331909,0.6760864-1.5089722,1.5095825-1.5089722s1.5095825,0.6757812,1.5095825,1.5089722v46.7900391
					C581.5549316,673.3376465,580.8788452,674.0140991,580.0453491,674.0140991L580.0453491,674.0140991z"/>
			</g>
			<g>
				<path class="st7" d="M580.0453491,644.2965698c-0.3873901,0-0.772583-0.1480713-1.0673828-0.4428711l-6.9537354-6.9555664
					c-0.5895996-0.5895386-0.5895996-1.5444336,0-2.1347656c0.5917358-0.5895996,1.5469971-0.5895996,2.1344604,0
					l6.9541016,6.9562988c0.5895996,0.5894775,0.5895996,1.5443726,0,2.1340332
					C580.8179932,644.1484985,580.4326782,644.2965698,580.0453491,644.2965698L580.0453491,644.2965698z"/>
			</g>
			<g>
				<path class="st7" d="M580.0453491,638.2269287c-0.3873901,0-0.772583-0.1473999-1.0673828-0.4421997
					c-0.5895996-0.5895996-0.5895996-1.5452271,0-2.1348267l9.2341309-9.2333984
					c0.5895996-0.5895386,1.5444946-0.5895386,2.1340332,0c0.5899658,0.5895996,0.5899658,1.5444946,0,2.1348267
					l-9.2333374,9.2333984C580.8179932,638.0795288,580.4326782,638.2269287,580.0453491,638.2269287L580.0453491,638.2269287z"/>
			</g>
		</g>
	</g>
	<g>
		<g>
			<path class="st8" d="M328.8946533,643.6345825c0,14.8783569-12.0623474,26.9400024-26.9415588,26.9400024
				c-14.8788452,0-26.9408875-12.0616455-26.9408875-26.9400024c0-14.8771973,12.0620422-26.9407959,26.9408875-26.9407959
				C316.8323059,616.6937866,328.8946533,628.7573853,328.8946533,643.6345825z"/>
		</g>
		<g>
			<path class="st9" d="M328.8946533,643.6345825c0-14.8771973-12.0623474-26.9407959-26.9415588-26.9407959v53.8807983
				C316.8323059,670.574585,328.8946533,658.5129395,328.8946533,643.6345825z"/>
		</g>
		<g>
			<g>
				<path class="st7" d="M301.9530945,686.616394c-0.7425842,0-1.3452759-0.6022949-1.3452759-1.3449097v-37.7583618
					c0-0.7426147,0.6026917-1.3455811,1.3452759-1.3455811c0.7429504,0,1.3456421,0.6029663,1.3456421,1.3455811v37.7583618
					C303.2987366,686.0140991,302.6960449,686.616394,301.9530945,686.616394L301.9530945,686.616394z"/>
			</g>
			<g>
				<path class="st7" d="M301.9530945,662.6352539c-0.3440247,0-0.6882935-0.1313477-0.9510803-0.394104
					c-0.5255432-0.5255127-0.5255432-1.3773193,0-1.902832l5.6123962-5.6125488
					c0.5255432-0.5255127,1.3770447-0.5255127,1.9025879,0s0.5255432,1.3765869,0,1.9020996l-5.6124573,5.6132812
					C302.6417847,662.5039062,302.2974243,662.6352539,301.9530945,662.6352539L301.9530945,662.6352539z"/>
			</g>
			<g>
				<path class="st7" d="M301.9530945,657.7367554c-0.3440247,0-0.6882935-0.1314087-0.9510803-0.394165l-7.4502258-7.4487305
					c-0.5255432-0.5255127-0.5255432-1.3772583,0-1.902771c0.5255432-0.5255737,1.3769836-0.5255737,1.9025269,0
					l7.4502258,7.4493408c0.5255432,0.5255127,0.5255432,1.3766479,0,1.9021606
					C302.6417847,657.6053467,302.2974243,657.7367554,301.9530945,657.7367554L301.9530945,657.7367554z"/>
			</g>
		</g>
	</g>
	<g>
		<g>
			<path class="st10" d="M636.4863892,663.555481c0-17.0574341-4.8364868-36.7911377-14.6837769-36.7911377
				c-9.8453979,0-14.6818848,19.7337036-14.6818848,36.7911377c0,6.2496338,4.8364868,11.3174438,14.6818848,11.3174438
				C631.6499023,674.8729248,636.4863892,669.8051147,636.4863892,663.555481z"/>
		</g>
		<g>
			<path class="st11" d="M636.4863892,663.555481c0-17.0574341-4.8364868-36.7911377-14.6837769-36.7911377v48.1085815
				C631.6499023,674.8729248,636.4863892,669.8051147,636.4863892,663.555481z"/>
		</g>
		<g>
			<g>
				<path class="st7" d="M621.8026123,692.6199951c-0.7498169,0-1.3586426-0.6081543-1.3586426-1.3585815v-42.1096191
					c0-0.7504272,0.6088257-1.3585815,1.3586426-1.3585815s1.3585815,0.6081543,1.3585815,1.3585815v42.1096191
					C623.1611938,692.0118408,622.5524292,692.6199951,621.8026123,692.6199951L621.8026123,692.6199951z"/>
			</g>
			<g>
				<path class="st7" d="M621.8026123,665.8747559c-0.3486328,0-0.6953125-0.1326294-0.9606323-0.3979492l-6.2579346-6.260498
					c-0.531189-0.5306396-0.531189-1.3899536,0-1.9205933c0.5319824-0.5306396,1.3919678-0.5306396,1.9206543,0l6.2585449,6.2597656
					c0.5306396,0.5306396,0.5306396,1.390686,0,1.9213257C622.4979248,665.7421265,622.1512451,665.8747559,621.8026123,665.8747559
					L621.8026123,665.8747559z"/>
			</g>
			<g>
				<path class="st7" d="M621.8026123,660.4121704c-0.3486328,0-0.6953125-0.1326904-0.9606323-0.3979492
					c-0.5305786-0.5306396-0.5305786-1.3900146,0-1.9213257l8.3105469-8.3098755
					c0.5305786-0.5306396,1.3900146-0.5306396,1.9206543,0c0.5305786,0.5306396,0.5305786,1.390686,0,1.9213257
					l-8.3099365,8.3098755C622.4979248,660.27948,622.1512451,660.4121704,621.8026123,660.4121704L621.8026123,660.4121704z"/>
			</g>
		</g>
	</g>
	<g>
		<g>
			
				<ellipse transform="matrix(0.7071068 -0.7071068 0.7071068 0.7071068 -348.8275757 280.554718)" class="st12" cx="164.245697" cy="561.3494873" rx="51.4888191" ry="51.4888382"/>
		</g>
		<g>
			<path class="st8" d="M215.7344971,561.3494873c0-28.4364014-23.0516205-51.4889221-51.4888153-51.4889221v102.9777527
				C192.6828766,612.8383179,215.7344971,589.7866211,215.7344971,561.3494873z"/>
		</g>
		<g>
			<g>
				<path class="st7" d="M164.2456818,642.6781006c-0.968811,0-1.7554169-0.7857666-1.7554169-1.7545776v-72.1615601
					c0-0.9695435,0.7866058-1.7554321,1.7554169-1.7554321c0.9695892,0,1.7554321,0.7858887,1.7554321,1.7554321v72.1615601
					C166.0011139,641.892334,165.215271,642.6781006,164.2456818,642.6781006L164.2456818,642.6781006z"/>
			</g>
			<g>
				<path class="st7" d="M164.2456818,596.8464355c-0.4504852,0-0.897583-0.1713257-1.2404022-0.5141602
					c-0.6856079-0.6856689-0.6856079-1.796875,0-2.4824829l10.7255249-10.7255249
					c0.6856079-0.6856079,1.7967987-0.6856079,2.4824066,0c0.6856232,0.6856079,0.6856232,1.7960205,0,2.4816284
					l-10.7263641,10.7263794C165.144043,596.6751099,164.6960907,596.8464355,164.2456818,596.8464355L164.2456818,596.8464355z"/>
			</g>
			<g>
				<path class="st7" d="M164.2456818,587.4846802c-0.4504852,0-0.897583-0.1713257-1.2404022-0.5141602l-14.2397461-14.2388916
					c-0.6856232-0.6856689-0.6856232-1.7960205,0-2.4824219c0.6864624-0.6856079,1.7968903-0.6856079,2.4824982,0
					l14.2388153,14.2396851c0.6856232,0.6856079,0.6856232,1.7960205,0,2.4816284
					C165.144043,587.3133545,164.6960907,587.4846802,164.2456818,587.4846802L164.2456818,587.4846802z"/>
			</g>
		</g>
	</g>
	<path class="st10" d="M2.655179,682.4365234l129.288208-3.477478h103.7931366c4.9183807,0,8.9050751,3.986145,8.9050751,8.9058838
		c0,4.9154053-3.9866943,8.9026489-8.9050751,8.9026489h-37.4993591c-4.9181061,0-8.9042511,3.986084-8.9042511,8.9026489
		c0,4.9186401,3.986145,8.9058838,8.9042511,8.9058838h78.8408356c4.9173279,0,8.9034729,3.986084,8.9034729,8.9025879
		c0,4.9181519-3.986145,8.9058838-8.9034729,8.9058838H224.03685c-4.9167786,0-8.9034271,3.986145-8.9034271,8.9042358
		c0,4.9154663,3.9866486,8.90271,8.9034271,8.90271h11.6996765c4.9183807,0,8.9050751,3.9877319,8.9050751,8.9031372
		c0,4.9191895-3.9866943,8.9053345-8.9050751,8.9053345h-357.04776L2.655179,682.4365234z M263.0184937,696.7675781
		c4.9173279,0,8.9042664-3.9872437,8.9042664-8.9042358c0-4.9181519-3.9869385-8.9058838-8.9042664-8.9058838
		c-4.9172668,0-8.9042358,3.9877319-8.9042358,8.9058838C254.1142578,692.7803345,258.1012268,696.7675781,263.0184937,696.7675781z
		"/>
</g>
<rect class="st13" width="682.5" height="768"/>
</svg>
