<?xml version="1.0" encoding="utf-8"?>
<!-- Generator: Adobe Illustrator 25.2.3, SVG Export Plug-In . SVG Version: 6.00 Build 0)  -->
<svg version="1.1" id="Layer_1" xmlns="http://www.w3.org/2000/svg" xmlns:xlink="http://www.w3.org/1999/xlink" x="0px" y="0px"
	 viewBox="0 0 359.587616 69.7170029" style="enable-background:new 0 0 359.587616 69.7170029;" xml:space="preserve">
<style type="text/css">
	.st0{fill:#0C322C;}
	.st1{fill:#30BA78;}
</style>
<g id="Layer_1_1_">
	<g>
		<path class="st0" d="M293.1996155,39.4970016h-0.0429993c-1.3309937,0-2.4119873,1.0790024-2.4119873,2.4120026v10.2179947
			h-14.7050171V41.9090042c0-1.3310013-1.0769958-2.4120026-2.4100037-2.4120026
			c-1.3320007,0-2.4119873,1.0790024-2.4119873,2.4120026v24.9440002c0,1.3299942,1.0780029,2.4119949,2.4119873,2.4119949
			c1.3310242,0,2.4100037-1.0799942,2.4100037-2.4119949V56.276001h14.7050171v10.5770035
			c0,1.3299942,1.0759888,2.4119949,2.4119873,2.4119949h0.0429993c1.3320007,0,2.4140015-1.0799942,2.4140015-2.4119949V41.9090042
			C295.6136169,40.5780029,294.5316162,39.4970016,293.1996155,39.4970016 M262.2336121,63.9810028
			c0.7789917-1.288002,0.1170044-2.9710007-1.3119812-3.4489975c-1.1010132-0.3680038-2.2970276,0.1179962-2.8500061,1.1379929
			c-0.5360107,0.9850006-1.2210083,1.7860031-2.0620117,2.4029999c-1.3049774,0.9640045-2.9249725,1.4430008-4.8489838,1.4430008
			c-2.8280029,0-5.0360107-0.9779968-6.6300049-2.9309998c-1.59198-1.9539948-2.3889771-4.6919937-2.3889771-8.2099991
			c0-3.4909973,0.8339844-6.2179947,2.5029907-8.1879959c1.67099-1.9670029,3.9039917-2.9530029,6.6990051-2.9530029
			c1.8359985,0,3.322998,0.4120026,4.46698,1.2409973c0.6829987,0.4940033,1.2700043,1.1620026,1.7620087,1.9990005
			c0.6109924,1.0410004,1.9359741,1.4190063,3.039978,0.927002l0.0859985-0.0360031
			c1.348999-0.6049957,1.8370056-2.2869949,1.0079956-3.510994c-0.8249817-1.2120056-1.8659973-2.2020035-3.1239929-2.965004
			c-2.0299988-1.2330017-4.5329742-1.8499985-7.5089874-1.8499985c-2.8299866,0-5.2989807,0.6169968-7.401001,1.8499985
			c-2.1049805,1.2360001-3.7279968,3.0080032-4.8719788,5.3240051c-1.1410217,2.3159943-1.7130127,5.0369949-1.7130127,8.1649933
			c0,3.128006,0.571991,5.8490067,1.7130127,8.163002c1.1439819,2.3180008,2.7669983,4.0930023,4.8719788,5.3250046
			c2.1070251,1.2360001,4.5859985,1.8509979,7.4440002,1.8509979c2.9470215,0,5.5110016-0.7200012,7.6920013-2.163002
			C260.2156067,66.6200027,261.3556213,65.4319992,262.2336121,63.9810028 M224.2076263,69.2669983
			c1.9980164,0,3.6190186-1.6189957,3.6190186-3.621994V41.7210007c0-1.2279968-0.9950256-2.223999-2.2250061-2.223999
			c-1.2350006,0-2.2320099,1.0049973-2.2230072,2.2399979l0.1110077,20.3820038
			c0,0.4550018-0.6000061,0.6230011-0.8330078,0.2309952l-12.4980011-21.0779953
			c-0.6499939-1.1009979-1.8359985-1.7750015-3.1119995-1.7750015c-2.0039978,0-3.625,1.6230011-3.625,3.6230011v23.9369965
			c0,1.2229996,0.9909973,2.2099991,2.2120056,2.2099991c1.2200012,0,2.2099915-0.9869995,2.2099915-2.2099991
			l-0.1649933-20.4059982c-0.0059967-0.4580002,0.5970001-0.6230011,0.8309937-0.2330017l12.5390015,21.0740051
			c0.651001,1.1009979,1.8359985,1.7749939,3.1130066,1.7749939H224.2076263 M187.4366302,57.5400009l-4.4799957-12.6449966
			c-0.1410065-0.4000015-0.7050018-0.3970032-0.8419952,0.0019989l-4.3710022,12.6429977H187.4366302z M188.8826294,61.465004
			h-12.5399933l-2.3140106,6.3479996c-0.3169861,0.8740005-1.1499939,1.4539948-2.0769958,1.4539948h-0.2200012
			c-1.5449982,0-2.6149902-1.5439987-2.0690002-2.9899979l9.0820007-24.0800018
			c0.6119995-1.6240005,2.1690063-2.6999969,3.9069977-2.6999969c1.7369995,0,3.2920074,1.0759964,3.9049988,2.6999969
			l9.0820007,24.0800018c0.5460052,1.4459991-0.522995,2.9899979-2.0690002,2.9899979h-0.344986
			c-0.9320068,0-1.7650146-0.5859985-2.0810089-1.4649963L188.8826294,61.465004z M341.8166199,53.3460007h6.9450073
			c1.9559937,0,3.4129944-0.4000015,4.3759766-1.1969986c0.9630127-0.7969971,1.4440002-2.0220032,1.4440002-3.6760025
			c0-1.6529999-0.4809875-2.8799973-1.4440002-3.6749954c-0.9629822-0.7990036-2.4199829-1.1949997-4.3759766-1.1949997h-5.0480042
			c-1.0480042,0-1.8970032,0.8499985-1.8970032,1.8969955V53.3460007z M348.2196045,57.3600006h-6.4029846v9.5859985
			c0,1.2830048-1.0400085,2.3209991-2.322998,2.3209991h-0.1390076c-1.2819824,0-2.3209839-1.0379944-2.3209839-2.3209991
			V45.7490005c0-3.4519958,2.7999878-6.2519989,6.2529907-6.2519989h5.8819885c3.2189941,0,5.7590027,0.7890015,7.6230164,2.3669968
			c1.8649902,1.5780029,2.79599,3.7649994,2.79599,6.5610046c0,2.137001-0.5499878,3.9179993-1.6430054,5.3460007
			c-1.0979919,1.4300003-2.6539917,2.4430008-4.6690063,3.0439987l5.7450256,8.8639984
			c1.0049744,1.5439987-0.105011,3.5859985-1.9460144,3.5859985c-0.7949829,0-1.5360107-0.4049988-1.9620056-1.0759964
			L348.2196045,57.3600006z M145.120636,53.3460007h6.9459991c1.9530029,0,3.4120026-0.4000015,4.375-1.1969986
			s1.4429932-2.0220032,1.4429932-3.6760025c0-1.6529999-0.4799957-2.8799973-1.4429932-3.6749954
			c-0.9629974-0.7990036-2.4219971-1.1949997-4.375-1.1949997h-5.048996c-1.0470123,0-1.8970032,0.8499985-1.8970032,1.8969955
			V53.3460007z M151.5246277,57.3600006h-6.4039917v9.5859985c0,1.2830048-1.0400085,2.3209991-2.322998,2.3209991h-0.1370087
			c-1.2839966,0-2.322998-1.0379944-2.322998-2.3209991V45.7490005c0-3.4519958,2.798996-6.2519989,6.2539978-6.2519989h5.8809967
			c3.2180023,0,5.7590027,0.7890015,7.6240082,2.3669968c1.8639984,1.5780029,2.7960052,3.7649994,2.7960052,6.5610046
			c0,2.137001-0.5510101,3.9179993-1.6440125,5.3460007c-1.0979919,1.4300003-2.6549988,2.4430008-4.67099,3.0439987
			l5.7480011,8.8639984c1.0019989,1.5439987-0.1060028,3.5859985-1.9470062,3.5859985
			c-0.7949982,0-1.5350037-0.4049988-1.9609985-1.0759964L151.5246277,57.3600006z M326.107605,65.1100006h-13.5559998
			c-1.0449829,0-1.8939819-0.8519974-1.8939819-1.8969955v-6.8480072h13.0799866c1.125,0,2.0360107-0.9119949,2.0360107-2.0339966
			c0-1.1269989-0.9110107-2.0400009-2.0360107-2.0400009h-13.0799866v-6.737999c0-1.0479965,0.848999-1.8980026,1.8939819-1.8980026
			h13.5559998c1.1790161,0,2.1370239-0.9549942,2.1370239-2.1339951s-0.9580078-2.1360016-2.1370239-2.1360016h-13.5559998
			c-3.3999939,0-6.1689758,2.7659988-6.1689758,6.1699982v17.6610031c0,3.401001,2.7689819,6.1699982,6.1689758,6.1699982
			h13.5559998c1.1790161,0,2.1370239-0.9560013,2.1370239-2.137001
			C328.2446289,66.0650024,327.2866211,65.1100006,326.107605,65.1100006 M259.463623,26.1109982h-13.5559845
			c-1.0440063,0-1.8959961-0.848999-1.8959961-1.8949966v-6.8480034h13.082962c1.1240234,0,2.0370178-0.9119987,2.0370178-2.0369987
			s-0.9129944-2.0359993-2.0370178-2.0359993h-13.082962V6.5559978c0-1.0469971,0.8519897-1.8969994,1.8959961-1.8969994h13.5559845
			c1.1799927,0,2.1380005-0.9569969,2.1380005-2.1369972c0-1.1800022-0.9580078-2.1360016-2.1380005-2.1360016h-13.5559845
			c-3.3999939,0-6.1679993,2.7659988-6.1679993,6.1699982v17.6600037c0,3.3999977,2.7680054,6.1689987,6.1679993,6.1689987
			h13.5559845c1.1799927,0,2.1380005-0.9570007,2.1380005-2.137001S260.6436157,26.1109982,259.463623,26.1109982
			 M219.6026306,13.3500004c-2.8650055-0.5139999-4.8580017-1.1240005-5.973999-1.8320007
			c-1.1159973-0.7089996-1.6750031-1.6669998-1.6750031-2.8740005c0-1.2970009,0.572998-2.3600006,1.7200012-3.1899986
			c1.1470032-0.8300018,2.7600098-1.2449989,4.8440094-1.2449989c2.1100006,0,3.8009949,0.4069977,5.0690002,1.2229996
			c0.6809998,0.4379997,1.3029938,1.0209999,1.8629913,1.75c0.8259888,1.0699997,2.3840027,1.2109985,3.3890076,0.3069992
			c0.9459839-0.8540001,1.0289917-2.3180008,0.178009-3.2680016c-1.0280151-1.1479988-2.1980286-2.0569992-3.5090179-2.7269993
			C223.5626373,0.4979992,221.216629,0,218.4726257,0c-2.3549957,0-4.4139862,0.407999-6.1769867,1.2220001
			c-1.7649994,0.8149986-3.1180115,1.9159985-4.0510101,3.3039989c-0.9369965,1.387001-1.4039917,2.9260025-1.4039917,4.6160011
			c0,1.598999,0.3679962,2.9570007,1.1100006,4.072998c0.7369995,1.1160011,1.9229889,2.052002,3.5509949,2.8050003
			c1.6289978,0.7550011,3.8159943,1.3889999,6.5630035,1.901001c2.7460022,0.5139999,4.6669922,1.1010017,5.7689972,1.7639999
			c1.102005,0.6650009,1.6539917,1.5390015,1.6539917,2.625c0,1.3590012-0.6119995,2.4070015-1.8359985,3.1450005
			c-1.2189941,0.7410011-2.9019928,1.1090012-5.0429993,1.1090012c-2.2639923,0-4.1569977-0.4210014-5.6809998-1.2660027
			c-0.8699951-0.4829979-1.6490021-1.1240005-2.3399963-1.9199982c-0.8679962-1.0089989-2.4250031-1.031002-3.3639984-0.0909996
			l-0.0090027,0.0079994c-0.8600006,0.8600006-0.9259949,2.2509995-0.1139984,3.1559982
			c2.5820007,2.882,6.4329987,4.3220024,11.552002,4.3220024c2.3529968,0,4.427002-0.3540001,6.2229919-1.0629997
			c1.7950134-0.7080002,3.1889954-1.7270012,4.1849976-3.0550003c0.9970093-1.3279991,1.4940186-2.8670006,1.4940186-4.6160011
			c0-1.6290016-0.3619995-2.993-1.0859985-4.0950012c-0.7250061-1.1009979-1.8770142-2.0209999-3.4620056-2.7609978
			C224.4236298,14.4439983,222.2876282,13.8329983,219.6026306,13.3500004 M152.771637,13.3599987
			c-2.8650055-0.5159988-4.8580017-1.1240005-5.973999-1.8330002c-1.1160126-0.7109985-1.6740112-1.6669998-1.6740112-2.875
			c0-1.2959976,0.5740051-2.3600006,1.7190094-3.1909981c1.1470032-0.8279991,2.7619934-1.243,4.8439941-1.243
			c2.1100006,0,3.8000031,0.4059982,5.0680084,1.2210007c0.6829987,0.4389992,1.3040009,1.0219994,1.8639984,1.7529984
			c0.8249969,1.0690002,2.3840027,1.2089996,3.3899994,0.3059998c0.9459991-0.8549995,1.0279999-2.3180008,0.177002-3.269001
			c-1.0279999-1.1469994-2.1990051-2.0569992-3.5080109-2.7269993c-1.9459991-0.9959984-4.2929993-1.493-7.0369873-1.493
			c-2.3530121,0-4.4120026,0.4070015-6.1760101,1.2220001c-1.7659912,0.8140011-3.1170044,1.9160023-4.052002,3.3029995
			c-0.9349976,1.3880005-1.4019928,2.927002-1.4019928,4.6170006c0,1.5979996,0.3679962,2.9570007,1.1080017,4.0720024
			c0.7399902,1.1169968,1.9250031,2.0519981,3.5529938,2.8059998c1.6289978,0.7539978,3.8159943,1.3879967,6.5619965,1.9009972
			c2.7450104,0.5130005,4.6679993,1.1010017,5.7700043,1.7649994c1.1000061,0.663002,1.6520081,1.538002,1.6520081,2.6240005
			c0,1.3580017-0.6119995,2.4070015-1.8330078,3.1450005c-1.2220001,0.7400017-2.9039917,1.1090012-5.0449982,1.1090012
			c-2.2640076,0-4.1569977-0.4210014-5.6809998-1.2670021c-0.8699951-0.4819984-1.6490021-1.1239967-2.3379974-1.9209976
			c-0.8679962-1.007-2.427002-1.0299988-3.3670044-0.0900002l-0.0079956,0.0089989
			c-0.8600006,0.8590012-0.9250031,2.2509995-0.1139984,3.156002c2.5820007,2.882,6.4329987,4.3219986,11.5529938,4.3219986
			c2.352005,0,4.4259949-0.3549995,6.2210083-1.0639992c1.79599-0.7080002,3.1899872-1.7270012,4.1869965-3.0540009
			c0.9960022-1.3269997,1.4929962-2.8670006,1.4929962-4.6160011c0-1.6289978-0.3619995-2.993-1.0870056-4.0949974
			c-0.723999-1.1020012-1.8759918-2.0220032-3.4619904-2.7610016
			C157.591629,14.4520016,155.4566345,13.8410015,152.771637,13.3599987 M197.344635,2.4439983v16.4290009
			c0,3.9210014-1.0420074,6.8850021-3.1210022,8.8909988c-2.0839996,2.007-5.1150055,3.0090027-9.0970001,3.0090027
			c-3.9839935,0-7.0160065-1.0020027-9.0970001-3.0090027c-2.0809937-2.0059967-3.121994-4.9699974-3.121994-8.8909988V2.4439983
			C172.9076385,1.0949993,174.0016327,0,175.3506317,0c1.3480072,0,2.4450073,1.0949993,2.4450073,2.4439983V18.282999
			c0,2.8370018,0.5939941,4.9249992,1.7869873,6.269001c1.1920013,1.3409996,3.0390015,2.012001,5.5440063,2.012001
			s4.3509979-0.6710014,5.5429993-2.012001c1.1909943-1.3440018,1.7870026-3.4319992,1.7870026-6.269001V2.4439983
			C192.4566345,1.0949993,193.5516357,0,194.9016266,0C196.2496338,0,197.344635,1.0949993,197.344635,2.4439983"/>
		<path class="st1" d="M104.0006256,16.8679981H77.8146362c-0.1610031,0-0.3240051,0-0.4309998,0.0550003v-1.2360001
			c0-2.5830002-0.6450043-4.7319984-1.4500046-4.7319984s-1.7740021,2.098999-2.2040024,4.6759987l-1.3449936,8.012001
			c-0.4300003,2.5830002,1.3449936,4.6809998,3.9799957,4.6809998h7.8509979c0.8059998,0,1.5600052-0.1090012,2.2570038-0.3240013
			c-0.2689972,1.3450012-1.3970032,2.3670006-2.8470001,2.3670006H72.6026306c-1.776001,0-3.1209946-1.6149979-2.8509979-3.3849983
			l1.1269989-6.7229996c0.2690048-1.7740021-1.0749969-3.3880005-2.8470001-3.3880005H13.072629
			c-1.1819992,0-2.1499977,0.7010002-2.6339989,1.718998L0.114631,34.348999
			c-0.1610012,0.2690048-0.1610012,0.5910034,0.0549984,0.8580017l1.9890022,2.3659973
			c0.2699966,0.3240051,0.6989975,0.3240051,1.0199966,0.1070023l7.0470009-5.5370026v33.6600037
			c0,1.6149979,1.2890015,2.9059982,2.901001,2.9059982h15.5940027c1.6139984,0,2.9029999-1.2910004,2.9029999-2.9059982v-11.723999
			c0-1.6149979,1.2909946-2.9020004,2.9049969-2.9020004h38.9330025c1.612999,0,2.9049988,1.2870026,2.9049988,2.9020004v11.723999
			c0,1.6149979,1.288002,2.9059982,2.9000015,2.9059982h15.5950012c1.6139984,0,2.9029999-1.2910004,2.9029999-2.9059982V53.2190018
			h-8.2809982c-2.5810013,0-4.7300034-2.1520004-4.7300034-4.7310028v-8.1230011
			c0-1.5549927,0.7529984-2.9009933,1.8820038-3.7629929v9.6769943c0,2.5820007,2.151001,4.7330017,4.7299957,4.7330017h12.7449951
			c2.5820007,0,4.730011-2.151001,4.730011-4.7330017V21.6540012
			C108.7336273,18.9660015,106.6386261,16.8679981,104.0006256,16.8679981 M122.8776398,23.6429996
			c0.4279938,2.5289993-1.3420105,4.6230011-3.927002,4.6230011h-7.9029999H110.61763V22.513998h0.4300079h2.0970001
			c2.5820007,0,4.7309875-2.1499977,4.7309875-4.7329979v-2.0940018c0-2.5809975,0.6440125-4.7329979,1.451004-4.7329979
			c0.75,0,1.776001,2.0999985,2.2060089,4.6769981L122.8776398,23.6429996"/>
	</g>
</g>
</svg>
