<?xml version="1.0" encoding="utf-8"?>
<!-- Generator: Adobe Illustrator 24.3.0, SVG Export Plug-In . SVG Version: 6.00 Build 0)  -->
<svg version="1.1" id="Layer_1" xmlns="http://www.w3.org/2000/svg" xmlns:xlink="http://www.w3.org/1999/xlink" x="0px" y="0px"
	 viewBox="0 0 50 50" style="enable-background:new 0 0 50 50;" xml:space="preserve">
<style type="text/css">
	.st0{fill:#F8982A;}
	.st1{fill:#FFFFFF;}
</style>
<g>
	<path class="st0" d="M42.2,2.5C31-0.8,19-0.8,7.7,2.5C5.3,3.4,3.4,5.3,2.5,7.8C-0.9,19-0.9,31,2.5,42.2c0.9,2.4,2.8,4.3,5.2,5.2
		c11.2,3.4,23.2,3.4,34.5,0c2.4-0.9,4.3-2.8,5.2-5.2c3.4-11.2,3.4-23.2,0-34.5C46.6,5.4,44.7,3.4,42.2,2.5z"/>
	<path class="st1" d="M40.8,20.5c-3.8,0-8.4,4.6-8.4,4.6s4.3,4.6,8.4,4.6c2.5,0,4.6-2.1,4.6-4.6S43.3,20.5,40.8,20.5L40.8,20.5z"/>
	<path class="st1" d="M29.3,30.8c-0.5,0.2-1.1,2.2-1.2,4.6c-0.7,0.2-7.3,2.3-7.3-0.5c0-3.6,11.5-7.1,7.1-12.4
		C23.3,17,20.4,27,13,21.6l0,0c-1.9-1.9-5-1.9-6.9,0s-1.9,5,0,6.9s5,1.9,6.9,0c0.3-0.3,0.5-0.5,0.7-0.8c3.2-2.3,6.9-2.9,7.9-0.7
		c1.5,3.7-13.5,7.2-8.8,13.7s13.5-5.1,15.4-3.3l0,0c0.1,1.2,0.5,2.4,1,3.4c1.2,2.4,4.2,3.3,6.5,2.1c2.4-1.2,3.3-4.2,2.1-6.5
		C35.9,32.8,30.2,30.3,29.3,30.8z"/>
	<path class="st1" d="M17,16.3h0.3c3.8-0.2,4.3-3.5,7.9-3.5s3.3,3.4,7.3,3.5h0.3c2.7,0,4.9-2.2,4.9-4.9s-2.2-4.9-4.9-4.9h-0.3
		c-0.7,0-1.3,0.2-1.9,0.5c-2.2,1-3.7,3.2-5.3,3.2S21.5,8,19.1,7c-2.4-1.2-5.4-0.2-6.6,2.2c-1.2,2.4-0.2,5.4,2.2,6.6
		C15.5,16.2,16.2,16.3,17,16.3z"/>
</g>
</svg>
