<?xml version="1.0" encoding="utf-8"?>
<!-- Generator: Adobe Illustrator 24.3.0, SVG Export Plug-In . SVG Version: 6.00 Build 0)  -->
<svg version="1.1" id="Layer_1" xmlns="http://www.w3.org/2000/svg" xmlns:xlink="http://www.w3.org/1999/xlink" x="0px" y="0px"
	 viewBox="0 0 41.4 50" style="enable-background:new 0 0 41.4 50;" xml:space="preserve">
<style type="text/css">
	.st0{fill:#F58536;}
	.st1{fill:#9D5025;}
</style>
<g id="Layer_1-2">
	<polygon class="st0" points="6.9,39.6 2.1,40.6 2.1,9.3 6.9,10.4 	"/>
	<polygon class="st0" points="13,41.4 6.9,43.1 6.9,6.9 13,8.6 	"/>
	<polygon class="st0" points="20.7,43.3 13,46.1 13,3.9 20.7,6.7 	"/>
	<polygon class="st0" points="41.4,39.6 20.7,50 20.7,0 41.4,10.4 	"/>
	<polygon class="st1" points="16.6,2.1 20.7,0 20.7,50 16.6,47.9 	"/>
	<polygon class="st1" points="9.8,5.5 13,3.9 13,46.1 9.8,44.5 	"/>
	<polygon class="st1" points="4.4,8.2 6.9,6.9 6.9,43.1 4.4,41.8 	"/>
	<polygon class="st1" points="2.1,9.3 0,10.4 0,39.6 2.1,40.7 	"/>
</g>
</svg>
