<?xml version="1.0" encoding="utf-8"?>
<!-- Generator: Adobe Illustrator 24.3.0, SVG Export Plug-In . SVG Version: 6.00 Build 0)  -->
<svg version="1.1" id="Layer_1" xmlns="http://www.w3.org/2000/svg" xmlns:xlink="http://www.w3.org/1999/xlink" x="0px" y="0px"
	 viewBox="0 0 50.1 50" style="enable-background:new 0 0 50.1 50;" xml:space="preserve">
<style type="text/css">
	.st0{fill:#0080FF;}
</style>
<g id="_Group_">
	<g id="_Group_2">
		<g id="_Group_3">
			<g id="_Group_4">
				<g id="_Group_5">
					<path id="_Path_" class="st0" d="M25,50v-9.7c8.5,0,15.4-6.9,15.3-15.4c0-1.9-0.4-3.8-1.1-5.6c-1.5-4-4.6-7.2-8.6-8.6
						c-7.9-3.1-16.8,0.8-19.9,8.8c-0.7,1.8-1,3.7-1,5.6H0C0,11.2,11.3,0,25.1,0c2.7,0,5.3,0.4,7.9,1.3c7.5,2.4,13.4,8.3,15.8,15.8
						c4.4,13.1-2.8,27.3-15.9,31.7C30.3,49.6,27.6,50,25,50z"/>
				</g>
				<polygon id="_Path_2" class="st0" points="25,40.4 15.3,40.4 15.3,30.7 15.3,30.7 25,30.7 25,30.7 				"/>
				<polygon id="_Path_3" class="st0" points="15.3,47.8 7.9,47.8 7.9,47.8 7.9,40.4 15.3,40.4 				"/>
				<path id="_Path_4" class="st0" d="M7.9,40.4H1.7v-6.2h6.2V40.4L7.9,40.4z"/>
			</g>
		</g>
	</g>
</g>
</svg>
