<?xml version="1.0" encoding="utf-8"?>
<!-- Generator: Adobe Illustrator 24.3.0, SVG Export Plug-In . SVG Version: 6.00 Build 0)  -->
<svg version="1.1" id="Layer_1" xmlns="http://www.w3.org/2000/svg" xmlns:xlink="http://www.w3.org/1999/xlink" x="0px" y="0px"
	 viewBox="0 0 56.2 50" style="enable-background:new 0 0 56.2 50;" xml:space="preserve">
<style type="text/css">
	.st0{fill:#4489F2;}
	.st1{fill:#407FDD;}
	.st2{fill:#FFFFFF;}
</style>
<g>
	<path class="st0" d="M16.4,18.6l11.7-6.8l10.8,6.3L53,32l2.7-4.8c0.7-1.4,0.7-2.9,0-4.3L43.9,2.1c-0.8-1.2-2.1-2-3.7-2.1h-24
		c-1.5,0.1-2.8,0.9-3.7,2.1l-12,20.8c-0.7,1.4-0.7,2.9,0,4.3l11.9,20.7c0.8,1.2,2.1,2,3.7,2.1h18.6L16.4,31.8V18.6z"/>
	<path class="st1" d="M43.9,47.9L53,32L39,18l-10.8-6.3l-11.7,6.8v13.2L34.7,50h5.4C41.6,49.9,43,49.1,43.9,47.9z"/>
	<path class="st2" d="M38.8,17.9l-9.5-5.5c-0.7-0.5-1.6-0.5-2.3,0l-9.5,5.5c-0.7,0.5-1.1,1.1-1.1,1.9v11c0,0.8,0.5,1.6,1.1,1.9
		l9.5,5.5c0.7,0.5,1.6,0.5,2.3,0l9.5-5.5c0.7-0.5,1.1-1.1,1.1-1.9V19.9C39.9,19,39.5,18.4,38.8,17.9z M28.1,36.3L19,31l3.5-2.1
		l5.2,2.7v-5.9l-5.6-3v5.2L18.7,30V19.8l9-5.2V19l-5.2,2.8l5.6,3.2l5.6-3.2l-5-2.8v-4.4l9,5.2V30l-3.5-2.1v-5.1l-5.6,2.9v5.9
		l5.2-2.7l3.5,2.1L28.1,36.3z"/>
</g>
</svg>
