<?xml version="1.0" encoding="utf-8"?>
<!-- Generator: Adobe Illustrator 24.3.0, SVG Export Plug-In . SVG Version: 6.00 Build 0)  -->
<svg version="1.1" id="Layer_1" xmlns="http://www.w3.org/2000/svg" xmlns:xlink="http://www.w3.org/1999/xlink" x="0px" y="0px"
	 viewBox="0 0 60.5 72.5" style="enable-background:new 0 0 60.5 72.5;" xml:space="preserve">
<style type="text/css">
	.st0{fill:#123D10;}
	.st1{fill:#33B652;}
	.st2{fill:#231F20;}
</style>
<desc>The Linode Logo consists of the 5 shaded green cubes arranged in the shape of the letter &quot;L&quot;.</desc>
<g id="g12" transform="matrix(0.08, 0, 0, 0.08, 46.629513, 27.603458)">
	<path id="path34" class="st0" d="M-394,62.6L-394,62.6l-34.4-234.9l-141.2-87.8l45.9,221.5L-394,62.6z M-450.9,312.9l24.5,118.5
		l102.3,108.5l-17.5-119.5L-450.9,312.9z M-172,221.7l0.4,9.3c0.1,1.9-0.8,3.7-2.4,4.7l-39.4,26.6l42.9,35c0,0,0.1,0.1,0.1,0.1
		c0.1,0.1,0.2,0.2,0.3,0.3c0.2,0.2,0.4,0.4,0.6,0.7c0.1,0.1,0.2,0.3,0.3,0.4c0.1,0.2,0.3,0.5,0.4,0.8c0.1,0.2,0.1,0.3,0.2,0.5
		c0.1,0.3,0.1,0.6,0.2,0.9c0,0.1,0.1,0.2,0.1,0.3l1.8,40.9l48.1,40.5l-1-121.1L-172,221.7z M-55.2,62l-1.1,52.8l72.8,48.1
		c0.2,0.1,0.4,0.3,0.6,0.5c0.1,0.1,0.2,0.2,0.3,0.3c0.7,0.7,1.1,1.5,1.4,2.5c0,0.1,0,0.3,0.1,0.4c0,0.2,0.1,0.5,0.1,0.7
		c0,0.1,0,0.2,0,0.2c0,0.1,0,0.1,0,0.2L15.4,228l33.9,23.6l10.2-118.1L-55.2,62z M-354.7,331.1l-114.9-108.2l-33.2-160.6
		l123.9,103.2L-354.7,331.1"/>
	<path id="path36" class="st1" d="M-193.6-31.4l-9.5-223l0,0l-214.2,82.3l0,0l0,0l35,238.9L-193.6-31.4z M-182.5,228.4l-7-164.4l0,0
		l-178.4,101.5l25,170.9L-182.5,228.4z M-178.9,311.8l-151.7,108.5h0l0,0l18.4,125.8h0l138.6-110.4L-178.9,311.8z M-108.8,261.6
		l1,121.6L0.3,297l7.2-118.6L-108.8,261.6z M160.8,68.7l-15.2,112.5l-85.3,68l10-115.7L160.8,68.7"/>
	<path id="path38" class="st2" d="M145.6,181.2l-85.3,68l10-115.7l90.5-64.7L145.6,181.2z M49.2,251.5L15.4,228l3.7-60.2
		c0-0.1,0-0.1,0-0.2c0-0.1,0-0.2,0-0.2c0-0.3-0.1-0.5-0.1-0.7c0-0.1,0-0.3-0.1-0.4c-0.2-0.9-0.7-1.8-1.4-2.5
		c-0.1-0.1-0.2-0.2-0.3-0.3c-0.2-0.2-0.4-0.4-0.6-0.5l-72.8-48.1l1.1-52.8l114.6,71.4L49.2,251.5z M0.3,297l-108.1,86.2l-1-121.6
		L7.5,178.4L0.3,297z M-166.8,342.2l-1.8-40.9c0-0.1,0-0.2-0.1-0.3c0-0.3-0.1-0.6-0.2-0.9c0-0.2-0.1-0.3-0.2-0.5
		c-0.1-0.3-0.2-0.5-0.4-0.8c-0.1-0.1-0.2-0.3-0.3-0.4c-0.2-0.2-0.4-0.5-0.6-0.7c-0.1-0.1-0.2-0.2-0.3-0.3c0,0-0.1-0.1-0.1-0.1
		l-42.9-35l39.4-26.6c1.6-1.1,2.5-2.9,2.4-4.7l-0.4-9.3l52.3,39.9l1,121.1L-166.8,342.2z M-312.2,546.1L-312.2,546.1l-18.4-125.8
		l0,0h0l151.7-108.5l5.3,123.9L-312.2,546.1z M-426.4,431.4l-24.5-118.5l109.3,107.5l17.5,119.5L-426.4,431.4z M-469.5,222.9
		l-33.2-160.6l123.9,103.2l24.2,165.6L-469.5,222.9z M-523.7-38.6l-45.9-221.5l141.2,87.8L-394,62.6h0L-523.7-38.6z M-417.3-172.1
		l214.2-82.3l0,0l9.5,223l-188.7,98.2L-417.3-172.1C-417.3-172.1-417.3-172.1-417.3-172.1z M-189.6,64L-189.6,64l7,164.4l-160.4,108
		l-25-170.9L-189.6,64z M173.3,56.7c0-0.1,0-0.2-0.1-0.3c0-0.2-0.1-0.4-0.1-0.6c-0.1-0.3-0.2-0.6-0.3-0.8c-0.1-0.2-0.2-0.4-0.2-0.5
		c-0.1-0.3-0.3-0.5-0.5-0.8c-0.1-0.1-0.2-0.3-0.4-0.4c-0.2-0.2-0.5-0.4-0.8-0.6c-0.1-0.1-0.2-0.2-0.3-0.2c0,0-0.1,0-0.1,0
		c0,0-0.1,0-0.1-0.1L46.7-16.3c-1.7-0.9-3.8-0.9-5.5,0.1L-63.2,47.7c-0.2,0.1-0.3,0.3-0.5,0.4c-0.2,0.1-0.4,0.3-0.5,0.4
		c-0.2,0.2-0.3,0.4-0.5,0.6c-0.1,0.2-0.3,0.3-0.4,0.5c-0.1,0.2-0.2,0.5-0.3,0.7c-0.1,0.2-0.2,0.4-0.2,0.6c-0.1,0.3-0.1,0.5-0.1,0.8
		c0,0.2-0.1,0.4-0.1,0.5l-1.1,55.5l-42.5-28.1c-1.8-1.2-4-1.2-5.8-0.1l-61.2,37.4l-2.7-62.2c0-0.2-0.1-0.3-0.1-0.5
		c0-0.2-0.1-0.5-0.1-0.7c-0.1-0.2-0.1-0.4-0.2-0.6c-0.1-0.2-0.2-0.4-0.3-0.6c-0.1-0.2-0.2-0.4-0.4-0.6c-0.1-0.2-0.3-0.4-0.4-0.5
		c-0.2-0.2-0.3-0.3-0.5-0.5c-0.1-0.1-0.2-0.2-0.4-0.3l-63.6-42.7l59.6-31c1.9-1,3-2.9,2.9-5.1l-10-234c0-0.3-0.1-0.6-0.1-0.8
		c0-0.1,0-0.2-0.1-0.4c-0.1-0.5-0.3-0.9-0.6-1.3c-0.1-0.1-0.1-0.2-0.2-0.3c-0.2-0.3-0.4-0.6-0.7-0.9c-0.1-0.1-0.3-0.2-0.4-0.3
		c-0.1-0.1-0.3-0.3-0.4-0.4c-0.1-0.1-0.3-0.1-0.4-0.2c-0.1,0-0.1-0.1-0.2-0.2l-160.5-77.4c-1.2-0.6-2.7-0.7-4-0.3l-218.9,68.2
		c0,0,0,0,0,0c-0.2,0.1-0.3,0.2-0.5,0.2c-0.3,0.1-0.6,0.3-0.9,0.4c0,0,0,0,0,0c-0.1,0.1-0.2,0.2-0.4,0.4c-0.3,0.2-0.5,0.4-0.7,0.7
		c-0.1,0.2-0.2,0.4-0.4,0.6c-0.1,0.2-0.3,0.5-0.4,0.7c-0.1,0.2-0.1,0.5-0.2,0.7c-0.1,0.2-0.2,0.4-0.2,0.7c0,0,0,0.1,0,0.1
		c0,0.2,0,0.5,0,0.7c0,0.3,0,0.6,0,0.9c0,0,0,0.1,0,0.1L-534-34.4c0.3,1.3,1,2.4,2,3.2l66.3,51.7l-47.9,22.8c-0.1,0-0.2,0.1-0.3,0.2
		c-0.1,0-0.1,0-0.2,0.1c-0.1,0.1-0.2,0.1-0.3,0.2c-0.3,0.2-0.6,0.4-0.8,0.7c-0.1,0.1-0.3,0.2-0.4,0.4c-0.2,0.3-0.4,0.6-0.6,0.9
		c-0.1,0.1-0.1,0.2-0.2,0.4c-0.2,0.4-0.3,0.9-0.4,1.4c0,0,0,0,0,0.1c0,0.1,0,0.2,0,0.3c0,0.4,0,0.9,0.1,1.3c0,0.1,0,0.1,0,0.2
		l36.8,177.6c0.2,1.1,0.8,2.1,1.6,2.9l46.1,43.5l-30.6,18.7c-0.4,0.2-0.8,0.5-1.1,0.9c-0.1,0.1-0.1,0.2-0.2,0.3
		c-0.3,0.3-0.5,0.7-0.7,1c-0.1,0.1-0.1,0.2-0.2,0.4c-0.2,0.4-0.3,0.9-0.4,1.4c0,0,0,0,0,0.1c0,0,0,0,0,0c-0.1,0.5,0,1,0.1,1.5
		c0,0.1,0,0.1,0,0.2l28.5,137.5c0.2,1,0.7,1.9,1.4,2.6l115.2,122.2c0.2,0.2,0.3,0.3,0.5,0.4c0.1,0.1,0.2,0.2,0.3,0.2
		c0.3,0.3,0.7,0.5,1.1,0.6c0,0,0,0,0.1,0c0,0,0.1,0,0.1,0c0.6,0.2,1.2,0.4,1.9,0.4c0,0,0,0,0,0l0,0h0c0.5,0,1.1-0.1,1.6-0.3
		c0.1,0,0.3-0.1,0.4-0.1c0.1,0,0.3-0.1,0.4-0.1c0.2-0.1,0.4-0.3,0.6-0.4c0.1-0.1,0.3-0.1,0.5-0.3l148.1-118c1.4-1.1,2.1-2.7,2-4.5
		l-3.5-81l49.5,41.7c0.1,0.1,0.2,0.1,0.2,0.1c0.3,0.2,0.6,0.5,0.9,0.6c0.1,0,0.2,0.1,0.3,0.1c0.1,0,0.2,0.1,0.4,0.1
		c0.5,0.2,1.1,0.3,1.6,0.3c0.5,0,1.1-0.1,1.6-0.3c0.1,0,0.2-0.1,0.4-0.1c0.1,0,0.2-0.1,0.4-0.1c0.3-0.1,0.5-0.3,0.7-0.5
		c0.1-0.1,0.3-0.1,0.4-0.2L9,304c1.2-1,1.9-2.4,2-3.9l3.6-59.4l36.1,25.1c0.1,0.1,0.2,0.1,0.3,0.1c0.1,0.1,0.2,0.1,0.3,0.2
		c0.2,0.1,0.4,0.2,0.7,0.3c0.1,0.1,0.3,0.1,0.4,0.2c0.5,0.1,1,0.2,1.5,0.2c0.5,0,1.1-0.1,1.6-0.3c0.1,0,0.2-0.1,0.4-0.1
		c0.1,0,0.2-0.1,0.4-0.1c0.3-0.1,0.6-0.4,0.9-0.5c0.1-0.1,0.2-0.1,0.2-0.1l96.9-77.2c1.1-0.9,1.8-2.1,2-3.5l17.2-127.1
		c0-0.1,0-0.3,0-0.4C173.3,57.1,173.3,56.9,173.3,56.7"/>
</g>
</svg>
