<?xml version="1.0" encoding="utf-8"?>
<!-- Generator: Adobe Illustrator 24.3.0, SVG Export Plug-In . SVG Version: 6.00 Build 0)  -->
<svg version="1.1" id="Layer_1" xmlns="http://www.w3.org/2000/svg" xmlns:xlink="http://www.w3.org/1999/xlink" x="0px" y="0px"
	 viewBox="0 0 50 50" style="enable-background:new 0 0 50 50;" xml:space="preserve">
<style type="text/css">
	.st0{fill:#E71682;}
	.st1{fill:#FDF4F9;}
	.st2{fill:#E40975;}
	.st3{fill:#EF9EC5;}
</style>
<g>
	<path class="st0" d="M44,50H6c-3.3,0-6-2.7-6-6V6c0-3.3,2.7-6,6-6h38c3.3,0,6,2.7,6,6v38C50,47.3,47.3,50,44,50z"/>
	<path class="st1" d="M43.7,26.4c0-3.2-2.3-5.8-5.3-6.3c-0.7-5.1-5.1-9-10.3-9c-3.6,0-6.8,1.8-8.6,4.6c-0.7-0.4-1.6-0.6-2.5-0.6
		c-2.9,0-5.3,2.2-5.6,5.1c-2.8,0.7-4.8,3.2-4.8,6.2c0,3.6,2.9,6.4,6.4,6.4h24.7v0C41,32.6,43.7,29.8,43.7,26.4z"/>
	<polygon class="st2" points="22.1,22.3 26.1,18.3 30.1,22.3 	"/>
	<rect x="25.5" y="22.3" class="st2" width="1.1" height="5"/>
	<path class="st3" d="M37.5,39.2H13.1c-0.5,0-1-0.4-1-1v-6.9c0-0.5,0.5-1,1-1h24.4c0.6,0,1,0.5,1,1v6.9
		C38.5,38.8,38.1,39.2,37.5,39.2z"/>
	<g>
		<g>
			<rect x="14.8" y="35.5" class="st2" width="1.2" height="1.2"/>
			<rect x="17.8" y="35.5" class="st2" width="1.2" height="1.2"/>
			<rect x="20.9" y="35.5" class="st2" width="1.2" height="1.2"/>
			<rect x="23.9" y="35.5" class="st2" width="1.2" height="1.2"/>
			<rect x="14.8" y="32.9" class="st2" width="1.2" height="1.2"/>
			<rect x="17.8" y="32.9" class="st2" width="1.2" height="1.2"/>
			<rect x="20.9" y="32.9" class="st2" width="1.2" height="1.2"/>
			<rect x="23.9" y="32.9" class="st2" width="1.2" height="1.2"/>
		</g>
		<circle class="st2" cx="34.1" cy="34.7" r="1.7"/>
	</g>
</g>
</svg>
