<?xml version="1.0" encoding="utf-8"?>
<!-- Generator: Adobe Illustrator 24.3.0, SVG Export Plug-In . SVG Version: 6.00 Build 0)  -->
<svg version="1.1" id="Layer_1" xmlns="http://www.w3.org/2000/svg" xmlns:xlink="http://www.w3.org/1999/xlink" x="0px" y="0px"
	 viewBox="0 0 156.3 117.3" style="enable-background:new 0 0 156.3 117.3;" xml:space="preserve">
<style type="text/css">
	.st0{fill:#F80000;}
</style>
<g>
	<path class="st0" d="M125.7,91.5h-1.8c-2.3,0-4.2-1.9-4.2-4.2s1.9-4.2,4.2-4.2h1.8c12.3,0,22.4-10,22.4-22.4
		c0-12.5-10-22.5-22.4-22.5c-0.6,0-1.1,0-1.5,0.1c-2.2,0.6-4.4-0.7-5.1-2.9c-2.8-9.2-11.6-15.5-21.3-15.5c-2.3,0-4.6,0.4-7.4,1.2
		c-1.8,0.6-3.8-0.1-4.7-1.7C81,12.4,73,8.3,64.5,8.3c-11.9,0-22.4,8.3-25.2,19.8c-0.5,1.9-2.2,3.3-4.2,3.3h-0.8
		C20,31.4,8.5,43,8.5,57.2C8.5,73.7,15.6,83,28,83c2.3,0,4.2,1.9,4.2,4.2s-1.9,4.2-4.2,4.2c-17.3,0-28-13.2-28-34.2
		c0-18.1,14.2-33,31.9-34.2C36.6,9.6,49.7,0,64.3,0c10.3,0,20,4.6,26.4,12.3c2.4-0.6,4.7-0.8,7-0.8c12.2,0,23.4,7.4,28.2,18.3
		c16.8,0.2,30.4,14,30.4,31C156.5,77.7,142.7,91.5,125.7,91.5z"/>
	<rect x="38.4" y="55.5" class="st0" width="18" height="10.2"/>
	<polygon class="st0" points="56.4,68.1 38.4,68.1 38.4,82.3 56.4,75.5 	"/>
	<path class="st0" d="M91.5,72c-0.1-0.2-0.2-0.4-0.2-0.6c0-0.1-0.1-0.2-0.1-0.4c-0.1-0.4-0.1-0.8,0-1.2l0.4-1.7H79.5v7.4l18,6.8
		v-2.9l-5.7-7.1C91.6,72.2,91.6,72.1,91.5,72z"/>
	<rect x="58.8" y="55.5" class="st0" width="18" height="10.2"/>
	<rect x="58.8" y="42.8" class="st0" width="18" height="10.2"/>
	<polygon class="st0" points="79.4,55.5 79.4,65.8 92.1,65.8 94.4,55.5 	"/>
	<path class="st0" d="M65.8,117.3V76L33.1,88.8C49.5,117.3,65.8,117.3,65.8,117.3z"/>
	<path class="st0" d="M69.6,117.3c0,0,16.3,0,32.7-28.4L69.6,76.1V117.3z"/>
	<path class="st0" d="M134.2,69.8L134.2,69.8z"/>
	<path class="st0" d="M115.9,67.7h-0.1c-0.1,0-0.1,0-0.2,0.1c-0.4,0.1-0.5,0.5-0.4,0.8l1.5,3.5c1.5-0.8,2.4-2.2,3-3.8L115.9,67.7z
		 M110.1,68.3c-0.1-0.2-0.4-0.5-0.6-0.5h-0.1l-3.8,0.6c0.6,1.6,1.6,2.9,3,3.8l1.5-3.5C110.1,68.6,110.1,68.5,110.1,68.3z
		 M113.1,69.7c-0.1-0.4-0.6-0.5-0.8-0.2c-0.1,0-0.2,0.1-0.2,0.2l-1.8,3.4c1.3,0.5,2.8,0.5,4.1,0.2c0.2,0,0.5-0.1,0.7-0.2L113.1,69.7
		z M119.1,61.9l-2.8,2.5c-0.2,0.2-0.2,0.6-0.1,0.8c0.1,0.1,0.2,0.1,0.4,0.2l3.6,1.1C120.3,65,119.9,63.4,119.1,61.9z M113.8,62.2
		c0,0.4,0.4,0.6,0.7,0.6c0.1,0,0.2,0,0.4-0.1l3.1-2.2c-1.2-1.2-2.7-1.9-4.4-2.1L113.8,62.2z M110.5,62.8c0.2,0.2,0.7,0.1,0.8-0.1
		c0.1-0.1,0.1-0.2,0.1-0.4l0.2-3.8c-0.2,0-0.5,0.1-0.7,0.1c-1.3,0.4-2.7,1-3.6,1.9L110.5,62.8z M108.8,65.6c0.4-0.1,0.5-0.5,0.5-0.7
		c0-0.1-0.1-0.2-0.2-0.4l-2.9-2.5c-0.8,1.5-1.2,3-1.1,4.7L108.8,65.6z M111.6,66.8l1.1,0.5l1.1-0.5l0.2-1.1l-0.7-0.8h-1.2l-0.7,0.8
		L111.6,66.8z M130,68.9L127,56c-0.1-0.7-0.6-1.2-1.2-1.6l-12.1-5.8c-0.6-0.4-1.3-0.4-2.1,0l-12.1,5.8c-0.6,0.4-1.1,0.8-1.2,1.6
		l-3,12.9c-0.1,0.4-0.1,0.7,0,1c0,0.1,0,0.2,0.1,0.2c0,0.1,0.1,0.4,0.2,0.5c0,0.1,0.1,0.1,0.1,0.2l8.3,10.4l0.1,0.1
		c0.1,0.1,0.2,0.2,0.5,0.4s0.5,0.2,0.6,0.2c0.2,0,0.4,0.1,0.6,0.1h0.1h13.4c0.1,0,0.1,0,0.2,0s0.2,0,0.4-0.1c0.1,0,0.1,0,0.2-0.1
		c0.1,0,0.1,0,0.1-0.1c0.1,0,0.1-0.1,0.2-0.1c0.2-0.1,0.4-0.2,0.6-0.5l0.2-0.4l8.1-10.2c0.1-0.2,0.2-0.4,0.4-0.6
		c0-0.1,0.1-0.2,0.1-0.2C130.1,69.7,130.1,69.3,130,68.9z M117.4,74c0,0.1,0.1,0.2,0.1,0.2c-0.1,0.1-0.1,0.2,0,0.5
		c0.1,0.4,0.4,0.8,0.6,1.2c0.1,0.2,0.2,0.4,0.4,0.6c0,0,0.1,0.1,0.1,0.2c0.2,0.4,0.1,0.8-0.2,1c-0.4,0.2-0.8,0.1-1-0.2
		c0,0,0-0.1-0.1-0.1c0,0-0.1-0.1-0.1-0.2c-0.1-0.2-0.1-0.5-0.2-0.6c-0.1-0.4-0.2-0.8-0.5-1.2c-0.1-0.1-0.2-0.2-0.4-0.2L116,75
		c-2.2,0.8-4.6,0.8-6.7,0l-0.1,0.2c-0.1,0-0.2,0.1-0.4,0.1c-0.2,0.4-0.5,0.8-0.6,1.3c0,0.2-0.1,0.5-0.2,0.6c0,0-0.1,0.1-0.1,0.2
		c-0.1,0.4-0.6,0.6-1,0.5s-0.6-0.6-0.5-1c0,0,0-0.1,0.1-0.1c0,0,0.1-0.1,0.1-0.2c0.1-0.2,0.2-0.4,0.4-0.6c0.2-0.4,0.5-0.7,0.6-1.2
		c0-0.1,0-0.2-0.1-0.4l0.1-0.4c-1.9-1.2-3.5-3-4.2-5.2H103c-0.1-0.1-0.2-0.1-0.4-0.1c-0.5,0.1-0.8,0.2-1.2,0.4
		c-0.2,0.1-0.5,0.1-0.6,0.2c0,0-0.1,0-0.2,0c-0.4,0.1-0.8-0.1-1-0.5s0.1-0.8,0.5-1h0.1c0.1,0,0.1,0,0.2,0c0.2,0,0.5,0,0.7,0
		c0.5,0,0.8-0.1,1.3-0.2c0.1-0.1,0.2-0.2,0.4-0.4l0.4-0.1c-0.4-2.3,0.2-4.6,1.5-6.5l-0.2-0.2c0-0.1,0-0.2-0.1-0.4
		c-0.4-0.2-0.7-0.5-1.1-0.7c-0.2-0.1-0.4-0.2-0.6-0.4l-0.1-0.1c-0.4-0.2-0.4-0.7-0.1-1.1c0.1-0.1,0.4-0.2,0.6-0.2
		c0.2,0,0.4,0.1,0.5,0.2l0.1,0.1c0.1,0.1,0.4,0.4,0.5,0.5c0.2,0.4,0.6,0.6,1,0.8c0.1,0.1,0.2,0.1,0.5,0c0.1,0.1,0.1,0.1,0.2,0.2
		c1.3-1.3,2.9-2.3,4.7-2.7c0.5-0.1,0.8-0.1,1.3-0.2V56c0.1-0.1,0.2-0.2,0.2-0.4c0-0.5,0-0.8-0.1-1.3c0-0.2-0.1-0.5-0.1-0.7
		c0,0,0-0.1,0-0.2c0-0.4,0.2-0.7,0.6-0.8c0.4,0,0.7,0.2,0.8,0.6v0.1c0,0.1,0,0.1,0,0.2c0,0.2,0,0.5-0.1,0.7
		c-0.1,0.5-0.1,0.8-0.1,1.3c0,0.1,0.1,0.2,0.2,0.4c0,0,0,0.2,0,0.4c2.3,0.2,4.5,1.2,6,2.9l0.2-0.2c0.1,0,0.2,0,0.5,0
		c0.4-0.2,0.7-0.6,1-0.8c0.1-0.1,0.4-0.4,0.5-0.5l0.1-0.1c0.2-0.2,0.7-0.2,1.1,0c0.2,0.2,0.2,0.7,0,1.1l-0.1,0.1l-0.1,0.1
		c-0.2,0.1-0.4,0.2-0.6,0.4c-0.4,0.2-0.7,0.5-1.1,0.7c-0.1,0.1-0.1,0.2-0.1,0.4c0,0-0.2,0.1-0.2,0.2c1.3,1.9,1.8,4.2,1.5,6.5
		l0.2,0.1c0.1,0.1,0.1,0.2,0.4,0.4c0.5,0.1,0.8,0.2,1.3,0.2c0.2,0,0.5,0,0.7,0c0.1,0,0.1,0,0.2,0c0.4,0,0.7,0.4,0.6,0.8
		c0,0.4-0.4,0.7-0.8,0.6h-0.1c0,0-0.1,0-0.2,0c-0.2-0.1-0.5-0.1-0.6-0.2c-0.4-0.1-0.8-0.2-1.2-0.4c-0.1,0-0.2,0-0.4,0.1
		c-0.1,0-0.2,0-0.4,0C120.9,71,119.4,72.8,117.4,74z"/>
</g>
</svg>
