<?xml version="1.0" encoding="utf-8"?>
<!-- Generator: Adobe Illustrator 24.3.0, SVG Export Plug-In . SVG Version: 6.00 Build 0)  -->
<svg version="1.1" id="Layer_1" xmlns="http://www.w3.org/2000/svg" xmlns:xlink="http://www.w3.org/1999/xlink" x="0px" y="0px"
	 viewBox="0 0 51 50" style="enable-background:new 0 0 51 50;" xml:space="preserve">
<style type="text/css">
	.st0{fill:#E34D59;}
	.st1{fill:#FFFFFF;}
</style>
<g>
	<circle class="st0" cx="25.2" cy="25" r="25"/>
	<path class="st1" d="M28.3,9.2c-1.7,0-3.3,0.5-4.6,1.4c-0.9,0.7-1.6,1.6-2.2,2.6c-0.4-1.6-0.9-3.8-0.9-3.8h-5.4
		c-0.3,0-0.5,0.2-0.5,0.5l0,0v1.9l0,0c0,0.3,0.2,0.5,0.5,0.5h3.2c0.3,0.9,0.7,2.5,1.1,4.2c-0.6,1.1-1.2,2-1.7,2.9
		c-2.8,5.4-4.1,9.1-4.1,13.2c0,4.9,2.1,8,5.3,8c3.7,0,5.9-3.3,5.9-9c0-0.2,0-0.5,0-0.7c1,0.5,2.1,0.8,3.2,0.8
		c3.9,0.1,7.3-2.6,8.1-6.4c0.3-1.6,0.4-3.2,0.4-4.8c0-1.8-0.2-3.5-0.6-5.2C34.9,11.5,32.1,9.2,28.3,9.2z M19,37.9
		c-1.6,0-2.4-2.6-2.4-5.2c0-3.3,1-6.9,3.8-12.4c0.9,3.7,1.4,7.6,1.5,11.4C22,33.6,21.7,37.9,19,37.9z M33.4,24.8
		c-0.6,2.5-2.8,4.2-5.4,4.1c-1.1-0.1-2.2-0.3-3.3-0.7c-0.5-3.9-1.3-7.7-2.2-11.4c0.5-1,1.1-1.9,1.8-2.8c0.9-1.3,2.4-2,3.9-2
		c3.1,0,4.4,2.3,4.9,4.1c0.4,1.4,0.6,2.9,0.5,4.4C33.8,22,33.6,23.4,33.4,24.8z"/>
</g>
</svg>
