<?xml version="1.0" encoding="utf-8"?>
<!-- Generator: Adobe Illustrator 24.3.0, SVG Export Plug-In . SVG Version: 6.00 Build 0)  -->
<svg version="1.1" id="Layer_1" xmlns="http://www.w3.org/2000/svg" xmlns:xlink="http://www.w3.org/1999/xlink" x="0px" y="0px"
	 viewBox="0 0 50 51" style="enable-background:new 0 0 50 51;" xml:space="preserve">
<style type="text/css">
	.st0{fill:#E11A2C;}
	.st1{fill:#231F20;}
</style>
<g>
	<path class="st0" d="M26,13.6c-1,2.1-0.6,3.7,0.9,3.8s3.5-1.6,4.4-3.7c0.9-2.1,0.6-3.7-0.9-3.8S26.9,11.6,26,13.6z M37.8,6.2
		L37.8,6.2c-0.9,2.6-2.2,5.1-3.7,7.5c-3.1,4.5-7.4,7.4-9.7,6.3s-1.7-5.5,1.3-9.9c0.7-1,1.4-1.9,2.3-2.7l0,0c-1,0.1-2,0.3-2.9,0.6
		l0,0C14.7,20.4,10.4,36.6,10.9,51.1l0,0C4.6,48.5,0.3,42.4,0,35.5v-0.1c-0.7-13,9.8-26.6,23.4-30C28.1,4.1,33.2,4.4,37.8,6.2z"/>
	<path class="st1" d="M34,41.6c-1,0.7-2,1.3-3.1,1.9l0,0c-0.1-3-0.8-6-2.1-8.7c-3.1-6.8-8.6-7.2-12.2-1.2c-2.2,3.8-3.2,9.1-3,14.4
		l0,0c4.2,1.3,8.7,1.3,13,0.2c13.7-3.5,24.1-16.9,23.3-30C49.1,6.7,40-0.8,28.6-0.1l0,0c-1,1.2-2.2,2.2-3.1,3.4l0,0
		C32.2,2.5,37.6,3.8,41,6.6l0,0C29.1,23.5,30.6,33.3,34,41.6L34,41.6L34,41.6z"/>
</g>
</svg>
