<?xml version="1.0" encoding="utf-8"?>
<!-- Generator: Adobe Illustrator 24.3.0, SVG Export Plug-In . SVG Version: 6.00 Build 0)  -->
<svg version="1.1" id="Layer_1" xmlns="http://www.w3.org/2000/svg" xmlns:xlink="http://www.w3.org/1999/xlink" x="0px" y="0px"
	 viewBox="0 0 37.9 27.7" style="enable-background:new 0 0 37.9 27.7;" xml:space="preserve">
<style type="text/css">
	.st0{filter:url(#Adobe_OpacityMaskFilter);}
	.st1{fill:#FFFFFF;}
	.st2{mask:url(#fb_1_);fill:#00A1FF;}
	.st3{filter:url(#Adobe_OpacityMaskFilter_1_);}
	.st4{mask:url(#fd_1_);fill:#00C4D6;}
	.st5{filter:url(#Adobe_OpacityMaskFilter_2_);}
	.st6{mask:url(#ff_1_);fill:#006EFF;}
</style>
<g>
	<g transform="translate(7 10)">
		<defs>
			<filter id="Adobe_OpacityMaskFilter" filterUnits="userSpaceOnUse" x="0.2" y="0.1" width="30.8" height="17.8">
				<feColorMatrix  type="matrix" values="1 0 0 0 0  0 1 0 0 0  0 0 1 0 0  0 0 0 1 0"/>
			</filter>
		</defs>
		<mask maskUnits="userSpaceOnUse" x="0.2" y="0.1" width="30.8" height="17.8" id="fb_1_">
			<g class="st0">
				<path id="fa_1_" class="st1" d="M0.2,0.1h30.8v17.8H0.2V0.1z"/>
			</g>
		</mask>
		<path class="st2" d="M25.8,12.8c-0.7,0.7-1.9,1.4-3.9,1.5c-0.9,0-2,0-2.5,0H8.6l7.7-7.5c0.6-0.6,1.2-1.2,1.8-1.7
			c1.5-1.4,2.9-1.6,3.8-1.6c1.5,0,2.9,0.6,3.9,1.6C28,7.3,28,10.7,25.8,12.8 M28.4,2.7c-1.7-1.7-4-2.7-6.3-2.7c-2.2,0-4,0.7-5.6,2.1
			C15.7,2.7,15,3.4,14,4.3L0.2,17.7c0.7,0.1,1.7,0.1,2.5,0.1c0.8,0,16.2,0,16.9,0c1.3,0,2.1,0,3.1-0.1c2.1-0.2,4-0.9,5.6-2.5
			C31.8,11.9,31.9,6.3,28.4,2.7C28.4,2.7,28.4,2.7,28.4,2.7"/>
	</g>
	<g transform="translate(0 10)">
		<defs>
			<filter id="Adobe_OpacityMaskFilter_1_" filterUnits="userSpaceOnUse" x="0" y="0.1" width="18" height="17.7">
				<feColorMatrix  type="matrix" values="1 0 0 0 0  0 1 0 0 0  0 0 1 0 0  0 0 0 1 0"/>
			</filter>
		</defs>
		<mask maskUnits="userSpaceOnUse" x="0" y="0.1" width="18" height="17.7" id="fd_1_">
			<g class="st3">
				<path id="fc_1_" class="st1" d="M0,0.1h18v17.7H0V0.1z"/>
			</g>
		</mask>
		<path class="st4" d="M14.2,1.9c-1.6-1.2-3.3-1.8-5.3-1.8c-2.4,0-4.7,1-6.3,2.7c-3.4,3.5-3.4,9.1,0.1,12.6c0,0,0,0,0,0
			c1.4,1.4,3.1,2.1,5,2.4l3.4-3.3c-0.7,0-1.4,0-2.1,0c-2-0.1-3.2-0.8-3.9-1.5C3,10.7,2.9,7.3,5,5.2c1-1,2.4-1.6,3.9-1.6
			c0.9,0,2.2,0.3,3.7,1.5c0.7,0.6,2.2,1.9,2.9,2.5c0,0,0.1,0,0.1,0L18,5.2c0,0,0-0.1,0-0.1c0,0,0,0,0,0C16.8,4.1,15.2,2.6,14.2,1.9"
			/>
	</g>
	<g transform="translate(7)">
		<defs>
			<filter id="Adobe_OpacityMaskFilter_2_" filterUnits="userSpaceOnUse" x="0.1" y="0" width="22.8" height="9.7">
				<feColorMatrix  type="matrix" values="1 0 0 0 0  0 1 0 0 0  0 0 1 0 0  0 0 0 1 0"/>
			</filter>
		</defs>
		<mask maskUnits="userSpaceOnUse" x="0.1" y="0" width="22.8" height="9.7" id="ff_1_">
			<g class="st5">
				<path id="fe_1_" class="st1" d="M0.1,0h22.8v9.7H0.1V0z"/>
			</g>
		</mask>
		<path class="st6" d="M22.9,7.6C21.3,3.2,16.9,0,11.8,0C5.9,0,1,4.2,0.1,9.6c0.5-0.1,1-0.1,1.5-0.1c0.7,0,1.4,0.1,2,0.2l0,0
			C4.4,6,7.8,3.3,11.8,3.3c3.3,0,6.3,1.9,7.6,4.7c0,0,0.1,0.1,0.1,0c1-0.3,2.2-0.4,3.3-0.3C22.9,7.7,22.9,7.7,22.9,7.6"/>
	</g>
</g>
</svg>
