<?xml version="1.0" encoding="utf-8"?>
<!-- Generator: Adobe Illustrator 24.3.0, SVG Export Plug-In . SVG Version: 6.00 Build 0)  -->
<svg version="1.1" id="Layer_1" xmlns="http://www.w3.org/2000/svg" xmlns:xlink="http://www.w3.org/1999/xlink" x="0px" y="0px"
	 viewBox="0 0 50 50" style="enable-background:new 0 0 50 50;" xml:space="preserve">
<style type="text/css">
	.st0{fill:#5B9500;}
	.st1{fill:#12935D;}
	.st2{fill:#6BBD8B;}
	.st3{fill:#049FA4;}
	.st4{fill:#3BB5F0;}
	.st5{fill:#78C8FF;}
	.st6{fill:#3EB8FF;}
	.st7{fill:#184223;}
	.st8{fill:#022906;}
	.st9{fill:#076E5E;}
	.st10{fill:#0A413C;}
	.st11{fill:#C2D400;}
	.st12{fill:#8B9504;}
	.st13{fill:#0096E5;}
	.st14{fill:#008EDA;}
	.st15{fill:#136050;}
	.st16{fill:#7BBC00;}
	.st17{fill:#95BB00;}
	.st18{fill:#3A9B92;}
	.st19{fill:#00867E;}
</style>
<g>
	<polygon class="st0" points="37.5,37.4 50,49.9 50,37.4 	"/>
	<rect x="37.5" class="st1" width="12.5" height="12.5"/>
	<polygon class="st2" points="37.5,0 50,0 50,12.4 	"/>
	<rect x="25" y="-0.1" class="st3" width="12.5" height="12.5"/>
	<polygon class="st4" points="25,12.4 25,0 37.5,0 	"/>
	<rect x="12.5" y="-0.1" class="st5" width="12.5" height="12.5"/>
	<polygon class="st6" points="25,12.4 12.5,12.4 12.5,0 	"/>
	<rect x="37.4" y="12.4" class="st7" width="12.5" height="12.5"/>
	<polygon class="st8" points="50,12.4 50,24.9 37.5,24.9 	"/>
	<rect x="24.9" y="12.4" class="st9" width="12.5" height="12.5"/>
	<polygon class="st10" points="37.5,24.9 25,24.9 25,12.4 	"/>
	<rect x="37.5" y="24.9" class="st11" width="12.5" height="12.5"/>
	<polygon class="st12" points="37.5,24.9 50,24.9 50,37.4 	"/>
	<g>
		<polygon class="st13" points="12.5,12.4 12.5,12.4 12.5,0 6.3,6.2 		"/>
		<polygon class="st14" points="12.5,0 0,0 6.3,6.2 		"/>
		<polygon class="st15" points="37.5,24.9 25,24.9 31.2,31.1 		"/>
		<polygon class="st16" points="37.5,37.4 37.5,24.9 31.2,31.1 		"/>
		<polygon class="st17" points="50,37.4 37.5,37.4 43.7,43.6 		"/>
		<polygon class="st18" points="18.7,18.6 25,12.4 12.5,12.4 12.5,12.4 		"/>
		<polygon class="st19" points="25,24.8 25,12.4 18.7,18.6 		"/>
	</g>
</g>
</svg>
