<!-- Generated by IcoMoon.io -->
<svg version="1.1" xmlns="http://www.w3.org/2000/svg" width="32" height="32" viewBox="0 0 32 32" fill="#FFF">
<title>compass</title>
<path d="M16 3.2c-7.069 0-12.8 5.731-12.8 12.8s5.731 12.8 12.8 12.8 12.8-5.731 12.8-12.8-5.731-12.8-12.8-12.8v0zM16 25.6c-5.302 0-9.6-4.298-9.6-9.6s4.298-9.6 9.6-9.6 9.6 4.298 9.6 9.6v0c0 5.302-4.298 9.6-9.6 9.6v0z"></path>
<path d="M24.086 16l-6.232-1.348 0.917-1.424-1.424 0.917-1.348-6.232-1.348 6.232-1.424-0.917 0.917 1.424-6.232 1.348 6.232 1.348-0.917 1.424 1.424-0.917 1.348 6.232 1.348-6.232 1.424 0.917-0.917-1.424 6.232-1.348zM16 16.814c-0.45 0-0.814-0.365-0.814-0.814s0.365-0.814 0.814-0.814 0.814 0.365 0.814 0.814-0.365 0.814-0.814 0.814z"></path>
</svg>
