<!-- Generated by IcoMoon.io -->
<svg version="1.1" xmlns="http://www.w3.org/2000/svg" width="32" height="32" viewBox="0 0 32 32" fill="#FFFFFF">
<title>globe</title>
<path d="M28.8 16c0-6.779-5.27-12.326-11.937-12.77v-0.030h-0.862c-0 0-0.001 0-0.001 0v0c-0 0-0.001 0-0.001 0h-1.011v0.040c-6.596 0.516-11.788 6.032-11.788 12.76s5.192 12.244 11.788 12.76v0.040h1.011c0 0 0.001 0 0.001 0s0.001 0 0.001 0h0.862v-0.030c6.667-0.444 11.937-5.991 11.937-12.77zM16.863 20.183v-3.245h4.907c-0.050 0.798-0.177 1.963-0.489 3.245h-4.418zM14.988 11.818v3.245h-4.907c0.050-0.798 0.177-1.963 0.489-3.245h4.418zM25.554 15.063h-1.907c-0.046-0.794-0.161-1.952-0.443-3.245h1.438c0.484 0.998 0.799 2.091 0.911 3.245zM21.768 15.063h-4.905v-3.245h4.421c0.308 1.278 0.433 2.456 0.484 3.245zM8.203 15.063h-1.758c0.112-1.154 0.428-2.247 0.911-3.245h1.289c-0.281 1.293-0.397 2.45-0.443 3.245zM6.446 16.938h1.758c0.046 0.794 0.161 1.952 0.443 3.245h-1.289c-0.484-0.997-0.799-2.091-0.911-3.245zM10.083 16.938h4.905v3.245h-4.421c-0.308-1.278-0.434-2.456-0.484-3.245zM23.648 16.938h1.907c-0.112 1.154-0.428 2.247-0.911 3.245h-1.438c0.281-1.293 0.397-2.451 0.443-3.245zM23.447 9.943h-0.755c-0.148-0.443-0.311-0.865-0.488-1.268 0.452 0.383 0.869 0.808 1.243 1.268zM18.784 6.81c0.863 0.89 1.48 1.997 1.92 3.132h-3.841v-3.503c0.662 0.059 1.304 0.185 1.921 0.371zM14.988 9.943h-3.837c0.481-1.244 1.101-2.269 1.853-3.065 0.635-0.208 1.299-0.353 1.984-0.424v3.489zM9.557 8.884c-0.143 0.339-0.275 0.692-0.398 1.059h-0.606c0.308-0.378 0.643-0.732 1.004-1.059zM8.553 22.058h0.606c0.123 0.367 0.255 0.72 0.398 1.059-0.361-0.327-0.696-0.681-1.004-1.059zM13.004 25.123c-0.83-0.878-1.428-1.958-1.857-3.065h3.841v3.489c-0.685-0.072-1.349-0.216-1.984-0.424zM16.863 22.058h3.837c-0.495 1.279-1.136 2.327-1.916 3.132-0.616 0.186-1.259 0.312-1.921 0.371v-3.503zM22.204 23.325c0.177-0.403 0.34-0.825 0.488-1.268h0.755c-0.375 0.46-0.791 0.884-1.243 1.268z"></path>
</svg>
