<?xml version="1.0" encoding="utf-8"?>
<!-- Generator: Adobe Illustrator 27.3.1, SVG Export Plug-In . SVG Version: 6.00 Build 0)  -->
<svg version="1.1" xmlns="http://www.w3.org/2000/svg" xmlns:xlink="http://www.w3.org/1999/xlink" x="0px" y="0px"
	 viewBox="0 0 102 102.3" style="enable-background:new 0 0 102 102.3;" xml:space="preserve">
<style type="text/css">
	.st0{display:none;opacity:0.22;}
	.st1{display:inline;}
	.st2{fill:#20677C;}
	.st3{fill:#FFFFFF;}
</style>
<g id="Layer_1" class="st0">
	<g id="components-and-design-kit" transform="translate(-50.498 -34)" class="st1">
		<g id="Group_2342" transform="translate(8.012 14.656)">
			<path id="Path_3259" class="st2" d="M72.3,111.7c-0.2,0.9-0.3,1.7-0.5,2.5c-1.1,4.3-5,7.3-9.4,7.4c-3.4,0.1-6.8,0.1-10.2,0
				c-5.2-0.1-9.5-4.3-9.7-9.5c-0.1-3.1,0.1-6.3-0.1-9.4c-0.4-5.6,3.9-10.5,9.5-10.8c0.1,0,0.2,0,0.3,0V52.3c-0.7-0.1-1.3-0.2-2-0.3
				c-4.4-1-7.6-4.8-7.8-9.4c-0.1-3.4-0.1-6.8,0-10.2c-0.1-5.2,4-9.6,9.2-9.8c3.7-0.2,7.5-0.2,11.2,0c4.8,0.3,8.7,4,9.1,8.8
				c0,0.3,0.1,0.6,0.2,1h39.5c0.1-2.6,1.1-5.1,2.9-6.9c1.5-1.7,3.6-2.7,5.8-2.8c4.1-0.2,8.3-0.2,12.4,0c4.8,0.5,8.5,4.6,8.6,9.5
				c0.1,3.4,0.1,6.7,0,10.1c0.1,5.2-4,9.6-9.2,10c-0.1,0-0.3,0-0.6,0.1c0,0.5-0.1,0.9-0.1,1.3v22.9c0,2.9-1.7,5.1-4.2,5.4
				c-2.7,0.4-5.2-1.5-5.6-4.1c0-0.3-0.1-0.6-0.1-0.9c0-7.7,0-15.4,0-23.1v-1.5c-5.9-0.7-9.3-4-10-10H72.3c-0.7,5.8-3.9,9.2-9.9,9.9
				v39.5c6.1,0.9,8.4,3.2,10,10h1.3c7.7,0,15.3,0,23,0c3.5,0,5.8,2.8,5.1,6c-0.5,2.4-2.7,4-5.1,3.9c-7.6,0-15.2,0-22.8,0L72.3,111.7
				L72.3,111.7z M52.5,32.4v9.8h9.8v-9.8H52.5z M121.8,42.2h9.8v-9.8h-9.8C121.7,32.4,121.7,42.2,121.8,42.2z M52.5,101.9v9.8h9.8
				v-9.8H52.5z"/>
			<path id="Path_3260" class="st2" d="M101.8,87c0-2.8,2.3-5,5.1-5c0.7,0,1.4,0.2,2,0.5c5.1,2,10.2,4.1,15.3,6.1
				c4.5,1.8,9,3.6,13.5,5.4c2.1,0.8,3.5,2.2,3.7,4.6c0.1,2.4-1.2,4-3.3,5c-2.9,1.4-5.8,2.9-8.7,4.4c-0.8,0.4-1.4,1-1.7,1.8
				c-1.4,2.9-2.9,5.9-4.4,8.8c-1,2.6-3.9,3.8-6.5,2.8c-1.4-0.6-2.5-1.7-2.9-3.2c-3.8-9.7-7.7-19.3-11.5-29
				C102.2,88.4,102,87.7,101.8,87L101.8,87z M119.2,104.4c1-2.4,3-4.2,5.4-5c-3.1-1.2-5.8-2.3-8.8-3.5
				C117,98.9,118.1,101.6,119.2,104.4L119.2,104.4z"/>
		</g>
		<g id="Group_2343" transform="translate(13.012 13.656)">
			<path id="Path_3261" class="st3" d="M70.3,109.7c-0.2,0.9-0.3,1.7-0.5,2.5c-1.1,4.3-5,7.3-9.4,7.4c-3.4,0.1-6.8,0.1-10.2,0
				c-5.2-0.1-9.5-4.3-9.7-9.5c-0.1-3.1,0.1-6.3-0.1-9.4c-0.4-5.6,3.9-10.5,9.5-10.8c0.1,0,0.2,0,0.3,0V50.3c-0.7-0.1-1.3-0.2-2-0.3
				c-4.4-1-7.6-4.8-7.8-9.4c-0.1-3.4-0.1-6.8,0-10.2c-0.1-5.2,4-9.6,9.2-9.8c3.7-0.2,7.5-0.2,11.2,0c4.8,0.3,8.7,4,9.1,8.8
				c0,0.3,0.1,0.6,0.2,1h39.5c0.1-2.6,1.1-5.1,2.9-6.9c1.5-1.7,3.6-2.7,5.8-2.8c4.1-0.2,8.3-0.2,12.4,0c4.8,0.5,8.5,4.6,8.6,9.5
				c0.1,3.4,0.1,6.7,0,10.1c0.1,5.2-4,9.6-9.2,10c-0.1,0-0.3,0-0.6,0.1c0,0.5-0.1,0.9-0.1,1.3v22.9c0,2.9-1.7,5.1-4.2,5.4
				c-2.7,0.4-5.2-1.5-5.6-4.1c0-0.3-0.1-0.6-0.1-0.9c0-7.7,0-15.4,0-23.1v-1.5c-5.9-0.7-9.3-4-10-10H70.3c-0.7,5.8-3.9,9.2-9.9,9.9
				v39.5c6.1,0.9,8.4,3.2,10,10h1.3c7.7,0,15.3,0,23,0c3.5,0,5.8,2.8,5.1,6c-0.5,2.4-2.7,4-5.1,3.9c-7.6,0-15.2,0-22.8,0L70.3,109.7
				L70.3,109.7z M50.5,30.4v9.8h9.8v-9.8H50.5z M119.8,40.2h9.8v-9.8h-9.8C119.7,30.4,119.7,40.2,119.8,40.2z M50.5,99.8v9.8h9.8
				v-9.8H50.5z"/>
			<path id="Path_3262" class="st3" d="M99.8,85c0-2.8,2.3-5,5.1-5c0.7,0,1.4,0.2,2,0.5c5.1,2,10.2,4.1,15.3,6.1
				c4.5,1.8,9,3.6,13.5,5.4c2.1,0.8,3.5,2.2,3.7,4.6c0.1,2.4-1.2,4-3.3,5c-2.9,1.4-5.8,2.9-8.7,4.4c-0.8,0.4-1.4,1-1.7,1.8
				c-1.4,2.9-2.9,5.9-4.4,8.8c-1,2.6-3.9,3.8-6.5,2.8c-1.4-0.6-2.5-1.7-2.9-3.2c-3.8-9.7-7.7-19.3-11.5-29
				C100.2,86.4,100,85.7,99.8,85L99.8,85z M117.2,102.4c1-2.4,3-4.2,5.4-5c-3.1-1.2-5.8-2.3-8.8-3.5
				C115,96.9,116.1,99.6,117.2,102.4L117.2,102.4z"/>
		</g>
	</g>
</g>
<g id="Layer_2">
	<g>
		<path class="st2" d="M89.9,3.1H78.4c-5,0-9.1,4.1-9.1,9.1v2.3H29.7v-2.3c0-5-4.1-9.1-9.1-9.1H9.1c-5,0-9.1,4.1-9.1,9.1v11.6
			c0,5,4.1,9.1,9.1,9.1h2.3v39.7H9.1c-5,0-9.1,4.1-9.1,9.1v11.6c0,5,4.1,9.1,9.1,9.1h11.6c5,0,9.1-4.1,9.1-9.1v-2.3h26.2
			c1.9,0,3.5-1.6,3.5-3.5s-1.6-3.5-3.5-3.5H29.7v-2.3c0-5-4.1-9.1-9.1-9.1h-2.3V32.8h2.3c5,0,9.1-4.1,9.1-9.1v-2.3h39.6v2.3
			c0,5,4.1,9.1,9.1,9.1h2.3V59c0,1.9,1.6,3.5,3.5,3.5s3.5-1.6,3.5-3.5V32.8h2.3c5,0,9.1-4.1,9.1-9.1V12.2C99,7.2,94.9,3.1,89.9,3.1z
			 M22.7,81.6v11.6c0,1.1-0.9,2.1-2.1,2.1H9.1C8,95.2,7,94.3,7,93.2V81.6c0-1.1,0.9-2.1,2.1-2.1h11.6C21.8,79.5,22.7,80.5,22.7,81.6
			z M22.7,23.7c0,1.1-0.9,2.1-2.1,2.1H9.1C8,25.8,7,24.9,7,23.7V12.2C7,11,8,10.1,9.1,10.1h11.6c1.1,0,2.1,0.9,2.1,2.1V23.7z
			 M92,23.7c0,1.1-0.9,2.1-2.1,2.1H78.4c-1.1,0-2.1-0.9-2.1-2.1V12.2c0-1.1,0.9-2.1,2.1-2.1h11.6c1.1,0,2.1,0.9,2.1,2.1V23.7z"/>
		<g>
			<path class="st2" d="M76.4,102.1c-2.4,0-4.5-1.4-5.4-3.7L60,70.2c-0.8-2.1-0.3-4.6,1.3-6.2c1.6-1.6,4.1-2.1,6.2-1.3l28.2,11
				c2.4,0.9,3.9,3.3,3.7,5.8c-0.2,2.6-2,4.7-4.5,5.2l-10.4,2.4l-2.4,10.4c-0.6,2.5-2.7,4.3-5.2,4.5
				C76.7,102.1,76.6,102.1,76.4,102.1z M67.5,70.2l8.6,22.1l1.7-7.4c0.5-2.2,2.2-3.8,4.3-4.3l7.4-1.7L67.5,70.2z M66.6,67.7
				L66.6,67.7C66.6,67.7,66.6,67.7,66.6,67.7z"/>
		</g>
	</g>
	<g>
		<path class="st3" d="M92.5,0.3H80.9c-5,0-9.1,4.1-9.1,9.1v2.3H32.3V9.4c0-5-4.1-9.1-9.1-9.1H11.6c-5,0-9.1,4.1-9.1,9.1v11.6
			c0,5,4.1,9.1,9.1,9.1h2.3v39.7h-2.3c-5,0-9.1,4.1-9.1,9.1v11.6c0,5,4.1,9.1,9.1,9.1h11.6c5,0,9.1-4.1,9.1-9.1v-2.3h26.2
			c1.9,0,3.5-1.6,3.5-3.5s-1.6-3.5-3.5-3.5H32.3v-2.3c0-5-4.1-9.1-9.1-9.1h-2.3V30h2.3c5,0,9.1-4.1,9.1-9.1v-2.3h39.6v2.3
			c0,5,4.1,9.1,9.1,9.1h2.3v26.2c0,1.9,1.6,3.5,3.5,3.5s3.5-1.6,3.5-3.5V30h2.3c5,0,9.1-4.1,9.1-9.1V9.4
			C101.5,4.4,97.5,0.3,92.5,0.3z M25.3,78.8v11.6c0,1.1-0.9,2.1-2.1,2.1H11.6c-1.1,0-2.1-0.9-2.1-2.1V78.8c0-1.1,0.9-2.1,2.1-2.1
			h11.6C24.3,76.7,25.3,77.7,25.3,78.8z M25.3,20.9c0,1.1-0.9,2.1-2.1,2.1H11.6c-1.1,0-2.1-0.9-2.1-2.1V9.4c0-1.1,0.9-2.1,2.1-2.1
			h11.6c1.1,0,2.1,0.9,2.1,2.1V20.9z M94.5,20.9c0,1.1-0.9,2.1-2.1,2.1H80.9c-1.1,0-2.1-0.9-2.1-2.1V9.4c0-1.1,0.9-2.1,2.1-2.1h11.6
			c1.1,0,2.1,0.9,2.1,2.1V20.9z"/>
		<g>
			<path class="st3" d="M79,99.3c-2.4,0-4.5-1.4-5.4-3.7l-11-28.2c-0.8-2.1-0.3-4.6,1.3-6.2c1.6-1.6,4.1-2.1,6.2-1.3l28.2,11
				c2.4,0.9,3.9,3.3,3.7,5.8c-0.2,2.6-2,4.7-4.5,5.2l-10.4,2.4l-2.4,10.4c-0.6,2.5-2.7,4.3-5.2,4.5C79.2,99.3,79.1,99.3,79,99.3z
				 M70.1,67.4l8.6,22.1l1.7-7.4c0.5-2.2,2.2-3.8,4.3-4.3l7.4-1.7L70.1,67.4z M69.1,64.8L69.1,64.8C69.1,64.8,69.1,64.8,69.1,64.8z"
				/>
		</g>
	</g>
</g>
</svg>
