<svg xmlns="http://www.w3.org/2000/svg" viewBox="0 0 95.877 125.01">
  <defs>
    <style>
      .cls-1 {
        fill: #20677c;
      }

      .cls-2 {
        fill: #fff;
      }
    </style>
  </defs>
  <g id="developer-documentation" transform="translate(-58.5 -23)">
    <g id="Group_2338" data-name="Group 2338" transform="translate(53.877 9.8)">
      <path id="Path_3241" data-name="Path 3241" class="cls-1" d="M100.5,123.46H50.53V138.2c-3.68-3.8-7.15-7.38-10.71-11.05-3.53,3.64-7.02,7.24-10.73,11.06V123.43H18.64a10.755,10.755,0,0,1-6.57-2.08,10.455,10.455,0,0,1-4.41-8.44c-.07-2.02-.02-4.05-.02-6.08V27.37A10.841,10.841,0,0,1,18.7,16.2h81.79V123.46ZM93.38,23.35H19.2c-3.11,0-4.4,1.3-4.4,4.41v74.42c3.11-.06,6.11-.18,9.11-.18q34.02-.03,68.03,0h1.45V23.34Zm0,85.87H50.64v7H93.38Zm-64.34-.08H18.69a3.606,3.606,0,0,0-3.89,3.59,3.642,3.642,0,0,0,3.94,3.55c3.13.01,6.26,0,9.39,0,.3,0,.6-.05.91-.08Zm7.26,11.08c.1.06.21.12.31.18,1.09-1.13,2.18-2.26,3.43-3.56,1.12,1.12,2.22,2.21,3.28,3.26V109.23H36.31v10.99Z"/>
      <path id="Path_3242" data-name="Path 3242" class="cls-1" d="M61.2,41.88c-2.4,12.01-4.76,23.81-7.14,35.74-2.35-.47-4.62-.93-7.01-1.4,2.38-11.93,4.75-23.77,7.14-35.74,2.34.47,4.61.92,7.01,1.4Z"/>
      <path id="Path_3243" data-name="Path 3243" class="cls-1" d="M37.49,59.1c1.75,1.66,3.27,3.1,4.73,4.49-1.7,1.69-3.32,3.31-4.9,4.88-3.07-3.12-6.23-6.32-9.29-9.44,2.99-2.99,6.18-6.17,9.3-9.29,1.52,1.53,3.16,3.17,4.93,4.95-1.45,1.35-2.99,2.77-4.76,4.42Z"/>
      <path id="Path_3244" data-name="Path 3244" class="cls-1" d="M70.9,68.51c-1.55-1.55-3.17-3.18-4.9-4.91q2.205-2.07,4.65-4.35c-1.75-1.65-3.27-3.08-4.69-4.43,1.83-1.82,3.48-3.45,5.03-4.98,3,2.99,6.18,6.18,9.28,9.28-3.05,3.05-6.23,6.24-9.37,9.39Z"/>
    </g>
    <g id="Group_2339" data-name="Group 2339" transform="translate(48.877 8.8)">
      <path id="Path_3245" data-name="Path 3245" class="cls-2" d="M102.5,121.46H52.53V136.2c-3.68-3.8-7.15-7.38-10.71-11.05-3.53,3.64-7.02,7.24-10.73,11.06V121.43H20.64a10.755,10.755,0,0,1-6.57-2.08,10.455,10.455,0,0,1-4.41-8.44c-.07-2.02-.02-4.05-.02-6.08V25.37A10.841,10.841,0,0,1,20.7,14.2h81.79V121.46ZM95.38,21.35H21.2c-3.11,0-4.4,1.3-4.4,4.41v74.42c3.11-.06,6.11-.18,9.11-.18q34.02-.03,68.03,0h1.45V21.34Zm0,85.87H52.64v7H95.38Zm-64.34-.08H20.69a3.606,3.606,0,0,0-3.89,3.59,3.642,3.642,0,0,0,3.94,3.55c3.13.01,6.26,0,9.39,0,.3,0,.6-.05.91-.08Zm7.26,11.08c.1.06.21.12.31.18,1.09-1.13,2.18-2.26,3.43-3.56,1.12,1.12,2.22,2.21,3.28,3.26V107.23H38.31v10.99Z"/>
      <path id="Path_3246" data-name="Path 3246" class="cls-2" d="M63.2,39.88c-2.4,12.01-4.76,23.81-7.14,35.74-2.35-.47-4.62-.93-7.01-1.4,2.38-11.93,4.75-23.77,7.14-35.74,2.34.47,4.61.92,7.01,1.4Z"/>
      <path id="Path_3247" data-name="Path 3247" class="cls-2" d="M39.49,57.1c1.75,1.66,3.27,3.1,4.73,4.49-1.7,1.69-3.32,3.31-4.9,4.88-3.07-3.12-6.23-6.32-9.29-9.44,2.99-2.99,6.18-6.17,9.3-9.29,1.52,1.53,3.16,3.17,4.93,4.95-1.45,1.35-2.99,2.77-4.76,4.42Z"/>
      <path id="Path_3248" data-name="Path 3248" class="cls-2" d="M72.9,66.51c-1.55-1.55-3.17-3.18-4.9-4.91q2.205-2.07,4.65-4.35c-1.75-1.65-3.27-3.08-4.69-4.43,1.83-1.82,3.48-3.45,5.03-4.98,3,2.99,6.18,6.18,9.28,9.28-3.05,3.05-6.23,6.24-9.37,9.39Z"/>
    </g>
  </g>
</svg>
