<svg xmlns="http://www.w3.org/2000/svg" width="104" height="102.258" viewBox="0 0 104 102.258">
  <defs>
    <style>
      .cls-1 {
        fill: #00814a;
      }

      .cls-2 {
        fill: #fff;
      }
    </style>
  </defs>
  <g id="extensions" transform="translate(-144 -30)">
    <path id="Path_3256" data-name="Path 3256" class="cls-1" d="M205.123,77.471c-.255,1.895-.407,3.81-.784,5.674q-5.18,26.282-29.572,37.416a3.893,3.893,0,1,1-3.015-7.171,41.841,41.841,0,0,0,21.362-20.465c11.878-24.316-2.384-53.8-28.808-59.562a42.274,42.274,0,0,0-50.475,32.9c-4.666,22.421,10.207,45.087,32.567,49.62a3.842,3.842,0,0,0,4.808-3.453c.092-5.725.031-11.44.031-17.226-.387-.112-.744-.234-1.11-.336a19.047,19.047,0,0,1-13.895-18.1c-.031-3.351-.02-6.7,0-10.054a3.86,3.86,0,0,1,4.1-4.1c1.07-.01,2.129,0,3.321,0V61.488c0-2.893-.01-5.786,0-8.689a3.9,3.9,0,1,1,7.8.01c.01,3.219,0,6.438,0,9.728h7.8v-1.07c0-2.893-.01-5.786,0-8.689a3.9,3.9,0,1,1,7.8.041c.01,3.219,0,6.428,0,9.789h2.761c2.944,0,4.462,1.508,4.462,4.421,0,3.158.01,6.306,0,9.463a19,19,0,0,1-14.394,18.489c-.7.183-.845.448-.845,1.11q.031,7.808.01,15.616c-.01,8.088-6.9,13.589-14.761,11.654-18.244-4.513-30.581-15.667-36.672-33.433-6.438-18.784-.061-40.737,15.178-53.521a49.894,49.894,0,0,1,26.8-11.582c25.589-3.005,49.793,14.72,54.55,39.963.418,2.2.652,4.421.968,6.642v6.051Zm-61.08-7.029c0,2.19-.031,4.258,0,6.336a11.206,11.206,0,0,0,21.28,4.676c1.762-3.545.937-7.3,1.161-11.012H144.023Z" transform="translate(38.877 8.506)"/>
    <path id="Path_3256-2" data-name="Path 3256" class="cls-2" d="M205.123,77.471c-.255,1.895-.407,3.81-.784,5.674q-5.18,26.282-29.572,37.416a3.893,3.893,0,1,1-3.015-7.171,41.841,41.841,0,0,0,21.362-20.465c11.878-24.316-2.384-53.8-28.808-59.562a42.274,42.274,0,0,0-50.475,32.9c-4.666,22.421,10.207,45.087,32.567,49.62a3.842,3.842,0,0,0,4.808-3.453c.092-5.725.031-11.44.031-17.226-.387-.112-.744-.234-1.11-.336a19.047,19.047,0,0,1-13.895-18.1c-.031-3.351-.02-6.7,0-10.054a3.86,3.86,0,0,1,4.1-4.1c1.07-.01,2.129,0,3.321,0V61.488c0-2.893-.01-5.786,0-8.689a3.9,3.9,0,1,1,7.8.01c.01,3.219,0,6.438,0,9.728h7.8v-1.07c0-2.893-.01-5.786,0-8.689a3.9,3.9,0,1,1,7.8.041c.01,3.219,0,6.428,0,9.789h2.761c2.944,0,4.462,1.508,4.462,4.421,0,3.158.01,6.306,0,9.463a19,19,0,0,1-14.394,18.489c-.7.183-.845.448-.845,1.11q.031,7.808.01,15.616c-.01,8.088-6.9,13.589-14.761,11.654-18.244-4.513-30.581-15.667-36.672-33.433-6.438-18.784-.061-40.737,15.178-53.521a49.894,49.894,0,0,1,26.8-11.582c25.589-3.005,49.793,14.72,54.55,39.963.418,2.2.652,4.421.968,6.642v6.051Zm-61.08-7.029c0,2.19-.031,4.258,0,6.336a11.206,11.206,0,0,0,21.28,4.676c1.762-3.545.937-7.3,1.161-11.012H144.023Z" transform="translate(42.877 5.506)"/>
  </g>
</svg>
