<?xml version="1.0" encoding="utf-8"?>
<!-- Generator: Adobe Illustrator 27.3.0, SVG Export Plug-In . SVG Version: 6.00 Build 0)  -->
<svg version="1.1" id="Layer_1" xmlns="http://www.w3.org/2000/svg" xmlns:xlink="http://www.w3.org/1999/xlink" x="0px" y="0px"
	 viewBox="0 0 100.9 103.6" style="enable-background:new 0 0 100.9 103.6;" xml:space="preserve">
<style type="text/css">
	.st0{fill:#395396;}
	.st1{fill:#FFFFFF;}
</style>
<g>
	<path class="st0" d="M29.4,88.3l-9.5,9.5c-1.1,1.1-1.1,3,0,4.1l0,0c1.1,1.1,3,1.1,4.1,0l9.5-9.5c1.1-1.1,1.1-3,0-4.1l0,0
		C32.3,87.1,30.5,87.1,29.4,88.3z"/>
	<path class="st0" d="M20.6,79.8l-18,18c-1.1,1.1-1.1,3,0,4.1l0,0c1.1,1.1,3,1.1,4.1,0l18-18c1.1-1.1,1.1-3,0-4.1l0,0
		C23.5,78.7,21.7,78.7,20.6,79.8z"/>
	<path class="st0" d="M12.1,71l-9.5,9.5c-1.1,1.1-1.1,3,0,4.1h0c1.1,1.1,3,1.1,4.1,0l9.5-9.5c1.1-1.1,1.1-3,0-4.1h0
		C15.1,69.9,13.2,69.9,12.1,71z"/>
	<path class="st0" d="M99.4,25.3C97.7,41.6,91.1,55.6,79.3,67c-1.6,1.5-3.2,2.9-4.8,4.4c-0.3,0.3-0.6,0.8-0.6,1.2
		c-0.4,4.6-0.7,9.2-1.1,13.8c-0.2,2.4-1.3,4.3-3.3,5.6c-5,3.3-10,6.7-15,9.9c-3.2,2.1-7.4,0.2-8-3.6c-0.6-3.8-1.2-7.5-1.8-11.3
		c0-0.2-0.1-0.5-0.2-0.6c-0.9,0-1.7,0.1-2.5,0c-2-0.2-3.6-1.1-5.1-2.5C31.5,78.5,26.1,73,20.6,67.6c-2-2-2.9-4.2-2.4-7
		c0-0.1,0-0.3,0-0.4c0-0.1,0-0.1-0.1-0.3c-1.9-0.3-3.8-0.6-5.7-0.9c-2.1-0.3-4.2-0.6-6.4-1c-3.7-0.6-5.6-4.7-3.6-7.8
		C5.8,45,9.2,39.9,12.7,34.7c1.3-1.9,3.2-2.9,5.4-3c4.5-0.4,9-0.7,13.5-1.1c0.8-0.1,1.3-0.4,1.7-0.9c5.6-6.5,11.9-12.2,19.4-16.4
		c7.7-4.4,16-6.9,24.7-8c2.3-0.3,4.7-0.5,7-0.8c2.6,0,5.2,0,7.9,0c0.2,0.1,0.4,0.1,0.6,0.2c3.4,0.4,6.4,2.6,6.8,6
		C100.5,17.6,99.6,23.6,99.4,25.3z M81,10.6c-7.5,0.7-14.8,2.4-21.7,5.7C45.7,23,35.8,33.5,28.8,46.7c-0.2,0.5-0.1,0.7,0.2,1.1
		c9.2,9.2,18.5,18.4,27.7,27.7c0.4,0.4,0.7,0.4,1.2,0.2c2.4-1.4,4.8-2.7,7.1-4.2c9.1-6.3,16.7-14.1,22-23.9
		c3.7-6.9,5.7-14.3,6.7-22.1c0.5-4.3,0.7-8.7,0.5-13c-0.1-1.5-0.7-2.1-2.1-2.1C90.4,10.3,83,10.4,81,10.6z M26,53.1
		c-0.6,2-1.2,4-1.6,5.9c-0.8,3.9-1,3.1,1.6,5.8c0,0,0,0,0.1,0.1c4.9,4.9,9.9,9.9,14.8,14.8c0.7,0.7,1.4,1.1,2.5,0.8
		c1.3-0.3,2.6-0.5,3.8-0.8c1.4-0.4,2.8-0.8,4.2-1.3C42.8,70,34.5,61.6,26,53.1L26,53.1z M52,96.5c0.2-0.1,0.3-0.1,0.3-0.1
		c4.6-3,9.2-6.1,13.8-9.2c0.4-0.3,0.8-0.9,0.9-1.5c0.2-1,0.2-2,0.3-3c0.2-2.1,0.3-4.1,0.5-6.4c-5.6,3.7-11.3,6.5-17.6,8.4
		C50.8,88.8,51.4,92.7,52,96.5L52,96.5z M7.9,52.4c0.2,0.1,0.2,0.1,0.3,0.1c3.6,0.6,7.2,1.1,10.8,1.7c0.7,0.1,0.8-0.3,0.9-0.8
		c1.7-5.6,4.3-10.8,7.4-15.7c0.2-0.3,0.4-0.6,0.6-1.1c-3.3,0.3-6.3,0.4-9.4,0.8c-0.6,0.1-1.3,0.7-1.7,1.2c-2.6,3.8-5.1,7.6-7.6,11.4
		C8.9,50.8,8.4,51.6,7.9,52.4L7.9,52.4z"/>
	<path class="st0" d="M54.6,35.5c0-8,6.4-14.4,14.3-14.4c7.9,0,14.4,6.4,14.5,14.4c0,7.9-6.4,14.4-14.4,14.4
		C61.1,49.8,54.7,43.4,54.6,35.5L54.6,35.5z M60.4,35.4c0,4.8,3.8,8.6,8.5,8.7c4.8,0,8.7-3.8,8.7-8.6c0-4.7-3.9-8.7-8.6-8.7
		C64.3,26.8,60.4,30.6,60.4,35.4z"/>
</g>
<g>
	<path class="st1" d="M19.6,76.1l-18,18c-1.1,1.1-1.1,3,0,4.1h0c1.1,1.1,3,1.1,4.1,0l18-18c1.1-1.1,1.1-3,0-4.1h0
		C22.5,75,20.7,75,19.6,76.1z"/>
	<path class="st1" d="M11.1,67.3l-9.5,9.5c-1.1,1.1-1.1,3,0,4.1l0,0c1.1,1.1,3,1.1,4.1,0l9.5-9.5c1.1-1.1,1.1-3,0-4.1l0,0
		C14.1,66.2,12.2,66.2,11.1,67.3z"/>
	<path class="st1" d="M28.3,84.6l-9.5,9.5c-1.1,1.1-1.1,3,0,4.1l0,0c1.1,1.1,3,1.1,4.1,0l9.5-9.5c1.1-1.1,1.1-3,0-4.1l0,0
		C31.3,83.4,29.5,83.4,28.3,84.6z"/>
	<path class="st1" d="M98.4,21.7c-1.7,16.3-8.4,30.2-20.2,41.6c-1.6,1.5-3.2,2.9-4.8,4.4c-0.3,0.3-0.6,0.8-0.6,1.2
		c-0.4,4.6-0.7,9.2-1.1,13.8c-0.2,2.4-1.3,4.3-3.3,5.6c-5,3.3-10,6.7-15,9.9c-3.2,2.1-7.4,0.2-8-3.6c-0.6-3.8-1.2-7.5-1.8-11.3
		c0-0.2-0.1-0.5-0.2-0.6c-0.9,0-1.7,0.1-2.5,0c-2-0.2-3.6-1.1-5.1-2.5c-5.4-5.4-10.8-10.9-16.3-16.3c-2-2-2.9-4.2-2.4-7
		c0-0.1,0-0.3,0-0.4c0-0.1,0-0.1-0.1-0.3c-1.9-0.3-3.8-0.6-5.7-0.9c-2.1-0.3-4.2-0.6-6.4-1c-3.7-0.6-5.6-4.7-3.6-7.8
		c3.3-5.2,6.7-10.3,10.2-15.4c1.3-1.9,3.2-2.9,5.4-3c4.5-0.4,9-0.7,13.5-1.1c0.8-0.1,1.3-0.4,1.7-0.9c5.6-6.5,11.9-12.2,19.4-16.4
		c7.7-4.4,16-6.9,24.7-8c5-0.6,12.7-0.8,15.6-0.6c3.5,0.2,6.3,1.2,7,7.5C99.4,12.3,98.6,19.9,98.4,21.7z M80,6.9
		c-7.5,0.7-14.8,2.4-21.7,5.7C44.7,19.3,34.8,29.8,27.8,43c-0.2,0.5-0.1,0.7,0.2,1.1c9.2,9.2,18.5,18.4,27.7,27.7
		c0.4,0.4,0.7,0.4,1.2,0.2c2.4-1.4,4.8-2.7,7.1-4.2c9.1-6.3,16.7-14.1,22-23.9c3.7-6.9,5.7-14.3,6.7-22.1c0.5-4.3,0.7-8.7,0.5-13
		c-0.1-1.5-0.7-2.1-2.1-2.1C89.4,6.6,82,6.7,80,6.9z M25,49.4c-0.6,2-1.2,4-1.6,5.9c-0.8,3.9-1,3.1,1.6,5.8c0,0,0,0,0.1,0.1
		C30,66.1,34.9,71,39.9,76c0.7,0.7,1.4,1.1,2.5,0.8c1.3-0.3,2.6-0.5,3.8-0.8c1.4-0.4,2.8-0.8,4.2-1.3C41.8,66.3,33.5,57.9,25,49.4
		L25,49.4z M51,92.8c0.2-0.1,0.3-0.1,0.3-0.1c4.6-3,9.2-6.1,13.8-9.2c0.4-0.3,0.8-0.9,0.9-1.5c0.2-1,0.2-2,0.3-3
		c0.2-2.1,0.3-4.1,0.5-6.4c-5.6,3.7-11.3,6.5-17.6,8.4C49.8,85.1,50.4,89,51,92.8L51,92.8z M6.9,48.7c0.2,0.1,0.2,0.1,0.3,0.1
		c3.6,0.6,7.2,1.1,10.8,1.7c0.7,0.1,0.8-0.3,0.9-0.8c1.7-5.6,4.3-10.8,7.4-15.7c0.2-0.3,0.4-0.6,0.6-1.1c-3.3,0.3-6.3,0.4-9.4,0.8
		c-0.6,0.1-1.3,0.7-1.7,1.2c-2.6,3.8-5.1,7.6-7.6,11.4C7.9,47.2,7.4,47.9,6.9,48.7L6.9,48.7z"/>
	<path class="st1" d="M53.6,31.8c0-8,6.4-14.4,14.3-14.4c7.9,0,14.4,6.4,14.5,14.4c0,7.9-6.4,14.4-14.4,14.4
		C60.1,46.1,53.7,39.7,53.6,31.8L53.6,31.8z M59.4,31.7c0,4.8,3.8,8.6,8.5,8.7c4.8,0,8.7-3.8,8.7-8.6c0-4.7-3.9-8.7-8.6-8.7
		C63.3,23.1,59.4,26.9,59.4,31.7z"/>
</g>
</svg>
