<?xml version="1.0" encoding="utf-8"?>
<!-- Generator: Adobe Illustrator 24.1.2, SVG Export Plug-In . SVG Version: 6.00 Build 0)  -->
<svg version="1.1" id="Layer_1" xmlns="http://www.w3.org/2000/svg" xmlns:xlink="http://www.w3.org/1999/xlink" x="0px" y="0px"
	 viewBox="0 0 640 640" style="enable-background:new 0 0 640 640;" xml:space="preserve">
<path d="M432.4,135.1c38,0,76,5.9,112.6,17.8c0,98.2,0,196.4,0,294.6c-36.6-11.9-74.6-17.8-112.6-17.8s-76,5.9-112.6,17.8l0,0
	c-36.6-11.9-74.6-17.8-112.6-17.8s-76,5.9-112.6,17.8c0-98.2,0-196.4,0-294.6c36.6-11.9,74.6-17.8,112.6-17.8s76,5.9,112.6,17.8l0,0
	C356.4,141.1,394.4,135.1,432.4,135.1z M432.4,105.1c-38.2,0-76.1,5.5-112.6,16.4c-36.6-10.9-74.4-16.4-112.6-16.4
	c-41.5,0-82.5,6.5-121.9,19.3l-20.7,6.7v357.8l39.3-12.8c33.4-10.9,68.2-16.4,103.4-16.4s69.9,5.5,103.4,16.4l9.3,3l9.3-3
	c33.4-10.9,68.2-16.4,103.4-16.4s69.9,5.5,103.4,16.4l39.3,12.8V131.2l-20.7-6.7C514.9,111.6,473.9,105.1,432.4,105.1L432.4,105.1
	L432.4,105.1z"/>
<path d="M320,534.9l-3.9-1.3c-35.1-11.4-71.7-17.2-108.7-17.2s-73.6,5.8-108.8,17.2l-7.7-23.8c37.7-12.2,76.9-18.5,116.5-18.5
	c38.3,0,76.1,5.8,112.6,17.2c36.5-11.4,74.4-17.2,112.6-17.2c39.6,0,78.8,6.2,116.5,18.5l-7.7,23.8c-35.2-11.4-71.8-17.2-108.8-17.2
	s-73.6,5.8-108.8,17.2L320,534.9L320,534.9z"/>
<path d="M307.5,148h25v311h-25V148z"/>
</svg>
