<?xml version="1.0" encoding="UTF-8"?>
<!DOCTYPE svg PUBLIC "-//W3C//DTD SVG 1.1//EN" "http://www.w3.org/Graphics/SVG/1.1/DTD/svg11.dtd">
<svg version="1.1" xmlns="http://www.w3.org/2000/svg" xmlns:xlink="http://www.w3.org/1999/xlink" x="0" y="0" width="420" height="129" viewBox="0, 0, 420, 129">
  <g id="Layer_1">
    <g>
      <path d="M289.467,59.784 L275.911,59.784 C272.627,59.784 269.955,57.111 269.955,53.825 L269.955,36.164 C269.955,32.878 272.627,30.205 275.911,30.205 L289.467,30.205 C290.531,30.205 291.394,31.07 291.394,32.132 C291.394,33.194 290.531,34.058 289.467,34.058 L275.911,34.058 C274.751,34.058 273.806,35.002 273.806,36.164 L273.806,42.904 L273.806,43.114 L274.016,43.114 L287.099,43.114 C288.106,43.114 288.924,43.934 288.924,44.941 C288.924,45.948 288.106,46.767 287.099,46.767 L274.016,46.767 L273.806,46.767 L273.806,46.976 L273.806,53.825 C273.806,54.986 274.751,55.93 275.911,55.93 L289.467,55.93 C290.531,55.93 291.394,56.794 291.394,57.858 C291.394,58.921 290.531,59.784 289.467,59.784 M215.13,60.173 C211.22,60.173 208.21,59.18 206.18,57.222 C204.151,55.266 203.122,52.326 203.122,48.481 L203.122,32.054 C203.122,30.822 204.123,29.82 205.354,29.82 C206.586,29.82 207.589,30.822 207.589,32.054 L207.589,47.893 C207.589,50.769 208.208,52.926 209.43,54.3 C210.658,55.683 212.576,56.384 215.13,56.384 C217.684,56.384 219.601,55.683 220.83,54.3 C222.051,52.924 222.671,50.768 222.671,47.893 L222.671,32.054 C222.671,30.822 223.673,29.82 224.905,29.82 C226.137,29.82 227.138,30.822 227.138,32.054 L227.138,48.481 C227.138,52.324 226.11,55.265 224.081,57.222 C222.049,59.18 219.037,60.173 215.13,60.173 M248.655,60.173 C243.622,60.173 239.789,58.742 237.262,55.92 C236.528,55.104 236.574,53.845 237.367,53.053 L237.381,53.037 C237.778,52.642 238.314,52.42 238.883,52.42 C239.483,52.42 240.048,52.676 240.433,53.124 C241.138,53.938 241.946,54.601 242.831,55.091 C244.377,55.949 246.321,56.384 248.611,56.384 C250.784,56.384 252.519,56.001 253.765,55.244 C255.049,54.469 255.702,53.35 255.702,51.919 C255.702,50.761 255.111,49.818 253.946,49.115 C252.814,48.434 250.904,47.847 248.108,47.324 C245.391,46.818 243.199,46.183 241.595,45.439 C240.008,44.705 238.843,43.786 238.13,42.708 C237.416,41.636 237.055,40.305 237.055,38.751 C237.055,37.111 237.515,35.597 238.423,34.252 C239.331,32.904 240.665,31.817 242.388,31.022 C244.114,30.224 246.163,29.82 248.477,29.82 C251.176,29.82 253.51,30.315 255.416,31.291 C256.698,31.945 257.858,32.848 258.863,33.97 C259.636,34.832 259.563,36.165 258.701,36.942 C258.313,37.293 257.812,37.485 257.292,37.485 C256.632,37.485 256.023,37.186 255.621,36.664 C255.049,35.921 254.405,35.315 253.703,34.865 C252.409,34.031 250.666,33.608 248.521,33.608 C246.406,33.608 244.734,34.04 243.555,34.892 C242.356,35.76 241.748,36.89 241.748,38.254 C241.748,39.531 242.345,40.557 243.52,41.305 C244.665,42.032 246.643,42.64 249.569,43.166 C252.227,43.645 254.363,44.255 255.922,44.983 C257.46,45.7 258.596,46.604 259.297,47.669 C259.994,48.731 260.347,50.07 260.347,51.649 C260.347,53.345 259.859,54.857 258.897,56.139 C257.928,57.429 256.55,58.435 254.803,59.124 C253.039,59.82 250.971,60.173 248.655,60.173 M181.826,60.181 C176.792,60.181 172.958,58.75 170.429,55.929 C169.698,55.112 169.744,53.853 170.536,53.062 L170.551,53.047 C170.947,52.651 171.482,52.429 172.053,52.429 C172.654,52.429 173.219,52.685 173.603,53.133 C174.306,53.945 175.112,54.607 175.998,55.099 C177.545,55.957 179.491,56.392 181.781,56.392 C183.953,56.392 185.687,56.009 186.935,55.253 C188.219,54.478 188.868,53.359 188.868,51.928 C188.868,50.769 188.279,49.825 187.116,49.125 C185.998,48.452 184.034,47.849 181.276,47.333 C178.56,46.825 176.37,46.191 174.763,45.448 C173.178,44.714 172.011,43.795 171.298,42.716 C170.586,41.642 170.225,40.312 170.225,38.759 C170.225,37.12 170.684,35.607 171.591,34.261 C172.5,32.911 173.835,31.825 175.556,31.031 C177.283,30.233 179.332,29.828 181.644,29.828 C184.344,29.828 186.68,30.323 188.586,31.298 C189.868,31.954 191.026,32.856 192.033,33.979 C192.805,34.84 192.732,36.174 191.871,36.951 C191.483,37.301 190.981,37.494 190.46,37.494 C189.801,37.494 189.191,37.194 188.789,36.672 C188.218,35.927 187.572,35.322 186.871,34.872 C185.576,34.039 183.833,33.617 181.69,33.617 C179.574,33.617 177.903,34.049 176.724,34.901 C175.525,35.771 174.918,36.901 174.918,38.262 C174.918,39.54 175.514,40.566 176.689,41.313 C177.833,42.039 179.812,42.65 182.739,43.176 C185.393,43.652 187.53,44.263 189.09,44.992 C190.63,45.709 191.766,46.613 192.466,47.677 C193.163,48.738 193.517,50.077 193.517,51.656 C193.517,53.354 193.029,54.864 192.066,56.147 C191.096,57.439 189.719,58.442 187.971,59.132 C186.209,59.829 184.141,60.181 181.826,60.181 M323.205,98.665 L323.16,98.665 C321.946,98.665 320.959,97.677 320.959,96.463 L320.959,85.886 L320.959,85.674 L320.749,85.674 L306.043,85.674 L305.833,85.674 L305.833,85.886 L305.833,96.463 C305.833,97.677 304.846,98.665 303.633,98.665 C302.419,98.665 301.432,97.677 301.432,96.463 L301.432,71.519 C301.432,70.305 302.419,69.317 303.633,69.317 C304.846,69.317 305.833,70.305 305.833,71.519 L305.833,81.737 L305.833,81.947 L306.043,81.947 L320.749,81.947 L320.959,81.947 L320.959,81.737 L320.959,71.519 C320.959,70.305 321.946,69.317 323.16,69.317 L323.205,69.317 C324.42,69.317 325.408,70.305 325.408,71.519 L325.408,96.463 C325.408,97.677 324.42,98.665 323.205,98.665 M177.022,73.002 C175.859,73.002 174.914,73.947 174.914,75.11 L174.914,82.955 L174.914,83.165 L175.124,83.165 L182.07,83.165 C184.064,83.165 185.58,82.746 186.579,81.92 C187.587,81.085 188.098,79.795 188.098,78.083 C188.098,76.368 187.587,75.078 186.578,74.246 C185.585,73.42 184.067,73.002 182.07,73.002 z M172.802,98.666 L172.664,98.666 C171.5,98.666 170.552,97.719 170.552,96.556 L170.552,75.359 C170.552,72.027 173.263,69.317 176.595,69.317 L182.477,69.317 C185.629,69.317 188.148,70.097 189.965,71.634 C191.77,73.162 192.687,75.315 192.687,78.034 C192.687,80.111 192.147,81.866 191.086,83.253 C190.022,84.638 188.486,85.637 186.522,86.223 L186.253,86.303 L186.406,86.539 L192.154,95.403 C192.582,96.063 192.613,96.87 192.237,97.56 C191.863,98.251 191.168,98.665 190.382,98.665 C189.655,98.665 188.988,98.299 188.598,97.685 L181.706,86.856 L181.643,86.759 L181.528,86.759 L175.124,86.759 L174.914,86.759 L174.914,86.969 L174.914,96.556 C174.914,97.719 173.966,98.666 172.802,98.666 M212.54,73.995 C212.256,73.995 212.012,74.168 211.92,74.438 L207.549,87.081 L207.452,87.359 L207.747,87.359 L217.441,87.359 L217.739,87.359 L217.639,87.08 L213.158,74.434 C213.066,74.167 212.822,73.995 212.54,73.995 M223.573,98.666 L223.228,98.666 C222.387,98.666 221.63,98.134 221.346,97.341 L219.084,91.004 L219.034,90.865 L218.886,90.865 L206.347,90.865 L206.2,90.865 L206.149,91.003 L203.835,97.351 C203.549,98.138 202.793,98.666 201.955,98.666 L201.736,98.666 C201.069,98.666 200.469,98.352 200.089,97.803 C199.71,97.256 199.629,96.583 199.864,95.96 L208.945,71.88 C209.522,70.346 211.013,69.317 212.656,69.317 C214.296,69.317 215.786,70.346 216.364,71.88 L225.447,95.96 C225.682,96.585 225.599,97.256 225.221,97.803 C224.842,98.352 224.241,98.666 223.573,98.666 M254.211,98.666 L254.165,98.666 C252.966,98.666 251.842,98.026 251.233,96.995 L238.693,75.921 C238.572,75.718 238.363,75.599 238.133,75.599 C237.954,75.599 237.78,75.671 237.658,75.796 C237.537,75.918 237.47,76.084 237.472,76.262 L237.636,96.668 C237.636,97.769 236.74,98.666 235.637,98.666 C234.534,98.666 233.636,97.769 233.636,96.667 L233.636,72.73 C233.636,70.848 235.167,69.317 237.051,69.317 C238.249,69.317 239.373,69.957 239.983,70.988 L252.48,92.065 C252.602,92.272 252.805,92.388 253.039,92.388 C253.366,92.388 253.703,92.142 253.703,91.728 L253.594,71.344 C253.589,70.805 253.796,70.295 254.175,69.911 C254.557,69.528 255.064,69.317 255.605,69.317 C256.717,69.317 257.621,70.22 257.621,71.331 L257.621,95.255 C257.621,97.136 256.092,98.666 254.211,98.666 M373.718,73.002 C372.556,73.002 371.61,73.947 371.61,75.11 L371.61,82.955 L371.61,83.165 L371.819,83.165 L378.766,83.165 C380.76,83.165 382.277,82.746 383.276,81.92 C384.284,81.085 384.795,79.795 384.795,78.083 C384.795,76.368 384.284,75.078 383.276,74.246 C382.28,73.42 380.763,73.002 378.766,73.002 z M369.497,98.666 L369.36,98.666 C368.195,98.666 367.247,97.719 367.247,96.556 L367.247,75.359 C367.247,72.027 369.959,69.317 373.29,69.317 L379.173,69.317 C382.324,69.317 384.844,70.097 386.66,71.634 C388.467,73.162 389.382,75.315 389.382,78.034 C389.382,80.109 388.843,81.865 387.782,83.253 C386.719,84.637 385.183,85.636 383.218,86.223 L382.95,86.303 L383.103,86.539 L388.849,95.403 C389.278,96.063 389.309,96.869 388.934,97.56 C388.559,98.251 387.866,98.665 387.077,98.665 C386.35,98.665 385.683,98.299 385.294,97.685 L378.401,86.856 L378.34,86.759 L378.223,86.759 L371.819,86.759 L371.61,86.759 L371.61,86.969 L371.61,96.556 C371.61,97.719 370.662,98.666 369.497,98.666 M356.111,98.785 L342.555,98.785 C339.27,98.785 336.596,96.111 336.596,92.825 L336.596,75.165 C336.596,71.878 339.27,69.204 342.555,69.204 L356.111,69.204 C357.175,69.204 358.039,70.068 358.039,71.131 C358.039,72.191 357.175,73.055 356.111,73.055 L342.555,73.055 C341.395,73.055 340.451,74 340.451,75.163 L340.451,81.901 L340.451,82.111 L340.661,82.111 L353.742,82.111 C354.749,82.111 355.567,82.932 355.567,83.94 C355.567,84.946 354.749,85.764 353.742,85.764 L340.661,85.764 L340.451,85.764 L340.451,85.976 L340.451,92.823 C340.451,93.984 341.395,94.929 342.555,94.929 L356.111,94.929 C357.175,94.929 358.039,95.795 358.039,96.859 C358.039,97.921 357.175,98.785 356.111,98.785 M281.12,99.116 C278.313,99.116 275.844,98.502 273.783,97.294 C271.724,96.089 270.113,94.328 268.993,92.058 C267.871,89.782 267.301,87.067 267.301,83.987 C267.301,80.909 267.871,78.193 268.993,75.915 C270.111,73.65 271.722,71.889 273.783,70.68 C275.844,69.472 278.298,68.859 281.077,68.859 C284,68.859 286.49,69.471 288.478,70.678 C289.703,71.422 290.731,72.397 291.536,73.583 C291.895,74.111 292,74.768 291.825,75.385 C291.647,76.009 291.208,76.517 290.617,76.782 L290.535,76.816 C290.24,76.947 289.931,77.014 289.613,77.014 C288.844,77.014 288.133,76.617 287.758,75.977 C287.25,75.114 286.637,74.421 285.937,73.914 C284.765,73.064 283.221,72.633 281.348,72.633 C278.503,72.633 276.195,73.653 274.489,75.66 C272.794,77.659 271.936,80.461 271.936,83.985 C271.936,87.536 272.755,90.344 274.371,92.328 C276,94.323 278.287,95.336 281.165,95.336 C283.132,95.336 284.805,94.836 286.138,93.851 C286.994,93.223 287.708,92.391 288.26,91.381 C288.645,90.67 289.379,90.229 290.177,90.229 C290.409,90.229 290.638,90.266 290.859,90.34 C291.495,90.553 291.993,91.038 292.224,91.668 C292.447,92.276 292.387,92.938 292.058,93.48 C291.203,94.896 290.07,96.077 288.696,96.988 C286.563,98.4 284.015,99.116 281.12,99.116" fill="#FFFFFF"/>
      <path d="M148.95,57.671 C150.139,57.671 151.18,57.212 151.886,56.378 C152.588,55.548 152.865,54.451 152.668,53.291 L151.323,45.28 C150.864,42.532 149.832,40.778 149.326,40.778 C148.809,40.778 148.086,42.499 148.086,45.301 L148.086,47.395 C148.086,50.075 145.822,52.338 143.143,52.338 L141.047,52.338 L140.826,52.338 L140.826,57.671 L141.047,57.671 z M124.861,98.112 L109.264,98.112 C107.781,98.112 106.575,96.901 106.575,95.417 L106.575,83.694 C106.575,81.977 105.178,80.581 103.46,80.581 L64.528,80.581 C62.811,80.581 61.413,81.977 61.413,83.694 L61.413,95.417 C61.413,96.929 60.228,98.112 58.719,98.112 L43.126,98.112 C41.642,98.112 40.434,96.901 40.434,95.417 L40.434,61.756 L40.434,61.323 L40.096,61.59 L33.048,67.128 C32.95,67.194 32.823,67.235 32.703,67.235 C32.596,67.235 32.445,67.202 32.318,67.051 L30.328,64.686 C30.181,64.505 30.168,64.279 30.293,64.07 L40.611,48.321 C41.102,47.294 42.018,46.695 43.071,46.695 L98.029,46.695 C98.798,46.695 99.527,47.034 100.034,47.624 C100.561,48.234 100.791,49.042 100.67,49.844 L99.541,56.561 C99.401,57.483 99.668,58.412 100.27,59.115 C100.859,59.798 101.707,60.19 102.602,60.19 L113.623,60.19 C115.124,60.19 116.38,59.148 116.677,57.655 L116.746,57.31 L116.41,57.413 C115.73,57.624 114.993,57.728 114.215,57.728 L106.363,57.728 C105.151,57.728 104.091,57.265 103.382,56.428 C102.674,55.592 102.391,54.477 102.59,53.291 L103.936,45.28 C104.376,42.628 105.341,40.78 105.933,40.78 C106.451,40.78 107.172,42.501 107.172,45.301 L107.172,46.536 L107.172,46.879 L107.478,46.724 C107.539,46.691 107.691,46.691 107.814,46.691 L133.999,46.691 C136.493,46.691 138.527,48.705 138.631,51.277 L138.631,75.893 C138.631,78.346 136.559,80.417 134.11,80.417 L121.363,80.417 C118.914,80.417 116.846,78.346 116.846,75.893 L116.846,66.215 L116.846,65.792 L116.508,66.049 C115.257,67.004 114.541,68.436 114.541,69.98 L114.541,78.102 C114.541,80.78 116.804,83.044 119.482,83.044 L127.554,83.044 L127.554,95.417 C127.554,96.901 126.346,98.112 124.861,98.112" fill="#30BA78"/>
    </g>
  </g>
</svg>
