<?xml version="1.0" encoding="UTF-8"?>
<svg version="1.1" viewBox="0 0 359.59 69.717" xmlns="http://www.w3.org/2000/svg" xmlns:cc="http://creativecommons.org/ns#" xmlns:dc="http://purl.org/dc/elements/1.1/" xmlns:rdf="http://www.w3.org/1999/02/22-rdf-syntax-ns#">
<metadata>
<rdf:RDF>
<cc:Work rdf:about="">
<dc:format>image/svg+xml</dc:format>
<dc:type rdf:resource="http://purl.org/dc/dcmitype/StillImage"/>
</cc:Work>
</rdf:RDF>
</metadata>
<g transform="translate(-29.998 -29.614)">
<path d="m323.2 69.111h-0.043c-1.331 0-2.412 1.079-2.412 2.412v10.218h-14.705v-10.218c0-1.331-1.077-2.412-2.41-2.412-1.332 0-2.412 1.079-2.412 2.412v24.944c0 1.33 1.078 2.412 2.412 2.412 1.331 0 2.41-1.08 2.41-2.412v-10.577h14.705v10.577c0 1.33 1.076 2.412 2.412 2.412h0.043c1.332 0 2.414-1.08 2.414-2.412v-24.944c0-1.331-1.082-2.412-2.414-2.412m-30.966 24.484c0.779-1.288 0.117-2.971-1.312-3.449-1.101-0.368-2.297 0.118-2.85 1.138-0.536 0.985-1.221 1.786-2.062 2.403-1.305 0.964-2.925 1.443-4.849 1.443-2.828 0-5.036-0.978-6.63-2.931-1.592-1.954-2.389-4.692-2.389-8.21 0-3.491 0.834-6.218 2.503-8.188 1.671-1.967 3.904-2.953 6.699-2.953 1.836 0 3.323 0.412 4.467 1.241 0.683 0.494 1.27 1.162 1.762 1.999 0.611 1.041 1.936 1.419 3.04 0.927l0.086-0.036c1.349-0.605 1.837-2.287 1.008-3.511-0.825-1.212-1.866-2.202-3.124-2.965-2.03-1.233-4.533-1.85-7.509-1.85-2.83 0-5.299 0.617-7.401 1.85-2.105 1.236-3.728 3.008-4.872 5.324-1.141 2.316-1.713 5.037-1.713 8.165s0.572 5.849 1.713 8.163c1.144 2.318 2.767 4.093 4.872 5.325 2.107 1.236 4.586 1.851 7.444 1.851 2.947 0 5.511-0.72 7.692-2.163 1.407-0.934 2.547-2.122 3.425-3.573m-38.026 5.286c1.998 0 3.619-1.619 3.619-3.622v-23.924c0-1.228-0.995-2.224-2.225-2.224-1.235 0-2.232 1.005-2.223 2.24l0.111 20.382c0 0.455-0.6 0.623-0.833 0.231l-12.498-21.078c-0.65-1.101-1.836-1.775-3.112-1.775-2.004 0-3.625 1.623-3.625 3.623v23.937c0 1.223 0.991 2.21 2.212 2.21 1.22 0 2.21-0.987 2.21-2.21l-0.165-20.406c-6e-3 -0.458 0.597-0.623 0.831-0.233l12.539 21.074c0.651 1.101 1.836 1.775 3.113 1.775h0.046m-36.771-11.727-4.48-12.645c-0.141-0.4-0.705-0.397-0.842 2e-3l-4.371 12.643zm1.446 3.925h-12.54l-2.314 6.348c-0.317 0.874-1.15 1.454-2.077 1.454h-0.22c-1.545 0-2.615-1.544-2.069-2.99l9.082-24.08c0.612-1.624 2.169-2.7 3.907-2.7 1.737 0 3.292 1.076 3.905 2.7l9.082 24.08c0.546 1.446-0.523 2.99-2.069 2.99h-0.345c-0.932 0-1.765-0.586-2.081-1.465zm152.93-8.119h6.945c1.956 0 3.413-0.4 4.376-1.197s1.444-2.022 1.444-3.676c0-1.653-0.481-2.88-1.444-3.675-0.963-0.799-2.42-1.195-4.376-1.195h-5.048c-1.048 0-1.897 0.85-1.897 1.897zm6.403 4.014h-6.403v9.586c0 1.283-1.04 2.321-2.323 2.321h-0.139c-1.282 0-2.321-1.038-2.321-2.321v-21.197c0-3.452 2.8-6.252 6.253-6.252h5.882c3.219 0 5.759 0.789 7.623 2.367 1.865 1.578 2.796 3.765 2.796 6.561 0 2.137-0.55 3.918-1.643 5.346-1.098 1.43-2.654 2.443-4.669 3.044l5.745 8.864c1.005 1.544-0.105 3.586-1.946 3.586-0.795 0-1.536-0.405-1.962-1.076zm-203.1-4.014h6.946c1.953 0 3.412-0.4 4.375-1.197s1.443-2.022 1.443-3.676c0-1.653-0.48-2.88-1.443-3.675-0.963-0.799-2.422-1.195-4.375-1.195h-5.049c-1.047 0-1.897 0.85-1.897 1.897zm6.404 4.014h-6.404v9.586c0 1.283-1.04 2.321-2.323 2.321h-0.137c-1.284 0-2.323-1.038-2.323-2.321v-21.197c0-3.452 2.799-6.252 6.254-6.252h5.881c3.218 0 5.759 0.789 7.624 2.367 1.864 1.578 2.796 3.765 2.796 6.561 0 2.137-0.551 3.918-1.644 5.346-1.098 1.43-2.655 2.443-4.671 3.044l5.748 8.864c1.002 1.544-0.106 3.586-1.947 3.586-0.795 0-1.535-0.405-1.961-1.076zm174.58 7.75h-13.556c-1.045 0-1.894-0.852-1.894-1.897v-6.848h13.08c1.125 0 2.036-0.912 2.036-2.034 0-1.127-0.911-2.04-2.036-2.04h-13.08v-6.738c0-1.048 0.849-1.898 1.894-1.898h13.556c1.179 0 2.137-0.955 2.137-2.134s-0.958-2.136-2.137-2.136h-13.556c-3.4 0-6.169 2.766-6.169 6.17v17.661c0 3.401 2.769 6.17 6.169 6.17h13.556c1.179 0 2.137-0.956 2.137-2.137 0-1.184-0.958-2.139-2.137-2.139m-66.644-38.999h-13.556c-1.044 0-1.896-0.849-1.896-1.895v-6.848h13.083c1.124 0 2.037-0.912 2.037-2.037s-0.913-2.036-2.037-2.036h-13.083v-6.739c0-1.047 0.852-1.897 1.896-1.897h13.556c1.18 0 2.138-0.957 2.138-2.137s-0.958-2.136-2.138-2.136h-13.556c-3.4 0-6.168 2.766-6.168 6.17v17.66c0 3.4 2.768 6.169 6.168 6.169h13.556c1.18 0 2.138-0.957 2.138-2.137s-0.958-2.137-2.138-2.137m-39.861-12.761c-2.865-0.514-4.858-1.124-5.974-1.832-1.116-0.709-1.675-1.667-1.675-2.874 0-1.297 0.573-2.36 1.72-3.19s2.76-1.245 4.844-1.245c2.11 0 3.801 0.407 5.069 1.223 0.681 0.438 1.303 1.021 1.863 1.75 0.826 1.07 2.384 1.211 3.389 0.307 0.946-0.854 1.029-2.318 0.178-3.268-1.028-1.148-2.198-2.057-3.509-2.727-1.945-0.996-4.291-1.494-7.035-1.494-2.355 0-4.414 0.408-6.177 1.222-1.765 0.815-3.118 1.916-4.051 3.304-0.937 1.387-1.404 2.926-1.404 4.616 0 1.599 0.368 2.957 1.11 4.073 0.737 1.116 1.923 2.052 3.551 2.805 1.629 0.755 3.816 1.389 6.563 1.901 2.746 0.514 4.667 1.101 5.769 1.764 1.102 0.665 1.654 1.539 1.654 2.625 0 1.359-0.612 2.407-1.836 3.145-1.219 0.741-2.902 1.109-5.043 1.109-2.264 0-4.157-0.421-5.681-1.266-0.87-0.483-1.649-1.124-2.34-1.92-0.868-1.009-2.425-1.031-3.364-0.091l-9e-3 8e-3c-0.86 0.86-0.926 2.251-0.114 3.156 2.582 2.882 6.433 4.322 11.552 4.322 2.353 0 4.427-0.354 6.223-1.063 1.795-0.708 3.189-1.727 4.185-3.055 0.997-1.328 1.494-2.867 1.494-4.616 0-1.629-0.362-2.993-1.086-4.095-0.725-1.101-1.877-2.021-3.462-2.761-1.583-0.739-3.719-1.35-6.404-1.833m-66.831 0.01c-2.865-0.516-4.858-1.124-5.974-1.833-1.116-0.711-1.674-1.667-1.674-2.875 0-1.296 0.574-2.36 1.719-3.191 1.147-0.828 2.762-1.243 4.844-1.243 2.11 0 3.8 0.406 5.068 1.221 0.683 0.439 1.304 1.022 1.864 1.753 0.825 1.069 2.384 1.209 3.39 0.306 0.946-0.855 1.028-2.318 0.177-3.269-1.028-1.147-2.199-2.057-3.508-2.727-1.946-0.996-4.293-1.493-7.037-1.493-2.353 0-4.412 0.407-6.176 1.222-1.766 0.814-3.117 1.916-4.052 3.303-0.935 1.388-1.402 2.927-1.402 4.617 0 1.598 0.368 2.957 1.108 4.072 0.74 1.117 1.925 2.052 3.553 2.806 1.629 0.754 3.816 1.388 6.562 1.901 2.745 0.513 4.668 1.101 5.77 1.765 1.1 0.663 1.652 1.538 1.652 2.624 0 1.358-0.612 2.407-1.833 3.145-1.222 0.74-2.904 1.109-5.045 1.109-2.264 0-4.157-0.421-5.681-1.267-0.87-0.482-1.649-1.124-2.338-1.921-0.868-1.007-2.427-1.03-3.367-0.09l-8e-3 9e-3c-0.86 0.859-0.925 2.251-0.114 3.156 2.582 2.882 6.433 4.322 11.553 4.322 2.352 0 4.426-0.355 6.221-1.064 1.796-0.708 3.19-1.727 4.187-3.054 0.996-1.327 1.493-2.867 1.493-4.616 0-1.629-0.362-2.993-1.087-4.095-0.724-1.102-1.876-2.022-3.462-2.761-1.583-0.74-3.718-1.351-6.403-1.832m44.573-10.916v16.429c0 3.921-1.042 6.885-3.121 8.891-2.084 2.007-5.115 3.009-9.097 3.009-3.984 0-7.016-1.002-9.097-3.009-2.081-2.006-3.122-4.97-3.122-8.891v-16.429c0-1.349 1.094-2.444 2.443-2.444 1.348 0 2.445 1.095 2.445 2.444v15.839c0 2.837 0.594 4.925 1.787 6.269 1.192 1.341 3.039 2.012 5.544 2.012s4.351-0.671 5.543-2.012c1.191-1.344 1.787-3.432 1.787-6.269v-15.839c0-1.349 1.095-2.444 2.445-2.444 1.348 0 2.443 1.095 2.443 2.444" fill="#ffffff"/>
<path d="m134 46.482h-26.186c-0.161 0-0.324 0-0.431 0.055v-1.236c0-2.583-0.645-4.732-1.45-4.732s-1.774 2.099-2.204 4.676l-1.345 8.012c-0.43 2.583 1.345 4.681 3.98 4.681h7.851c0.806 0 1.56-0.109 2.257-0.324-0.269 1.345-1.397 2.367-2.847 2.367h-11.023c-1.776 0-3.121-1.615-2.851-3.385l1.127-6.723c0.269-1.774-1.075-3.388-2.847-3.388h-54.959c-1.182 0-2.15 0.701-2.634 1.719l-10.324 15.759c-0.161 0.269-0.161 0.591 0.055 0.858l1.989 2.366c0.27 0.324 0.699 0.324 1.02 0.107l7.047-5.537v33.66c0 1.615 1.289 2.906 2.901 2.906h15.594c1.614 0 2.903-1.291 2.903-2.906v-11.724c0-1.615 1.291-2.902 2.905-2.902h38.933c1.613 0 2.905 1.287 2.905 2.902v11.724c0 1.615 1.288 2.906 2.9 2.906h15.595c1.614 0 2.903-1.291 2.903-2.906v-12.584h-8.281c-2.581 0-4.73-2.152-4.73-4.731v-8.123c0-1.555 0.753-2.901 1.882-3.763v9.677c0 2.582 2.151 4.733 4.73 4.733h12.745c2.582 0 4.73-2.151 4.73-4.733v-24.625c-0.107-2.688-2.202-4.786-4.84-4.786m18.877 6.775c0.428 2.529-1.342 4.623-3.927 4.623h-8.333v-5.752h2.527c2.582 0 4.731-2.15 4.731-4.733v-2.094c0-2.581 0.644-4.733 1.451-4.733 0.75 0 1.776 2.1 2.206 4.677l1.345 8.012" fill="#30ba78"/>
</g>
</svg>
