<?xml version="1.0" encoding="UTF-8" standalone="no"?>
<svg
   id="Layer_1"
   data-name="Layer 1"
   viewBox="0 0 3058 200.00002"
   version="1.1"
   width="3058"
   height="200.00002"
   xml:space="preserve"
   xmlns:xlink="http://www.w3.org/1999/xlink"
   xmlns="http://www.w3.org/2000/svg"
   xmlns:svg="http://www.w3.org/2000/svg"><defs
     id="defs137"><style
       id="style132">
      .cls-1 {
        fill: #30ba78;
      }

      .cls-1, .cls-2, .cls-3, .cls-4, .cls-5, .cls-6, .cls-7, .cls-8, .cls-9, .cls-10, .cls-11, .cls-12, .cls-13 {
        stroke: #0a112b;
        stroke-linejoin: round;
      }

      .cls-1, .cls-2, .cls-3, .cls-4, .cls-6, .cls-7, .cls-9, .cls-10, .cls-11, .cls-12, .cls-13 {
        stroke-width: 4px;
      }

      .cls-2 {
        fill: #efefef;
      }

      .cls-14, .cls-13 {
        fill: #0b41b7;
      }

      .cls-3 {
        fill: #fff;
      }

      .cls-4 {
        fill: #c8dafc;
      }

      .cls-5 {
        fill: #81aefc;
        stroke-width: 4.18px;
      }

      .cls-6 {
        fill: #e6edfe;
      }

      .cls-7, .cls-8 {
        fill: #3c8eef;
      }

      .cls-8 {
        stroke-width: 4.13px;
      }

      .cls-9 {
        fill: none;
      }

      .cls-10 {
        fill: #30ba78;
      }

      .cls-11 {
        fill: #2453ff;
      }

      .cls-12 {
        fill: #2453ff;
      }

      .cls-15 {
        clip-path: url(#clippath);
      }
    </style><linearGradient
       xlink:href="#linearGradient5118"
       id="linearGradient5120"
       x1="4283.9194"
       y1="304.95584"
       x2="1946.5569"
       y2="276.35211"
       gradientUnits="userSpaceOnUse"
       gradientTransform="matrix(1,0,0,1.0007847,-142.93852,-2522.7574)" /><linearGradient
       id="linearGradient5118"><stop
         style="stop-color:#1a4096;stop-opacity:1;"
         offset="0"
         id="stop5114" /><stop
         style="stop-color:#1a4096;stop-opacity:0.08;"
         offset="1"
         id="stop5116" /></linearGradient></defs><rect
     style="fill:#1a4096;fill-opacity:0.07843138;stroke:none;stroke-width:2;stroke-linecap:round;stroke-linejoin:round;stroke-opacity:1"
     id="rect9906-3-3"
     width="1059"
     height="200"
     x="0"
     y="-200"
     transform="scale(1,-1)" /><polygon
     class="cls-5"
     points="4294.04,-15.1 1768.5,-15.1 1768.5,647.07 4294.04,648.11 "
     id="polygon139-9"
     style="fill:url(#linearGradient5120);fill-opacity:1;stroke:none;stroke-width:4.18164px;stroke-linejoin:round;stroke-dasharray:none;stroke-opacity:1"
     transform="matrix(0.79190988,0,0,0.30156361,-341.49261,4.55362)" /><path
     class="cls-11"
     d="m 2001.6379,86.27635 c 0,0 0,-0.036 0,-0.0629 0,-11.17456 -9.0529,-20.22747 -20.2274,-20.22747 -0.09,0 -0.1708,0 -0.2608,0 -4.1623,-11.78588 -15.3998,-20.23647 -28.6061,-20.23647 -14.6897,0 -26.943,10.44637 -29.7389,24.30893 -3.3892,-2.56215 -7.6145,-4.08146 -12.1904,-4.08146 -11.1745,0 -20.2275,9.05292 -20.2275,20.22748 0,0.018 0,0.036 0,0.0629 h 111.2511 z"
     id="path5404-3-04"
     style="fill:#2453ff;fill-opacity:0.06;stroke:none;stroke-width:4.00001px;stroke-linejoin:round;stroke-miterlimit:10" /><path
     class="cls-11"
     d="m 1578.5628,78.16354 c 0,0 0,-0.036 0,-0.0629 0,-11.17455 -9.0528,-20.22748 -20.2274,-20.22748 -0.09,0 -0.1708,0 -0.2607,0 -4.1623,-11.78587 -15.3999,-20.23646 -28.6061,-20.23646 -14.6897,0 -26.943,10.44637 -29.7389,24.30893 -3.3893,-2.56215 -7.6145,-4.08146 -12.1904,-4.08146 -11.1746,0 -20.2275,9.05292 -20.2275,20.22747 0,0.018 0,0.036 0,0.0629 h 111.251 z"
     id="path5404-3-1-5"
     style="fill:#2453ff;fill-opacity:0.04;stroke:none;stroke-width:4.00001px;stroke-linejoin:round;stroke-miterlimit:10" /><path
     class="cls-11"
     d="m 1426.0989,144.1473 c 0,0 0,-0.036 0,-0.0629 0,-11.17456 -9.0529,-20.22748 -20.2275,-20.22748 -0.09,0 -0.1708,0 -0.2607,0 -4.1624,-11.78587 -15.3998,-20.23646 -28.6061,-20.23646 -14.6896,0 -26.943,10.44637 -29.7389,24.30893 -3.3892,-2.56215 -7.6146,-4.08146 -12.1905,-4.08146 -11.1745,0 -20.2274,9.05292 -20.2274,20.22747 0,0.018 0,0.036 0,0.0629 h 111.2511 z"
     id="path5404-3-1-5-7"
     style="fill:#2453ff;fill-opacity:0.03;stroke:none;stroke-width:4.00001px;stroke-linejoin:round;stroke-miterlimit:10" /><path
     class="cls-11"
     d="m 1698.5267,142.84316 c 0,0 0,-0.0512 0,-0.0894 0,-15.88485 12.6713,-28.75376 28.3124,-28.75376 0.1257,0 0.239,0 0.3649,0 5.826,-16.75384 21.5551,-28.76653 40.04,-28.76653 20.5611,0 37.7122,14.84972 41.6256,34.55563 4.7438,-3.64214 10.658,-5.80187 17.0629,-5.80187 15.641,0 28.3124,12.86889 28.3124,28.75375 0,0.0256 0,0.0512 0,0.0894 h -155.7182 z"
     id="path5404-3-0-7"
     style="fill:#2453ff;fill-opacity:0.05;stroke:none;stroke-width:4.00001px;stroke-linejoin:round;stroke-miterlimit:10" /><path
     id="path14116-5-8-4"
     style="display:inline;fill:#5fa2ff;fill-opacity:0.4;stroke:none;stroke-width:2.2;stroke-linecap:round;stroke-linejoin:round;stroke-dasharray:none;stroke-opacity:1"
     d="m 2113.672,0 c -44.5801,62.15595 -82.5173,129.14555 -113.1446,199.79102 l 305.7969,0.0469 C 2333.8933,126.43436 2373.3474,58.749853 2423.9839,0 Z" /><path
     id="path14116-5"
     style="fill:#5e94e4;fill-opacity:1;stroke:#001d61;stroke-width:2.2;stroke-linecap:round;stroke-linejoin:round;stroke-dasharray:none;stroke-opacity:1"
     d="m 2798.4283,14.1 a 182.42931,183.30664 0 0 0 -182.4278,183.30664 182.42931,183.30664 0 0 0 0.049,0.6875 h 364.7597 a 182.42931,183.30664 0 0 0 0.049,-0.6875 A 182.42931,183.30664 0 0 0 2798.4284,14.1 Z" /><g
     id="g31339"><rect
       class="cls-2"
       x="2752.1609"
       y="59.045517"
       width="92.608856"
       height="79.949463"
       id="rect143"
       style="fill:#e6edfe;fill-opacity:1;stroke:#0a112b;stroke-width:1;stroke-dasharray:none;stroke-opacity:1" /><g
       id="g13933"
       transform="matrix(0.31621148,0,0,0.31173027,1775.8169,-0.1084187)"
       style="stroke:#0a112b;stroke-width:3.18509;stroke-dasharray:none;stroke-opacity:1"><line
         class="cls-9"
         x1="3124.03"
         y1="226.39999"
         x2="3124.03"
         y2="208.14"
         id="line145"
         style="stroke:#0a112b;stroke-width:3.18509;stroke-dasharray:none;stroke-opacity:1" /><line
         class="cls-9"
         x1="3160.6699"
         y1="226.39999"
         x2="3160.6699"
         y2="208.14"
         id="line147"
         style="stroke:#0a112b;stroke-width:3.18509;stroke-dasharray:none;stroke-opacity:1" /><line
         class="cls-9"
         x1="3197.3101"
         y1="226.39999"
         x2="3197.3101"
         y2="208.14"
         id="line149"
         style="stroke:#0a112b;stroke-width:3.18509;stroke-dasharray:none;stroke-opacity:1" /><line
         class="cls-9"
         x1="3233.95"
         y1="226.39999"
         x2="3233.95"
         y2="208.14"
         id="line151"
         style="stroke:#0a112b;stroke-width:3.18509;stroke-dasharray:none;stroke-opacity:1" /><line
         class="cls-9"
         x1="3270.5901"
         y1="226.39999"
         x2="3270.5901"
         y2="208.14"
         id="line153"
         style="stroke:#0a112b;stroke-width:3.18509;stroke-dasharray:none;stroke-opacity:1" /><line
         class="cls-9"
         x1="3307.22"
         y1="226.39999"
         x2="3307.22"
         y2="208.14"
         id="line155"
         style="stroke:#0a112b;stroke-width:3.18509;stroke-dasharray:none;stroke-opacity:1" /><line
         class="cls-9"
         x1="3343.8601"
         y1="226.39999"
         x2="3343.8601"
         y2="208.14"
         id="line157"
         style="stroke:#0a112b;stroke-width:3.18509;stroke-dasharray:none;stroke-opacity:1" /></g><rect
       class="cls-6"
       x="3050.76"
       y="134.81"
       width="366.38"
       height="54.959999"
       id="rect161"
       style="stroke:#0a112b;stroke-width:3.18509;stroke-dasharray:none;stroke-opacity:1"
       transform="matrix(0.31621148,0,0,0.31173027,1775.8169,1.8915813)" /><rect
       class="cls-11"
       x="3050.76"
       y="153.09"
       width="366.38"
       height="18.32"
       id="rect163"
       style="fill:#4768e5;fill-opacity:1;stroke:#0a112b;stroke-width:3.18509;stroke-dasharray:none;stroke-opacity:1"
       transform="matrix(0.31621148,0,0,0.31173027,1775.8169,1.8915813)" /><rect
       class="cls-6"
       x="3124.03"
       y="116.49"
       width="219.83"
       height="18.32"
       id="rect165"
       style="stroke:#0a112b;stroke-width:3.18509;stroke-dasharray:none;stroke-opacity:1"
       transform="matrix(0.31621148,0,0,0.31173027,1775.8169,1.8915813)" /><rect
       class="cls-11"
       x="3014.1201"
       y="354.64001"
       width="109.91"
       height="54.959999"
       id="rect167"
       style="stroke:#0a112b;stroke-width:3.18509;stroke-dasharray:none;stroke-opacity:1"
       transform="matrix(0.31621148,0,0,0.31173027,1775.8169,1.8915813)" /><rect
       class="cls-10"
       x="3124.03"
       y="354.64001"
       width="109.91"
       height="54.959999"
       id="rect169"
       style="stroke:#0a112b;stroke-width:3.18509;stroke-dasharray:none;stroke-opacity:1"
       transform="matrix(0.31621148,0,0,0.31173027,1775.8169,1.8915813)" /><rect
       class="cls-10"
       x="3233.95"
       y="354.64001"
       width="109.91"
       height="54.959999"
       id="rect171"
       style="stroke:#0a112b;stroke-width:3.18509;stroke-dasharray:none;stroke-opacity:1"
       transform="matrix(0.31621148,0,0,0.31173027,1775.8169,1.8915813)" /><rect
       class="cls-3"
       x="3343.8701"
       y="354.64001"
       width="109.91"
       height="54.959999"
       id="rect173"
       style="stroke:#0a112b;stroke-width:3.18509;stroke-dasharray:none;stroke-opacity:1"
       transform="matrix(0.31621148,0,0,0.31173027,1775.8169,1.8915813)" /><rect
       class="cls-10"
       x="3014.1201"
       y="299.67999"
       width="109.91"
       height="54.959999"
       id="rect175"
       style="stroke:#0a112b;stroke-width:3.18509;stroke-dasharray:none;stroke-opacity:1"
       transform="matrix(0.31621148,0,0,0.31173027,1775.8169,1.8915813)" /><rect
       class="cls-3"
       x="3124.03"
       y="299.67999"
       width="109.91"
       height="54.959999"
       id="rect177"
       style="stroke:#0a112b;stroke-width:3.18509;stroke-dasharray:none;stroke-opacity:1"
       transform="matrix(0.31621148,0,0,0.31173027,1775.8169,1.8915813)" /><rect
       class="cls-11"
       x="3233.95"
       y="299.67999"
       width="109.91"
       height="54.959999"
       id="rect179"
       style="stroke:#0a112b;stroke-width:3.18509;stroke-dasharray:none;stroke-opacity:1"
       transform="matrix(0.31621148,0,0,0.31173027,1775.8169,1.8915813)" /><rect
       class="cls-1"
       x="3343.8701"
       y="299.67999"
       width="109.91"
       height="54.959999"
       id="rect181"
       style="stroke:#0a112b;stroke-width:3.18509;stroke-dasharray:none;stroke-opacity:1"
       transform="matrix(0.31621148,0,0,0.31173027,1775.8169,1.8915813)" /><rect
       class="cls-11"
       x="3124.03"
       y="244.72"
       width="109.91"
       height="54.959999"
       id="rect183"
       style="stroke:#0a112b;stroke-width:3.18509;stroke-dasharray:none;stroke-opacity:1"
       transform="matrix(0.31621148,0,0,0.31173027,1775.8169,1.8915813)" /><rect
       class="cls-10"
       x="3233.95"
       y="244.72"
       width="109.91"
       height="54.959999"
       id="rect185"
       style="stroke:#0a112b;stroke-width:3.18509;stroke-dasharray:none;stroke-opacity:1"
       transform="matrix(0.31621148,0,0,0.31173027,1775.8169,1.8915813)" /><path
       id="polygon187-9"
       style="fill:#e6edfe;fill-opacity:1;stroke:#0a112b;stroke-width:1;stroke-dasharray:none;stroke-opacity:1"
       class="cls-14"
       d="m 2798.4297,118.15234 -0.2266,0.0312 v 79.9043 l 69.7383,0.0137 11.584,-68.52929 z" /><path
       id="polygon187-90"
       style="fill:#0b41b7;stroke:#0a112b;stroke-width:1;stroke-dasharray:none;stroke-opacity:1"
       class="cls-14"
       d="m 2798.2031,118.18359 -80.873,11.38868 11.5859,68.5039 69.2871,0.0117 z" /><ellipse
       class="cls-13"
       cx="2798.4639"
       cy="135.28409"
       id="circle191"
       style="stroke:#0a112b;stroke-width:1;stroke-dasharray:none;stroke-opacity:1"
       rx="5.792994"
       ry="5.7108984" /></g><path
     id="polygon139-5"
     style="fill:#1b3274;fill-opacity:1;stroke:none;stroke-width:2;stroke-linejoin:round;stroke-dasharray:none"
     class="cls-5"
     d="M 2421.5314,-1.2219976e-7 C 2371.2636,58.928051 2331.8033,126.74428 2304.5763,200 h 2.3398 C 2334.2718,126.67136 2373.9745,58.86581 2424.4903,-1.2219976e-7 Z" /><path
     id="path14116-5-8-4-0"
     style="display:inline;fill:#305dcf;fill-opacity:1;stroke:none;stroke-width:2.2;stroke-linecap:round;stroke-linejoin:round;stroke-dasharray:none;stroke-opacity:1"
     d="m 2005.8803,183.82031 a 1034.4788,1069.9351 0 0 0 -7.6592,16.04883 l 306.4638,0.0469 a 637.04583,658.59431 0 0 0 0,0.006 L 2806.895,200 h 251.1051 v -16.17969 z" /><path
     id="path14116-5-8-4-0-0"
     style="display:inline;fill:#5284ea;fill-opacity:1;stroke:none;stroke-width:2.2;stroke-linecap:round;stroke-linejoin:round;stroke-dasharray:none;stroke-opacity:1"
     d="m 2230.2153,172.76953 c -1.3098,-0.26112 -2.1836,1.52881 -3.4053,2.0957 -1.4848,0.66408 -3.0764,1.11033 -4.7824,1.19727 -0.2633,0.017 -0.4932,0.14093 -0.7602,0.14258 -1.2895,-0.0108 -2.4835,-0.3373 -3.6639,-0.68555 -0.3767,-0.10595 -0.797,-0.089 -1.1598,-0.22656 -1.5139,-0.59379 -2.8999,-1.44957 -4.0949,-2.51758 -2.4035,2.14793 -5.5654,3.45117 -9.0282,3.45117 -3.4628,0 -6.6247,-1.30324 -9.0281,-3.45117 -2.4037,2.14793 -5.5654,3.45117 -9.0283,3.45117 -3.4629,0 -6.6247,-1.30324 -9.0282,-3.45117 -2.4036,2.14793 -5.5653,3.45117 -9.0282,3.45117 -3.4627,0 -6.6247,-1.30324 -9.0282,-3.45117 -2.4035,2.14793 -5.5654,3.45117 -9.0282,3.45117 -3.4628,0 -6.6247,-1.30324 -9.0282,-3.45117 -2.4035,2.14793 -5.5653,3.45117 -9.0283,3.45117 -3.4626,0 -6.6245,-1.30324 -9.0281,-3.45117 -2.4035,2.14793 -5.5654,3.45117 -9.0282,3.45117 -3.4628,0 -6.6247,-1.30324 -9.0282,-3.45117 -2.4036,2.14793 -5.5653,3.45117 -9.0282,3.45117 -3.4628,0 -6.6247,-1.30324 -9.0282,-3.45117 -2.4035,2.14793 -5.5654,3.45117 -9.0282,3.45117 -3.4629,0 -6.6248,-1.30324 -9.0283,-3.45117 -2.4033,2.14793 -5.5654,3.45117 -9.0281,3.45117 -3.4627,0 -6.6247,-1.30324 -9.0282,-3.45117 -2.4035,2.14793 -5.5635,3.45117 -9.0262,3.45117 -3.4628,0 -6.6247,-1.30324 -9.0282,-3.45117 -2.4035,2.14793 -5.5654,3.45117 -9.0282,3.45117 -3.4628,0 -6.6247,-1.30324 -9.0282,-3.45117 -0.4907,0.43852 -1.131,0.669 -1.6811,1.0332 -3.2468,6.62382 -6.4268,9.28238 -9.5395,15.97461 0.7371,0.12436 1.4183,0.41016 2.1904,0.41016 3.4628,0 6.6247,-1.3013 9.0282,-3.44922 2.4035,2.14792 5.5654,3.44922 9.0282,3.44922 3.4628,0 6.6247,-1.3013 9.0282,-3.44922 2.4035,2.14792 5.5654,3.44922 9.0282,3.44922 3.4628,0 6.6247,-1.3013 9.0282,-3.44922 2.4035,2.14792 5.5655,3.44922 9.0282,3.44922 3.4627,0 6.6247,-1.3013 9.0281,-3.44922 2.4035,2.14792 5.5655,3.44922 9.0283,3.44922 3.4628,0 6.6247,-1.3013 9.0282,-3.44922 2.4035,2.14792 5.5654,3.44922 9.0282,3.44922 3.4629,0 6.6246,-1.3013 9.0282,-3.44922 2.4035,2.14792 5.5654,3.44922 9.0282,3.44922 3.4629,0 6.6247,-1.3013 9.0282,-3.44922 2.4034,2.14792 5.5656,3.44922 9.0281,3.44922 3.463,0 6.6248,-1.3013 9.0283,-3.44922 2.4035,2.14792 5.5654,3.44922 9.0282,3.44922 3.4628,0 6.6247,-1.3013 9.0282,-3.44922 2.4036,2.14792 5.5654,3.44922 9.0282,3.44922 3.4628,0 6.6248,-1.3013 9.0282,-3.44922 2.4036,2.14792 5.5654,3.44922 9.0282,3.44922 3.4629,0 6.6246,-1.3013 9.0283,-3.44922 2.4034,2.14792 5.5653,3.44922 9.0281,3.44922 3.4628,0 6.6246,-1.3013 9.0282,-3.44922 1.0898,0.974 2.3732,1.71123 3.7323,2.29492 v 0.15039 c 0.1645,0.0688 0.3292,0.13464 0.4977,0.19532 0.053,0.0162 0.1046,0.0347 0.1568,0.0508 0.1284,0.0485 0.2613,0.0945 0.3977,0.13086 0.1525,0.0526 0.3059,0.0962 0.4624,0.13671 0.1444,0.0404 0.2885,0.0809 0.433,0.11329 0.02,0.008 0.041,0.0115 0.061,0.0156 0.1845,0.0445 0.3717,0.0808 0.5603,0.11719 0.1806,0.0364 0.3621,0.0654 0.5427,0.0937 0.049,0.008 0.096,0.0115 0.1449,0.0195 0.1687,0.0243 0.3409,0.0445 0.5134,0.0606 0.016,0 0.033,0.006 0.053,0.006 0.2006,0.0202 0.4046,0.0309 0.6094,0.043 h 0.027 c 0.2128,0.0121 0.43,0.0156 0.6466,0.0156 0.029,0 0.052,-0.0135 0.08,-0.0137 0.039,3.3e-4 0.072,0.0195 0.1096,0.0195 0.2343,0 0.4192,-0.15031 0.6506,-0.16211 1.7067,-0.1098 3.3039,-0.51316 4.7824,-1.19922 0.297,-0.1329 0.6708,-0.087 0.9561,-0.24023 v -0.34766 c 0.8375,-0.47737 1.734,-0.86676 2.4492,-1.50586 2.4035,2.14793 5.5654,3.44922 9.0281,3.44922 3.4629,0 6.6247,-1.30129 9.0282,-3.44922 2.4035,2.14793 5.5654,3.44922 9.0282,3.44922 3.463,0 6.6247,-1.30129 9.0283,-3.44922 2.4034,2.14793 5.5655,3.44922 9.0281,3.44922 3.4629,0 6.6247,-1.30129 9.0282,-3.44922 2.4036,2.14793 5.5654,3.44922 9.0283,3.44922 3.4628,0 6.6247,-1.30129 9.0282,-3.44922 2.4035,2.14793 5.5652,3.44922 9.0281,3.44922 3.4627,0 6.6247,-1.30129 9.0282,-3.44922 2.4036,2.14793 5.5653,3.44922 9.0283,3.44922 3.4628,0 6.6246,-1.30129 9.0281,-3.44922 2.4035,2.14793 5.5654,3.44922 9.0282,3.44922 3.4629,0 6.6246,-1.30129 9.0283,-3.44922 2.4034,2.14793 5.5654,3.44922 9.0282,3.44922 3.4627,0 6.6247,-1.30129 9.0281,-3.44922 2.4035,2.14793 5.5653,3.44922 9.0282,3.44922 3.4629,0 6.6248,-1.30129 9.0283,-3.44922 2.4035,2.14793 5.5653,3.44922 9.0282,3.44922 3.4627,0 6.6247,-1.30129 9.0281,-3.44922 2.4035,2.14793 5.5655,3.44922 9.0283,3.44922 3.4628,0 6.6247,-1.30129 9.0282,-3.44922 2.4034,2.14793 5.5654,3.44922 9.0282,3.44922 3.4627,0 6.6246,-1.30129 9.0282,-3.44922 2.4035,2.14793 5.5654,3.44922 9.0282,3.44922 3.4627,0 6.6248,-1.30129 9.0282,-3.44922 2.4035,2.14793 5.5654,3.44922 9.0281,3.44922 3.463,0 6.6247,-1.30129 9.0283,-3.44922 2.4035,2.14793 5.5655,3.44922 9.0282,3.44922 3.4629,0 6.6247,-1.30129 9.0282,-3.44922 2.4034,2.14793 5.5655,3.44922 9.0282,3.44922 3.4628,0 6.6247,-1.30129 9.0282,-3.44922 2.4036,2.14793 5.5654,3.44922 9.0282,3.44922 3.4629,0 6.6247,-1.30129 9.0282,-3.44922 2.4036,2.14793 5.5653,3.44922 9.0282,3.44922 3.4629,0 6.6247,-1.30129 9.0282,-3.44922 2.4035,2.14793 5.5655,3.44922 9.0282,3.44922 3.463,0 6.6246,-1.30129 9.0283,-3.44922 2.4033,2.14793 5.5652,3.44922 9.0281,3.44922 3.4627,0 6.6246,-1.30129 9.0282,-3.44922 2.4035,2.14793 5.5653,3.44922 9.0282,3.44922 3.4628,0 6.6246,-1.30129 9.0282,-3.44922 2.4035,2.14793 5.5653,3.44922 9.0282,3.44922 3.4628,0 6.6247,-1.30129 9.0282,-3.44922 2.4036,2.14793 5.5654,3.44922 9.0283,3.44922 3.4628,0 6.6247,-1.30129 9.0281,-3.44922 2.4034,2.14793 5.5654,3.44922 9.0282,3.44922 3.4627,0 6.6247,-1.30129 9.0282,-3.44922 2.4036,2.14793 5.5653,3.44922 9.0283,3.44922 3.4627,0 6.6246,-1.30129 9.0281,-3.44922 2.4035,2.14793 5.5654,3.44922 9.0282,3.44922 3.4629,0 6.6247,-1.30129 9.0283,-3.44922 2.4034,2.14793 5.5655,3.44922 9.0281,3.44922 3.4628,0 6.6247,-1.30129 9.0282,-3.44922 2.4034,2.14793 5.5654,3.44922 9.0283,3.44922 3.4627,0 6.6247,-1.30129 9.0282,-3.44922 2.4034,2.14793 5.5654,3.44922 9.0281,3.44922 3.4628,0 6.6247,-1.30129 9.0282,-3.44922 2.4036,2.14793 5.5655,3.44922 9.0283,3.44922 3.4629,0 6.6247,-1.30129 9.0282,-3.44922 2.4034,2.14793 5.5654,3.44922 9.0281,3.44922 3.463,0 6.6247,-1.30129 9.0283,-3.44922 2.4035,2.14793 5.5655,3.44922 9.0282,3.44922 3.4628,0 6.6247,-1.30129 9.0282,-3.44922 2.4035,2.14793 5.5653,3.44922 9.0281,3.44922 3.463,0 6.6247,-1.30129 9.0283,-3.44922 2.4036,2.14793 5.5655,3.44922 9.0282,3.44922 3.4629,0 6.6247,-1.30129 9.0281,-3.44922 2.4036,2.14793 5.5654,3.44922 9.0283,3.44922 3.4628,0 6.6246,-1.30129 9.0282,-3.44922 2.4035,2.14793 5.5653,3.44922 9.0282,3.44922 3.4627,0 6.6246,-1.30129 9.0281,-3.44922 2.4036,2.14793 5.5653,3.44922 9.0283,3.44922 3.4627,0 6.6247,-1.30129 9.0282,-3.44922 2.4035,2.14793 5.5654,3.44922 9.0282,3.44922 3.4628,0 6.6246,-1.30129 9.0282,-3.44922 2.4035,2.14793 5.5653,3.44922 9.0282,3.44922 3.4627,0 6.6247,-1.30129 9.0282,-3.44922 2.4035,2.14793 5.5654,3.44922 9.0281,3.44922 3.4628,0 6.6248,-1.30129 9.0283,-3.44922 2.4035,2.14793 5.5654,3.44922 9.0282,3.44922 3.4628,0 6.6247,-1.30129 9.0282,-3.44922 2.4036,2.14793 5.5655,3.44922 9.0282,3.44922 3.4628,0 6.6249,-1.30129 9.0282,-3.44922 2.4035,2.14793 5.5654,3.44922 9.0282,3.44922 3.4628,0 6.6247,-1.30129 9.0282,-3.44922 2.4035,2.14793 5.5654,3.44922 9.0282,3.44922 3.4628,0 6.6247,-1.30129 9.0282,-3.44922 2.4035,2.14793 5.5654,3.44922 9.0282,3.44922 3.4629,0 6.6247,-1.30129 9.0283,-3.44922 2.4034,2.14793 5.5654,3.44922 9.0281,3.44922 2.2457,0 4.3498,-0.58379 6.2186,-1.55664 v -13.96875 c -1.8688,0.97286 -3.9729,1.55859 -6.2186,1.55859 -3.4627,0 -6.6247,-1.30324 -9.0281,-3.45117 -2.4036,2.14793 -5.5654,3.45117 -9.0283,3.45117 -3.4628,0 -6.6247,-1.30324 -9.0282,-3.45117 -2.4035,2.14793 -5.5654,3.45117 -9.0282,3.45117 -3.4628,0 -6.6247,-1.30324 -9.0282,-3.45117 -2.4035,2.14793 -5.5654,3.45117 -9.0282,3.45117 -3.4628,0 -6.6247,-1.30324 -9.0282,-3.45117 -2.4033,2.14793 -5.5654,3.45117 -9.0282,3.45117 -3.4627,0 -6.6246,-1.30324 -9.0282,-3.45117 -2.4035,2.14793 -5.5654,3.45117 -9.0282,3.45117 -3.4628,0 -6.6247,-1.30324 -9.0282,-3.45117 -2.4035,2.14793 -5.5655,3.45117 -9.0283,3.45117 -3.4627,0 -6.6246,-1.30324 -9.0281,-3.45117 -2.4035,2.14793 -5.5655,3.45117 -9.0282,3.45117 -3.4629,0 -6.6247,-1.30324 -9.0282,-3.45117 -2.4036,2.14793 -5.5654,3.45117 -9.0282,3.45117 -3.4628,0 -6.6247,-1.30324 -9.0282,-3.45117 -2.4035,2.14793 -5.5655,3.45117 -9.0282,3.45117 -3.463,0 -6.6247,-1.30324 -9.0283,-3.45117 -2.4035,2.14793 -5.5654,3.45117 -9.0281,3.45117 -3.4629,0 -6.6247,-1.30324 -9.0282,-3.45117 -2.4036,2.14793 -5.5654,3.45117 -9.0282,3.45117 -3.4629,0 -6.6247,-1.30324 -9.0283,-3.45117 -2.4034,2.14793 -5.5652,3.45117 -9.0281,3.45117 -3.4627,0 -6.6246,-1.30324 -9.0282,-3.45117 -2.4036,2.14793 -5.5653,3.45117 -9.0283,3.45117 -3.4628,0 -6.6246,-1.30324 -9.0281,-3.45117 -2.4035,2.14793 -5.5654,3.45117 -9.0282,3.45117 -3.4627,0 -6.6247,-1.30324 -9.0282,-3.45117 -2.4036,2.14793 -5.5653,3.45117 -9.0283,3.45117 -3.4627,0 -6.6247,-1.30324 -9.0281,-3.45117 -2.4035,2.14793 -5.5653,3.45117 -9.0282,3.45117 -3.4628,0 -6.6247,-1.30324 -9.0283,-3.45117 -2.4035,2.14793 -5.5654,3.45117 -9.0282,3.45117 -3.4627,0 -6.6247,-1.30324 -9.0281,-3.45117 -2.4035,2.14793 -5.5655,3.45117 -9.0282,3.45117 -3.4629,0 -6.6249,-1.30324 -9.0283,-3.45117 -2.4035,2.14793 -5.5654,3.45117 -9.0282,3.45117 -3.4626,0 -6.6247,-1.30324 -9.0281,-3.45117 -2.4036,2.14793 -5.5654,3.45117 -9.0283,3.45117 -3.4628,0 -6.6247,-1.30324 -9.0282,-3.45117 -2.4035,2.14793 -5.5654,3.45117 -9.0281,3.45117 -3.463,0 -6.6247,-1.30324 -9.0283,-3.45117 -2.4035,2.14793 -5.5655,3.45117 -9.0282,3.45117 -3.4628,0 -6.6248,-1.30324 -9.0282,-3.45117 -2.4034,2.14793 -5.5653,3.45117 -9.0281,3.45117 -3.4629,0 -6.6247,-1.30324 -9.0283,-3.45117 -2.4035,2.14793 -5.5654,3.45117 -9.0282,3.45117 -3.4629,0 -6.6247,-1.30324 -9.0282,-3.45117 -2.4036,2.14793 -5.5654,3.45117 -9.0282,3.45117 -3.4629,0 -6.6247,-1.30324 -9.0282,-3.45117 -2.4036,2.14793 -5.5655,3.45117 -9.0282,3.45117 -3.4629,0 -6.6248,-1.30324 -9.0281,-3.45117 -2.4037,2.14793 -5.5653,3.45117 -9.0283,3.45117 -3.4627,0 -6.6247,-1.30324 -9.0282,-3.45117 -2.4035,2.14793 -5.5653,3.45117 -9.0282,3.45117 -3.4629,0 -6.6246,-1.30324 -9.0282,-3.45117 -2.4035,2.14793 -5.5653,3.45117 -9.0282,3.45117 -3.4628,0 -6.6246,-1.30324 -9.0282,-3.45117 -2.4035,2.14793 -5.5654,3.45117 -9.0282,3.45117 -3.4627,0 -6.6248,-1.30324 -9.0282,-3.45117 -2.4035,2.14793 -5.5653,3.45117 -9.0282,3.45117 -3.4627,0 -6.6247,-1.30324 -9.0282,-3.45117 -2.4036,2.14793 -5.5653,3.45117 -9.0283,3.45117 -3.4627,0 -6.6246,-1.30324 -9.0281,-3.45117 -2.4034,2.14793 -5.5655,3.45117 -9.0282,3.45117 -3.4628,0 -6.6247,-1.30324 -9.0282,-3.45117 -2.4036,2.14793 -5.5655,3.45117 -9.0282,3.45117 -3.4628,0 -6.6248,-1.30324 -9.0282,-3.45117 -2.4035,2.14793 -5.5654,3.45117 -9.0282,3.45117 -3.4628,0 -6.6248,-1.30324 -9.0283,-3.45117 -2.4034,2.14793 -5.5654,3.45117 -9.0281,3.45117 -3.4629,0 -6.6247,-1.30324 -9.0282,-3.45117 -2.4035,2.14793 -5.5654,3.45117 -9.0283,3.45117 -3.4629,0 -6.6247,-1.30324 -9.0282,-3.45117 -2.4034,2.14793 -5.5654,3.45117 -9.0281,3.45117 -3.4628,0 -6.6248,-1.30324 -9.0282,-3.45117 -2.4037,2.14793 -5.5654,3.45117 -9.0283,3.45117 -3.4628,0 -6.6247,-1.30324 -9.0282,-3.45117 -2.4035,2.14793 -5.5653,3.45117 -9.0281,3.45117 -3.463,0 -6.6247,-1.30324 -9.0283,-3.45117 -2.4035,2.14793 -5.5655,3.45117 -9.0282,3.45117 -3.4629,0 -6.6246,-1.30324 -9.0281,-3.45117 -2.4035,2.14793 -5.5654,3.45117 -9.0282,3.45117 -3.4629,0 -6.6247,-1.30324 -9.0283,-3.45117 -2.4035,2.14793 -5.5653,3.45117 -9.0282,3.45117 -3.4626,0 -6.6247,-1.30324 -9.0281,-3.45117 -2.4036,2.14793 -5.5653,3.45117 -9.0283,3.45117 -3.4628,0 -6.6247,-1.30324 -9.0282,-3.45117 -2.4035,2.14793 -5.5653,3.45117 -9.0282,3.45117 -3.4627,0 -5.863,-2.8201 -9.0281,-3.45117 z m 0,0 c -1.3098,-0.26112 -2.1836,1.52881 -3.4053,2.0957 -1.4848,0.66408 -3.0764,1.11033 -4.7824,1.19727 -0.2633,0.017 -0.4932,0.14093 -0.7602,0.14258 -1.2895,-0.0108 -2.4835,-0.3373 -3.6639,-0.68555 -0.3767,-0.10595 -0.797,-0.089 -1.1598,-0.22656 -1.5139,-0.59379 -2.8999,-1.44957 -4.0949,-2.51758 -2.4035,2.14793 -5.5654,3.45117 -9.0282,3.45117 -3.4628,0 -6.6247,-1.30324 -9.0281,-3.45117 -2.4037,2.14793 -5.5654,3.45117 -9.0283,3.45117 -3.4629,0 -6.6247,-1.30324 -9.0282,-3.45117 -2.4036,2.14793 -5.5653,3.45117 -9.0282,3.45117 -3.4627,0 -6.6247,-1.30324 -9.0282,-3.45117 -2.4035,2.14793 -5.5654,3.45117 -9.0282,3.45117 -3.4628,0 -6.6247,-1.30324 -9.0282,-3.45117 -2.4035,2.14793 -5.5653,3.45117 -9.0283,3.45117 -3.4626,0 -6.6245,-1.30324 -9.0281,-3.45117 -2.4035,2.14793 -5.5654,3.45117 -9.0282,3.45117 -3.4628,0 -6.6247,-1.30324 -9.0282,-3.45117 -2.4036,2.14793 -5.5653,3.45117 -9.0282,3.45117 -3.4628,0 -6.6247,-1.30324 -9.0282,-3.45117 -2.4035,2.14793 -5.5654,3.45117 -9.0282,3.45117 -3.4629,0 -6.6248,-1.30324 -9.0283,-3.45117 -2.4033,2.14793 -5.5654,3.45117 -9.0281,3.45117 -3.4627,0 -6.6247,-1.30324 -9.0282,-3.45117 -2.4035,2.14793 -5.5635,3.45117 -9.0262,3.45117 -3.4628,0 -6.6247,-1.30324 -9.0282,-3.45117 -2.4035,2.14793 -5.5654,3.45117 -9.0282,3.45117 -3.4628,0 -6.6247,-1.30324 -9.0282,-3.45117 -0.4907,0.43852 -2.247,-0.13959 -2.797,0.22461 -3.2469,6.62382 -5.3109,10.09097 -8.4236,16.7832 0.7371,0.12436 1.4183,0.41016 2.1904,0.41016 3.4628,0 6.6247,-1.3013 9.0282,-3.44922 2.4035,2.14792 5.5654,3.44922 9.0282,3.44922 3.4628,0 6.6247,-1.3013 9.0282,-3.44922 2.4035,2.14792 5.5654,3.44922 9.0282,3.44922 3.4628,0 6.6247,-1.3013 9.0282,-3.44922 2.4035,2.14792 5.5655,3.44922 9.0282,3.44922 3.4627,0 6.6247,-1.3013 9.0281,-3.44922 2.4035,2.14792 5.5655,3.44922 9.0283,3.44922 3.4628,0 6.6247,-1.3013 9.0282,-3.44922 2.4035,2.14792 5.5654,3.44922 9.0282,3.44922 3.4629,0 6.6246,-1.3013 9.0282,-3.44922 2.4035,2.14792 5.5654,3.44922 9.0282,3.44922 3.4629,0 6.6247,-1.3013 9.0282,-3.44922 2.4034,2.14792 5.5656,3.44922 9.0281,3.44922 3.463,0 6.6248,-1.3013 9.0283,-3.44922 2.4035,2.14792 5.5654,3.44922 9.0282,3.44922 3.4628,0 6.6247,-1.3013 9.0282,-3.44922 2.4036,2.14792 5.5654,3.44922 9.0282,3.44922 3.4628,0 6.6248,-1.3013 9.0282,-3.44922 2.4036,2.14792 5.5654,3.44922 9.0282,3.44922 3.4629,0 6.6246,-1.3013 9.0283,-3.44922 2.4034,2.14792 5.5653,3.44922 9.0281,3.44922 3.4628,0 6.6246,-1.3013 9.0282,-3.44922 1.0898,0.974 2.3732,1.71123 3.7323,2.29492 v 0.15039 c 0.1645,0.0688 0.3292,0.13464 0.4977,0.19532 0.053,0.0162 0.1046,0.0347 0.1568,0.0508 0.1284,0.0485 0.2613,0.0945 0.3977,0.13086 0.1525,0.0526 0.3059,0.0962 0.4624,0.13671 0.1444,0.0404 0.2885,0.0809 0.433,0.11329 0.02,0.008 0.041,0.0115 0.061,0.0156 0.1845,0.0445 0.3717,0.0808 0.5603,0.11719 0.1806,0.0364 0.3621,0.0654 0.5427,0.0937 0.049,0.008 0.096,0.0115 0.1449,0.0195 0.1687,0.0243 0.3409,0.0445 0.5134,0.0606 0.016,0 0.033,0.006 0.053,0.006 0.2006,0.0202 0.4046,0.0309 0.6094,0.043 h 0.027 c 0.2128,0.0121 0.43,0.0156 0.6466,0.0156 0.029,0 0.052,-0.0135 0.08,-0.0137 0.039,3.3e-4 0.072,0.0195 0.1096,0.0195 0.2343,0 0.4192,-0.15031 0.6506,-0.16211 1.7067,-0.1098 3.3039,-0.51316 4.7824,-1.19922 0.297,-0.1329 0.6708,-0.087 0.9561,-0.24023 v -0.34766 c 0.8375,-0.47737 1.734,-0.86676 2.4492,-1.50586 2.4035,2.14793 5.5654,3.44922 9.0281,3.44922 3.4629,0 6.6247,-1.30129 9.0282,-3.44922 2.4035,2.14793 5.5654,3.44922 9.0282,3.44922 3.463,0 6.6247,-1.30129 9.0283,-3.44922 2.4034,2.14793 5.5655,3.44922 9.0281,3.44922 3.4629,0 6.6247,-1.30129 9.0282,-3.44922 2.4036,2.14793 5.5654,3.44922 9.0283,3.44922 3.4628,0 6.6247,-1.30129 9.0282,-3.44922 2.4035,2.14793 5.5652,3.44922 9.0281,3.44922 3.4627,0 6.6247,-1.30129 9.0282,-3.44922 2.4036,2.14793 5.5653,3.44922 9.0283,3.44922 3.4628,0 6.6246,-1.30129 9.0281,-3.44922 2.4035,2.14793 5.5654,3.44922 9.0282,3.44922 3.4629,0 6.6246,-1.30129 9.0283,-3.44922 2.4034,2.14793 5.5654,3.44922 9.0282,3.44922 3.4627,0 6.6247,-1.30129 9.0281,-3.44922 2.4035,2.14793 5.5653,3.44922 9.0282,3.44922 3.4629,0 6.6248,-1.30129 9.0283,-3.44922 2.4035,2.14793 5.5653,3.44922 9.0282,3.44922 3.4627,0 6.6247,-1.30129 9.0281,-3.44922 2.4035,2.14793 5.5655,3.44922 9.0283,3.44922 3.4628,0 6.6247,-1.30129 9.0282,-3.44922 2.4034,2.14793 5.5654,3.44922 9.0282,3.44922 3.4627,0 6.6246,-1.30129 9.0282,-3.44922 2.4035,2.14793 5.5654,3.44922 9.0282,3.44922 3.4627,0 6.6248,-1.30129 9.0282,-3.44922 2.4035,2.14793 5.5654,3.44922 9.0281,3.44922 3.463,0 6.6247,-1.30129 9.0283,-3.44922 2.4035,2.14793 5.5655,3.44922 9.0282,3.44922 3.4629,0 6.6247,-1.30129 9.0282,-3.44922 2.4034,2.14793 5.5655,3.44922 9.0282,3.44922 3.4628,0 6.6247,-1.30129 9.0282,-3.44922 2.4036,2.14793 5.5654,3.44922 9.0282,3.44922 3.4629,0 6.6247,-1.30129 9.0282,-3.44922 2.4036,2.14793 5.5653,3.44922 9.0282,3.44922 3.4629,0 6.6247,-1.30129 9.0282,-3.44922 2.4035,2.14793 5.5655,3.44922 9.0282,3.44922 3.463,0 6.6246,-1.30129 9.0283,-3.44922 2.4033,2.14793 5.5652,3.44922 9.0281,3.44922 3.4627,0 6.6246,-1.30129 9.0282,-3.44922 2.4035,2.14793 5.5653,3.44922 9.0282,3.44922 3.4628,0 6.6246,-1.30129 9.0282,-3.44922 2.4035,2.14793 5.5653,3.44922 9.0282,3.44922 3.4628,0 6.6247,-1.30129 9.0282,-3.44922 2.4036,2.14793 5.5654,3.44922 9.0283,3.44922 3.4628,0 6.6247,-1.30129 9.0281,-3.44922 2.4034,2.14793 5.5654,3.44922 9.0282,3.44922 3.4627,0 6.6247,-1.30129 9.0282,-3.44922 2.4036,2.14793 5.5653,3.44922 9.0283,3.44922 3.4627,0 6.6246,-1.30129 9.0281,-3.44922 2.4035,2.14793 5.5654,3.44922 9.0282,3.44922 3.4629,0 6.6247,-1.30129 9.0283,-3.44922 2.4034,2.14793 5.5655,3.44922 9.0281,3.44922 3.4628,0 6.6247,-1.30129 9.0282,-3.44922 2.4034,2.14793 5.5654,3.44922 9.0283,3.44922 3.4627,0 6.6247,-1.30129 9.0282,-3.44922 2.4034,2.14793 5.5654,3.44922 9.0281,3.44922 3.4628,0 6.6247,-1.30129 9.0282,-3.44922 2.4036,2.14793 5.5655,3.44922 9.0283,3.44922 3.4629,0 6.6247,-1.30129 9.0282,-3.44922 2.4034,2.14793 5.5654,3.44922 9.0281,3.44922 3.463,0 6.6247,-1.30129 9.0283,-3.44922 2.4035,2.14793 5.5655,3.44922 9.0282,3.44922 3.4628,0 6.6247,-1.30129 9.0282,-3.44922 2.4035,2.14793 5.5653,3.44922 9.0281,3.44922 3.463,0 6.6247,-1.30129 9.0283,-3.44922 2.4036,2.14793 5.5655,3.44922 9.0282,3.44922 3.4629,0 6.6247,-1.30129 9.0281,-3.44922 2.4036,2.14793 5.5654,3.44922 9.0283,3.44922 3.4628,0 6.6246,-1.30129 9.0282,-3.44922 2.4035,2.14793 5.5653,3.44922 9.0282,3.44922 3.4627,0 6.6246,-1.30129 9.0281,-3.44922 2.4036,2.14793 5.5653,3.44922 9.0283,3.44922 3.4627,0 6.6247,-1.30129 9.0282,-3.44922 2.4035,2.14793 5.5654,3.44922 9.0282,3.44922 3.4628,0 6.6246,-1.30129 9.0282,-3.44922 2.4035,2.14793 5.5653,3.44922 9.0282,3.44922 3.4627,0 6.6247,-1.30129 9.0282,-3.44922 2.4035,2.14793 5.5654,3.44922 9.0281,3.44922 3.4628,0 6.6248,-1.30129 9.0283,-3.44922 2.4035,2.14793 5.5654,3.44922 9.0282,3.44922 3.4628,0 6.6247,-1.30129 9.0282,-3.44922 2.4036,2.14793 5.5655,3.44922 9.0282,3.44922 3.4628,0 6.6249,-1.30129 9.0282,-3.44922 2.4035,2.14793 5.5654,3.44922 9.0282,3.44922 3.4628,0 6.6247,-1.30129 9.0282,-3.44922 2.4035,2.14793 5.5654,3.44922 9.0282,3.44922 3.4628,0 6.6247,-1.30129 9.0282,-3.44922 2.4035,2.14793 5.5654,3.44922 9.0282,3.44922 3.4629,0 6.6247,-1.30129 9.0283,-3.44922 2.4034,2.14793 5.5654,3.44922 9.0281,3.44922 2.2457,0 4.3498,-0.58379 6.2186,-1.55664 v -13.96875 c -1.8688,0.97286 -3.9729,1.55859 -6.2186,1.55859 -3.4627,0 -6.6247,-1.30324 -9.0281,-3.45117 -2.4036,2.14793 -5.5654,3.45117 -9.0283,3.45117 -3.4628,0 -6.6247,-1.30324 -9.0282,-3.45117 -2.4035,2.14793 -5.5654,3.45117 -9.0282,3.45117 -3.4628,0 -6.6247,-1.30324 -9.0282,-3.45117 -2.4035,2.14793 -5.5654,3.45117 -9.0282,3.45117 -3.4628,0 -6.6247,-1.30324 -9.0282,-3.45117 -2.4033,2.14793 -5.5654,3.45117 -9.0282,3.45117 -3.4627,0 -6.6246,-1.30324 -9.0282,-3.45117 -2.4035,2.14793 -5.5654,3.45117 -9.0282,3.45117 -3.4628,0 -6.6247,-1.30324 -9.0282,-3.45117 -2.4035,2.14793 -5.5655,3.45117 -9.0283,3.45117 -3.4627,0 -6.6246,-1.30324 -9.0281,-3.45117 -2.4035,2.14793 -5.5655,3.45117 -9.0282,3.45117 -3.4629,0 -6.6247,-1.30324 -9.0282,-3.45117 -2.4036,2.14793 -5.5654,3.45117 -9.0282,3.45117 -3.4628,0 -6.6247,-1.30324 -9.0282,-3.45117 -2.4035,2.14793 -5.5655,3.45117 -9.0282,3.45117 -3.463,0 -6.6247,-1.30324 -9.0283,-3.45117 -2.4035,2.14793 -5.5654,3.45117 -9.0281,3.45117 -3.4629,0 -6.6247,-1.30324 -9.0282,-3.45117 -2.4036,2.14793 -5.5654,3.45117 -9.0282,3.45117 -3.4629,0 -6.6247,-1.30324 -9.0283,-3.45117 -2.4034,2.14793 -5.5652,3.45117 -9.0281,3.45117 -3.4627,0 -6.6246,-1.30324 -9.0282,-3.45117 -2.4036,2.14793 -5.5653,3.45117 -9.0283,3.45117 -3.4628,0 -6.6246,-1.30324 -9.0281,-3.45117 -2.4035,2.14793 -5.5654,3.45117 -9.0282,3.45117 -3.4627,0 -6.6247,-1.30324 -9.0282,-3.45117 -2.4036,2.14793 -5.5653,3.45117 -9.0283,3.45117 -3.4627,0 -6.6247,-1.30324 -9.0281,-3.45117 -2.4035,2.14793 -5.5653,3.45117 -9.0282,3.45117 -3.4628,0 -6.6247,-1.30324 -9.0283,-3.45117 -2.4035,2.14793 -5.5654,3.45117 -9.0282,3.45117 -3.4627,0 -6.6247,-1.30324 -9.0281,-3.45117 -2.4035,2.14793 -5.5655,3.45117 -9.0282,3.45117 -3.4629,0 -6.6249,-1.30324 -9.0283,-3.45117 -2.4035,2.14793 -5.5654,3.45117 -9.0282,3.45117 -3.4626,0 -6.6247,-1.30324 -9.0281,-3.45117 -2.4036,2.14793 -5.5654,3.45117 -9.0283,3.45117 -3.4628,0 -6.6247,-1.30324 -9.0282,-3.45117 -2.4035,2.14793 -5.5654,3.45117 -9.0281,3.45117 -3.463,0 -6.6247,-1.30324 -9.0283,-3.45117 -2.4035,2.14793 -5.5655,3.45117 -9.0282,3.45117 -3.4628,0 -6.6248,-1.30324 -9.0282,-3.45117 -2.4034,2.14793 -5.5653,3.45117 -9.0281,3.45117 -3.4629,0 -6.6247,-1.30324 -9.0283,-3.45117 -2.4035,2.14793 -5.5654,3.45117 -9.0282,3.45117 -3.4629,0 -6.6247,-1.30324 -9.0282,-3.45117 -2.4036,2.14793 -5.5654,3.45117 -9.0282,3.45117 -3.4629,0 -6.6247,-1.30324 -9.0282,-3.45117 -2.4036,2.14793 -5.5655,3.45117 -9.0282,3.45117 -3.4629,0 -6.6248,-1.30324 -9.0281,-3.45117 -2.4037,2.14793 -5.5653,3.45117 -9.0283,3.45117 -3.4627,0 -6.6247,-1.30324 -9.0282,-3.45117 -2.4035,2.14793 -5.5653,3.45117 -9.0282,3.45117 -3.4629,0 -6.6246,-1.30324 -9.0282,-3.45117 -2.4035,2.14793 -5.5653,3.45117 -9.0282,3.45117 -3.4628,0 -6.6246,-1.30324 -9.0282,-3.45117 -2.4035,2.14793 -5.5654,3.45117 -9.0282,3.45117 -3.4627,0 -6.6248,-1.30324 -9.0282,-3.45117 -2.4035,2.14793 -5.5653,3.45117 -9.0282,3.45117 -3.4627,0 -6.6247,-1.30324 -9.0282,-3.45117 -2.4036,2.14793 -5.5653,3.45117 -9.0283,3.45117 -3.4627,0 -6.6246,-1.30324 -9.0281,-3.45117 -2.4034,2.14793 -5.5655,3.45117 -9.0282,3.45117 -3.4628,0 -6.6247,-1.30324 -9.0282,-3.45117 -2.4036,2.14793 -5.5655,3.45117 -9.0282,3.45117 -3.4628,0 -6.6248,-1.30324 -9.0282,-3.45117 -2.4035,2.14793 -5.5654,3.45117 -9.0282,3.45117 -3.4628,0 -6.6248,-1.30324 -9.0283,-3.45117 -2.4034,2.14793 -5.5654,3.45117 -9.0281,3.45117 -3.4629,0 -6.6247,-1.30324 -9.0282,-3.45117 -2.4035,2.14793 -5.5654,3.45117 -9.0283,3.45117 -3.4629,0 -6.6247,-1.30324 -9.0282,-3.45117 -2.4034,2.14793 -5.5654,3.45117 -9.0281,3.45117 -3.4628,0 -6.6248,-1.30324 -9.0282,-3.45117 -2.4037,2.14793 -5.5654,3.45117 -9.0283,3.45117 -3.4628,0 -6.6247,-1.30324 -9.0282,-3.45117 -2.4035,2.14793 -5.5653,3.45117 -9.0281,3.45117 -3.463,0 -6.6247,-1.30324 -9.0283,-3.45117 -2.4035,2.14793 -5.5655,3.45117 -9.0282,3.45117 -3.4629,0 -6.6246,-1.30324 -9.0281,-3.45117 -2.4035,2.14793 -5.5654,3.45117 -9.0282,3.45117 -3.4629,0 -6.6247,-1.30324 -9.0283,-3.45117 -2.4035,2.14793 -5.5653,3.45117 -9.0282,3.45117 -3.4626,0 -6.6247,-1.30324 -9.0281,-3.45117 -2.4036,2.14793 -5.5653,3.45117 -9.0283,3.45117 -3.4628,0 -6.6247,-1.30324 -9.0282,-3.45117 -2.4035,2.14793 -5.5653,3.45117 -9.0282,3.45117 -3.4627,0 -5.863,-2.8201 -9.0281,-3.45117 z" /><path
     id="path14116-5-8-4-6-3"
     style="display:inline;fill:#1f3a84;fill-opacity:1;stroke:none;stroke-width:2.2;stroke-linecap:round;stroke-linejoin:round;stroke-dasharray:none;stroke-opacity:1"
     d="m 2230.0103,186.39653 c -0.9333,0.83421 -2.0756,1.4518 -3.2773,2.00977 -1.4395,0.64386 -2.9676,1.07297 -4.6015,1.15625 a 0.50153646,0.50005 0 0 0 -0.01,0.002 c -0.3996,0.0257 -0.6133,0.13876 -0.7268,0.14062 -1.2049,-0.0107 -2.3473,-0.3199 -3.5202,-0.66601 a 0.50153646,0.50005 0 0 0 -0.01,-0.002 c -0.4818,-0.1355 -0.8849,-0.12555 -1.1147,-0.21094 v -0.002 c -1.457,-0.57196 -2.7895,-1.39414 -3.9394,-2.42188 a 0.50153646,0.50005 0 0 0 -0.6699,0 c -2.3152,2.06943 -5.3557,3.32227 -8.6917,3.32227 -3.3365,0 -6.3766,-1.25283 -8.6918,-3.32227 a 0.50153646,0.50005 0 0 0 -0.67,0 c -2.3153,2.06944 -5.3556,3.32227 -8.6918,3.32227 -3.3363,0 -6.3742,-1.25273 -8.6897,-3.32227 a 0.50153646,0.50005 0 0 0 -0.67,0 c -2.3152,2.06935 -5.3574,3.32227 -8.6938,3.32227 -3.3362,0 -6.3765,-1.25284 -8.6917,-3.32227 a 0.50153646,0.50005 0 0 0 -0.67,0 c -2.3154,2.06944 -5.3556,3.32227 -8.6918,3.32227 -3.3363,0 -6.3764,-1.25282 -8.6917,-3.32227 a 0.50153646,0.50005 0 0 0 -0.6701,0 c -2.3153,2.06944 -5.3555,3.32227 -8.6917,3.32227 -3.3362,0 -6.3764,-1.25282 -8.6918,-3.32227 a 0.50153646,0.50005 0 0 0 -0.67,0 c -2.3151,2.06942 -5.3555,3.32227 -8.6917,3.32227 -3.3361,0 -6.3764,-1.25284 -8.6918,-3.32227 a 0.50153646,0.50005 0 0 0 -0.6699,0 c -2.3154,2.06944 -5.3555,3.32227 -8.6918,3.32227 -3.3363,0 -6.3765,-1.25283 -8.6918,-3.32227 a 0.50153646,0.50005 0 0 0 -0.6699,0 c -2.3154,2.06952 -5.3536,3.32227 -8.6898,3.32227 -3.3362,0 -6.3765,-1.25285 -8.6918,-3.32227 a 0.50153646,0.50005 0 0 0 -0.6699,0 c -2.3152,2.06934 -5.3577,3.32227 -8.6938,3.32227 -3.3362,0 -6.3765,-1.25284 -8.6918,-3.32227 a 0.50153646,0.50005 0 0 0 -0.6699,0 c -2.3154,2.06944 -5.3556,3.32227 -8.6918,3.32227 -3.3362,0 -6.3765,-1.25283 -8.6918,-3.32227 a 0.50153646,0.50005 0 0 0 -0.6699,0 c -2.3153,2.06943 -5.3556,3.32227 -8.6918,3.32227 -3.3362,0 -6.3765,-1.25284 -8.6918,-3.32227 a 0.50153646,0.50005 0 0 0 -0.6699,0 c -2.3153,2.06943 -5.3556,3.32227 -8.6918,3.32227 -0.5431,0 -1.0142,-0.2226 -1.5397,-0.28711 a 1035.296,1069.9351 0 0 0 -0.6171,1.29102 c 0.7257,0.12096 1.396,0.40234 2.1568,0.40234 3.4478,0 6.5747,-1.30052 9.0267,-3.37305 2.4521,2.07253 5.579,3.37305 9.0268,3.37305 3.4478,0 6.5747,-1.30052 9.0267,-3.37305 2.4521,2.07253 5.579,3.37305 9.0268,3.37305 3.4478,0 6.5746,-1.30053 9.0268,-3.37305 2.452,2.07253 5.579,3.37305 9.0267,3.37305 3.4478,0 6.5766,-1.30039 9.0287,-3.37305 2.4521,2.07254 5.579,3.37305 9.0268,3.37305 3.4478,0 6.5729,-1.30059 9.0247,-3.37305 2.4521,2.07253 5.5789,3.37305 9.0268,3.37305 3.4479,0 6.5746,-1.30053 9.0268,-3.37305 2.452,2.07253 5.5791,3.37305 9.0267,3.37305 3.4478,0 6.5747,-1.30051 9.0268,-3.37305 2.4521,2.07251 5.5789,3.37305 9.0267,3.37305 3.4478,0 6.5747,-1.30052 9.0268,-3.37305 2.4521,2.07251 5.5789,3.37305 9.0267,3.37305 3.4478,0 6.5747,-1.30052 9.0268,-3.37305 2.4521,2.07253 5.579,3.37305 9.0267,3.37305 3.4479,0 6.5765,-1.30041 9.0287,-3.37305 2.4521,2.07244 5.577,3.37305 9.0248,3.37305 3.4479,0 6.5747,-1.30052 9.0268,-3.37305 2.4521,2.07252 5.5789,3.37305 9.0268,3.37305 3.4477,0 6.5746,-1.30052 9.0267,-3.37305 1.1696,0.98775 2.4627,1.83533 3.9081,2.40235 a 0.50153646,0.50005 0 0 0 0.01,0.002 c 0.4949,0.18763 0.9341,0.16607 1.2047,0.24218 1.1842,0.34941 2.4257,0.69362 3.7944,0.70508 a 0.50153646,0.50005 0 0 0 0.01,0 c 0.4159,-0.003 0.6533,-0.13211 0.7797,-0.14258 l 0.01,-0.002 c 1.7741,-0.0916 3.4263,-0.55488 4.9541,-1.23828 a 0.50153646,0.50005 0 0 0 0.01,-0.004 c 1.1217,-0.52056 2.2117,-1.16341 3.1951,-1.96875 2.452,2.07212 5.5793,3.3711 9.0268,3.3711 3.4479,0 6.5746,-1.30054 9.0267,-3.37305 2.4518,2.07245 5.577,3.37305 9.0248,3.37305 3.4479,0 6.5765,-1.30042 9.0287,-3.37305 2.4521,2.07252 5.5791,3.37305 9.0267,3.37305 3.4479,0 6.5748,-1.30054 9.0268,-3.37305 2.452,2.07251 5.5789,3.37305 9.0267,3.37305 3.4478,0 6.5747,-1.30054 9.0268,-3.37305 2.4521,2.07251 5.5788,3.37305 9.0267,3.37305 3.4478,0 6.5747,-1.30053 9.0268,-3.37305 2.4521,2.07251 5.5788,3.37305 9.0268,3.37305 3.4478,0 6.5745,-1.30055 9.0268,-3.37305 2.452,2.07251 5.5789,3.37305 9.0267,3.37305 3.4478,0 6.5747,-1.30054 9.0267,-3.37305 2.4521,2.07251 5.579,3.37305 9.0268,3.37305 3.4477,0 6.5747,-1.30053 9.0267,-3.37305 2.4521,2.07251 5.5789,3.37305 9.0268,3.37305 3.4478,0 6.5747,-1.30054 9.0267,-3.37305 2.4521,2.07251 5.5789,3.37305 9.0268,3.37305 3.4478,0 6.5747,-1.30054 9.0267,-3.37305 2.4521,2.07252 5.579,3.37305 9.0268,3.37305 3.4479,0 6.5747,-1.30054 9.0268,-3.37305 2.452,2.07252 5.5788,3.37305 9.0267,3.37305 3.4477,0 6.5729,-1.3006 9.0248,-3.37305 2.4522,2.07264 5.5809,3.37305 9.0287,3.37305 3.4478,0 6.5748,-1.30053 9.0268,-3.37305 2.452,2.07252 5.579,3.37305 9.0267,3.37305 3.4479,0 6.5747,-1.30054 9.0268,-3.37305 2.452,2.07252 5.579,3.37305 9.0267,3.37305 3.4479,0 6.5747,-1.30054 9.0268,-3.37305 2.4521,2.07253 5.579,3.37305 9.0267,3.37305 3.4479,0 6.5747,-1.30054 9.0267,-3.37305 2.4522,2.07251 5.579,3.37305 9.0269,3.37305 3.4479,0 6.5746,-1.30054 9.0267,-3.37305 2.452,2.07243 5.5771,3.37305 9.0248,3.37305 3.4479,0 6.5747,-1.30053 9.0267,-3.37305 2.4523,2.07264 5.581,3.37305 9.0288,3.37305 3.4478,0 6.5746,-1.30055 9.0267,-3.37305 2.4521,2.07251 5.5789,3.37305 9.0268,3.37305 3.4477,0 6.5746,-1.30054 9.0267,-3.37305 2.452,2.07251 5.5788,3.37305 9.0267,3.37305 3.4478,0 6.5747,-1.30049 9.0268,-3.37305 2.4521,2.07251 5.5789,3.37305 9.0267,3.37305 3.4479,0 6.5746,-1.30055 9.0269,-3.37305 2.452,2.07251 5.5788,3.37305 9.0267,3.37305 3.4478,0 6.5728,-1.30061 9.0248,-3.37305 2.4522,2.07264 5.5809,3.37305 9.0287,3.37305 3.4478,0 6.5747,-1.30054 9.0268,-3.37305 2.452,2.07251 5.5788,3.37305 9.0267,3.37305 3.4478,0 6.5747,-1.30054 9.0267,-3.37305 2.4521,2.07252 5.5791,3.37305 9.0268,3.37305 3.4478,0 6.5748,-1.30053 9.0267,-3.37305 2.4522,2.07253 5.5791,3.37305 9.0268,3.37305 3.4478,0 6.5747,-1.30053 9.0267,-3.37305 2.4522,2.07251 5.579,3.37305 9.0269,3.37305 3.4477,0 6.5746,-1.30053 9.0267,-3.37305 2.4519,2.07245 5.5771,3.37305 9.0248,3.37305 3.4478,0 6.5765,-1.30041 9.0287,-3.37305 2.452,2.07252 5.579,3.37305 9.0267,3.37305 3.448,0 6.5749,-1.30053 9.0268,-3.37305 2.452,2.07251 5.5789,3.37305 9.0267,3.37305 3.4478,0 6.5747,-1.30054 9.0268,-3.37305 2.4521,2.07251 5.579,3.37305 9.0267,3.37305 3.4479,0 6.5747,-1.30054 9.0268,-3.37305 2.4522,2.07251 5.579,3.37305 9.0267,3.37305 3.448,0 6.5747,-1.30054 9.0269,-3.37305 2.4521,2.07251 5.5789,3.37305 9.0267,3.37305 3.4479,0 6.5729,-1.3006 9.0247,-3.37305 2.4523,2.07263 5.5809,3.37305 9.0288,3.37305 3.4477,0 6.5746,-1.30054 9.0267,-3.37305 2.4521,2.07251 5.5789,3.37305 9.0268,3.37305 3.4478,0 6.5746,-1.30055 9.0267,-3.37305 2.4521,2.07251 5.5789,3.37305 9.0268,3.37305 3.4477,0 6.5747,-1.30053 9.0267,-3.37305 2.4522,2.07251 5.579,3.37305 9.0268,3.37305 3.4479,0 6.5748,-1.30053 9.0267,-3.37305 2.4521,2.07251 5.5788,3.37305 9.0268,3.37305 3.4478,0 6.5729,-1.3006 9.0248,-3.37305 2.452,2.07252 5.579,3.37305 9.0267,3.37305 3.4478,0 6.5765,-1.30041 9.0288,-3.37305 2.452,2.07251 5.5789,3.37305 9.0267,3.37305 3.4478,0 6.5747,-1.30054 9.0268,-3.37305 2.452,2.07252 5.579,3.37305 9.0267,3.37305 3.4478,0 6.5749,-1.30051 9.0268,-3.37305 2.452,2.07251 5.5789,3.37305 9.0267,3.37305 3.4478,0 6.5747,-1.30054 9.0268,-3.37305 2.4521,2.07251 5.5789,3.37305 9.0267,3.37305 3.448,0 6.5747,-1.30054 9.0268,-3.37305 2.4519,2.07244 5.5769,3.37305 9.0248,3.37305 3.4478,0 6.5746,-1.30053 9.0267,-3.37305 2.4524,2.07263 5.5811,3.37305 9.0288,3.37305 2.2436,0 4.3369,-0.58727 6.2137,-1.52539 v -1.41407 a 0.50153646,0.50005 0 0 0 -0.2273,0.0312 c -1.8059,0.94092 -3.8271,1.50391 -5.9864,1.50391 -3.3359,0 -6.3784,-1.25477 -8.6938,-3.32422 a 0.50153646,0.50005 0 0 0 -0.6699,0 c -2.3153,2.06952 -5.3559,3.32422 -8.6918,3.32422 -3.3362,0 -6.3743,-1.2546 -8.6898,-3.32422 a 0.50153646,0.50005 0 0 0 -0.67,0 c -2.3153,2.06954 -5.3555,3.32422 -8.6918,3.32422 -3.336,0 -6.3763,-1.25469 -8.6917,-3.32422 a 0.50153646,0.50005 0 0 0 -0.67,0 c -2.3154,2.06953 -5.3556,3.32422 -8.6918,3.32422 -3.336,0 -6.3763,-1.25469 -8.6917,-3.32422 a 0.50153646,0.50005 0 0 0 -0.67,0 c -2.3152,2.06951 -5.3557,3.32422 -8.6918,3.32422 -3.3358,0 -6.3763,-1.25469 -8.6917,-3.32422 a 0.50153646,0.50005 0 0 0 -0.6701,0 c -2.3153,2.06953 -5.3556,3.32422 -8.6917,3.32422 -3.3359,0 -6.3762,-1.25469 -8.6918,-3.32422 a 0.50153646,0.50005 0 0 0 -0.6699,0 c -2.3153,2.06945 -5.3578,3.32422 -8.6938,3.32422 -3.336,0 -6.3764,-1.25469 -8.6918,-3.32422 a 0.50153646,0.50005 0 0 0 -0.6698,0 c -2.3156,2.06962 -5.3539,3.32422 -8.6899,3.32422 -3.3361,0 -6.3763,-1.25468 -8.6918,-3.32422 a 0.50153646,0.50005 0 0 0 -0.6699,0 c -2.3153,2.06952 -5.3557,3.32422 -8.6918,3.32422 -3.336,0 -6.3763,-1.25469 -8.6918,-3.32422 a 0.50153646,0.50005 0 0 0 -0.6699,0 c -2.3155,2.06953 -5.3559,3.32422 -8.6918,3.32422 -3.3361,0 -6.3763,-1.25468 -8.6917,-3.32422 a 0.50153646,0.50005 0 0 0 -0.6701,0 c -2.3154,2.06955 -5.3557,3.32422 -8.6917,3.32422 -3.3361,0 -6.3763,-1.25468 -8.6917,-3.32422 a 0.50153646,0.50005 0 0 0 -0.6701,0 c -2.3154,2.06954 -5.3557,3.32422 -8.6917,3.32422 -3.3361,0 -6.3785,-1.25477 -8.6938,-3.32422 a 0.50153646,0.50005 0 0 0 -0.6699,0 c -2.3154,2.06961 -5.3536,3.32422 -8.6898,3.32422 -3.336,0 -6.3763,-1.25468 -8.6918,-3.32422 a 0.50153646,0.50005 0 0 0 -0.67,0 c -2.3153,2.06954 -5.3555,3.32422 -8.6918,3.32422 -3.3358,0 -6.3762,-1.25468 -8.6917,-3.32422 a 0.50153646,0.50005 0 0 0 -0.67,0 c -2.3154,2.06954 -5.3555,3.32422 -8.6918,3.32422 -3.3358,0 -6.3761,-1.25468 -8.6917,-3.32422 a 0.50153646,0.50005 0 0 0 -0.6699,0 c -2.3155,2.06953 -5.3558,3.32422 -8.6919,3.32422 -3.3359,0 -6.3762,-1.25469 -8.6917,-3.32422 a 0.50153646,0.50005 0 0 0 -0.67,0 c -2.3153,2.06953 -5.3556,3.32422 -8.6918,3.32422 -3.3358,0 -6.3762,-1.25469 -8.6918,-3.32422 a 0.50153646,0.50005 0 0 0 -0.6699,0 c -2.3153,2.06945 -5.3578,3.32422 -8.6937,3.32422 -3.3361,0 -6.3742,-1.2546 -8.6899,-3.32422 a 0.50153646,0.50005 0 0 0 -0.6699,0 c -2.3154,2.06953 -5.3558,3.32422 -8.6917,3.32422 -3.3361,0 -6.3764,-1.25469 -8.6918,-3.32422 a 0.50153646,0.50005 0 0 0 -0.67,0 c -2.3153,2.06953 -5.3558,3.32422 -8.6918,3.32422 -3.3359,0 -6.3764,-1.25471 -8.6917,-3.32422 a 0.50153646,0.50005 0 0 0 -0.67,0 c -2.3153,2.06952 -5.3557,3.32422 -8.6918,3.32422 -3.3359,0 -6.3763,-1.25469 -8.6917,-3.32422 a 0.50153646,0.50005 0 0 0 -0.6701,0 c -2.3153,2.06953 -5.3556,3.32422 -8.6917,3.32422 -3.3361,0 -6.3763,-1.25468 -8.6917,-3.32422 a 0.50153646,0.50005 0 0 0 -0.6701,0 c -2.3153,2.06953 -5.3556,3.32422 -8.6917,3.32422 -3.3359,0 -6.3785,-1.25477 -8.6938,-3.32422 a 0.50153646,0.50005 0 0 0 -0.6699,0 c -2.3155,2.06962 -5.3537,3.32422 -8.6898,3.32422 -3.336,0 -6.3764,-1.25469 -8.6918,-3.32422 a 0.50153646,0.50005 0 0 0 -0.6699,0 c -2.3155,2.06955 -5.3557,3.32422 -8.6919,3.32422 -3.3359,0 -6.3762,-1.25469 -8.6917,-3.32422 a 0.50153646,0.50005 0 0 0 -0.6699,0 c -2.3156,2.06954 -5.3559,3.32422 -8.6919,3.32422 -3.336,0 -6.3762,-1.25468 -8.6917,-3.32422 a 0.50153646,0.50005 0 0 0 -0.6699,0 c -2.3156,2.06954 -5.3559,3.32422 -8.6918,3.32422 -3.3361,0 -6.3763,-1.25468 -8.6918,-3.32422 a 0.50153646,0.50005 0 0 0 -0.67,0 c -2.3155,2.06955 -5.3557,3.32422 -8.6917,3.32422 -3.336,0 -6.3785,-1.25477 -8.6939,-3.32422 a 0.50153646,0.50005 0 0 0 -0.6698,0 c -2.3153,2.06953 -5.3558,3.32422 -8.6918,3.32422 -3.3361,0 -6.3741,-1.25459 -8.6898,-3.32422 a 0.50153646,0.50005 0 0 0 -0.67,0 c -2.3153,2.06954 -5.3555,3.32422 -8.6917,3.32422 -3.3361,0 -6.3764,-1.25469 -8.6918,-3.32422 a 0.50153646,0.50005 0 0 0 -0.67,0 c -2.3153,2.06953 -5.3556,3.32422 -8.6918,3.32422 -3.3359,0 -6.3764,-1.25471 -8.6917,-3.32422 a 0.50153646,0.50005 0 0 0 -0.67,0 c -2.3154,2.06954 -5.3556,3.32422 -8.6918,3.32422 -3.3358,0 -6.3763,-1.25469 -8.6917,-3.32422 a 0.50153646,0.50005 0 0 0 -0.6701,0 c -2.3153,2.06954 -5.3555,3.32422 -8.6917,3.32422 -3.3358,0 -6.3763,-1.25469 -8.6917,-3.32422 a 0.50153646,0.50005 0 0 0 -0.67,0 c -2.3153,2.06952 -5.3557,3.32422 -8.6918,3.32422 -3.3359,0 -6.3784,-1.25477 -8.6938,-3.32422 a 0.50153646,0.50005 0 0 0 -0.6698,0 c -2.3156,2.06962 -5.3539,3.32422 -8.6899,3.32422 -3.336,0 -6.3764,-1.2547 -8.6918,-3.32422 a 0.50153646,0.50005 0 0 0 -0.6699,0 c -2.3154,2.06953 -5.3557,3.32422 -8.6918,3.32422 -3.336,0 -6.3764,-1.2547 -8.6918,-3.32422 a 0.50153646,0.50005 0 0 0 -0.6699,0 c -2.3155,2.06953 -5.3557,3.32422 -8.6918,3.32422 -3.3361,0 -6.3763,-1.25468 -8.6917,-3.32422 a 0.50153646,0.50005 0 0 0 -0.67,0 c -2.3154,2.06953 -5.3558,3.32422 -8.6918,3.32422 -3.3361,0 -6.3763,-1.25468 -8.6917,-3.32422 a 0.50153646,0.50005 0 0 0 -0.6701,0 c -2.3153,2.06953 -5.3557,3.32422 -8.6917,3.32422 -3.336,0 -6.3763,-1.25469 -8.6918,-3.32422 a 0.50153646,0.50005 0 0 0 -0.67,0 c -2.3153,2.06953 -5.3556,3.32422 -8.6917,3.32422 -3.3361,0 -6.3763,-1.25469 -8.6918,-3.32422 a 0.50153646,0.50005 0 0 0 -0.67,0 c -2.3154,2.06955 -5.3556,3.32422 -8.6917,3.32422 -3.3361,0 -6.3764,-1.25468 -8.6918,-3.32422 a 0.50153646,0.50005 0 0 0 -0.67,0 c -2.3153,2.06953 -5.3557,3.32422 -8.6918,3.32422 -3.336,0 -6.3763,-1.25468 -8.6917,-3.32422 a 0.50153646,0.50005 0 0 0 -0.6699,0 c -2.3155,2.06953 -5.3558,3.32422 -8.6919,3.32422 -3.3359,0 -6.3762,-1.25469 -8.6917,-3.32422 a 0.50153646,0.50005 0 0 0 -0.67,0 c -2.3154,2.06954 -5.3556,3.32422 -8.6918,3.32422 -3.3357,0 -6.3762,-1.2547 -8.6917,-3.32422 a 0.50153646,0.50005 0 0 0 -0.67,0 c -2.3153,2.06945 -5.3577,3.32422 -8.6937,3.32422 -3.336,0 -6.3742,-1.2546 -8.6899,-3.32422 a 0.50153646,0.50005 0 0 0 -0.6699,0 c -2.3154,2.06954 -5.3556,3.32422 -8.6917,3.32422 -3.3361,0 -6.3764,-1.25469 -8.6918,-3.32422 a 0.50153646,0.50005 0 0 0 -0.67,0 z" /><path
     id="path14116-5-8-4-6-3-3"
     style="display:inline;fill:#1c469c;fill-opacity:1;stroke:none;stroke-width:2.2;stroke-linecap:round;stroke-linejoin:round;stroke-dasharray:none;stroke-opacity:1"
     d="m 2229.2702,172.39653 c -0.934,0.83421 -2.0775,1.4518 -3.2801,2.00977 -1.441,0.64386 -2.9705,1.07297 -4.6057,1.15625 a 0.50198464,0.50005 0 0 0 -0.01,0.002 c -0.3999,0.0257 -0.6139,0.13876 -0.7274,0.14062 -1.206,-0.0107 -2.3493,-0.3199 -3.5234,-0.66601 a 0.50198464,0.50005 0 0 0 -0.01,-0.002 c -0.4822,-0.1355 -0.8857,-0.12555 -1.1157,-0.21094 v -0.002 c -1.4584,-0.57196 -2.7921,-1.39414 -3.9429,-2.42188 a 0.50198464,0.50005 0 0 0 -0.6706,0 c -2.3173,2.06943 -5.3604,3.32227 -8.6995,3.32227 -3.3393,0 -6.3821,-1.25283 -8.6996,-3.32227 a 0.50198464,0.50005 0 0 0 -0.6705,0 c -2.3174,2.06944 -5.3603,3.32227 -8.6995,3.32227 -3.3394,0 -6.3799,-1.25273 -8.6975,-3.32227 a 0.50198464,0.50005 0 0 0 -0.6707,0 c -2.3172,2.06935 -5.3621,3.32227 -8.7015,3.32227 -3.3391,0 -6.3822,-1.25284 -8.6995,-3.32227 a 0.50198464,0.50005 0 0 0 -0.6705,0 c -2.3176,2.06944 -5.3605,3.32227 -8.6995,3.32227 -3.3394,0 -6.3822,-1.25282 -8.6996,-3.32227 a 0.50198464,0.50005 0 0 0 -0.6706,0 c -2.3174,2.06944 -5.3604,3.32227 -8.6995,3.32227 -3.3394,0 -6.3822,-1.25282 -8.6995,-3.32227 a 0.50198464,0.50005 0 0 0 -0.6707,0 c -2.3172,2.06942 -5.3603,3.32227 -8.6995,3.32227 -3.339,0 -6.3822,-1.25284 -8.6996,-3.32227 a 0.50198464,0.50005 0 0 0 -0.6705,0 c -2.3175,2.06944 -5.3603,3.32227 -8.6995,3.32227 -3.3393,0 -6.3822,-1.25283 -8.6996,-3.32227 a 0.50198464,0.50005 0 0 0 -0.6706,0 c -2.3173,2.06952 -5.3583,3.32227 -8.6975,3.32227 -3.3391,0 -6.3821,-1.25285 -8.6995,-3.32227 a 0.50198464,0.50005 0 0 0 -0.6706,0 c -2.3171,2.06934 -5.3623,3.32227 -8.7015,3.32227 -3.3392,0 -6.3822,-1.25284 -8.6995,-3.32227 a 0.50198464,0.50005 0 0 0 -0.6706,0 c -2.3174,2.06944 -5.3603,3.32227 -8.6995,3.32227 -3.3392,0 -6.3822,-1.25284 -8.6995,-3.32227 a 0.50198464,0.50005 0 0 0 -0.6706,0 c -2.3174,2.06943 -5.3603,3.32227 -8.6995,3.32227 -3.3392,0 -6.3822,-1.25284 -8.6996,-3.32227 a 0.50198464,0.50005 0 0 0 -0.6705,0 c -0.2749,0.24549 -0.6466,0.35636 -0.9412,0.57813 a 1036.2211,1069.9351 0 0 0 -1.0234,2.14453 c 0.7774,-0.4449 1.6189,-0.79213 2.2998,-1.36719 2.4543,2.07253 5.584,3.37305 9.0349,3.37305 3.4508,0 6.5805,-1.30052 9.0348,-3.37305 2.4542,2.07253 5.5839,3.37305 9.0348,3.37305 3.4509,0 6.5805,-1.30053 9.0348,-3.37305 2.4543,2.07253 5.584,3.37305 9.0348,3.37305 3.451,0 6.5825,-1.30039 9.0368,-3.37305 2.4543,2.07254 5.5839,3.37305 9.0348,3.37305 3.4508,0 6.5788,-1.30059 9.0329,-3.37305 2.4542,2.07253 5.5839,3.37305 9.0348,3.37305 3.451,0 6.5806,-1.30053 9.0347,-3.37305 2.4543,2.07253 5.5842,3.37305 9.0349,3.37305 3.4509,0 6.5806,-1.30051 9.0349,-3.37305 2.4543,2.07251 5.5838,3.37305 9.0348,3.37305 3.4508,0 6.5805,-1.30052 9.0348,-3.37305 2.4543,2.07251 5.5839,3.37305 9.0349,3.37305 3.4508,0 6.5805,-1.30052 9.0347,-3.37305 2.4543,2.07253 5.584,3.37305 9.0348,3.37305 3.4511,0 6.5824,-1.30041 9.0368,-3.37305 2.4543,2.07244 5.582,3.37305 9.0329,3.37305 3.4509,0 6.5805,-1.30052 9.0348,-3.37305 2.4542,2.07252 5.5838,3.37305 9.0348,3.37305 3.4508,0 6.5806,-1.30052 9.0348,-3.37305 1.1707,0.98775 2.4649,1.83533 3.9117,2.40235 a 0.50198464,0.50005 0 0 0 0.01,0.002 c 0.4953,0.18763 0.9348,0.16607 1.2057,0.24218 1.1854,0.34941 2.428,0.69362 3.7978,0.70508 a 0.50198464,0.50005 0 0 0 0.01,0 c 0.4162,-0.003 0.6538,-0.13211 0.7804,-0.14258 l 0.01,-0.002 c 1.7757,-0.0916 3.4294,-0.55488 4.9586,-1.23828 a 0.50198464,0.50005 0 0 0 0.01,-0.004 c 1.1226,-0.52056 2.2136,-1.1634 3.1979,-1.96875 2.4542,2.07212 5.5843,3.3711 9.0349,3.3711 3.4509,0 6.5805,-1.30054 9.0347,-3.37305 2.4541,2.07245 5.582,3.37305 9.0328,3.37305 3.4511,0 6.5824,-1.30042 9.0368,-3.37305 2.4545,2.07252 5.5843,3.37305 9.0349,3.37305 3.451,0 6.5805,-1.30054 9.0348,-3.37305 2.4542,2.07251 5.5839,3.37305 9.0348,3.37305 3.4509,0 6.5806,-1.30054 9.0348,-3.37305 2.4543,2.07251 5.5839,3.37305 9.0348,3.37305 3.4509,0 6.5807,-1.30053 9.0349,-3.37305 2.4543,2.07251 5.5839,3.37305 9.0349,3.37305 3.4507,0 6.5803,-1.30055 9.0348,-3.37305 2.4541,2.07251 5.5838,3.37305 9.0348,3.37305 3.4508,0 6.5805,-1.30054 9.0348,-3.37305 2.4543,2.07251 5.5839,3.37305 9.0348,3.37305 3.4508,0 6.5806,-1.30053 9.0348,-3.37305 2.4543,2.07251 5.5838,3.37305 9.0348,3.37305 3.4509,0 6.5805,-1.30054 9.0349,-3.37305 2.4542,2.07251 5.5838,3.37305 9.0348,3.37305 3.4509,0 6.5805,-1.30054 9.0348,-3.37305 2.4542,2.07252 5.5839,3.37305 9.0347,3.37305 3.451,0 6.5807,-1.30054 9.0349,-3.37305 2.4543,2.07252 5.584,3.37305 9.0348,3.37305 3.4509,0 6.5788,-1.3006 9.0328,-3.37305 2.4545,2.07264 5.586,3.37305 9.037,3.37305 3.4508,0 6.5806,-1.30053 9.0348,-3.37305 2.4541,2.07252 5.5839,3.37305 9.0347,3.37305 3.451,0 6.5806,-1.30054 9.0348,-3.37305 2.4543,2.07252 5.5841,3.37305 9.0349,3.37305 3.451,0 6.5805,-1.30054 9.0348,-3.37305 2.4543,2.07253 5.5839,3.37305 9.0348,3.37305 3.4509,0 6.5805,-1.30054 9.0349,-3.37305 2.4542,2.07251 5.5838,3.37305 9.0348,3.37305 3.451,0 6.5805,-1.30054 9.0347,-3.37305 2.4542,2.07243 5.5821,3.37305 9.0328,3.37305 3.4511,0 6.5808,-1.30053 9.0349,-3.37305 2.4545,2.07264 5.5859,3.37305 9.0368,3.37305 3.4509,0 6.5805,-1.30055 9.0348,-3.37305 2.4543,2.07251 5.5839,3.37305 9.0349,3.37305 3.4508,0 6.5805,-1.30054 9.0348,-3.37305 2.4542,2.07251 5.5838,3.37305 9.0348,3.37305 3.4508,0 6.5805,-1.30049 9.0349,-3.37305 2.4542,2.07251 5.5838,3.37305 9.0348,3.37305 3.4508,0 6.5804,-1.30055 9.0348,-3.37305 2.4542,2.07251 5.5838,3.37305 9.0348,3.37305 3.4508,0 6.5787,-1.30061 9.0328,-3.37305 2.4545,2.07264 5.5859,3.37305 9.0368,3.37305 3.451,0 6.5806,-1.30054 9.0348,-3.37305 2.4544,2.07251 5.584,3.37305 9.0349,3.37305 3.4509,0 6.5804,-1.30054 9.0348,-3.37305 2.4542,2.07252 5.584,3.37305 9.0348,3.37305 3.4509,0 6.5807,-1.30053 9.0347,-3.37305 2.4544,2.07253 5.5842,3.37305 9.0349,3.37305 3.4509,0 6.5807,-1.30053 9.0349,-3.37305 2.4542,2.07251 5.5839,3.37305 9.0348,3.37305 3.4507,0 6.5805,-1.30053 9.0349,-3.37305 2.4539,2.07245 5.5819,3.37305 9.0328,3.37305 3.4508,0 6.5823,-1.30041 9.0368,-3.37305 2.4542,2.07252 5.5839,3.37305 9.0347,3.37305 3.451,0 6.5807,-1.30053 9.0349,-3.37305 2.4543,2.07251 5.5839,3.37305 9.0348,3.37305 3.451,0 6.5805,-1.30054 9.0348,-3.37305 2.4544,2.07251 5.5841,3.37305 9.0349,3.37305 3.451,0 6.5805,-1.30054 9.0348,-3.37305 2.4543,2.07251 5.584,3.37305 9.0347,3.37305 3.4511,0 6.5807,-1.30054 9.0348,-3.37305 2.4545,2.07251 5.5842,3.37305 9.0349,3.37305 3.4511,0 6.5789,-1.3006 9.0328,-3.37305 2.4544,2.07263 5.5858,3.37305 9.0369,3.37305 3.4507,0 6.5804,-1.30054 9.0349,-3.37305 2.4541,2.07251 5.5837,3.37305 9.0347,3.37305 3.4509,0 6.5805,-1.30055 9.0348,-3.37305 2.4543,2.07251 5.5839,3.37305 9.0348,3.37305 3.4508,0 6.5805,-1.30053 9.0349,-3.37305 2.4543,2.07251 5.5838,3.37305 9.0348,3.37305 3.4509,0 6.5806,-1.30053 9.0348,-3.37305 2.4543,2.07251 5.5838,3.37305 9.0349,3.37305 3.4508,0 6.5787,-1.3006 9.0327,-3.37305 2.4543,2.07252 5.5841,3.37305 9.0348,3.37305 3.451,0 6.5825,-1.30041 9.0369,-3.37305 2.4543,2.07251 5.5839,3.37305 9.0348,3.37305 3.4509,0 6.5806,-1.30054 9.0348,-3.37305 2.4542,2.07252 5.584,3.37305 9.0348,3.37305 3.4509,0 6.5808,-1.30051 9.0349,-3.37305 2.4542,2.07251 5.5839,3.37305 9.0348,3.37305 3.4509,0 6.5806,-1.30054 9.0348,-3.37305 2.4543,2.07251 5.584,3.37305 9.0349,3.37305 3.4509,0 6.5805,-1.30054 9.0348,-3.37305 2.454,2.07244 5.5818,3.37305 9.0328,3.37305 3.4508,0 6.5805,-1.30053 9.0347,-3.37305 2.4547,2.07263 5.5861,3.37305 9.0369,3.37305 2.2456,0 4.3408,-0.58727 6.2193,-1.52539 v -1.41407 a 0.50198464,0.50005 0 0 0 -0.2275,0.0312 c -1.8075,0.94092 -3.8306,1.50391 -5.9918,1.50391 -3.3389,0 -6.3841,-1.25477 -8.7015,-3.32422 a 0.50198464,0.50005 0 0 0 -0.6705,0 c -2.3175,2.06952 -5.3607,3.32422 -8.6996,3.32422 -3.3391,0 -6.38,-1.2546 -8.6976,-3.32422 a 0.50198464,0.50005 0 0 0 -0.6705,0 c -2.3175,2.06954 -5.3605,3.32422 -8.6995,3.32422 -3.3391,0 -6.3821,-1.25469 -8.6995,-3.32422 a 0.50198464,0.50005 0 0 0 -0.6707,0 c -2.3174,2.06953 -5.3604,3.32422 -8.6995,3.32422 -3.339,0 -6.382,-1.25469 -8.6995,-3.32422 a 0.50198464,0.50005 0 0 0 -0.6706,0 c -2.3173,2.06951 -5.3605,3.32422 -8.6996,3.32422 -3.3388,0 -6.3819,-1.25469 -8.6996,-3.32422 a 0.50198464,0.50005 0 0 0 -0.6705,0 c -2.3174,2.06953 -5.3605,3.32422 -8.6995,3.32422 -3.339,0 -6.382,-1.25469 -8.6995,-3.32422 a 0.50198464,0.50005 0 0 0 -0.6707,0 c -2.3172,2.06945 -5.3624,3.32422 -8.7015,3.32422 -3.3388,0 -6.382,-1.25469 -8.6995,-3.32422 a 0.50198464,0.50005 0 0 0 -0.6704,0 c -2.3177,2.06962 -5.3587,3.32422 -8.6976,3.32422 -3.3392,0 -6.382,-1.25468 -8.6996,-3.32422 a 0.50198464,0.50005 0 0 0 -0.6706,0 c -2.3173,2.06952 -5.3604,3.32422 -8.6995,3.32422 -3.339,0 -6.3821,-1.25469 -8.6995,-3.32422 a 0.50198464,0.50005 0 0 0 -0.6707,0 c -2.3174,2.06953 -5.3605,3.32422 -8.6995,3.32422 -3.339,0 -6.382,-1.25468 -8.6995,-3.32422 a 0.50198464,0.50005 0 0 0 -0.6705,0 c -2.3176,2.06955 -5.3606,3.32422 -8.6996,3.32422 -3.3391,0 -6.382,-1.25468 -8.6995,-3.32422 a 0.50198464,0.50005 0 0 0 -0.6706,0 c -2.3175,2.06954 -5.3606,3.32422 -8.6995,3.32422 -3.3391,0 -6.3842,-1.25477 -8.7016,-3.32422 a 0.50198464,0.50005 0 0 0 -0.6705,0 c -2.3175,2.06961 -5.3584,3.32422 -8.6976,3.32422 -3.3388,0 -6.3819,-1.25468 -8.6995,-3.32422 a 0.50198464,0.50005 0 0 0 -0.6706,0 c -2.3174,2.06954 -5.3603,3.32422 -8.6996,3.32422 -3.3387,0 -6.3817,-1.25468 -8.6995,-3.32422 a 0.50198464,0.50005 0 0 0 -0.6705,0 c -2.3175,2.06954 -5.3604,3.32422 -8.6995,3.32422 -3.3389,0 -6.3819,-1.25468 -8.6995,-3.32422 a 0.50198464,0.50005 0 0 0 -0.6707,0 c -2.3173,2.06953 -5.3603,3.32422 -8.6995,3.32422 -3.339,0 -6.3821,-1.25469 -8.6995,-3.32422 a 0.50198464,0.50005 0 0 0 -0.6706,0 c -2.3174,2.06952 -5.3604,3.32422 -8.6996,3.32422 -3.3388,0 -6.3819,-1.25469 -8.6995,-3.32422 a 0.50198464,0.50005 0 0 0 -0.6705,0 c -2.3174,2.06945 -5.3627,3.32422 -8.7015,3.32422 -3.3391,0 -6.38,-1.2546 -8.6975,-3.32422 a 0.50198464,0.50005 0 0 0 -0.6707,0 c -2.3174,2.06953 -5.3605,3.32422 -8.6995,3.32422 -3.339,0 -6.382,-1.25469 -8.6996,-3.32422 a 0.50198464,0.50005 0 0 0 -0.6704,0 c -2.3176,2.06953 -5.3607,3.32422 -8.6997,3.32422 -3.3388,0 -6.382,-1.25471 -8.6995,-3.32422 a 0.50198464,0.50005 0 0 0 -0.6706,0 c -2.3173,2.06952 -5.3604,3.32422 -8.6995,3.32422 -3.3388,0 -6.382,-1.25469 -8.6996,-3.32422 a 0.50198464,0.50005 0 0 0 -0.6705,0 c -2.3174,2.06953 -5.3604,3.32422 -8.6995,3.32422 -3.3391,0 -6.382,-1.25468 -8.6995,-3.32422 a 0.50198464,0.50005 0 0 0 -0.6707,0 c -2.3173,2.06953 -5.3604,3.32422 -8.6995,3.32422 -3.339,0 -6.3842,-1.25477 -8.7015,-3.32422 a 0.50198464,0.50005 0 0 0 -0.6705,0 c -2.3177,2.06962 -5.3586,3.32422 -8.6976,3.32422 -3.339,0 -6.382,-1.25469 -8.6996,-3.32422 a 0.50198464,0.50005 0 0 0 -0.6705,0 c -2.3176,2.06955 -5.3606,3.32422 -8.6995,3.32422 -3.3391,0 -6.3821,-1.25469 -8.6995,-3.32422 a 0.50198464,0.50005 0 0 0 -0.6707,0 c -2.3175,2.06954 -5.3606,3.32422 -8.6995,3.32422 -3.339,0 -6.382,-1.25468 -8.6995,-3.32422 a 0.50198464,0.50005 0 0 0 -0.6705,0 c -2.3177,2.06954 -5.3607,3.32422 -8.6996,3.32422 -3.3391,0 -6.382,-1.25468 -8.6996,-3.32422 a 0.50198464,0.50005 0 0 0 -0.6706,0 c -2.3174,2.06955 -5.3604,3.32422 -8.6995,3.32422 -3.3389,0 -6.3842,-1.25477 -8.7015,-3.32422 a 0.50198464,0.50005 0 0 0 -0.6706,0 c -2.3173,2.06952 -5.3604,3.32422 -8.6996,3.32422 -3.3388,0 -6.3797,-1.25459 -8.6975,-3.32422 a 0.50198464,0.50005 0 0 0 -0.6705,0 c -2.3174,2.06954 -5.3604,3.32422 -8.6995,3.32422 -3.3391,0 -6.382,-1.25469 -8.6996,-3.32422 a 0.50198464,0.50005 0 0 0 -0.6706,0 c -2.3173,2.06953 -5.3604,3.32422 -8.6995,3.32422 -3.3389,0 -6.3821,-1.25471 -8.6995,-3.32422 a 0.50198464,0.50005 0 0 0 -0.6706,0 c -2.3175,2.06954 -5.3604,3.32422 -8.6995,3.32422 -3.3389,0 -6.3821,-1.25469 -8.6995,-3.32422 a 0.50198464,0.50005 0 0 0 -0.6706,0 c -2.3175,2.06954 -5.3604,3.32422 -8.6996,3.32422 -3.3388,0 -6.382,-1.25469 -8.6995,-3.32422 a 0.50198464,0.50005 0 0 0 -0.6705,0 c -2.3174,2.06952 -5.3606,3.32422 -8.6995,3.32422 -3.3391,0 -6.3843,-1.25477 -8.7016,-3.32422 a 0.50198464,0.50005 0 0 0 -0.6706,0 c -2.3175,2.06962 -5.3585,3.32422 -8.6976,3.32422 -3.3389,0 -6.3821,-1.2547 -8.6995,-3.32422 a 0.50198464,0.50005 0 0 0 -0.6706,0 c -2.3174,2.06953 -5.3604,3.32422 -8.6996,3.32422 -3.3388,0 -6.3819,-1.2547 -8.6995,-3.32422 a 0.50198464,0.50005 0 0 0 -0.6705,0 c -2.3175,2.06953 -5.3605,3.32422 -8.6995,3.32422 -3.3391,0 -6.382,-1.25468 -8.6995,-3.32422 a 0.50198464,0.50005 0 0 0 -0.6707,0 c -2.3173,2.06953 -5.3603,3.32422 -8.6995,3.32422 -3.3391,0 -6.382,-1.25468 -8.6995,-3.32422 a 0.50198464,0.50005 0 0 0 -0.6705,0 c -2.3176,2.06953 -5.3607,3.32422 -8.6996,3.32422 -3.339,0 -6.382,-1.25469 -8.6995,-3.32422 a 0.50198464,0.50005 0 0 0 -0.6706,0 c -2.3175,2.06953 -5.3605,3.32422 -8.6995,3.32422 -3.339,0 -6.3821,-1.25469 -8.6995,-3.32422 a 0.50198464,0.50005 0 0 0 -0.6706,0 c -2.3176,2.06955 -5.3605,3.32422 -8.6995,3.32422 -3.3392,0 -6.3821,-1.25468 -8.6996,-3.32422 a 0.50198464,0.50005 0 0 0 -0.6706,0 c -2.3174,2.06953 -5.3606,3.32422 -8.6996,3.32422 -3.339,0 -6.3819,-1.25468 -8.6995,-3.32422 a 0.50198464,0.50005 0 0 0 -0.6706,0 c -2.3174,2.06953 -5.3604,3.32422 -8.6995,3.32422 -3.3389,0 -6.3819,-1.25469 -8.6996,-3.32422 a 0.50198464,0.50005 0 0 0 -0.6705,0 c -2.3174,2.06954 -5.3603,3.32422 -8.6995,3.32422 -3.3388,0 -6.382,-1.2547 -8.6995,-3.32422 a 0.50198464,0.50005 0 0 0 -0.6707,0 c -2.3172,2.06945 -5.3623,3.32422 -8.7015,3.32422 -3.3389,0 -6.3798,-1.2546 -8.6975,-3.32422 a 0.50198464,0.50005 0 0 0 -0.6705,0 c -2.3176,2.06954 -5.3604,3.32422 -8.6995,3.32422 -3.3391,0 -6.3821,-1.25469 -8.6996,-3.32422 a 0.50198464,0.50005 0 0 0 -0.6706,0 z" /><rect
     style="fill:#003682;fill-opacity:1;stroke:none;stroke-width:1;stroke-linecap:round;stroke-linejoin:round;stroke-opacity:1"
     id="rect7286"
     width="1999.0001"
     height="1"
     x="1059"
     y="0" /><rect
     style="fill:#003682;fill-opacity:1;stroke:none;stroke-width:0.999996;stroke-linecap:round;stroke-linejoin:round;stroke-opacity:1"
     id="rect7286-1"
     width="940"
     height="1"
     x="1058.0001"
     y="199" /><path
     id="path21427"
     style="display:inline;fill:#172957;fill-opacity:1;stroke:none;stroke-width:2;stroke-linejoin:round;stroke-dasharray:none"
     class="cls-5"
     d="M 2111.8986,-1.2219976e-7 C 2066.9675,62.151742 2028.9454,129.26253 1998.0001,199.94727 h 2.4004 C 2031.4267,129.24846 2069.5234,62.12228 2114.5724,-1.2219977e-7 Z" /><rect
     style="fill:#67a3ff;fill-opacity:1;stroke:none;stroke-width:2;stroke-linecap:round;stroke-linejoin:round;stroke-opacity:1"
     id="rect9906"
     width="1057.6998"
     height="1"
     x="0.50425041"
     y="-7.6293945e-06" /><rect
     style="fill:#67a3ff;fill-opacity:1;stroke:none;stroke-width:2;stroke-linecap:round;stroke-linejoin:round;stroke-opacity:1"
     id="rect9906-5"
     width="1057.6998"
     height="1"
     x="0.50425041"
     y="199" /><rect
     style="fill:#003682;fill-opacity:1;stroke:none;stroke-width:2;stroke-linecap:round;stroke-linejoin:round;stroke-opacity:1"
     id="rect9906-9"
     width="1058.4957"
     height="1"
     x="0.50427246"
     y="-5.9604645e-07" /><rect
     style="fill:#003682;fill-opacity:1;stroke:none;stroke-width:2;stroke-linecap:round;stroke-linejoin:round;stroke-opacity:1"
     id="rect9906-5-4"
     width="1057.6998"
     height="1"
     x="0.50427246"
     y="199" /></svg>
