<?xml version="1.0" encoding="UTF-8"?>
<svg id="Layer_1" data-name="Layer 1" xmlns="http://www.w3.org/2000/svg" xmlns:xlink="http://www.w3.org/1999/xlink" viewBox="0 0 4197.28 633.01">
  <defs>
    <style>
      .cls-1, .cls-2 {
        fill: #0a112b;
      }

      .cls-1, .cls-3, .cls-4, .cls-5, .cls-6, .cls-7, .cls-8, .cls-9, .cls-10, .cls-11, .cls-12, .cls-13 {
        stroke: #0a112b;
        stroke-linejoin: round;
      }

      .cls-1, .cls-3, .cls-4, .cls-5, .cls-6, .cls-7, .cls-8, .cls-9, .cls-10, .cls-12 {
        stroke-width: 4px;
      }

      .cls-3 {
        fill: #30ba78;
      }

      .cls-4 {
        fill: #efefef;
      }

      .cls-5 {
        fill: #fff;
      }

      .cls-6 {
        fill: #c8dafc;
      }

      .cls-7 {
        fill: #3c8eef;
      }

      .cls-8 {
        fill: none;
      }

      .cls-9 {
        fill: #30ba78;
      }

      .cls-10 {
        fill: #2453ff;
      }

      .cls-11 {
        fill: #2453ff;
        stroke-width: 4.28px;
      }

      .cls-12, .cls-13 {
        fill: #0b41b7;
      }

      .cls-13 {
        stroke-width: 4.22px;
      }

      .cls-14 {
        clip-path: url(#clippath);
      }
    </style>
    <clipPath id="clippath">
      <polygon class="cls-1" points="3490.41 409.59 3233.95 372.95 2977.48 409.59 3014.12 629.34 3453.78 629.42 3490.41 409.59"/>
    </clipPath>
  </defs>
  <polygon class="cls-11" points="1761.15 654.46 4343.14 655.52 4343.14 -22.52 1761.15 -22.52 1761.15 654.46"/>
  <path class="cls-7" d="M3796.07,600.31c0,9.76-.25,19.47-.74,29.11h-1122.76c-.49-9.64-.74-19.35-.74-29.11,0-310.45,251.67-562.13,562.12-562.13s562.12,251.68,562.12,562.13Z"/>
  <g>
    <rect class="cls-4" x="3087.63" y="189.76" width="292.87" height="256.47"/>
    <g>
      <line class="cls-8" x1="3124.03" y1="226.4" x2="3124.03" y2="208.14"/>
      <line class="cls-8" x1="3160.67" y1="226.4" x2="3160.67" y2="208.14"/>
      <line class="cls-8" x1="3197.31" y1="226.4" x2="3197.31" y2="208.14"/>
      <line class="cls-8" x1="3233.95" y1="226.4" x2="3233.95" y2="208.14"/>
      <line class="cls-8" x1="3270.59" y1="226.4" x2="3270.59" y2="208.14"/>
      <line class="cls-8" x1="3307.22" y1="226.4" x2="3307.22" y2="208.14"/>
      <line class="cls-8" x1="3343.86" y1="226.4" x2="3343.86" y2="208.14"/>
    </g>
    <rect class="cls-6" x="3050.76" y="134.81" width="366.38" height="54.96"/>
    <rect class="cls-10" x="3050.76" y="153.09" width="366.38" height="18.32"/>
    <rect class="cls-6" x="3124.03" y="116.49" width="219.83" height="18.32"/>
    <rect class="cls-10" x="3014.12" y="354.64" width="109.91" height="54.96"/>
    <rect class="cls-9" x="3124.03" y="354.64" width="109.91" height="54.96"/>
    <rect class="cls-9" x="3233.95" y="354.64" width="109.91" height="54.96"/>
    <rect class="cls-5" x="3343.87" y="354.64" width="109.91" height="54.96"/>
    <rect class="cls-9" x="3014.12" y="299.68" width="109.91" height="54.96"/>
    <rect class="cls-5" x="3124.03" y="299.68" width="109.91" height="54.96"/>
    <rect class="cls-10" x="3233.95" y="299.68" width="109.91" height="54.96"/>
    <rect class="cls-3" x="3343.87" y="299.68" width="109.91" height="54.96"/>
    <rect class="cls-10" x="3124.03" y="244.72" width="109.91" height="54.96"/>
    <rect class="cls-9" x="3233.95" y="244.72" width="109.91" height="54.96"/>
    <g>
      <polygon class="cls-2" points="3490.41 409.59 3233.95 372.95 2977.48 409.59 3014.12 629.34 3453.78 629.42 3490.41 409.59"/>
      <g class="cls-14">
        <rect class="cls-6" x="3234.29" y="372.95" width="256.13" height="256.43"/>
        <circle class="cls-1" cx="3234.06" cy="427.91" r="18.32"/>
      </g>
      <polygon class="cls-8" points="3490.41 409.59 3233.95 372.95 2977.48 409.59 3014.12 629.34 3453.78 629.42 3490.41 409.59"/>
    </g>
  </g>
  <path class="cls-1" d="M4214.42,588.99v42.98h-2098.64v-41.49c.41.17.82.33,1.24.48.13.04.26.09.39.13.32.12.65.23.99.32.38.13.76.24,1.15.34.36.1.72.2,1.08.28.05.02.1.03.15.04.46.11.93.2,1.4.29.45.09.9.16,1.35.23.12.02.24.03.36.05.42.06.85.11,1.28.15.04,0,.08.01.13.01.5.05,1.01.08,1.52.11h.07c.53.03,1.07.04,1.61.04,8.63,0,16.51-3.22,22.5-8.53,5.99,5.31,13.87,8.53,22.5,8.53s16.51-3.22,22.5-8.53c5.99,5.31,13.87,8.53,22.5,8.53s16.51-3.22,22.5-8.53c5.99,5.31,13.87,8.53,22.5,8.53s16.51-3.22,22.5-8.53c5.99,5.31,13.87,8.53,22.5,8.53s16.51-3.22,22.5-8.53c5.99,5.31,13.87,8.53,22.5,8.53s16.51-3.22,22.5-8.53c5.99,5.31,13.87,8.53,22.5,8.53s16.51-3.22,22.5-8.53c5.99,5.31,13.87,8.53,22.5,8.53s16.51-3.22,22.5-8.53c5.99,5.31,13.87,8.53,22.5,8.53s16.51-3.22,22.5-8.53c5.99,5.31,13.87,8.53,22.5,8.53s16.51-3.22,22.5-8.53c5.99,5.31,13.87,8.53,22.5,8.53s16.51-3.22,22.5-8.53c5.99,5.31,13.87,8.53,22.5,8.53s16.51-3.22,22.5-8.53c5.99,5.31,13.87,8.53,22.5,8.53s16.51-3.22,22.5-8.53c5.99,5.31,13.87,8.53,22.5,8.53s16.51-3.22,22.5-8.53c5.99,5.31,13.87,8.53,22.5,8.53s16.51-3.22,22.5-8.53c5.99,5.31,13.87,8.53,22.5,8.53s16.51-3.22,22.5-8.53c5.99,5.31,13.87,8.53,22.5,8.53s16.51-3.22,22.5-8.53c5.99,5.31,13.87,8.53,22.5,8.53s16.51-3.22,22.5-8.53c5.99,5.31,13.87,8.53,22.5,8.53s16.51-3.22,22.5-8.53c5.99,5.31,13.87,8.53,22.5,8.53s16.51-3.22,22.5-8.53c5.99,5.31,13.87,8.53,22.5,8.53s16.51-3.22,22.5-8.53c5.99,5.31,13.87,8.53,22.5,8.53s16.51-3.22,22.5-8.53c5.99,5.31,13.87,8.53,22.5,8.53s16.51-3.22,22.5-8.53c5.99,5.31,13.87,8.53,22.5,8.53s16.51-3.22,22.5-8.53c5.99,5.31,13.87,8.53,22.5,8.53s16.51-3.22,22.5-8.53c5.99,5.31,13.87,8.53,22.5,8.53s16.51-3.22,22.5-8.53c5.99,5.31,13.87,8.53,22.5,8.53s16.51-3.22,22.5-8.53c5.99,5.31,13.87,8.53,22.5,8.53s16.51-3.22,22.5-8.53c5.99,5.31,13.87,8.53,22.5,8.53s16.51-3.22,22.5-8.53c5.99,5.31,13.87,8.53,22.5,8.53s16.51-3.22,22.5-8.53c5.99,5.31,13.87,8.53,22.5,8.53s16.51-3.22,22.5-8.53c5.99,5.31,13.87,8.53,22.5,8.53s16.51-3.22,22.5-8.53c5.99,5.31,13.87,8.53,22.5,8.53s16.51-3.22,22.5-8.53c5.99,5.31,13.87,8.53,22.5,8.53s16.51-3.22,22.5-8.53c5.99,5.31,13.87,8.53,22.5,8.53s16.51-3.22,22.5-8.53c5.99,5.31,13.87,8.53,22.5,8.53s16.51-3.22,22.5-8.53c5.99,5.31,13.87,8.53,22.5,8.53s16.51-3.22,22.5-8.53c5.99,5.31,13.87,8.53,22.5,8.53s16.51-3.22,22.5-8.53c5.99,5.31,13.87,8.53,22.5,8.53s16.51-3.22,22.5-8.53c5.99,5.31,13.87,8.53,22.5,8.53s16.51-3.22,22.5-8.53c5.99,5.31,13.87,8.53,22.5,8.53s16.51-3.22,22.5-8.53c5.99,5.31,13.87,8.53,22.5,8.53s16.51-3.22,22.5-8.53c5.99,5.31,13.87,8.53,22.5,8.53s16.51-3.22,22.5-8.53c5.99,5.31,13.87,8.53,22.5,8.53s16.51-3.22,22.5-8.53c5.99,5.31,13.87,8.53,22.5,8.53s16.51-3.22,22.5-8.53c5.99,5.31,13.87,8.53,22.5,8.53s16.51-3.22,22.5-8.53c5.99,5.31,13.87,8.53,22.5,8.53,5.75,0,11.17-1.43,15.92-3.96Z"/>
  <path class="cls-12" d="M4217.73,544.43v44.42c-4.75,2.53-10.17,3.96-15.92,3.96-8.63,0-16.51-3.22-22.5-8.53-5.99,5.31-13.87,8.53-22.5,8.53s-16.51-3.22-22.5-8.53c-5.99,5.31-13.87,8.53-22.5,8.53s-16.51-3.22-22.5-8.53c-5.99,5.31-13.87,8.53-22.5,8.53s-16.51-3.22-22.5-8.53c-5.99,5.31-13.87,8.53-22.5,8.53s-16.51-3.22-22.5-8.53c-5.99,5.31-13.87,8.53-22.5,8.53s-16.51-3.22-22.5-8.53c-5.99,5.31-13.87,8.53-22.5,8.53s-16.51-3.22-22.5-8.53c-5.99,5.31-13.87,8.53-22.5,8.53s-16.51-3.22-22.5-8.53c-5.99,5.31-13.87,8.53-22.5,8.53s-16.51-3.22-22.5-8.53c-5.99,5.31-13.87,8.53-22.5,8.53s-16.51-3.22-22.5-8.53c-5.99,5.31-13.87,8.53-22.5,8.53s-16.51-3.22-22.5-8.53c-5.99,5.31-13.87,8.53-22.5,8.53s-16.51-3.22-22.5-8.53c-5.99,5.31-13.87,8.53-22.5,8.53s-16.51-3.22-22.5-8.53c-5.99,5.31-13.87,8.53-22.5,8.53s-16.51-3.22-22.5-8.53c-5.99,5.31-13.87,8.53-22.5,8.53s-16.51-3.22-22.5-8.53c-5.99,5.31-13.87,8.53-22.5,8.53s-16.51-3.22-22.5-8.53c-5.99,5.31-13.87,8.53-22.5,8.53s-16.51-3.22-22.5-8.53c-5.99,5.31-13.87,8.53-22.5,8.53s-16.51-3.22-22.5-8.53c-5.99,5.31-13.87,8.53-22.5,8.53s-16.51-3.22-22.5-8.53c-5.99,5.31-13.87,8.53-22.5,8.53s-16.51-3.22-22.5-8.53c-5.99,5.31-13.87,8.53-22.5,8.53s-16.51-3.22-22.5-8.53c-5.99,5.31-13.87,8.53-22.5,8.53s-16.51-3.22-22.5-8.53c-5.99,5.31-13.87,8.53-22.5,8.53s-16.51-3.22-22.5-8.53c-5.99,5.31-13.87,8.53-22.5,8.53s-16.51-3.22-22.5-8.53c-5.99,5.31-13.87,8.53-22.5,8.53s-16.51-3.22-22.5-8.53c-5.99,5.31-13.87,8.53-22.5,8.53s-16.51-3.22-22.5-8.53c-5.99,5.31-13.87,8.53-22.5,8.53s-16.51-3.22-22.5-8.53c-5.99,5.31-13.87,8.53-22.5,8.53s-16.51-3.22-22.5-8.53c-5.99,5.31-13.87,8.53-22.5,8.53s-16.51-3.22-22.5-8.53c-5.99,5.31-13.87,8.53-22.5,8.53s-16.51-3.22-22.5-8.53c-5.99,5.31-13.87,8.53-22.5,8.53s-16.51-3.22-22.5-8.53c-5.99,5.31-13.87,8.53-22.5,8.53s-16.51-3.22-22.5-8.53c-5.99,5.31-13.87,8.53-22.5,8.53s-16.51-3.22-22.5-8.53c-5.99,5.31-13.87,8.53-22.5,8.53s-16.51-3.22-22.5-8.53c-5.99,5.31-13.87,8.53-22.5,8.53s-16.51-3.22-22.5-8.53c-5.99,5.31-13.87,8.53-22.5,8.53s-16.51-3.22-22.5-8.53c-5.99,5.31-13.87,8.53-22.5,8.53s-16.51-3.22-22.5-8.53c-5.99,5.31-13.87,8.53-22.5,8.53s-16.51-3.22-22.5-8.53c-5.99,5.31-13.87,8.53-22.5,8.53s-16.51-3.22-22.5-8.53c-5.99,5.31-13.87,8.53-22.5,8.53s-16.51-3.22-22.5-8.53c-5.99,5.31-13.87,8.53-22.5,8.53s-16.51-3.22-22.5-8.53c-5.99,5.31-13.87,8.53-22.5,8.53s-16.51-3.22-22.5-8.53c-5.99,5.31-13.87,8.53-22.5,8.53s-16.51-3.22-22.5-8.53c-5.99,5.31-13.87,8.53-22.5,8.53s-16.51-3.22-22.5-8.53c-5.99,5.31-13.87,8.53-22.5,8.53s-16.51-3.22-22.5-8.53c-5.99,5.31-13.87,8.53-22.5,8.53s-16.51-3.22-22.5-8.53c-5.99,5.31-13.87,8.53-22.5,8.53-.54,0-1.08-.01-1.61-.04h-.07c-.51-.03-1.02-.06-1.52-.11-.05,0-.09-.01-.13-.01-.43-.04-.86-.09-1.28-.15-.12-.02-.24-.03-.36-.05-.45-.07-.9-.14-1.35-.23-.47-.09-.94-.18-1.4-.29-.05-.01-.1-.02-.15-.04-.36-.08-.72-.18-1.08-.28-.39-.1-.77-.21-1.15-.34-.34-.09-.67-.2-.99-.32-.13-.04-.26-.09-.39-.13-.42-.15-.83-.31-1.24-.48v-44.42c3.93,1.6,8.22,2.47,12.72,2.47,8.63,0,16.51-3.22,22.5-8.53,5.99,5.31,13.87,8.53,22.5,8.53s16.51-3.22,22.5-8.53c5.99,5.31,13.87,8.53,22.5,8.53s16.51-3.22,22.5-8.53c5.99,5.31,13.87,8.53,22.5,8.53s16.51-3.22,22.5-8.53c5.99,5.31,13.87,8.53,22.5,8.53s16.51-3.22,22.5-8.53c5.99,5.31,13.87,8.53,22.5,8.53s16.51-3.22,22.5-8.53c5.99,5.31,13.87,8.53,22.5,8.53s16.51-3.22,22.5-8.53c5.99,5.31,13.87,8.53,22.5,8.53s16.51-3.22,22.5-8.53c5.99,5.31,13.87,8.53,22.5,8.53s16.51-3.22,22.5-8.53c5.99,5.31,13.87,8.53,22.5,8.53s16.51-3.22,22.5-8.53c5.99,5.31,13.87,8.53,22.5,8.53s16.51-3.22,22.5-8.53c5.99,5.31,13.87,8.53,22.5,8.53s16.51-3.22,22.5-8.53c5.99,5.31,13.87,8.53,22.5,8.53s16.51-3.22,22.5-8.53c5.99,5.31,13.87,8.53,22.5,8.53s16.51-3.22,22.5-8.53c5.99,5.31,13.87,8.53,22.5,8.53s16.51-3.22,22.5-8.53c5.99,5.31,13.87,8.53,22.5,8.53s16.51-3.22,22.5-8.53c5.99,5.31,13.87,8.53,22.5,8.53s16.51-3.22,22.5-8.53c5.99,5.31,13.87,8.53,22.5,8.53s16.51-3.22,22.5-8.53c5.99,5.31,13.87,8.53,22.5,8.53s16.51-3.22,22.5-8.53c5.99,5.31,13.87,8.53,22.5,8.53s16.51-3.22,22.5-8.53c5.99,5.31,13.87,8.53,22.5,8.53s16.51-3.22,22.5-8.53c5.99,5.31,13.87,8.53,22.5,8.53s16.51-3.22,22.5-8.53c5.99,5.31,13.87,8.53,22.5,8.53s16.51-3.22,22.5-8.53c5.99,5.31,13.87,8.53,22.5,8.53s16.51-3.22,22.5-8.53c5.99,5.31,13.87,8.53,22.5,8.53s16.51-3.22,22.5-8.53c5.99,5.31,13.87,8.53,22.5,8.53s16.51-3.22,22.5-8.53c5.99,5.31,13.87,8.53,22.5,8.53s16.51-3.22,22.5-8.53c5.99,5.31,13.87,8.53,22.5,8.53s16.51-3.22,22.5-8.53c5.99,5.31,13.87,8.53,22.5,8.53s16.51-3.22,22.5-8.53c5.99,5.31,13.87,8.53,22.5,8.53s16.51-3.22,22.5-8.53c5.99,5.31,13.87,8.53,22.5,8.53s16.51-3.22,22.5-8.53c5.99,5.31,13.87,8.53,22.5,8.53s16.51-3.22,22.5-8.53c5.99,5.31,13.87,8.53,22.5,8.53s16.51-3.22,22.5-8.53c5.99,5.31,13.87,8.53,22.5,8.53s16.51-3.22,22.5-8.53c5.99,5.31,13.87,8.53,22.5,8.53s16.51-3.22,22.5-8.53c5.99,5.31,13.87,8.53,22.5,8.53s16.51-3.22,22.5-8.53c5.99,5.31,13.87,8.53,22.5,8.53s16.51-3.22,22.5-8.53c5.99,5.31,13.87,8.53,22.5,8.53s16.51-3.22,22.5-8.53c5.99,5.31,13.87,8.53,22.5,8.53s16.51-3.22,22.5-8.53c5.99,5.31,13.87,8.53,22.5,8.53s16.51-3.22,22.5-8.53c5.99,5.31,13.87,8.53,22.5,8.53s16.51-3.22,22.5-8.53c5.99,5.31,13.87,8.53,22.5,8.53s16.51-3.22,22.5-8.53c5.99,5.31,13.87,8.53,22.5,8.53s16.51-3.22,22.5-8.53c5.99,5.31,13.87,8.53,22.5,8.53s16.51-3.22,22.5-8.53c5.99,5.31,13.87,8.53,22.5,8.53s16.51-3.22,22.5-8.53c5.99,5.31,13.87,8.53,22.5,8.53s16.51-3.22,22.5-8.53c5.99,5.31,13.87,8.53,22.5,8.53,5.75,0,11.17-1.43,15.92-3.96Z"/>
  <polygon class="cls-13" points="1775.1 -21 -145.39 -21 -148.26 654.46 2424.25 654.46 1775.1 -21"/>
</svg>