<svg id="Layer_1" data-name="Layer 1" xmlns="http://www.w3.org/2000/svg" viewBox="0 0 1893.73 1043.99"><defs><style>.cls-1{fill:#fff;}</style></defs><path class="cls-1" d="M1060.91,430.65a93.56,93.56,0,0,0-39.79-39.06q-25.93-13.5-61-13.51-60.61,0-97.11,39.8T826.53,524.11q0,70.85,38.33,110.63t105.51,39.79q46,0,77.76-23.37T1094.5,584H936.06V492h271.61V608.08q-13.87,46.74-47.09,86.89t-84.34,65q-51.1,24.84-115.36,24.83-75.95,0-135.45-33.22T732.7,659.19q-33.23-59.13-33.22-135.08T732.7,388.67a241.78,241.78,0,0,1,38.84-52.07c-41.8-7.25-46.62-71-46.62-71s184.6-2.92,235.23-2.92q92,0,155.16,44.53t83.6,123.4Z"/><path class="cls-1" d="M528.66,781.13,421.39,586.44H391.27V781.13H265.64V265.38H476.49q61,0,104,21.3t64.29,58.41Q666,382.2,666,427.75q0,51.44-29,91.83t-85.59,57.31l119,204.24ZM391.27,497.54h77.87q34.53,0,51.8-16.9t17.27-47.76q0-29.37-17.27-46.28t-51.8-16.9H391.27Z"/><path class="cls-1" d="M1347.81,766.51q-44.6-18.27-71.27-54.1c-17.79-23.87-27.17-70.68-28.14-104.3h133c0,38.93,8.52,51.56,19.73,61.54s25.83,15,43.86,15q27.78,0,43.86-12.79T1505,636.4q0-19-12.79-31.44a103.43,103.43,0,0,0-31.43-20.47q-18.64-8-53-18.27-49.71-15.35-81.13-30.7t-54.1-45.32q-22.66-30-22.66-78.21,0-71.64,51.9-112.21T1437,259.21q84.78,0,136.7,40.57c34.59,27,53.11,82.73,55.55,131H1495.59c0-35.44-8.65-47.64-19.86-57.14s-25.58-14.26-43.12-14.26q-22.66,0-36.55,12.07t-13.89,34.72q0,24.86,23.39,38.74t73.1,30q49.69,16.81,80.77,32.16t53.72,44.59q22.66,29.24,22.67,75.29,0,43.86-22.29,79.68t-64.7,57q-42.4,21.21-100.15,21.2Q1392.4,784.78,1347.81,766.51Z"/></svg>