<?xml version="1.0" encoding="utf-8"?>
<!-- Generator: Adobe Illustrator 26.3.1, SVG Export Plug-In . SVG Version: 6.00 Build 0)  -->
<svg version="1.1" xmlns="http://www.w3.org/2000/svg" xmlns:xlink="http://www.w3.org/1999/xlink" x="0px" y="0px"
	 viewBox="0 0 255.12 185.73" style="enable-background:new 0 0 255.12 185.73;" xml:space="preserve">
<style type="text/css">
	.st0{display:none;}
	.st1{display:inline;}
	.st2{fill:#2453FF;}
</style>
<g id="padding" class="st0">
	<g class="st1">
		<g>
			<path d="M5.81,104.19c0-2.79,2.98-3.69,5.67-5.01c1.13-0.57,2.22-1.28,3.03-2.22c0.99,3.17,3.88,6.43,8.65,6.43
				c5.86,0,8.89-4.21,8.89-10.45V79.79H0.14v7.89h12.62v1.8c0,1.75-3.97,3.07-6.24,4.02C1.47,95.72,0,97.9,0,101.68
				c0,1.47,0.43,3.17,0.43,3.17l5.63,0.61C6.05,105.46,5.81,104.9,5.81,104.19z M18.48,90.52v-2.84h7.85v3.78
				c0,2.17-0.95,3.97-3.74,3.97C19.19,95.44,18.48,92.79,18.48,90.52z"/>
			<path d="M228.88,104.19c0-2.79,2.98-3.69,5.67-5.01c1.13-0.57,2.22-1.28,3.03-2.22c0.99,3.17,3.88,6.43,8.65,6.43
				c5.86,0,8.89-4.21,8.89-10.45V79.79h-31.91v7.89h12.62v1.8c0,1.75-3.97,3.07-6.24,4.02c-5.06,2.22-6.52,4.4-6.52,8.18
				c0,1.47,0.43,3.17,0.43,3.17l5.63,0.61C229.12,105.46,228.88,104.9,228.88,104.19z M241.55,90.52v-2.84h7.85v3.78
				c0,2.17-0.95,3.97-3.74,3.97C242.26,95.44,241.55,92.79,241.55,90.52z"/>
		</g>
		<path d="M142.99,26.47c-2.79,0-3.69-2.98-5.01-5.67c-0.57-1.13-1.28-2.22-2.22-3.03c3.17-0.99,6.43-3.88,6.43-8.65
			c0-5.86-4.21-8.89-10.45-8.89h-13.14v31.91h7.89V19.52h1.8c1.75,0,3.07,3.97,4.02,6.24c2.22,5.06,4.4,6.52,8.18,6.52
			c1.47,0,3.17-0.43,3.17-0.43l0.61-5.63C144.26,26.24,143.7,26.47,142.99,26.47z M129.32,13.8h-2.84V5.96h3.78
			c2.17,0,3.97,0.95,3.97,3.74C134.24,13.09,131.59,13.8,129.32,13.8z"/>
		<path d="M141.92,179.68c-2.79,0-3.69-2.98-5.01-5.67c-0.57-1.13-1.28-2.22-2.22-3.03c3.17-0.99,6.43-3.88,6.43-8.65
			c0-5.86-4.21-8.89-10.45-8.89h-13.14v31.91h7.89v-12.62h1.8c1.75,0,3.07,3.97,4.02,6.24c2.22,5.06,4.4,6.52,8.18,6.52
			c1.47,0,3.17-0.43,3.17-0.43l0.61-5.63C143.2,179.44,142.63,179.68,141.92,179.68z M128.26,167.01h-2.84v-7.85h3.78
			c2.17,0,3.97,0.95,3.97,3.74C133.18,166.3,130.53,167.01,128.26,167.01z"/>
	</g>
</g>
<g id="logo">
	<path d="M32.05,97.42h13.14c6.24,0,10.45,3.03,10.45,8.89c0,4.77-3.26,7.66-6.43,8.65c0.95,0.8,1.65,1.89,2.22,3.03
		c1.32,2.69,2.22,5.67,5.01,5.67c0.71,0,1.28-0.24,1.28-0.24l-0.61,5.63c0,0-1.7,0.43-3.17,0.43c-3.78,0-5.96-1.47-8.18-6.52
		c-0.95-2.27-2.27-6.24-4.02-6.24h-1.8v12.62h-7.89V97.42 M39.95,103.14v7.85h2.84c2.27,0,4.92-0.71,4.92-4.11
		c0-2.79-1.8-3.74-3.97-3.74H39.95z M66.32,97.42h7.99l10.78,31.91H77.1l-1.99-6.05H64.43l-1.94,6.05h-6.9L66.32,97.42z
		 M66.32,117.41h6.85L71,110.7c-0.76-2.27-1.09-5.48-1.09-5.48h-0.19c0,0-0.47,3.26-1.18,5.44L66.32,117.41z M85.42,129.33h6.48
		v-15.32c0-1.75-0.24-3.88-0.38-5.67h0.19c0.66,1.7,1.51,3.78,2.32,5.2l8.7,15.79h8.27V97.42h-6.48v15.32c0,1.84,0.24,4.4,0.33,6.19
		h-0.19c-0.76-1.89-1.7-4.3-2.41-5.67l-8.37-15.84h-8.46V129.33z M112.69,113.16c0,11.63,5.58,16.73,14.23,16.73
		c8.51,0,13.19-4.78,12.67-11.25l-6.9-0.71c0.57,4.16-2.08,6.19-5.34,6.19c-3.45,0-6.48-2.22-6.48-10.92
		c0-8.23,2.79-10.78,6.24-10.78c3.59,0,5.58,2.03,4.77,7.09l7.38-0.66c1.04-6.9-2.7-12.01-12.01-12.01
		C118.41,96.85,112.69,101.62,112.69,113.16 M141.19,129.33h7.9v-13.52h9.69v13.52h7.9V97.42h-7.9v12.06h-9.69V97.42h-7.9V129.33z
		 M169.83,129.33h21.6v-5.86h-13.71V116h11.11v-5.86h-11.11v-6.85h13.24v-5.86h-21.13V129.33z M192.95,97.42h13.14
		c6.24,0,10.45,3.03,10.45,8.89c0,4.77-3.26,7.66-6.43,8.65c0.95,0.8,1.65,1.89,2.22,3.03c1.32,2.69,2.22,5.67,5.01,5.67
		c0.71,0,1.28-0.24,1.28-0.24l-0.61,5.63c0,0-1.7,0.43-3.17,0.43c-3.78,0-5.96-1.47-8.18-6.52c-0.95-2.27-2.27-6.24-4.02-6.24h-1.8
		v12.62h-7.89V97.42z M200.84,103.14v7.85h2.84c2.27,0,4.92-0.71,4.92-4.11c0-2.79-1.8-3.74-3.97-3.74H200.84z"/>
	<path class="st2" d="M182.55,44.09l-1.24-7.45c-0.4-2.39-1.33-4.35-2.07-4.35c-0.74,0-1.35,1.98-1.35,4.41v1.95
		c0,2.43-1.98,4.41-4.41,4.41h-1.95c-0.14,0-0.28,0.01-0.42,0.01v5.36c0.14,0.01,0.28,0.01,0.42,0.01h7.33
		C181.29,48.44,182.95,46.48,182.55,44.09"/>
	<path class="st2" d="M164.98,37.78h-11.89c-0.1,0-0.2,0.01-0.29,0.01h-12.2c-0.14,0-0.28,0.01-0.42,0.04V36.7
		c0-2.43-0.61-4.41-1.35-4.41c-0.74,0-1.67,1.96-2.07,4.35l-1.24,7.45c-0.4,2.39,1.26,4.35,3.68,4.35h7.33
		c0.75,0,1.47-0.12,2.09-0.32c-0.23,1.25-1.33,2.2-2.64,2.2h-10.28c-1.66,0-2.93-1.49-2.66-3.13l1.04-6.25
		c0.27-1.64-0.99-3.13-2.66-3.13H80.26c-1.09,0-2.03,0.65-2.45,1.58l-9.64,14.66c-0.16,0.25-0.14,0.57,0.05,0.8l1.87,2.21
		c0.23,0.28,0.64,0.32,0.93,0.09l6.55-5.17v31.36c0,1.49,1.21,2.69,2.69,2.69h14.53c1.49,0,2.69-1.21,2.69-2.69V72.43
		c0-1.49,1.21-2.69,2.69-2.69h36.26c1.49,0,2.69,1.21,2.69,2.69v10.91c0,1.49,1.21,2.69,2.69,2.69h14.53c1.49,0,2.69-1.21,2.69-2.69
		V71.6h-7.72c-2.43,0-4.41-1.98-4.41-4.41v-7.55c0-1.44,0.7-2.71,1.77-3.52v9.01c0,2.43,1.98,4.41,4.41,4.41h11.89
		c2.43,0,4.41-1.98,4.41-4.41V42.19C169.39,39.77,167.4,37.78,164.98,37.78"/>
	<path d="M218.77,99.01c0-1.5,1.12-2.16,2.15-2.16c1.03,0,2.15,0.65,2.15,2.16c0,1.48-1.12,2.12-2.15,2.12
		C219.88,101.13,218.77,100.48,218.77,99.01 M222.55,99c0-1.18-0.77-1.7-1.63-1.7c-0.86,0-1.65,0.52-1.65,1.7
		c0,1.17,0.79,1.68,1.65,1.68C221.78,100.68,222.55,100.17,222.55,99z M220.21,97.93h0.76c0.39,0,0.77,0.11,0.77,0.66
		c0,0.32-0.21,0.51-0.51,0.56l0.51,0.87h-0.46l-0.47-0.84h-0.18v0.84h-0.42V97.93z M221,98.88c0.18,0,0.33-0.11,0.33-0.3
		c0-0.22-0.18-0.28-0.33-0.28h-0.38v0.58H221z"/>
	<g>
		<path d="M145.69,153.44h-4.5v-12.06h4.33c2.54,0,3.82,1.38,3.82,3.06c0,1.52-0.95,2.4-2.11,2.79c1.31,0.23,2.39,1.49,2.39,2.98
			C149.62,152.02,148.18,153.44,145.69,153.44z M145.38,142.67h-2.61v3.91h2.65c1.47,0,2.32-0.73,2.32-1.96
			C147.73,143.44,146.92,142.67,145.38,142.67z M145.5,147.88h-2.73v4.26h2.79c1.56,0,2.49-0.78,2.49-2.09
			C148.04,148.71,147.04,147.88,145.5,147.88z"/>
		<path d="M151.66,141.38h1.75l2.98,6.11l2.98-6.11h1.75l-3.93,7.51v4.55h-1.57v-4.55L151.66,141.38z"/>
	</g>
	<g id="Layer_1_00000018198142132233427420000003751010304965106607_">
		<g>
			<path d="M212.62,153.28c-1.31,0-2.37-1.06-2.37-2.37v-7.02c0-1.31,1.06-2.37,2.37-2.37H218c0.42,0,0.77,0.34,0.77,0.76
				c0,0.42-0.34,0.76-0.77,0.76h-5.39c-0.46,0-0.84,0.38-0.84,0.84v2.76h5.28c0.4,0,0.72,0.33,0.72,0.73c0,0.4-0.33,0.72-0.72,0.72
				h-5.28v2.81c0,0.46,0.38,0.84,0.84,0.84H218c0.42,0,0.77,0.34,0.77,0.77c0,0.42-0.34,0.76-0.77,0.76H212.62z M188.47,153.44
				c-1.55,0-2.75-0.39-3.56-1.17c-0.81-0.78-1.21-1.94-1.21-3.47v-6.53c0-0.49,0.4-0.89,0.89-0.89c0.49,0,0.89,0.4,0.89,0.89v6.29
				c0,1.14,0.25,2,0.73,2.55c0.49,0.55,1.25,0.83,2.27,0.83c1.01,0,1.78-0.28,2.27-0.83c0.49-0.55,0.73-1.4,0.73-2.55v-6.29
				c0-0.49,0.4-0.89,0.89-0.89s0.89,0.4,0.89,0.89v6.53c0,1.53-0.41,2.7-1.22,3.47C191.22,153.04,190.02,153.44,188.47,153.44
				 M201.79,153.44c-2,0-3.52-0.57-4.53-1.69c-0.29-0.32-0.27-0.82,0.04-1.14l0,0l0,0c0.16-0.16,0.37-0.24,0.6-0.24
				c0.24,0,0.46,0.1,0.62,0.28c0.28,0.32,0.6,0.59,0.95,0.78c0.61,0.34,1.39,0.51,2.3,0.51c0.86,0,1.55-0.15,2.05-0.45
				c0.51-0.31,0.77-0.75,0.77-1.32c0-0.46-0.23-0.84-0.7-1.11c-0.45-0.27-1.21-0.5-2.32-0.71c-1.08-0.2-1.95-0.45-2.59-0.75
				c-0.63-0.29-1.09-0.66-1.38-1.09c-0.28-0.43-0.43-0.95-0.43-1.57c0-0.65,0.18-1.25,0.54-1.79c0.36-0.54,0.89-0.97,1.57-1.28
				c0.69-0.32,1.5-0.48,2.42-0.48c1.07,0,2,0.2,2.76,0.58c0.51,0.26,0.97,0.62,1.37,1.06c0.31,0.34,0.28,0.87-0.06,1.18
				c-0.15,0.14-0.35,0.21-0.56,0.21c-0.26,0-0.5-0.12-0.66-0.33c-0.23-0.3-0.48-0.54-0.76-0.72c-0.51-0.33-1.21-0.5-2.06-0.5
				c-0.84,0-1.5,0.17-1.97,0.51c-0.48,0.34-0.72,0.79-0.72,1.34c0,0.51,0.24,0.92,0.7,1.21c0.45,0.29,1.24,0.53,2.4,0.74
				c1.06,0.19,1.9,0.43,2.52,0.72c0.61,0.28,1.06,0.64,1.34,1.07c0.28,0.42,0.42,0.95,0.42,1.58c0,0.67-0.19,1.27-0.58,1.78
				c-0.39,0.51-0.93,0.91-1.63,1.19C203.53,153.3,202.71,153.44,201.79,153.44 M175.23,153.44c-2,0-3.52-0.57-4.53-1.69
				c-0.29-0.32-0.27-0.82,0.04-1.14l0,0c0.16-0.16,0.37-0.25,0.6-0.25c0.24,0,0.46,0.1,0.62,0.28c0.28,0.32,0.6,0.59,0.95,0.78
				c0.62,0.34,1.39,0.51,2.3,0.51c0.86,0,1.55-0.15,2.05-0.45c0.51-0.31,0.77-0.75,0.77-1.32c0-0.46-0.23-0.84-0.7-1.11
				c-0.45-0.27-1.21-0.5-2.32-0.71c-1.08-0.2-1.95-0.45-2.59-0.75c-0.63-0.29-1.09-0.66-1.38-1.09c-0.28-0.43-0.43-0.96-0.43-1.57
				c0-0.65,0.18-1.25,0.54-1.79c0.36-0.54,0.89-0.97,1.57-1.28c0.69-0.32,1.5-0.48,2.42-0.48c1.07,0,2,0.2,2.76,0.58
				c0.51,0.26,0.97,0.62,1.37,1.06c0.31,0.34,0.28,0.87-0.06,1.18c-0.15,0.14-0.35,0.21-0.56,0.21c-0.26,0-0.5-0.12-0.66-0.33
				c-0.23-0.3-0.48-0.54-0.76-0.72c-0.52-0.33-1.21-0.5-2.06-0.5c-0.84,0-1.5,0.17-1.97,0.51c-0.48,0.35-0.72,0.8-0.72,1.34
				c0,0.51,0.24,0.92,0.7,1.21c0.45,0.29,1.24,0.53,2.4,0.74c1.05,0.19,1.9,0.43,2.52,0.72c0.61,0.29,1.06,0.65,1.34,1.07
				c0.28,0.42,0.42,0.95,0.42,1.58c0,0.67-0.19,1.27-0.58,1.78c-0.39,0.51-0.93,0.91-1.63,1.19
				C176.98,153.3,176.15,153.44,175.23,153.44"/>
		</g>
	</g>
</g>
</svg>
