<svg xmlns="http://www.w3.org/2000/svg" viewBox="0 0 682.5 768" xmlns:v="https://vecta.io/nano"><style><![CDATA[.B{stroke-linejoin:round}.C{fill:#30ba78}.D{stroke-width:1.257}.E{fill:#2453ff}.F{fill:#0b41b7}.G{fill:#2958fa}]]></style><defs><linearGradient id="A" href="#M"><stop offset="0" stop-color="#c3deff"/><stop offset="1" stop-color="#3a8bff"/></linearGradient><linearGradient id="B" x1="412.27" x2="283.59" y1="-78.931" y2="501.863" href="#M"><stop offset="0" stop-color="#9ec9ff"/><stop offset="1" stop-color="#579efb"/></linearGradient><linearGradient href="#D" id="C" x1="558.62" x2="225.594" y1="333.877" y2="692.85"/><linearGradient id="D" href="#M"><stop offset="0" stop-color="#99c5ff"/><stop offset="1" stop-color="#6ea2f2" stop-opacity="0"/></linearGradient><linearGradient id="E" x1="27.893" x2="570.853" y1="738.908" y2="491.97" href="#M"><stop offset="0" stop-color="#124fc0" stop-opacity=".65"/><stop offset="1" stop-color="#124fc0" stop-opacity=".41"/></linearGradient><clipPath id="F"><path d="M3234 372.95l-256.5 36.64 36.6 219.75 439.7.08 36.6-219.83z"/></clipPath><linearGradient href="#D" id="G" x1="254.474" x2="27.926" y1="92.527" y2="726.861"/><linearGradient href="#A" id="H" x1="739.609" x2="81.119" y1="-227.057" y2="621.139"/><linearGradient href="#A" id="I" x1="739.609" y1="-227.057" x2="81.119" y2="621.139"/><path id="J" d="M235.753 631.442h-26.245v12.938h26.245z"/><path id="K" d="M628.72-181.835v-.05c0-8.44-6.84-15.27-15.28-15.27h-.2a22.92 22.92 0 0 0-44.05 3.07 15.27 15.27 0 0 0-24.48 12.2v.04h84.01z"/><path id="L" d="M659.02-46.165v-.05a15.27 15.27 0 0 0-15.27-15.27h-.2a22.92 22.92 0 0 0-44.06 3.07 15.27 15.27 0 0 0-24.48 12.2v.04h84.01z"/><linearGradient id="M" gradientUnits="userSpaceOnUse"/></defs><path fill="url(#I)" d="M.99-254.125h768v1024H.99z"/><path fill="url(#H)" d="M185.62 99.165a401.12 401.12 0 0 0-184.6 46.3v624.41h481.46a401.12 401.12 0 0 0-296.85-670.71z"/><path fill="url(#G)" d="M185.62 99.155a401.12 401.12 0 0 0-184.13 46.08v624.64h480.99a401.12 401.12 0 0 0-296.85-670.71z"/><path fill="#bed8fe" stroke="#68a0ff" stroke-width="2.2" d="M184.22 274.135a164.94 165.89 0 0 1 164.94 165.89 164.94 165.89 0 0 1-.04.62H19.32a164.94 165.89 0 0 1-.04-.62 164.94 165.89 0 0 1 164.94-165.89z" class="B"/><g transform="translate(.99 -254.125)"><g stroke="#0a112b" class="B"><path fill="#e8e8e8" stroke-width="1" d="M218.2 591.08h-69.94v60.37h69.93z"/><path fill="none" d="M209.51 599.745v-4.298m-8.764 4.298v-4.298m-8.74 4.298v-4.298m-8.764 4.298v-4.298m-8.74 4.298v-4.298m-8.74 4.298v-4.298M157 599.745v-4.298" class="D"/><g class="D"><path fill="#e6edfe" d="M226.989 579.694h-87.488v12.938h87.488z"/><path fill="#4768e5" d="M226.989 583.997h-87.488v4.313h87.488z"/><path fill="#e8e8e8" d="M209.51 575.382h-52.493v4.313h52.493z"/><use href="#J" class="E"/><path d="M209.51 631.442h-26.245v12.938h26.245zm-26.267 0h-26.245v12.938h26.245z" class="C"/><path fill="#fff" d="M157 631.442h-26.245v12.938H157z"/><use href="#J" y="-12.937" class="C"/><use href="#J" x="-26.243" y="-12.937" fill="#fff"/><use href="#J" x="-52.51" y="-12.937" class="E"/><path d="M157 618.505h-26.245v12.938H157z" class="C"/><use href="#J" x="-26.243" y="-25.875" class="E"/><use href="#J" x="-52.51" y="-25.875" class="C"/></g></g><path d="M130.76 696.13l-8.74-51.75 61.22-8.63 61.25 8.63-8.74 51.73z" class="F"/><g stroke="#0a112b" class="B"><path fill="none" d="M130.757 696.125l-8.74-51.748 61.226-8.625 61.25 8.625-8.74 51.729z" class="D"/><g clip-path="url(#F)" transform="matrix(-.23879 0 0 .2354 955.49 547.96)"><path fill="#dce7fe" stroke-width="5.72" d="M3234.3 372.95h256.13v256.43H3234.3z"/><circle cx="3234.1" cy="427.91" r="18.32" stroke-width="5.3" class="F"/></g></g></g><use href="#K" fill-opacity=".03" class="G"/><use href="#K" x="-319.5" y="-6.12" fill="#2e59f5" fill-opacity=".04"/><use href="#L" fill-opacity=".02" class="G"/><use href="#L" x="-515.2" y="-106.51" fill="#335cf0" fill-opacity=".04"/><path fill-opacity=".03" d="M380.32-116.375v-.07c0-12 9.57-21.71 21.38-21.71h.28c4.4-12.65 16.27-21.72 30.23-21.72 15.53 0 28.48 11.2 31.44 26.09a21.09 21.09 0 0 1 12.88-4.38c11.81 0 21.38 9.72 21.38 21.71v.07H380.32z" class="G"/><use href="#K" x="-155.1" y="512.72" fill="#fff" fill-opacity=".06"/><g fill="#c9d5ff"><use href="#L" x="-481" y="241.53" fill-opacity=".08"/><use href="#L" x="-574" y="319.91" fill-opacity=".07"/><path fill-opacity=".09" d="M233.72 247.305v-.09c0-15.4 12.3-27.9 27.47-27.9h.35c5.65-16.25 20.91-27.9 38.85-27.9 19.95 0 36.59 14.4 40.38 33.52a27.09 27.09 0 0 1 16.56-5.63c15.17 0 27.47 12.49 27.47 27.9v.09H233.72z"/></g><path fill="url(#E)" d="M1.47 439.865v330.01h480.99a401.12 401.12 0 0 0 104.27-269.59 401.12 401.12 0 0 0-5.03-60.41z"/><path fill="#0b57c5" d="M12.92 433.425a10.27 10.27 0 0 1-6.82 2.6c-1.7 0-3.28-.44-4.7-1.17v10.55a10.14 10.14 0 0 0 11.52-1.43 10.2 10.2 0 0 0 13.63 0 10.25 10.25 0 0 0 13.64 0 10.26 10.26 0 0 0 6.82 2.6c2.61 0 5-.98 6.82-2.6a10.2 10.2 0 0 0 13.63 0 10.2 10.2 0 0 0 13.64 0 10.2 10.2 0 0 0 13.63 0 10.2 10.2 0 0 0 13.64 0 10.2 10.2 0 0 0 13.63 0 10.2 10.2 0 0 0 13.64 0 10.25 10.25 0 0 0 13.63 0 10.2 10.2 0 0 0 13.64 0 10.2 10.2 0 0 0 13.64 0 10.26 10.26 0 0 0 6.81 2.6c2.62 0 5-.98 6.82-2.6a10.2 10.2 0 0 0 13.64 0 10.2 10.2 0 0 0 13.63 0 10.2 10.2 0 0 0 13.64 0 10.26 10.26 0 0 0 10.52 1.9 10 10 0 0 0 3.11-1.9 10.25 10.25 0 0 0 13.64 0 10.26 10.26 0 0 0 10.52 1.9 10 10 0 0 0 3.11-1.9 10.2 10.2 0 0 0 13.64 0 10.2 10.2 0 0 0 13.64 0 10.26 10.26 0 0 0 10.52 1.9c1.15-.44 2.2-1.09 3.11-1.9a10.25 10.25 0 0 0 13.64 0 10.26 10.26 0 0 0 6.81 2.6c2.62 0 5-.98 6.82-2.6a10.26 10.26 0 0 0 6.82 2.6c2.61 0 5-.98 6.82-2.6a10.2 10.2 0 0 0 13.63 0 10.26 10.26 0 0 0 10.53 1.9 9.96 9.96 0 0 0 3.1-1.9 10.26 10.26 0 0 0 6.83 2.6 10.18 10.18 0 0 0 6.81-2.6 10.26 10.26 0 0 0 6.82 2.6c2.62 0 5-.98 6.82-2.6a10.2 10.2 0 0 0 13.63 0 10.26 10.26 0 0 0 6.82 2.6c2.62 0 5-.98 6.82-2.6a10.2 10.2 0 0 0 13.64 0 10.26 10.26 0 0 0 10.52 1.9c1.15-.44 2.2-1.09 3.11-1.9a10.25 10.25 0 0 0 13.64 0 10.2 10.2 0 0 0 13.63 0 10.2 10.2 0 0 0 13.64 0 10.2 10.2 0 0 0 13.63 0 10.26 10.26 0 0 0 10.53 1.9 9.96 9.96 0 0 0 3.1-1.9 10.26 10.26 0 0 0 6.83 2.6 10.18 10.18 0 0 0 6.81-2.6 10.26 10.26 0 0 0 6.82 2.6c2.62 0 5-.98 6.82-2.6a10.26 10.26 0 0 0 6.82 2.6c2.61 0 5-.98 6.82-2.6a10.2 10.2 0 0 0 6.81 2.6c1.12 0 2.17-.26 3.18-.6a401.12 401.12 0 0 0-.91-10.37c-.75.18-1.47.43-2.27.43a10.19 10.19 0 0 1-6.81-2.61 10.2 10.2 0 0 1-13.64 0 10.2 10.2 0 0 1-13.64 0 10.2 10.2 0 0 1-13.63 0 10.2 10.2 0 0 1-13.64 0 10.26 10.26 0 0 1-10.52 1.91 10.35 10.35 0 0 1-3.11-1.91 10.2 10.2 0 0 1-13.64 0 10.2 10.2 0 0 1-13.63 0 10.26 10.26 0 0 1-10.53 1.91 10.18 10.18 0 0 1-3.1-1.91 10.2 10.2 0 0 1-13.64 0 10.2 10.2 0 0 1-13.64 0 10.2 10.2 0 0 1-13.64 0 10.26 10.26 0 0 1-10.52 1.91 10.35 10.35 0 0 1-3.11-1.91 10.2 10.2 0 0 1-13.64 0 10.2 10.2 0 0 1-13.63 0 10.2 10.2 0 0 1-13.64 0 10.2 10.2 0 0 1-13.63 0 10.2 10.2 0 0 1-13.64 0 10.27 10.27 0 0 1-10.52 1.91c-1.16-.45-2.2-1.1-3.11-1.91a10.2 10.2 0 0 1-13.64 0 10.2 10.2 0 0 1-13.63 0 10.27 10.27 0 0 1-10.53 1.91 10.35 10.35 0 0 1-3.11-1.91 10.27 10.27 0 0 1-10.53 1.91 10.18 10.18 0 0 1-3.1-1.91 10.2 10.2 0 0 1-13.64 0 10.2 10.2 0 0 1-13.64 0 10.2 10.2 0 0 1-13.63 0 10.2 10.2 0 0 1-13.64 0 10.2 10.2 0 0 1-13.63 0 10.2 10.2 0 0 1-13.64 0 10.2 10.2 0 0 1-13.63 0 10.2 10.2 0 0 1-13.64 0 10.2 10.2 0 0 1-13.64 0 10.26 10.26 0 0 1-10.52 1.91 10.35 10.35 0 0 1-3.11-1.91 10.2 10.2 0 0 1-13.64 0 10.2 10.2 0 0 1-13.63 0 10.2 10.2 0 0 1-13.64 0 10.27 10.27 0 0 1-10.52 1.91 10.35 10.35 0 0 1-3.11-1.91 10.2 10.2 0 0 1-13.64 0 10.2 10.2 0 0 1-13.63 0 10.2 10.2 0 0 1-13.64 0 10.2 10.2 0 0 1-13.64 0 10.2 10.2 0 0 1-13.63 0z"/><path fill="url(#C)" d="M12.92 453.815a10.27 10.27 0 0 1-6.82 2.6 10.2 10.2 0 0 1-4.63-1.14v10.54a10.12 10.12 0 0 0 11.45-1.45 10.2 10.2 0 0 0 13.63 0 10.26 10.26 0 0 0 6.82 2.6c2.62 0 5-.98 6.82-2.6a10.26 10.26 0 0 0 6.82 2.6c2.61 0 5-.98 6.82-2.6a10.2 10.2 0 0 0 13.63 0 10.2 10.2 0 0 0 13.64 0 10.2 10.2 0 0 0 13.63 0 10.2 10.2 0 0 0 13.64 0 10.2 10.2 0 0 0 13.63 0 10.2 10.2 0 0 0 13.64 0 10.26 10.26 0 0 0 6.82 2.6 10.18 10.18 0 0 0 6.81-2.6 10.2 10.2 0 0 0 13.64 0 10.2 10.2 0 0 0 13.64 0 10.26 10.26 0 0 0 6.81 2.6c2.62 0 5-.98 6.82-2.6a10.2 10.2 0 0 0 13.64 0 10.2 10.2 0 0 0 13.63 0 10.2 10.2 0 0 0 13.64 0 10.26 10.26 0 0 0 10.53 1.9 9.96 9.96 0 0 0 3.1-1.9 10.26 10.26 0 0 0 10.53 1.9 9.96 9.96 0 0 0 3.1-1.9 10.26 10.26 0 0 0 10.53 1.9 10 10 0 0 0 3.11-1.9 10.2 10.2 0 0 0 13.64 0 10.2 10.2 0 0 0 13.64 0 10.25 10.25 0 0 0 10.52 1.9c1.15-.44 2.2-1.09 3.11-1.9a10.26 10.26 0 0 0 6.82 2.6c2.61 0 5-.98 6.82-2.6a10.25 10.25 0 0 0 6.81 2.6c2.62 0 5-.98 6.82-2.6a10.26 10.26 0 0 0 6.82 2.6c2.61 0 5-.98 6.82-2.6a10.2 10.2 0 0 0 13.63 0 10.26 10.26 0 0 0 10.53 1.9 9.96 9.96 0 0 0 3.1-1.9 10.26 10.26 0 0 0 6.83 2.6 10.18 10.18 0 0 0 6.81-2.6 10.26 10.26 0 0 0 6.82 2.6c2.62 0 5-.98 6.82-2.6a10.2 10.2 0 0 0 13.63 0 10.26 10.26 0 0 0 6.82 2.6c2.62 0 5-.98 6.82-2.6a10.2 10.2 0 0 0 13.64 0 10.26 10.26 0 0 0 10.52 1.9c1.15-.44 2.2-1.09 3.11-1.9a10.25 10.25 0 0 0 10.53 1.9 9.96 9.96 0 0 0 3.1-1.9 10.2 10.2 0 0 0 13.64 0 10.2 10.2 0 0 0 13.64 0 10.2 10.2 0 0 0 13.63 0 10.26 10.26 0 0 0 10.53 1.9 9.96 9.96 0 0 0 3.1-1.9 10.26 10.26 0 0 0 6.83 2.6c2.61 0 5-.98 6.82-2.6a10.26 10.26 0 0 0 6.81 2.6c2.62 0 5-.98 6.82-2.6a10.26 10.26 0 0 0 6.82 2.6c2.61 0 5-.98 6.82-2.6a10.2 10.2 0 0 0 6.81 2.6c2.25 0 4.25-.83 5.94-2.06a401.12 401.12 0 0 0-1.2-9.81c-1.43.77-3 1.33-4.74 1.33a10.19 10.19 0 0 1-6.81-2.61 10.2 10.2 0 0 1-13.64 0 10.2 10.2 0 0 1-13.63 0 10.2 10.2 0 0 1-13.64 0 10.2 10.2 0 0 1-13.64 0 10.27 10.27 0 0 1-10.52 1.91 10.35 10.35 0 0 1-3.11-1.91 10.2 10.2 0 0 1-13.64 0 10.2 10.2 0 0 1-13.63 0 10.26 10.26 0 0 1-10.53 1.91 10.18 10.18 0 0 1-3.1-1.91 10.2 10.2 0 0 1-13.64 0 10.2 10.2 0 0 1-13.64 0 10.2 10.2 0 0 1-13.64 0 10.27 10.27 0 0 1-10.52 1.91 10.35 10.35 0 0 1-3.11-1.91 10.2 10.2 0 0 1-13.64 0 10.2 10.2 0 0 1-13.63 0 10.2 10.2 0 0 1-13.64 0 10.2 10.2 0 0 1-13.63 0 10.2 10.2 0 0 1-13.64 0 10.27 10.27 0 0 1-10.53 1.91 10.18 10.18 0 0 1-3.1-1.91 10.2 10.2 0 0 1-13.64 0 10.2 10.2 0 0 1-13.63 0 10.27 10.27 0 0 1-10.53 1.91 10.35 10.35 0 0 1-3.11-1.91 10.27 10.27 0 0 1-10.53 1.91 10.18 10.18 0 0 1-3.1-1.91 10.2 10.2 0 0 1-13.64 0 10.2 10.2 0 0 1-13.64 0 10.2 10.2 0 0 1-13.63 0 10.2 10.2 0 0 1-13.64 0 10.2 10.2 0 0 1-13.63 0 10.2 10.2 0 0 1-13.64 0 10.2 10.2 0 0 1-13.63 0 10.2 10.2 0 0 1-13.64 0 10.2 10.2 0 0 1-13.64 0 10.26 10.26 0 0 1-10.52 1.91 10.35 10.35 0 0 1-3.11-1.91 10.2 10.2 0 0 1-13.64 0 10.2 10.2 0 0 1-13.63 0 10.2 10.2 0 0 1-13.64 0 10.27 10.27 0 0 1-10.52 1.91c-1.16-.45-2.2-1.1-3.11-1.91a10.2 10.2 0 0 1-13.64 0 10.2 10.2 0 0 1-13.63 0 10.2 10.2 0 0 1-13.64 0 10.2 10.2 0 0 1-13.64 0 10.2 10.2 0 0 1-13.63 0zm0 31.72a10.27 10.27 0 0 1-6.82 2.6c-1.67 0-3.23-.43-4.63-1.15v10.55a10.12 10.12 0 0 0 11.45-1.45 10.2 10.2 0 0 0 13.63 0 10.26 10.26 0 0 0 6.82 2.6c2.62 0 5-.98 6.82-2.6a10.26 10.26 0 0 0 6.82 2.6c2.61 0 5-.98 6.82-2.6a10.2 10.2 0 0 0 13.63 0 10.2 10.2 0 0 0 13.64 0 10.2 10.2 0 0 0 13.63 0 10.2 10.2 0 0 0 13.64 0 10.2 10.2 0 0 0 13.63 0 10.2 10.2 0 0 0 13.64 0 10.26 10.26 0 0 0 6.82 2.6 10.18 10.18 0 0 0 6.81-2.6 10.2 10.2 0 0 0 13.64 0 10.2 10.2 0 0 0 13.64 0 10.26 10.26 0 0 0 6.81 2.6c2.62 0 5-.98 6.82-2.6a10.2 10.2 0 0 0 13.64 0 10.2 10.2 0 0 0 13.63 0 10.2 10.2 0 0 0 13.64 0 10.26 10.26 0 0 0 10.53 1.9c1.15-.44 2.2-1.1 3.1-1.9a10.26 10.26 0 0 0 10.53 1.9c1.15-.44 2.2-1.1 3.1-1.9a10.26 10.26 0 0 0 10.53 1.9 10.2 10.2 0 0 0 3.11-1.9 10.2 10.2 0 0 0 13.64 0 10.2 10.2 0 0 0 13.64 0 10.25 10.25 0 0 0 10.52 1.9c1.15-.44 2.2-1.1 3.11-1.9a10.26 10.26 0 0 0 6.82 2.6c2.61 0 5-.98 6.82-2.6a10.25 10.25 0 0 0 6.81 2.6c2.62 0 5-.98 6.82-2.6a10.26 10.26 0 0 0 6.82 2.6c2.61 0 5-.98 6.82-2.6a10.2 10.2 0 0 0 13.63 0 10.26 10.26 0 0 0 10.53 1.9c1.15-.44 2.2-1.1 3.1-1.9a10.26 10.26 0 0 0 6.83 2.6 10.18 10.18 0 0 0 6.81-2.6 10.26 10.26 0 0 0 6.82 2.6c2.62 0 5-.98 6.82-2.6a10.2 10.2 0 0 0 13.63 0 10.26 10.26 0 0 0 6.82 2.6c2.62 0 5-.98 6.82-2.6a10.2 10.2 0 0 0 13.64 0 10.26 10.26 0 0 0 10.52 1.9c1.15-.44 2.2-1.1 3.11-1.9a10.25 10.25 0 0 0 10.53 1.9c1.15-.44 2.2-1.1 3.1-1.9a10.2 10.2 0 0 0 13.64 0 10.2 10.2 0 0 0 13.64 0 10.2 10.2 0 0 0 13.63 0 10.26 10.26 0 0 0 10.53 1.9c1.15-.44 2.2-1.1 3.1-1.9a10.26 10.26 0 0 0 6.83 2.6c2.61 0 5-.98 6.82-2.6a10.26 10.26 0 0 0 6.81 2.6c2.62 0 5-.98 6.82-2.6a10.26 10.26 0 0 0 6.82 2.6c2.61 0 5-.98 6.82-2.6a10.2 10.2 0 0 0 13.63 0c.28.24.64.36.94.58a401.12 401.12 0 0 0-.49-10.86c-.14-.1-.32-.16-.45-.27a10.2 10.2 0 0 1-13.63 0 10.2 10.2 0 0 1-13.64 0 10.2 10.2 0 0 1-13.63 0 10.2 10.2 0 0 1-13.64 0 10.2 10.2 0 0 1-13.64 0 10.27 10.27 0 0 1-10.52 1.9c-1.15-.44-2.2-1.1-3.11-1.9a10.2 10.2 0 0 1-13.64 0 10.2 10.2 0 0 1-13.63 0 10.26 10.26 0 0 1-10.53 1.9c-1.15-.44-2.2-1.1-3.1-1.9a10.2 10.2 0 0 1-13.64 0 10.2 10.2 0 0 1-13.64 0 10.2 10.2 0 0 1-13.64 0 10.27 10.27 0 0 1-10.52 1.9c-1.15-.44-2.2-1.1-3.11-1.9a10.2 10.2 0 0 1-13.64 0 10.2 10.2 0 0 1-13.63 0 10.2 10.2 0 0 1-13.64 0 10.2 10.2 0 0 1-13.63 0 10.2 10.2 0 0 1-13.64 0 10.27 10.27 0 0 1-10.53 1.9c-1.15-.44-2.2-1.1-3.1-1.9a10.2 10.2 0 0 1-13.64 0 10.2 10.2 0 0 1-13.63 0 10.27 10.27 0 0 1-10.53 1.9c-1.15-.44-2.2-1.1-3.11-1.9a10.27 10.27 0 0 1-10.53 1.9c-1.15-.44-2.2-1.1-3.1-1.9a10.2 10.2 0 0 1-13.64 0 10.2 10.2 0 0 1-13.64 0 10.2 10.2 0 0 1-13.63 0 10.2 10.2 0 0 1-13.64 0 10.2 10.2 0 0 1-13.63 0 10.2 10.2 0 0 1-13.64 0 10.2 10.2 0 0 1-13.63 0 10.2 10.2 0 0 1-13.64 0 10.2 10.2 0 0 1-13.64 0 10.26 10.26 0 0 1-10.52 1.9c-1.15-.44-2.2-1.1-3.11-1.9a10.2 10.2 0 0 1-13.64 0 10.2 10.2 0 0 1-13.63 0 10.2 10.2 0 0 1-13.64 0 10.27 10.27 0 0 1-10.52 1.9 10.2 10.2 0 0 1-3.11-1.9 10.2 10.2 0 0 1-13.64 0 10.2 10.2 0 0 1-13.63 0 10.2 10.2 0 0 1-13.64 0 10.2 10.2 0 0 1-13.64 0 10.2 10.2 0 0 1-13.63 0zm0 28.7a10.26 10.26 0 0 1-6.82 2.6 10.2 10.2 0 0 1-4.63-1.15v10.55a10.12 10.12 0 0 0 11.45-1.46 10.2 10.2 0 0 0 13.63 0 10.26 10.26 0 0 0 6.82 2.6c2.62 0 5-.97 6.82-2.6a10.26 10.26 0 0 0 6.82 2.6c2.61 0 5-.97 6.82-2.6a10.2 10.2 0 0 0 13.63 0 10.2 10.2 0 0 0 13.64 0 10.2 10.2 0 0 0 13.63 0 10.2 10.2 0 0 0 13.64 0 10.2 10.2 0 0 0 13.63 0 10.2 10.2 0 0 0 13.64 0 10.26 10.26 0 0 0 6.82 2.6c2.61 0 5-.97 6.81-2.6a10.2 10.2 0 0 0 13.64 0 10.2 10.2 0 0 0 13.64 0 10.26 10.26 0 0 0 6.81 2.6c2.62 0 5-.97 6.82-2.6a10.2 10.2 0 0 0 13.64 0 10.19 10.19 0 0 0 13.63 0 10.19 10.19 0 0 0 13.64 0 10.26 10.26 0 0 0 10.53 1.91 10.35 10.35 0 0 0 3.1-1.9 10.26 10.26 0 0 0 10.53 1.9 10.35 10.35 0 0 0 3.1-1.9 10.26 10.26 0 0 0 10.53 1.9 10.4 10.4 0 0 0 3.11-1.9 10.2 10.2 0 0 0 13.64 0 10.2 10.2 0 0 0 13.64 0 10.25 10.25 0 0 0 13.63 0 10.26 10.26 0 0 0 13.64 0 10.25 10.25 0 0 0 13.63 0 10.26 10.26 0 0 0 6.82 2.6c2.61 0 5-.99 6.82-2.6a10.2 10.2 0 0 0 13.63 0 10.26 10.26 0 0 0 10.53 1.9 10.35 10.35 0 0 0 3.1-1.9 10.26 10.26 0 0 0 6.83 2.6 10.18 10.18 0 0 0 6.81-2.6 10.26 10.26 0 0 0 6.82 2.6c2.62 0 5-.98 6.82-2.6a10.2 10.2 0 0 0 13.63 0 10.26 10.26 0 0 0 6.82 2.6c2.62 0 5-.98 6.82-2.6a10.2 10.2 0 0 0 13.64 0 10.26 10.26 0 0 0 10.52 1.9c1.15-.45 2.2-1.1 3.11-1.9a10.25 10.25 0 0 0 10.53 1.9 10.35 10.35 0 0 0 3.1-1.9 10.2 10.2 0 0 0 13.64 0 10.2 10.2 0 0 0 13.64 0 10.2 10.2 0 0 0 13.63 0 10.26 10.26 0 0 0 10.53 1.9 10.35 10.35 0 0 0 3.1-1.9 10.26 10.26 0 0 0 6.83 2.6c2.61 0 5-.99 6.82-2.6a10.26 10.26 0 0 0 6.81 2.6c2.62 0 5-.98 6.82-2.6a10.26 10.26 0 0 0 6.82 2.6c2.61 0 5-.98 6.82-2.6a10.2 10.2 0 0 0 13.43.11 401.12 401.12 0 0 0 .56-10.45c-.11-.09-.25-.12-.36-.22a10.2 10.2 0 0 1-13.63 0 10.2 10.2 0 0 1-13.64 0 10.2 10.2 0 0 1-13.63 0 10.2 10.2 0 0 1-13.64 0 10.2 10.2 0 0 1-13.64 0 10.26 10.26 0 0 1-10.52 1.91c-1.15-.44-2.2-1.1-3.11-1.9a10.2 10.2 0 0 1-13.64 0 10.2 10.2 0 0 1-13.63 0 10.25 10.25 0 0 1-10.53 1.9c-1.15-.44-2.2-1.1-3.1-1.9a10.2 10.2 0 0 1-13.64 0 10.2 10.2 0 0 1-13.64 0 10.2 10.2 0 0 1-13.64 0 10.26 10.26 0 0 1-10.52 1.9c-1.15-.44-2.2-1.1-3.11-1.9a10.2 10.2 0 0 1-13.64 0 10.2 10.2 0 0 1-13.63 0 10.2 10.2 0 0 1-13.64 0 10.2 10.2 0 0 1-13.63 0 10.2 10.2 0 0 1-13.64 0 10.26 10.26 0 0 1-10.53 1.9c-1.15-.44-2.2-1.1-3.1-1.9a10.2 10.2 0 0 1-13.64 0 10.2 10.2 0 0 1-13.63 0 10.26 10.26 0 0 1-10.53 1.9c-1.15-.44-2.2-1.1-3.11-1.9a10.26 10.26 0 0 1-10.53 1.9c-1.15-.44-2.2-1.1-3.1-1.9a10.2 10.2 0 0 1-13.64 0 10.2 10.2 0 0 1-13.64 0 10.2 10.2 0 0 1-13.63 0 10.2 10.2 0 0 1-13.64 0 10.2 10.2 0 0 1-13.63 0 10.2 10.2 0 0 1-13.64 0 10.2 10.2 0 0 1-13.63 0 10.2 10.2 0 0 1-13.64 0 10.2 10.2 0 0 1-13.64 0 10.25 10.25 0 0 1-10.52 1.9c-1.15-.44-2.2-1.1-3.11-1.9a10.2 10.2 0 0 1-13.64 0 10.2 10.2 0 0 1-13.63 0 10.2 10.2 0 0 1-13.64 0 10.26 10.26 0 0 1-10.52 1.9 10.2 10.2 0 0 1-3.11-1.9 10.2 10.2 0 0 1-13.64 0 10.2 10.2 0 0 1-13.63 0 10.2 10.2 0 0 1-13.64 0 10.2 10.2 0 0 1-13.64 0 10.2 10.2 0 0 1-13.63 0zm0 31.71a10.26 10.26 0 0 1-6.82 2.6c-1.67 0-3.23-.43-4.63-1.15v10.55a10.12 10.12 0 0 0 11.45-1.45 10.2 10.2 0 0 0 13.63 0 10.26 10.26 0 0 0 6.82 2.6c2.62 0 5-.98 6.82-2.6a10.26 10.26 0 0 0 6.82 2.6c2.61 0 5-.98 6.82-2.6a10.2 10.2 0 0 0 13.63 0 10.2 10.2 0 0 0 13.64 0 10.2 10.2 0 0 0 13.63 0 10.2 10.2 0 0 0 13.64 0 10.2 10.2 0 0 0 13.63 0 10.2 10.2 0 0 0 13.64 0 10.26 10.26 0 0 0 6.82 2.6 10.18 10.18 0 0 0 6.81-2.6 10.2 10.2 0 0 0 13.64 0 10.2 10.2 0 0 0 13.64 0 10.26 10.26 0 0 0 6.81 2.6c2.62 0 5-.98 6.82-2.6a10.2 10.2 0 0 0 13.64 0 10.19 10.19 0 0 0 13.63 0 10.19 10.19 0 0 0 13.64 0 10.26 10.26 0 0 0 10.53 1.91 10.18 10.18 0 0 0 3.1-1.91 10.26 10.26 0 0 0 10.53 1.91 10.18 10.18 0 0 0 3.1-1.91 10.26 10.26 0 0 0 10.53 1.91c1.16-.45 2.2-1.1 3.11-1.91a10.2 10.2 0 0 0 13.64 0 10.2 10.2 0 0 0 13.64 0 10.25 10.25 0 0 0 13.63 0 10.25 10.25 0 0 0 13.64 0 10.25 10.25 0 0 0 13.63 0 10.26 10.26 0 0 0 6.82 2.6c2.61 0 5-.98 6.82-2.6a10.2 10.2 0 0 0 13.63 0 10.26 10.26 0 0 0 10.53 1.91 10.18 10.18 0 0 0 3.1-1.91 10.26 10.26 0 0 0 6.83 2.6 10.18 10.18 0 0 0 6.81-2.6 10.26 10.26 0 0 0 6.82 2.6c2.62 0 5-.98 6.82-2.6a10.2 10.2 0 0 0 13.63 0 10.26 10.26 0 0 0 6.82 2.6c2.62 0 5-.98 6.82-2.6a10.2 10.2 0 0 0 13.64 0 10.26 10.26 0 0 0 10.52 1.91 10.35 10.35 0 0 0 3.11-1.91 10.25 10.25 0 0 0 13.64 0 10.2 10.2 0 0 0 13.63 0 10.2 10.2 0 0 0 13.64 0 10.2 10.2 0 0 0 13.63 0 10.26 10.26 0 0 0 10.53 1.91 10.18 10.18 0 0 0 3.1-1.91 10.26 10.26 0 0 0 6.83 2.6c2.61 0 5-.98 6.82-2.6a10.26 10.26 0 0 0 6.81 2.6c2.62 0 5-.98 6.82-2.6a10.26 10.26 0 0 0 6.82 2.6c2.61 0 5-.98 6.82-2.6a10.2 10.2 0 0 0 6.81 2.6c1.1 0 2.13-.26 3.12-.58a401.12 401.12 0 0 0 1.82-11.42 9.96 9.96 0 0 1-4.94 1.46 10.23 10.23 0 0 1-6.81-2.6 10.2 10.2 0 0 1-13.64 0 10.2 10.2 0 0 1-13.63 0 10.2 10.2 0 0 1-13.64 0 10.2 10.2 0 0 1-13.64 0 10.26 10.26 0 0 1-10.52 1.9c-1.15-.45-2.2-1.1-3.11-1.9a10.2 10.2 0 0 1-13.64 0 10.2 10.2 0 0 1-13.63 0 10.25 10.25 0 0 1-10.53 1.9 10.35 10.35 0 0 1-3.1-1.9 10.2 10.2 0 0 1-13.64 0 10.2 10.2 0 0 1-13.64 0 10.2 10.2 0 0 1-13.64 0 10.26 10.26 0 0 1-10.52 1.9c-1.15-.45-2.2-1.1-3.11-1.9a10.2 10.2 0 0 1-13.64 0 10.2 10.2 0 0 1-13.63 0 10.2 10.2 0 0 1-13.64 0 10.2 10.2 0 0 1-13.63 0 10.2 10.2 0 0 1-13.64 0 10.26 10.26 0 0 1-10.53 1.9 10.35 10.35 0 0 1-3.1-1.9 10.2 10.2 0 0 1-13.64 0 10.2 10.2 0 0 1-13.63 0 10.26 10.26 0 0 1-10.53 1.9c-1.15-.45-2.2-1.1-3.11-1.9a10.26 10.26 0 0 1-10.53 1.9 10.35 10.35 0 0 1-3.1-1.9 10.2 10.2 0 0 1-13.64 0 10.2 10.2 0 0 1-13.64 0 10.2 10.2 0 0 1-13.63 0 10.2 10.2 0 0 1-13.64 0 10.2 10.2 0 0 1-13.63 0 10.2 10.2 0 0 1-13.64 0 10.2 10.2 0 0 1-13.63 0 10.2 10.2 0 0 1-13.64 0 10.2 10.2 0 0 1-13.64 0 10.25 10.25 0 0 1-10.52 1.9c-1.15-.45-2.2-1.1-3.11-1.9a10.2 10.2 0 0 1-13.64 0 10.2 10.2 0 0 1-13.63 0 10.2 10.2 0 0 1-13.64 0 10.26 10.26 0 0 1-10.52 1.9 10.4 10.4 0 0 1-3.11-1.9 10.2 10.2 0 0 1-13.64 0 10.2 10.2 0 0 1-13.63 0 10.2 10.2 0 0 1-13.64 0 10.2 10.2 0 0 1-13.64 0 10.2 10.2 0 0 1-13.63 0zm0 28.7a10.27 10.27 0 0 1-6.82 2.6c-1.67 0-3.23-.43-4.63-1.15v10.55a10.12 10.12 0 0 0 11.45-1.46 10.2 10.2 0 0 0 13.63 0 10.26 10.26 0 0 0 6.82 2.61c2.62 0 5-.98 6.82-2.6a10.26 10.26 0 0 0 6.82 2.6c2.61 0 5-.98 6.82-2.6a10.2 10.2 0 0 0 13.63 0 10.2 10.2 0 0 0 13.64 0 10.2 10.2 0 0 0 13.63 0 10.2 10.2 0 0 0 13.64 0 10.2 10.2 0 0 0 13.63 0 10.2 10.2 0 0 0 13.64 0 10.26 10.26 0 0 0 6.82 2.6 10.18 10.18 0 0 0 6.81-2.6 10.2 10.2 0 0 0 13.64 0 10.2 10.2 0 0 0 13.64 0 10.26 10.26 0 0 0 6.81 2.6c2.62 0 5-.98 6.82-2.6a10.2 10.2 0 0 0 13.64 0 10.2 10.2 0 0 0 13.63 0 10.2 10.2 0 0 0 13.64 0 10.26 10.26 0 0 0 10.53 1.9c1.15-.44 2.2-1.1 3.1-1.9a10.26 10.26 0 0 0 10.53 1.9c1.15-.44 2.2-1.1 3.1-1.9a10.26 10.26 0 0 0 10.53 1.9 10.2 10.2 0 0 0 3.11-1.9 10.2 10.2 0 0 0 13.64 0 10.2 10.2 0 0 0 13.64 0 10.25 10.25 0 0 0 13.63 0 10.25 10.25 0 0 0 13.64 0 10.25 10.25 0 0 0 13.63 0 10.26 10.26 0 0 0 6.82 2.6c2.61 0 5-.98 6.82-2.6a10.2 10.2 0 0 0 13.63 0 10.26 10.26 0 0 0 10.53 1.9c1.15-.44 2.2-1.1 3.1-1.9a10.26 10.26 0 0 0 6.83 2.6 10.18 10.18 0 0 0 6.81-2.6 10.26 10.26 0 0 0 6.82 2.6c2.62 0 5-.98 6.82-2.6a10.2 10.2 0 0 0 13.63 0 10.26 10.26 0 0 0 6.82 2.6c2.62 0 5-.98 6.82-2.6a10.2 10.2 0 0 0 13.64 0 10.26 10.26 0 0 0 10.52 1.9c1.15-.44 2.2-1.1 3.11-1.9a10.25 10.25 0 0 0 13.64 0 10.2 10.2 0 0 0 13.63 0 10.2 10.2 0 0 0 13.64 0 10.2 10.2 0 0 0 13.63 0 10.26 10.26 0 0 0 10.53 1.9c1.15-.44 2.2-1.1 3.1-1.9a10.26 10.26 0 0 0 6.83 2.6c2.61 0 5-.98 6.82-2.6a10.26 10.26 0 0 0 6.81 2.6c2.62 0 5-.98 6.82-2.6a10.26 10.26 0 0 0 6.82 2.6c2.61 0 5-.98 6.82-2.6 1.36 1.2 3.1 1.9 4.95 2.25a401.12 401.12 0 0 0 2-10.22l-.14.02a10.18 10.18 0 0 1-6.81-2.6 10.2 10.2 0 0 1-13.64 0 10.2 10.2 0 0 1-13.63 0 10.2 10.2 0 0 1-13.64 0 10.2 10.2 0 0 1-13.64 0 10.27 10.27 0 0 1-10.52 1.9c-1.15-.44-2.2-1.1-3.11-1.9a10.2 10.2 0 0 1-13.64 0 10.2 10.2 0 0 1-13.63 0 10.26 10.26 0 0 1-10.53 1.9c-1.15-.44-2.2-1.1-3.1-1.9a10.2 10.2 0 0 1-13.64 0 10.2 10.2 0 0 1-13.64 0 10.2 10.2 0 0 1-13.64 0 10.27 10.27 0 0 1-10.52 1.9c-1.15-.44-2.2-1.1-3.11-1.9a10.2 10.2 0 0 1-13.64 0 10.2 10.2 0 0 1-13.63 0 10.2 10.2 0 0 1-13.64 0 10.2 10.2 0 0 1-13.63 0 10.2 10.2 0 0 1-13.64 0 10.27 10.27 0 0 1-10.53 1.9c-1.15-.44-2.2-1.1-3.1-1.9a10.2 10.2 0 0 1-13.64 0 10.2 10.2 0 0 1-13.63 0 10.27 10.27 0 0 1-10.53 1.9c-1.15-.44-2.2-1.1-3.11-1.9a10.27 10.27 0 0 1-10.53 1.9c-1.15-.44-2.2-1.1-3.1-1.9a10.2 10.2 0 0 1-13.64 0 10.2 10.2 0 0 1-13.64 0 10.2 10.2 0 0 1-13.63 0 10.2 10.2 0 0 1-13.64 0 10.2 10.2 0 0 1-13.63 0 10.2 10.2 0 0 1-13.64 0 10.2 10.2 0 0 1-13.63 0 10.2 10.2 0 0 1-13.64 0 10.2 10.2 0 0 1-13.64 0 10.26 10.26 0 0 1-10.52 1.9c-1.15-.44-2.2-1.1-3.11-1.9a10.2 10.2 0 0 1-13.64 0 10.2 10.2 0 0 1-13.63 0 10.2 10.2 0 0 1-13.64 0 10.27 10.27 0 0 1-10.52 1.9 10.2 10.2 0 0 1-3.11-1.9 10.2 10.2 0 0 1-13.64 0 10.2 10.2 0 0 1-13.63 0 10.2 10.2 0 0 1-13.64 0 10.2 10.2 0 0 1-13.64 0 10.2 10.2 0 0 1-13.63 0zm0 31.71a10.27 10.27 0 0 1-6.82 2.61 10.2 10.2 0 0 1-4.63-1.15v10.55a10.12 10.12 0 0 0 11.45-1.46 10.2 10.2 0 0 0 13.63 0 10.26 10.26 0 0 0 6.82 2.6c2.62 0 5-.98 6.82-2.6a10.26 10.26 0 0 0 6.82 2.6c2.61 0 5-.98 6.82-2.6a10.2 10.2 0 0 0 13.63 0 10.2 10.2 0 0 0 13.64 0 10.2 10.2 0 0 0 13.63 0 10.2 10.2 0 0 0 13.64 0 10.2 10.2 0 0 0 13.63 0 10.2 10.2 0 0 0 13.64 0 10.26 10.26 0 0 0 6.82 2.6 10.18 10.18 0 0 0 6.81-2.6 10.2 10.2 0 0 0 13.64 0 10.2 10.2 0 0 0 13.64 0 10.26 10.26 0 0 0 6.81 2.6c2.62 0 5-.98 6.82-2.6a10.2 10.2 0 0 0 13.64 0 10.2 10.2 0 0 0 13.63 0 10.2 10.2 0 0 0 13.64 0 10.26 10.26 0 0 0 10.53 1.91 10.35 10.35 0 0 0 3.1-1.9 10.26 10.26 0 0 0 10.53 1.9 10.35 10.35 0 0 0 3.1-1.9 10.26 10.26 0 0 0 10.53 1.9 10.4 10.4 0 0 0 3.11-1.9 10.2 10.2 0 0 0 13.64 0 10.2 10.2 0 0 0 13.64 0 10.25 10.25 0 0 0 13.63 0 10.26 10.26 0 0 0 6.82 2.6c2.61 0 5-.99 6.82-2.6a10.25 10.25 0 0 0 13.63 0 10.26 10.26 0 0 0 6.82 2.6c2.61 0 5-.99 6.82-2.6a10.2 10.2 0 0 0 13.63 0 10.26 10.26 0 0 0 10.53 1.9 10.35 10.35 0 0 0 3.1-1.9 10.26 10.26 0 0 0 6.83 2.6 10.23 10.23 0 0 0 6.81-2.6 10.26 10.26 0 0 0 6.82 2.6c2.62 0 5-.99 6.82-2.6a10.2 10.2 0 0 0 13.63 0 10.26 10.26 0 0 0 6.82 2.6c2.62 0 5-.99 6.82-2.6a10.2 10.2 0 0 0 13.64 0 10.26 10.26 0 0 0 10.52 1.9c1.15-.45 2.2-1.1 3.11-1.9a10.25 10.25 0 0 0 10.53 1.9 10.35 10.35 0 0 0 3.1-1.9 10.2 10.2 0 0 0 13.64 0 10.2 10.2 0 0 0 13.64 0 10.2 10.2 0 0 0 13.63 0 10.26 10.26 0 0 0 10.53 1.9 10.35 10.35 0 0 0 3.1-1.9 10.26 10.26 0 0 0 6.83 2.6c2.61 0 5-.99 6.82-2.6a10.26 10.26 0 0 0 6.81 2.6c2.62 0 5-.99 6.82-2.6a10.26 10.26 0 0 0 6.82 2.6c1.15 0 2.24-.26 3.27-.62a401.12 401.12 0 0 0 3.36-12.42 10.16 10.16 0 0 1-13.45-.12 10.2 10.2 0 0 1-13.63 0 10.2 10.2 0 0 1-13.64 0 10.2 10.2 0 0 1-13.64 0 10.27 10.27 0 0 1-10.52 1.92 10.18 10.18 0 0 1-3.11-1.92 10.2 10.2 0 0 1-13.64 0 10.2 10.2 0 0 1-13.63 0 10.26 10.26 0 0 1-10.53 1.92c-1.15-.45-2.2-1.1-3.1-1.92a10.2 10.2 0 0 1-13.64 0 10.2 10.2 0 0 1-13.64 0 10.2 10.2 0 0 1-13.64 0 10.27 10.27 0 0 1-10.52 1.92 10.18 10.18 0 0 1-3.11-1.92 10.2 10.2 0 0 1-13.64 0 10.2 10.2 0 0 1-13.63 0 10.2 10.2 0 0 1-13.64 0 10.2 10.2 0 0 1-13.63 0 10.2 10.2 0 0 1-13.64 0 10.27 10.27 0 0 1-10.53 1.92c-1.15-.45-2.2-1.1-3.1-1.92a10.2 10.2 0 0 1-13.64 0 10.2 10.2 0 0 1-13.63 0 10.27 10.27 0 0 1-10.53 1.92 10.18 10.18 0 0 1-3.11-1.92 10.27 10.27 0 0 1-10.53 1.92c-1.15-.45-2.2-1.1-3.1-1.92a10.2 10.2 0 0 1-13.64 0 10.2 10.2 0 0 1-13.64 0 10.2 10.2 0 0 1-13.63 0 10.2 10.2 0 0 1-13.64 0 10.2 10.2 0 0 1-13.63 0 10.2 10.2 0 0 1-13.64 0 10.2 10.2 0 0 1-13.63 0 10.2 10.2 0 0 1-13.64 0 10.2 10.2 0 0 1-13.64 0 10.26 10.26 0 0 1-10.52 1.92 10.18 10.18 0 0 1-3.11-1.92 10.2 10.2 0 0 1-13.64 0 10.2 10.2 0 0 1-13.63 0 10.2 10.2 0 0 1-13.64 0 10.27 10.27 0 0 1-10.52 1.92c-1.16-.45-2.2-1.1-3.11-1.92a10.2 10.2 0 0 1-13.64 0 10.2 10.2 0 0 1-13.63 0 10.2 10.2 0 0 1-13.64 0 10.2 10.2 0 0 1-13.64 0 10.2 10.2 0 0 1-13.63 0zm0 28.7a10.26 10.26 0 0 1-6.82 2.6c-1.67 0-3.23-.43-4.63-1.15v10.55a10.12 10.12 0 0 0 11.45-1.45 10.2 10.2 0 0 0 13.63 0 10.26 10.26 0 0 0 6.82 2.6c2.62 0 5-.98 6.82-2.6a10.26 10.26 0 0 0 6.82 2.6c2.61 0 5-.98 6.82-2.6a10.2 10.2 0 0 0 13.63 0 10.2 10.2 0 0 0 13.64 0 10.2 10.2 0 0 0 13.63 0 10.2 10.2 0 0 0 13.64 0 10.2 10.2 0 0 0 13.63 0 10.2 10.2 0 0 0 13.64 0 10.26 10.26 0 0 0 6.82 2.6 10.18 10.18 0 0 0 6.81-2.6 10.2 10.2 0 0 0 13.64 0 10.2 10.2 0 0 0 13.64 0 10.26 10.26 0 0 0 6.81 2.6c2.62 0 5-.98 6.82-2.6a10.2 10.2 0 0 0 13.64 0 10.2 10.2 0 0 0 13.63 0 10.2 10.2 0 0 0 13.64 0 10.26 10.26 0 0 0 10.53 1.9c1.15-.44 2.2-1.1 3.1-1.9a10.26 10.26 0 0 0 10.53 1.9c1.15-.44 2.2-1.1 3.1-1.9a10.26 10.26 0 0 0 10.53 1.9 10.2 10.2 0 0 0 3.11-1.9 10.2 10.2 0 0 0 13.64 0 10.2 10.2 0 0 0 13.64 0 10.25 10.25 0 0 0 13.63 0 10.25 10.25 0 0 0 13.64 0 10.25 10.25 0 0 0 13.63 0 10.26 10.26 0 0 0 6.82 2.6c2.61 0 5-.98 6.82-2.6a10.2 10.2 0 0 0 13.63 0 10.26 10.26 0 0 0 10.53 1.9c1.15-.44 2.2-1.1 3.1-1.9a10.26 10.26 0 0 0 6.83 2.6 10.18 10.18 0 0 0 6.81-2.6 10.26 10.26 0 0 0 6.82 2.6c2.62 0 5-.98 6.82-2.6a10.2 10.2 0 0 0 13.63 0 10.26 10.26 0 0 0 6.82 2.6c2.62 0 5-.98 6.82-2.6a10.2 10.2 0 0 0 13.64 0 10.26 10.26 0 0 0 10.52 1.9c1.15-.44 2.2-1.1 3.11-1.9a10.25 10.25 0 0 0 13.64 0 10.2 10.2 0 0 0 13.63 0 10.2 10.2 0 0 0 13.64 0 10.2 10.2 0 0 0 13.63 0 10.26 10.26 0 0 0 10.53 1.9c1.15-.44 2.2-1.1 3.1-1.9a10.26 10.26 0 0 0 6.83 2.6c2.61 0 5-.98 6.82-2.6a10.26 10.26 0 0 0 6.81 2.6c2.62 0 5-.98 6.82-2.6.11.1.26.14.38.23a401.12 401.12 0 0 0 3.38-8.75 10.2 10.2 0 0 1-3.76-2.03 10.2 10.2 0 0 1-13.63 0 10.2 10.2 0 0 1-13.64 0 10.2 10.2 0 0 1-13.64 0 10.26 10.26 0 0 1-10.52 1.91 10.35 10.35 0 0 1-3.11-1.91 10.2 10.2 0 0 1-13.64 0 10.2 10.2 0 0 1-13.63 0 10.25 10.25 0 0 1-10.53 1.91 10.18 10.18 0 0 1-3.1-1.91 10.2 10.2 0 0 1-13.64 0 10.2 10.2 0 0 1-13.64 0 10.2 10.2 0 0 1-13.64 0 10.26 10.26 0 0 1-10.52 1.91 10.35 10.35 0 0 1-3.11-1.91 10.2 10.2 0 0 1-13.64 0 10.2 10.2 0 0 1-13.63 0 10.2 10.2 0 0 1-13.64 0 10.2 10.2 0 0 1-13.63 0 10.2 10.2 0 0 1-13.64 0 10.26 10.26 0 0 1-10.53 1.91 10.18 10.18 0 0 1-3.1-1.91 10.2 10.2 0 0 1-13.64 0 10.2 10.2 0 0 1-13.63 0 10.26 10.26 0 0 1-10.53 1.91 10.35 10.35 0 0 1-3.11-1.91 10.26 10.26 0 0 1-10.53 1.91 10.18 10.18 0 0 1-3.1-1.91 10.2 10.2 0 0 1-13.64 0 10.2 10.2 0 0 1-13.64 0 10.2 10.2 0 0 1-13.63 0 10.2 10.2 0 0 1-13.64 0 10.2 10.2 0 0 1-13.63 0 10.2 10.2 0 0 1-13.64 0 10.2 10.2 0 0 1-13.63 0 10.2 10.2 0 0 1-13.64 0 10.2 10.2 0 0 1-13.64 0 10.25 10.25 0 0 1-10.52 1.91 10.35 10.35 0 0 1-3.11-1.91 10.2 10.2 0 0 1-13.64 0 10.2 10.2 0 0 1-13.63 0 10.2 10.2 0 0 1-13.64 0 10.26 10.26 0 0 1-10.52 1.91c-1.16-.45-2.2-1.1-3.11-1.91a10.2 10.2 0 0 1-13.64 0 10.2 10.2 0 0 1-13.63 0 10.2 10.2 0 0 1-13.64 0 10.2 10.2 0 0 1-13.64 0 10.2 10.2 0 0 1-13.63 0zm0 31.72a10.27 10.27 0 0 1-6.82 2.6c-1.67 0-3.23-.43-4.63-1.15v10.55a10.12 10.12 0 0 0 11.45-1.45 10.2 10.2 0 0 0 13.63 0 10.25 10.25 0 0 0 13.64 0 10.25 10.25 0 0 0 13.64 0 10.2 10.2 0 0 0 13.63 0 10.2 10.2 0 0 0 13.64 0 10.2 10.2 0 0 0 13.63 0 10.2 10.2 0 0 0 13.64 0 10.2 10.2 0 0 0 13.63 0 10.2 10.2 0 0 0 13.64 0 10.25 10.25 0 0 0 13.63 0 10.2 10.2 0 0 0 13.64 0 10.2 10.2 0 0 0 13.64 0 10.26 10.26 0 0 0 13.63 0 10.2 10.2 0 0 0 13.64 0 10.2 10.2 0 0 0 13.63 0 10.2 10.2 0 0 0 13.64 0 10.25 10.25 0 0 0 13.63 0 10.26 10.26 0 0 0 13.64 0 10.25 10.25 0 0 0 13.63 0 10.2 10.2 0 0 0 13.64 0 10.2 10.2 0 0 0 13.64 0 10.25 10.25 0 0 0 13.63 0 10.25 10.25 0 0 0 13.64 0 10.24 10.24 0 0 0 13.63 0 10.25 10.25 0 0 0 13.64 0 10.2 10.2 0 0 0 13.63 0 10.26 10.26 0 0 0 13.64 0 10.25 10.25 0 0 0 13.63 0 10.25 10.25 0 0 0 13.64 0 10.2 10.2 0 0 0 13.63 0 10.25 10.25 0 0 0 13.64 0 10.2 10.2 0 0 0 13.64 0 10.25 10.25 0 0 0 13.63 0 10.24 10.24 0 0 0 13.64 0 10.2 10.2 0 0 0 13.63 0 10.2 10.2 0 0 0 13.64 0 10.2 10.2 0 0 0 13.63 0 10.25 10.25 0 0 0 13.64 0 10.26 10.26 0 0 0 13.64 0c.04.03.1.04.14.08a401.12 401.12 0 0 0 4.34-8.46c-.45-.11-.95-.1-1.38-.26a10.18 10.18 0 0 1-3.1-1.91 10.2 10.2 0 0 1-13.64 0 10.2 10.2 0 0 1-13.64 0 10.26 10.26 0 0 1-10.52 1.9c-1.15-.44-2.2-1.1-3.11-1.9a10.2 10.2 0 0 1-13.64 0 10.2 10.2 0 0 1-13.63 0 10.26 10.26 0 0 1-10.53 1.9c-1.15-.44-2.2-1.1-3.1-1.9a10.2 10.2 0 0 1-13.64 0 10.2 10.2 0 0 1-13.64 0 10.2 10.2 0 0 1-13.64 0 10.26 10.26 0 0 1-10.52 1.9c-1.15-.44-2.2-1.1-3.11-1.9a10.2 10.2 0 0 1-13.64 0 10.2 10.2 0 0 1-13.63 0 10.2 10.2 0 0 1-13.64 0 10.2 10.2 0 0 1-13.63 0 10.2 10.2 0 0 1-13.64 0 10.26 10.26 0 0 1-10.53 1.9c-1.15-.44-2.2-1.1-3.1-1.9a10.2 10.2 0 0 1-13.64 0 10.2 10.2 0 0 1-13.63 0 10.27 10.27 0 0 1-10.53 1.9c-1.15-.44-2.2-1.1-3.11-1.9a10.26 10.26 0 0 1-10.53 1.9c-1.15-.44-2.2-1.1-3.1-1.9a10.2 10.2 0 0 1-13.64 0 10.2 10.2 0 0 1-13.64 0 10.2 10.2 0 0 1-13.63 0 10.2 10.2 0 0 1-13.64 0 10.2 10.2 0 0 1-13.63 0 10.2 10.2 0 0 1-13.64 0 10.2 10.2 0 0 1-13.63 0 10.2 10.2 0 0 1-13.64 0 10.2 10.2 0 0 1-13.64 0 10.26 10.26 0 0 1-10.52 1.9c-1.15-.44-2.2-1.1-3.11-1.9a10.2 10.2 0 0 1-13.64 0 10.2 10.2 0 0 1-13.63 0 10.2 10.2 0 0 1-13.64 0 10.27 10.27 0 0 1-10.52 1.9 10.2 10.2 0 0 1-3.11-1.9 10.2 10.2 0 0 1-13.64 0 10.2 10.2 0 0 1-13.63 0 10.2 10.2 0 0 1-13.64 0 10.2 10.2 0 0 1-13.64 0 10.2 10.2 0 0 1-13.63 0zm0 28.7a10.27 10.27 0 0 1-6.82 2.6 10.2 10.2 0 0 1-4.63-1.15v10.54a10.12 10.12 0 0 0 11.45-1.45 10.2 10.2 0 0 0 13.63 0 10.26 10.26 0 0 0 6.82 2.6c2.62 0 5-.98 6.82-2.6a10.26 10.26 0 0 0 6.82 2.6c2.61 0 5-.98 6.82-2.6a10.2 10.2 0 0 0 13.63 0 10.2 10.2 0 0 0 13.64 0 10.2 10.2 0 0 0 13.63 0 10.2 10.2 0 0 0 13.64 0 10.2 10.2 0 0 0 13.63 0 10.2 10.2 0 0 0 13.64 0 10.26 10.26 0 0 0 6.82 2.6 10.18 10.18 0 0 0 6.81-2.6 10.2 10.2 0 0 0 13.64 0 10.2 10.2 0 0 0 13.64 0 10.26 10.26 0 0 0 6.81 2.6c2.62 0 5-.98 6.82-2.6a10.2 10.2 0 0 0 13.64 0 10.2 10.2 0 0 0 13.63 0 10.2 10.2 0 0 0 13.64 0 10.26 10.26 0 0 0 10.53 1.91 10.35 10.35 0 0 0 3.1-1.9 10.26 10.26 0 0 0 10.53 1.9 10.35 10.35 0 0 0 3.1-1.9 10.26 10.26 0 0 0 10.53 1.9 10.4 10.4 0 0 0 3.11-1.9 10.2 10.2 0 0 0 13.64 0 10.2 10.2 0 0 0 13.64 0 10.25 10.25 0 0 0 13.63 0 10.26 10.26 0 0 0 6.82 2.6c2.61 0 5-.99 6.82-2.6a10.25 10.25 0 0 0 13.63 0 10.26 10.26 0 0 0 6.82 2.6c2.61 0 5-.99 6.82-2.6a10.2 10.2 0 0 0 13.63 0 10.26 10.26 0 0 0 10.53 1.9 10.35 10.35 0 0 0 3.1-1.9 10.26 10.26 0 0 0 6.83 2.6 10.23 10.23 0 0 0 6.81-2.6 10.26 10.26 0 0 0 6.82 2.6c2.62 0 5-.99 6.82-2.6a10.2 10.2 0 0 0 13.63 0 10.26 10.26 0 0 0 6.82 2.6c2.62 0 5-.99 6.82-2.6a10.2 10.2 0 0 0 13.64 0 10.26 10.26 0 0 0 10.52 1.9c1.15-.45 2.2-1.1 3.11-1.9a10.25 10.25 0 0 0 10.53 1.9 10.35 10.35 0 0 0 3.1-1.9 10.2 10.2 0 0 0 13.64 0 10.2 10.2 0 0 0 13.64 0 10.2 10.2 0 0 0 13.63 0 10.26 10.26 0 0 0 10.53 1.9c.22-.08.38-.27.6-.37a401.12 401.12 0 0 0 6-10.1 10.22 10.22 0 0 1-3.5-1.99 10.2 10.2 0 0 1-13.63 0 10.27 10.27 0 0 1-10.52 1.91c-1.15-.44-2.2-1.1-3.11-1.9a10.2 10.2 0 0 1-13.64 0 10.2 10.2 0 0 1-13.63 0 10.26 10.26 0 0 1-10.53 1.9c-1.15-.44-2.2-1.1-3.1-1.9a10.2 10.2 0 0 1-13.64 0 10.2 10.2 0 0 1-13.64 0 10.2 10.2 0 0 1-13.64 0 10.27 10.27 0 0 1-10.52 1.9c-1.15-.44-2.2-1.1-3.11-1.9a10.2 10.2 0 0 1-13.64 0 10.2 10.2 0 0 1-13.63 0 10.2 10.2 0 0 1-13.64 0 10.2 10.2 0 0 1-13.63 0 10.2 10.2 0 0 1-13.64 0 10.27 10.27 0 0 1-10.53 1.9c-1.15-.44-2.2-1.1-3.1-1.9a10.2 10.2 0 0 1-13.64 0 10.2 10.2 0 0 1-13.63 0 10.27 10.27 0 0 1-10.53 1.9c-1.15-.44-2.2-1.1-3.11-1.9a10.27 10.27 0 0 1-10.53 1.9c-1.15-.44-2.2-1.1-3.1-1.9a10.2 10.2 0 0 1-13.64 0 10.2 10.2 0 0 1-13.64 0 10.2 10.2 0 0 1-13.63 0 10.2 10.2 0 0 1-13.64 0 10.2 10.2 0 0 1-13.63 0 10.2 10.2 0 0 1-13.64 0 10.2 10.2 0 0 1-13.63 0 10.2 10.2 0 0 1-13.64 0 10.2 10.2 0 0 1-13.64 0 10.26 10.26 0 0 1-10.52 1.9c-1.15-.44-2.2-1.1-3.11-1.9a10.2 10.2 0 0 1-13.64 0 10.2 10.2 0 0 1-13.63 0 10.2 10.2 0 0 1-13.64 0 10.27 10.27 0 0 1-10.52 1.9 10.2 10.2 0 0 1-3.11-1.9 10.2 10.2 0 0 1-13.64 0 10.2 10.2 0 0 1-13.63 0 10.2 10.2 0 0 1-13.64 0 10.2 10.2 0 0 1-13.64 0 10.2 10.2 0 0 1-13.63 0zm0 31.7a10.27 10.27 0 0 1-6.82 2.61c-1.67 0-3.23-.43-4.63-1.15v10.55a10.12 10.12 0 0 0 11.45-1.45 10.2 10.2 0 0 0 13.63 0 10.26 10.26 0 0 0 6.82 2.6c2.62 0 5-.98 6.82-2.6a10.26 10.26 0 0 0 6.82 2.6c2.61 0 5-.98 6.82-2.6a10.2 10.2 0 0 0 13.63 0 10.2 10.2 0 0 0 13.64 0 10.2 10.2 0 0 0 13.63 0 10.2 10.2 0 0 0 13.64 0 10.2 10.2 0 0 0 13.63 0 10.2 10.2 0 0 0 13.64 0 10.26 10.26 0 0 0 6.82 2.6 10.18 10.18 0 0 0 6.81-2.6 10.2 10.2 0 0 0 13.64 0 10.2 10.2 0 0 0 13.64 0 10.26 10.26 0 0 0 6.81 2.6c2.62 0 5-.98 6.82-2.6a10.2 10.2 0 0 0 13.64 0 10.2 10.2 0 0 0 13.63 0 10.2 10.2 0 0 0 13.64 0 10.26 10.26 0 0 0 10.53 1.9c1.15-.44 2.2-1.1 3.1-1.9a10.26 10.26 0 0 0 10.53 1.9c1.15-.44 2.2-1.1 3.1-1.9a10.26 10.26 0 0 0 10.53 1.9 10.2 10.2 0 0 0 3.11-1.9 10.2 10.2 0 0 0 13.64 0 10.2 10.2 0 0 0 13.64 0 10.25 10.25 0 0 0 10.52 1.9c1.15-.44 2.2-1.1 3.11-1.9a10.26 10.26 0 0 0 6.82 2.6c2.61 0 5-.98 6.82-2.6a10.25 10.25 0 0 0 6.81 2.6c2.62 0 5-.98 6.82-2.6a10.26 10.26 0 0 0 6.82 2.6c2.61 0 5-.98 6.82-2.6a10.2 10.2 0 0 0 13.63 0 10.26 10.26 0 0 0 10.53 1.9c1.15-.44 2.2-1.1 3.1-1.9a10.26 10.26 0 0 0 6.83 2.6 10.18 10.18 0 0 0 6.81-2.6 10.26 10.26 0 0 0 6.82 2.6c2.62 0 5-.98 6.82-2.6a10.2 10.2 0 0 0 13.63 0 10.26 10.26 0 0 0 6.82 2.6c2.62 0 5-.98 6.82-2.6a10.2 10.2 0 0 0 13.64 0 10.26 10.26 0 0 0 10.52 1.9c1.15-.44 2.2-1.1 3.11-1.9a10.25 10.25 0 0 0 10.53 1.9c1.15-.44 2.2-1.1 3.1-1.9a10.2 10.2 0 0 0 13.64 0 10.2 10.2 0 0 0 13.64 0c.96.86 2.1 1.5 3.32 1.95a401.12 401.12 0 0 0 7.43-10.73c-.08.04-.14.1-.23.14a10.18 10.18 0 0 1-10.52-1.91 10.2 10.2 0 0 1-13.64 0 10.2 10.2 0 0 1-13.63 0 10.26 10.26 0 0 1-10.53 1.91 10.18 10.18 0 0 1-3.1-1.91 10.2 10.2 0 0 1-13.64 0 10.2 10.2 0 0 1-13.64 0 10.2 10.2 0 0 1-13.64 0 10.27 10.27 0 0 1-10.52 1.91 10.35 10.35 0 0 1-3.11-1.91 10.2 10.2 0 0 1-13.64 0 10.2 10.2 0 0 1-13.63 0 10.2 10.2 0 0 1-13.64 0 10.2 10.2 0 0 1-13.63 0 10.2 10.2 0 0 1-13.64 0 10.27 10.27 0 0 1-10.53 1.91 10.18 10.18 0 0 1-3.1-1.91 10.2 10.2 0 0 1-13.64 0 10.2 10.2 0 0 1-13.63 0 10.27 10.27 0 0 1-10.53 1.91 10.35 10.35 0 0 1-3.11-1.91 10.27 10.27 0 0 1-10.53 1.91 10.18 10.18 0 0 1-3.1-1.91 10.2 10.2 0 0 1-13.64 0 10.2 10.2 0 0 1-13.64 0 10.2 10.2 0 0 1-13.63 0 10.2 10.2 0 0 1-13.64 0 10.2 10.2 0 0 1-13.63 0 10.2 10.2 0 0 1-13.64 0 10.2 10.2 0 0 1-13.63 0 10.2 10.2 0 0 1-13.64 0 10.2 10.2 0 0 1-13.64 0 10.27 10.27 0 0 1-10.52 1.91 10.35 10.35 0 0 1-3.11-1.91 10.2 10.2 0 0 1-13.64 0 10.2 10.2 0 0 1-13.63 0 10.2 10.2 0 0 1-13.64 0 10.27 10.27 0 0 1-10.52 1.91c-1.16-.45-2.2-1.1-3.11-1.91a10.2 10.2 0 0 1-13.64 0 10.2 10.2 0 0 1-13.63 0 10.2 10.2 0 0 1-13.64 0 10.2 10.2 0 0 1-13.64 0 10.2 10.2 0 0 1-13.63 0zm0 28.7a10.27 10.27 0 0 1-6.82 2.61c-1.67 0-3.23-.43-4.63-1.15v10.54a10.12 10.12 0 0 0 11.45-1.46 10.2 10.2 0 0 0 13.63 0 10.26 10.26 0 0 0 6.82 2.6c2.62 0 5-.97 6.82-2.6a10.26 10.26 0 0 0 6.82 2.6c2.61 0 5-.97 6.82-2.6a10.2 10.2 0 0 0 13.63 0 10.2 10.2 0 0 0 13.64 0 10.2 10.2 0 0 0 13.63 0 10.2 10.2 0 0 0 13.64 0 10.2 10.2 0 0 0 13.63 0 10.2 10.2 0 0 0 13.64 0 10.26 10.26 0 0 0 6.82 2.6c2.61 0 5-.97 6.81-2.6a10.2 10.2 0 0 0 13.64 0 10.2 10.2 0 0 0 13.64 0 10.26 10.26 0 0 0 6.81 2.6c2.62 0 5-.97 6.82-2.6a10.2 10.2 0 0 0 13.64 0 10.2 10.2 0 0 0 13.63 0 10.2 10.2 0 0 0 13.64 0 10.26 10.26 0 0 0 10.53 1.91 10.35 10.35 0 0 0 3.1-1.9 10.26 10.26 0 0 0 10.53 1.9 10.35 10.35 0 0 0 3.1-1.9 10.26 10.26 0 0 0 10.53 1.9 10.4 10.4 0 0 0 3.11-1.9 10.2 10.2 0 0 0 13.64 0 10.2 10.2 0 0 0 13.64 0 10.25 10.25 0 0 0 10.52 1.9c1.15-.45 2.2-1.1 3.11-1.9a10.26 10.26 0 0 0 6.82 2.6c2.61 0 5-.98 6.82-2.6a10.25 10.25 0 0 0 6.81 2.6c2.62 0 5-.98 6.82-2.6a10.26 10.26 0 0 0 6.82 2.6c2.61 0 5-.98 6.82-2.6a10.2 10.2 0 0 0 13.63 0 10.26 10.26 0 0 0 10.53 1.9 10.35 10.35 0 0 0 3.1-1.9 10.26 10.26 0 0 0 6.83 2.6 10.18 10.18 0 0 0 6.81-2.6 10.26 10.26 0 0 0 6.82 2.6c2.62 0 5-.98 6.82-2.6a10.2 10.2 0 0 0 13.63 0 10.26 10.26 0 0 0 6.82 2.6c2.62 0 5-.98 6.82-2.6a10.2 10.2 0 0 0 13.64 0 10.26 10.26 0 0 0 10.52 1.9c1.15-.45 2.2-1.1 3.11-1.9a10.25 10.25 0 0 0 10.53 1.9 10.35 10.35 0 0 0 3.1-1.9 10.2 10.2 0 0 0 6.65 2.57 401.12 401.12 0 0 0 9.47-11.6 10.3 10.3 0 0 1-2.48-1.53 10.2 10.2 0 0 1-13.63 0 10.26 10.26 0 0 1-10.53 1.92c-1.15-.45-2.2-1.1-3.1-1.92a10.2 10.2 0 0 1-13.64 0 10.2 10.2 0 0 1-13.64 0 10.2 10.2 0 0 1-13.64 0 10.27 10.27 0 0 1-10.52 1.92 10.18 10.18 0 0 1-3.11-1.92 10.2 10.2 0 0 1-13.64 0 10.2 10.2 0 0 1-13.63 0 10.2 10.2 0 0 1-13.64 0 10.2 10.2 0 0 1-13.63 0 10.2 10.2 0 0 1-13.64 0 10.27 10.27 0 0 1-10.53 1.92c-1.15-.45-2.2-1.1-3.1-1.92a10.2 10.2 0 0 1-13.64 0 10.2 10.2 0 0 1-13.63 0 10.27 10.27 0 0 1-10.53 1.92 10.18 10.18 0 0 1-3.11-1.92 10.27 10.27 0 0 1-10.53 1.92c-1.15-.45-2.2-1.1-3.1-1.92a10.2 10.2 0 0 1-13.64 0 10.2 10.2 0 0 1-13.64 0 10.2 10.2 0 0 1-13.63 0 10.2 10.2 0 0 1-13.64 0 10.2 10.2 0 0 1-13.63 0 10.2 10.2 0 0 1-13.64 0 10.2 10.2 0 0 1-13.63 0 10.2 10.2 0 0 1-13.64 0 10.2 10.2 0 0 1-13.64 0 10.26 10.26 0 0 1-10.52 1.92 10.18 10.18 0 0 1-3.11-1.92 10.2 10.2 0 0 1-13.64 0 10.2 10.2 0 0 1-13.63 0 10.2 10.2 0 0 1-13.64 0 10.27 10.27 0 0 1-10.52 1.92c-1.16-.45-2.2-1.1-3.11-1.92a10.2 10.2 0 0 1-13.64 0 10.2 10.2 0 0 1-13.63 0 10.2 10.2 0 0 1-13.64 0 10.2 10.2 0 0 1-13.64 0 10.2 10.2 0 0 1-13.63 0z" opacity=".4"/><path fill="#97b9fe" d="M12.92 422.855a10.27 10.27 0 0 1-6.82 2.6c-1.7 0-3.28-.44-4.7-1.17v10.55a10.14 10.14 0 0 0 11.52-1.43 10.2 10.2 0 0 0 13.63 0 10.25 10.25 0 0 0 13.64 0 10.26 10.26 0 0 0 6.82 2.6c2.61 0 5-.98 6.82-2.6a10.2 10.2 0 0 0 13.63 0 10.2 10.2 0 0 0 13.64 0 10.2 10.2 0 0 0 13.63 0 10.2 10.2 0 0 0 13.64 0 10.2 10.2 0 0 0 13.63 0 10.2 10.2 0 0 0 13.64 0 10.25 10.25 0 0 0 13.63 0 10.2 10.2 0 0 0 13.64 0 10.2 10.2 0 0 0 13.64 0 10.26 10.26 0 0 0 6.81 2.6c2.62 0 5-.98 6.82-2.6a10.2 10.2 0 0 0 13.64 0 10.2 10.2 0 0 0 13.63 0 10.2 10.2 0 0 0 13.64 0 10.26 10.26 0 0 0 10.52 1.9 10 10 0 0 0 3.11-1.9 10.25 10.25 0 0 0 10.53 1.9 9.96 9.96 0 0 0 3.1-1.9 10.26 10.26 0 0 0 10.53 1.9 10 10 0 0 0 3.11-1.9 10.2 10.2 0 0 0 13.64 0 10.2 10.2 0 0 0 13.64 0 10.26 10.26 0 0 0 10.52 1.9c1.15-.44 2.2-1.09 3.11-1.9a10.25 10.25 0 0 0 13.64 0 10.26 10.26 0 0 0 6.81 2.6c2.62 0 5-.98 6.82-2.6a10.26 10.26 0 0 0 6.82 2.6c2.61 0 5-.98 6.82-2.6a10.2 10.2 0 0 0 13.63 0 10.26 10.26 0 0 0 10.53 1.9 9.96 9.96 0 0 0 3.1-1.9 10.26 10.26 0 0 0 6.83 2.6 10.18 10.18 0 0 0 6.81-2.6 10.26 10.26 0 0 0 6.82 2.6c2.62 0 5-.98 6.82-2.6a10.2 10.2 0 0 0 13.63 0 10.26 10.26 0 0 0 6.82 2.6c2.62 0 5-.98 6.82-2.6a10.2 10.2 0 0 0 13.64 0 10.26 10.26 0 0 0 10.52 1.9c1.15-.44 2.2-1.09 3.11-1.9a10.25 10.25 0 0 0 13.64 0 10.2 10.2 0 0 0 13.63 0 10.2 10.2 0 0 0 13.64 0 10.2 10.2 0 0 0 13.63 0 10.26 10.26 0 0 0 10.53 1.9 9.96 9.96 0 0 0 3.1-1.9 10.26 10.26 0 0 0 6.83 2.6 10.18 10.18 0 0 0 6.81-2.6 10.26 10.26 0 0 0 6.82 2.6c2.62 0 5-.98 6.82-2.6a10.26 10.26 0 0 0 6.82 2.6c2.61 0 5-.98 6.82-2.6a10.2 10.2 0 0 0 6.81 2.6c.8 0 1.52-.25 2.27-.42a401.12 401.12 0 0 0-1.84-10.2c-.15 0-.28.08-.43.08a10.23 10.23 0 0 1-6.81-2.6 10.2 10.2 0 0 1-13.64 0 10.2 10.2 0 0 1-13.64 0 10.2 10.2 0 0 1-13.63 0 10.2 10.2 0 0 1-13.64 0 10.26 10.26 0 0 1-10.52 1.9c-1.15-.45-2.2-1.1-3.11-1.9a10.2 10.2 0 0 1-13.64 0 10.2 10.2 0 0 1-13.63 0 10.26 10.26 0 0 1-10.53 1.9 10.35 10.35 0 0 1-3.1-1.9 10.2 10.2 0 0 1-13.64 0 10.2 10.2 0 0 1-13.64 0 10.2 10.2 0 0 1-13.64 0 10.26 10.26 0 0 1-10.52 1.9c-1.15-.45-2.2-1.1-3.11-1.9a10.2 10.2 0 0 1-13.64 0 10.2 10.2 0 0 1-13.63 0 10.2 10.2 0 0 1-13.64 0 10.2 10.2 0 0 1-13.63 0 10.2 10.2 0 0 1-13.64 0 10.27 10.27 0 0 1-10.52 1.9 10.4 10.4 0 0 1-3.11-1.9 10.2 10.2 0 0 1-13.64 0 10.2 10.2 0 0 1-13.63 0 10.27 10.27 0 0 1-10.53 1.9c-1.15-.45-2.2-1.1-3.11-1.9a10.27 10.27 0 0 1-10.53 1.9 10.35 10.35 0 0 1-3.1-1.9 10.2 10.2 0 0 1-13.64 0 10.2 10.2 0 0 1-13.64 0 10.2 10.2 0 0 1-13.63 0 10.2 10.2 0 0 1-13.64 0 10.2 10.2 0 0 1-13.63 0 10.2 10.2 0 0 1-13.64 0 10.2 10.2 0 0 1-13.63 0 10.2 10.2 0 0 1-13.64 0 10.2 10.2 0 0 1-13.64 0 10.26 10.26 0 0 1-10.52 1.9c-1.15-.45-2.2-1.1-3.11-1.9a10.2 10.2 0 0 1-13.64 0 10.2 10.2 0 0 1-13.63 0 10.2 10.2 0 0 1-13.64 0 10.27 10.27 0 0 1-10.52 1.9c-1.15-.45-2.2-1.1-3.11-1.9a10.2 10.2 0 0 1-13.64 0 10.2 10.2 0 0 1-13.63 0 10.2 10.2 0 0 1-13.64 0 10.2 10.2 0 0 1-13.64 0 10.2 10.2 0 0 1-13.63 0z"/><path d="M12.66 433.145a9.81 9.81 0 0 1-11.09 1.37.38.38 0 0 0-.17-.02v1.07c1.42.7 3 1.15 4.7 1.15 2.6 0 4.96-.98 6.81-2.55a10.53 10.53 0 0 0 6.82 2.55c2.6 0 4.96-.98 6.81-2.55a10.53 10.53 0 0 0 6.82 2.55c2.6 0 4.97-.98 6.82-2.55a10.53 10.53 0 0 0 6.81 2.55c2.6 0 4.97-.98 6.82-2.55a10.53 10.53 0 0 0 6.82 2.55c2.6 0 4.96-.98 6.81-2.55a10.53 10.53 0 0 0 6.82 2.55c2.6 0 4.97-.98 6.82-2.55 1.85 1.57 4.21 2.55 6.82 2.55s4.96-.98 6.81-2.55a10.52 10.52 0 0 0 6.82 2.55c2.6 0 4.96-.98 6.81-2.55a10.53 10.53 0 0 0 6.82 2.55c2.6 0 4.97-.98 6.82-2.55a10.53 10.53 0 0 0 6.81 2.55c2.6 0 4.97-.98 6.82-2.55a10.53 10.53 0 0 0 6.82 2.55c2.6 0 4.96-.98 6.81-2.55a10.53 10.53 0 0 0 6.82 2.55c2.6 0 4.97-.98 6.82-2.55a10.52 10.52 0 0 0 6.81 2.55c2.6 0 4.97-.98 6.82-2.55a10.53 10.53 0 0 0 6.82 2.55c2.6 0 4.96-.98 6.81-2.55a10.53 10.53 0 0 0 6.82 2.55c2.6 0 4.97-.98 6.82-2.55a10.53 10.53 0 0 0 6.82 2.55c2.6 0 4.96-.98 6.81-2.55a10.53 10.53 0 0 0 6.82 2.55c2.6 0 4.96-.98 6.81-2.55a10.53 10.53 0 0 0 6.82 2.55c2.6 0 4.97-.98 6.82-2.55a10.53 10.53 0 0 0 6.81 2.55c2.6 0 4.97-.98 6.82-2.55 1.85 1.57 4.21 2.55 6.82 2.55s4.96-.98 6.81-2.55a10.53 10.53 0 0 0 6.82 2.55c2.6 0 4.97-.98 6.82-2.55a10.53 10.53 0 0 0 6.81 2.55c2.6 0 4.97-.98 6.82-2.55a10.53 10.53 0 0 0 6.82 2.55c2.6 0 4.96-.98 6.82-2.55a10.53 10.53 0 0 0 6.81 2.55c2.6 0 4.97-.98 6.82-2.55a10.53 10.53 0 0 0 6.81 2.55c2.6 0 4.97-.98 6.82-2.55a10.53 10.53 0 0 0 6.82 2.55c2.6 0 4.96-.98 6.81-2.55a10.53 10.53 0 0 0 6.82 2.55c2.6 0 4.97-.98 6.82-2.55 1.85 1.57 4.21 2.55 6.81 2.55s4.97-.98 6.82-2.55a10.53 10.53 0 0 0 6.82 2.55c2.6 0 4.96-.98 6.81-2.55a10.53 10.53 0 0 0 6.82 2.55c2.6 0 4.97-.98 6.82-2.55a10.53 10.53 0 0 0 6.82 2.55c2.6 0 4.96-.98 6.81-2.55a10.53 10.53 0 0 0 6.82 2.55c2.6 0 4.96-.98 6.82-2.55a10.53 10.53 0 0 0 6.81 2.55c2.6 0 4.97-.98 6.82-2.55a10.53 10.53 0 0 0 6.81 2.55c2.6 0 4.97-.98 6.82-2.55a10.53 10.53 0 0 0 6.82 2.55c2.6 0 4.96-.98 6.81-2.55a10.53 10.53 0 0 0 6.82 2.55c2.6 0 4.97-.98 6.82-2.55a10.53 10.53 0 0 0 6.81 2.55c2.6 0 4.97-.98 6.82-2.55 1.85 1.57 4.21 2.55 6.82 2.55s4.96-.98 6.81-2.55a10.53 10.53 0 0 0 6.82 2.55c2.6 0 4.97-.98 6.82-2.55a10.53 10.53 0 0 0 6.81 2.55c2.6 0 4.97-.98 6.82-2.55a10.53 10.53 0 0 0 6.82 2.55c2.6 0 4.96-.98 6.81-2.55a10.53 10.53 0 0 0 6.82 2.55c2.6 0 4.97-.98 6.82-2.55a10.53 10.53 0 0 0 6.81 2.55c.86 0 1.63-.25 2.42-.45a401.12 401.12 0 0 0-.09-1.05c-.76.2-1.5.44-2.33.44a9.81 9.81 0 0 1-6.56-2.51.38.38 0 0 0-.5 0 9.81 9.81 0 0 1-13.13 0 .38.38 0 0 0-.5 0 9.81 9.81 0 0 1-13.14 0 .38.38 0 0 0-.5 0 9.81 9.81 0 0 1-13.13 0 .38.38 0 0 0-.5 0 9.81 9.81 0 0 1-13.13 0 .38.38 0 0 0-.51 0 9.8 9.8 0 0 1-13.13 0 .38.38 0 0 0-.5 0 9.81 9.81 0 0 1-13.13 0 .38.38 0 0 0-.5 0 9.81 9.81 0 0 1-13.13 0 .38.38 0 0 0-.51 0 9.81 9.81 0 0 1-13.12 0 .38.38 0 0 0-.51 0 9.81 9.81 0 0 1-13.13 0 .38.38 0 0 0-.5 0 9.81 9.81 0 0 1-13.13 0 .38.38 0 0 0-.5 0 9.81 9.81 0 0 1-13.14 0 .38.38 0 0 0-.5 0 9.81 9.81 0 0 1-13.13 0 .38.38 0 0 0-.5 0 9.8 9.8 0 0 1-13.13 0 .38.38 0 0 0-.5 0 9.8 9.8 0 0 1-13.13 0 .38.38 0 0 0-.51 0 9.82 9.82 0 0 1-13.13 0 .38.38 0 0 0-.5 0 9.81 9.81 0 0 1-13.13 0 .38.38 0 0 0-.5 0 9.81 9.81 0 0 1-13.14 0 .38.38 0 0 0-.5 0 9.81 9.81 0 0 1-13.13 0 .38.38 0 0 0-.5 0 9.81 9.81 0 0 1-13.13 0 .38.38 0 0 0-.5 0 9.82 9.82 0 0 1-13.14 0 .38.38 0 0 0-.5 0 9.81 9.81 0 0 1-13.13 0 .38.38 0 0 0-.5 0 9.8 9.8 0 0 1-13.13 0 .38.38 0 0 0-.51 0 9.81 9.81 0 0 1-13.13 0 .38.38 0 0 0-.5 0 9.81 9.81 0 0 1-13.13 0 .38.38 0 0 0-.5 0 9.81 9.81 0 0 1-13.13 0 .38.38 0 0 0-.5 0 9.81 9.81 0 0 1-13.14 0 .38.38 0 0 0-.5 0 9.81 9.81 0 0 1-13.13 0 .38.38 0 0 0-.5 0 9.81 9.81 0 0 1-13.13 0 .38.38 0 0 0-.5 0 9.81 9.81 0 0 1-13.14 0 .38.38 0 0 0-.5 0 9.81 9.81 0 0 1-13.13 0 .38.38 0 0 0-.5 0 9.81 9.81 0 0 1-13.13 0 .38.38 0 0 0-.5 0 9.81 9.81 0 0 1-13.14 0 .38.38 0 0 0-.5 0 9.81 9.81 0 0 1-13.13 0 .38.38 0 0 0-.5 0 9.81 9.81 0 0 1-13.13 0 .38.38 0 0 0-.5 0 9.81 9.81 0 0 1-13.14 0 .38.38 0 0 0-.5 0 9.81 9.81 0 0 1-13.13 0 .38.38 0 0 0-.5 0 9.81 9.81 0 0 1-13.13 0 .38.38 0 0 0-.51 0 9.81 9.81 0 0 1-13.13 0 .38.38 0 0 0-.5 0 9.81 9.81 0 0 1-13.13 0 .38.38 0 0 0-.5 0 9.81 9.81 0 0 1-13.13 0 .38.38 0 0 0-.5 0 9.8 9.8 0 0 1-13.13 0 .38.38 0 0 0-.51 0z" class="F"/><path fill="#155ff4" d="M12.67 422.565a9.83 9.83 0 0 1-11.1 1.37.38.38 0 0 0-.17-.02v1.07c1.42.7 3 1.15 4.7 1.15 2.6 0 4.97-.98 6.82-2.55a10.54 10.54 0 0 0 6.83 2.55c2.6 0 4.96-.98 6.82-2.55 1.85 1.57 4.21 2.55 6.82 2.55s4.97-.98 6.82-2.55a10.54 10.54 0 0 0 6.83 2.55c2.6 0 4.96-.98 6.82-2.55a10.54 10.54 0 0 0 6.82 2.55c2.6 0 4.97-.98 6.82-2.55 1.86 1.57 4.22 2.55 6.83 2.55s4.97-.98 6.82-2.55a10.55 10.55 0 0 0 6.82 2.55c2.61 0 4.97-.98 6.83-2.55 1.85 1.57 4.21 2.55 6.82 2.55s4.97-.98 6.82-2.55a10.54 10.54 0 0 0 6.82 2.55c2.6 0 4.97-.98 6.83-2.55a10.55 10.55 0 0 0 6.82 2.55c2.6 0 4.97-.98 6.82-2.55a10.55 10.55 0 0 0 6.82 2.55c2.6 0 4.97-.98 6.83-2.55a10.54 10.54 0 0 0 6.82 2.55c2.6 0 4.97-.98 6.82-2.55a10.54 10.54 0 0 0 6.82 2.55c2.61 0 4.97-.98 6.83-2.55a10.54 10.54 0 0 0 6.82 2.55c2.6 0 4.97-.98 6.82-2.55a10.54 10.54 0 0 0 6.83 2.55c2.6 0 4.97-.98 6.82-2.55a10.54 10.54 0 0 0 6.82 2.55c2.6 0 4.97-.98 6.82-2.55a10.54 10.54 0 0 0 6.83 2.55c2.6 0 4.97-.98 6.82-2.55 1.85 1.57 4.22 2.55 6.82 2.55s4.97-.98 6.83-2.55a10.54 10.54 0 0 0 6.82 2.55c2.6 0 4.97-.98 6.82-2.55 1.85 1.57 4.22 2.55 6.82 2.55s4.97-.98 6.83-2.55a10.54 10.54 0 0 0 6.82 2.55c2.6 0 4.97-.98 6.82-2.55a10.54 10.54 0 0 0 6.82 2.55c2.61 0 4.97-.98 6.83-2.55a10.54 10.54 0 0 0 6.82 2.55c2.6 0 4.97-.98 6.82-2.55a10.54 10.54 0 0 0 6.83 2.55c2.6 0 4.96-.98 6.82-2.55 1.85 1.57 4.21 2.55 6.82 2.55s4.97-.98 6.82-2.55a10.54 10.54 0 0 0 6.83 2.55c2.6 0 4.97-.98 6.82-2.55a10.55 10.55 0 0 0 6.82 2.55c2.6 0 4.97-.98 6.82-2.55a10.55 10.55 0 0 0 6.83 2.55c2.6 0 4.97-.98 6.82-2.55a10.54 10.54 0 0 0 6.82 2.55c2.61 0 4.97-.98 6.83-2.55a10.54 10.54 0 0 0 6.82 2.55c2.6 0 4.97-.98 6.82-2.55 1.85 1.57 4.22 2.55 6.82 2.55s4.97-.98 6.83-2.55c1.85 1.57 4.21 2.55 6.82 2.55s4.97-.98 6.82-2.55a10.54 10.54 0 0 0 6.83 2.55c2.6 0 4.96-.98 6.82-2.55a10.55 10.55 0 0 0 6.82 2.55c2.6 0 4.97-.98 6.82-2.55 1.86 1.57 4.22 2.55 6.83 2.55s4.97-.98 6.82-2.55a10.54 10.54 0 0 0 6.82 2.55c2.6 0 4.97-.98 6.82-2.55a10.55 10.55 0 0 0 6.83 2.55c2.6 0 4.97-.98 6.82-2.55 1.85 1.57 4.22 2.55 6.82 2.55s4.97-.98 6.83-2.55a10.54 10.54 0 0 0 6.82 2.55c2.6 0 4.97-.98 6.82-2.55a10.54 10.54 0 0 0 6.82 2.55c2.6 0 4.97-.98 6.83-2.55a10.55 10.55 0 0 0 6.82 2.55c2.6 0 4.97-.98 6.82-2.55a10.54 10.54 0 0 0 6.82 2.55c2.61 0 4.97-.98 6.83-2.55a10.54 10.54 0 0 0 6.82 2.55c.07 0 .13-.03.2-.04a401.12 401.12 0 0 0-.28-1.03 9.82 9.82 0 0 1-6.49-2.5.38.38 0 0 0-.5 0 9.83 9.83 0 0 1-13.15 0 .38.38 0 0 0-.5 0 9.82 9.82 0 0 1-13.14 0 .38.38 0 0 0-.5 0 9.82 9.82 0 0 1-13.15 0 .38.38 0 0 0-.5 0 9.83 9.83 0 0 1-13.14 0 .38.38 0 0 0-.5 0 9.82 9.82 0 0 1-13.15 0 .38.38 0 0 0-.5 0 9.82 9.82 0 0 1-13.14 0 .38.38 0 0 0-.5 0 9.82 9.82 0 0 1-13.15 0 .38.38 0 0 0-.5 0 9.82 9.82 0 0 1-13.14 0 .38.38 0 0 0-.5 0 9.83 9.83 0 0 1-13.15 0 .38.38 0 0 0-.5 0 9.82 9.82 0 0 1-13.15 0 .38.38 0 0 0-.5 0 9.82 9.82 0 0 1-13.14 0 .38.38 0 0 0-.5 0 9.82 9.82 0 0 1-13.15 0 .38.38 0 0 0-.5 0 9.82 9.82 0 0 1-13.14 0 .38.38 0 0 0-.5 0 9.82 9.82 0 0 1-13.15 0 .38.38 0 0 0-.5 0 9.83 9.83 0 0 1-13.14 0 .38.38 0 0 0-.5 0 9.82 9.82 0 0 1-13.15 0 .38.38 0 0 0-.5 0 9.82 9.82 0 0 1-13.14 0 .38.38 0 0 0-.51 0 9.82 9.82 0 0 1-13.14 0 .38.38 0 0 0-.5 0 9.82 9.82 0 0 1-13.14 0 .38.38 0 0 0-.51 0 9.83 9.83 0 0 1-13.14 0 .38.38 0 0 0-.5 0 9.82 9.82 0 0 1-13.15 0 .38.38 0 0 0-.5 0 9.82 9.82 0 0 1-13.14 0 .38.38 0 0 0-.5 0 9.82 9.82 0 0 1-13.15 0 .38.38 0 0 0-.5 0 9.83 9.83 0 0 1-13.14 0 .38.38 0 0 0-.5 0 9.82 9.82 0 0 1-13.15 0 .38.38 0 0 0-.5 0 9.82 9.82 0 0 1-13.14 0 .38.38 0 0 0-.5 0 9.83 9.83 0 0 1-13.15 0 .38.38 0 0 0-.5 0 9.82 9.82 0 0 1-13.14 0 .38.38 0 0 0-.51 0 9.82 9.82 0 0 1-13.14 0 .38.38 0 0 0-.5 0 9.83 9.83 0 0 1-13.14 0 .38.38 0 0 0-.51 0 9.83 9.83 0 0 1-13.14 0 .38.38 0 0 0-.5 0 9.82 9.82 0 0 1-13.15 0 .38.38 0 0 0-.5 0 9.82 9.82 0 0 1-13.14 0 .38.38 0 0 0-.5 0 9.82 9.82 0 0 1-13.15 0 .38.38 0 0 0-.5 0 9.82 9.82 0 0 1-13.14 0 .38.38 0 0 0-.5 0 9.82 9.82 0 0 1-13.15 0 .38.38 0 0 0-.5 0 9.82 9.82 0 0 1-13.14 0 .38.38 0 0 0-.51 0 9.82 9.82 0 0 1-13.14 0 .38.38 0 0 0-.5 0 9.82 9.82 0 0 1-13.15 0 .38.38 0 0 0-.5 0 9.82 9.82 0 0 1-13.14 0 .38.38 0 0 0-.5 0 9.82 9.82 0 0 1-13.14 0 .38.38 0 0 0-.51 0z"/><path fill="url(#B)" d="M185.62-112.975a613.26 613.26 0 0 0-184.6 29.25v229.18a401.12 401.12 0 0 1 184.6-46.3 401.12 401.12 0 0 1 296.85 670.71h286.54v-455.83a613.26 613.26 0 0 0-583.4-427.02z"/><path fill="#5da5ff" fill-opacity=".68" d="M1.87-84.475l-1 .27a.5.5 0 0 0-.37.48v229.18a.5.5 0 0 0 .73.44c4.93-2.6 9.97-4.95 15-7.34a401.12 401.12 0 0 1 13.34-6.05c10.2-4.4 20.57-8.36 31.08-11.89a401.12 401.12 0 0 1 13.99-4.41 400.49 400.49 0 0 1 32.23-8.08 401.12 401.12 0 0 1 14.4-2.71 400.48 400.48 0 0 1 33.05-4.19 401.12 401.12 0 0 1 14.58-.96c5.56-.27 11.12-.57 16.7-.6 3.57 0 7.13.16 10.69.26a401.12 401.12 0 0 1 35.97 2.57 398.88 398.88 0 0 1 20.76 3 401.12 401.12 0 0 1 35.67 7.75 400.35 400.35 0 0 1 19.6 5.77 401.12 401.12 0 0 1 34.67 12.93 405.64 405.64 0 0 1 18 8.23 401.12 401.12 0 0 1 33.15 18.1 395.63 395.63 0 0 1 15.66 10.03 401.12 401.12 0 0 1 31.27 23.41c4.45 3.68 8.84 7.43 13.14 11.31a401.12 401.12 0 0 1 28.67 28.68c3.88 4.3 7.63 8.68 11.31 13.13a401.12 401.12 0 0 1 23.42 31.28 400.3 400.3 0 0 1 10.02 15.64 401.12 401.12 0 0 1 18.1 33.16 400.51 400.51 0 0 1 8.23 18 401.12 401.12 0 0 1 12.93 34.65c2.09 6.5 4.02 13.04 5.77 19.63a401.12 401.12 0 0 1 7.75 35.62 400.2 400.2 0 0 1 3 20.83 401.12 401.12 0 0 1 2.58 35.93l.26 10.7c0 3.3-.15 6.6-.23 9.89a401.12 401.12 0 0 1-2.93 39.43 400.46 400.46 0 0 1-2.8 18.89 401.12 401.12 0 0 1-9.1 40.33 400.48 400.48 0 0 1-4.96 16.2 401.12 401.12 0 0 1-15 38.8 395.5 395.5 0 0 1-7.23 15.31 401.12 401.12 0 0 1-20.4 35.92 399.83 399.83 0 0 1-10.64 15.87 401.12 401.12 0 0 1-24.36 31.15l-6.49 7.47a.5.5 0 0 0 .38.84h286.53a.5.5 0 0 0 .5-.5v-1a.5.5 0 0 0-.5-.5H484.55a401.58 401.58 0 0 0 103.67-269.1 401.63 401.63 0 0 0-401.63-401.6 401.6 401.6 0 0 0-184.1 46v-227.68a.5.5 0 0 0-.63-.48zm195.42 183.4a401.8 401.8 0 0 1 35.97 2.57 401.12 401.12 0 0 0-2.38-.17 397.94 397.94 0 0 0-32.66-2.33 401.12 401.12 0 0 0-.93-.07zm56.73 5.57a400.37 400.37 0 0 1 35.66 7.75 401.12 401.12 0 0 0-4.07-.88 401.55 401.55 0 0 0-27.48-5.98 401.12 401.12 0 0 0-4.1-.9zm55.27 13.53a400.45 400.45 0 0 1 34.67 12.93 401.12 401.12 0 0 0-7.4-2.76 401.58 401.58 0 0 0-20.32-7.58 401.12 401.12 0 0 0-6.94-2.6zm52.67 21.15a400.38 400.38 0 0 1 33.14 18.1 401.12 401.12 0 0 0-11.93-6.52l-12.14-6.63a401.12 401.12 0 0 0-9.06-4.95zm48.81 28.13a400.45 400.45 0 0 1 31.27 23.41 401.12 401.12 0 0 0-12.6-9.43 401.2 401.2 0 0 0-8.08-6.05 401.12 401.12 0 0 0-10.59-7.93zm44.4 34.73a400.56 400.56 0 0 1 28.68 28.67 401.12 401.12 0 0 0-11.26-11.26l-3-3.15c-1.03-1.03-2.12-1.99-3.16-3a401.12 401.12 0 0 0-11.26-11.26zm39.99 41.8a400.4 400.4 0 0 1 23.41 31.28 401.12 401.12 0 0 0-7.93-10.6 401.3 401.3 0 0 0-6.02-8.04 401.12 401.12 0 0 0-9.46-12.64zm33.43 46.92a400.47 400.47 0 0 1 18.12 33.17 401.12 401.12 0 0 0-4.94-9.03 402.33 402.33 0 0 0-6.67-12.23 401.12 401.12 0 0 0-6.5-11.91zm26.34 51.16a400.76 400.76 0 0 1 12.92 34.66 401.12 401.12 0 0 0-2.55-6.84 401.68 401.68 0 0 0-7.68-20.6 401.12 401.12 0 0 0-2.7-7.22zm18.7 54.29c3.12 11.72 5.7 23.6 7.75 35.61a401.12 401.12 0 0 0-.87-4 401.53 401.53 0 0 0-6-27.55 401.12 401.12 0 0 0-.88-4.06zm10.75 56.45a400.44 400.44 0 0 1 2.57 35.93 401.12 401.12 0 0 0-.06-.82 401.6 401.6 0 0 0-2.34-32.8 401.12 401.12 0 0 0-.16-2.31zm-24.87 191.24l-.56 1.43a401.12 401.12 0 0 0 .56-1.43zm-20.87 45.37a400.93 400.93 0 0 1-10.22 18.01 401.12 401.12 0 0 0 10.22-18.01zm-28.07 44.95a400.2 400.2 0 0 1-19.78 25.28 401.12 401.12 0 0 0 19.78-25.28z"/><path fill="#b2d6ff" fill-opacity=".85" d="M185.62-114.475A613.71 613.71 0 0 0 .87-85.205a.5.5 0 0 0-.35.48v1a.5.5 0 0 0 .65.48c4.98-1.6 10-3.03 15.01-4.5a613.26 613.26 0 0 1 32.3-8.56 612.63 612.63 0 0 1 28.5-5.9 613.26 613.26 0 0 1 30.72-4.87 612.73 612.73 0 0 1 28.91-3.2 613.26 613.26 0 0 1 33.35-1.84l15.66-.36c5.16 0 10.27.2 15.4.33a613.26 613.26 0 0 1 36.46 1.97 599.65 599.65 0 0 1 24.43 2.6 613.26 613.26 0 0 1 38 6.1 611.04 611.04 0 0 1 26.08 5.55 613.26 613.26 0 0 1 36.59 9.9 611.05 611.05 0 0 1 26.24 8.62 613.26 613.26 0 0 1 35.82 13.86 612.56 612.56 0 0 1 22.01 9.9 613.26 613.26 0 0 1 33.6 17.24 614.37 614.37 0 0 1 23.88 13.82 613.26 613.26 0 0 1 30.22 19.77 613.55 613.55 0 0 1 24.26 17.76 613.26 613.26 0 0 1 27.96 22.81 613.1 613.1 0 0 1 20.4 18.6 613.26 613.26 0 0 1 26.65 26.87 613.34 613.34 0 0 1 16.02 17.92 613.26 613.26 0 0 1 24.06 29.98 611.16 611.16 0 0 1 16.13 22.37 613.26 613.26 0 0 1 20.52 31.92c4.56 7.6 8.93 15.34 13.17 23.17a613.26 613.26 0 0 1 17.28 34.33 613.19 613.19 0 0 1 9.88 22.57 613.26 613.26 0 0 1 12.89 34.12l4.98 14.6a.5.5 0 0 0 .97-.15v-1a.5.5 0 0 0-.02-.16c-81.03-254.22-317.04-426.98-583.88-427.37z"/></svg>