<?xml version="1.0" encoding="UTF-8"?><svg id="Layer_2" xmlns="http://www.w3.org/2000/svg" viewBox="0 0 439.52 36.16"><defs><style>.cls-1{fill:#30ba78;}.cls-2{fill:#0c322c;}</style></defs><g id="Layer_1-2"><g id="Layer_1-3"><path class="cls-1" d="M66.89,13.09c-.38.25-.89.25-1.27,0-.62-.41-.68-1.28-.18-1.78.45-.46,1.18-.46,1.63,0,.5.5.44,1.36-.18,1.78M68.7,10.57c.72,3.08-2.04,5.84-5.12,5.12-1.57-.37-2.81-1.61-3.18-3.18-.72-3.07,2.04-5.84,5.12-5.12,1.57.37,2.81,1.61,3.18,3.17M47.99,27.11c.35.51.64.99.81,1.48.11.35.26.8.61.99.02.01.04.02.06.03.63.23,2.24.19,2.24.19h2.97c.25,0,2.48,0,2.43-.25-.27-1.19-1.65-1.41-2.7-2.03-.97-.58-1.88-1.23-2.3-2.36-.22-.58-.09-1.92.29-2.41.27-.35.67-.59,1.11-.68.48-.1.97-.01,1.45.03.59.06,1.17.17,1.76.24,1.14.15,2.28.21,3.43.18,1.89-.05,3.78-.35,5.57-.96,1.25-.42,2.48-.99,3.54-1.78,1.21-.9.89-.81-.33-.69-1.47.15-2.95.17-4.42.09-1.37-.08-2.73-.24-3.97-.88-.98-.5-1.82-1.01-2.59-1.79-.12-.12-.19-.46.02-.68.21-.21.64-.09.78.02,1.35,1.13,3.37,2.06,5.46,2.16,1.13.06,2.23.08,3.36.03.56-.03,1.42-.02,1.98-.03.29,0,1.09.08,1.24-.23.05-.09.04-.19.04-.3-.17-4.52-.5-9.62-5.23-11.78-3.53-1.61-8.82-4.11-11.05-5.15-.52-.25-1.12.14-1.12.72,0,1.51.08,3.68.08,5.65-1.07-1.09-2.87-1.78-4.25-2.41-1.56-.72-3.17-1.32-4.81-1.83-3.3-1.02-6.72-1.65-10.15-1.99-3.89-.39-7.86-.2-11.69.59-6.32,1.31-12.53,4.35-17.24,8.79C2.44,12.8.17,16.67.02,20.61c-.22,5.57,1.34,8.56,4.21,11.64,4.57,4.91,14.41,5.6,18.39-.23,1.79-2.62,2.18-6.18.88-9.07-1.3-2.9-4.29-4.99-7.46-5.1-2.46-.08-5.08,1.17-6.02,3.45-.72,1.74-.31,3.88,1,5.23.51.53,1.2.96,1.96.79.44-.1.82-.43.88-.89.1-.67-.48-1.1-.84-1.61-.65-.92-.52-2.31.29-3.09.68-.66,1.7-.86,2.65-.86.89,0,1.79.16,2.56.61,1.08.63,1.79,1.79,2.04,3.01.74,3.66-2.23,6.63-6.26,6.86-2.06.12-4.16-.42-5.77-1.71-4.07-3.28-5.07-9.98-.41-13.56,4.42-3.4,10-2.52,13.29-.76,2.63,1.41,4.6,3.72,6.08,6.28.75,1.28,1.38,2.63,1.97,3.99.57,1.31,1.1,2.63,2.23,3.59.75.64,1.68.61,2.67.61h5.63c.76,0,.58-.51.25-.85-.75-.76-1.82-.93-2.81-1.21-2.27-.62-2.04-3.63-1.41-3.63,2.03,0,2.09.06,3.87.04,2.56-.04,3.34-.18,5.34.56,1.07.4,2.1,1.44,2.77,2.4"/></g><path class="cls-2" d="M80.34,25.52l3.04-3.04c2.16,2.2,4.16,3.12,6.52,3.12,3.16,0,5.04-1.6,5.04-3.96,0-6.44-13.96-2.8-13.96-12.48,0-5.2,3.88-8.52,9.76-8.52,3.6,0,6.6,1.4,8.48,3.52l-3.12,3.12c-1.6-1.64-3.24-2.48-5.36-2.48-2.96,0-4.88,1.52-4.88,3.88,0,6.08,14.08,2.12,14.08,12.24,0,5.36-4.12,8.84-10.2,8.84-4.2,0-7.24-1.68-9.4-4.24Z"/><path class="cls-2" d="M104.42,19.52V1.2h4.92v17.92c0,4.08,2.36,6.08,5.96,6.08s5.92-2,5.92-6.08V1.2h4.92v18.32c0,6.84-4.32,10.24-10.84,10.24s-10.88-3.4-10.88-10.24Z"/><path class="cls-2" d="M130.62,25.52l3.04-3.04c2.16,2.2,4.16,3.12,6.52,3.12,3.16,0,5.04-1.6,5.04-3.96,0-6.44-13.96-2.8-13.96-12.48,0-5.2,3.88-8.52,9.76-8.52,3.6,0,6.6,1.4,8.48,3.52l-3.12,3.12c-1.6-1.64-3.24-2.48-5.36-2.48-2.96,0-4.88,1.52-4.88,3.88,0,6.08,14.08,2.12,14.08,12.24,0,5.36-4.12,8.84-10.2,8.84-4.2,0-7.24-1.68-9.4-4.24Z"/><path class="cls-2" d="M154.38,24.52V5.88c0-2.72,1.96-4.68,4.68-4.68h13.6v4.48h-11.96c-.84,0-1.48.64-1.48,1.44v5.88h12.6v4.28h-12.6v6c0,.8.64,1.44,1.48,1.44h11.96v4.48h-13.6c-2.72,0-4.68-1.96-4.68-4.68Z"/><path class="cls-2" d="M187.46,1.2h9c5.64,0,9.4,2.88,9.4,8.36,0,4.72-2.52,7.32-6.52,8.12l7.36,11.52h-3.96l-7-11.24h-4.88v11.24h-3.4V1.2ZM196.3,15.04c3.64,0,6.08-1.68,6.08-5.4,0-3.52-2.44-5.52-6.08-5.52h-5.44v10.92h5.44Z"/><path class="cls-2" d="M222.86,27.28c-1.08,1.52-2.96,2.32-5.68,2.32-4.56,0-7.4-2.28-7.4-5.68s2.8-5.96,7.76-5.96c2.08,0,3.72.48,4.92,1.32v-2.52c0-2.88-1.48-4.28-4.48-4.28-2,0-4.36.76-6.04,2.28l-1.52-2.2c1.72-1.96,4.72-3,7.68-3,4.48,0,7.56,2.4,7.56,7.16v6.16c0,2.12,0,4.2.12,6.32h-2.92v-1.92ZM217.78,27.16c2.88,0,4.68-1.28,4.68-3.32s-1.76-3.28-4.68-3.28-4.76,1.28-4.76,3.28,1.88,3.32,4.76,3.32Z"/><path class="cls-2" d="M231.94,9.96h3.12v3.04c1.56-2.64,4.32-3.44,6.36-3.44,4.32,0,7.28,2.8,7.28,8.32v11.32h-3.2v-10.84c0-4.12-2.08-5.84-4.88-5.84-2.96,0-5.44,2.04-5.44,5.88v10.8h-3.24V9.96Z"/><path class="cls-2" d="M253.46,19.8v-.48c0-5.76,4.2-9.76,9.88-9.76,2.76,0,5.2,1.08,6.76,2.96l-2,2c-1.2-1.28-2.8-1.96-4.76-1.96-3.84,0-6.68,2.68-6.68,6.76v.48c0,4.08,2.84,6.8,6.72,6.8,1.92,0,3.52-.6,4.84-1.92l1.96,1.96c-1.6,1.88-4.08,2.96-6.84,2.96-5.72,0-9.88-4.04-9.88-9.8Z"/><path class="cls-2" d="M274.82,0h3.12v13c1.56-2.64,4.32-3.44,6.36-3.44,4.32,0,7.28,2.8,7.28,8.32v11.32h-3.2v-10.84c0-4.12-2.08-5.84-4.88-5.84-2.96,0-5.44,2.04-5.44,5.88v10.8h-3.24V0Z"/><path class="cls-2" d="M296.34,19.68v-.4c0-5.56,3.6-9.72,9-9.72s8.92,4.36,8.16,11h-13.92c.36,3.56,2.8,6.08,6.56,6.08,2,0,3.56-.48,4.72-1.52l1.84,2c-1.48,1.6-3.92,2.48-6.72,2.48-5.72,0-9.64-4.04-9.64-9.92ZM310.42,17.92c-.04-3.52-2.08-5.56-5.04-5.56-3.24,0-5.32,2.2-5.76,5.56h10.8Z"/><path class="cls-2" d="M317.7,9.96h3.16v3.08c.92-2.44,2.96-3.16,5.32-3.16h1.64v3.2h-1.92c-3.12,0-4.96,1.52-4.96,4.72v11.4h-3.24V9.96Z"/><path class="cls-2" d="M341.42,1.2h8.68c5.6,0,9.36,3.12,9.36,8.44s-3.76,8.4-9.36,8.4h-5.28v11.16h-3.4V1.2ZM350.26,15.16c3.48,0,5.84-2.16,5.84-5.52s-2.36-5.48-5.84-5.48h-5.44v11h5.44Z"/><path class="cls-2" d="M363.42,9.96h3.16v3.08c.92-2.44,2.96-3.16,5.32-3.16h1.64v3.2h-1.92c-3.12,0-4.96,1.52-4.96,4.72v11.4h-3.24V9.96Z"/><path class="cls-2" d="M378.98,12.76h-3.72v-2.8h6.92v19.24h-3.2V12.76ZM378.86,1.08h3.52v4.64h-3.52V1.08Z"/><path class="cls-2" d="M388.54,9.96h3.12v3c1.48-2.56,3.96-3.4,6.08-3.4,2.8,0,4.96,1.24,6.08,3.76,1.6-2.88,4.48-3.76,6.6-3.76,4.2,0,7.08,2.68,7.08,8.2v11.44h-3.2v-11.04c0-3.96-1.84-5.64-4.64-5.64s-5,2-5,5.64v11.04h-3.24v-11.04c0-3.96-1.84-5.64-4.6-5.64s-5.04,2-5.04,5.64v11.04h-3.24V9.96Z"/><path class="cls-2" d="M422.26,19.68v-.4c0-5.56,3.6-9.72,9-9.72s8.92,4.36,8.16,11h-13.92c.36,3.56,2.8,6.08,6.56,6.08,2,0,3.56-.48,4.72-1.52l1.84,2c-1.48,1.6-3.92,2.48-6.72,2.48-5.72,0-9.64-4.04-9.64-9.92ZM436.34,17.92c-.04-3.52-2.08-5.56-5.04-5.56-3.24,0-5.32,2.2-5.76,5.56h10.8Z"/></g></svg>