<?xml version="1.0" encoding="UTF-8"?><svg id="Layer_2" xmlns="http://www.w3.org/2000/svg" viewBox="0 0 129 33"><defs><style>.cls-1{fill:none;}.cls-2{fill:#2354ff;}</style></defs><g><path d="M41.31476,9.48438h.8479c.82684,0,1.4519,1.8739,1.89752,2.94592,1.04962,2.38812,2.07568,3.07922,3.86102,3.07922,.26868,0,.5528-.03033,.80145-.06726h3.23517l.91644-2.85632h5.04419l.93616,2.85632h3.77148L57.53851,.37762h-3.77142l-4.13702,12.3017c-.10089,.03265-.29407,.08466-.526,.08466-1.3161,0-1.74066-1.4057-2.36578-2.677-.2674-.53662-.60242-1.04956-1.04834-1.4281,1.49432-.46942,3.03448-1.83032,3.03448-4.08521,0-2.76672-1.98615-4.19604-4.93201-4.19604h-6.20447V15.44226h3.72681v-5.95789Zm13.50067-2.85754c.33502-1.02594,.5578-2.56622,.5578-2.56622h.08862s.1568,1.51782,.51416,2.58862l1.02606,3.16882h-3.23499l1.04834-3.19122Zm-13.50067-3.54858h1.78534c1.02734,0,1.87518,.44696,1.87518,1.76312,0,1.60742-1.25012,1.94238-2.3208,1.94238h-1.33972V3.07825Z"/><path d="M74.85559,.37762h-3.0578V7.60919c0,.87036,.11188,2.07562,.15558,2.92358h-.08862c-.3573-.89276-.8042-2.03082-1.13922-2.67828l-3.94934-7.47687h-3.99585V15.44226h3.05811v-7.23041c0-.8255-.11188-1.83032-.17914-2.67822h.08954c.31238,.8031,.71466,1.78546,1.09467,2.4541l4.10608,7.45453h3.90601V.37762Z"/><path d="M88.35522,10.39825l-3.25854-.33368c.26776,1.96356-.98114,2.92352-2.5213,2.92352-1.62976,0-3.05811-1.04962-3.05811-5.15601,0-3.88354,1.31738-5.08875,2.94586-5.08875,1.69739,0,2.63354,.95996,2.25519,3.34808l3.48138-.31256c.49054-3.25842-1.27277-5.66895-5.66925-5.66895-4.1734,0-6.87421,2.25488-6.87421,7.69977,0,5.49097,2.63348,7.90027,6.71863,7.90027,4.01691,0,6.22552-2.25366,5.98035-5.31171Z"/><polygon points="97.41473 6.06903 92.84009 6.06903 92.84009 .37762 89.1123 .37762 89.1123 15.44226 92.84009 15.44226 92.84009 9.05975 97.41473 9.05975 97.41473 15.44226 101.1413 15.44226 101.1413 .37762 97.41473 .37762 97.41473 6.06903"/><polygon points="106.36212 9.14941 111.60651 9.14941 111.60651 6.38153 106.36212 6.38153 106.36212 3.14545 112.61151 3.14545 112.61151 .37762 102.63428 .37762 102.63428 15.44226 112.83429 15.44226 112.83429 12.6756 106.36212 12.6756 106.36212 9.14941"/><path d="M122.69806,10.08698c-.26782-.53662-.60278-1.04956-1.04968-1.4281,1.49524-.46942,3.03546-1.83032,3.03546-4.08521,0-2.76672-1.98578-4.19604-4.9317-4.19604h-6.20575V15.44226h3.72778v-5.95789h.84821c.82526,0,1.45032,1.8739,1.89624,2.94592,1.04962,2.38812,2.07666,3.07922,3.86102,3.07922,.69232,0,1.49652-.2005,1.49652-.2005l.28912-2.65582s-.26776,.11078-.6015,.11078c-1.31738,0-1.742-1.4057-2.36572-2.677Zm-4.08386-3.30322h-1.34003V3.07825h1.78564c1.02606,0,1.8739,.44696,1.8739,1.76312,0,1.60742-1.25012,1.94238-2.31952,1.94238Z"/><path d="M127.73077,1.091c0-.3075-.21899-.37097-.43829-.37097h-.42712V1.89911h.23431v-.47437h.10449l.26526,.47437h.26135l-.28754-.4906c.16797-.03113,.28754-.13568,.28754-.3175Zm-.41724,.16565h-.21387v-.32745h.21387c.08856,0,.18805,.03107,.18805,.15686,0,.10834-.0896,.17059-.18805,.17059Z"/><path d="M127.26636,.10992c-.58392,0-1.21509,.37097-1.21509,1.22021,0,.83545,.63116,1.20026,1.21509,1.20026,.58521,0,1.21631-.36481,1.21631-1.20026,0-.85547-.6311-1.22021-1.21631-1.22021Zm0,2.16522c-.48547,0-.93268-.28766-.93268-.95001,0-.66736,.4472-.96002,.93268-.96002,.49054,0,.92279,.29266,.92279,.96002,0,.66235-.43225,.95001-.92279,.95001Z"/><path d="M43.60791,18.68408h-5.90723v14.08984h3.48535v-5.03076h2.42188c2.83887,0,4.78027-1.77393,4.78027-4.84277,0-2.81787-2.00391-4.21631-4.78027-4.21631Zm-.79297,6.5332h-1.62891v-4.00781h1.62891c1.08496,0,2.06641,.45947,2.06641,1.8999,0,1.52393-.98145,2.10791-2.06641,2.10791Z"/><path d="M58.53564,27.76416c-.25098-.50098-.56445-.98096-.98145-1.33594,1.39844-.43848,2.83887-1.71191,2.83887-3.81982,0-2.58838-1.85742-3.92432-4.61328-3.92432h-5.80273v14.08984h3.48633v-5.57324h.79297c.77246,0,1.35645,1.75342,1.77441,2.75537,.98047,2.2334,1.94043,2.88037,3.61035,2.88037,.64746,0,1.39941-.1875,1.39941-.1875l.27051-2.48438s-.25,.10449-.56348,.10449c-1.23145,0-1.62793-1.31494-2.21191-2.50488Zm-3.82031-3.08936h-1.25195v-3.46533h1.66992c.95996,0,1.75293,.41797,1.75293,1.64941,0,1.50293-1.16895,1.81592-2.1709,1.81592Z"/><polygon points="62.14795 21.14697 64.02588 21.14697 64.02588 30.31104 62.14795 30.31104 62.14795 32.77393 69.41162 32.77393 69.41162 30.31104 67.51221 30.31104 67.51221 21.14697 69.41162 21.14697 69.41162 18.68408 62.14795 18.68408 62.14795 21.14697"/><path d="M79.2251,24.96729c-.35449,.95996-.60547,2.02441-.60547,2.02441h-.08301s-.25098-1.02246-.60547-2.02441l-2.2959-6.2832h-4.32129v14.08984h2.85938v-7.11816c0-.83496-.14551-2.67188-.14551-2.67188h.08301s.35449,1.81641,.64746,2.56738l2.73438,7.22266h1.56543l2.71387-7.22266c.27148-.70947,.68848-2.69238,.68848-2.69238h.08398s-.22949,1.96191-.22949,2.79688v7.11816h3.25586v-14.08984h-4.1123l-2.2334,6.2832Z"/><polygon points="91.60596 26.88721 96.51172 26.88721 96.51172 24.29932 91.60596 24.29932 91.60596 21.27246 97.45117 21.27246 97.45117 18.68408 88.12061 18.68408 88.12061 32.77393 97.65918 32.77393 97.65918 30.18555 91.60596 30.18555 91.60596 26.88721"/></g><rect class="cls-1" x=".27188" y=".35766" width="32.51248" height="32.51251"/><rect class="cls-1" x="3.45938" y="5.13891" width="20.39999" height="23.58746"/><path class="cls-2" d="M.32416,.37762V32.83649H32.78064V.37762H.32416ZM30.65515,6.41766l-4.19604,5.20831c-.2215,.27515-.5553,.43451-.90747,.43451h-1.77576v7.46204c0,1.06079-.86761,1.92993-1.92975,1.92993h-5.20483c-1.06079,0-1.92969-.86914-1.92969-1.92993v-3.9433c-.46826,.35114-.7746,.91144-.7746,1.54144v3.30328c0,1.06085,.86798,1.92993,1.92877,1.92993h3.37903v5.13739c0,.65118-.52783,1.17908-1.17902,1.17908h-6.36005c-.65118,0-1.17902-.52789-1.17902-1.17908v-4.77258c0-.65118-.52661-1.17908-1.1778-1.17908h-3.01825c-1.49176,0-2.70074-1.20898-2.70074-2.69946V7.55817h3.5285c.72742,0,1.28271,.65491,1.16187,1.37207l-.45453,2.73309c-.12079,.71967,.43475,1.37207,1.16187,1.37207h4.49982c.5766,0,1.05695-.41333,1.15924-.96118-.27411,.09088-.58649,.14191-.9151,.14191h-3.21014c-1.06079,0-1.7879-.85663-1.61353-1.90375l.54285-3.26099c.17566-1.04718,.58392-1.90503,.90778-1.90503,.32355,0,.58875,.86908,.58875,1.92993v.49805c.05994-.00873,.12207-.01617,.1842-.01617h5.34296c.04108-.0025,.0835-.005,.12683-.005h5.20483c1.06213,0,1.92975,.86786,1.92975,1.92871v2.57861l3.0705-5.92798c.26392-.50928,.78955-.82922,1.36237-.82922h1.91345c.57532,0,.8941,.66614,.53296,1.11438Z"/><rect class="cls-1" x="23.54062" y="5.13891" width="7.33127" height="7.01251"/></svg>