<?xml version="1.0" encoding="utf-8"?>
<!-- Generator: Adobe Illustrator 25.2.1, SVG Export Plug-In . SVG Version: 6.00 Build 0)  -->
<svg version="1.1" id="Layer_1" xmlns="http://www.w3.org/2000/svg" xmlns:xlink="http://www.w3.org/1999/xlink" x="0px" y="0px"
	 viewBox="0 0 698.9542847 127.4330673" style="enable-background:new 0 0 698.9542847 127.4330673;" xml:space="preserve">
<style type="text/css">
	.st0{fill:#FFFFFF;}
	.st1{fill:#F15354;}
	.st2{fill:#0976A8;}
</style>
<path class="st0" d="M293.6442566,1.23h28.5599976c13.5599976,0,22.7000122,6.5700002,22.7000122,19.3099995
	c0,10.3700008-7.0899963,16.6400013-14,18.7999973c2.0322876,1.8457413,3.6745605,4.079628,4.8299866,6.5699997
	c2.8800049,5.8499985,4.8299866,12.3199997,10.8900146,12.3199997c0.946228-0.0048485,1.8840942-0.1775208,2.769989-0.5099983
	l-1.3399963,12.2199974c-2.2554321,0.5433655-4.5610657,0.8516769-6.8800049,0.9199982
	c-8.1900024,0.0100021-12.8800049-3.1600037-17.7399902-14.1599998c-2.0499878-4.9300003-4.9299927-13.5600014-8.730011-13.5600014
	h-3.8999939v27.4200058h-17.1600037V1.23z M310.8042603,13.7000008v17h6.1600037
	c4.9299927,0,10.6799927-1.5400009,10.6799927-8.9300003c0-6.0599995-3.8999939-8.1199999-8.6300049-8.1199999h-8.2099915
	V13.7000008z"/>
<path class="st0" d="M368.104248,1.23h17.3599854l23.4200134,69.3300018H391.524231l-4.3099976-13.1500015h-23.2200012
	l-4.2099915,13.1500015h-15L368.104248,1.23z M368.104248,44.6800003h14.8900146l-4.7000122-14.5799999
	c-1.1412048-3.8914452-1.9310303-7.8774185-2.3599854-11.9099998h-0.4400024
	C374.9095154,22.1809597,374.0508118,26.1269474,372.9242554,30L368.104248,44.6800003z"/>
<path class="st0" d="M409.584259,1.23h18.3899841l18.1799927,34.4099998c1.5400085,3,3.5899963,8.2200012,5.2399902,12.3199997
	h0.4100037c-0.2000122-3.9000015-0.7200012-9.4500008-0.7200012-13.4500008V1.23h14.0700073v69.3299942h-18l-18.8599854-34.2999992
	c-1.9075928-3.6553802-3.5777283-7.4298649-5-11.2999992h-0.4100037c0.3099976,3.8999996,0.8200073,8.5299988,0.8200073,12.3199997
	v33.2799988H409.584259V1.23z"/>
<path class="st0" d="M468.8442688,35.4399986C468.8442688,10.3799992,481.2742615,0,500.4742737,0
	c20.230011,0,28.3500061,11.0900002,26.0899963,26.0900002l-16,1.4400005c1.75-11-2.5700073-15.4099998-10.3699951-15.4099998
	c-7.5,0-13.5599976,5.5500011-13.5599976,23.4200001c0,18.9000015,6.5700073,23.7299995,14.0700073,23.7299995
	c7.0899963,0,12.8400269-4.420002,11.6099854-13.4599991l15,1.5400009c1.1300049,14.0699997-9,24.4399986-27.5299988,24.4399986
	c-18.7999878,0-30.9200134-11.0900002-30.9200134-36.3600006"/>
<polygon class="st0" points="532.7639771,1.23 549.9240112,1.23 549.9240112,27.4300003 570.973999,27.4300003 570.973999,1.23 
	588.1240234,1.23 588.1240234,70.5599976 570.973999,70.5599976 570.973999,41.1899986 549.9240112,41.1899986 
	549.9240112,70.5599976 532.7639771,70.5599976 "/>
<polygon class="st0" points="592.9940186,1.23 638.9140015,1.23 638.9140015,13.9700003 610.1539917,13.9700003 
	610.1539917,28.8600006 634.2839966,28.8600006 634.2839966,41.5999985 610.1539917,41.5999985 610.1539917,57.8300018 
	639.934021,57.8300018 639.934021,70.5599976 592.9940186,70.5599976 "/>
<path class="st0" d="M643.2142944,1.23h28.5499878c13.5599976,0,22.7000122,6.5700002,22.7000122,19.3099995
	c0,10.3700008-7.0900269,16.6400013-14,18.7999973c2.0325317,1.8455582,3.6748047,4.0794868,4.8300171,6.5699997
	c2.8800049,5.8499985,4.8300171,12.3199997,10.8900146,12.3199997c0.946228-0.0048447,1.8840942-0.1775169,2.7700195-0.5099983
	l-1.3300171,12.2199974c-2.2554321,0.5432205-4.5610962,0.851532-6.8800049,0.9199982
	c-8.2199707,0-12.9400024-3.1800003-17.7700195-14.1699982c-2.0499878-4.9300003-4.9299927-13.5600014-8.7299805-13.5600014
	h-3.9000244v27.4200096h-17.1300049V1.23z M660.3643188,13.7000008v17h6.1599731
	c4.9299927,0,10.6799927-1.5400009,10.6799927-8.9300003c0-6.0599995-3.9000244-8.1199999-8.6300049-8.1199999h-8.2199707
	L660.3643188,13.7000008z"/>
<path class="st0" d="M293.6442566,92.0326691h21.1992188v3h-17.8994141v12.6005859h16.6494141v3h-16.6494141v16.7998123h-3.2998047
	V92.0326691z"/>
<path class="st0" d="M326.4440613,92.0326691h21.6494141v3H329.743866v12.6005859h17.2001953v3H329.743866v13.7998123H348.89328v3
	h-22.4492188V92.0326691z"/>
<path class="st0" d="M360.64328,92.0326691h10.9501953c2.6445312-0.0634918,5.2810059,0.3167801,7.7998047,1.125
	c1.9295044,0.6396027,3.7318726,1.6126785,5.3251953,2.875c1.340332,1.0798721,2.4750366,2.3925247,3.3496094,3.875
	c1.3736267,2.3246994,2.2346497,4.9160843,2.5253906,7.6005936c0.0996094,1.0498047,0.1494141,1.7913361,0.1494141,2.2246094
	c0,0.4335938-0.0498047,1.1754532-0.1494141,2.2255936c-0.2909546,2.6841507-1.151947,5.275177-2.5253906,7.5996094
	c-0.8738098,1.4830322-2.008606,2.7958221-3.3496094,3.875c-1.5930786,1.2626801-3.3955078,2.2357941-5.3251953,2.875
	c-2.5187988,0.8082199-5.1552734,1.1884918-7.7998047,1.125H360.64328V92.0326691z M363.9430847,124.4330673h6.7998047
	c2.2134705,0.01651,4.4182739-0.278038,6.5498047-0.875c1.9275818-0.5292816,3.7298584-1.4387131,5.3007812-2.6748123
	c1.5221252-1.2290878,2.7374268-2.7954407,3.5498047-4.5751877c1.7330627-4.2121658,1.7330627-8.9382324,0-13.1503983
	c-0.8121643-1.7796173-2.0274963-3.3457031-3.5498047-4.5742111c-1.571106-1.2360382-3.373291-2.1457672-5.3007812-2.6757889
	c-2.1317139-0.5960159-4.3363953-0.8905411-6.5498047-0.875h-6.7998047V124.4330673z"/>
<path class="st0" d="M403.14328,92.0326691h21.6503906v3h-18.3505859v12.6005859H423.64328v3h-17.2001953v13.7998123h19.1494141v3
	H403.14328V92.0326691z"/>
<path class="st0" d="M437.7917175,92.0326691h9.3007812c0.4658203,0.0000076,1.098938,0.0169296,1.8994141,0.0507889
	c0.8726196,0.0413055,1.7414551,0.1414642,2.6005859,0.2997971c0.9725037,0.178093,1.9264526,0.4458389,2.8496094,0.7998123
	c0.9602661,0.363266,1.8425293,0.9061432,2.5996094,1.5996017c0.8021851,0.7493744,1.4480591,1.6501617,1.9003906,2.6503983
	c0.5325928,1.2295303,0.7886047,2.5610275,0.75,3.9003906c0.0541687,1.4500656-0.2461853,2.8914642-0.875,4.1992111
	c-0.5333557,1.0391693-1.2836609,1.9516754-2.2001953,2.6757889c-0.8757019,0.6792984-1.866394,1.1956482-2.9248047,1.5244064
	c-0.9954224,0.3175659-2.0155334,0.5517731-3.0498047,0.7002029l10.2998047,17h-3.75l-9.9501953-16.7998123h-6.1494141v16.7998123
	h-3.3007812V92.0326691z M441.0924988,107.633255h7c1.4364319,0.0482864,2.8692322-0.1722946,4.2246094-0.6503906
	c0.9471436-0.3451385,1.8085938-0.8907852,2.5253906-1.5996094c0.5657654-0.575882,0.9856262-1.2786789,1.2246094-2.0497971
	c0.4335938-1.2980804,0.4335938-2.7019196,0-4c-0.2391663-0.7713165-0.6589966-1.4743958-1.2246094-2.0507889
	c-0.7173157-0.7081757-1.5785828-1.2537231-2.5253906-1.5996017c-1.3554993-0.4776306-2.788208-0.6981964-4.2246094-0.6503983h-7
	V107.633255z"/>
<path class="st0" d="M483.2917175,92.0326691h3.3994141l14.9003906,35.4003983h-3.7001953l-3.8496094-9.4003983h-18.75l-4,9.4003983
	h-3.4501953L483.2917175,92.0326691z M484.8415222,95.6332626l-8.25,19.3994064h16.25L484.8415222,95.6332626z"/>
<path class="st0" d="M511.6911316,92.0326691h3.3007507v32.4003983h16.5v3h-19.8007507V92.0326691z"/>
<rect x="123.3225327" y="1.25541" class="st1" width="139.4562683" height="17.9209099"/>
<rect x="123.3225327" y="37.097229" class="st1" width="139.4562683" height="17.9209099"/>
<rect y="72.9390488" class="st1" width="262.7788086" height="17.9209061"/>
<rect y="108.7808685" class="st1" width="262.7788086" height="17.9209137"/>
<path class="st2" d="M114.4281693,13.0500002l-1.240303-7.4303799c-0.4000931-2.4119999-1.331749-4.3667798-2.0690689-4.3667798
	s-1.3431931,1.98334-1.3431931,4.4067898v1.9489999c-0.006279,2.4311991-1.9755936,4.4005146-4.4067917,4.4067898h-2.3662796
	v5.3555899h7.7447433c1.9967117,0.0763187,3.6772308-1.4804659,3.7535477-3.4771738
	c0.0111847-0.2926874-0.0132141-0.5856504-0.0726547-0.8724566"/>
<path class="st2" d="M96.8638992,6.7456298H72.4922485c-0.1397629,0.0005774-0.2792664,0.012042-0.4172516,0.0342898V5.6367798
	c0-2.42344-0.6058578-4.4067798-1.3431778-4.4067798s-1.6689987,1.9547601-2.0690765,4.3496299l-1.240303,7.4303703
	c-0.4055252,1.956583,0.8518524,3.8714504,2.8084335,4.2769775c0.2868118,0.0594444,0.5797806,0.0838413,0.872467,0.0726528
	h7.3274994c0.7082748,0.0026588,1.412468-0.1073093,2.0862122-0.3257904
	c-0.2388535,1.2708549-1.3475342,2.192358-2.6406403,2.1948204H67.5881882
	c-1.486763-0.0131226-2.6813889-1.2290211-2.6682663-2.715786c0.0011826-0.1337147,0.0123215-0.2671547,0.0333328-0.3992138
	l1.0402679-6.2415609c0.2430496-1.4668112-0.7490005-2.8529277-2.2158127-3.0959783
	c-0.1441994-0.0238938-0.2901039-0.0360045-0.4362679-0.0362115H12.18612
	c-1.059721,0.0042539-2.0179148,0.6311097-2.44631,1.6003895L0.1089,22.9724407
	c-0.1624093,0.2485695-0.1414593,0.574461,0.05144,0.80019l1.8633099,2.2233696
	c0.2333751,0.2754002,0.6431999,0.315876,0.92594,0.0914497l6.5444107-5.1440792v31.3276291
	c-0.0094681,1.4867668,1.1881142,2.6997032,2.67488,2.7091789l0.0172005,0.0000496h14.5179195
	c1.486763-0.0000458,2.6919975-1.2053146,2.6919994-2.6920776V41.3712082c0-1.4867973,1.2052841-2.6920853,2.6920815-2.6920891
	h36.2431488c1.4868011,0,2.6920929,1.2052879,2.6920929,2.6920891l0,0v10.8997917
	c-0.0094757,1.4867668,1.1881027,2.6997108,2.6748734,2.7091904h0.0114975h14.5178146
	c1.4868011,0,2.6920853-1.2052841,2.6920929-2.6920815l0,0V40.5424309H83.209137
	c-2.4378815-0.0063095-4.4099426-1.9860458-4.4067917-4.4239311v-7.5275002
	c0.0027008-1.3872833,0.6593399-2.692091,1.7718582-3.5208607v9.0021877
	c0.0061951,2.4223251,1.9616623,4.3879929,4.3839264,4.4067917h11.8828735
	c2.4311981-0.006279,4.4005127-1.9755936,4.4067917-4.4067917V11.1524096
	c-0.0062866-2.4311934-1.9756012-4.4004993-4.4067917-4.4067798"/>
</svg>
