<?xml version="1.0" encoding="utf-8"?>
<svg version="1.1" id="Layer_1" xmlns="http://www.w3.org/2000/svg" xmlns:xlink="http://www.w3.org/1999/xlink" x="0px" y="0px"
	 viewBox="0 0 24 24" style="enable-background:new 0 0 24 24;" xml:space="preserve">
<g id="icomoon-ignore">
</g>
<path d="M23,12.5c0,0,0-0.1,0-0.1c0,0,0,0,0,0c0-0.1,0-0.2,0-0.2c0,0,0,0,0,0c0,0,0-0.1,0-0.1c0,0,0,0,0,0c0,0,0,0,0-0.1l-2.6-4.5
	c0,0,0,0,0-0.1c0,0,0,0,0,0c0,0,0-0.1-0.1-0.1c0,0,0,0,0,0c0,0-0.1,0-0.1-0.1l0,0l0,0c0,0-0.1,0-0.1,0c0,0,0,0,0,0c0,0-0.1,0-0.1,0
	c0,0,0,0,0,0c0,0,0,0-0.1,0h-5.2c0,0,0,0-0.1,0c0,0,0,0,0,0c0,0-0.1,0-0.1,0c0,0,0,0,0,0c0,0-0.1,0-0.1,0l0,0l0,0c0,0-0.1,0-0.1,0.1
	c0,0,0,0,0,0c0,0-0.1,0.1-0.1,0.1c0,0,0,0,0,0c0,0,0,0,0,0.1l-2.4,4.2H9.7l1.8-3.2h0.9c0.4,0,0.7-0.3,0.7-0.7c0-0.4-0.3-0.7-0.7-0.7
	h-1.2c-0.2,0-0.5,0.1-0.6,0.3l-2.4,4.2H6.2l1.8-3.2h0.9c0.4,0,0.7-0.3,0.7-0.7c0-0.4-0.3-0.7-0.7-0.7H7.7c-0.2,0-0.5,0.1-0.6,0.3
	l-2.4,4.2H2.8l1.8-3.2h0.9c0.4,0,0.7-0.3,0.7-0.7S5.8,7.1,5.5,7.1H4.3C4,7.1,3.8,7.2,3.7,7.4l-2.6,4.5c0,0,0,0,0,0.1c0,0,0,0,0,0
	c0,0,0,0.1,0,0.1c0,0,0,0,0,0c0,0,0,0.1,0,0.1l0,0l0,0c0,0,0,0.1,0,0.1c0,0,0,0,0,0c0,0,0,0.1,0,0.1c0,0,0,0,0,0c0,0,0,0,0,0.1
	l2.6,4.5c0.1,0.2,0.3,0.3,0.6,0.3h1.2c0.4,0,0.7-0.3,0.7-0.7s-0.3-0.7-0.7-0.7H4.6l-1.8-3.2h1.9l2.4,4.2c0.1,0.2,0.3,0.3,0.6,0.3
	h1.2c0.4,0,0.7-0.3,0.7-0.7s-0.3-0.7-0.7-0.7H8.1l-1.8-3.2h1.9l2.4,4.2c0.1,0.2,0.3,0.3,0.6,0.3h1.2c0.4,0,0.7-0.3,0.7-0.7
	c0-0.4-0.3-0.7-0.7-0.7h-0.9l-1.8-3.2h1.9l2.4,4.2c0,0,0,0,0,0.1c0,0,0,0,0,0c0,0,0,0.1,0.1,0.1c0,0,0,0,0,0c0,0,0.1,0,0.1,0.1l0,0
	c0,0,0,0,0,0c0,0,0,0,0.1,0c0,0,0,0,0.1,0c0,0,0,0,0,0c0.1,0,0.1,0,0.2,0l0,0l5.2,0c0.1,0,0.1,0,0.2,0c0,0,0,0,0,0c0,0,0,0,0.1,0
	c0,0,0,0,0.1,0c0,0,0,0,0,0l0,0c0,0,0.1,0,0.1-0.1c0,0,0,0,0,0c0,0,0.1-0.1,0.1-0.1c0,0,0,0,0,0c0,0,0,0,0-0.1L23,12.5
	C22.9,12.5,22.9,12.5,23,12.5C22.9,12.5,22.9,12.5,23,12.5L23,12.5z M19.7,15.4L19,14.1l0.7-1.2h1.5L19.7,15.4L19.7,15.4z
	 M13.1,12.9h1.5l0.7,1.2l-0.8,1.3L13.1,12.9z M14.6,9l0.8,1.3l-0.7,1.2h-1.5L14.6,9L14.6,9z M16.5,13.4l-0.7-1.2l0.7-1.2h1.4
	l0.7,1.2l-0.7,1.2H16.5z M17.9,9.7h-1.4l-0.8-1.3h2.9L17.9,9.7L17.9,9.7z M16.5,14.8h1.4l0.8,1.3h-2.9L16.5,14.8L16.5,14.8z
	 M19.7,11.6L19,10.4L19.7,9l1.5,2.5L19.7,11.6L19.7,11.6z"/>
</svg>
