<svg xmlns="http://www.w3.org/2000/svg" width="102.098" height="102.634" viewBox="0 0 102.098 102.634">
  <defs>
    <style>
      .cls-1 {
        fill: #065548;
      }

      .cls-2 {
        fill: #fff;
      }
    </style>
  </defs>
  <g id="api" transform="translate(-157 -30)">
    <g id="Group_2334" data-name="Group 2334" transform="translate(159.096 32.634)">
      <path id="Path_3227" data-name="Path 3227" class="cls-1" d="M163.33,24.96h5.858v11.8h5.858V24.96h5.858q0,5.314.01,10.617a2.533,2.533,0,0,0,1.949,2.672c.283.084.555.168.828.272,1.593.587,3.2,1.184,4.831,1.792,1.656-2.893,3.322-5.754,4.915-8.646a1.464,1.464,0,0,1,1.53-.859c3.018.042,6.037,0,9.065.031a1.2,1.2,0,0,0,1.31-.807,8.584,8.584,0,0,1,5.691-4.79c.3-.084.608-.2.9-.293h2.536c.21.063.419.147.639.2a8.774,8.774,0,0,1,6.519,5.838c.189.514.3,1.048.451,1.583v2.348a4.725,4.725,0,0,0-.178.545,8.808,8.808,0,0,1-16.716,1.845,1.187,1.187,0,0,0-.817-.587c-2.18-.052-4.36-.031-6.54-.01a.874.874,0,0,0-.65.283c-1.226,2.1-2.421,4.2-3.637,6.341a39.789,39.789,0,0,1,10.491,10.617,1.46,1.46,0,0,0,1.069.419c3.574.031,7.158.01,10.732.021,2.075,0,4.161.042,6.236.063v5.858c-.22-.021-.451-.063-.671-.063H208.239a4.443,4.443,0,0,0-.514.042c.933,3.888,1.855,7.745,2.8,11.727h11.549v5.858H210.534c-.975,4.045-1.9,7.9-2.83,11.78h3.846l10.522-.063v5.858c-.388.021-.776.063-1.163.063-5.24,0-10.47.01-15.71-.01a1.49,1.49,0,0,0-1.425.744,37.423,37.423,0,0,1-8.353,8.94c-.608.472-1.237.922-1.876,1.4,1.195,2.1,2.337,4.14,3.532,6.141a1.268,1.268,0,0,0,.933.451c1.981.042,3.972-.021,5.953.042a1.3,1.3,0,0,0,1.373-.88,8.789,8.789,0,0,1,15.92.147,17.639,17.639,0,0,1,.807,2.484v2.348a3.313,3.313,0,0,0-.178.545,8.775,8.775,0,0,1-16.611,1.9,1.059,1.059,0,0,0-1.174-.713c-3.123.031-6.246,0-9.369.021a1.206,1.206,0,0,1-1.216-.713c-1.509-2.693-3.05-5.366-4.59-8.038-.157-.272-.325-.535-.43-.7-2.578.9-5.052,1.771-7.63,2.672v12.555h-5.879V113.121h-5.838v11.727H163.3V123.7c0-3.542-.021-7.1.021-10.638,0-.723-.21-1.027-.912-1.184a21.94,21.94,0,0,1-2.8-.828c-1.3-.472-2.578-1.006-3.846-1.5a1.806,1.806,0,0,0-.168.189c-1.583,2.767-3.186,5.513-4.737,8.3a1.669,1.669,0,0,1-1.719,1.038c-2.955-.073-5.921,0-8.877-.042a1.334,1.334,0,0,0-1.446.912,8.734,8.734,0,0,1-9.831,4.758,8.8,8.8,0,1,1,9.9-12.293c.21.451.346.828,1.017.807,2.117-.052,4.224-.01,6.341-.031a1,1,0,0,0,.744-.272c1.237-2.086,2.421-4.2,3.616-6.3-.147-.136-.21-.21-.283-.262A39.8,39.8,0,0,1,140.2,96.038a1.731,1.731,0,0,0-1.226-.5c-5.209-.031-10.407-.021-15.616-.021h-1.195v-5.9h14.274c-.933-3.909-1.845-7.734-2.809-11.738H122.164V72h11.465c.964-3.993,1.886-7.85,2.83-11.78H122.143V54.389h1.205c5.209,0,10.407-.01,15.616.01a1.517,1.517,0,0,0,1.425-.755,36.681,36.681,0,0,1,8.049-8.688c.713-.555,1.436-1.09,2.159-1.645-1.184-2.075-2.306-4.087-3.5-6.058a1.386,1.386,0,0,0-.985-.514c-1.918-.052-3.836.021-5.754-.042a1.445,1.445,0,0,0-1.6.985,8.7,8.7,0,0,1-8.8,4.873,8.806,8.806,0,0,1-7.514-6.341,8.492,8.492,0,0,1,3.217-9.422,22.72,22.72,0,0,1,4.045-1.8h2.536c.084.052.157.136.241.147a8.876,8.876,0,0,1,6.529,5.177,1.221,1.221,0,0,0,.943.524c3.155.042,6.3.042,9.453.01a1.182,1.182,0,0,1,1.226.692c.535,1.038,1.142,2.033,1.719,3.05,1.111,1.939,2.222,3.878,3.259,5.68,2.316-.776,4.507-1.551,6.739-2.232a1.078,1.078,0,0,0,.922-1.268c-.042-3.93-.01-7.86,0-11.79Zm41.135,50.788a32.359,32.359,0,1,0-33.139,31.535c17.68.555,32.573-13.6,33.149-31.535Zm5.879-41.995a2.94,2.94,0,0,0,5.879.021,2.993,2.993,0,0,0-2.987-2.955,2.937,2.937,0,0,0-2.893,2.945Zm-79.409,79.409A2.941,2.941,0,0,0,128,116.055a3,3,0,0,0,2.966,2.987,2.944,2.944,0,0,0,2.924-3.008,2.912,2.912,0,0,0-2.945-2.872Zm79.409,2.945a2.941,2.941,0,0,0,2.893,2.935,3,3,0,0,0,2.987-2.966,2.943,2.943,0,0,0-2.914-2.924,2.9,2.9,0,0,0-2.966,2.945ZM133.881,33.764a2.944,2.944,0,0,0-2.893-2.945A2.986,2.986,0,0,0,128,33.774a2.94,2.94,0,0,0,5.879-.01Z" transform="translate(-122.081 -24.95)"/>
      <path id="Path_3228" data-name="Path 3228" class="cls-1" d="M163.223,84.875H157.5V79.1h-5.932v5.775h-5.8c-.021-.283-.063-.535-.063-.786,0-4.548-.042-9.1,0-13.645a8.788,8.788,0,0,1,17.565-.608c.189,4.894.052,9.81.052,14.714a1,1,0,0,1-.1.314Zm-5.775-11.727a30.6,30.6,0,0,0-.021-3.259A2.877,2.877,0,0,0,154.6,67.3a2.8,2.8,0,0,0-2.924,2.337,30.057,30.057,0,0,0-.031,3.511Z" transform="translate(-120.947 -23.198)"/>
      <path id="Path_3229" data-name="Path 3229" class="cls-1" d="M172.875,79.034v5.848H167.09V61.626c3.532,0,7.074-.356,10.512.084,4.538.587,7.452,4.936,6.98,9.548a8.83,8.83,0,0,1-8.6,7.776c-1,.021-2,0-3.092,0Zm.042-5.869c1.142,0,2.211.073,3.27-.021a2.872,2.872,0,0,0,2.568-2.746,2.818,2.818,0,0,0-2.337-3.029,30.059,30.059,0,0,0-3.511-.031v5.827Z" transform="translate(-119.919 -23.195)"/>
      <path id="Path_3230" data-name="Path 3230" class="cls-1" d="M187.55,61.48h5.743V84.851H187.55Z" transform="translate(-118.937 -23.195)"/>
    </g>
    <g id="Group_2335" data-name="Group 2335" transform="translate(157 30)">
      <path id="Path_3231" data-name="Path 3231" class="cls-2" d="M161.33,25.96h5.858v11.8h5.859V25.96h5.858q0,5.314.01,10.617a2.533,2.533,0,0,0,1.949,2.672c.283.084.555.168.828.272,1.593.587,3.2,1.184,4.831,1.792,1.656-2.893,3.322-5.754,4.915-8.646a1.464,1.464,0,0,1,1.53-.859c3.018.042,6.037,0,9.065.031a1.2,1.2,0,0,0,1.31-.807,8.584,8.584,0,0,1,5.691-4.79c.3-.084.608-.2.9-.293h2.536c.21.063.419.147.639.2a8.774,8.774,0,0,1,6.519,5.838c.189.514.3,1.048.451,1.583v2.348a4.736,4.736,0,0,0-.178.545,8.808,8.808,0,0,1-16.716,1.845,1.187,1.187,0,0,0-.817-.587c-2.18-.052-4.36-.031-6.54-.01a.874.874,0,0,0-.65.283c-1.226,2.1-2.421,4.2-3.637,6.341a39.789,39.789,0,0,1,10.491,10.617,1.46,1.46,0,0,0,1.069.419c3.574.031,7.158.01,10.732.021,2.075,0,4.161.042,6.236.063v5.858c-.22-.021-.451-.063-.671-.063H206.239a4.442,4.442,0,0,0-.514.042c.933,3.888,1.855,7.745,2.8,11.727h11.549v5.858H208.534c-.975,4.045-1.9,7.9-2.83,11.78h3.846l10.522-.063v5.858c-.388.021-.776.063-1.163.063-5.24,0-10.47.01-15.71-.01a1.49,1.49,0,0,0-1.425.744,37.423,37.423,0,0,1-8.353,8.94c-.608.472-1.237.922-1.876,1.4,1.195,2.1,2.337,4.14,3.532,6.141a1.268,1.268,0,0,0,.933.451c1.981.042,3.972-.021,5.953.042a1.3,1.3,0,0,0,1.373-.88,8.789,8.789,0,0,1,15.92.147,17.64,17.64,0,0,1,.807,2.484v2.348a3.314,3.314,0,0,0-.178.545,8.775,8.775,0,0,1-16.611,1.9,1.059,1.059,0,0,0-1.174-.713c-3.123.031-6.246,0-9.369.021a1.206,1.206,0,0,1-1.216-.713c-1.509-2.693-3.05-5.366-4.59-8.038-.157-.272-.325-.534-.43-.7-2.578.9-5.052,1.771-7.63,2.672v12.555h-5.879V114.121h-5.838v11.727H161.3V124.7c0-3.542-.021-7.1.021-10.638,0-.723-.21-1.027-.912-1.184a21.941,21.941,0,0,1-2.8-.828c-1.3-.472-2.578-1.006-3.846-1.5a1.8,1.8,0,0,0-.168.189c-1.583,2.767-3.186,5.513-4.737,8.3a1.669,1.669,0,0,1-1.719,1.038c-2.955-.073-5.921,0-8.877-.042a1.334,1.334,0,0,0-1.446.912,8.734,8.734,0,0,1-9.831,4.758,8.8,8.8,0,1,1,9.9-12.293c.21.451.346.828,1.017.807,2.117-.052,4.224-.01,6.341-.031a1,1,0,0,0,.744-.272c1.237-2.086,2.421-4.2,3.616-6.3-.147-.136-.21-.21-.283-.262A39.8,39.8,0,0,1,138.2,97.038a1.73,1.73,0,0,0-1.226-.5c-5.209-.031-10.407-.021-15.616-.021h-1.195v-5.9h14.274c-.933-3.909-1.845-7.734-2.809-11.738H120.164V73h11.465c.964-3.993,1.886-7.85,2.83-11.78H120.143V55.389h1.205c5.209,0,10.407-.01,15.616.01a1.517,1.517,0,0,0,1.425-.755,36.681,36.681,0,0,1,8.049-8.688c.713-.555,1.436-1.09,2.159-1.645-1.184-2.075-2.306-4.087-3.5-6.058a1.385,1.385,0,0,0-.985-.514c-1.918-.052-3.836.021-5.754-.042a1.445,1.445,0,0,0-1.6.985,8.7,8.7,0,0,1-8.8,4.873,8.806,8.806,0,0,1-7.514-6.341,8.492,8.492,0,0,1,3.217-9.422,22.721,22.721,0,0,1,4.045-1.8h2.536c.084.052.157.136.241.147a8.876,8.876,0,0,1,6.529,5.177,1.221,1.221,0,0,0,.943.524c3.155.042,6.3.042,9.453.01a1.182,1.182,0,0,1,1.226.692c.534,1.038,1.142,2.033,1.719,3.05,1.111,1.939,2.222,3.878,3.259,5.68,2.316-.776,4.507-1.551,6.739-2.232a1.078,1.078,0,0,0,.922-1.268c-.042-3.93-.01-7.86,0-11.79Zm41.135,50.788a32.358,32.358,0,1,0-33.139,31.535c17.68.555,32.573-13.6,33.149-31.535Zm5.879-41.995a2.94,2.94,0,0,0,5.879.021,2.993,2.993,0,0,0-2.987-2.955,2.937,2.937,0,0,0-2.893,2.945Zm-79.409,79.409A2.941,2.941,0,0,0,126,117.055a3,3,0,0,0,2.966,2.987,2.944,2.944,0,0,0,2.924-3.008,2.912,2.912,0,0,0-2.945-2.872Zm79.409,2.945a2.941,2.941,0,0,0,2.893,2.934,3,3,0,0,0,2.987-2.966,2.943,2.943,0,0,0-2.914-2.924,2.9,2.9,0,0,0-2.966,2.945ZM131.881,34.764a2.944,2.944,0,0,0-2.893-2.945A2.986,2.986,0,0,0,126,34.774a2.94,2.94,0,0,0,5.879-.01Z" transform="translate(-120.081 -25.95)"/>
      <path id="Path_3232" data-name="Path 3232" class="cls-2" d="M161.223,85.875H155.5V80.1h-5.932v5.775h-5.8c-.021-.283-.063-.535-.063-.786,0-4.548-.042-9.1,0-13.645a8.788,8.788,0,0,1,17.565-.608c.189,4.894.052,9.81.052,14.714a1,1,0,0,1-.1.314Zm-5.775-11.727a30.608,30.608,0,0,0-.021-3.259A2.877,2.877,0,0,0,152.6,68.3a2.8,2.8,0,0,0-2.924,2.337,30.061,30.061,0,0,0-.031,3.511Z" transform="translate(-118.947 -24.198)"/>
      <path id="Path_3233" data-name="Path 3233" class="cls-2" d="M170.875,80.034v5.848H165.09V62.626c3.532,0,7.074-.356,10.512.084,4.538.587,7.452,4.936,6.98,9.548a8.83,8.83,0,0,1-8.6,7.776c-1,.021-2,0-3.092,0Zm.042-5.869c1.142,0,2.211.073,3.27-.021a2.872,2.872,0,0,0,2.568-2.746,2.818,2.818,0,0,0-2.337-3.029,30.058,30.058,0,0,0-3.511-.031v5.827Z" transform="translate(-117.919 -24.195)"/>
      <path id="Path_3234" data-name="Path 3234" class="cls-2" d="M185.55,62.48h5.743V85.851H185.55Z" transform="translate(-116.937 -24.195)"/>
    </g>
  </g>
</svg>
