<svg xmlns="http://www.w3.org/2000/svg" width="103.049" height="86.316" viewBox="0 0 103.049 86.316">
  <defs>
    <style>
      .cls-1 {
        fill: #003f58;
      }

      .cls-2 {
        fill: #fff;
      }
    </style>
  </defs>
  <g id="concepts" transform="translate(-144.951 -38)">
    <g id="Group_2358" data-name="Group 2358" transform="translate(144.951 40.885)">
      <path id="Path_3273" data-name="Path 3273" class="cls-1" d="M258.42,35.228V97.34c-.835,1.651-2.069,2.531-4.092,1.987v1.161c0,2.894.009,5.8,0,8.692a2.941,2.941,0,0,1-3.756,3.148Q234.8,109.4,219.035,106.44a1.2,1.2,0,0,0-1.515.708,10.645,10.645,0,0,1-18.463-.045,1,1,0,0,0-1.243-.563q-14.943,2.885-29.877,5.743c-2.64.508-4.155-.7-4.164-3.411-.009-2.931,0-5.861,0-8.792v-1.1c-.354.082-.581.118-.8.181-2.994.862-4.555-.327-4.555-3.466V36.316c0-1.887.653-2.912,2.286-3.43a78.619,78.619,0,0,1,24.669-3.847,79.448,79.448,0,0,1,22.21,3.348,3.227,3.227,0,0,0,1.688,0A81.508,81.508,0,0,1,227.1,29.2,79.618,79.618,0,0,1,255.607,32.7,3.748,3.748,0,0,1,258.42,35.228Zm-53,57.349V38.022a3.852,3.852,0,0,0-.445-.191,76.434,76.434,0,0,0-14.371-2.6,73.283,73.283,0,0,0-25.222,2.45c-.817.227-1.052.535-1.052,1.361q.041,26.17.018,52.341v1.216A78.174,78.174,0,0,1,205.417,92.576Zm47.024-54.555a3.912,3.912,0,0,0-.445-.2,77.207,77.207,0,0,0-14.861-2.64,73.192,73.192,0,0,0-24.732,2.5c-.817.227-1.043.535-1.043,1.361q.041,26.17.018,52.341v1.207a78.327,78.327,0,0,1,41.063-.018V38.022ZM248.349,105.9c.027-.345.064-.6.064-.844,0-2.177-.018-4.355.018-6.541.009-.644-.2-.871-.844-1.016a67.842,67.842,0,0,0-17.529-1.7c-3.684.163-7.358.626-11.033.953V100.4c9.79,1.833,19.516,3.656,29.314,5.489Zm-50.78-8.964a69.325,69.325,0,0,0-27.772.49v8.429c.354-.045.644-.073.934-.127q11.922-2.286,23.843-4.582c1.034-.2,2.459-.191,2.949-.844.517-.7.127-2.06.127-3.13a.966.966,0,0,0-.082-.218Zm15.46,1.17c-3.212,1.778-6.278,1.506-9.436.018,0,1.6-.082,2.931.018,4.246a4.721,4.721,0,0,0,4.763,4.155,4.672,4.672,0,0,0,4.636-4.164c.091-1.3.018-2.595.018-4.255Z" transform="translate(-158.42 -29.039)"/>
      <path id="Path_3274" data-name="Path 3274" class="cls-1" d="M186.27,61.9a32.182,32.182,0,0,1,10.579,1.8,2.977,2.977,0,0,1,2.005,3.792,2.9,2.9,0,0,1-3.774,1.842,26.116,26.116,0,0,0-12.6-1.152c-1.7.263-3.348.78-5.017,1.2a2.965,2.965,0,1,1-1.579-5.716A32.967,32.967,0,0,1,186.27,61.89Z" transform="translate(-159.832 -32.085)"/>
      <path id="Path_3275" data-name="Path 3275" class="cls-1" d="M186.951,85.776a28.019,28.019,0,0,0-8.919,1.306,4.989,4.989,0,0,1-2.187.2,2.748,2.748,0,0,1-2.187-2.649A2.713,2.713,0,0,1,175.6,81.7a53.394,53.394,0,0,1,7-1.651,29.808,29.808,0,0,1,14.036,1.479c1.842.635,2.74,2.159,2.214,3.838a2.968,2.968,0,0,1-3.947,1.824,24.357,24.357,0,0,0-7.948-1.406Z" transform="translate(-159.833 -33.743)"/>
      <path id="Path_3276" data-name="Path 3276" class="cls-1" d="M186.5,43.97a33.453,33.453,0,0,1,10.434,1.86,2.957,2.957,0,0,1,1.923,3.756,2.892,2.892,0,0,1-3.665,1.887,30.247,30.247,0,0,0-7.921-1.488,27.043,27.043,0,0,0-8.846,1.207,6.616,6.616,0,0,1-1.987.4,2.909,2.909,0,0,1-2.731-2.368,2.712,2.712,0,0,1,1.733-3.23c2.323-.69,4.7-1.243,7.086-1.715a32.15,32.15,0,0,1,3.983-.308Z" transform="translate(-159.832 -30.424)"/>
      <path id="Path_3277" data-name="Path 3277" class="cls-1" d="M238.281,79.779a32.458,32.458,0,0,1,10.425,1.815,2.974,2.974,0,0,1,1.978,3.811,2.9,2.9,0,0,1-3.783,1.815,26.06,26.06,0,0,0-12.312-1.189c-1.787.272-3.538.807-5.308,1.243a2.946,2.946,0,0,1-3.711-3.557,3.029,3.029,0,0,1,2.168-2.177,33.992,33.992,0,0,1,10.543-1.769Z" transform="translate(-164.638 -33.743)"/>
      <path id="Path_3278" data-name="Path 3278" class="cls-1" d="M250.82,48.619a2.888,2.888,0,0,1-3.52,2.894c-2.223-.463-4.418-1.1-6.659-1.388a25.188,25.188,0,0,0-10.216,1.034,7.7,7.7,0,0,1-2.277.426,2.829,2.829,0,0,1-2.64-2.568,2.767,2.767,0,0,1,1.942-3.121,48.116,48.116,0,0,1,6.714-1.6,30.456,30.456,0,0,1,14.417,1.47,2.951,2.951,0,0,1,2.241,2.84Z" transform="translate(-164.638 -30.427)"/>
      <path id="Path_3279" data-name="Path 3279" class="cls-1" d="M238.118,61.9a32.114,32.114,0,0,1,10.561,1.8,2.989,2.989,0,0,1,2.014,3.792,2.9,2.9,0,0,1-3.774,1.842,26.116,26.116,0,0,0-12.6-1.152c-1.724.272-3.411.8-5.108,1.225a2.947,2.947,0,0,1-3.62-3.647,3,3,0,0,1,2.132-2.087,32.748,32.748,0,0,1,10.4-1.76Z" transform="translate(-164.637 -32.086)"/>
    </g>
    <g id="Group_2359" data-name="Group 2359" transform="translate(148 38)">
      <path id="Path_3280" data-name="Path 3280" class="cls-2" d="M260.78,34.048V96.16c-.835,1.651-2.069,2.531-4.092,1.987v1.161c0,2.894.009,5.8,0,8.692a2.941,2.941,0,0,1-3.756,3.148q-15.773-2.926-31.537-5.888a1.2,1.2,0,0,0-1.515.708,10.645,10.645,0,0,1-18.463-.045,1,1,0,0,0-1.243-.563q-14.943,2.885-29.877,5.743c-2.64.508-4.155-.7-4.164-3.411-.009-2.931,0-5.861,0-8.792V97.8c-.354.082-.581.118-.8.181-2.994.862-4.555-.327-4.555-3.466V35.136c0-1.887.653-2.912,2.286-3.43a78.619,78.619,0,0,1,24.669-3.847,79.448,79.448,0,0,1,22.21,3.348,3.227,3.227,0,0,0,1.688,0,81.508,81.508,0,0,1,17.828-3.185,79.618,79.618,0,0,1,28.507,3.493,3.748,3.748,0,0,1,2.813,2.531Zm-53,57.349V36.842a3.854,3.854,0,0,0-.445-.191,76.434,76.434,0,0,0-14.371-2.6,73.283,73.283,0,0,0-25.222,2.45c-.817.227-1.052.535-1.052,1.361q.041,26.17.018,52.341v1.216A78.174,78.174,0,0,1,207.777,91.4ZM254.8,36.842a3.911,3.911,0,0,0-.445-.2A77.207,77.207,0,0,0,239.5,34a73.192,73.192,0,0,0-24.732,2.5c-.817.227-1.043.535-1.043,1.361q.041,26.17.018,52.341v1.207a78.327,78.327,0,0,1,41.063-.018Zm-4.092,67.873c.027-.345.064-.6.064-.844,0-2.177-.018-4.355.018-6.541.009-.644-.2-.871-.844-1.016a67.842,67.842,0,0,0-17.529-1.7c-3.684.163-7.358.626-11.032.953v3.647c9.789,1.833,19.516,3.656,29.314,5.489Zm-50.78-8.964a69.325,69.325,0,0,0-27.772.49v8.429c.354-.045.644-.073.935-.127q11.922-2.286,23.843-4.582c1.034-.2,2.459-.191,2.949-.844.517-.7.127-2.06.127-3.13a.966.966,0,0,0-.082-.218Zm15.46,1.17c-3.212,1.778-6.278,1.506-9.436.018,0,1.6-.082,2.931.018,4.246a4.721,4.721,0,0,0,4.763,4.155,4.672,4.672,0,0,0,4.636-4.164C215.462,99.88,215.389,98.582,215.389,96.922Z" transform="translate(-160.78 -27.859)"/>
      <path id="Path_3281" data-name="Path 3281" class="cls-2" d="M188.63,60.719a32.182,32.182,0,0,1,10.579,1.8,2.977,2.977,0,0,1,2.005,3.792,2.9,2.9,0,0,1-3.774,1.842A26.116,26.116,0,0,0,184.838,67c-1.7.263-3.348.78-5.017,1.2a2.965,2.965,0,1,1-1.579-5.716A32.967,32.967,0,0,1,188.63,60.71Z" transform="translate(-162.192 -30.905)"/>
      <path id="Path_3282" data-name="Path 3282" class="cls-2" d="M189.311,84.606a28.019,28.019,0,0,0-8.919,1.306,4.989,4.989,0,0,1-2.187.2,2.748,2.748,0,0,1-2.187-2.649,2.713,2.713,0,0,1,1.942-2.931,53.4,53.4,0,0,1,7-1.651A29.808,29.808,0,0,1,199,80.36c1.842.635,2.74,2.159,2.214,3.838a2.968,2.968,0,0,1-3.947,1.824,24.357,24.357,0,0,0-7.948-1.406Z" transform="translate(-162.193 -32.564)"/>
      <path id="Path_3283" data-name="Path 3283" class="cls-2" d="M188.857,42.79a33.452,33.452,0,0,1,10.434,1.86,2.957,2.957,0,0,1,1.923,3.756,2.892,2.892,0,0,1-3.665,1.887,30.247,30.247,0,0,0-7.921-1.488,27.043,27.043,0,0,0-8.846,1.207,6.616,6.616,0,0,1-1.987.4,2.909,2.909,0,0,1-2.731-2.368,2.712,2.712,0,0,1,1.733-3.23c2.323-.69,4.7-1.243,7.086-1.715a32.15,32.15,0,0,1,3.983-.308Z" transform="translate(-162.192 -29.244)"/>
      <path id="Path_3284" data-name="Path 3284" class="cls-2" d="M240.641,78.6a32.458,32.458,0,0,1,10.425,1.815,2.974,2.974,0,0,1,1.978,3.811,2.9,2.9,0,0,1-3.783,1.815,26.06,26.06,0,0,0-12.312-1.189c-1.787.272-3.538.807-5.308,1.243a2.946,2.946,0,0,1-3.711-3.557,3.029,3.029,0,0,1,2.168-2.177,33.992,33.992,0,0,1,10.543-1.769Z" transform="translate(-166.998 -32.563)"/>
      <path id="Path_3285" data-name="Path 3285" class="cls-2" d="M253.18,47.439a2.888,2.888,0,0,1-3.52,2.894c-2.223-.463-4.418-1.1-6.659-1.388a25.188,25.188,0,0,0-10.216,1.034,7.7,7.7,0,0,1-2.277.426,2.829,2.829,0,0,1-2.64-2.568,2.767,2.767,0,0,1,1.942-3.121,48.118,48.118,0,0,1,6.714-1.6,30.457,30.457,0,0,1,14.417,1.47,2.951,2.951,0,0,1,2.241,2.84Z" transform="translate(-166.998 -29.247)"/>
      <path id="Path_3286" data-name="Path 3286" class="cls-2" d="M240.478,60.72a32.114,32.114,0,0,1,10.561,1.8,2.989,2.989,0,0,1,2.014,3.792,2.9,2.9,0,0,1-3.774,1.842A26.116,26.116,0,0,0,236.676,67c-1.724.272-3.411.8-5.108,1.225a2.947,2.947,0,0,1-3.62-3.647,3,3,0,0,1,2.132-2.087,32.748,32.748,0,0,1,10.4-1.76Z" transform="translate(-166.997 -30.906)"/>
    </g>
  </g>
</svg>
