<?xml version="1.0" encoding="UTF-8"?><svg id="a" xmlns="http://www.w3.org/2000/svg" viewBox="0 0 500 500"><g id="b"><path id="c" d="M474.96357,305.2449l-78.23344-106.21121v-18.68469l7.87221-7.86811c19.02467-18.59241,19.37507-49.08707,.78266-68.11173-2.60402-2.66455-5.5084-5.01797-8.65487-7.01305v-30.22404c0-4.67655-3.79109-8.46765-8.46764-8.46766h-94.9429l-35.06972-47.61928c-2.75724-3.76885-8.04769-4.58891-11.81654-1.83166l-.02257,.01658-67.08422,49.41794H96.02975c-4.67656,0-8.46767,3.79108-8.46767,8.46764l.00002,.01644v59.13398L11.1191,182.56653c-3.76468,2.7711-4.57164,8.06868-1.80277,11.83501l78.24576,106.2071v131.91395c0,4.67655,3.79111,8.46764,8.46766,8.46764h94.93467l35.06974,47.60697c2.7667,3.76471,8.06146,4.57379,11.82619,1.80707l.01703-.01253,67.0719-49.40151h83.31322c4.67655,0,8.46764-3.79109,8.46764-8.46764v-59.13399l76.43477-56.30868c3.76362-2.77204,4.56743-8.07025,1.79538-11.83387l-.00085-.00113m-78.22931-149.82254v-34.78639c6.88643,10.57599,6.88643,24.21861,0,34.7946M249.63848,27.90653l22.64751,30.74146h-64.39035l41.74284-30.74146ZM27.98871,191.17792l59.57338-43.88645v124.75628L27.98871,191.17792ZM234.64965,471.73169l-22.64749-30.74146h64.39032l-41.74283,30.74146Zm-130.15225-47.68088V75.58741H379.79481v97.73533l-58.5796,58.5796c-7.06461,6.92536-18.40571,6.81248-25.33109-.25213-6.82888-6.96618-6.82797-18.11595,.00204-25.08103l56.2594-56.25941c1.94922-1.87529,5.03187-1.87529,6.98108,0,1.92779,1.9211,1.93321,5.04122,.01209,6.96899l-.01209,.01211-51.14676,51.13857c-3.27825,3.33516-3.2321,8.69639,.10305,11.97463,3.29463,3.23843,8.57695,3.23843,11.87159,0l51.14679-51.14269c8.54118-8.53179,8.54879-22.37216,.01701-30.91334l-.01701-.01701c-8.6529-8.271-22.28155-8.271-30.93445,0l-56.2594,56.25941c-13.78496,13.43071-14.07215,35.49336-.64146,49.27832,13.43071,13.78496,35.49336,14.07215,49.27832,.64144,.21659-.21103,.43045-.42485,.64146-.64144l46.60904-46.58853v226.7706H104.4974Zm292.23273-71.69584v-124.76448l59.57339,80.89857-59.57339,43.86591Z"/><path id="d" d="M137.64117,147.04508h113.42227c4.67768,0,8.46971-3.79202,8.46971-8.46971s-3.79203-8.46971-8.46971-8.46971h-113.42227c-4.67769,0-8.46971,3.79202-8.46971,8.46971s3.79202,8.46971,8.46971,8.46971"/><path id="e" d="M137.64117,221.20483h113.42227c4.67768,0,8.46971-3.79203,8.46971-8.46971s-3.79203-8.46971-8.46971-8.46971h-113.42227c-4.67769,0-8.46971,3.79203-8.46971,8.46971s3.79202,8.46971,8.46971,8.46971"/><path id="f" d="M346.28145,278.42929H137.63707c-4.67769,0-8.46971,3.79203-8.46971,8.46971s3.79202,8.46971,8.46971,8.46971h208.64439c4.67768,0,8.46971-3.79203,8.46971-8.46971s-3.79203-8.46971-8.46971-8.46971"/><path id="g" d="M346.28145,352.60136H137.63707c-4.67769,0-8.46973,3.79203-8.46973,8.46974s3.79203,8.46971,8.46973,8.46971h208.64439c4.67768,0,8.46971-3.79203,8.46971-8.46971s-3.79203-8.46971-8.46971-8.46971"/></g></svg>