<svg xmlns="http://www.w3.org/2000/svg" width="60" height="60.015" viewBox="0 0 60 60.015">
  <defs>
    <style>
      .cls-1 {
        fill: #232323;
      }
    </style>
  </defs>
  <path id="guides" class="cls-1" d="M47.318,61.534h-.587a1.745,1.745,0,0,1-.809-1.211Q40.116,38.017,34.3,15.716c-.043-.165-.1-.326-.144-.489l-.133.034v.752q0,21.977.008,43.952a1.662,1.662,0,0,1-.659,1.569H3V10.193A1.559,1.559,0,0,1,4.5,9.5c4.591.015,9.182.008,13.773.008h.739V8.8q0-2.931,0-5.86c0-1.12.307-1.423,1.429-1.423H32.455c1.307,0,1.561.259,1.561,1.59V13.98A5.919,5.919,0,0,1,35,13.5Q42.23,11.548,49.47,9.632c.918-.244,1.356.022,1.6.941Q56.983,33.241,62.9,55.911c.264,1.013.039,1.4-.963,1.672-3.032.814-6.068,1.617-9.1,2.434-1.842.5-3.68,1.011-5.519,1.518ZM21.065,14.553V49.5H31.972V14.553ZM5.04,16.546V46.5H18.977V16.546H5.039ZM57.68,43.852c-1.946-7.463-3.866-14.832-5.8-22.252L38.811,25.084c1.944,7.46,3.87,14.844,5.8,22.252L57.68,43.852ZM18.966,59.509V53.571H5.029v5.938ZM50.4,15.92c-.382-1.445-.739-2.8-1.1-4.175l-13.066,3.49c.373,1.429.723,2.763,1.091,4.168L50.4,15.92Zm9.313,35.727L46.648,55.131l1.091,4.175,13.068-3.488c-.373-1.423-.727-2.772-1.092-4.169Zm-1.532-5.861L45.121,49.273c.349,1.339.681,2.613,1.022,3.922l13.068-3.484C58.86,48.369,58.527,47.1,58.183,45.787ZM31.975,7.484V3.549H21.06V7.484ZM21.045,59.5H31.967v-3.92H21.045ZM5.025,14.483H18.959V11.549H5.025ZM18.978,48.572H5.024V51.5H18.977V48.572Zm13-39.021H21.059v2.931H31.975V9.551ZM50.9,17.857l-13.07,3.487c.169.627.322,1.2.485,1.8l13.055-3.488c-.162-.622-.3-1.164-.471-1.8ZM31.968,53.51V51.576h-10.9V53.51ZM7,24.5c0-1.211,0-2.422,0-3.632,0-.975.337-1.329,1.285-1.334q3.721-.012,7.442,0c.94,0,1.276.332,1.278,1.27q.014,3.719,0,7.44c0,.952-.359,1.285-1.332,1.286q-3.663.006-7.324,0c-.99,0-1.344-.353-1.348-1.34-.005-1.23,0-2.461,0-3.69Zm2.032-2.931V27.5h5.937V21.567H9.027Z" transform="translate(-3 -1.521)"/>
</svg>
