<?xml version="1.0" encoding="utf-8"?>
<!-- Generator: Adobe Illustrator 27.0.1, SVG Export Plug-In . SVG Version: 6.00 Build 0)  -->
<svg version="1.1" id="Layer_1" xmlns="http://www.w3.org/2000/svg" xmlns:xlink="http://www.w3.org/1999/xlink" x="0px" y="0px"
	 viewBox="0 0 255.1 90.7" style="enable-background:new 0 0 255.1 90.7;" xml:space="preserve">
<style type="text/css">
	.st0{display:none;}
	.st1{display:inline;}
	.st2{fill:#FFFFFF;}
</style>
<g id="padding" class="st0">
	<path class="st1" d="M118.4-0.1h9.4c4.5,0,7.5,2.2,7.5,6.4c0,3.4-2.3,5.5-4.6,6.2c0.7,0.6,1.2,1.4,1.6,2.2c0.9,1.9,1.6,4.1,3.6,4.1
		c0.5,0,0.9-0.2,0.9-0.2l-0.4,4c0,0-1.2,0.3-2.3,0.3c-2.7,0-4.3-1-5.9-4.7c-0.7-1.6-1.6-4.5-2.9-4.5H124v9h-5.7L118.4-0.1 M124,4
		v5.6h2c1.6,0,3.5-0.5,3.5-2.9c0-2-1.3-2.7-2.8-2.7L124,4L124,4z"/>
	<g class="st1">
		<path d="M0,54.4V45c0-4.5,2.2-7.5,6.4-7.5c3.4,0,5.5,2.3,6.2,4.6c0.6-0.7,1.4-1.2,2.2-1.6c1.9-1,4.1-1.6,4.1-3.6
			c0-0.5-0.2-0.9-0.2-0.9l4,0.4c0,0,0.3,1.2,0.3,2.3c0,2.7-1,4.3-4.7,5.8c-1.6,0.7-4.5,1.6-4.5,2.9v1.3h9v5.7H0 M4.1,48.7h5.6v-2
			c0-1.6-0.5-3.5-2.9-3.5c-2,0-2.7,1.3-2.7,2.8L4.1,48.7L4.1,48.7z"/>
		<path d="M232.2,54.4V45c0-4.5,2.2-7.5,6.4-7.5c3.4,0,5.5,2.3,6.2,4.6c0.6-0.7,1.4-1.2,2.2-1.6c1.9-1,4.1-1.6,4.1-3.6
			c0-0.5-0.2-0.9-0.2-0.9l4,0.4c0,0,0.3,1.2,0.3,2.3c0,2.7-1.1,4.3-4.7,5.8c-1.6,0.7-4.5,1.6-4.5,2.9v1.3h9v5.7H232.2 M236.3,48.7
			h5.6v-2c0-1.6-0.5-3.5-2.9-3.5c-2,0-2.7,1.3-2.7,2.8L236.3,48.7L236.3,48.7z"/>
	</g>
	<path class="st1" d="M118.4,67.7h9.4c4.5,0,7.5,2.2,7.5,6.4c0,3.4-2.3,5.5-4.6,6.2c0.7,0.6,1.2,1.3,1.6,2.2
		c0.9,1.9,1.6,4.1,3.6,4.1c0.5,0,0.9-0.2,0.9-0.2l-0.4,4c0,0-1.2,0.3-2.3,0.3c-2.7,0-4.3-1.1-5.9-4.7c-0.7-1.6-1.6-4.5-2.9-4.5H124
		v9h-5.7L118.4,67.7 M124,71.8v5.6h2c1.6,0,3.5-0.5,3.5-2.9c0-2-1.3-2.7-2.8-2.7L124,71.8L124,71.8z"/>
</g>
<g id="logo">
	<g>
		<path class="st2" d="M88.8,29.6l-0.7-4.3c-0.2-1.4-0.8-2.5-1.2-2.5c-0.4,0-0.8,1.1-0.8,2.5v1.1c0,1.4-1.1,2.5-2.5,2.5h-1.1
			c-0.1,0-0.2,0-0.2,0v3.1c0.1,0,0.2,0,0.2,0h4.2C88.1,32.1,89,31,88.8,29.6"/>
		<path class="st2" d="M78.7,26h-6.8c-0.1,0-0.1,0-0.2,0h-7c-0.1,0-0.2,0-0.2,0v-0.6c0-1.4-0.3-2.5-0.8-2.5c-0.4,0-1,1.1-1.2,2.5
			l-0.7,4.3c-0.2,1.4,0.7,2.5,2.1,2.5h4.2c0.4,0,0.8-0.1,1.2-0.2c-0.1,0.7-0.8,1.3-1.5,1.3h-5.9c-1,0-1.7-0.9-1.5-1.8l0.6-3.6
			c0.2-0.9-0.6-1.8-1.5-1.8H30c-0.6,0-1.2,0.4-1.4,0.9L23,35.3c-0.1,0.1-0.1,0.3,0,0.5l1.1,1.3c0.1,0.2,0.4,0.2,0.5,0l3.8-3v18
			c0,0.9,0.7,1.5,1.5,1.5h8.4c0.9,0,1.5-0.7,1.5-1.5v-6.3c0-0.8,0.7-1.5,1.5-1.5h20.9c0.9,0,1.5,0.7,1.5,1.5v6.3
			c0,0.9,0.7,1.5,1.5,1.5h8.3c0.8,0,1.6-0.7,1.6-1.5v-6.8h-4.4c-1.4,0-2.5-1.1-2.5-2.5v-4.3c0-0.8,0.4-1.6,1-2v5.2
			c0,1.4,1.1,2.5,2.5,2.5h6.8c1.4,0,2.5-1.1,2.5-2.5V28.5C81.2,27.1,80.1,26,78.7,26"/>
	</g>
	<g>
		<g id="Layer_1_00000116952799159011174390000017168342625225811855_">
			<g>
				<path class="st2" d="M223.4,67.6c-1,0-1.7-0.8-1.7-1.7v-5.2c0-1,0.8-1.7,1.7-1.7h4c0.3,0,0.6,0.2,0.6,0.6s-0.2,0.6-0.6,0.6h-4
					c-0.3,0-0.6,0.3-0.6,0.6v2h3.9c0.3,0,0.5,0.2,0.5,0.5c0,0.3-0.2,0.5-0.5,0.5h-3.9v2.1c0,0.3,0.3,0.6,0.6,0.6h4
					c0.3,0,0.6,0.2,0.6,0.6s-0.2,0.6-0.6,0.6L223.4,67.6L223.4,67.6z M205.6,67.7c-1.1,0-2-0.3-2.6-0.9c-0.6-0.6-0.9-1.4-0.9-2.6
					v-4.8c0-0.4,0.3-0.7,0.6-0.7s0.6,0.3,0.6,0.7v4.6c0,0.8,0.2,1.5,0.5,1.9s0.9,0.6,1.7,0.6s1.3-0.2,1.7-0.6s0.5-1,0.5-1.9v-4.6
					c0-0.4,0.3-0.7,0.6-0.7s0.6,0.3,0.6,0.7v4.8c0,1.1-0.3,2-0.9,2.6C207.6,67.4,206.7,67.7,205.6,67.7 M215.4,67.7
					c-1.5,0-2.6-0.4-3.3-1.2c-0.2-0.2-0.2-0.6,0-0.8l0,0l0,0c0.1-0.1,0.3-0.2,0.4-0.2c0.2,0,0.3,0.1,0.4,0.2
					c0.2,0.2,0.4,0.4,0.7,0.6c0.4,0.2,1,0.4,1.7,0.4c0.6,0,1.1-0.1,1.5-0.3c0.4-0.2,0.6-0.6,0.6-1c0-0.3-0.2-0.6-0.5-0.8
					c-0.3-0.2-0.9-0.4-1.7-0.5c-0.8-0.2-1.4-0.3-1.9-0.5c-0.5-0.2-0.8-0.5-1-0.8c-0.2-0.3-0.3-0.7-0.3-1.2c0-0.5,0.1-0.9,0.4-1.3
					c0.3-0.4,0.7-0.7,1.2-0.9c0.5-0.2,1.1-0.3,1.8-0.3c0.8,0,1.5,0.1,2,0.4c0.4,0.2,0.7,0.5,1,0.8c0.2,0.2,0.2,0.6-0.1,0.9
					c-0.1,0.1-0.3,0.2-0.4,0.2c-0.2,0-0.4-0.1-0.5-0.2c-0.2-0.2-0.4-0.4-0.6-0.5c-0.4-0.2-0.9-0.4-1.5-0.4c-0.6,0-1.1,0.1-1.4,0.4
					c-0.4,0.2-0.5,0.6-0.5,1c0,0.4,0.2,0.7,0.5,0.9c0.3,0.2,0.9,0.4,1.8,0.5c0.8,0.1,1.4,0.3,1.9,0.5c0.4,0.2,0.8,0.5,1,0.8
					c0.2,0.3,0.3,0.7,0.3,1.2c0,0.5-0.1,0.9-0.4,1.3c-0.3,0.4-0.7,0.7-1.2,0.9C216.7,67.6,216.1,67.7,215.4,67.7 M195.9,67.7
					c-1.5,0-2.6-0.4-3.3-1.2c-0.2-0.2-0.2-0.6,0-0.8l0,0c0.1-0.1,0.3-0.2,0.4-0.2c0.2,0,0.3,0.1,0.4,0.2c0.2,0.2,0.4,0.4,0.7,0.6
					c0.4,0.2,1,0.4,1.7,0.4c0.6,0,1.1-0.1,1.5-0.3c0.4-0.2,0.6-0.6,0.6-1c0-0.3-0.2-0.6-0.5-0.8c-0.3-0.2-0.9-0.4-1.7-0.5
					c-0.8-0.2-1.4-0.3-1.9-0.5c-0.5-0.2-0.8-0.5-1-0.8c-0.2-0.3-0.3-0.7-0.3-1.2c0-0.5,0.1-0.9,0.4-1.3c0.3-0.4,0.7-0.7,1.2-0.9
					c0.5-0.2,1.1-0.3,1.8-0.3c0.8,0,1.5,0.1,2,0.4c0.4,0.2,0.7,0.5,1,0.8c0.2,0.2,0.2,0.6-0.1,0.9c-0.1,0.1-0.3,0.2-0.4,0.2
					c-0.2,0-0.4-0.1-0.5-0.2c-0.2-0.2-0.4-0.4-0.6-0.5c-0.4-0.2-0.9-0.4-1.5-0.4c-0.6,0-1.1,0.1-1.4,0.4c-0.4,0.2-0.5,0.6-0.5,1
					c0,0.4,0.2,0.7,0.5,0.9c0.3,0.2,0.9,0.4,1.8,0.5c0.8,0.1,1.4,0.3,1.9,0.5c0.4,0.2,0.8,0.5,1,0.8c0.2,0.3,0.3,0.7,0.3,1.2
					c0,0.5-0.1,0.9-0.4,1.3c-0.3,0.4-0.7,0.7-1.2,0.9C197.1,67.6,196.5,67.7,195.9,67.7"/>
			</g>
		</g>
		<g>
			<path class="st2" d="M175.8,67.7h-3.3v-8.9h3.2c1.9,0,2.8,1,2.8,2.2c0,1.1-0.7,1.8-1.6,2c1,0.2,1.8,1.1,1.8,2.2
				C178.7,66.7,177.6,67.7,175.8,67.7z M175.6,59.8h-1.9v2.9h1.9c1.1,0,1.7-0.5,1.7-1.4C177.3,60.3,176.7,59.8,175.6,59.8z
				 M175.7,63.6h-2v3.1h2.1c1.1,0,1.8-0.6,1.8-1.5C177.5,64.2,176.8,63.6,175.7,63.6z"/>
			<path class="st2" d="M180.2,58.8h1.3l2.2,4.5l2.2-4.5h1.3l-2.9,5.5v3.3h-1.2v-3.3L180.2,58.8z"/>
		</g>
	</g>
	<path class="st2" d="M94.4,26.8h9.4c4.5,0,7.5,2.2,7.5,6.4c0,3.4-2.3,5.5-4.6,6.2c0.7,0.6,1.2,1.3,1.6,2.2c0.9,1.9,1.6,4.1,3.6,4.1
		c0.5,0,0.9-0.2,0.9-0.2l-0.4,4c0,0-1.2,0.3-2.3,0.3c-2.7,0-4.3-1-5.8-4.7c-0.7-1.6-1.6-4.5-2.9-4.5h-1.3v9h-5.7V26.8 M100.1,30.9
		v5.6h2c1.6,0,3.5-0.5,3.5-2.9c0-2-1.3-2.7-2.8-2.7L100.1,30.9L100.1,30.9z"/>
	<path class="st2" d="M118.9,26.8h5.7l7.7,22.8h-5.7l-1.4-4.3h-7.7l-1.4,4.3h-4.9L118.9,26.8 M118.9,41.2h4.9l-1.6-4.8
		c-0.5-1.6-0.8-3.9-0.8-3.9h-0.1c0,0-0.3,2.3-0.8,3.9L118.9,41.2z"/>
	<path class="st2" d="M132.6,26.8h6.1l6,11.3c0.5,1,1.2,2.7,1.7,4.1h0.1c-0.1-1.3-0.2-3.1-0.2-4.4v-11h4.6v22.8H145l-6.2-11.3
		c-0.6-1-1.2-2.5-1.7-3.7H137c0.1,1.3,0.3,2.8,0.3,4.1v11h-4.6V26.8"/>
	<path class="st2" d="M152.1,38.1c0-8.2,4.1-11.7,10.4-11.7c6.7,0,9.3,3.6,8.6,8.6l-5.3,0.5c0.6-3.6-0.9-5.1-3.4-5.1
		c-2.5,0-4.5,1.8-4.5,7.7c0,6.2,2.2,7.8,4.6,7.8c2.3,0,4.2-1.5,3.8-4.4l4.9,0.5c0.4,4.6-3,8-9.1,8C156.1,50.1,152.1,46.4,152.1,38.1
		"/>
	<polyline class="st2" points="172.5,26.8 178.1,26.8 178.1,35.5 185.1,35.5 185.1,26.8 190.7,26.8 190.7,49.7 185.1,49.7 185.1,40 
		178.1,40 178.1,49.7 172.5,49.7 172.5,26.8 	"/>
	<polyline class="st2" points="193,26.8 208.1,26.8 208.1,31 198.6,31 198.6,35.9 206.6,35.9 206.6,40.1 198.6,40.1 198.6,45.5 
		208.5,45.5 208.5,49.7 193,49.7 193,26.8 	"/>
	<path class="st2" d="M209.5,26.8h9.4c4.5,0,7.5,2.2,7.5,6.4c0,3.4-2.3,5.5-4.6,6.2c0.7,0.6,1.2,1.3,1.6,2.2
		c0.9,1.9,1.6,4.1,3.6,4.1c0.5,0,0.9-0.2,0.9-0.2l-0.4,4c0,0-1.2,0.3-2.3,0.3c-2.7,0-4.3-1-5.9-4.7c-0.7-1.6-1.6-4.5-2.9-4.5h-1.3v9
		h-5.6L209.5,26.8 M215.2,30.9v5.6h2c1.6,0,3.5-0.5,3.5-2.9c0-2-1.3-2.7-2.8-2.7L215.2,30.9L215.2,30.9z"/>
	<path class="st2" d="M228.5,28.3c0-1.3,1-1.9,1.8-1.9c0.9,0,1.8,0.5,1.8,1.9c0,1.3-1,1.8-1.8,1.8C229.4,30.1,228.5,29.5,228.5,28.3
		 M231.7,28.3c0-1-0.7-1.5-1.4-1.5c-0.7,0-1.4,0.4-1.4,1.5c0,1,0.7,1.4,1.4,1.4C231.1,29.7,231.7,29.3,231.7,28.3z M229.7,27.4h0.6
		c0.3,0,0.7,0.1,0.7,0.6c0,0.3-0.2,0.4-0.4,0.5l0.4,0.7h-0.4l-0.4-0.7h-0.2v0.7h-0.4L229.7,27.4L229.7,27.4z M230.4,28.2
		c0.1,0,0.3-0.1,0.3-0.3c0-0.2-0.1-0.2-0.3-0.2h-0.3v0.5H230.4z"/>
</g>
</svg>
