<?xml version="1.0" encoding="UTF-8"?><svg id="a" xmlns="http://www.w3.org/2000/svg" viewBox="0 0 500 500"><g id="b" transform="translate(40.5 1.5)"><g id="c"><path id="d" d="M327.1504,145.52528c-15.02351,.00199-27.2041-12.17535-27.20608-27.19888-.00199-15.02351,12.17535-27.2041,27.19888-27.20608,15.02351-.00199,27.20409,12.17535,27.20608,27.19888v.0036c-.01987,15.01387-12.18501,27.18062-27.19888,27.20248m0-41.85496c-8.09235-.00199-14.65409,6.55653-14.65609,14.64888s6.55653,14.65409,14.64888,14.65609c8.09234,.00199,14.65409-6.55653,14.65609-14.64888v-.0036c-.02183-8.07837-6.57049-14.61896-14.64888-14.63084"/><path id="e" d="M327.14679,274.13392c-41.34463,.11383-81.01654-16.31721-110.17312-45.63078-2.4518-2.44982-2.45341-6.42335-.0036-8.87515,2.44981-2.4518,6.42335-2.45343,8.87515-.0036h0c55.94476,55.94632,146.6504,55.94759,202.59672,.00281l.00281-.00281c2.4518-2.44982,6.42533-2.4482,8.87515,.0036s2.4482,6.42533-.0036,8.87515h0c-29.15616,29.31201-68.8263,45.74285-110.16951,45.63078"/><path id="f" d="M327.1504,173.84932c-30.67243,.00995-55.54542-24.84691-55.55536-55.51933-.00995-30.67243,24.84691-55.54541,55.51933-55.55536,30.67243-.00995,55.5454,24.8469,55.55536,55.51933v.01802c-.02385,30.65551-24.86383,55.50355-55.51932,55.53736m0-98.49585c-23.73329-.00201-42.97455,19.23601-42.97656,42.9693s19.23601,42.97455,42.9693,42.97656,42.97455-19.23601,42.97656-42.9693v-.00365c-.03179-23.71811-19.25119-42.93752-42.96931-42.96932"/><path id="g" d="M210.46426,466.33284c-2.24125,.00088-4.31282-1.19367-5.43473-3.13391l-11.44286-19.74821c-.88149-1.52516-1.08295-3.35011-.55537-5.03083l91.17863-289.46861c.94613-3.33601,4.41748-5.27338,7.75349-4.32726,3.336,.94613,5.27338,4.41748,4.32726,7.75349-.03265,.11513-.06859,.2293-.10777,.34237l-90.34557,286.83958,7.17658,12.38771,12.98276-6.0406,88.41257-280.71964c.94617-3.336,4.41755-5.27333,7.75354-4.32716s5.27333,4.41755,4.32716,7.75356c-.03263,.11506-.06855,.22919-.10772,.34222l-89.24924,283.35948c-.52911,1.68111-1.74115,3.06198-3.33945,3.80464l-20.68947,9.62529c-.82587,.3885-1.72714,.59045-2.63983,.59144"/><path id="h" d="M231.15011,456.70753c-.63982-.00193-1.27568-.10037-1.88611-.29209l-32.12511-10.11934c-3.27658-1.13495-5.01271-4.71123-3.87776-7.98777,1.08946-3.14524,4.44415-4.8937,7.64637-3.98524l32.12511,10.11934c3.30427,1.05164,5.13039,4.58279,4.07876,7.88707-.82674,2.59766-3.23524,4.36499-5.96126,4.3744"/><path id="i" d="M451.53602,490.78727c-2.10345-.00198-4.06636-1.05654-5.22916-2.80935l-33.5965-50.60032c-.3261-.49003-.57997-1.0244-.75372-1.58679l-83.89025-266.33038c-.94613-3.336,.99125-6.80736,4.32726-7.75349,3.20192-.9081,6.55614,.84009,7.64573,3.98489l83.61976,265.49736,21.07895,31.73564-.92321-38.09359-85.71504-272.11136c-.94613-3.33601,.99125-6.80736,4.32727-7.75349,3.20192-.9081,6.55613,.84009,7.64571,3.98489l85.97829,272.95527c.17477,.56101,.27066,1.14359,.28491,1.73102l1.47137,60.72323c.08364,3.46859-2.66036,6.34821-6.12892,6.43185-.04749,.00116-.09498,.00176-.14247,.00182"/><path id="j" d="M417.93953,440.18335c-3.46757-.00996-6.27048-2.8291-6.26052-6.29665,.00784-2.72736,1.77551-5.1377,4.3744-5.96483l32.1215-10.09771c3.27657-1.13495,6.85284,.60113,7.9878,3.87772,1.13498,3.27659-.60113,6.85281-3.87769,7.98782-.11281,.03907-.22669,.07489-.3415,.10747l-32.1215,10.09771c-.61037,.19194-1.24628,.29038-1.88612,.29209"/><path id="k" d="M432.88053,461.93671c-3.46757-.00996-6.27048-2.8291-6.26052-6.29665,.00784-2.72736,1.77551-5.1377,4.3744-5.96483l17.81884-5.61144c3.30625-1.04069,6.83014,.79593,7.87081,4.10223,1.04066,3.30625-.79595,6.83009-4.10221,7.87078h0l-17.81884,5.61144c-.61037,.19194-1.24628,.29038-1.88612,.29209"/><path id="l" d="M339.86989,77.04485c-3.46359,.00199-6.27301-2.80418-6.27501-6.26778V26.53471c0-3.56119-2.88691-6.4481-6.4481-6.4481s-6.44811,2.88691-6.44811,6.4481v44.23153c-.00183,3.46559-2.81273,6.27351-6.27832,6.27168-3.46299-.00184-6.26985-2.80869-6.27168-6.27168V26.53471c.14459-10.49137,8.76673-18.87909,19.2581-18.7345,10.28748,.14178,18.59271,8.44702,18.73449,18.7345v44.23514c.00199,3.46359-2.80419,6.273-6.26778,6.275h-.00722"/><path id="m" d="M202.75394,490.78728c-.63983-.00171-1.27573-.10015-1.88611-.29209-3.3042-1.03866-5.14079-4.55919-4.10216-7.86341l.00177-.00561,7.69228-24.45449c1.04067-3.30625,4.56454-5.14287,7.87079-4.10218,3.30625,1.04064,5.14286,4.56453,4.10219,7.87078l-7.7031,24.45449c-.82415,2.61295-3.24665,4.39042-5.98649,4.39251"/></g></g><g id="n" transform="translate(1.5 1.5)"><g id="o"><path id="p" d="M52.09626,123.57V483.86315c0,3.82412,3.10005,6.92413,6.92414,6.92413H342.94608c3.8241,.00198,6.92575-3.09643,6.92773-6.92055v-.00721S56.06321,7.54021,52.22609,7.54021c0,0-.12983,112.20348-.12983,116.02978m57.11692,20.02591H59.79936v-12.19658h49.4066l.00722,12.19658Zm-19.25054,19.89607v12.19297h-30.16327v-12.19297h30.16327Zm19.25054,44.48759H59.79936v-11.76022h49.4066l.00722,11.76022Zm-19.25054,20.97075v11.54023h-30.15967v-11.54023h30.15967Zm40.54948,222.0484l.29211-235.02396,147.07301,235.02396H130.51211Zm-70.71275,5.13541h49.4066v11.76382H59.79936v-11.76382Zm0-32.72736h30.16327v12.20377h-30.16327v-12.20377Zm0-32.73096h49.4066v12.19296H59.79936v-12.19296Zm0-32.09627h30.16327v12.19296h-30.15967l-.00361-12.19296Zm0-32.73096h49.4066v12.19296H59.79936v-12.19296Zm0-32.09627h30.16327v12.19296h-30.16327v-12.19296Zm-.19113-32.73096h49.60495v11.9441H59.71641l-.10819-11.9441Z" fill="none" stroke="#000" stroke-width="10.81896"/></g></g></svg>