<?xml version="1.0" encoding="utf-8"?>
<!-- Generator: Adobe Illustrator 27.3.0, SVG Export Plug-In . SVG Version: 6.00 Build 0)  -->
<svg version="1.1" xmlns="http://www.w3.org/2000/svg" xmlns:xlink="http://www.w3.org/1999/xlink" x="0px" y="0px"
	 viewBox="0 0 97.1 114.2" style="enable-background:new 0 0 97.1 114.2;" xml:space="preserve">
<style type="text/css">
	.st0{fill:#114962;}
	.st1{fill:#FFFFFF;}
</style>
<g id="Layer_1">
	<path class="st0" d="M47.1,63.6c-3.8,0-7.7,0-11.5,0c-4.5,0.1-8.7,1-12.7,3.3c-8.2,4.7-8.1,17.3,0,21.9c4,2.4,8.4,3.3,13,3.4
		c6.6,0.1,13.2,0,19.8,0c1,0,1.3-0.3,1.6-1.2c2.3-8.2,9.7-13.3,18.4-12.8c7.9,0.4,14.7,6.9,16,14.9c1.4,9.2-4.5,17.8-13.6,20
		c-8.8,2-17.9-3.2-20.6-11.9c-0.4-1.1-0.8-1.5-2-1.5c-6.5,0.1-13.1,0.1-19.6,0c-6.2,0-12.1-1.4-17.4-4.8c-7.3-4.7-9.9-11.6-8.9-20
		c1-8.5,6.3-13.7,14-16.7c3.9-1.5,8-2.2,12.3-2.2c7,0,14,0,21,0c4.3,0,8.4-0.8,12.2-2.8c6.3-3.3,8.8-10.3,6.1-16.8
		c-1.5-3.5-4.3-5.7-7.7-7.1c-3.3-1.4-6.7-2-10.3-2c-6.6,0-13.2,0-19.8,0c-0.9,0-1.3,0.3-1.5,1.1c-2.4,8.2-10,13.3-18.6,12.6
		C9,40.4,2.2,33.7,1.3,25.5c-1-9,5.1-17.4,14-19.3c8.9-1.8,17.9,3.4,20.4,12.2c0.4,1.3,0.9,1.6,2.2,1.5c7,0,14.1-0.1,21.1,0.1
		c5.3,0.1,10.3,1.5,14.8,4.2c7.8,4.6,10.7,12,9.7,20.4c-1.1,8.8-6.6,13.9-14.5,16.9c-3.9,1.4-7.9,2-12.1,2
		C53.6,63.6,50.4,63.5,47.1,63.6L47.1,63.6z M84.3,95.7c0-5.6-4.4-10-10-10c-5.5,0-10,4.5-10,10c0,5.5,4.5,10,10,10
		C79.9,105.6,84.3,101.2,84.3,95.7L84.3,95.7z M18.7,13.4c-5.5-0.1-10,4.4-10,9.9c0,5.6,4.4,10,9.9,10.1c5.5,0.1,10.1-4.4,10.1-9.9
		C28.7,17.9,24.4,13.4,18.7,13.4L18.7,13.4z"/>
	<path class="st1" d="M51,58.5c-3.8,0-7.7,0-11.5,0c-4.5,0.1-8.7,1-12.7,3.3c-8.2,4.7-8.1,17.3,0,21.9c4,2.4,8.4,3.3,13,3.4
		c6.6,0.1,13.2,0,19.8,0c1,0,1.3-0.3,1.6-1.2c2.3-8.2,9.7-13.3,18.4-12.8c7.9,0.4,14.7,6.9,16,14.9c1.4,9.2-4.5,17.8-13.6,20
		c-8.8,2-17.9-3.2-20.6-11.9c-0.4-1.1-0.8-1.5-2-1.5c-6.5,0.1-13.1,0.1-19.6,0c-6.2,0-12.1-1.4-17.4-4.8c-7.3-4.7-9.9-11.6-8.9-20
		c1-8.5,6.3-13.7,14-16.7c3.9-1.5,8-2.2,12.3-2.2c7,0,14,0,21,0c4.3,0,8.4-0.8,12.2-2.8c6.3-3.3,8.8-10.3,6.1-16.8
		c-1.5-3.5-4.3-5.7-7.7-7.1c-3.3-1.4-6.7-2-10.3-2c-6.6,0-13.2,0-19.8,0c-0.9,0-1.3,0.3-1.5,1.1c-2.4,8.2-10,13.3-18.6,12.6
		c-8.1-0.7-14.9-7.3-15.8-15.6c-1-9,5.1-17.4,14-19.3C28-0.8,37,4.5,39.5,13.3c0.4,1.3,0.9,1.6,2.2,1.5c7,0,14.1-0.1,21.1,0.1
		c5.3,0.1,10.3,1.5,14.8,4.2c7.8,4.6,10.7,12,9.7,20.4c-1.1,8.8-6.6,13.9-14.5,16.9c-3.9,1.4-7.9,2-12.1,2
		C57.5,58.4,54.2,58.4,51,58.5L51,58.5z M88.2,90.6c0-5.6-4.4-10-10-10c-5.5,0-10,4.5-10,10c0,5.5,4.5,10,10,10
		C83.7,100.5,88.2,96.1,88.2,90.6L88.2,90.6z M22.6,8.2c-5.5-0.1-10,4.4-10,9.9c0,5.6,4.4,10,9.9,10.1c5.5,0.1,10.1-4.4,10.1-9.9
		C32.6,12.8,28.2,8.3,22.6,8.2L22.6,8.2z"/>
</g>
<g id="Layer_2">
</g>
</svg>
