<?xml version="1.0" encoding="utf-8"?>
<!-- Generator: Adobe Illustrator 25.2.0, SVG Export Plug-In . SVG Version: 6.00 Build 0)  -->
<svg version="1.1" id="Layer_1" xmlns="http://www.w3.org/2000/svg" xmlns:xlink="http://www.w3.org/1999/xlink" x="0px" y="0px"
	 viewBox="0 0 100 100" style="enable-background:new 0 0 100 100;" xml:space="preserve">
<style type="text/css">
	.st0{fill:#F8982A;}
	.st1{fill:#FFFFFF;}
</style>
<g>
	<path class="st0" d="M84.5,5c-22.4-6.6-46.4-6.6-69,0c-4.8,1.8-8.6,5.6-10.4,10.6C-1.7,38-1.7,62,5.1,84.4
		c1.8,4.8,5.6,8.6,10.4,10.4c22.4,6.8,46.4,6.8,69,0c4.8-1.8,8.6-5.6,10.4-10.4c6.8-22.4,6.8-46.4,0-69C93.3,10.8,89.5,6.8,84.5,5z"
		/>
	<path class="st1" d="M81.7,41c-7.6,0-16.8,9.2-16.8,9.2s8.6,9.2,16.8,9.2c5,0,9.2-4.2,9.2-9.2S86.7,41,81.7,41L81.7,41z"/>
	<path class="st1" d="M58.7,61.6c-1,0.4-2.2,4.4-2.4,9.2c-1.4,0.4-14.6,4.6-14.6-1c0-7.2,23-14.2,14.2-24.8c-9.2-11-15,9-29.8-1.8
		l0,0c-3.8-3.8-10-3.8-13.8,0s-3.8,10,0,13.8s10,3.8,13.8,0c0.6-0.6,1-1,1.4-1.6c6.4-4.6,13.8-5.8,15.8-1.4c3,7.4-27,14.4-17.6,27.4
		s27-10.2,30.8-6.6l0,0c0.2,2.4,1,4.8,2,6.8c2.4,4.8,8.4,6.6,13,4.2c4.8-2.4,6.6-8.4,4.2-13C71.9,65.6,60.5,60.6,58.7,61.6z"/>
	<path class="st1" d="M34.1,32.6h0.6c7.6-0.4,8.6-7,15.8-7s6.6,6.8,14.6,7h0.6c5.4,0,9.8-4.4,9.8-9.8S71.1,13,65.7,13h-0.6
		c-1.4,0-2.6,0.4-3.8,1c-4.4,2-7.4,6.4-10.6,6.4S43.1,16,38.3,14c-4.8-2.4-10.8-0.4-13.2,4.4s-0.4,10.8,4.4,13.2
		C31.1,32.4,32.5,32.6,34.1,32.6z"/>
</g>
</svg>
