<?xml version="1.0" encoding="utf-8"?>
<!-- Generator: Adobe Illustrator 25.2.3, SVG Export Plug-In . SVG Version: 6.00 Build 0)  -->
<svg version="1.1" id="Layer_1" xmlns="http://www.w3.org/2000/svg" xmlns:xlink="http://www.w3.org/1999/xlink" x="0px" y="0px"
	 viewBox="0 0 101 101" style="enable-background:new 0 0 101 101;" xml:space="preserve">
<path d="M18.4243984,67.0989532c-2.0441589-0.4743652-3.6163034-2.2131424-3.6163034-4.426281V38.327774
	c0.1572266-2.213253,1.5723696-3.9520264,3.6163034-4.4263954l22.4841671-4.900425l2.3586082-9.6431732H17.1665936
	C7.8899436,19.3577805,0.5,26.7875862,0.5,35.9566231v28.7712898c0,9.168808,7.5471687,16.7568512,16.6665936,16.7568512h26.1005802
	l-2.3584976-9.6431732C40.9086761,71.8415909,18.4243984,67.0989456,18.4243984,67.0989532z M83.8334122,19.3575611h-26.258255
	l2.3586121,9.6430607l22.484726,4.9005394c2.0440445,0.4744759,3.6156235,2.213253,3.6156235,4.426281v24.3451157
	c-0.1567764,2.2131386-1.5716934,3.9519157-3.6156235,4.426281l-22.4847336,4.90065l-2.3586082,9.642952h26.2582512
	c9.1195374,0,16.6665955-7.4298096,16.6665955-16.7567444V35.9562912
	C100.3421021,26.7873688,92.9529495,19.3575611,83.8334122,19.3575611z M40.9085655,49.2355843h19.1822014v2.3711548H40.9085655
	V49.2355843z"/>
</svg>
