<?xml version="1.0" encoding="utf-8"?>
<!-- Generator: Adobe Illustrator 25.2.3, SVG Export Plug-In . SVG Version: 6.00 Build 0)  -->
<svg version="1.1" id="Layer_1" xmlns="http://www.w3.org/2000/svg" xmlns:xlink="http://www.w3.org/1999/xlink" x="0px" y="0px"
	 viewBox="0 0 100 100" style="enable-background:new 0 0 100 100;" xml:space="preserve">
<style type="text/css">
	.st0{fill:#46AE33;}
	.st1{fill:#04517D;}
</style>
<g id="_Group_">
	<g id="tacho">
		<path id="path38" class="st0" d="M71.6073761,27.1809006c-5.6593628-5.0644836-13.0913887-8.174633-21.2859802-8.174633
			c-17.6987305,0-32.0497475,14.3490219-32.0497475,32.0497475c0,1.6329308,0.1237679,3.2419052,0.3593254,4.8069611
			c-0.0139732-0.3912697-0.0239582-0.7805367-0.0239582-1.1737938c0-12.6821594,10.2806759-22.9648285,22.9608402-22.9648285
			c6.3261032,0,12.0154037,2.5971222,16.1556244,6.7493134L71.6073761,27.1809006"/>
		<path id="path40" class="st1" d="M58.4600945,49.083725l16.6546822-20.4795055
			c0.6527786-0.6547661,0.6527786-1.7087841,0-2.361557c-0.652771-0.6507759-1.708786-0.6507759-2.3575668,0L52.2737236,42.9053383
			c-2.0421638-0.2215843-4.1641731,0.4411697-5.7292252,2.0082245c-2.7368584,2.7348557-2.7368584,7.1665268,0,9.8993874
			c2.7388458,2.7348557,7.1685219,2.7348557,9.8973846,0C58.0089378,53.2439003,58.673687,51.1238861,58.4600945,49.083725z
			 M48.9958839,52.361557c-1.3794022-1.3794022-1.3794022-3.6171989,0-4.9926109c1.3754196-1.389389,3.619194-1.389389,4.9946136,0
			c1.3794022,1.375412,1.3794022,3.6132088,0,4.9926109C52.615078,53.7349739,50.3713036,53.7349739,48.9958839,52.361557"/>
		<path id="path42" class="st1" d="M50.0019951,0C22.4318256,0,0,22.4278355,0,49.9960022
			C0,77.5721664,22.4318256,100,50.0019951,100C77.5681686,100,100,77.5721664,100,49.9960022
			C100,22.4278355,77.5681686,0,50.0019951,0z M50.0019951,87.1162186c-20.4675255,0-37.1162186-16.6526947-37.1162186-37.1202164
			c0-20.4635277,16.648695-37.1142235,37.1162186-37.1142235c20.4635277,0,37.1142235,16.6506958,37.1142235,37.1142235
			C87.1162186,70.4635239,70.4655228,87.1162186,50.0019951,87.1162186"/>
	</g>
</g>
</svg>
