<?xml version="1.0" encoding="utf-8"?>
<!-- Generator: Adobe Illustrator 25.2.3, SVG Export Plug-In . SVG Version: 6.00 Build 0)  -->
<svg version="1.1" id="Layer_1" xmlns="http://www.w3.org/2000/svg" xmlns:xlink="http://www.w3.org/1999/xlink" x="0px" y="0px"
	 viewBox="0 0 101 101" style="enable-background:new 0 0 101 101;" xml:space="preserve">
<style type="text/css">
	.st0{fill:#3D98D3;}
</style>
<g>
	<path class="st0" d="M98.4683533,46.0753021C99.6990585,45.5087852,100.5,45.118084,100.5,45.118084
		s0-0.0781364-0.0195389-0.2148857c-0.0195312-0.1367455-0.0390701-0.3516312-0.0781403-0.6251221
		c-0.0195312-0.2734909-0.0781326-0.605587-0.1172104-0.9767532c-0.0390701-0.3907013-0.0781403-0.8009377-0.1758118-1.2697792
		c-0.2930298-1.8558311-0.840004-4.2977142-1.5628052-6.7005272c-0.7618637-2.3832779-1.6800156-4.7079525-2.480957-6.4075031
		c-0.1953506-0.4297714-0.3907013-0.8204727-0.5665131-1.1525669c-0.1758194-0.3320961-0.3320999-0.644659-0.4493027-0.8790779
		c-0.1367493-0.2539577-0.2344284-0.4297714-0.2930298-0.5665169c-0.0586014-0.1367435-0.0976715-0.1953506-0.0976715-0.1953506
		s-0.8986206,0.1172123-2.2074661,0.3516331c-1.3088455,0.2148857-3.0279312,0.566515-4.7470169,0.9767532
		c-1.5823364,0.3907013-3.1256104,0.8204708-4.3367844,1.1916389c-2.422348-3.633522-5.430748-6.8372726-8.8884583-9.4940414
		c0.2148895-0.5665169,0.4688416-1.1721039,0.7032623-1.8362961c0.2734909-0.7618675,0.5469818-1.5823402,0.8204803-2.422348
		c0.5469742-1.6800156,1.0353546-3.3991022,1.3479156-4.6884165s0.5079117-2.1683912,0.5079117-2.1683912
		s-0.253952-0.1758165-0.7228012-0.4688425c-0.4493027-0.3125606-1.1330261-0.6837273-1.9535065-1.1525688
		c-0.2148819-0.1172104-0.4297714-0.2539554-0.6446533-0.3711658c-0.2344208-0.1172109-0.4688416-0.2344213-0.7032623-0.3516312
		c-0.4688416-0.2344208-0.9767532-0.4883766-1.5042038-0.7618675c-1.0744247-0.4883766-2.2074585-1.0353587-3.3795624-1.4651299
		c-1.152565-0.4883766-2.3442078-0.8595428-3.4577103-1.2307093c-0.5665131-0.1758156-1.1135025-0.312561-1.6214066-0.4688416
		c-0.2734909-0.0781403-0.5274506-0.1562805-0.7618675-0.2148857c-0.2344208-0.0586052-0.4688377-0.1172104-0.7032623-0.1758156
		c-0.898613-0.2148857-1.6604805-0.4102364-2.2074585-0.4883767c-0.5274506-0.0976753-0.8400078-0.1562805-0.8400078-0.1562805
		s-0.4493027,0.7814026-1.0939636,1.9339714c-0.6446533,1.1721039-1.4651299,2.7739794-2.2074585,4.3563194
		c-0.7032661,1.5042005-1.3479195,3.0083995-1.7972298,4.2000394c-1.2307053-0.1172104-2.480957-0.1758165-3.7507362-0.1758165
		c-3.1842155,0-6.2902908,0.3907013-9.2791557,1.0939636c-0.6446648-1.0939674-1.4651337-2.461422-2.3637505-3.8093414
		c-0.9767532-1.4651299-2.0316467-2.9302602-2.8325844-3.9656181c-0.8009377-1.0548937-1.3674545-1.738621-1.3674545-1.738621
		s-0.293026,0.0976753-0.8204727,0.2734909c-0.5079117,0.1562805-1.2307091,0.4688416-2.109787,0.8009379
		c-0.2148857,0.0976753-0.4493065,0.1758153-0.6837273,0.2734907c-0.2344208,0.0976756-0.4688396,0.1953509-0.7227974,0.3125613
		c-0.4883766,0.2148857-1.0158215,0.4493065-1.5432682,0.7032623C27.731884,5.54004,26.6183815,6.0870218,25.5439529,6.731679
		C25.270462,6.88796,24.9969711,7.04424,24.7234821,7.2005205c-0.2734928,0.1562805-0.5274467,0.3320961-0.7814026,0.4883766
		c-0.5274467,0.3320961-1.0353603,0.6446571-1.523737,0.9767532c-0.9572182,0.6837273-1.8558311,1.3088493-2.5786266,1.8949013
		c-0.3516331,0.2734919-0.7032623,0.5469818-0.9962883,0.7814026c-0.293026,0.2539558-0.5274467,0.4688425-0.7423344,0.6446571
		c-0.4102364,0.3711672-0.6446571,0.5665178-0.6446571,0.5665178s0.3125629,0.8400068,0.8204727,2.0707169
		c0.5274467,1.2502451,1.250246,2.8716545,2.0316486,4.4344597c0.6837273,1.3674545,1.4260597,2.7349091,2.0316467,3.8093376
		c-3.0865421,3.1451473-5.6651688,6.8177376-7.56007,10.8614979c-1.2111731-0.1758156-2.715374-0.3711662-4.219574-0.4883766
		c-1.7386208-0.1367455-3.4967771-0.2344208-4.844696-0.2539558c-0.6641922-0.0195389-1.2307091-0.0195389-1.6214104-0.0195389
		s-0.605587,0-0.605587,0s-0.0976753,0.293026-0.2734909,0.8204727c-0.1562805,0.5274467-0.4493065,1.2697792-0.6837273,2.168396
		c-0.1172104,0.4493065-0.2734909,0.9572144-0.4102364,1.4651299c-0.1367456,0.5079117-0.253956,1.0744286-0.3907014,1.6409416
		c-0.0586052,0.293026-0.1367455,0.5860519-0.1953506,0.8790779c-0.0781403,0.293026-0.1172104,0.6055908-0.1758156,0.8986168
		c-0.0976753,0.605587-0.2148857,1.211174-0.312561,1.8362923c-0.1562806,1.2502441-0.3320962,2.4809532-0.3907014,3.6530571
		c-0.0976753,1.1525688-0.1172104,2.2465324-0.1367455,3.1842194C0.5,49.7478943,0.5,49.96278,0.5,50.1776657
		c0.0195351,0.2148857,0.0195351,0.4102364,0.0195351,0.605587c0,0.3711624,0.0195351,0.7032623,0.0195351,0.9767532
		c0.0195351,0.546978,0.0195351,0.859539,0.0195351,0.859539s0.2148858,0.0586052,0.5860519,0.1758156
		c0.3907014,0.1172104,0.918148,0.293026,1.5628054,0.4688416c1.289314,0.3711624,3.0084002,0.8204727,4.7079506,1.1916389
		c1.367455,0.293026,2.7544446,0.546978,3.9070134,0.7228012c0.5469818,4.6298103,1.8949003,9.0056686,3.8874779,13.0103531
		c-0.8204718,0.7814026-1.7776899,1.7190857-2.715374,2.6958389c-1.211174,1.2697754-2.3637428,2.5981598-3.2232857,3.633522
		c-0.4297714,0.5079117-0.7814026,0.9376831-1.0353584,1.2502441c-0.2344208,0.312561-0.3711667,0.4883728-0.3711667,0.4883728
		s0.1758161,0.253952,0.468842,0.7228012c0.293026,0.4493027,0.7032623,1.1135025,1.2502441,1.8753662
		c0.2734919,0.37117,0.5665178,0.8009415,0.8790779,1.2307053c0.3320961,0.4297791,0.6837273,0.8595428,1.0353584,1.3283844
		s0.7423325,0.9181519,1.1525698,1.3869934c0.3907013,0.4493027,0.8009367,0.9376831,1.2307091,1.3869858
		c1.6800156,1.855835,3.5749168,3.4967804,5.0009766,4.7079544c0.7423325,0.5860519,1.3479195,1.0744324,1.7776909,1.4065323
		c0.4493065,0.3320923,0.7032623,0.5079117,0.7032623,0.5079117s0.7423325-0.5079117,1.8362961-1.269783
		c0.5274467-0.3907013,1.1525688-0.840004,1.816761-1.3479156c0.6641941-0.4883804,1.3674545-1.0353546,2.0511818-1.6018829
		c1.0158215-0.840004,1.9925747-1.6800156,2.8130474-2.4223404c3.8679428,2.3832779,8.2047272,4.1023636,12.8150063,5.0205078
		c0.0976753,1.1330338,0.234417,2.422348,0.4297676,3.7507401c0.2539597,1.7386169,0.5665169,3.4967728,0.8400116,4.786087
		c0.2734871,1.2893143,0.4883766,2.168396,0.4883766,2.168396s0.312561,0.0390701,0.859539,0.0976791
		c0.5274467,0.0586014,1.3088493,0.0976715,2.2465324,0.1758118c0.4688416,0.0390701,0.9767532,0.0390701,1.5042,0.0586014
		c0.5274467,0.0195389,1.0939636,0.0390701,1.6800156,0.0390701c1.152565-0.0390701,2.4028091-0.0390701,3.6530571-0.1562729
		c1.2502441-0.058609,2.5004883-0.2344284,3.6530609-0.3907013c0.5665169-0.0976791,1.1330299-0.1953506,1.6604805-0.2930298
		c0.5274506-0.0976715,1.0353546-0.1758118,1.4846649-0.2930222c0.9181519-0.2148895,1.6800194-0.3907013,2.2074623-0.5274506
		c0.5274467-0.1562805,0.8204765-0.2344208,0.8204765-0.2344208s0.0781403-0.8986206,0.1562729-2.2269974
		c0.0781403-1.3088531,0.117218-3.1060791,0.0976791-4.8642349c-0.0195389-1.3674545-0.0586014-2.6763077-0.1367493-3.8288727
		c4.3172531-1.6214066,8.2828674-3.9656143,11.7405777-6.9154129c0.9572144,0.6251297,2.109787,1.3674545,3.3014221,2.0707169
		c1.523735,0.9181519,3.067009,1.7386246,4.2586441,2.3442078c1.1916428,0.6055908,2.0121078,0.9767532,2.0121078,0.9767532
		s0.0586014-0.0586014,0.1562805-0.1562729c0.0976715-0.0976791,0.253952-0.253952,0.4493027-0.4493027
		c0.3907013-0.3907013,0.9181519-0.957222,1.5628052-1.6409454c1.2307053-1.4065323,2.8325882-3.320961,4.2391129-5.3916855
		c1.4065247-2.0707169,2.6567688-4.2391052,3.4772415-5.9191208c0.1172104-0.2148819,0.2148819-0.4102325,0.312561-0.6055832
		c0.0976715-0.1953506,0.1758118-0.37117,0.253952-0.5469818c0.1562805-0.3516312,0.2930222-0.6446533,0.4102402-0.898613
		c0.2344208-0.4883804,0.3516235-0.7814026,0.3516235-0.7814026s-0.6641922-0.6251297-1.6604767-1.5042038
		c-0.9962921-0.8790817-2.3442078-2.0316467-3.7312012-3.1060715c-1.1721039-0.9181519-2.3637466-1.7776947-3.3600311-2.461422
		c1.211174-3.7702675,1.8558273-7.7944908,1.8558273-11.9749985c0-0.3907013,0-0.7814026-0.0195312-1.1721039
		c1.1721039-0.3711624,2.5981598-0.859539,4.0437546-1.3869896C95.6357727,47.3255463,97.2571793,46.6222839,98.4683533,46.0753021z
		 M50.5097694,78.2495575c-7.4037895,0-14.3778114-2.8911896-19.6132069-8.1265945
		c-5.2353973-5.2353897-8.1265869-12.2094116-8.1265869-19.6132011s2.8911896-14.3778114,8.1265869-19.613205
		c5.2353954-5.2353992,12.2094173-8.1265888,19.6132069-8.1265888s14.3778114,2.8911896,19.6132011,8.1265888
		c5.235405,5.2353935,8.1265945,12.2094154,8.1265945,19.613205s-2.8911896,14.3778114-8.1265945,19.6132011
		C64.8875732,75.3583603,57.9135551,78.2495575,50.5097694,78.2495575z"/>
	<path class="st0" d="M50.5097694,31.8537731c-10.2949791,0-18.6559887,8.3610096-18.6559887,18.6559887
		s8.3610096,18.6559868,18.6559887,18.6559868s18.6559868-8.3610039,18.6559868-18.6559868
		S60.8047485,31.8537731,50.5097694,31.8537731z M50.5097694,57.4447098c-3.8288765,0-6.934948-3.1060753-6.934948-6.934948
		s3.1060715-6.934948,6.934948-6.934948s6.934948,3.1060715,6.934948,6.934948S54.3386421,57.4447098,50.5097694,57.4447098z"/>
</g>
</svg>
