<?xml version="1.0" encoding="utf-8"?>
<!-- Generator: Adobe Illustrator 25.2.0, SVG Export Plug-In . SVG Version: 6.00 Build 0)  -->
<svg version="1.1" id="Layer_1" xmlns="http://www.w3.org/2000/svg" xmlns:xlink="http://www.w3.org/1999/xlink" x="0px" y="0px"
	 viewBox="0 0 101 101" style="enable-background:new 0 0 101 101;" xml:space="preserve">
<style type="text/css">
	.st0{fill:#0080FF;}
</style>
<g id="_Group_">
	<g id="_Group_2">
		<g id="_Group_3">
			<g id="_Group_4">
				<g id="_Group_5">
					<path id="_Path_" class="st0" d="M50.4,100.5V81.1c17,0,30.8-13.8,30.6-30.8c0-3.8-0.8-7.6-2.2-11.2c-3-8-9.2-14.4-17.2-17.2
						C45.8,15.7,28,23.5,21.8,39.5c-1.4,3.6-2,7.4-2,11.2H0.4C0.4,22.9,23,0.5,50.6,0.5c5.4,0,10.6,0.8,15.8,2.6
						c15,4.8,26.8,16.6,31.6,31.6c8.8,26.2-5.6,54.6-31.8,63.4C61,99.7,55.6,100.5,50.4,100.5z"/>
				</g>
				<polygon id="_Path_2" class="st0" points="50.4,81.3 31,81.3 31,61.9 31,61.9 50.4,61.9 50.4,61.9 				"/>
				<polygon id="_Path_3" class="st0" points="31,96.1 16.2,96.1 16.2,96.1 16.2,81.3 31,81.3 				"/>
				<path id="_Path_4" class="st0" d="M16.2,81.3H3.8V68.9h12.4L16.2,81.3L16.2,81.3z"/>
			</g>
		</g>
	</g>
</g>
</svg>
