<?xml version="1.0" encoding="UTF-8"?>
<svg id="uuid-224e3580-d59f-48a8-9bb3-c822840f911d" data-name="Layer 1" xmlns="http://www.w3.org/2000/svg" width="18" height="18" viewBox="0 0 18 18">
  <path d="m17.558,9.638L10.436,1.632c-.358-.402-.881-.632-1.435-.632h0c-.554,0-1.078.231-1.435.632L.442,9.638c-.346.389-.5.9-.423,1.403.077.503.379.952.827,1.231l7.123,4.436c.313.195.672.293,1.031.293s.718-.098,1.031-.293l7.123-4.436c.448-.279.75-.728.827-1.231.077-.503-.077-1.014-.423-1.403Zm-8.557,2.564l-3.47-2.161,3.47-3.9,3.47,3.9-3.47,2.161Zm-4.821-1.975l3.995,2.489-1.137.708-.016.01c-.394.25-.854.382-1.33.382-.528,0-1.059-.214-1.38-.413l-2.969-1.849c-.235-.147-.387-.373-.428-.637-.04-.264.037-.521.219-.725L8.257,2.186c.185-.208.456-.327.743-.328.287,0,.558.119.743.328l1.576,1.771c-.009,0-.018,0-.028,0-.856,0-1.668.313-2.278.866l-4.833,5.404Zm12.905.69c-.041.264-.192.49-.428.637l-7.123,4.436c-.325.202-.744.202-1.068,0l-2.192-1.365c.451-.076.88-.238,1.264-.484l6.259-3.898-4.197-4.759c.448-.425,1.053-.667,1.692-.667.335,0,.661.07.97.201l4.605,5.175c.181.204.259.461.219.725Z"/>
</svg>