<?xml version="1.0" encoding="utf-8"?>
<!-- Svg Vector Icons : http://www.onlinewebfonts.com/icon -->
<!DOCTYPE svg PUBLIC "-//W3C//DTD SVG 1.1//EN" "http://www.w3.org/Graphics/SVG/1.1/DTD/svg11.dtd">
<svg style="fill: #0075A8" version="1.1" xmlns="http://www.w3.org/2000/svg" xmlns:xlink="http://www.w3.org/1999/xlink" x="0px" y="0px" viewBox="0 0 1000 1000" enable-background="new 0 0 1000 1000" xml:space="preserve">
<metadata> Svg Vector Icons : http://www.onlinewebfonts.com/icon </metadata>
<g><g transform="translate(0.000000,511.000000) scale(0.100000,-0.100000)"><path d="M218.5,4749.9c-126.5-67.3-118.4,193.9-118.4-3753c0-3230.6,4.1-3610.1,32.7-3665.3c63.3-124.5,8.2-120.4,1869.4-120.4h1697.9l-71.4-75.5c-328.6-349-508.2-836.7-508.2-1377.5c0-169.4,4.1-183.7,59.2-244.9l59.2-67.3l1859.2-6.1c2053-6.1,1944.9-12.3,2014.2,122.5c28.6,53,30.6,100,20.4,249c-42.9,569.4-189.8,971.4-473.4,1275.5l-114.3,124.5l1600,4.1c1755.1,6.1,1657.1,0,1720.4,130.6c44.9,95.9,46.9,7195.8,2,7304c-61.2,144.9,361.2,132.7-4873.4,132.7C859.3,4780.5,267.5,4776.4,218.5,4749.9z M8865.3,3876.4c36.7-16.3,85.7-55.1,106.1-85.7c34.7-55.1,36.7-179.6,40.8-2702c4.1-1453,0-2691.8-6.1-2753c-10.2-89.8-24.5-122.4-73.5-169.4l-61.2-57.1H5000.1c-3544.9,0-3875.5,2.1-3918.3,32.7c-108.2,77.5-104.1-38.8-104.1,2859.2c0,2520.4,2,2693.8,36.7,2761.2c20.4,40.8,65.3,85.7,106.1,106.1c67.3,34.7,293.9,36.7,3873.4,36.7C8226.5,3905,8806.1,3900.9,8865.3,3876.4z"/><path d="M1447,996.8v-2438.7h3551h3551V996.8v2438.7H4998H1447V996.8z M3455.2,2162.1c55.1-22.5,161.2-169.4,636.7-871.4c312.2-465.3,602-893.9,642.8-953.1l75.5-108.2l277.6,485.7c151,267.3,291.8,502,312.2,520.4c49,44.9,136.7,65.3,204.1,46.9c30.6-6.1,146.9-102,261.2-216.3l206.1-202l122.5,302c104.1,251,134.7,308.2,191.8,346.9c77.5,51,142.9,57.2,220.4,16.3c30.6-16.3,206.1-191.8,391.8-387.7l336.7-359.2h193.9c153.1,0,206.1-8.2,257.1-38.8c128.6-77.6,142.9-261.2,26.6-357.1c-61.2-51-71.4-53.1-361.2-53.1l-300-2l-279.6,291.8c-155.1,159.2-285.7,285.7-289.8,279.6c-4.1-4.1-59.2-132.6-122.4-283.7C6328.6,300.9,6285.7,252,6149,252c-89.8,0-98,6.1-322.4,224.5L5598,700.9l-295.9-555.1c-289.8-546.9-395.9-710.2-467.3-710.2c-18.4,0-59.2,18.4-85.7,40.8c-28.6,22.5-326.5,453.1-659.2,959.2c-334.7,504.1-614.3,918.4-620.4,918.4c-8.2,0-67.4-206.1-132.7-461.2c-108.2-410.2-128.6-465.3-179.6-510.2l-61.2-49h-646.9c-708.2,0-704.1,0-767.3,122.4c-38.8,75.5-38.8,128.6,0,204.1c59.2,114.3,100,122.5,651,122.5h500l20.4,77.5c12.2,40.8,85.7,326.5,163.3,634.7c163.3,640.8,175.5,661.2,355.1,693.9C3379.7,2188.7,3418.4,2178.5,3455.2,2162.1z"/></g></g>
</svg>
