<?xml version="1.0" encoding="utf-8"?>
<!-- Generator: Adobe Illustrator 25.2.3, SVG Export Plug-In . SVG Version: 6.00 Build 0)  -->
<svg version="1.1" id="Layer_1" xmlns="http://www.w3.org/2000/svg" xmlns:xlink="http://www.w3.org/1999/xlink" x="0px" y="0px"
	 viewBox="0 0 101 101" style="enable-background:new 0 0 101 101;" xml:space="preserve">
<style type="text/css">
	.st0{fill:url(#path3402_1_);}
	.st1{fill:url(#path3428_1_);}
	.st2{fill:url(#path3454_1_);}
	.st3{fill:url(#path3480_1_);}
	.st4{fill:url(#path3506_1_);}
	.st5{fill:url(#path3532_1_);}
	.st6{fill:url(#path3558_1_);}
	.st7{fill:url(#path3584_1_);}
</style>
<g>
	<g id="layer1">
		<g id="g3378" transform="matrix(6.872161207830313,0,0,-6.919294886852669,-15.172182215103419,3574.0745142828305) ">
			<g id="g3380">
				<g id="g3386">
					<g id="g3388">
						
							<radialGradient id="path3402_1_" cx="-83.304718" cy="459.5467834" r="1" gradientTransform="matrix(72.1396179 0 0 -72.6343994 6028.4511719 33884.4414062)" gradientUnits="userSpaceOnUse">
							<stop  offset="0" style="stop-color:#F9AB95"/>
							<stop  offset="0.420086" style="stop-color:#ED1C24"/>
							<stop  offset="0.426971" style="stop-color:#ED1C24"/>
							<stop  offset="0.872563" style="stop-color:#ED1C24"/>
							<stop  offset="1" style="stop-color:#981015"/>
						</radialGradient>
						<path id="path3402" class="st0" d="M3.3270025,510.3474426c0.0479677-0.9151611,0.7369866-1.4578857,0.7369866-1.4578857l0,0
							c1.1101046-1.081665,3.7976551-2.4466858,4.4212327-2.757782l0,0c0.0082226-0.0007019,0.0407724-0.0123291,0.059617,0.0119934
							l0,0c0,0,0.0256968,0.0202026,0.0126772,0.0531006l0,0c-1.710041,3.7359924-4.0484571,6.5688171-4.0484571,6.5688171l0,0
							c0,0-1.2728517-1.2084656-1.182056-2.4182739"/>
					</g>
				</g>
			</g>
		</g>
		<g id="g3404" transform="matrix(6.872161207830313,0,0,-6.919294886852669,-15.172182215103419,3574.0745142828305) ">
			<g id="g3406">
				<g id="g3412">
					<g id="g3414">
						
							<radialGradient id="path3428_1_" cx="-83.3047791" cy="459.5467224" r="1" gradientTransform="matrix(72.1471634 0 0 -72.6419983 6029.0854492 33887.9335938)" gradientUnits="userSpaceOnUse">
							<stop  offset="0" style="stop-color:#F9AB95"/>
							<stop  offset="0.420086" style="stop-color:#ED1C24"/>
							<stop  offset="0.426971" style="stop-color:#ED1C24"/>
							<stop  offset="0.872563" style="stop-color:#ED1C24"/>
							<stop  offset="1" style="stop-color:#981015"/>
						</radialGradient>
						<path id="path3428" class="st1" d="M3.5993896,505.104248c0.4848142-0.8644409,1.3023176-1.5370178,2.153398-1.3304138l0,0
							c0.5882874,0.1469727,1.9173293,1.0747986,2.355547,1.3889771l0,0l-0.0013704,0.0003662
							c0.0342627,0.0298157,0.0243254,0.0551453,0.0243254,0.0551453l0,0
							c-0.0130196,0.0401001-0.0589314,0.0401001-0.0589314,0.0401001l0,0v0.001709l-4.4729691-0.1558838H3.5993896z"/>
					</g>
				</g>
			</g>
		</g>
		<g id="g3430" transform="matrix(6.872161207830313,0,0,-6.919294886852669,-15.172182215103419,3574.0745142828305) ">
			<g id="g3432">
				<g id="g3438">
					<g id="g3440">
						
							<radialGradient id="path3454_1_" cx="-83.3046265" cy="459.546814" r="1" gradientTransform="matrix(72.1279449 0 0 -72.6226425 6027.472168 33879.0429688)" gradientUnits="userSpaceOnUse">
							<stop  offset="0" style="stop-color:#F9AB95"/>
							<stop  offset="0.420086" style="stop-color:#ED1C24"/>
							<stop  offset="0.426971" style="stop-color:#ED1C24"/>
							<stop  offset="0.872563" style="stop-color:#ED1C24"/>
							<stop  offset="1" style="stop-color:#981015"/>
						</radialGradient>
						<path id="path3454" class="st2" d="M2.5290289,507.1123657c0.485157-1.0258179,1.4119575-1.3369141,1.4119575-1.3369141l0,0
							c0.4272535-0.1757812,0.8551919-0.1870728,0.8551919-0.1870728l0,0
							c0.066812-0.0119934,2.6604829-0.0013733,3.3549838,0.0013733l0,0c0.0301514,0,0.0462551,0.0301514,0.0462551,0.0301514l0,0
							c0.0215845,0.0349426-0.0161037,0.0678406-0.0161037,0.0678406l0,0v0.0003357
							c-1.9646125,1.324585-5.7728891,3.359436-5.7728891,3.359436l0,0c-0.3463938-1.0714111,0.120604-1.9351501,0.120604-1.9351501
							"/>
					</g>
				</g>
			</g>
		</g>
		<g id="g3456" transform="matrix(6.872161207830313,0,0,-6.919294886852669,-15.172182215103419,3574.0745142828305) ">
			<g id="g3458">
				<g id="g3464">
					<g id="g3466">
						
							<radialGradient id="path3480_1_" cx="-83.3046341" cy="459.546814" r="1" gradientTransform="matrix(72.1285172 0 0 -72.6231842 6027.5195312 33879.2929688)" gradientUnits="userSpaceOnUse">
							<stop  offset="0" style="stop-color:#F9AB95"/>
							<stop  offset="0.420086" style="stop-color:#ED1C24"/>
							<stop  offset="0.426971" style="stop-color:#ED1C24"/>
							<stop  offset="0.872563" style="stop-color:#ED1C24"/>
							<stop  offset="1" style="stop-color:#981015"/>
						</radialGradient>
						<path id="path3480" class="st3" d="M7.7739325,514.5599976c-1.1844549-0.3063354-1.4643793-1.3807983-1.4643793-1.3807983l0,0
							c-0.2158537-0.6763306,0.0061669-1.418457,0.0061669-1.418457l0,0
							c0.3940187-1.7545776,2.3401284-4.6360474,2.7588162-5.2414551l0,0
							c0.0301514-0.0298157,0.0524216-0.0185242,0.0524216-0.0185242l0,0
							c0.0418005,0.011322,0.0428286,0.0493469,0.0428286,0.0551758l0,0c0.6424217,6.4352112-0.676342,8.1410828-0.676342,8.1410828
							l0,0c-0.1942682-0.0181274-0.7195129-0.1370239-0.7195129-0.1370239"/>
					</g>
				</g>
			</g>
		</g>
		<g id="g3482" transform="matrix(6.872161207830313,0,0,-6.919294886852669,-15.172182215103419,3574.0745142828305) ">
			<g id="g3484">
				<g id="g3490">
					<g id="g3492">
						
							<radialGradient id="path3506_1_" cx="-83.305275" cy="459.5464478" r="1" gradientTransform="matrix(72.2110825 0 0 -72.7063522 6034.4462891 33917.484375)" gradientUnits="userSpaceOnUse">
							<stop  offset="0" style="stop-color:#F9AB95"/>
							<stop  offset="0.420086" style="stop-color:#ED1C24"/>
							<stop  offset="0.426971" style="stop-color:#ED1C24"/>
							<stop  offset="0.872563" style="stop-color:#ED1C24"/>
							<stop  offset="1" style="stop-color:#981015"/>
						</radialGradient>
						<path id="path3506" class="st4" d="M9.9393225,506.6013489h0.0020552
							c0.0034266-0.0414429,0.0342627-0.0500183,0.0342627-0.0500183l0,0
							c0.0424862-0.016449,0.0640717,0.0250244,0.0640717,0.0250244l0,0v-0.0010376
							c0.430337,0.619812,2.3630848,3.4882507,2.7588158,5.2349548l0,0c0,0,0.2110577,0.846283,0.0051394,1.4184875l0,0
							c0,0-0.2912302,1.0912476-1.4777412,1.3790283l0,0c0,0-0.3419399,0.0880737-0.7040949,0.1387939l0,0
							C10.6218309,514.746582,9.2962151,513.0396118,9.9393225,506.6013489"/>
					</g>
				</g>
			</g>
		</g>
		<g id="g3508" transform="matrix(6.872161207830313,0,0,-6.919294886852669,-15.172182215103419,3574.0745142828305) ">
			<g id="g3510">
				<g id="g3516">
					<g id="g3518">
						
							<radialGradient id="path3532_1_" cx="-83.3051682" cy="459.5465088" r="1" gradientTransform="matrix(72.1978989 0 0 -72.6930695 6033.3408203 33911.3867188)" gradientUnits="userSpaceOnUse">
							<stop  offset="0" style="stop-color:#F9AB95"/>
							<stop  offset="0.420086" style="stop-color:#ED1C24"/>
							<stop  offset="0.426971" style="stop-color:#ED1C24"/>
							<stop  offset="0.872563" style="stop-color:#ED1C24"/>
							<stop  offset="1" style="stop-color:#981015"/>
						</radialGradient>
						<path id="path3532" class="st5" d="M11.0343513,505.256012c0,0-0.0397444-0.0054626-0.0503654-0.0349426l0,0
							c0,0-0.0102797-0.0390625,0.0178165-0.0589294l0,0v-0.0006714c0.426568-0.3076782,1.7240887-1.2149658,2.3504066-1.3914185
							l0,0c0,0,1.1563597-0.3940125,2.1599083,1.3307495l0,0l-4.477766,0.1565857V505.256012z"/>
					</g>
				</g>
			</g>
		</g>
		<g id="g3534" transform="matrix(6.872161207830313,0,0,-6.919294886852669,-15.172182215103419,3574.0745142828305) ">
			<g id="g3536">
				<g id="g3542">
					<g id="g3544">
						
							<radialGradient id="path3558_1_" cx="-83.3052444" cy="459.5464783" r="1" gradientTransform="matrix(72.2075958 0 0 -72.7028427 6034.1547852 33915.8710938)" gradientUnits="userSpaceOnUse">
							<stop  offset="0" style="stop-color:#F9AB95"/>
							<stop  offset="0.420086" style="stop-color:#ED1C24"/>
							<stop  offset="0.426971" style="stop-color:#ED1C24"/>
							<stop  offset="0.872563" style="stop-color:#ED1C24"/>
							<stop  offset="1" style="stop-color:#981015"/>
						</radialGradient>
						<path id="path3558" class="st6" d="M10.9349899,505.6901245v-0.0003357c0,0-0.0332346-0.0226135-0.0219269-0.065094l0,0
							c0,0,0.0188437-0.0332336,0.0452261-0.0332336l0,0v-0.001709c0.7034092,0,3.3683462-0.0027466,3.4365292,0.0088806l0,0
							c0,0,0.343996,0.0133667,0.7695351,0.1768188l0,0c0,0,0.9476995,0.3021851,1.4390249,1.3783569l0,0
							c0,0,0.4392452,0.8781433,0.1000462,1.9032898l0,0C16.7034245,509.0570984,12.9002876,507.0174561,10.9349899,505.6901245"/>
					</g>
				</g>
			</g>
		</g>
		<g id="g3560" transform="matrix(6.872161207830313,0,0,-6.919294886852669,-15.172182215103419,3574.0745142828305) ">
			<g id="g3562">
				<g id="g3568">
					<g id="g3570">
						
							<radialGradient id="path3584_1_" cx="-83.3052826" cy="459.5464478" r="1" gradientTransform="matrix(72.2121964 0 0 -72.7074738 6034.5400391 33918)" gradientUnits="userSpaceOnUse">
							<stop  offset="0" style="stop-color:#F9AB95"/>
							<stop  offset="0.420086" style="stop-color:#ED1C24"/>
							<stop  offset="0.426971" style="stop-color:#ED1C24"/>
							<stop  offset="0.872563" style="stop-color:#ED1C24"/>
							<stop  offset="1" style="stop-color:#981015"/>
						</radialGradient>
						<path id="path3584" class="st7" d="M10.5628996,506.2153625h0.0020561c0,0-0.0219278-0.0435181,0.0113068-0.0715942l0,0
							c0,0,0.0308361-0.0233154,0.0603018-0.0051575l0,0c0.6413946,0.318634,3.3070164,1.674408,4.4112959,2.750946l0,0
							c0,0,0.6992979,0.561554,0.7366447,1.4630127l0,0c0.0805168,1.2532959-1.1789732,2.4131165-1.1789732,2.4131165l0,0
							C14.6055317,512.765686,12.2712278,509.9410706,10.5628996,506.2153625"/>
					</g>
				</g>
			</g>
		</g>
	</g>
</g>
</svg>
