<svg width="29" height="29" viewBox="0 0 29 29" fill="none" xmlns="http://www.w3.org/2000/svg">
  <path d="M21.332 5.95831C21.9508 5.95831 22.5443 6.20415 22.9819 6.64173C23.4195 7.07932 23.6653 7.67281 23.6653 8.29165V18.2386C23.6651 18.602 23.7498 18.9603 23.9126 19.2851L25.1586 21.7666C25.2486 21.9451 25.2912 22.1437 25.2823 22.3434C25.2734 22.5431 25.2134 22.7371 25.108 22.9069C25.0026 23.0767 24.8554 23.2166 24.6804 23.3132C24.5054 23.4097 24.3085 23.4597 24.1086 23.4583H4.55531C4.35545 23.4597 4.15858 23.4097 3.98358 23.3132C3.80858 23.2166 3.66132 23.0767 3.55591 22.9069C3.45051 22.7371 3.3905 22.5431 3.38164 22.3434C3.37278 22.1437 3.41536 21.9451 3.50531 21.7666L4.75131 19.2851C4.91411 18.9603 4.9988 18.602 4.99864 18.2386V8.29165C4.99864 7.67281 5.24447 7.07932 5.68206 6.64173C6.11964 6.20415 6.71314 5.95831 7.33197 5.95831H21.332Z" stroke="#000" stroke-width="2.33333" stroke-linecap="round" stroke-linejoin="round"/>
  <path d="M23.7283 18.7765H4.93567" stroke="#000" stroke-width="2.33333" stroke-linecap="round" stroke-linejoin="round"/>
</svg>
