<?xml version="1.0" encoding="utf-8"?>
<!-- Generator: Adobe Illustrator 25.2.3, SVG Export Plug-In . SVG Version: 6.00 Build 0)  -->
<svg version="1.1" id="Layer_1" xmlns="http://www.w3.org/2000/svg" xmlns:xlink="http://www.w3.org/1999/xlink" x="0px" y="0px"
	 viewBox="0 0 99.9999847 100" style="enable-background:new 0 0 99.9999847 100;" xml:space="preserve">
<style type="text/css">
	.st0{fill:#0E5F8D;}
	.st1{fill:#1172BA;}
</style>
<g>
	<path class="st0" d="M25.768198,44.4351006H8.6809578c-5.634172,0-9.4672556-4.6643524-8.5436211-10.2523422l2.8632674-17.4105148
		c0.9236345-5.5879889,3.2789032-10.1599808,4.987627-10.1599808s3.3250847,4.6181731,3.3250847,10.2523441v4.5258102
		c0,5.6341724,4.2949009,9.6519833,9.9290724,9.6519833h4.5258102V44.4351006z"/>
	<path class="st1" d="M74.2520218,88.3077469c0,2.8170853-2.2629013,5.0799866-5.0799942,5.0799866H30.8411922
		c-2.8170853,0-5.0799904-2.2629013-5.0799904-5.0799866V24.115139c0-2.8170834,2.2629051-5.0799904,5.0799904-5.0799904h38.3308334
		c2.8170929,0,5.0799942,2.262907,5.0799942,5.0799904V88.3077469z"/>
	<path class="st0" d="M74.231781,44.4351006h17.0872421c5.6341705,0,9.4672546-4.6643524,8.5436249-10.2523422l-2.863266-17.4105148
		c-0.9236374-5.5879889-3.2789078-10.1599808-4.9876328-10.1599808c-1.7087173,0-3.3250809,4.6181731-3.3250809,10.2523441
		v4.5258102c0,5.6341724-4.294899,9.6519833-9.9290695,9.6519833H74.231781V44.4351006z"/>
</g>
</svg>
