<?xml version="1.0" encoding="UTF-8"?>
<svg id="Layer_1" data-name="Layer 1" xmlns="http://www.w3.org/2000/svg" version="1.1" viewBox="0 0 193.3 133.4">
  <defs>
    <style>
      .cls-1 {
        fill: #131313;
        stroke-width: 0px;
      }
    </style>
  </defs>
  <path class="cls-1" d="M192.6,130.1c.6.5.8,1.3.5,2-.3.7-1,1.2-1.7,1.2h-39.8c-.4,0-.9-.2-1.2-.4l-43.7-37.8c-.4-.4-.6-.9-.6-1.4s.2-1,.6-1.4l19.9-17.2c.7-.6,1.7-.6,2.4,0l63.5,55ZM126.7,58.2c.3.3.8.4,1.2.4s.9-.2,1.2-.4L192.6,3.2c.6-.5.8-1.3.5-2-.3-.7-1-1.2-1.7-1.2h-39.8c-.4,0-.9.2-1.2.4l-43.7,37.8c-.4.4-.6.9-.6,1.4s.2,1,.6,1.4l19.9,17.2ZM118.4,66.7c0-.5-.2-1-.6-1.4L42.8.4c-.3-.3-.8-.4-1.2-.4H1.8C1.1,0,.4.5.1,1.2c-.3.7,0,1.5.5,2l73.3,63.4L.6,130.1c-.6.5-.8,1.3-.5,2,.3.7,1,1.2,1.7,1.2h39.8c.4,0,.9-.2,1.2-.4l74.9-64.8c.4-.4.6-.9.6-1.4Z"/>
</svg>