<?xml version="1.0" encoding="UTF-8"?><svg xmlns="http://www.w3.org/2000/svg" xmlns:xlink="http://www.w3.org/1999/xlink" id="Layer_1" x="0px" y="0px" viewBox="0 0 70.7 48.2" style="enable-background:new 0 0 70.7 48.2;" xml:space="preserve"> <style type="text/css"> .st0{fill:#A8CB3A;} .st1{fill:#174489;} </style> <title>nutanix logo</title> <g> <path id="Fill-1" class="st0" d="M15.6,47.8c-0.2,0.2-0.4,0.3-0.7,0.3H1.1c-0.4,0-0.9-0.2-1-0.6c-0.2-0.5-0.1-1,0.3-1.3L25.5,25 c0.6-0.5,0.6-1.3,0-1.8L0.4,2C0.1,1.7-0.1,1.3,0,0.9C0.1,0.4,0.6,0,1.1,0h13.2c0.3,0,0.5,0.1,0.7,0.3l27.3,23l0.2,0.2 c0.4,0.4,0.4,1,0,1.4l-0.3,0.2L15.6,47.8"></path> <path id="Fill-8" class="st1" d="M46.6,20.2c0.4,0.4,1.1,0.4,1.5,0L70,2c0.3-0.3,0.5-0.7,0.4-1C70.3,0.4,69.8,0,69.3,0H56.1 c-0.3,0-0.5,0.1-0.7,0.3L40,12.8c-0.6,0.5-0.6,1.3,0,1.8L46.6,20.2"></path> <path id="Fill-9" class="st1" d="M46.5,28.1c0.4-0.4,1.1-0.4,1.5,0l22.2,18.2c0.3,0.3,0.5,0.7,0.4,1c-0.1,0.5-0.6,0.9-1.1,0.9H56.3 c-0.3,0-0.5-0.1-0.7-0.3L40.4,35.3c-0.6-0.5-0.6-1.3,0-1.8L46.5,28.1"></path> </g> </svg> 
