<?xml version="1.0" encoding="utf-8"?>
<!-- Generator: Adobe Illustrator 25.2.3, SVG Export Plug-In . SVG Version: 6.00 Build 0)  -->
<svg version="1.1" id="Layer_1" xmlns="http://www.w3.org/2000/svg" xmlns:xlink="http://www.w3.org/1999/xlink" x="0px" y="0px"
	 viewBox="0 0 100 100" style="enable-background:new 0 0 100 100;" xml:space="preserve">
<g>
	<path d="M82.0713043,30.3258209c-0.5390167,0-1.0780411,0-1.6170502,0
		c-2.2908401-7.2767525-9.0285721-12.5321827-17.1138496-12.5321827c-2.0213165,0-4.0426369,0.4042625-5.9292068,0.9432831
		C53.7728233,13.346735,47.5741119,9.977869,40.701622,9.977869c-9.5675793,0-17.6528606,6.7377319-19.8089352,15.6315403
		c-0.1347561,0-0.4042645,0-0.5390186,0c-11.1846371,0-20.2131977,8.8938065-20.3479519,19.9436874
		c-0.269509,11.1846352,9.0285625,20.34795,20.2131958,20.7522163v14.283989l10.2413521,1.2127991l4.312151-0.8085251v6.8724823
		l16.8443336,2.1560745l11.7236557-2.1560745V83.958168l5.6596947,0.6737747l8.7590485-1.6170502V46.2268677l-8.7590485-4.851162
		l-5.6596947,2.1560707v-4.7164116l-11.7236557-6.4682236l-17.1138382,6.4682236V50l-4.312151-2.2908325l-10.241354,3.9078865
		v10.1066017c-8.3547869-0.2695122-15.2272778-6.8724861-15.4967852-15.2272758
		c-0.2695103-8.8938065,6.872488-16.1705589,15.6315393-16.1705589c0,0,0.1347561,0,0.2695103,0h0.2695103h2.1560764
		c0.9432831,0,1.8865643-0.6737728,2.0213184-1.6170559l0.4042625-2.0213203
		c1.6170559-7.0072422,7.9505234-11.9931631,15.2272797-11.9931631c5.1206741,0,9.9718437,2.560338,12.9364433,6.7377329
		l1.2127914,1.6170559c0.5390205,0.8085289,1.4822998,1.0780373,2.4255829,0.8085289l1.751812-0.6737728
		c0.9432831-0.2695103,1.8865662-0.5390186,2.8298454-0.6737728c6.4682236-0.8085289,12.5321884,3.0993557,14.4187393,9.1633148
		l0.6737747,2.0213184c0.2695084,0.9432831,1.2127991,1.6170578,2.1560745,1.4822998l2.0213165-0.2695084
		c0.8085251,0,1.4822998,0,2.1560745,0c6.4682312,0.5390205,11.8584137,5.7944489,12.2626724,12.2626686
		c0.5390167,7.8157692-5.5249405,14.2839928-13.2059631,14.2839928h-0.1347504v4.7164154
		c9.9718475-0.134758,18.3266296-8.3547935,18.0571289-18.3266335
		C99.8589172,38.1415901,91.9083862,30.3258209,82.0713043,30.3258209z M63.3404045,77.7594604l4.1773949,0.2695007v-1.3475418
		l-4.1773949-0.1347504v-4.8511658l4.1773949-0.134758v-1.3475418l-4.1773949,0.2695007v-4.8511658l4.1773949-0.4042587v-3.9078865
		l-4.1773949,0.5390129v-4.8511658l4.1773949-0.9432831v-1.3475456l-4.1773949,1.0780373v-4.8511658l4.1773949-1.2127953v-1.3475456
		l-4.1773949,1.2127953v-4.4469032l5.6596947-2.0213203v39.6178627l-5.6596947-0.5390167V77.7594604z M36.3894768,40.2976646
		l15.36203-5.5249405V87.731308l-15.36203-1.6170654V40.2976646z M21.1622009,52.2908287l9.0285625-3.2341118v31.3978271
		l-9.0285625-0.9432831V52.2908287z M37.467514,73.3125534l12.1279182-0.4042664v1.2127914L37.467514,74.3905869V73.3125534z
		 M37.467514,56.0639572l12.1279182-2.4255829v6.063961L37.467514,61.5889015V56.0639572z M37.467514,64.6882553
		l12.1279182-1.3475456v6.063961L37.467514,70.2131958V64.6882553z M21.8359756,55.3901863l7.1419945-2.1560745v1.0780373
		l-7.1419945,2.0213203V55.3901863z M37.467514,51.7518082l12.1279182-2.9646034V50L37.467514,52.8298454V51.7518082z
		 M37.467514,77.6247101h12.1279182v1.2127914L37.467514,78.5679932V77.6247101z M37.467514,81.9368515l12.1279182,0.5390244
		v1.2127914L37.467514,83.0148926V81.9368515z M40.4321175,47.7091675l-2.9646034,0.8085289v-1.2127953l2.9646034-0.8085251
		V47.7091675z M44.8790169,43.5317764v4.8511658l-3.368866,0.8085251v-4.7164116L44.8790169,43.5317764z M21.8359756,64.5534973
		l7.1419945-1.0780334v3.0993576l-7.1419945,0.6737747V64.5534973z M21.8359756,59.9718437l7.1419945-1.617054v1.0780334
		l-7.1419945,1.4822998V59.9718437z M21.8359756,70.8869705l7.1419945-0.2695084v1.0780411l-7.1419945,0.2695007V70.8869705z
		 M46.2265663,44.8793221l3.5036163-0.9432831v1.2127953l-3.5036163,0.9432831V44.8793221z M21.8359756,75.4686279
		l7.1419945,0.2695007v1.0780411l-7.1419945-0.4042664V75.4686279z M37.467514,43.1275139l12.1279182-3.9078865v1.2127914
		L37.467514,44.2055511V43.1275139z"/>
</g>
</svg>
