<?xml version="1.0" encoding="utf-8"?>
<!-- Generator: Adobe Illustrator 24.0.2, SVG Export Plug-In . SVG Version: 6.00 Build 0)  -->
<svg version="1.1" id="Layer_1" xmlns="http://www.w3.org/2000/svg" xmlns:xlink="http://www.w3.org/1999/xlink" x="0px" y="0px"
	 viewBox="0 0 40.3 44" style="enable-background:new 0 0 40.3 44;" xml:space="preserve">
<style type="text/css">
	.st0{fill:#FFFFFF;}
	.st1{fill:#2C5967;}
</style>
<g>
	<g>
		<g>
			<g>
				<path class="st0" d="M9.5,12.8l0.1-2.1c0.1-1.9,1.2-3.6,2.9-4.5c0.2-0.1,0.3-0.3,0.4-0.5c0.3-1.4,1.2-2.5,2.5-3.1
					c0.5-0.2,1.1-0.4,1.7-0.4c0.1,0,0.3,0,0.4,0c0,0,0,0,0,0c0.2,0,0.4-0.1,0.5-0.2c1-1,2.4-1.6,3.8-1.6c2,0,3.7,1.1,4.6,2.9
					c0.1,0.2,0.3,0.3,0.5,0.4c0.6,0.1,1.2,0.4,1.7,0.7c2.3,1.5,3.1,4.5,1.8,6.9l-0.8,1.4l-0.7,1l-1-0.6c-2.3-1.6-5-2.5-7.8-2.5
					c-3.2,0-6.2,1.1-8.7,3.1l-2,1.6V12.8z"/>
				<path class="st0" d="M21.8,1c1.8,0,3.4,1,4.2,2.6c0.2,0.3,0.5,0.6,0.8,0.6c0.5,0.1,1,0.3,1.5,0.6c2.1,1.3,2.8,4.1,1.7,6.3
					l-0.8,1.4l-0.4,0.5l-0.6-0.4c-2.4-1.7-5.2-2.5-8.1-2.5c-3.3,0-6.5,1.2-9,3.2l-1.1,1l0-1.5l0.1-2c0.1-1.7,1.1-3.2,2.7-4.1
					c0.3-0.2,0.5-0.5,0.6-0.8c0.2-1.2,1.1-2.2,2.2-2.7c0.5-0.2,1-0.3,1.5-0.3c0.1,0,0.2,0,0.4,0c0,0,0.1,0,0.1,0
					c0.3,0,0.6-0.1,0.8-0.4C19.2,1.5,20.5,1,21.8,1 M21.8,0c-1.6,0-3.1,0.7-4.1,1.8c0,0,0,0-0.1,0c-0.2,0-0.3,0-0.5,0
					c-0.7,0-1.3,0.1-1.9,0.4c-1.4,0.6-2.5,1.9-2.8,3.5c0,0.1,0,0.1-0.1,0.1c-1.8,1-3,2.8-3.2,4.9L9,12.7l0,1.6l0,2.1l1.6-1.4l1.1-1
					c2.3-1.9,5.3-3,8.3-3c2.7,0,5.3,0.8,7.5,2.4l0.6,0.4l0.8,0.5l0.6-0.8l0.4-0.5l0-0.1l0-0.1l0.8-1.4c1.4-2.7,0.6-6-2-7.6
					c-0.6-0.4-1.2-0.6-1.8-0.8c0,0-0.1,0-0.1-0.1C25.9,1.2,23.9,0,21.8,0L21.8,0z"/>
			</g>
			<g>
				<path class="st0" d="M28.2,43.5c-2.1,0-4.1-1.3-4.9-3.3l-0.6-1.5l-0.3-1.2l1.1-0.3c2.7-0.7,5.1-2.2,6.9-4.4
					c2-2.4,3.2-5.5,3.2-8.6l0-2.9l2,2.1l1.5,1.4c1.4,1.3,1.9,3.3,1.5,5.1c0,0.2,0,0.4,0.1,0.6c0.9,1.1,1.2,2.6,0.8,3.9
					c-0.2,0.7-0.6,1.3-1.1,1.9c-0.1,0.1-0.2,0.3-0.2,0.5c0.2,1.4-0.3,2.9-1.2,4c-1,1.2-2.4,1.8-3.9,1.8c0,0,0,0,0,0
					c-0.4,0-0.8,0-1.2-0.1c-0.1,0-0.1,0-0.2,0c-0.2,0-0.3,0.1-0.4,0.1c-0.5,0.4-1,0.6-1.6,0.8C29.3,43.4,28.8,43.5,28.2,43.5z"/>
				<path class="st0" d="M34.2,22.4l1.2,1.2l1.5,1.4c1.2,1.2,1.8,3,1.4,4.6c-0.1,0.4,0,0.7,0.2,1c0.8,1,1,2.3,0.7,3.5
					c-0.2,0.6-0.5,1.2-1,1.6c-0.3,0.3-0.4,0.6-0.3,0.9c0.2,1.3-0.2,2.6-1.1,3.6c-0.9,1.1-2.2,1.7-3.5,1.7c-0.4,0-0.7,0-1.1-0.1
					c-0.1,0-0.2,0-0.3,0c-0.3,0-0.5,0.1-0.7,0.3c-0.4,0.3-0.9,0.6-1.4,0.8c-0.5,0.2-1,0.2-1.4,0.2c-1.9,0-3.7-1.2-4.4-3l-0.6-1.5
					l-0.2-0.7l0.7-0.2c2.8-0.7,5.3-2.3,7.2-4.5c2.1-2.5,3.3-5.7,3.3-9L34.2,22.4 M33.3,20l0,2.4l0,1.7c0,3-1.1,6-3.1,8.3
					c-1.7,2.1-4,3.5-6.7,4.2l-0.7,0.2l-0.9,0.3l0.2,0.9l0.2,0.7l0,0.1l0,0.1l0.6,1.5c0.9,2.2,3,3.7,5.4,3.7c0.6,0,1.2-0.1,1.7-0.3
					c0.6-0.2,1.2-0.5,1.8-0.9c0,0,0.1,0,0.1,0c0.5,0.1,0.9,0.2,1.4,0.2c1.7,0,3.2-0.7,4.3-2c1-1.2,1.5-2.8,1.3-4.3c0,0,0-0.1,0-0.1
					c0.6-0.6,1-1.3,1.2-2.1c0.4-1.5,0.1-3.1-0.9-4.4c0-0.1,0-0.1,0-0.2c0.4-2-0.2-4.1-1.7-5.6l-1.5-1.4L35,21.7L33.3,20L33.3,20z"/>
			</g>
			<g>
				<path class="st0" d="M12.1,43.5c-0.5,0-1.1-0.1-1.6-0.2c-0.6-0.2-1.1-0.5-1.6-0.8c-0.1-0.1-0.3-0.1-0.4-0.1c-0.1,0-0.1,0-0.2,0
					c-0.4,0.1-0.8,0.2-1.2,0.2c-1.5,0-2.9-0.7-3.9-1.8c-0.9-1.1-1.4-2.5-1.2-3.9c0-0.2,0-0.4-0.2-0.5c-0.5-0.5-0.9-1.1-1.1-1.9
					c-0.4-1.3-0.1-2.8,0.8-3.9c0.1-0.2,0.2-0.4,0.1-0.6c-0.4-1.9,0.1-3.8,1.5-5.1l1.5-1.4l2-2.1l0,2.9c0,3.2,1.2,6.2,3.2,8.6
					c1.8,2.1,4.2,3.6,6.9,4.4l1.1,0.3l-0.3,1.2L17,40.1C16.2,42.2,14.3,43.5,12.1,43.5z"/>
				<path class="st0" d="M6.1,22.5l0,1.7c0,3.3,1.2,6.4,3.3,8.9c1.9,2.2,4.4,3.8,7.2,4.5l0.7,0.2l-0.2,0.8L16.6,40
					c-0.7,1.9-2.5,3-4.4,3c-0.5,0-1-0.1-1.4-0.2c-0.5-0.2-1-0.4-1.4-0.7c-0.2-0.2-0.5-0.2-0.7-0.2c-0.1,0-0.2,0-0.3,0
					C7.8,41.9,7.5,42,7.1,42c-1.3,0-2.6-0.6-3.5-1.6c-0.8-1-1.2-2.3-1.1-3.6c0-0.3-0.1-0.7-0.3-0.9c-0.5-0.4-0.8-1-1-1.6
					c-0.4-1.2-0.1-2.5,0.7-3.5c0.2-0.3,0.3-0.6,0.2-1c-0.4-1.7,0.1-3.4,1.4-4.6l1.5-1.4L6.1,22.5 M7.1,20.1l-1.7,1.7L4.2,23
					l-1.5,1.4c-1.5,1.5-2.1,3.6-1.7,5.6c0,0.1,0,0.1,0,0.2c-1,1.2-1.3,2.9-0.8,4.4c0.2,0.8,0.7,1.5,1.2,2.1c0,0,0.1,0.1,0,0.1
					c-0.2,1.6,0.3,3.1,1.3,4.3c1.1,1.3,2.6,2,4.3,2c0.5,0,0.9-0.1,1.4-0.2c0,0,0,0,0,0c0.1,0,0.1,0,0.1,0c0.5,0.4,1.1,0.7,1.8,0.9
					c0.6,0.2,1.1,0.3,1.7,0.3c2.4,0,4.5-1.5,5.4-3.7l0.5-1.4l0-0.1l0-0.1l0.2-0.8l0.2-1l-0.9-0.2l-0.7-0.2c-2.6-0.7-4.9-2.1-6.7-4.2
					c-2-2.3-3.1-5.3-3.1-8.3l0-1.7L7.1,20.1L7.1,20.1z"/>
			</g>
			<g>
				<path class="st0" d="M20.2,36.4c-5,0-9.6-3.1-11.4-7.8H8.6l0-0.4c-0.5-1.3-0.7-2.7-0.7-4.1c0-6.8,5.5-12.3,12.3-12.3
					s12.3,5.5,12.3,12.3c0,1.4-0.2,2.8-0.7,4.1v0.4l-0.2,0C29.8,33.3,25.2,36.4,20.2,36.4z"/>
				<path class="st0" d="M20.2,12.3c6.5,0,11.8,5.3,11.8,11.8c0,1.4-0.2,2.7-0.7,4v0h0c-1.6,4.5-6,7.8-11.1,7.8s-9.4-3.2-11.1-7.8h0
					v0c-0.5-1.2-0.7-2.6-0.7-4C8.4,17.6,13.7,12.3,20.2,12.3 M20.2,11.3c-7.1,0-12.8,5.7-12.8,12.8c0,1.4,0.2,2.8,0.7,4.2v0.8l0.3,0
					c2,4.7,6.6,7.8,11.8,7.8c5.1,0,9.8-3.1,11.8-7.8h0.3l0-0.9c0.5-1.3,0.7-2.7,0.7-4.2C33,17.1,27.2,11.3,20.2,11.3L20.2,11.3z"/>
			</g>
		</g>
		<g>
			<path class="st1" d="M20.1,10.1c2.9,0,5.7,0.9,8.1,2.5l0.6,0.4l0.4-0.5l0.8-1.4c1.2-2.2,0.5-5-1.7-6.3c-0.5-0.3-1-0.5-1.5-0.6
				c-0.4-0.1-0.7-0.3-0.8-0.6C25.1,2,23.5,1,21.8,1c-1.3,0-2.5,0.5-3.4,1.5c-0.2,0.3-0.6,0.4-0.9,0.3c-0.6-0.1-1.3,0-1.9,0.3
				c-1.1,0.5-2,1.5-2.2,2.7c-0.1,0.3-0.3,0.6-0.6,0.8c-1.5,0.8-2.5,2.3-2.7,4.1l-0.1,2l0,1.5l1.1-1C13.6,11.3,16.8,10.1,20.1,10.1z
				 M11.5,10.8c0.1-1.2,0.8-2.3,1.9-2.9c0.7-0.4,1.2-1,1.3-1.8c0.2-0.8,0.7-1.4,1.4-1.7c0.3-0.1,0.6-0.2,1-0.2c0.1,0,0.1,0,0.2,0
				c0.8,0.1,1.6-0.2,2.1-0.8c0.6-0.7,1.5-1,2.4-1c1.2,0,2.4,0.7,2.9,1.8c0.4,0.7,1,1.2,1.8,1.4c0.4,0.1,0.7,0.2,1.1,0.4
				c1.5,0.9,2,2.9,1.2,4.4l-0.4,0.6c-2.5-1.6-5.3-2.4-8.2-2.4c-3.1,0-6.1,0.9-8.7,2.6L11.5,10.8z"/>
			<path class="st1" d="M38.5,30.7c-0.2-0.3-0.3-0.6-0.2-1c0.4-1.7-0.1-3.4-1.4-4.6l-1.5-1.4l-1.2-1.2l0,1.7c0,3.3-1.2,6.5-3.3,9
				c-1.9,2.2-4.4,3.8-7.2,4.5l-0.7,0.2l0.2,0.7l0.6,1.5c0.7,1.9,2.5,3,4.4,3c0.5,0,1-0.1,1.4-0.2c0.5-0.2,1-0.4,1.4-0.8
				c0.3-0.2,0.7-0.3,1-0.2c1.7,0.4,3.5-0.2,4.7-1.5c0.8-1,1.2-2.3,1.1-3.6c0-0.3,0.1-0.7,0.3-0.9c0.5-0.5,0.8-1,1-1.6
				C39.5,32.9,39.3,31.6,38.5,30.7z M37.9,33.7c-0.1,0.4-0.3,0.8-0.6,1c-0.6,0.6-0.8,1.3-0.7,2.1c0.1,0.9-0.2,1.8-0.7,2.5
				c-0.8,0.9-2,1.4-3.3,1.1c-0.8-0.2-1.6,0-2.2,0.5c-0.3,0.2-0.7,0.4-1,0.5c-1.7,0.5-3.5-0.3-4.1-2l-0.3-0.7
				c2.8-0.9,5.2-2.5,7.1-4.8c2-2.4,3.2-5.3,3.6-8.3l0.4,0.4c0.9,0.9,1.3,2.1,1,3.3c-0.2,0.8,0,1.6,0.5,2.2
				C37.9,32.2,38.1,33,37.9,33.7z"/>
			<path class="st1" d="M9.4,33.1c-2.1-2.5-3.3-5.7-3.3-8.9l0-1.7l-1.2,1.2l-1.5,1.4c-1.2,1.2-1.7,2.9-1.4,4.6c0.1,0.4,0,0.7-0.2,1
				c-0.8,1-1,2.3-0.7,3.5c0.2,0.6,0.5,1.2,1,1.6c0.3,0.3,0.4,0.6,0.3,0.9c-0.2,1.3,0.2,2.6,1.1,3.6c1.1,1.4,2.9,1.9,4.7,1.5
				c0.4-0.1,0.7,0,1,0.2c0.4,0.3,0.9,0.6,1.4,0.7c0.5,0.1,1,0.2,1.4,0.2c1.9,0,3.7-1.2,4.4-3l0.5-1.4l0.2-0.8l-0.7-0.2
				C13.8,36.9,11.3,35.3,9.4,33.1z M15.3,39.5c-0.6,1.6-2.5,2.5-4.1,2c-0.4-0.1-0.7-0.3-1-0.5c-0.5-0.4-1-0.5-1.6-0.5
				c-0.2,0-0.4,0-0.6,0.1c-1.2,0.3-2.5-0.1-3.3-1.1c-0.6-0.7-0.9-1.6-0.8-2.5c0.1-0.8-0.2-1.5-0.8-2.1c-0.3-0.3-0.5-0.6-0.6-1
				c-0.2-0.8-0.1-1.6,0.4-2.2c0.5-0.6,0.7-1.4,0.5-2.2c-0.3-1.2,0.1-2.5,1-3.3l0.4-0.4c0.3,3.1,1.6,6,3.6,8.3
				c1.9,2.2,4.4,3.9,7.1,4.7L15.3,39.5z"/>
			<path class="st1" d="M31.3,28.1L31.3,28.1L31.3,28.1c0.5-1.3,0.7-2.6,0.7-4c0-6.5-5.3-11.8-11.8-11.8S8.4,17.6,8.4,24.1
				c0,1.4,0.2,2.7,0.7,4v0h0c1.6,4.5,6,7.8,11.1,7.8S29.6,32.7,31.3,28.1z M24.6,27.3l-1.3,1.3l-0.5,0.5c-0.6,1.8-1.5,3.4-2.6,4.9
				c-1.1-1.4-2-3.1-2.6-4.8L17,28.7l-1.3-1.3L15,26.7h-4.9c-0.2-0.8-0.3-1.7-0.3-2.6c0-0.8,0.1-1.7,0.3-2.4H15l0.7-0.7l1.3-1.3
				l0.6-0.6c0.6-1.8,1.5-3.5,2.6-5c1.2,1.5,2.1,3.3,2.7,5.1l0.4,0.4l1.3,1.3l0.7,0.7h5c0.2,0.8,0.3,1.6,0.3,2.4
				c0,0.9-0.1,1.8-0.3,2.6h-5L24.6,27.3z M29.8,20.3h-5.3c-0.5-2.3-1.5-4.5-2.9-6.4C25.4,14.4,28.5,16.9,29.8,20.3z M18.6,13.8
				c-1.4,1.9-2.3,4.1-2.9,6.4h-5.3C11.9,16.9,14.9,14.4,18.6,13.8z M10.6,28.1h5.2c0.5,2.2,1.5,4.4,2.8,6.3
				C15,33.8,12,31.4,10.6,28.1z M21.7,34.4c1.3-1.9,2.3-4,2.8-6.3h5.2C28.4,31.4,25.4,33.8,21.7,34.4z"/>
			<path class="st1" d="M21.2,27.5c0.2-0.1,0.4-0.1,0.5-0.2l0.8,0.7l1.3-1.3l-0.7-0.8c0.1-0.2,0.2-0.4,0.2-0.5l1.1-0.1v-1.9
				l-1.1-0.1c-0.1-0.2-0.1-0.4-0.2-0.5l0.7-0.8l-1.3-1.3l-0.8,0.7c-0.2-0.1-0.4-0.2-0.5-0.2l-0.1-1.1h-1.9l-0.1,1.1
				c-0.2,0.1-0.4,0.1-0.5,0.2l-0.8-0.7l-1.3,1.3l0.7,0.8c-0.1,0.2-0.2,0.4-0.2,0.5l-1.1,0.1v1.9l1.1,0.1c0.1,0.2,0.1,0.4,0.2,0.5
				l-0.7,0.8l1.3,1.3l0.8-0.7c0.2,0.1,0.4,0.2,0.5,0.2l0.1,1.1h1.9L21.2,27.5z M20.1,22.3c1,0,1.9,0.9,1.9,1.9c0,1-0.9,1.9-1.9,1.9
				s-1.9-0.9-1.9-1.9C18.2,23.1,19.1,22.3,20.1,22.3z"/>
		</g>
	</g>
</g>
</svg>
