<?xml version="1.0" encoding="UTF-8"?>
<svg width="24" height="24" fill="none" version="1.1" viewBox="0 0 24 24" xmlns="http://www.w3.org/2000/svg"><path transform="matrix(.045442 0 0 .045442 -4.3874 -4.3529)" d="m304.25 294.61v-45.583c0-3.839 1.441-6.719 4.798-8.636l91.648-52.78c12.475-7.197 27.35-10.554 42.702-10.554 57.577 0 94.046 44.624 94.046 92.124 0 3.358 0 7.197-0.481 11.036l-95.005-55.66c-5.757-3.357-11.517-3.357-17.274 0zm214 177.53v-108.92c0-6.719-2.881-11.517-8.637-14.875l-120.43-70.053 39.345-22.553c3.358-1.917 6.238-1.917 9.596 0l91.647 52.78c26.392 15.356 44.143 47.982 44.143 79.648 0 36.465-21.59 70.054-55.66 83.97zm-242.31-95.963-39.345-23.03c-3.357-1.917-4.798-4.798-4.798-8.637v-105.56c0-51.339 39.345-90.207 92.606-90.207 20.155 0 38.864 6.719 54.702 18.714l-94.524 54.701c-5.756 3.357-8.636 8.155-8.636 14.875v139.15zm84.689 48.94-56.38-31.667v-67.172l56.38-31.667 56.376 31.667v67.172zm36.226 145.87c-20.154 0-38.863-6.719-54.701-18.713l94.523-54.702c5.757-3.357 8.637-8.155 8.637-14.875v-139.15l39.827 23.03c3.357 1.917 4.798 4.797 4.798 8.637v105.56c0 51.339-39.827 90.207-93.084 90.207zm-113.72-107-91.648-52.779c-26.392-15.357-44.143-47.982-44.143-79.649 0-36.946 22.072-70.053 56.137-83.969v109.4c0 6.719 2.881 11.517 8.637 14.875l119.96 69.571-39.345 22.553c-3.357 1.917-6.238 1.917-9.595 0zm-5.275 78.69c-54.22 0-94.046-40.785-94.046-91.166 0-3.839 0.481-7.678 0.958-11.517l94.524 54.701c5.756 3.358 11.517 3.358 17.273 0l120.43-69.571v45.583c0 3.839-1.44 6.719-4.798 8.636l-91.647 52.78c-12.476 7.197-27.351 10.554-42.703 10.554zm118.99 57.096c58.059 0 106.52-41.263 117.56-95.964 53.739-13.916 88.286-64.297 88.286-115.64 0-33.589-14.393-66.214-40.304-89.726 2.399-10.077 3.839-20.154 3.839-30.226 0-68.613-55.66-119.96-119.96-119.96-12.952 0-25.428 1.917-37.904 6.238-21.595-21.113-51.344-34.547-83.97-34.547-58.058 0-106.52 41.262-117.56 95.963-53.739 13.916-88.286 64.297-88.286 115.64 0 33.589 14.393 66.214 40.304 89.726-2.399 10.077-3.839 20.154-3.839 30.227 0 68.613 55.66 119.96 119.96 119.96 12.953 0 25.429-1.917 37.905-6.238 21.59 21.113 51.339 34.548 83.969 34.548z" clip-path="url(#clipPath989)" fill="#000" stroke-width="484.28"/><defs><clipPath id="clipPath989"><rect x=".60694" y=".099979" width="720" height="720" fill="#fff"/></clipPath></defs></svg>
