<?xml version="1.0" encoding="utf-8"?>
<!-- Generator: Adobe Illustrator 25.2.3, SVG Export Plug-In . SVG Version: 6.00 Build 0)  -->
<svg version="1.1" id="Layer_1" xmlns="http://www.w3.org/2000/svg" xmlns:xlink="http://www.w3.org/1999/xlink" x="0px" y="0px"
	 viewBox="0 0 100 100" style="enable-background:new 0 0 100 100;" xml:space="preserve">
<style type="text/css">
	.st0{opacity:0.98;}
	.st1{fill:#EC1944;}
</style>
<g class="st0">
	<path class="st1" d="M90.4483566,1.1695803H9.3567247C4.288497,1.1695803,0.1949288,5.2631488,0,10.5263052v21.8323593h22.6120853
		v-3.50877c0-2.7290478,2.3391819-5.068222,5.068224-5.068222h44.6393852c2.7290421,0,5.068222,2.3391819,5.068222,5.068222v3.50877
		H99.805069V10.3313761C99.6101456,5.2631488,95.5165787,1.1695803,90.4483566,1.1695803z"/>
	<path class="st1" d="M77.1929855,71.1500931c0,2.7290497-2.33918,5.0682297-5.068222,5.0682297H27.6803093
		c-2.7290497,0-5.068224-2.3391876-5.068224-5.0682297v-3.5087662H0.1949288v21.8323593
		c0,5.068222,4.0935683,9.1617889,9.3567238,9.3567352h81.0916138c5.0682297,0,9.1617889-4.0935669,9.3567352-9.3567352V67.6413193
		H77.1929855V71.1500931z"/>
	<rect x="0.1949288" y="38.5964851" class="st1" width="22.4171562" height="22.4171562"/>
	<rect x="77.1929855" y="38.5964851" class="st1" width="22.4171562" height="22.4171562"/>
</g>
</svg>
