<?xml version="1.0" encoding="UTF-8" standalone="no"?>
<!-- Created with Inkscape (http://www.inkscape.org/) -->
<svg
   xmlns:svg="http://www.w3.org/2000/svg"
   xmlns="http://www.w3.org/2000/svg"
   version="1.0"
   width="662.84644"
   height="94.145668"
   id="svg115845">
  <defs
     id="defs115847">
    <clipPath
       id="clp82">
      <path
         d="M 1001.6,870.49 L 1036.3,870.49 L 1036.3,857.41 L 1001.6,857.41 L 1001.6,870.49 z "
         id="path1826" />
    </clipPath>
    <clipPath
       id="clp83">
      <path
         d="M 1001.6,870.49 L 1036.3,870.49 L 1036.3,857.41 L 1001.6,857.41 L 1001.6,870.49 z "
         id="path1835" />
    </clipPath>
    <clipPath
       id="clp84">
      <path
         d="M 1001.6,870.49 L 1036.3,870.49 L 1036.3,857.41 L 1001.6,857.41 L 1001.6,870.49 z "
         id="path1844" />
    </clipPath>
    <clipPath
       id="clp81">
      <path
         d="M 1000.9,934.34 L 1038.6,934.34 L 1038.6,922.24 L 1000.9,922.24 L 1000.9,934.34 z "
         id="path1800" />
    </clipPath>
    <clipPath
       id="clipPath116030">
      <path
         d="M 1001.6,870.49 L 1036.3,870.49 L 1036.3,857.41 L 1001.6,857.41 L 1001.6,870.49 z "
         id="path116032" />
    </clipPath>
    <clipPath
       id="clipPath116038">
      <path
         d="M 1001.6,870.49 L 1036.3,870.49 L 1036.3,857.41 L 1001.6,857.41 L 1001.6,870.49 z "
         id="path116040" />
    </clipPath>
    <clipPath
       id="clipPath116046">
      <path
         d="M 1001.6,870.49 L 1036.3,870.49 L 1036.3,857.41 L 1001.6,857.41 L 1001.6,870.49 z "
         id="path116048" />
    </clipPath>
  </defs>
  <g
     transform="translate(-702.6538,-712.5837)"
     id="layer1">
    <g
       id="g16337">
      <path
         d="M 980.65099,771.70039 L 1021.3029,771.70039 L 999.80762,737.1177 L 960.35637,799.64472 L 942.40142,799.64472 L 990.38729,724.53644 C 992.47368,721.50175 995.95082,719.66834 999.80762,719.66834 C 1003.5375,719.66834 1007.0147,721.43856 1009.0379,724.41 L 1057.2134,799.64472 L 1039.2584,799.64472 L 1030.7865,785.67256 L 989.62847,785.67256 L 980.65099,771.70039 z M 1167.1573,785.67256 L 1167.1573,720.42701 L 1151.9207,720.42701 L 1151.9207,792.05805 C 1151.9207,794.01795 1152.6795,795.9146 1154.1335,797.3687 C 1155.5874,798.82285 1157.5474,799.64472 1159.697,799.64472 L 1229.1786,799.64472 L 1238.1561,785.67256 L 1167.1573,785.67256 z M 915.08933,773.97641 C 929.88361,773.97641 941.89588,762.02739 941.89588,747.23331 C 941.89588,732.43928 929.88361,720.42701 915.08933,720.42701 L 848.43367,720.42701 L 848.43367,799.64472 L 863.66423,799.64472 L 863.66423,734.39918 L 914.07773,734.39918 C 921.15891,734.39918 926.84882,740.15238 926.84882,747.23331 C 926.84882,754.31423 921.15891,760.06749 914.07773,760.06749 L 871.12457,760.00424 L 916.60647,799.64472 L 938.7347,799.64472 L 908.13505,773.97641 L 915.08933,773.97641 z M 754.67521,799.64472 C 732.80632,799.64472 715.05966,781.94244 715.05966,760.06749 C 715.05966,738.19249 732.80632,720.42701 754.67521,720.42701 L 800.71978,720.42701 C 822.59473,720.42701 840.32876,738.19249 840.32876,760.06749 C 840.32876,781.94244 822.59473,799.64472 800.71978,799.64472 L 754.67521,799.64472 z M 799.69555,785.67256 C 813.86396,785.67256 825.33883,774.22928 825.33883,760.06749 C 825.33883,745.90564 813.86396,734.39918 799.69555,734.39918 L 755.69287,734.39918 C 741.53103,734.39918 730.04958,745.90564 730.04958,760.06749 C 730.04958,774.22928 741.53103,785.67256 755.69287,785.67256 L 799.69555,785.67256 z M 1089.0142,799.64472 C 1067.1392,799.64472 1049.3739,781.94244 1049.3739,760.06749 C 1049.3739,738.19249 1067.1392,720.42701 1089.0142,720.42701 L 1143.7016,720.42701 L 1134.7873,734.39918 L 1090.0258,734.39918 C 1075.8639,734.39918 1064.3577,745.90564 1064.3577,760.06749 C 1064.3577,774.22928 1075.8639,785.67256 1090.0258,785.67256 L 1144.9659,785.67256 L 1135.9885,799.64472 L 1089.0142,799.64472 z M 1275.3309,785.67256 C 1263.6346,785.67256 1253.7087,777.83296 1250.6739,767.02192 L 1315.7932,767.02192 L 1324.7707,753.04976 L 1250.6739,753.04976 C 1253.7087,742.30196 1263.6346,734.39918 1275.3309,734.39918 L 1320.0292,734.39918 L 1329.0699,720.42701 L 1274.3193,720.42701 C 1252.4443,720.42701 1234.679,738.19249 1234.679,760.06749 C 1234.679,781.94244 1252.4443,799.64472 1274.3193,799.64472 L 1321.2936,799.64472 L 1330.271,785.67256 L 1275.3309,785.67256"
         style="fill:#f80000;fill-rule:nonzero;stroke:none"
         id="path16197" />
    </g>
  </g>
</svg>
