<?xml version="1.0" encoding="utf-8"?>
<!-- Generator: Adobe Illustrator 25.2.0, SVG Export Plug-In . SVG Version: 6.00 Build 0)  -->
<svg version="1.1" id="Layer_1" xmlns="http://www.w3.org/2000/svg" xmlns:xlink="http://www.w3.org/1999/xlink" x="0px" y="0px"
	 viewBox="0 0 100 100" style="enable-background:new 0 0 100 100;" xml:space="preserve">
<style type="text/css">
	.st0{fill:#F80000;}
</style>
<g>
	<path class="st0" d="M80.4,71h-1.2c-1.5,0-2.7-1.2-2.7-2.7c0-1.5,1.2-2.7,2.7-2.7h1.2c7.9,0,14.3-6.4,14.3-14.3
		c0-8-6.4-14.4-14.3-14.4c-0.4,0-0.7,0-1,0.1c-1.4,0.4-2.8-0.4-3.3-1.9c-1.8-5.9-7.4-9.9-13.6-9.9c-1.5,0-2.9,0.3-4.7,0.8
		c-1.2,0.4-2.4-0.1-3-1.1c-3-4.5-8.1-7.1-13.6-7.1c-7.6,0-14.3,5.3-16.1,12.7c-0.3,1.2-1.4,2.1-2.7,2.1h-0.5
		c-9.1,0-16.5,7.4-16.5,16.5c0,10.6,4.5,16.5,12.5,16.5c1.5,0,2.7,1.2,2.7,2.7S19.4,71,17.9,71C6.8,71,0,62.5,0,49.1
		C0,37.5,9.1,28,20.4,27.2c3-8.6,11.4-14.7,20.7-14.7c6.6,0,12.8,2.9,16.9,7.9c1.5-0.4,3-0.5,4.5-0.5c7.8,0,15,4.7,18,11.7
		c10.7,0.1,19.4,9,19.4,19.8C100.1,62.2,91.3,71,80.4,71z"/>
	<rect x="24.6" y="48" class="st0" width="11.5" height="6.5"/>
	<polygon class="st0" points="36.1,56 24.6,56 24.6,65.1 36.1,60.8 	"/>
	<path class="st0" d="M58.5,58.5c-0.1-0.1-0.1-0.3-0.1-0.4c0-0.1-0.1-0.1-0.1-0.3c-0.1-0.3-0.1-0.5,0-0.8l0.3-1.1h-7.7v4.7l11.5,4.4
		v-1.9l-3.6-4.5C58.6,58.7,58.6,58.6,58.5,58.5z"/>
	<rect x="37.6" y="48" class="st0" width="11.5" height="6.5"/>
	<rect x="37.6" y="39.9" class="st0" width="11.5" height="6.5"/>
	<polygon class="st0" points="50.8,48 50.8,54.6 58.9,54.6 60.4,48 	"/>
	<path class="st0" d="M42.1,87.5V61.1l-20.9,8.2C31.7,87.5,42.1,87.5,42.1,87.5z"/>
	<path class="st0" d="M44.5,87.5c0,0,10.4,0,20.9-18.2l-20.9-8.2V87.5z"/>
	<path class="st0" d="M85.9,57.1L85.9,57.1z"/>
	<path class="st0" d="M74.2,55.8L74.2,55.8c-0.1,0-0.1,0-0.2,0.1c-0.3,0.1-0.3,0.3-0.3,0.5l1,2.2c1-0.5,1.5-1.4,1.9-2.4L74.2,55.8z
		 M70.4,56.2c-0.1-0.1-0.3-0.3-0.4-0.3H70l-2.4,0.4c0.4,1,1,1.9,1.9,2.4l1-2.2C70.4,56.4,70.4,56.3,70.4,56.2z M72.4,57.1
		c-0.1-0.3-0.4-0.3-0.5-0.1c-0.1,0-0.1,0.1-0.1,0.1l-1.2,2.2c0.8,0.3,1.8,0.3,2.6,0.1c0.1,0,0.3-0.1,0.4-0.1L72.4,57.1z M76.2,52.1
		l-1.8,1.6c-0.1,0.1-0.1,0.4-0.1,0.5c0.1,0.1,0.1,0.1,0.3,0.1l2.3,0.7C77,54.1,76.7,53,76.2,52.1z M72.8,52.3c0,0.3,0.3,0.4,0.4,0.4
		c0.1,0,0.1,0,0.3-0.1l2-1.4c-0.8-0.8-1.7-1.2-2.8-1.3L72.8,52.3z M70.7,52.7c0.1,0.1,0.4,0.1,0.5-0.1c0.1-0.1,0.1-0.1,0.1-0.3
		l0.1-2.4c-0.1,0-0.3,0.1-0.4,0.1c-0.8,0.3-1.7,0.6-2.3,1.2L70.7,52.7z M69.6,54.4c0.3-0.1,0.3-0.3,0.3-0.4c0-0.1-0.1-0.1-0.1-0.3
		l-1.9-1.6c-0.5,1-0.8,1.9-0.7,3L69.6,54.4z M71.4,55.2l0.7,0.3l0.7-0.3l0.1-0.7L72.5,54h-0.8l-0.4,0.5L71.4,55.2z M83.2,56.6
		l-1.9-8.3c-0.1-0.4-0.4-0.8-0.8-1l-7.7-3.7c-0.4-0.3-0.8-0.3-1.3,0l-7.7,3.7c-0.4,0.3-0.7,0.5-0.8,1L61,56.6
		c-0.1,0.3-0.1,0.4,0,0.6c0,0.1,0,0.1,0.1,0.1c0,0.1,0.1,0.3,0.1,0.3c0,0.1,0.1,0.1,0.1,0.1l5.3,6.7l0.1,0.1
		c0.1,0.1,0.1,0.1,0.3,0.3s0.3,0.1,0.4,0.1c0.1,0,0.3,0.1,0.4,0.1h0.1h8.6c0.1,0,0.1,0,0.1,0s0.1,0,0.3-0.1c0.1,0,0.1,0,0.1-0.1
		c0.1,0,0.1,0,0.1-0.1c0.1,0,0.1-0.1,0.1-0.1c0.1-0.1,0.3-0.1,0.4-0.3l0.1-0.3l5.2-6.5c0.1-0.1,0.1-0.3,0.3-0.4
		c0-0.1,0.1-0.1,0.1-0.1C83.2,57.1,83.2,56.8,83.2,56.6z M75.1,59.8c0,0.1,0.1,0.1,0.1,0.1c-0.1,0.1-0.1,0.1,0,0.3
		c0.1,0.3,0.3,0.5,0.4,0.8c0.1,0.1,0.1,0.3,0.3,0.4c0,0,0.1,0.1,0.1,0.1c0.1,0.3,0.1,0.5-0.1,0.6c-0.3,0.1-0.5,0.1-0.6-0.1
		c0,0,0-0.1-0.1-0.1c0,0-0.1-0.1-0.1-0.1c-0.1-0.1-0.1-0.3-0.1-0.4c-0.1-0.3-0.1-0.5-0.3-0.8c-0.1-0.1-0.1-0.1-0.3-0.1l-0.1-0.1
		c-1.4,0.5-2.9,0.5-4.3,0l-0.1,0.1c-0.1,0-0.1,0.1-0.3,0.1c-0.1,0.3-0.3,0.5-0.4,0.8c0,0.1-0.1,0.3-0.1,0.4c0,0-0.1,0.1-0.1,0.1
		c-0.1,0.3-0.4,0.4-0.6,0.3c-0.3-0.1-0.4-0.4-0.3-0.6c0,0,0-0.1,0.1-0.1c0,0,0.1-0.1,0.1-0.1c0.1-0.1,0.1-0.3,0.3-0.4
		c0.1-0.3,0.3-0.4,0.4-0.8c0-0.1,0-0.1-0.1-0.3l0.1-0.3c-1.2-0.8-2.2-1.9-2.7-3.3h-0.3c-0.1-0.1-0.1-0.1-0.3-0.1
		c-0.3,0.1-0.5,0.1-0.8,0.3c-0.1,0.1-0.3,0.1-0.4,0.1c0,0-0.1,0-0.1,0c-0.3,0.1-0.5-0.1-0.6-0.3c-0.1-0.3,0.1-0.5,0.3-0.6h0.1
		c0.1,0,0.1,0,0.1,0c0.1,0,0.3,0,0.4,0c0.3,0,0.5-0.1,0.8-0.1c0.1-0.1,0.1-0.1,0.3-0.3l0.3-0.1c-0.3-1.5,0.1-2.9,1-4.2l-0.1-0.1
		c0-0.1,0-0.1-0.1-0.3c-0.3-0.1-0.4-0.3-0.7-0.4c-0.1-0.1-0.3-0.1-0.4-0.3l-0.1-0.1c-0.3-0.1-0.3-0.4-0.1-0.7
		c0.1-0.1,0.3-0.1,0.4-0.1c0.1,0,0.3,0.1,0.3,0.1l0.1,0.1c0.1,0.1,0.3,0.3,0.3,0.3c0.1,0.3,0.4,0.4,0.6,0.5c0.1,0.1,0.1,0.1,0.3,0
		c0.1,0.1,0.1,0.1,0.1,0.1c0.8-0.8,1.9-1.5,3-1.7c0.3-0.1,0.5-0.1,0.8-0.1v-0.3c0.1-0.1,0.1-0.1,0.1-0.3c0-0.3,0-0.5-0.1-0.8
		c0-0.1-0.1-0.3-0.1-0.4c0,0,0-0.1,0-0.1c0-0.3,0.1-0.4,0.4-0.5c0.3,0,0.4,0.1,0.5,0.4v0.1c0,0.1,0,0.1,0,0.1c0,0.1,0,0.3-0.1,0.4
		c-0.1,0.3-0.1,0.5-0.1,0.8c0,0.1,0.1,0.1,0.1,0.3c0,0,0,0.1,0,0.3c1.5,0.1,2.9,0.8,3.8,1.9l0.1-0.1c0.1,0,0.1,0,0.3,0
		c0.3-0.1,0.4-0.4,0.6-0.5c0.1-0.1,0.3-0.3,0.3-0.3l0.1-0.1c0.1-0.1,0.4-0.1,0.7,0c0.1,0.1,0.1,0.4,0,0.7l-0.1,0.1l-0.1,0.1
		c-0.1,0.1-0.3,0.1-0.4,0.3c-0.3,0.1-0.4,0.3-0.7,0.4c-0.1,0.1-0.1,0.1-0.1,0.3c0,0-0.1,0.1-0.1,0.1c0.8,1.2,1.2,2.7,1,4.2l0.1,0.1
		c0.1,0.1,0.1,0.1,0.3,0.3c0.3,0.1,0.5,0.1,0.8,0.1c0.1,0,0.3,0,0.4,0c0.1,0,0.1,0,0.1,0c0.3,0,0.4,0.3,0.4,0.5
		c0,0.3-0.3,0.4-0.5,0.4h-0.1c0,0-0.1,0-0.1,0c-0.1-0.1-0.3-0.1-0.4-0.1c-0.3-0.1-0.5-0.1-0.8-0.3c-0.1,0-0.1,0-0.3,0.1
		c-0.1,0-0.1,0-0.3,0C77.4,57.9,76.4,59.1,75.1,59.8z"/>
</g>
</svg>
