<svg height="590" preserveAspectRatio="xMidYMid meet" width="607" xmlns="http://www.w3.org/2000/svg"
    style="">
    <rect id="backgroundrect" width="100%" height="100%" x="0" y="0" fill="none" stroke="none" />

    <g class="currentLayer" style="">
        <title>Layer 1</title>
        <g id="svg_1" class="">
            <path
                d="m297.00000850856304,0.9336278513073921 c-37.30000055581331,2.600000038743019 -75.60000112652779,10.800000160932541 -88.30000131577253,18.900000281631947 c-3.9000000581145287,2.400000035762787 -4.700000070035458,3.500000052154064 -4.700000070035458,5.900000087916851 c0,3.8000000566244125 3.7000000551342964,6.500000096857548 12.10000018030405,8.800000131130219 c5.200000077486038,1.4000000208616257 10.600000157952309,1.700000025331974 28.90000043064356,1.5000000223517418 c49.0000007301569,-0.30000000447034836 87.70000130683184,4.200000062584877 112.80000168085098,12.90000019222498 c18.900000281631947,6.70000009983778 25.200000375509262,13.300000198185444 25.200000375509262,26.600000396370888 c-0.10000000149011612,18.500000275671482 -14.000000208616257,40.50000060349703 -46.40000069141388,72.90000108629465 c-20.40000030398369,20.40000030398369 -39.40000058710575,36.700000546872616 -65.1000009700656,55.90000083297491 c-29.10000043362379,21.700000323355198 -43.700000651180744,34.50000051409006 -46.60000069439411,40.90000060945749 c-1.600000023841858,3.500000052154064 -0.4000000059604646,7.1000001057982445 2.9000000432133675,8.50000012665987 c10.500000156462193,4.400000065565109 54.40000081062317,-15.20000022649765 97.70000145584345,-43.60000064969063 c66.30000098794699,-43.50000064820051 111.30000165849924,-93.20000138878822 120.00000178813934,-132.7000019773841 c2.3000000342726707,-10.200000151991844 1.700000025331974,-24.70000036805868 -1.4000000208616257,-32.600000485777855 c-7.600000113248825,-19.900000296533108 -33.20000049471855,-34.400000512599945 -72.20000107586384,-40.90000060945749 c-23.400000348687172,-3.9000000581145287 -48.20000071823597,-4.90000007301569 -74.90000111609697,-3.0000000447034836 z"
                stroke-width="0" id="svg_2" />
            <path
                d="m462.00001096725464,198.9336308017373 c-38.40000057220459,4.200000062584877 -65.70000097900629,16.100000239908695 -80.40000119805336,35.200000524520874 c-13.500000201165676,17.50000026077032 -12.300000183284283,38.60000057518482 3.9000000581145287,66.60000099241734 c9.80000014603138,16.900000251829624 22.600000336766243,33.5000004991889 60.200000897049904,77.60000115633011 c27.500000409781933,32.40000048279762 32.100000478327274,38.10000056773424 39.300000585615635,48.800000727176666 c15.600000232458115,23.400000348687172 16.300000242888927,40.40000060200691 2.0000000298023224,47.70000071078539 c-16.20000024139881,8.300000123679638 -41.40000061690807,10.900000162422657 -140.00000208616257,14.500000216066837 c-23.400000348687172,0.9000000134110452 -43.80000065267086,2.400000035762787 -48.50000072270632,3.6000000536441807 c-5.700000084936619,1.5000000223517418 -8.50000012665987,4.400000065565109 -8.50000012665987,9.00000013411045 c0,7.600000113248825 8.200000122189522,11.10000016540289 35.200000524520874,15.300000227987766 c86.70000129193068,13.40000019967556 161.60000240802765,12.10000018030405 200.70000299066305,-3.500000052154064 c29.000000432133675,-11.60000017285347 45.200000673532486,-34.60000051558018 42.100000627338886,-59.60000088810921 c-3.1000000461935997,-24.00000035762787 -20.800000309944153,-49.70000074058771 -82.10000122338533,-119.50000178068876 c-33.80000050365925,-38.500000573694706 -42.900000639259815,-53.30000079423189 -42.900000639259815,-70.00000104308128 c0,-11.200000166893005 5.100000075995922,-16.900000251829624 18.900000281631947,-21.200000315904617 c15.800000235438347,-4.90000007301569 30.100000448524952,-6.3000000938773155 85.40000127255917,-8.100000120699406 c45.80000068247318,-1.5000000223517418 52.700000785291195,-2.3000000342726707 57.40000085532665,-6.70000009983778 c6.800000101327896,-6.400000095367432 -2.3000000342726707,-14.900000222027302 -21.200000315904617,-19.700000293552876 c-8.800000131130219,-2.2000000327825546 -33.00000049173832,-6.400000095367432 -50.00000074505806,-8.700000129640102 c-13.300000198185444,-1.8000000268220901 -59.50000088661909,-2.7000000402331352 -71.50000106543303,-1.3000000193715096 z"
                stroke-width="0" id="svg_3" />
            <path
                d="m164.50000653415918,281.2336320281029 c-45.10000067204237,5.000000074505806 -81.50000121444464,13.90000020712614 -91.50000136345625,22.20000033080578 c-3.9000000581145287,3.300000049173832 -3.9000000581145287,6.500000096857548 0,9.80000014603138 c6.400000095367432,5.300000078976154 19.500000290572643,6.70000009983778 57.50000085681677,5.900000087916851 c80.0000011920929,-1.700000025331974 127.2000018954277,8.900000132620335 138.60000206530094,30.90000046044588 c3.0000000447034836,5.800000086426735 3.7000000551342964,18.900000281631947 1.5000000223517418,27.500000409781933 c-5.100000075995922,19.500000290572643 -19.900000296533108,40.80000060796738 -45.80000068247318,65.90000098198652 c-41.100000612437725,39.90000059455633 -100.80000150203705,75.30000112205744 -127.60000190138817,75.80000112950802 c-6.3000000938773155,0.10000000149011612 -7.600000113248825,-0.20000000298023224 -8.900000132620335,-1.9000000283122063 c-5.800000086426735,-7.800000116229057 10.500000156462193,-44.00000065565109 51.60000076889992,-114.40000170469284 c13.600000202655792,-23.20000034570694 19.200000286102295,-35.50000052899122 19.400000289082527,-42.60000063478947 c0.20000000298023224,-5.700000084936619 -1.5000000223517418,-7.500000111758709 -7.300000108778477,-7.500000111758709 c-3.8000000566244125,0 -5.900000087916851,0.800000011920929 -10.700000159442425,3.9000000581145287 c-7.900000117719173,5.100000075995922 -14.70000021904707,13.200000196695328 -34.400000512599945,40.80000060796738 c-35.00000052154064,48.90000072866678 -60.10000089555979,88.60000132024288 -82.70000123232603,130.40000194311142 c-18.30000027269125,33.70000050216913 -24.2000003606081,47.300000704824924 -24.2000003606081,55.40000082552433 c0,6.200000092387199 1.5000000223517418,7.000000104308128 12.400000184774399,6.800000101327896 c33.5000004991889,-0.6000000089406967 114.10000170022249,-30.90000046044588 173.80000258982182,-65.20000097155571 c79.80000118911266,-45.80000068247318 130.80000194907188,-98.90000147372484 150.40000224113464,-156.60000233352184 c3.400000050663948,-9.80000014603138 3.8000000566244125,-12.10000018030405 3.7000000551342964,-20.500000305473804 c0,-11.10000016540289 -2.1000000312924385,-17.50000026077032 -8.600000128149986,-27.3000004068017 c-12.300000183284283,-18.200000271201134 -44.40000066161156,-32.00000047683716 -88.700001321733,-38.20000056922436 c-15.70000023394823,-2.2000000327825546 -62.30000092834234,-2.8000000417232513 -78.50000116974115,-1.1000000163912773 z"
                stroke-width="0" id="svg_4" />
        </g>
    </g>
</svg>