<?xml version="1.0" encoding="utf-8"?>
<!-- Generator: Adobe Illustrator 24.3.0, SVG Export Plug-In . SVG Version: 6.00 Build 0)  -->
<svg version="1.1" id="Layer_1" xmlns="http://www.w3.org/2000/svg" xmlns:xlink="http://www.w3.org/1999/xlink" x="0px" y="0px"
	 viewBox="0 0 207.8 135.7" style="enable-background:new 0 0 207.8 135.7;" xml:space="preserve">
<style type="text/css">
	.st0{fill:#FF0000;}
</style>
<g>
	<g>
		<polygon class="st0" points="193.9,31.4 193.9,92.1 180,96.9 180,26.6 138.5,12.1 138.5,111.4 124.6,116.2 124.6,7.2 103.9,0 
			83.1,7.2 83.1,116.2 69.3,111.4 69.3,12.1 27.7,26.6 27.7,96.9 13.9,92.1 13.9,31.4 0,36.3 0,101.9 41.6,116.4 41.6,36.4 
			55.4,31.6 55.4,121.2 97,135.7 97,17.1 103.9,14.7 110.8,17.1 110.8,135.7 152.4,121.2 152.4,31.6 166.2,36.4 166.2,116.4 
			207.8,101.9 207.8,36.3 		"/>
	</g>
</g>
</svg>
