<?xml version="1.0" encoding="utf-8"?>
<!-- Generator: Adobe Illustrator 25.2.3, SVG Export Plug-In . SVG Version: 6.00 Build 0)  -->
<svg version="1.1" id="Layer_1" xmlns="http://www.w3.org/2000/svg" xmlns:xlink="http://www.w3.org/1999/xlink" x="0px" y="0px"
	 viewBox="0 0 100 100" style="enable-background:new 0 0 100 100;" xml:space="preserve">
<style type="text/css">
	.st0{fill-rule:evenodd;clip-rule:evenodd;fill:#343131;}
</style>
<path class="st0" d="M23.5912018,0h11.1920624L20.5575161,53.0939026H9.3644714L23.5912018,0z M83.6070862,18.3011951
	c-3.876976,0-7.0316925-3.1547155-7.0316925-7.0316925s3.1547165-7.031693,7.0316925-7.031693
	c3.8769684,0,7.0316849,3.154717,7.0316849,7.031693S87.4840546,18.3011951,83.6070862,18.3011951z M83.6070862,26.2755642
	c3.8769684,0,7.0316849,3.1547165,7.0316849,7.0316944s-3.1547165,7.0316925-7.0316849,7.0316925
	c-3.876976,0-7.0316925-3.1547165-7.0316925-7.0316925S79.7301102,26.2755642,83.6070862,26.2755642z M39.6352921,0.1297902
	l33.294754,19.2225208c2.2602615,1.3047867,2.2602615,4.5667629,0,5.8715496l-33.294754,19.2225208l-2.8703423-10.4865303
	l20.216362-11.6712723l-20.216362-11.6722565L39.6352921,0.1297902z M71.6586227,70.4775238v-3.5620956h25.1609726v3.5620956
	H71.6586227z M17.6240044,70.4779129v14.0200882h13.3745842v3.5630722H17.6240044V100h-3.7264223V88.0610733H0.5229979v-3.5630722
	h13.3745842V70.4779129H2.8796875v-3.5620956h25.7622089v3.5620956H17.6240044z M25.3259029,81.9621201h-3.6536083
	l2.8713245-8.7418823h3.6536064L25.3259029,81.9621201z M6.9776711,73.2204361l2.8713231,8.7418823H6.1953878l-2.8713243-8.7418823
	H6.9776711z M51.7056732,65.0365677v3.1143723h13.3745804v0.0186996v3.543396v3.3328171h-3.7254372v-3.3328171H38.3301086v3.3328171
	h-3.725441v-3.3328171v-3.543396v-0.0186996H47.979248v-3.1143723H51.7056732z M57.227314,88.4211197v-7.2520981H42.4574127
	v7.2520981l7.3849525,2.5830154L57.227314,88.4211197z M60.7618561,75.6615524v1.9453735h4.3178101v3.5620956h-4.3178101v9.759346
	l-5.5674973,1.9483261l8.9790344,3.1409378l-1.1680069,3.3367691l-13.1630211-4.6051407l-13.1630249,4.6051407l-1.1670265-3.3367691
	l8.9790382-3.1409378l-5.5684814-1.9483261v-9.759346h-4.3178101V77.606926h4.3178101v-1.9453735h3.5345421v1.9453735H57.227314
	v-1.9453735H60.7618561z M80.4099579,81.1688232l-6.2336731,14.5199585H94.302124l-4.4270325-10.312355h4.0019379
	l4.4250793,10.312355h0.0009766v3.5611115h-28.12677v-3.5611115l6.2326813-14.5199585h-7.4075851v-3.5620956H99.477005v3.5620956
	H80.4099579z"/>
</svg>
