<?xml version="1.0" encoding="utf-8"?>
<!-- Generator: Adobe Illustrator 25.2.3, SVG Export Plug-In . SVG Version: 6.00 Build 0)  -->
<svg version="1.1" id="pnap" xmlns="http://www.w3.org/2000/svg" xmlns:xlink="http://www.w3.org/1999/xlink" x="0px" y="0px"
	 viewBox="0 0 101 101" style="enable-background:new 0 0 101 101;" xml:space="preserve">
<style type="text/css">
	.st0{fill:#006CA8;}
	.st1{fill:#C52127;}
</style>
<g id="Logo_Globe_Color">
	<path id="Path_2569" class="st0" d="M83.2222443,18.6469288h-0.7264252
		c-5.4132385,0.0016575-10.8065948,0.6551208-16.0635986,1.9462719c-0.3440475-0.8082943-0.8059311-1.5611629-1.3706131-2.2341003
		c2.6866531-2.7866135,5.6127167-5.3320189,8.7445145-7.6069088c3.5522003,2.1116514,6.7294693,4.7979727,9.4024124,7.9495602
		 M42.2820015,68.6058044c-1.5344849,0.2136459-2.9681435,0.8874664-4.1118431,1.9325714
		c-3.3190613-3.4335251-6.2514381-7.2207909-8.7445183-11.2938538c3.8917198-2.897953,4.6973228-8.4020653,1.7993698-12.2937813
		c-0.0103836-0.0139465-0.0208092-0.0278625-0.0312767-0.0417442c-0.2961082-0.3937683-0.6263332-0.7606888-0.9868431-1.0964928
		c5.9978943-7.1382141,13.3662796-13.001236,21.6694107-17.2423306c0.2964363,0.5375042,0.6603127,1.0349522,1.0827866,1.4802666
		C46.0286903,41.7214813,42.3425484,55.0323029,42.2820015,68.6058044 M52.9042587,4.529603
		c6.5099678-0.0040283,12.9193039,1.6065493,18.6540604,4.6875c-2.9954376,2.2666292-5.8008118,4.774044-8.3881569,7.4972582
		c-1.2385902-0.7580013-2.6597786-1.1654072-4.1118431-1.1787291c-4.6773453,0.0825129-8.4021912,3.9411364-8.3196754,8.6184778
		c0.0000191,0.0008945,0.0000343,0.001791,0.0000496,0.0026855c0.0139847,0.7033215,0.1105919,1.402565,0.2878265,2.083334
		c-8.7444725,4.4545097-16.4868126,10.6483784-22.7521954,18.2017498c-1.809063-0.9610558-3.9301052-1.1489372-5.8799343-0.5208321
		c-2.1285267-6.5904198-3.3684444-13.4353218-3.6869507-20.3536148C26.1070633,11.8183203,38.9785118,4.6439867,52.8631439,4.529603
		 M16.541872,27.4188576c0.4903011,5.9423103,1.6724567,11.8070946,3.5224781,17.4753265
		c-2.3793602,1.6310425-3.8081512,4.324749-3.8240147,7.2094307c0.0011444,2.3945274,0.9934406,4.6817665,2.7412281,6.318531
		c-1.0745087,2.1782303-2.0352325,4.4107628-2.8782902,6.6885948c-2.691988-5.744648-4.0953722-12.0084267-4.1118412-18.35252
		c0.0371504-6.7120781,1.6076469-13.3269081,4.5915565-19.3393631 M17.6109505,68.0849762
		c0.9870853-2.8073425,2.1404438-5.5534325,3.4539471-8.2236824c1.1137943,0.565876,2.3418751,0.8705521,3.5910072,0.8908997
		c0.8637295-0.0179329,1.7211514-0.151619,2.5493431-0.3974838c2.6391106,4.3579445,5.7559566,8.4080162,9.2927608,12.0751152
		c-0.9064713,1.4248276-1.3823929,3.0810318-1.3706131,4.7697372c-0.0764084,4.6753693,3.6444969,8.5311432,8.3196259,8.6211624
		c0.2192993,0,0.4385948-0.0822296,0.6441917-0.0822296l0.6441879,2.6726913
		C33.1988144,85.8360062,23.321743,78.434433,17.6109505,68.0849762 M47.3395653,88.7538376
		c-0.3700676-1.1924362-0.6441917-2.3848648-0.9320183-3.563591c1.2166786-0.4775848,2.2986794-1.2443924,3.1524124-2.2341003
		c3.4366188,2.1161957,7.0394783,3.9497147,10.7730255,5.48246c-2.4403305,0.4653549-4.9171638,0.7130356-7.4013176,0.7401276
		c-1.8716545-0.0337601-3.7393532-0.1848221-5.5921059-0.452301 M64.5544739,87.3558197
		c-4.8024712-1.6567917-9.4007721-3.8547821-13.7061386-6.5515366c0.5519943-1.1857529,0.8462944-2.4750671,0.8634872-3.7828979
		c0.0434227-4.1945419-2.9756546-7.7953262-7.1134872-8.4841003c0.0428505-13.0494576,3.5627632-25.8517227,10.1973686-37.0888138
		c1.2318459,0.7732201,2.6574287,1.1818886,4.1118431,1.17873c4.6805153-0.0825653,8.4096909-3.9405422,8.3333359-8.6211643
		c-0.0163727-0.4236832-0.0667877-0.8453636-0.1507721-1.2609653c5.0570908-1.1948452,10.2367935-1.7928581,15.4331207-1.7817955
		c0.9320145,0,1.8640366,0.0685291,2.7412262,0.0685291c5.4924622,7.4278812,8.4609833,16.4199047,8.4703903,25.6578922
		c0.2726364,18.5125198-11.5644608,35.0366287-29.1803665,40.734642"/>
	<path id="Path_2570" class="st1" d="M93.5292587,27.83004c2.7337112,6.1569138,4.1349487,12.8221817,4.1118393,19.5586624
		c0,25.7264252-20.1891403,46.7242279-45.0794907,46.7242279S7.4684067,73.1836624,7.4684067,47.375
		S27.671257,0.6507671,52.5616074,0.6507671c1.3234558-0.0024901,2.6459732,0.0707282,3.961071,0.219298
		C54.5258713,0.6303368,52.5168228,0.5067748,50.5056839,0.5C23.9294815,0.5,2.3286042,22.950655,2.3286042,50.4999962
		S23.9294815,100.5,50.5056839,100.5s48.1633759-22.4506607,48.1633759-50.0000038
		c0.0754852-7.8566399-1.6795578-15.6229286-5.126091-22.6836586"/>
</g>
</svg>
