<?xml version="1.0" encoding="utf-8"?>
<!-- Generator: Adobe Illustrator 24.3.0, SVG Export Plug-In . SVG Version: 6.00 Build 0)  -->
<svg version="1.1" id="Layer_1" xmlns="http://www.w3.org/2000/svg" xmlns:xlink="http://www.w3.org/1999/xlink" x="0px" y="0px"
	 viewBox="0 0 136 111.4" style="enable-background:new 0 0 136 111.4;" xml:space="preserve">
<style type="text/css">
	.st0{fill:#FFFFFF;stroke:#000000;stroke-miterlimit:10;}
	.st1{fill:#2E68E9;}
</style>
<rect x="10.5" y="10.3" class="st0" width="114.5" height="90.7"/>
<g>
	<g>
		<g>
			<circle class="st1" cx="34.9" cy="76.4" r="7"/>
			<path class="st1" d="M71.5,58.7c-0.2,0-0.4,0-0.6,0c1.8,3.9,3,8.2,3.3,12.6h15c2.1-3.8,5.6-6.7,9.8-8v-4.6L71.5,58.7L71.5,58.7z"
				/>
			<path class="st1" d="M42.1,27.7v9.6c8.2,1.1,15.6,4.9,21.2,10.5l-4.9-20.2L42.1,27.7L42.1,27.7z"/>
			<circle class="st1" cx="104.3" cy="79.9" r="3.5"/>
			<path class="st1" d="M121.6,0H14.4C6.5,0,0,6.5,0,14.4V97c0,7.9,6.5,14.4,14.4,14.4h107.2c7.9,0,14.4-6.5,14.4-14.4V14.4
				C136,6.5,129.5,0,121.6,0z M34.9,97.4c-11.6,0-21-9.4-21-21s9.4-21,21-21s21,9.4,21,21S46.5,97.4,34.9,97.4z M104.3,97.4
				c-7.8,0-14.4-5.1-16.6-12.1H67.3c-3.9,0-7-3.1-7-7v-4.1C60.3,61.4,49.9,51,37.1,51H25.6c-3.9,0-7-3.1-7-7s3.1-7,7-7h2.5v-9.3
				h-2.5c-3.9,0-7-3.1-7-7s3.1-7,7-7H64c3.2,0,6,2.2,6.8,5.4L77,44.7h26.4c5.2,0,9.5,4.3,9.5,9.5v10.4c5.3,3,8.9,8.7,8.9,15.3
				C121.8,89.5,114,97.4,104.3,97.4z"/>
		</g>
	</g>
</g>
</svg>
