<?xml version="1.0" encoding="utf-8"?>
<!-- Generator: Adobe Illustrator 25.2.0, SVG Export Plug-In . SVG Version: 6.00 Build 0)  -->
<svg version="1.1" id="Layer_1" xmlns="http://www.w3.org/2000/svg" xmlns:xlink="http://www.w3.org/1999/xlink" x="0px" y="0px"
	 viewBox="0 0 100 100" style="enable-background:new 0 0 100 100;" xml:space="preserve">
<style type="text/css">
	.st0{fill:#00A1FF;}
	.st1{fill:#00C4D6;}
	.st2{fill:#006EFF;}
</style>
<g>
	<g transform="translate(7 10)">
		<path class="st0" d="M79.3000031,63.4000015c-1.8000031,1.8000031-5,3.6999969-10.3000031,4c-2.4000015,0-5.2999992,0-6.5999985,0
			H34l20.2999992-19.7999992C55.8999977,46.0000038,57.5,44.4000015,59,43.1000023c4-3.7000008,7.5999985-4.2000008,10-4.2000008
			c4,0,7.5999985,1.5999985,10.3000031,4.2000008C85.1999969,48.9000015,85.1999969,57.7999992,79.3000031,63.4000015
			 M86.1999969,36.7999992c-4.5-4.5-10.5999985-7.1000004-16.5999985-7.1000004
			c-5.7999992,0-10.5999985,1.7999992-14.7999992,5.4999981c-2.0999985,1.5999985-4,3.4000015-6.5999985,5.7999992
			L11.8000002,76.3000031c1.8000002,0.3000031,4.499999,0.3000031,6.5999994,0.3000031s42.6999969,0,44.5999985,0
			c3.4000015,0,5.5,0,8.1999969-0.3000031c5.5-0.5,10.5999985-2.4000015,14.8000031-6.5999985
			C95.1999969,61,95.4000015,46.2000008,86.1999969,36.7999992L86.1999969,36.7999992"/>
	</g>
	<g transform="translate(0 10)">
		<path class="st1" d="M37.2999992,34.7000008C33.0999985,31.5,28.5999985,30,23.2999992,30
			C17,30,10.8999996,32.5999985,6.6999989,37.0999985c-9,9.2000008-9,24,0.3000002,33.2000046l0,0
			c3.6999998,3.6999969,8.1999998,5.5,13.1999998,6.3000031l9-8.6999969c-1.7999992,0-3.7000008,0-5.5,0
			c-5.3000011-0.3000031-8.3999996-2.0999985-10.3000002-4c-5.6999998-6-5.9000001-14.9000015-0.3999996-20.5
			c2.5999994-2.5999985,6.3000002-4.2000008,10.3000002-4.2000008c2.3999996,0,5.7999992,0.7999992,9.7999992,4
			c1.7999992,1.5999985,5.7999992,5,7.5999985,6.5999985H41l6.2999992-6.2999992v-0.2999992l0,0
			C44.0999985,40.4000015,39.9000015,36.5999985,37.2999992,34.7000008"/>
	</g>
	<g transform="translate(7)">
		<path class="st2" d="M71.6999969,33.4000015c-4.1999969-11.6000004-15.7999992-20-29.2999992-20
			c-15.6000004,0-28.5,11.1000004-30.8999996,25.2999992c1.3000002-0.2999992,2.6000004-0.2999992,4-0.2999992
			c1.7999992,0,3.7000008,0.2999992,5.3000011,0.5l0,0C22.8999996,29.2000008,31.8999996,22,42.4000015,22
			c8.7000008,0,16.5999985,5,20,12.4000015c0,0,0.2999992,0.2999992,0.2999992,0
			c2.6000023-0.7999992,5.7999992-1.0999985,8.7000008-0.7999992
			C71.6999969,33.5999985,71.6999969,33.5999985,71.6999969,33.4000015"/>
	</g>
</g>
</svg>
