<?xml version="1.0" encoding="UTF-8"?>
<svg xmlns="http://www.w3.org/2000/svg" viewBox="80 0 60 80">
   <defs>
      <style>.cls-1{fill:#6d41ff;}</style>
   </defs>
   <g id="Layer_2" data-name="Layer 2">
      <g id="Layer_1-2" data-name="Layer 1">
         <path class="cls-1" d="M75.761,0V56.825h40.246a16.579,16.579,0,0,0,16.578-16.579V0Zm44.293,35.82h2.121v2.121h-2.121Zm-.667-9.131h3.446v3.447h-3.446Zm-.53-9h4.507V22.2h-4.507Zm-7.276,26.6H113.7V46.41h-2.121Zm-.663-9.239h3.447V38.5h-3.447Zm-.53-8.891H114.9v4.507h-4.507Zm.53-4.492V18.221h3.447v3.446ZM94.644,44.289h2.121V46.41H94.644Zm-.663-9.131h3.447V38.6H93.981Zm.663-5.685V27.352h2.121v2.121Zm-.663-11.252h3.447v3.446H93.981ZM86.175,44.289H88.3V46.41H86.175Zm0-8.469H88.3v2.121H86.175Zm-.662-9.131h3.446v3.447H85.513Zm-.531-9H89.49V22.2H84.982ZM83,7.241h42.342V15.71H108.407V49.584H99.939V15.71H83Z" />
      </g>
   </g>
</svg>
